<?xml version="1.0" encoding="UTF-8"?>
<svg xmlns="http://www.w3.org/2000/svg" xmlns:xlink="http://www.w3.org/1999/xlink" width="196.763458pt" height="104.726265pt" viewBox="0 0 196.763458 104.726265" version="1.1">
<defs>
<clipPath id="clip1">
  <path d="M 149 0 L 196.761719 0 L 196.761719 16 L 149 16 Z M 149 0 "/>
</clipPath>
<clipPath id="clip2">
  <path d="M 148 0 L 196.761719 0 L 196.761719 17 L 148 17 Z M 148 0 "/>
</clipPath>
<clipPath id="clip3">
  <path d="M 51 72 L 124 72 L 124 104.726562 L 51 104.726562 Z M 51 72 "/>
</clipPath>
<clipPath id="clip4">
  <path d="M 50 71 L 125 71 L 125 104.726562 L 50 104.726562 Z M 50 71 "/>
</clipPath>
<clipPath id="clip5">
  <path d="M 140 88 L 189 88 L 189 104.726562 L 140 104.726562 Z M 140 88 "/>
</clipPath>
</defs>
<g id="surface1">
<path style="fill:none;stroke-width:1.2;stroke-linecap:butt;stroke-linejoin:miter;stroke:rgb(0%,0%,0%);stroke-opacity:1;stroke-miterlimit:4;" d="M 140.921875 7.519531 L 128.425781 7.519531 "/>
<path style="fill-rule:evenodd;fill:rgb(100%,100%,100%);fill-opacity:1;stroke-width:1.2;stroke-linecap:butt;stroke-linejoin:miter;stroke:rgb(0%,0%,0%);stroke-opacity:1;stroke-miterlimit:4;" d="M 18.222656 4.816406 L 18.222656 10.898438 L 27.382812 10.898438 L 30.347656 7.933594 L 27.304688 4.894531 Z M 18.222656 4.816406 "/>
<path style=" stroke:none;fill-rule:nonzero;fill:rgb(0%,0%,0%);fill-opacity:1;" d="M 50.433594 8.253906 L 42.363281 10.847656 L 42.363281 5.660156 Z M 50.433594 8.253906 "/>
<path style="fill:none;stroke-width:1.2;stroke-linecap:butt;stroke-linejoin:miter;stroke:rgb(0%,0%,0%);stroke-opacity:1;stroke-miterlimit:4;" d="M 42.800781 8.054688 L 30.203125 8.054688 "/>
<path style=" stroke:none;fill-rule:nonzero;fill:rgb(0%,0%,0%);fill-opacity:1;" d="M 38 13.851562 C 38 14.8125 37.21875 15.59375 36.257812 15.59375 C 35.292969 15.59375 34.511719 14.8125 34.511719 13.851562 C 34.511719 12.886719 35.292969 12.105469 36.257812 12.105469 C 37.21875 12.105469 38 12.886719 38 13.851562 Z M 38 13.851562 "/>
<path style=" stroke:none;fill-rule:nonzero;fill:rgb(0%,0%,0%);fill-opacity:1;" d="M 38 20.03125 C 38 20.996094 37.21875 21.777344 36.257812 21.777344 C 35.292969 21.777344 34.511719 20.996094 34.511719 20.03125 C 34.511719 19.066406 35.292969 18.285156 36.257812 18.285156 C 37.21875 18.285156 38 19.066406 38 20.03125 Z M 38 20.03125 "/>
<path style="fill-rule:evenodd;fill:rgb(100%,100%,100%);fill-opacity:1;stroke-width:1.2;stroke-linecap:butt;stroke-linejoin:miter;stroke:rgb(0%,0%,0%);stroke-opacity:1;stroke-miterlimit:4;" d="M 18.222656 23.96875 L 18.222656 30.046875 L 27.382812 30.046875 L 30.347656 27.085938 L 27.304688 24.042969 Z M 18.222656 23.96875 "/>
<path style=" stroke:none;fill-rule:nonzero;fill:rgb(0%,0%,0%);fill-opacity:1;" d="M 50.433594 27.40625 L 42.363281 30 L 42.363281 24.8125 Z M 50.433594 27.40625 "/>
<path style="fill:none;stroke-width:1.2;stroke-linecap:butt;stroke-linejoin:miter;stroke:rgb(0%,0%,0%);stroke-opacity:1;stroke-miterlimit:4;" d="M 42.800781 27.207031 L 30.203125 27.207031 "/>
<path style=" stroke:none;fill-rule:nonzero;fill:rgb(0%,0%,0%);fill-opacity:1;" d="M 2.941406 9.984375 L 0.457031 3.546875 L 1.378906 3.546875 L 3.050781 8.21875 C 3.183594 8.59375 3.292969 8.949219 3.378906 9.28125 C 3.480469 8.929688 3.601562 8.574219 3.738281 8.21875 L 5.472656 3.546875 L 6.347656 3.546875 L 3.816406 9.984375 Z M 2.941406 9.984375 "/>
<path style=" stroke:none;fill-rule:nonzero;fill:rgb(0%,0%,0%);fill-opacity:1;" d="M 6.789062 7.429688 L 7.351562 7.429688 L 7.351562 11.726562 L 6.789062 11.726562 Z M 6.789062 7.429688 "/>
<path style=" stroke:none;fill-rule:nonzero;fill:rgb(0%,0%,0%);fill-opacity:1;" d="M 8.25 11.726562 L 8.25 7.429688 L 8.84375 7.429688 L 11.09375 10.804688 L 11.09375 7.429688 L 11.640625 7.429688 L 11.640625 11.726562 L 11.0625 11.726562 L 8.796875 8.351562 L 8.796875 11.726562 Z M 8.25 11.726562 "/>
<path style=" stroke:none;fill-rule:nonzero;fill:rgb(0%,0%,0%);fill-opacity:1;" d="M 12.183594 11.804688 L 12.449219 10.554688 L 11.949219 10.554688 L 11.949219 10.117188 L 12.527344 10.117188 L 12.746094 9.054688 L 11.949219 9.054688 L 11.949219 8.617188 L 12.839844 8.617188 L 13.089844 7.351562 L 13.527344 7.351562 L 13.277344 8.617188 L 14.199219 8.617188 L 14.449219 7.351562 L 14.902344 7.351562 L 14.636719 8.617188 L 15.152344 8.617188 L 15.152344 9.054688 L 14.558594 9.054688 L 14.339844 10.117188 L 15.152344 10.117188 L 15.152344 10.554688 L 14.246094 10.554688 L 13.996094 11.804688 L 13.558594 11.804688 L 13.808594 10.554688 L 12.886719 10.554688 L 12.621094 11.804688 Z M 12.964844 10.117188 L 13.886719 10.117188 L 14.105469 9.054688 L 13.183594 9.054688 Z M 12.964844 10.117188 "/>
<path style=" stroke:none;fill-rule:nonzero;fill:rgb(0%,0%,0%);fill-opacity:1;" d="M 2.832031 29.277344 L 0.347656 22.839844 L 1.269531 22.839844 L 2.941406 27.511719 C 3.074219 27.886719 3.183594 28.242188 3.269531 28.574219 C 3.371094 28.222656 3.492188 27.867188 3.628906 27.511719 L 5.363281 22.839844 L 6.238281 22.839844 L 3.707031 29.277344 Z M 2.832031 29.277344 "/>
<path style=" stroke:none;fill-rule:nonzero;fill:rgb(0%,0%,0%);fill-opacity:1;" d="M 6.679688 26.71875 L 7.242188 26.71875 L 7.242188 31.015625 L 6.679688 31.015625 Z M 6.679688 26.71875 "/>
<path style=" stroke:none;fill-rule:nonzero;fill:rgb(0%,0%,0%);fill-opacity:1;" d="M 8.140625 31.015625 L 8.140625 26.71875 L 8.734375 26.71875 L 10.984375 30.09375 L 10.984375 26.71875 L 11.53125 26.71875 L 11.53125 31.015625 L 10.953125 31.015625 L 8.6875 27.640625 L 8.6875 31.015625 Z M 8.140625 31.015625 "/>
<path style=" stroke:none;fill-rule:nonzero;fill:rgb(0%,0%,0%);fill-opacity:1;" d="M 12.027344 29.875 L 12.558594 29.8125 C 12.621094 30.117188 12.722656 30.335938 12.871094 30.46875 C 13.015625 30.59375 13.191406 30.65625 13.402344 30.65625 C 13.652344 30.65625 13.859375 30.574219 14.027344 30.40625 C 14.191406 30.230469 14.277344 30.015625 14.277344 29.765625 C 14.277344 29.515625 14.199219 29.3125 14.042969 29.15625 C 13.886719 29 13.6875 28.921875 13.449219 28.921875 C 13.34375 28.921875 13.21875 28.945312 13.074219 28.984375 L 13.121094 28.515625 C 13.160156 28.527344 13.191406 28.53125 13.214844 28.53125 C 13.433594 28.53125 13.628906 28.476562 13.808594 28.359375 C 13.996094 28.234375 14.089844 28.054688 14.089844 27.8125 C 14.089844 27.617188 14.019531 27.453125 13.886719 27.328125 C 13.761719 27.203125 13.59375 27.140625 13.386719 27.140625 C 13.175781 27.140625 13.003906 27.203125 12.871094 27.328125 C 12.734375 27.453125 12.644531 27.648438 12.605469 27.90625 L 12.089844 27.8125 C 12.152344 27.460938 12.296875 27.1875 12.527344 27 C 12.753906 26.804688 13.035156 26.703125 13.371094 26.703125 C 13.609375 26.703125 13.828125 26.757812 14.027344 26.859375 C 14.222656 26.953125 14.375 27.089844 14.480469 27.265625 C 14.582031 27.445312 14.636719 27.625 14.636719 27.8125 C 14.636719 28 14.582031 28.171875 14.480469 28.328125 C 14.386719 28.476562 14.238281 28.59375 14.042969 28.6875 C 14.292969 28.75 14.484375 28.875 14.621094 29.0625 C 14.765625 29.242188 14.839844 29.46875 14.839844 29.75 C 14.839844 30.125 14.703125 30.445312 14.433594 30.703125 C 14.160156 30.964844 13.816406 31.09375 13.402344 31.09375 C 13.015625 31.09375 12.699219 30.984375 12.449219 30.765625 C 12.207031 30.539062 12.066406 30.242188 12.027344 29.875 Z M 12.027344 29.875 "/>
<path style="fill-rule:nonzero;fill:rgb(100%,100%,100%);fill-opacity:1;stroke-width:1.2;stroke-linecap:butt;stroke-linejoin:miter;stroke:rgb(0%,0%,0%);stroke-opacity:1;stroke-miterlimit:4;" d="M 59.410156 1.652344 L 131.613281 1.652344 L 131.613281 33.574219 L 59.410156 33.574219 Z M 59.410156 1.652344 "/>
<path style=" stroke:none;fill-rule:nonzero;fill:rgb(0%,0%,0%);fill-opacity:1;" d="M 148.960938 7.429688 L 140.890625 10.023438 L 140.890625 4.832031 L 144.925781 6.132812 Z M 148.960938 7.429688 "/>
<g clip-path="url(#clip1)" clip-rule="nonzero">
<path style=" stroke:none;fill-rule:nonzero;fill:rgb(100%,100%,100%);fill-opacity:1;" d="M 149.5 0.601562 L 196.164062 0.601562 L 196.164062 15.578125 L 149.5 15.578125 Z M 149.5 0.601562 "/>
</g>
<g clip-path="url(#clip2)" clip-rule="nonzero">
<path style="fill:none;stroke-width:1.2;stroke-linecap:butt;stroke-linejoin:miter;stroke:rgb(0%,0%,0%);stroke-opacity:1;stroke-miterlimit:4;" d="M 149.5 0.601562 L 196.164062 0.601562 L 196.164062 15.578125 L 149.5 15.578125 Z M 149.5 0.601562 "/>
</g>
<path style=" stroke:none;fill-rule:nonzero;fill:rgb(0%,0%,0%);fill-opacity:1;" d="M 153.667969 10.410156 L 153.667969 3.972656 L 156.527344 3.972656 C 157.097656 3.972656 157.535156 4.03125 157.839844 4.144531 C 158.140625 4.261719 158.378906 4.464844 158.558594 4.753906 C 158.734375 5.046875 158.824219 5.371094 158.824219 5.722656 C 158.824219 6.183594 158.671875 6.566406 158.371094 6.878906 C 158.078125 7.191406 157.625 7.390625 157.011719 7.472656 C 157.230469 7.589844 157.402344 7.699219 157.527344 7.800781 C 157.777344 8.03125 158.011719 8.316406 158.230469 8.660156 L 159.355469 10.410156 L 158.277344 10.410156 L 157.417969 9.066406 C 157.175781 8.683594 156.972656 8.390625 156.808594 8.191406 C 156.652344 7.984375 156.503906 7.839844 156.371094 7.753906 C 156.246094 7.671875 156.121094 7.613281 155.996094 7.582031 C 155.890625 7.5625 155.730469 7.550781 155.511719 7.550781 L 154.527344 7.550781 L 154.527344 10.410156 Z M 154.527344 6.816406 L 156.355469 6.816406 C 156.75 6.816406 157.058594 6.777344 157.277344 6.691406 C 157.496094 6.609375 157.660156 6.480469 157.777344 6.300781 C 157.890625 6.125 157.949219 5.933594 157.949219 5.722656 C 157.949219 5.421875 157.832031 5.171875 157.605469 4.972656 C 157.386719 4.777344 157.035156 4.675781 156.558594 4.675781 L 154.527344 4.675781 Z M 154.527344 6.816406 "/>
<path style=" stroke:none;fill-rule:nonzero;fill:rgb(0%,0%,0%);fill-opacity:1;" d="M 163.039062 8.910156 L 163.867188 9.003906 C 163.730469 9.484375 163.484375 9.859375 163.132812 10.128906 C 162.789062 10.390625 162.34375 10.519531 161.804688 10.519531 C 161.125 10.519531 160.585938 10.3125 160.179688 9.894531 C 159.78125 9.46875 159.585938 8.875 159.585938 8.113281 C 159.585938 7.332031 159.789062 6.730469 160.195312 6.300781 C 160.601562 5.863281 161.125 5.644531 161.773438 5.644531 C 162.398438 5.644531 162.902344 5.859375 163.289062 6.285156 C 163.683594 6.703125 163.882812 7.296875 163.882812 8.066406 C 163.882812 8.121094 163.882812 8.191406 163.882812 8.285156 L 160.398438 8.285156 C 160.429688 8.796875 160.574219 9.1875 160.835938 9.457031 C 161.09375 9.730469 161.421875 9.863281 161.820312 9.863281 C 162.109375 9.863281 162.355469 9.792969 162.554688 9.644531 C 162.761719 9.488281 162.921875 9.246094 163.039062 8.910156 Z M 160.445312 7.628906 L 163.054688 7.628906 C 163.023438 7.234375 162.921875 6.9375 162.757812 6.738281 C 162.507812 6.4375 162.179688 6.285156 161.773438 6.285156 C 161.40625 6.285156 161.101562 6.410156 160.851562 6.660156 C 160.609375 6.902344 160.476562 7.222656 160.445312 7.628906 Z M 160.445312 7.628906 "/>
<path style=" stroke:none;fill-rule:nonzero;fill:rgb(0%,0%,0%);fill-opacity:1;" d="M 167.746094 8.707031 L 168.527344 8.800781 C 168.441406 9.34375 168.222656 9.765625 167.871094 10.066406 C 167.515625 10.371094 167.082031 10.519531 166.574219 10.519531 C 165.9375 10.519531 165.425781 10.3125 165.042969 9.894531 C 164.65625 9.480469 164.464844 8.878906 164.464844 8.097656 C 164.464844 7.589844 164.546875 7.144531 164.714844 6.769531 C 164.878906 6.394531 165.128906 6.113281 165.464844 5.925781 C 165.808594 5.738281 166.183594 5.644531 166.589844 5.644531 C 167.089844 5.644531 167.5 5.777344 167.824219 6.035156 C 168.144531 6.285156 168.355469 6.644531 168.449219 7.113281 L 167.683594 7.238281 C 167.609375 6.925781 167.480469 6.691406 167.292969 6.535156 C 167.105469 6.371094 166.878906 6.285156 166.621094 6.285156 C 166.214844 6.285156 165.886719 6.433594 165.636719 6.722656 C 165.394531 7.003906 165.277344 7.453125 165.277344 8.066406 C 165.277344 8.703125 165.394531 9.160156 165.636719 9.441406 C 165.875 9.722656 166.1875 9.863281 166.574219 9.863281 C 166.886719 9.863281 167.144531 9.769531 167.355469 9.582031 C 167.5625 9.394531 167.691406 9.105469 167.746094 8.707031 Z M 167.746094 8.707031 "/>
<path style=" stroke:none;fill-rule:nonzero;fill:rgb(0%,0%,0%);fill-opacity:1;" d="M 168.757812 8.082031 C 168.757812 7.21875 168.996094 6.578125 169.476562 6.160156 C 169.882812 5.816406 170.371094 5.644531 170.945312 5.644531 C 171.589844 5.644531 172.117188 5.855469 172.523438 6.269531 C 172.929688 6.6875 173.132812 7.265625 173.132812 8.003906 C 173.132812 8.609375 173.039062 9.082031 172.851562 9.425781 C 172.671875 9.769531 172.414062 10.042969 172.070312 10.238281 C 171.726562 10.425781 171.351562 10.519531 170.945312 10.519531 C 170.289062 10.519531 169.757812 10.3125 169.351562 9.894531 C 168.953125 9.46875 168.757812 8.863281 168.757812 8.082031 Z M 169.570312 8.082031 C 169.570312 8.675781 169.699219 9.125 169.960938 9.425781 C 170.21875 9.71875 170.546875 9.863281 170.945312 9.863281 C 171.339844 9.863281 171.667969 9.71875 171.929688 9.425781 C 172.1875 9.125 172.320312 8.667969 172.320312 8.050781 C 172.320312 7.480469 172.1875 7.042969 171.929688 6.738281 C 171.667969 6.4375 171.339844 6.285156 170.945312 6.285156 C 170.546875 6.285156 170.21875 6.4375 169.960938 6.738281 C 169.699219 7.03125 169.570312 7.480469 169.570312 8.082031 Z M 169.570312 8.082031 "/>
<path style=" stroke:none;fill-rule:nonzero;fill:rgb(0%,0%,0%);fill-opacity:1;" d="M 173.886719 10.410156 L 173.886719 5.738281 L 174.605469 5.738281 L 174.605469 6.457031 C 174.78125 6.125 174.949219 5.90625 175.105469 5.800781 C 175.261719 5.699219 175.433594 5.644531 175.621094 5.644531 C 175.878906 5.644531 176.152344 5.730469 176.433594 5.894531 L 176.152344 6.628906 C 175.964844 6.515625 175.769531 6.457031 175.574219 6.457031 C 175.40625 6.457031 175.25 6.511719 175.105469 6.613281 C 174.96875 6.71875 174.871094 6.863281 174.808594 7.050781 C 174.722656 7.332031 174.683594 7.640625 174.683594 7.972656 L 174.683594 10.410156 Z M 173.886719 10.410156 "/>
<path style=" stroke:none;fill-rule:nonzero;fill:rgb(0%,0%,0%);fill-opacity:1;" d="M 179.839844 10.410156 L 179.839844 9.816406 C 179.535156 10.285156 179.097656 10.519531 178.527344 10.519531 C 178.160156 10.519531 177.824219 10.414062 177.511719 10.207031 C 177.199219 10 176.953125 9.714844 176.777344 9.347656 C 176.609375 8.984375 176.527344 8.5625 176.527344 8.082031 C 176.527344 7.613281 176.605469 7.191406 176.761719 6.816406 C 176.917969 6.433594 177.144531 6.140625 177.449219 5.941406 C 177.761719 5.746094 178.109375 5.644531 178.496094 5.644531 C 178.777344 5.644531 179.027344 5.703125 179.246094 5.816406 C 179.464844 5.933594 179.640625 6.089844 179.777344 6.285156 L 179.777344 3.972656 L 180.574219 3.972656 L 180.574219 10.410156 Z M 177.339844 8.082031 C 177.339844 8.675781 177.464844 9.125 177.714844 9.425781 C 177.964844 9.71875 178.261719 9.863281 178.605469 9.863281 C 178.949219 9.863281 179.238281 9.722656 179.480469 9.441406 C 179.730469 9.160156 179.855469 8.730469 179.855469 8.144531 C 179.855469 7.511719 179.730469 7.042969 179.480469 6.738281 C 179.230469 6.4375 178.925781 6.285156 178.574219 6.285156 C 178.21875 6.285156 177.921875 6.433594 177.683594 6.722656 C 177.453125 7.015625 177.339844 7.46875 177.339844 8.082031 Z M 177.339844 8.082031 "/>
<path style=" stroke:none;fill-rule:nonzero;fill:rgb(0%,0%,0%);fill-opacity:1;" d="M 181.65625 4.878906 L 181.65625 3.972656 L 182.453125 3.972656 L 182.453125 4.878906 Z M 181.65625 10.410156 L 181.65625 5.738281 L 182.453125 5.738281 L 182.453125 10.410156 Z M 181.65625 10.410156 "/>
<path style=" stroke:none;fill-rule:nonzero;fill:rgb(0%,0%,0%);fill-opacity:1;" d="M 183.597656 10.410156 L 183.597656 5.738281 L 184.316406 5.738281 L 184.316406 6.410156 C 184.648438 5.902344 185.144531 5.644531 185.800781 5.644531 C 186.082031 5.644531 186.335938 5.699219 186.566406 5.800781 C 186.804688 5.894531 186.980469 6.027344 187.097656 6.191406 C 187.210938 6.347656 187.292969 6.542969 187.347656 6.769531 C 187.378906 6.917969 187.394531 7.171875 187.394531 7.535156 L 187.394531 10.410156 L 186.597656 10.410156 L 186.597656 7.566406 C 186.597656 7.246094 186.566406 7.003906 186.503906 6.847656 C 186.441406 6.691406 186.332031 6.566406 186.175781 6.472656 C 186.019531 6.371094 185.835938 6.316406 185.628906 6.316406 C 185.292969 6.316406 185.003906 6.425781 184.753906 6.644531 C 184.511719 6.855469 184.394531 7.261719 184.394531 7.863281 L 184.394531 10.410156 Z M 183.597656 10.410156 "/>
<path style=" stroke:none;fill-rule:nonzero;fill:rgb(0%,0%,0%);fill-opacity:1;" d="M 188.300781 10.800781 L 189.066406 10.910156 C 189.097656 11.148438 189.183594 11.320312 189.332031 11.425781 C 189.527344 11.570312 189.800781 11.644531 190.144531 11.644531 C 190.507812 11.644531 190.789062 11.570312 190.988281 11.425781 C 191.183594 11.277344 191.320312 11.074219 191.394531 10.816406 C 191.433594 10.648438 191.449219 10.3125 191.441406 9.800781 C 191.097656 10.207031 190.667969 10.410156 190.160156 10.410156 C 189.511719 10.410156 189.011719 10.183594 188.660156 9.722656 C 188.316406 9.253906 188.144531 8.699219 188.144531 8.050781 C 188.144531 7.605469 188.222656 7.191406 188.378906 6.816406 C 188.542969 6.441406 188.777344 6.15625 189.082031 5.957031 C 189.382812 5.75 189.742188 5.644531 190.160156 5.644531 C 190.710938 5.644531 191.164062 5.863281 191.519531 6.300781 L 191.519531 5.738281 L 192.253906 5.738281 L 192.253906 9.769531 C 192.253906 10.496094 192.175781 11.011719 192.019531 11.316406 C 191.871094 11.617188 191.636719 11.855469 191.316406 12.035156 C 191.003906 12.210938 190.613281 12.300781 190.144531 12.300781 C 189.582031 12.300781 189.128906 12.175781 188.785156 11.925781 C 188.449219 11.675781 188.289062 11.300781 188.300781 10.800781 Z M 188.957031 7.988281 C 188.957031 8.605469 189.074219 9.050781 189.316406 9.332031 C 189.554688 9.613281 189.855469 9.753906 190.222656 9.753906 C 190.585938 9.753906 190.894531 9.613281 191.144531 9.332031 C 191.394531 9.050781 191.519531 8.613281 191.519531 8.019531 C 191.519531 7.449219 191.386719 7.015625 191.128906 6.722656 C 190.878906 6.433594 190.574219 6.285156 190.222656 6.285156 C 189.867188 6.285156 189.566406 6.433594 189.316406 6.722656 C 189.074219 7.003906 188.957031 7.425781 188.957031 7.988281 Z M 188.957031 7.988281 "/>
<path style="fill-rule:nonzero;fill:rgb(100%,100%,100%);fill-opacity:1;stroke-width:1.2;stroke-linecap:butt;stroke-linejoin:miter;stroke:rgb(0%,0%,0%);stroke-opacity:1;stroke-miterlimit:4;" d="M 56.769531 7.695312 L 128.972656 7.695312 L 128.972656 39.621094 L 56.769531 39.621094 Z M 56.769531 7.695312 "/>
<path style="fill-rule:nonzero;fill:rgb(100%,100%,100%);fill-opacity:1;stroke-width:1.2;stroke-linecap:butt;stroke-linejoin:miter;stroke:rgb(0%,0%,0%);stroke-opacity:1;stroke-miterlimit:4;" d="M 54.273438 15.363281 L 126.476562 15.363281 L 126.476562 47.285156 L 54.273438 47.285156 Z M 54.273438 15.363281 "/>
<path style="fill-rule:evenodd;fill:rgb(100%,100%,100%);fill-opacity:1;stroke-width:1.2;stroke-linecap:butt;stroke-linejoin:miter;stroke:rgb(0%,0%,0%);stroke-opacity:1;stroke-miterlimit:4;" d="M 18.203125 35.847656 L 18.203125 41.929688 L 27.363281 41.929688 L 30.324219 38.964844 L 27.285156 35.925781 Z M 18.203125 35.847656 "/>
<path style=" stroke:none;fill-rule:nonzero;fill:rgb(0%,0%,0%);fill-opacity:1;" d="M 50.414062 39.289062 L 46.378906 40.585938 L 42.339844 41.882812 L 42.339844 36.691406 L 46.378906 37.988281 Z M 50.414062 39.289062 "/>
<path style="fill:none;stroke-width:1.2;stroke-linecap:butt;stroke-linejoin:miter;stroke:rgb(0%,0%,0%);stroke-opacity:1;stroke-miterlimit:4;" d="M 42.78125 39.085938 L 30.179688 39.085938 "/>
<path style=" stroke:none;fill-rule:nonzero;fill:rgb(0%,0%,0%);fill-opacity:1;" d="M 2.492188 40.984375 L 0.0078125 34.546875 L 0.929688 34.546875 L 2.601562 39.21875 C 2.734375 39.59375 2.84375 39.949219 2.929688 40.28125 C 3.03125 39.929688 3.152344 39.574219 3.289062 39.21875 L 5.023438 34.546875 L 5.898438 34.546875 L 3.367188 40.984375 Z M 2.492188 40.984375 "/>
<path style=" stroke:none;fill-rule:nonzero;fill:rgb(0%,0%,0%);fill-opacity:1;" d="M 6.339844 38.429688 L 6.902344 38.429688 L 6.902344 42.726562 L 6.339844 42.726562 Z M 6.339844 38.429688 "/>
<path style=" stroke:none;fill-rule:nonzero;fill:rgb(0%,0%,0%);fill-opacity:1;" d="M 7.800781 42.726562 L 7.800781 38.429688 L 8.394531 38.429688 L 10.644531 41.804688 L 10.644531 38.429688 L 11.191406 38.429688 L 11.191406 42.726562 L 10.613281 42.726562 L 8.347656 39.351562 L 8.347656 42.726562 Z M 7.800781 42.726562 "/>
<path style=" stroke:none;fill-rule:nonzero;fill:rgb(0%,0%,0%);fill-opacity:1;" d="M 14.453125 42.226562 L 14.453125 42.726562 L 11.625 42.726562 C 11.613281 42.601562 11.632812 42.484375 11.6875 42.367188 C 11.757812 42.171875 11.875 41.976562 12.03125 41.789062 C 12.1875 41.601562 12.414062 41.382812 12.71875 41.132812 C 13.1875 40.757812 13.5 40.460938 13.65625 40.242188 C 13.820312 40.015625 13.90625 39.800781 13.90625 39.601562 C 13.90625 39.382812 13.832031 39.207031 13.6875 39.070312 C 13.539062 38.925781 13.347656 38.851562 13.109375 38.851562 C 12.847656 38.851562 12.640625 38.929688 12.484375 39.085938 C 12.335938 39.234375 12.265625 39.441406 12.265625 39.710938 L 11.71875 39.648438 C 11.757812 39.253906 11.898438 38.953125 12.140625 38.742188 C 12.378906 38.523438 12.703125 38.414062 13.109375 38.414062 C 13.523438 38.414062 13.851562 38.53125 14.09375 38.757812 C 14.332031 38.988281 14.453125 39.269531 14.453125 39.601562 C 14.453125 39.78125 14.414062 39.953125 14.34375 40.117188 C 14.269531 40.285156 14.148438 40.460938 13.984375 40.648438 C 13.828125 40.828125 13.5625 41.078125 13.1875 41.398438 C 12.863281 41.660156 12.65625 41.835938 12.5625 41.929688 C 12.476562 42.023438 12.410156 42.125 12.359375 42.226562 Z M 14.453125 42.226562 "/>
<path style="fill-rule:nonzero;fill:rgb(100%,100%,100%);fill-opacity:1;stroke-width:1.2;stroke-linecap:butt;stroke-linejoin:miter;stroke:rgb(0%,0%,0%);stroke-opacity:1;stroke-miterlimit:4;" d="M 51.695312 23.507812 L 123.898438 23.507812 L 123.898438 55.433594 L 51.695312 55.433594 Z M 51.695312 23.507812 "/>
<path style=" stroke:none;fill-rule:nonzero;fill:rgb(0%,0%,0%);fill-opacity:1;" d="M 61.613281 52.085938 L 61.613281 45.648438 L 62.488281 45.648438 L 65.863281 50.695312 L 65.863281 45.648438 L 66.691406 45.648438 L 66.691406 52.085938 L 65.816406 52.085938 L 62.425781 47.023438 L 62.425781 52.085938 Z M 61.613281 52.085938 "/>
<path style=" stroke:none;fill-rule:nonzero;fill:rgb(0%,0%,0%);fill-opacity:1;" d="M 67.90625 52.085938 L 67.90625 45.648438 L 70.34375 45.648438 C 70.769531 45.648438 71.097656 45.671875 71.328125 45.710938 C 71.640625 45.765625 71.898438 45.863281 72.109375 46.007812 C 72.328125 46.15625 72.5 46.363281 72.625 46.632812 C 72.757812 46.894531 72.828125 47.1875 72.828125 47.507812 C 72.828125 48.0625 72.648438 48.523438 72.296875 48.898438 C 71.953125 49.273438 71.328125 49.460938 70.421875 49.460938 L 68.765625 49.460938 L 68.765625 52.085938 Z M 68.765625 48.710938 L 70.4375 48.710938 C 70.976562 48.710938 71.363281 48.609375 71.59375 48.398438 C 71.832031 48.191406 71.953125 47.90625 71.953125 47.539062 C 71.953125 47.269531 71.882812 47.039062 71.75 46.851562 C 71.613281 46.65625 71.429688 46.523438 71.203125 46.460938 C 71.066406 46.421875 70.800781 46.398438 70.40625 46.398438 L 68.765625 46.398438 Z M 68.765625 48.710938 "/>
<path style=" stroke:none;fill-rule:nonzero;fill:rgb(0%,0%,0%);fill-opacity:1;" d="M 73.878906 45.648438 L 74.722656 45.648438 L 74.722656 52.085938 L 73.878906 52.085938 Z M 73.878906 45.648438 "/>
<path style=" stroke:none;fill-rule:nonzero;fill:rgb(0%,0%,0%);fill-opacity:1;" d="M 78.710938 45.648438 L 79.554688 45.648438 L 79.554688 52.085938 L 78.710938 52.085938 Z M 78.710938 45.648438 "/>
<path style=" stroke:none;fill-rule:nonzero;fill:rgb(0%,0%,0%);fill-opacity:1;" d="M 80.875 52.085938 L 80.875 47.414062 L 81.59375 47.414062 L 81.59375 48.085938 C 81.925781 47.578125 82.421875 47.320312 83.078125 47.320312 C 83.359375 47.320312 83.613281 47.375 83.84375 47.476562 C 84.082031 47.570312 84.257812 47.703125 84.375 47.867188 C 84.488281 48.023438 84.570312 48.21875 84.625 48.445312 C 84.65625 48.59375 84.671875 48.847656 84.671875 49.210938 L 84.671875 52.085938 L 83.875 52.085938 L 83.875 49.242188 C 83.875 48.921875 83.84375 48.679688 83.78125 48.523438 C 83.71875 48.367188 83.609375 48.242188 83.453125 48.148438 C 83.296875 48.046875 83.113281 47.992188 82.90625 47.992188 C 82.570312 47.992188 82.28125 48.101562 82.03125 48.320312 C 81.789062 48.53125 81.671875 48.9375 81.671875 49.539062 L 81.671875 52.085938 Z M 80.875 52.085938 "/>
<path style=" stroke:none;fill-rule:nonzero;fill:rgb(0%,0%,0%);fill-opacity:1;" d="M 87.457031 51.382812 L 87.566406 52.070312 C 87.335938 52.121094 87.136719 52.148438 86.972656 52.148438 C 86.679688 52.148438 86.457031 52.101562 86.300781 52.007812 C 86.144531 51.914062 86.027344 51.796875 85.957031 51.648438 C 85.894531 51.503906 85.863281 51.195312 85.863281 50.726562 L 85.863281 48.039062 L 85.285156 48.039062 L 85.285156 47.414062 L 85.863281 47.414062 L 85.863281 46.257812 L 86.660156 45.789062 L 86.660156 47.414062 L 87.457031 47.414062 L 87.457031 48.039062 L 86.660156 48.039062 L 86.660156 50.757812 C 86.660156 50.988281 86.667969 51.132812 86.691406 51.195312 C 86.722656 51.257812 86.769531 51.3125 86.832031 51.351562 C 86.894531 51.394531 86.980469 51.414062 87.097656 51.414062 C 87.191406 51.414062 87.308594 51.40625 87.457031 51.382812 Z M 87.457031 51.382812 "/>
<path style=" stroke:none;fill-rule:nonzero;fill:rgb(0%,0%,0%);fill-opacity:1;" d="M 91.328125 50.585938 L 92.15625 50.679688 C 92.019531 51.160156 91.773438 51.535156 91.421875 51.804688 C 91.078125 52.066406 90.632812 52.195312 90.09375 52.195312 C 89.414062 52.195312 88.875 51.988281 88.46875 51.570312 C 88.070312 51.144531 87.875 50.550781 87.875 49.789062 C 87.875 49.007812 88.078125 48.40625 88.484375 47.976562 C 88.890625 47.539062 89.414062 47.320312 90.0625 47.320312 C 90.6875 47.320312 91.191406 47.535156 91.578125 47.960938 C 91.972656 48.378906 92.171875 48.972656 92.171875 49.742188 C 92.171875 49.796875 92.171875 49.867188 92.171875 49.960938 L 88.6875 49.960938 C 88.71875 50.472656 88.863281 50.863281 89.125 51.132812 C 89.382812 51.40625 89.710938 51.539062 90.109375 51.539062 C 90.398438 51.539062 90.644531 51.46875 90.84375 51.320312 C 91.050781 51.164062 91.210938 50.921875 91.328125 50.585938 Z M 88.734375 49.304688 L 91.34375 49.304688 C 91.3125 48.910156 91.210938 48.613281 91.046875 48.414062 C 90.796875 48.113281 90.46875 47.960938 90.0625 47.960938 C 89.695312 47.960938 89.390625 48.085938 89.140625 48.335938 C 88.898438 48.578125 88.765625 48.898438 88.734375 49.304688 Z M 88.734375 49.304688 "/>
<path style=" stroke:none;fill-rule:nonzero;fill:rgb(0%,0%,0%);fill-opacity:1;" d="M 92.96875 52.085938 L 92.96875 47.414062 L 93.6875 47.414062 L 93.6875 48.132812 C 93.863281 47.800781 94.03125 47.582031 94.1875 47.476562 C 94.34375 47.375 94.515625 47.320312 94.703125 47.320312 C 94.960938 47.320312 95.234375 47.40625 95.515625 47.570312 L 95.234375 48.304688 C 95.046875 48.191406 94.851562 48.132812 94.65625 48.132812 C 94.488281 48.132812 94.332031 48.1875 94.1875 48.289062 C 94.050781 48.394531 93.953125 48.539062 93.890625 48.726562 C 93.804688 49.007812 93.765625 49.316406 93.765625 49.648438 L 93.765625 52.085938 Z M 92.96875 52.085938 "/>
<path style=" stroke:none;fill-rule:nonzero;fill:rgb(0%,0%,0%);fill-opacity:1;" d="M 96.082031 52.085938 L 96.082031 48.039062 L 95.378906 48.039062 L 95.378906 47.414062 L 96.082031 47.414062 L 96.082031 46.929688 C 96.082031 46.609375 96.105469 46.375 96.160156 46.226562 C 96.242188 46.019531 96.378906 45.851562 96.566406 45.726562 C 96.761719 45.601562 97.035156 45.539062 97.378906 45.539062 C 97.597656 45.539062 97.839844 45.566406 98.113281 45.617188 L 97.988281 46.304688 C 97.832031 46.273438 97.679688 46.257812 97.535156 46.257812 C 97.292969 46.257812 97.121094 46.3125 97.019531 46.414062 C 96.914062 46.519531 96.863281 46.710938 96.863281 46.992188 L 96.863281 47.414062 L 97.785156 47.414062 L 97.785156 48.039062 L 96.863281 48.039062 L 96.863281 52.085938 Z M 96.082031 52.085938 "/>
<path style=" stroke:none;fill-rule:nonzero;fill:rgb(0%,0%,0%);fill-opacity:1;" d="M 101.355469 51.507812 C 101.0625 51.757812 100.78125 51.9375 100.511719 52.039062 C 100.238281 52.140625 99.949219 52.195312 99.636719 52.195312 C 99.125 52.195312 98.730469 52.070312 98.449219 51.820312 C 98.175781 51.570312 98.042969 51.25 98.042969 50.851562 C 98.042969 50.625 98.09375 50.414062 98.199219 50.226562 C 98.300781 50.039062 98.4375 49.890625 98.605469 49.773438 C 98.769531 49.660156 98.957031 49.570312 99.167969 49.507812 C 99.324219 49.476562 99.558594 49.441406 99.871094 49.398438 C 100.515625 49.328125 100.988281 49.234375 101.292969 49.117188 C 101.292969 49.015625 101.292969 48.945312 101.292969 48.914062 C 101.292969 48.59375 101.21875 48.367188 101.074219 48.242188 C 100.863281 48.054688 100.5625 47.960938 100.167969 47.960938 C 99.792969 47.960938 99.515625 48.03125 99.339844 48.164062 C 99.160156 48.289062 99.03125 48.519531 98.949219 48.851562 L 98.183594 48.757812 C 98.246094 48.425781 98.355469 48.160156 98.511719 47.960938 C 98.675781 47.753906 98.910156 47.597656 99.214844 47.492188 C 99.527344 47.378906 99.878906 47.320312 100.277344 47.320312 C 100.683594 47.320312 101.003906 47.367188 101.246094 47.460938 C 101.496094 47.554688 101.675781 47.675781 101.792969 47.820312 C 101.917969 47.957031 102 48.132812 102.042969 48.351562 C 102.074219 48.488281 102.089844 48.726562 102.089844 49.070312 L 102.089844 50.132812 C 102.089844 50.863281 102.105469 51.328125 102.136719 51.523438 C 102.167969 51.722656 102.234375 51.910156 102.339844 52.085938 L 101.511719 52.085938 C 101.425781 51.921875 101.375 51.726562 101.355469 51.507812 Z M 101.292969 49.742188 C 101 49.859375 100.566406 49.957031 99.996094 50.039062 C 99.671875 50.09375 99.441406 50.148438 99.308594 50.210938 C 99.171875 50.265625 99.066406 50.347656 98.996094 50.460938 C 98.921875 50.578125 98.886719 50.703125 98.886719 50.835938 C 98.886719 51.046875 98.964844 51.222656 99.121094 51.367188 C 99.277344 51.503906 99.511719 51.570312 99.824219 51.570312 C 100.125 51.570312 100.394531 51.503906 100.636719 51.367188 C 100.875 51.234375 101.050781 51.050781 101.167969 50.820312 C 101.25 50.644531 101.292969 50.382812 101.292969 50.039062 Z M 101.292969 49.742188 "/>
<path style=" stroke:none;fill-rule:nonzero;fill:rgb(0%,0%,0%);fill-opacity:1;" d="M 106.203125 50.382812 L 106.984375 50.476562 C 106.898438 51.019531 106.679688 51.441406 106.328125 51.742188 C 105.972656 52.046875 105.539062 52.195312 105.03125 52.195312 C 104.394531 52.195312 103.882812 51.988281 103.5 51.570312 C 103.113281 51.15625 102.921875 50.554688 102.921875 49.773438 C 102.921875 49.265625 103.003906 48.820312 103.171875 48.445312 C 103.335938 48.070312 103.585938 47.789062 103.921875 47.601562 C 104.265625 47.414062 104.640625 47.320312 105.046875 47.320312 C 105.546875 47.320312 105.957031 47.453125 106.28125 47.710938 C 106.601562 47.960938 106.8125 48.320312 106.90625 48.789062 L 106.140625 48.914062 C 106.066406 48.601562 105.9375 48.367188 105.75 48.210938 C 105.5625 48.046875 105.335938 47.960938 105.078125 47.960938 C 104.671875 47.960938 104.34375 48.109375 104.09375 48.398438 C 103.851562 48.679688 103.734375 49.128906 103.734375 49.742188 C 103.734375 50.378906 103.851562 50.835938 104.09375 51.117188 C 104.332031 51.398438 104.644531 51.539062 105.03125 51.539062 C 105.34375 51.539062 105.601562 51.445312 105.8125 51.257812 C 106.019531 51.070312 106.148438 50.78125 106.203125 50.382812 Z M 106.203125 50.382812 "/>
<path style=" stroke:none;fill-rule:nonzero;fill:rgb(0%,0%,0%);fill-opacity:1;" d="M 110.699219 50.585938 L 111.527344 50.679688 C 111.390625 51.160156 111.144531 51.535156 110.792969 51.804688 C 110.449219 52.066406 110.003906 52.195312 109.464844 52.195312 C 108.785156 52.195312 108.246094 51.988281 107.839844 51.570312 C 107.441406 51.144531 107.246094 50.550781 107.246094 49.789062 C 107.246094 49.007812 107.449219 48.40625 107.855469 47.976562 C 108.261719 47.539062 108.785156 47.320312 109.433594 47.320312 C 110.058594 47.320312 110.5625 47.535156 110.949219 47.960938 C 111.34375 48.378906 111.542969 48.972656 111.542969 49.742188 C 111.542969 49.796875 111.542969 49.867188 111.542969 49.960938 L 108.058594 49.960938 C 108.089844 50.472656 108.234375 50.863281 108.496094 51.132812 C 108.753906 51.40625 109.082031 51.539062 109.480469 51.539062 C 109.769531 51.539062 110.015625 51.46875 110.214844 51.320312 C 110.421875 51.164062 110.582031 50.921875 110.699219 50.585938 Z M 108.105469 49.304688 L 110.714844 49.304688 C 110.683594 48.910156 110.582031 48.613281 110.417969 48.414062 C 110.167969 48.113281 109.839844 47.960938 109.433594 47.960938 C 109.066406 47.960938 108.761719 48.085938 108.511719 48.335938 C 108.269531 48.578125 108.136719 48.898438 108.105469 49.304688 Z M 108.105469 49.304688 "/>
<path style="fill:none;stroke-width:1.2;stroke-linecap:butt;stroke-linejoin:miter;stroke:rgb(0%,0%,0%);stroke-opacity:1;stroke-miterlimit:4;" d="M 57.679688 35.261719 L 116.734375 35.261719 "/>
<path style="fill-rule:evenodd;fill:rgb(100%,100%,100%);fill-opacity:1;stroke-width:1.2;stroke-linecap:butt;stroke-linejoin:miter;stroke:rgb(0%,0%,0%);stroke-opacity:1;stroke-miterlimit:4;" d="M 75.171875 35.238281 L 79.828125 29.042969 L 89.039062 29.042969 L 89.039062 41.421875 L 79.828125 41.421875 Z M 75.171875 35.238281 "/>
<path style="fill-rule:nonzero;fill:rgb(100%,100%,100%);fill-opacity:1;stroke-width:1.207682;stroke-linecap:butt;stroke-linejoin:miter;stroke:rgb(0%,0%,0%);stroke-opacity:1;stroke-miterlimit:4;" d="M 73.60922 35.328125 L 67.773498 38.695312 L 61.93382 42.066406 L 61.93382 28.585938 L 67.773498 31.957031 Z M 73.60922 35.328125 " transform="matrix(0.987319,0,0,1,0,0)"/>
<path style="fill-rule:nonzero;fill:rgb(100%,100%,100%);fill-opacity:1;stroke-width:1.2;stroke-linecap:butt;stroke-linejoin:miter;stroke:rgb(0%,0%,0%);stroke-opacity:1;stroke-miterlimit:4;" d="M 93.5 28.953125 L 113.699219 28.953125 L 113.699219 41.371094 L 93.5 41.371094 Z M 93.5 28.953125 "/>
<path style=" stroke:none;fill-rule:nonzero;fill:rgb(0%,0%,0%);fill-opacity:1;" d="M 95.300781 38.210938 L 95.300781 31.773438 L 97.519531 31.773438 C 98.027344 31.773438 98.414062 31.804688 98.675781 31.867188 C 99.039062 31.953125 99.351562 32.101562 99.613281 32.320312 C 99.957031 32.613281 100.210938 32.984375 100.378906 33.429688 C 100.542969 33.867188 100.628906 34.378906 100.628906 34.960938 C 100.628906 35.453125 100.570312 35.882812 100.457031 36.257812 C 100.339844 36.632812 100.195312 36.945312 100.019531 37.195312 C 99.839844 37.445312 99.644531 37.644531 99.425781 37.789062 C 99.214844 37.925781 98.960938 38.03125 98.660156 38.101562 C 98.367188 38.175781 98.023438 38.210938 97.628906 38.210938 Z M 96.160156 37.445312 L 97.535156 37.445312 C 97.960938 37.445312 98.292969 37.410156 98.535156 37.335938 C 98.773438 37.253906 98.964844 37.140625 99.113281 36.992188 C 99.308594 36.796875 99.464844 36.523438 99.582031 36.179688 C 99.695312 35.835938 99.753906 35.425781 99.753906 34.945312 C 99.753906 34.269531 99.644531 33.753906 99.425781 33.398438 C 99.207031 33.035156 98.933594 32.789062 98.613281 32.664062 C 98.382812 32.570312 98.019531 32.523438 97.519531 32.523438 L 96.160156 32.523438 Z M 96.160156 37.445312 "/>
<path style=" stroke:none;fill-rule:nonzero;fill:rgb(0%,0%,0%);fill-opacity:1;" d="M 101.3125 36.148438 L 102.109375 36.070312 C 102.148438 36.394531 102.238281 36.660156 102.375 36.867188 C 102.519531 37.078125 102.738281 37.242188 103.03125 37.367188 C 103.320312 37.492188 103.648438 37.554688 104.015625 37.554688 C 104.335938 37.554688 104.625 37.507812 104.875 37.414062 C 105.125 37.320312 105.3125 37.191406 105.4375 37.023438 C 105.5625 36.847656 105.625 36.660156 105.625 36.460938 C 105.625 36.265625 105.5625 36.09375 105.4375 35.945312 C 105.320312 35.789062 105.128906 35.660156 104.859375 35.554688 C 104.691406 35.484375 104.3125 35.378906 103.71875 35.242188 C 103.125 35.097656 102.707031 34.960938 102.46875 34.835938 C 102.164062 34.679688 101.9375 34.484375 101.78125 34.242188 C 101.632812 34.003906 101.5625 33.734375 101.5625 33.429688 C 101.5625 33.109375 101.648438 32.804688 101.828125 32.523438 C 102.015625 32.242188 102.285156 32.03125 102.640625 31.882812 C 102.992188 31.738281 103.390625 31.664062 103.828125 31.664062 C 104.304688 31.664062 104.726562 31.742188 105.09375 31.898438 C 105.457031 32.046875 105.734375 32.269531 105.921875 32.570312 C 106.117188 32.875 106.226562 33.210938 106.25 33.585938 L 105.421875 33.648438 C 105.378906 33.242188 105.234375 32.9375 104.984375 32.726562 C 104.734375 32.519531 104.359375 32.414062 103.859375 32.414062 C 103.347656 32.414062 102.972656 32.507812 102.734375 32.695312 C 102.492188 32.882812 102.375 33.113281 102.375 33.382812 C 102.375 33.613281 102.457031 33.800781 102.625 33.945312 C 102.789062 34.101562 103.21875 34.257812 103.90625 34.414062 C 104.601562 34.570312 105.082031 34.707031 105.34375 34.820312 C 105.71875 34.988281 105.992188 35.207031 106.171875 35.476562 C 106.347656 35.738281 106.4375 36.046875 106.4375 36.398438 C 106.4375 36.734375 106.335938 37.054688 106.140625 37.367188 C 105.941406 37.671875 105.660156 37.90625 105.296875 38.070312 C 104.929688 38.234375 104.519531 38.320312 104.0625 38.320312 C 103.476562 38.320312 102.988281 38.234375 102.59375 38.070312 C 102.195312 37.894531 101.882812 37.640625 101.65625 37.304688 C 101.4375 36.960938 101.320312 36.578125 101.3125 36.148438 Z M 101.3125 36.148438 "/>
<path style=" stroke:none;fill-rule:nonzero;fill:rgb(0%,0%,0%);fill-opacity:1;" d="M 107.410156 38.210938 L 107.410156 31.773438 L 109.847656 31.773438 C 110.273438 31.773438 110.601562 31.796875 110.832031 31.835938 C 111.144531 31.890625 111.402344 31.988281 111.613281 32.132812 C 111.832031 32.28125 112.003906 32.488281 112.128906 32.757812 C 112.261719 33.019531 112.332031 33.3125 112.332031 33.632812 C 112.332031 34.1875 112.152344 34.648438 111.800781 35.023438 C 111.457031 35.398438 110.832031 35.585938 109.925781 35.585938 L 108.269531 35.585938 L 108.269531 38.210938 Z M 108.269531 34.835938 L 109.941406 34.835938 C 110.480469 34.835938 110.867188 34.734375 111.097656 34.523438 C 111.335938 34.316406 111.457031 34.03125 111.457031 33.664062 C 111.457031 33.394531 111.386719 33.164062 111.253906 32.976562 C 111.117188 32.78125 110.933594 32.648438 110.707031 32.585938 C 110.570312 32.546875 110.304688 32.523438 109.910156 32.523438 L 108.269531 32.523438 Z M 108.269531 34.835938 "/>
<path style=" stroke:none;fill-rule:nonzero;fill:rgb(0%,0%,0%);fill-opacity:1;" d="M 118.652344 35.136719 C 118.652344 35.988281 117.964844 36.675781 117.113281 36.675781 C 116.261719 36.675781 115.574219 35.988281 115.574219 35.136719 C 115.574219 34.285156 116.261719 33.597656 117.113281 33.597656 C 117.964844 33.597656 118.652344 34.285156 118.652344 35.136719 Z M 118.652344 35.136719 "/>
<path style=" stroke:none;fill-rule:nonzero;fill:rgb(0%,0%,0%);fill-opacity:1;" d="M 58.738281 35.25 C 58.738281 36.101562 58.050781 36.792969 57.199219 36.792969 C 56.347656 36.792969 55.660156 36.101562 55.660156 35.25 C 55.660156 34.402344 56.347656 33.710938 57.199219 33.710938 C 58.050781 33.710938 58.738281 34.402344 58.738281 35.25 Z M 58.738281 35.25 "/>
<path style="fill:none;stroke-width:1.386682;stroke-linecap:butt;stroke-linejoin:miter;stroke:rgb(0%,0%,0%);stroke-opacity:1;stroke-miterlimit:4;" d="M 81.29914 -114.476562 L 107.442557 -114.476562 " transform="matrix(0,0.748874,-1,0,0,0)"/>
<path style=" stroke:none;fill-rule:nonzero;fill:rgb(0%,0%,0%);fill-opacity:1;" d="M 114.566406 56.363281 L 113.269531 59.382812 L 111.972656 62.40625 L 117.164062 62.40625 L 115.867188 59.382812 Z M 114.566406 56.363281 "/>
<path style=" stroke:none;fill-rule:nonzero;fill:rgb(0%,0%,0%);fill-opacity:1;" d="M 119.75 61.589844 L 120.59375 61.589844 L 120.59375 68.027344 L 119.75 68.027344 Z M 119.75 61.589844 "/>
<path style=" stroke:none;fill-rule:nonzero;fill:rgb(0%,0%,0%);fill-opacity:1;" d="M 121.917969 68.027344 L 121.917969 63.355469 L 122.636719 63.355469 L 122.636719 64.027344 C 122.96875 63.519531 123.464844 63.261719 124.121094 63.261719 C 124.402344 63.261719 124.65625 63.316406 124.886719 63.417969 C 125.125 63.511719 125.300781 63.644531 125.417969 63.808594 C 125.53125 63.964844 125.613281 64.160156 125.667969 64.386719 C 125.699219 64.535156 125.714844 64.789062 125.714844 65.152344 L 125.714844 68.027344 L 124.917969 68.027344 L 124.917969 65.183594 C 124.917969 64.863281 124.886719 64.621094 124.824219 64.464844 C 124.761719 64.308594 124.652344 64.183594 124.496094 64.089844 C 124.339844 63.988281 124.15625 63.933594 123.949219 63.933594 C 123.613281 63.933594 123.324219 64.042969 123.074219 64.261719 C 122.832031 64.472656 122.714844 64.878906 122.714844 65.480469 L 122.714844 68.027344 Z M 121.917969 68.027344 "/>
<path style=" stroke:none;fill-rule:nonzero;fill:rgb(0%,0%,0%);fill-opacity:1;" d="M 126.453125 66.636719 L 127.234375 66.511719 C 127.273438 66.824219 127.394531 67.066406 127.59375 67.230469 C 127.800781 67.398438 128.082031 67.480469 128.4375 67.480469 C 128.800781 67.480469 129.070312 67.410156 129.25 67.261719 C 129.425781 67.117188 129.515625 66.945312 129.515625 66.746094 C 129.515625 66.558594 129.4375 66.417969 129.28125 66.324219 C 129.164062 66.253906 128.894531 66.160156 128.46875 66.042969 C 127.882812 65.898438 127.476562 65.773438 127.25 65.667969 C 127.03125 65.566406 126.863281 65.417969 126.75 65.230469 C 126.632812 65.042969 126.578125 64.835938 126.578125 64.605469 C 126.578125 64.398438 126.625 64.207031 126.71875 64.027344 C 126.8125 63.851562 126.941406 63.699219 127.109375 63.574219 C 127.234375 63.492188 127.398438 63.417969 127.609375 63.355469 C 127.828125 63.292969 128.054688 63.261719 128.296875 63.261719 C 128.660156 63.261719 128.976562 63.316406 129.25 63.417969 C 129.53125 63.523438 129.738281 63.664062 129.875 63.839844 C 130.007812 64.019531 130.101562 64.257812 130.15625 64.558594 L 129.375 64.667969 C 129.34375 64.429688 129.238281 64.242188 129.0625 64.105469 C 128.894531 63.972656 128.660156 63.902344 128.359375 63.902344 C 127.992188 63.902344 127.734375 63.964844 127.578125 64.089844 C 127.421875 64.207031 127.34375 64.347656 127.34375 64.511719 C 127.34375 64.617188 127.375 64.707031 127.4375 64.777344 C 127.5 64.871094 127.601562 64.945312 127.75 64.996094 C 127.820312 65.027344 128.050781 65.097656 128.4375 65.199219 C 129 65.347656 129.390625 65.464844 129.609375 65.558594 C 129.835938 65.652344 130.015625 65.792969 130.140625 65.980469 C 130.265625 66.160156 130.328125 66.382812 130.328125 66.652344 C 130.328125 66.925781 130.25 67.175781 130.09375 67.402344 C 129.9375 67.632812 129.710938 67.816406 129.421875 67.949219 C 129.140625 68.074219 128.8125 68.136719 128.4375 68.136719 C 127.832031 68.136719 127.367188 68.011719 127.046875 67.761719 C 126.734375 67.503906 126.535156 67.128906 126.453125 66.636719 Z M 126.453125 66.636719 "/>
<path style=" stroke:none;fill-rule:nonzero;fill:rgb(0%,0%,0%);fill-opacity:1;" d="M 132.851562 67.324219 L 132.960938 68.011719 C 132.730469 68.0625 132.53125 68.089844 132.367188 68.089844 C 132.074219 68.089844 131.851562 68.042969 131.695312 67.949219 C 131.539062 67.855469 131.421875 67.738281 131.351562 67.589844 C 131.289062 67.445312 131.257812 67.136719 131.257812 66.667969 L 131.257812 63.980469 L 130.679688 63.980469 L 130.679688 63.355469 L 131.257812 63.355469 L 131.257812 62.199219 L 132.054688 61.730469 L 132.054688 63.355469 L 132.851562 63.355469 L 132.851562 63.980469 L 132.054688 63.980469 L 132.054688 66.699219 C 132.054688 66.929688 132.0625 67.074219 132.085938 67.136719 C 132.117188 67.199219 132.164062 67.253906 132.226562 67.292969 C 132.289062 67.335938 132.375 67.355469 132.492188 67.355469 C 132.585938 67.355469 132.703125 67.347656 132.851562 67.324219 Z M 132.851562 67.324219 "/>
<path style=" stroke:none;fill-rule:nonzero;fill:rgb(0%,0%,0%);fill-opacity:1;" d="M 133.519531 68.027344 L 133.519531 63.355469 L 134.238281 63.355469 L 134.238281 64.074219 C 134.414062 63.742188 134.582031 63.523438 134.738281 63.417969 C 134.894531 63.316406 135.066406 63.261719 135.253906 63.261719 C 135.511719 63.261719 135.785156 63.347656 136.066406 63.511719 L 135.785156 64.246094 C 135.597656 64.132812 135.402344 64.074219 135.207031 64.074219 C 135.039062 64.074219 134.882812 64.128906 134.738281 64.230469 C 134.601562 64.335938 134.503906 64.480469 134.441406 64.667969 C 134.355469 64.949219 134.316406 65.257812 134.316406 65.589844 L 134.316406 68.027344 Z M 133.519531 68.027344 "/>
<path style=" stroke:none;fill-rule:nonzero;fill:rgb(0%,0%,0%);fill-opacity:1;" d="M 139.503906 68.027344 L 139.503906 67.339844 C 139.136719 67.871094 138.644531 68.136719 138.019531 68.136719 C 137.746094 68.136719 137.492188 68.082031 137.253906 67.980469 C 137.011719 67.867188 136.832031 67.730469 136.707031 67.574219 C 136.589844 67.417969 136.511719 67.226562 136.472656 66.996094 C 136.441406 66.839844 136.425781 66.589844 136.425781 66.246094 L 136.425781 63.355469 L 137.207031 63.355469 L 137.207031 65.949219 C 137.207031 66.367188 137.226562 66.644531 137.269531 66.777344 C 137.308594 66.988281 137.410156 67.152344 137.566406 67.277344 C 137.730469 67.394531 137.933594 67.449219 138.175781 67.449219 C 138.414062 67.449219 138.636719 67.394531 138.847656 67.277344 C 139.054688 67.152344 139.199219 66.988281 139.285156 66.777344 C 139.367188 66.570312 139.410156 66.261719 139.410156 65.855469 L 139.410156 63.355469 L 140.207031 63.355469 L 140.207031 68.027344 Z M 139.503906 68.027344 "/>
<path style=" stroke:none;fill-rule:nonzero;fill:rgb(0%,0%,0%);fill-opacity:1;" d="M 144.335938 66.324219 L 145.117188 66.417969 C 145.03125 66.960938 144.8125 67.382812 144.460938 67.683594 C 144.105469 67.988281 143.671875 68.136719 143.164062 68.136719 C 142.527344 68.136719 142.015625 67.929688 141.632812 67.511719 C 141.246094 67.097656 141.054688 66.496094 141.054688 65.714844 C 141.054688 65.207031 141.136719 64.761719 141.304688 64.386719 C 141.46875 64.011719 141.71875 63.730469 142.054688 63.542969 C 142.398438 63.355469 142.773438 63.261719 143.179688 63.261719 C 143.679688 63.261719 144.089844 63.394531 144.414062 63.652344 C 144.734375 63.902344 144.945312 64.261719 145.039062 64.730469 L 144.273438 64.855469 C 144.199219 64.542969 144.070312 64.308594 143.882812 64.152344 C 143.695312 63.988281 143.46875 63.902344 143.210938 63.902344 C 142.804688 63.902344 142.476562 64.050781 142.226562 64.339844 C 141.984375 64.621094 141.867188 65.070312 141.867188 65.683594 C 141.867188 66.320312 141.984375 66.777344 142.226562 67.058594 C 142.464844 67.339844 142.777344 67.480469 143.164062 67.480469 C 143.476562 67.480469 143.734375 67.386719 143.945312 67.199219 C 144.152344 67.011719 144.28125 66.722656 144.335938 66.324219 Z M 144.335938 66.324219 "/>
<path style=" stroke:none;fill-rule:nonzero;fill:rgb(0%,0%,0%);fill-opacity:1;" d="M 147.378906 67.324219 L 147.488281 68.011719 C 147.257812 68.0625 147.058594 68.089844 146.894531 68.089844 C 146.601562 68.089844 146.378906 68.042969 146.222656 67.949219 C 146.066406 67.855469 145.949219 67.738281 145.878906 67.589844 C 145.816406 67.445312 145.785156 67.136719 145.785156 66.667969 L 145.785156 63.980469 L 145.207031 63.980469 L 145.207031 63.355469 L 145.785156 63.355469 L 145.785156 62.199219 L 146.582031 61.730469 L 146.582031 63.355469 L 147.378906 63.355469 L 147.378906 63.980469 L 146.582031 63.980469 L 146.582031 66.699219 C 146.582031 66.929688 146.589844 67.074219 146.613281 67.136719 C 146.644531 67.199219 146.691406 67.253906 146.753906 67.292969 C 146.816406 67.335938 146.902344 67.355469 147.019531 67.355469 C 147.113281 67.355469 147.230469 67.347656 147.378906 67.324219 Z M 147.378906 67.324219 "/>
<path style=" stroke:none;fill-rule:nonzero;fill:rgb(0%,0%,0%);fill-opacity:1;" d="M 148.058594 62.496094 L 148.058594 61.589844 L 148.855469 61.589844 L 148.855469 62.496094 Z M 148.058594 68.027344 L 148.058594 63.355469 L 148.855469 63.355469 L 148.855469 68.027344 Z M 148.058594 68.027344 "/>
<path style=" stroke:none;fill-rule:nonzero;fill:rgb(0%,0%,0%);fill-opacity:1;" d="M 149.703125 65.699219 C 149.703125 64.835938 149.941406 64.195312 150.421875 63.777344 C 150.828125 63.433594 151.316406 63.261719 151.890625 63.261719 C 152.535156 63.261719 153.0625 63.472656 153.46875 63.886719 C 153.875 64.304688 154.078125 64.882812 154.078125 65.621094 C 154.078125 66.226562 153.984375 66.699219 153.796875 67.042969 C 153.617188 67.386719 153.359375 67.660156 153.015625 67.855469 C 152.671875 68.042969 152.296875 68.136719 151.890625 68.136719 C 151.234375 68.136719 150.703125 67.929688 150.296875 67.511719 C 149.898438 67.085938 149.703125 66.480469 149.703125 65.699219 Z M 150.515625 65.699219 C 150.515625 66.292969 150.644531 66.742188 150.90625 67.042969 C 151.164062 67.335938 151.492188 67.480469 151.890625 67.480469 C 152.285156 67.480469 152.613281 67.335938 152.875 67.042969 C 153.132812 66.742188 153.265625 66.285156 153.265625 65.667969 C 153.265625 65.097656 153.132812 64.660156 152.875 64.355469 C 152.613281 64.054688 152.285156 63.902344 151.890625 63.902344 C 151.492188 63.902344 151.164062 64.054688 150.90625 64.355469 C 150.644531 64.648438 150.515625 65.097656 150.515625 65.699219 Z M 150.515625 65.699219 "/>
<path style=" stroke:none;fill-rule:nonzero;fill:rgb(0%,0%,0%);fill-opacity:1;" d="M 154.847656 68.027344 L 154.847656 63.355469 L 155.566406 63.355469 L 155.566406 64.027344 C 155.898438 63.519531 156.394531 63.261719 157.050781 63.261719 C 157.332031 63.261719 157.585938 63.316406 157.816406 63.417969 C 158.054688 63.511719 158.230469 63.644531 158.347656 63.808594 C 158.460938 63.964844 158.542969 64.160156 158.597656 64.386719 C 158.628906 64.535156 158.644531 64.789062 158.644531 65.152344 L 158.644531 68.027344 L 157.847656 68.027344 L 157.847656 65.183594 C 157.847656 64.863281 157.816406 64.621094 157.753906 64.464844 C 157.691406 64.308594 157.582031 64.183594 157.425781 64.089844 C 157.269531 63.988281 157.085938 63.933594 156.878906 63.933594 C 156.542969 63.933594 156.253906 64.042969 156.003906 64.261719 C 155.761719 64.472656 155.644531 64.878906 155.644531 65.480469 L 155.644531 68.027344 Z M 154.847656 68.027344 "/>
<path style=" stroke:none;fill-rule:nonzero;fill:rgb(0%,0%,0%);fill-opacity:1;" d="M 159.382812 66.636719 L 160.164062 66.511719 C 160.203125 66.824219 160.324219 67.066406 160.523438 67.230469 C 160.730469 67.398438 161.011719 67.480469 161.367188 67.480469 C 161.730469 67.480469 162 67.410156 162.179688 67.261719 C 162.355469 67.117188 162.445312 66.945312 162.445312 66.746094 C 162.445312 66.558594 162.367188 66.417969 162.210938 66.324219 C 162.09375 66.253906 161.824219 66.160156 161.398438 66.042969 C 160.8125 65.898438 160.40625 65.773438 160.179688 65.667969 C 159.960938 65.566406 159.792969 65.417969 159.679688 65.230469 C 159.5625 65.042969 159.507812 64.835938 159.507812 64.605469 C 159.507812 64.398438 159.554688 64.207031 159.648438 64.027344 C 159.742188 63.851562 159.871094 63.699219 160.039062 63.574219 C 160.164062 63.492188 160.328125 63.417969 160.539062 63.355469 C 160.757812 63.292969 160.984375 63.261719 161.226562 63.261719 C 161.589844 63.261719 161.90625 63.316406 162.179688 63.417969 C 162.460938 63.523438 162.667969 63.664062 162.804688 63.839844 C 162.9375 64.019531 163.03125 64.257812 163.085938 64.558594 L 162.304688 64.667969 C 162.273438 64.429688 162.167969 64.242188 161.992188 64.105469 C 161.824219 63.972656 161.589844 63.902344 161.289062 63.902344 C 160.921875 63.902344 160.664062 63.964844 160.507812 64.089844 C 160.351562 64.207031 160.273438 64.347656 160.273438 64.511719 C 160.273438 64.617188 160.304688 64.707031 160.367188 64.777344 C 160.429688 64.871094 160.53125 64.945312 160.679688 64.996094 C 160.75 65.027344 160.980469 65.097656 161.367188 65.199219 C 161.929688 65.347656 162.320312 65.464844 162.539062 65.558594 C 162.765625 65.652344 162.945312 65.792969 163.070312 65.980469 C 163.195312 66.160156 163.257812 66.382812 163.257812 66.652344 C 163.257812 66.925781 163.179688 67.175781 163.023438 67.402344 C 162.867188 67.632812 162.640625 67.816406 162.351562 67.949219 C 162.070312 68.074219 161.742188 68.136719 161.367188 68.136719 C 160.761719 68.136719 160.296875 68.011719 159.976562 67.761719 C 159.664062 67.503906 159.464844 67.128906 159.382812 66.636719 Z M 159.382812 66.636719 "/>
<path style="fill-rule:evenodd;fill:rgb(100%,100%,100%);fill-opacity:1;stroke-width:1.2;stroke-linecap:butt;stroke-linejoin:miter;stroke:rgb(0%,0%,0%);stroke-opacity:1;stroke-miterlimit:4;" d="M 18.09375 84.542969 L 18.09375 90.621094 L 27.253906 90.621094 L 30.21875 87.660156 L 27.175781 84.617188 Z M 18.09375 84.542969 "/>
<path style=" stroke:none;fill-rule:nonzero;fill:rgb(0%,0%,0%);fill-opacity:1;" d="M 50.304688 87.980469 L 42.234375 90.574219 L 42.234375 85.386719 Z M 50.304688 87.980469 "/>
<path style="fill:none;stroke-width:1.2;stroke-linecap:butt;stroke-linejoin:miter;stroke:rgb(0%,0%,0%);stroke-opacity:1;stroke-miterlimit:4;" d="M 42.671875 87.78125 L 30.074219 87.78125 "/>
<path style=" stroke:none;fill-rule:nonzero;fill:rgb(0%,0%,0%);fill-opacity:1;" d="M 2.671875 89.53125 L 0.1875 83.09375 L 1.109375 83.09375 L 2.78125 87.765625 C 2.914062 88.140625 3.023438 88.496094 3.109375 88.828125 C 3.210938 88.476562 3.332031 88.121094 3.46875 87.765625 L 5.203125 83.09375 L 6.078125 83.09375 L 3.546875 89.53125 Z M 2.671875 89.53125 "/>
<path style=" stroke:none;fill-rule:nonzero;fill:rgb(0%,0%,0%);fill-opacity:1;" d="M 6.519531 86.976562 L 7.082031 86.976562 L 7.082031 91.273438 L 6.519531 91.273438 Z M 6.519531 86.976562 "/>
<path style=" stroke:none;fill-rule:nonzero;fill:rgb(0%,0%,0%);fill-opacity:1;" d="M 7.980469 91.273438 L 7.980469 86.976562 L 8.574219 86.976562 L 10.824219 90.351562 L 10.824219 86.976562 L 11.371094 86.976562 L 11.371094 91.273438 L 10.792969 91.273438 L 8.527344 87.898438 L 8.527344 91.273438 Z M 7.980469 91.273438 "/>
<path style=" stroke:none;fill-rule:nonzero;fill:rgb(0%,0%,0%);fill-opacity:1;" d="M 13.851562 91.273438 L 13.320312 91.273438 L 13.320312 87.914062 C 13.195312 88.039062 13.027344 88.164062 12.820312 88.289062 C 12.621094 88.40625 12.4375 88.492188 12.273438 88.554688 L 12.273438 88.039062 C 12.5625 87.90625 12.820312 87.738281 13.039062 87.539062 C 13.265625 87.34375 13.421875 87.148438 13.507812 86.960938 L 13.851562 86.960938 Z M 13.851562 91.273438 "/>
<g clip-path="url(#clip3)" clip-rule="nonzero">
<path style=" stroke:none;fill-rule:nonzero;fill:rgb(100%,100%,100%);fill-opacity:1;" d="M 51.585938 72.203125 L 123.789062 72.203125 L 123.789062 104.125 L 51.585938 104.125 Z M 51.585938 72.203125 "/>
</g>
<g clip-path="url(#clip4)" clip-rule="nonzero">
<path style="fill:none;stroke-width:1.2;stroke-linecap:butt;stroke-linejoin:miter;stroke:rgb(0%,0%,0%);stroke-opacity:1;stroke-miterlimit:4;" d="M 51.585938 72.203125 L 123.789062 72.203125 L 123.789062 104.125 L 51.585938 104.125 Z M 51.585938 72.203125 "/>
</g>
<path style=" stroke:none;fill-rule:nonzero;fill:rgb(0%,0%,0%);fill-opacity:1;" d="M 61.503906 100.777344 L 61.503906 94.339844 L 62.378906 94.339844 L 65.753906 99.386719 L 65.753906 94.339844 L 66.582031 94.339844 L 66.582031 100.777344 L 65.707031 100.777344 L 62.316406 95.714844 L 62.316406 100.777344 Z M 61.503906 100.777344 "/>
<path style=" stroke:none;fill-rule:nonzero;fill:rgb(0%,0%,0%);fill-opacity:1;" d="M 67.796875 100.777344 L 67.796875 94.339844 L 70.234375 94.339844 C 70.660156 94.339844 70.988281 94.363281 71.21875 94.402344 C 71.53125 94.457031 71.789062 94.554688 72 94.699219 C 72.21875 94.847656 72.390625 95.054688 72.515625 95.324219 C 72.648438 95.585938 72.71875 95.878906 72.71875 96.199219 C 72.71875 96.753906 72.539062 97.214844 72.1875 97.589844 C 71.84375 97.964844 71.21875 98.152344 70.3125 98.152344 L 68.65625 98.152344 L 68.65625 100.777344 Z M 68.65625 97.402344 L 70.328125 97.402344 C 70.867188 97.402344 71.253906 97.300781 71.484375 97.089844 C 71.722656 96.882812 71.84375 96.597656 71.84375 96.230469 C 71.84375 95.960938 71.773438 95.730469 71.640625 95.542969 C 71.503906 95.347656 71.320312 95.214844 71.09375 95.152344 C 70.957031 95.113281 70.691406 95.089844 70.296875 95.089844 L 68.65625 95.089844 Z M 68.65625 97.402344 "/>
<path style=" stroke:none;fill-rule:nonzero;fill:rgb(0%,0%,0%);fill-opacity:1;" d="M 73.773438 94.339844 L 74.617188 94.339844 L 74.617188 100.777344 L 73.773438 100.777344 Z M 73.773438 94.339844 "/>
<path style=" stroke:none;fill-rule:nonzero;fill:rgb(0%,0%,0%);fill-opacity:1;" d="M 78.601562 94.339844 L 79.445312 94.339844 L 79.445312 100.777344 L 78.601562 100.777344 Z M 78.601562 94.339844 "/>
<path style=" stroke:none;fill-rule:nonzero;fill:rgb(0%,0%,0%);fill-opacity:1;" d="M 80.765625 100.777344 L 80.765625 96.105469 L 81.484375 96.105469 L 81.484375 96.777344 C 81.816406 96.269531 82.3125 96.011719 82.96875 96.011719 C 83.25 96.011719 83.503906 96.066406 83.734375 96.167969 C 83.972656 96.261719 84.148438 96.394531 84.265625 96.558594 C 84.378906 96.714844 84.460938 96.910156 84.515625 97.136719 C 84.546875 97.285156 84.5625 97.539062 84.5625 97.902344 L 84.5625 100.777344 L 83.765625 100.777344 L 83.765625 97.933594 C 83.765625 97.613281 83.734375 97.371094 83.671875 97.214844 C 83.609375 97.058594 83.5 96.933594 83.34375 96.839844 C 83.1875 96.738281 83.003906 96.683594 82.796875 96.683594 C 82.460938 96.683594 82.171875 96.792969 81.921875 97.011719 C 81.679688 97.222656 81.5625 97.628906 81.5625 98.230469 L 81.5625 100.777344 Z M 80.765625 100.777344 "/>
<path style=" stroke:none;fill-rule:nonzero;fill:rgb(0%,0%,0%);fill-opacity:1;" d="M 87.347656 100.074219 L 87.457031 100.761719 C 87.226562 100.8125 87.027344 100.839844 86.863281 100.839844 C 86.570312 100.839844 86.347656 100.792969 86.191406 100.699219 C 86.035156 100.605469 85.917969 100.488281 85.847656 100.339844 C 85.785156 100.195312 85.753906 99.886719 85.753906 99.417969 L 85.753906 96.730469 L 85.175781 96.730469 L 85.175781 96.105469 L 85.753906 96.105469 L 85.753906 94.949219 L 86.550781 94.480469 L 86.550781 96.105469 L 87.347656 96.105469 L 87.347656 96.730469 L 86.550781 96.730469 L 86.550781 99.449219 C 86.550781 99.679688 86.558594 99.824219 86.582031 99.886719 C 86.613281 99.949219 86.660156 100.003906 86.722656 100.042969 C 86.785156 100.085938 86.871094 100.105469 86.988281 100.105469 C 87.082031 100.105469 87.199219 100.097656 87.347656 100.074219 Z M 87.347656 100.074219 "/>
<path style=" stroke:none;fill-rule:nonzero;fill:rgb(0%,0%,0%);fill-opacity:1;" d="M 91.21875 99.277344 L 92.046875 99.371094 C 91.910156 99.851562 91.664062 100.226562 91.3125 100.496094 C 90.96875 100.757812 90.523438 100.886719 89.984375 100.886719 C 89.304688 100.886719 88.765625 100.679688 88.359375 100.261719 C 87.960938 99.835938 87.765625 99.242188 87.765625 98.480469 C 87.765625 97.699219 87.96875 97.097656 88.375 96.667969 C 88.78125 96.230469 89.304688 96.011719 89.953125 96.011719 C 90.578125 96.011719 91.082031 96.226562 91.46875 96.652344 C 91.863281 97.070312 92.0625 97.664062 92.0625 98.433594 C 92.0625 98.488281 92.0625 98.558594 92.0625 98.652344 L 88.578125 98.652344 C 88.609375 99.164062 88.753906 99.554688 89.015625 99.824219 C 89.273438 100.097656 89.601562 100.230469 90 100.230469 C 90.289062 100.230469 90.535156 100.160156 90.734375 100.011719 C 90.941406 99.855469 91.101562 99.613281 91.21875 99.277344 Z M 88.625 97.996094 L 91.234375 97.996094 C 91.203125 97.601562 91.101562 97.304688 90.9375 97.105469 C 90.6875 96.804688 90.359375 96.652344 89.953125 96.652344 C 89.585938 96.652344 89.28125 96.777344 89.03125 97.027344 C 88.789062 97.269531 88.65625 97.589844 88.625 97.996094 Z M 88.625 97.996094 "/>
<path style=" stroke:none;fill-rule:nonzero;fill:rgb(0%,0%,0%);fill-opacity:1;" d="M 92.863281 100.777344 L 92.863281 96.105469 L 93.582031 96.105469 L 93.582031 96.824219 C 93.757812 96.492188 93.925781 96.273438 94.082031 96.167969 C 94.238281 96.066406 94.410156 96.011719 94.597656 96.011719 C 94.855469 96.011719 95.128906 96.097656 95.410156 96.261719 L 95.128906 96.996094 C 94.941406 96.882812 94.746094 96.824219 94.550781 96.824219 C 94.382812 96.824219 94.226562 96.878906 94.082031 96.980469 C 93.945312 97.085938 93.847656 97.230469 93.785156 97.417969 C 93.699219 97.699219 93.660156 98.007812 93.660156 98.339844 L 93.660156 100.777344 Z M 92.863281 100.777344 "/>
<path style=" stroke:none;fill-rule:nonzero;fill:rgb(0%,0%,0%);fill-opacity:1;" d="M 95.972656 100.777344 L 95.972656 96.730469 L 95.269531 96.730469 L 95.269531 96.105469 L 95.972656 96.105469 L 95.972656 95.621094 C 95.972656 95.300781 95.996094 95.066406 96.050781 94.917969 C 96.132812 94.710938 96.269531 94.542969 96.457031 94.417969 C 96.652344 94.292969 96.925781 94.230469 97.269531 94.230469 C 97.488281 94.230469 97.730469 94.257812 98.003906 94.308594 L 97.878906 94.996094 C 97.722656 94.964844 97.570312 94.949219 97.425781 94.949219 C 97.183594 94.949219 97.011719 95.003906 96.910156 95.105469 C 96.804688 95.210938 96.753906 95.402344 96.753906 95.683594 L 96.753906 96.105469 L 97.675781 96.105469 L 97.675781 96.730469 L 96.753906 96.730469 L 96.753906 100.777344 Z M 95.972656 100.777344 "/>
<path style=" stroke:none;fill-rule:nonzero;fill:rgb(0%,0%,0%);fill-opacity:1;" d="M 101.25 100.199219 C 100.957031 100.449219 100.675781 100.628906 100.40625 100.730469 C 100.132812 100.832031 99.84375 100.886719 99.53125 100.886719 C 99.019531 100.886719 98.625 100.761719 98.34375 100.511719 C 98.070312 100.261719 97.9375 99.941406 97.9375 99.542969 C 97.9375 99.316406 97.988281 99.105469 98.09375 98.917969 C 98.195312 98.730469 98.332031 98.582031 98.5 98.464844 C 98.664062 98.351562 98.851562 98.261719 99.0625 98.199219 C 99.21875 98.167969 99.453125 98.132812 99.765625 98.089844 C 100.410156 98.019531 100.882812 97.925781 101.1875 97.808594 C 101.1875 97.707031 101.1875 97.636719 101.1875 97.605469 C 101.1875 97.285156 101.113281 97.058594 100.96875 96.933594 C 100.757812 96.746094 100.457031 96.652344 100.0625 96.652344 C 99.6875 96.652344 99.410156 96.722656 99.234375 96.855469 C 99.054688 96.980469 98.925781 97.210938 98.84375 97.542969 L 98.078125 97.449219 C 98.140625 97.117188 98.25 96.851562 98.40625 96.652344 C 98.570312 96.445312 98.804688 96.289062 99.109375 96.183594 C 99.421875 96.070312 99.773438 96.011719 100.171875 96.011719 C 100.578125 96.011719 100.898438 96.058594 101.140625 96.152344 C 101.390625 96.246094 101.570312 96.367188 101.6875 96.511719 C 101.8125 96.648438 101.894531 96.824219 101.9375 97.042969 C 101.96875 97.179688 101.984375 97.417969 101.984375 97.761719 L 101.984375 98.824219 C 101.984375 99.554688 102 100.019531 102.03125 100.214844 C 102.0625 100.414062 102.128906 100.601562 102.234375 100.777344 L 101.40625 100.777344 C 101.320312 100.613281 101.269531 100.417969 101.25 100.199219 Z M 101.1875 98.433594 C 100.894531 98.550781 100.460938 98.648438 99.890625 98.730469 C 99.566406 98.785156 99.335938 98.839844 99.203125 98.902344 C 99.066406 98.957031 98.960938 99.039062 98.890625 99.152344 C 98.816406 99.269531 98.78125 99.394531 98.78125 99.527344 C 98.78125 99.738281 98.859375 99.914062 99.015625 100.058594 C 99.171875 100.195312 99.40625 100.261719 99.71875 100.261719 C 100.019531 100.261719 100.289062 100.195312 100.53125 100.058594 C 100.769531 99.925781 100.945312 99.742188 101.0625 99.511719 C 101.144531 99.335938 101.1875 99.074219 101.1875 98.730469 Z M 101.1875 98.433594 "/>
<path style=" stroke:none;fill-rule:nonzero;fill:rgb(0%,0%,0%);fill-opacity:1;" d="M 106.097656 99.074219 L 106.878906 99.167969 C 106.792969 99.710938 106.574219 100.132812 106.222656 100.433594 C 105.867188 100.738281 105.433594 100.886719 104.925781 100.886719 C 104.289062 100.886719 103.777344 100.679688 103.394531 100.261719 C 103.007812 99.847656 102.816406 99.246094 102.816406 98.464844 C 102.816406 97.957031 102.898438 97.511719 103.066406 97.136719 C 103.230469 96.761719 103.480469 96.480469 103.816406 96.292969 C 104.160156 96.105469 104.535156 96.011719 104.941406 96.011719 C 105.441406 96.011719 105.851562 96.144531 106.175781 96.402344 C 106.496094 96.652344 106.707031 97.011719 106.800781 97.480469 L 106.035156 97.605469 C 105.960938 97.292969 105.832031 97.058594 105.644531 96.902344 C 105.457031 96.738281 105.230469 96.652344 104.972656 96.652344 C 104.566406 96.652344 104.238281 96.800781 103.988281 97.089844 C 103.746094 97.371094 103.628906 97.820312 103.628906 98.433594 C 103.628906 99.070312 103.746094 99.527344 103.988281 99.808594 C 104.226562 100.089844 104.539062 100.230469 104.925781 100.230469 C 105.238281 100.230469 105.496094 100.136719 105.707031 99.949219 C 105.914062 99.761719 106.042969 99.472656 106.097656 99.074219 Z M 106.097656 99.074219 "/>
<path style=" stroke:none;fill-rule:nonzero;fill:rgb(0%,0%,0%);fill-opacity:1;" d="M 110.589844 99.277344 L 111.417969 99.371094 C 111.28125 99.851562 111.035156 100.226562 110.683594 100.496094 C 110.339844 100.757812 109.894531 100.886719 109.355469 100.886719 C 108.675781 100.886719 108.136719 100.679688 107.730469 100.261719 C 107.332031 99.835938 107.136719 99.242188 107.136719 98.480469 C 107.136719 97.699219 107.339844 97.097656 107.746094 96.667969 C 108.152344 96.230469 108.675781 96.011719 109.324219 96.011719 C 109.949219 96.011719 110.453125 96.226562 110.839844 96.652344 C 111.234375 97.070312 111.433594 97.664062 111.433594 98.433594 C 111.433594 98.488281 111.433594 98.558594 111.433594 98.652344 L 107.949219 98.652344 C 107.980469 99.164062 108.125 99.554688 108.386719 99.824219 C 108.644531 100.097656 108.972656 100.230469 109.371094 100.230469 C 109.660156 100.230469 109.90625 100.160156 110.105469 100.011719 C 110.3125 99.855469 110.472656 99.613281 110.589844 99.277344 Z M 107.996094 97.996094 L 110.605469 97.996094 C 110.574219 97.601562 110.472656 97.304688 110.308594 97.105469 C 110.058594 96.804688 109.730469 96.652344 109.324219 96.652344 C 108.957031 96.652344 108.652344 96.777344 108.402344 97.027344 C 108.160156 97.269531 108.027344 97.589844 107.996094 97.996094 Z M 107.996094 97.996094 "/>
<path style="fill:none;stroke-width:1.2;stroke-linecap:butt;stroke-linejoin:miter;stroke:rgb(0%,0%,0%);stroke-opacity:1;stroke-miterlimit:4;" d="M 130.433594 95.925781 L 156.574219 95.925781 "/>
<path style=" stroke:none;fill-rule:nonzero;fill:rgb(0%,0%,0%);fill-opacity:1;" d="M 124.394531 95.832031 L 128.429688 97.128906 L 132.46875 98.429688 L 132.46875 93.238281 L 128.429688 94.535156 Z M 124.394531 95.832031 "/>
<path style=" stroke:none;fill-rule:nonzero;fill:rgb(100%,100%,100%);fill-opacity:1;" d="M 141.445312 89.003906 L 188.109375 89.003906 L 188.109375 103.984375 L 141.445312 103.984375 Z M 141.445312 89.003906 "/>
<g clip-path="url(#clip5)" clip-rule="nonzero">
<path style="fill:none;stroke-width:1.2;stroke-linecap:butt;stroke-linejoin:miter;stroke:rgb(0%,0%,0%);stroke-opacity:1;stroke-miterlimit:4;" d="M 141.445312 89.003906 L 188.109375 89.003906 L 188.109375 103.984375 L 141.445312 103.984375 Z M 141.445312 89.003906 "/>
</g>
<path style=" stroke:none;fill-rule:nonzero;fill:rgb(0%,0%,0%);fill-opacity:1;" d="M 148.824219 98.8125 L 148.824219 92.375 L 153.167969 92.375 L 153.167969 93.125 L 149.683594 93.125 L 149.683594 95.125 L 152.699219 95.125 L 152.699219 95.890625 L 149.683594 95.890625 L 149.683594 98.8125 Z M 148.824219 98.8125 "/>
<path style=" stroke:none;fill-rule:nonzero;fill:rgb(0%,0%,0%);fill-opacity:1;" d="M 157.070312 98.8125 L 157.070312 98.125 C 156.703125 98.65625 156.210938 98.921875 155.585938 98.921875 C 155.3125 98.921875 155.058594 98.867188 154.820312 98.765625 C 154.578125 98.652344 154.398438 98.515625 154.273438 98.359375 C 154.15625 98.203125 154.078125 98.011719 154.039062 97.78125 C 154.007812 97.625 153.992188 97.375 153.992188 97.03125 L 153.992188 94.140625 L 154.773438 94.140625 L 154.773438 96.734375 C 154.773438 97.152344 154.792969 97.429688 154.835938 97.5625 C 154.875 97.773438 154.976562 97.9375 155.132812 98.0625 C 155.296875 98.179688 155.5 98.234375 155.742188 98.234375 C 155.980469 98.234375 156.203125 98.179688 156.414062 98.0625 C 156.621094 97.9375 156.765625 97.773438 156.851562 97.5625 C 156.933594 97.355469 156.976562 97.046875 156.976562 96.640625 L 156.976562 94.140625 L 157.773438 94.140625 L 157.773438 98.8125 Z M 157.070312 98.8125 "/>
<path style=" stroke:none;fill-rule:nonzero;fill:rgb(0%,0%,0%);fill-opacity:1;" d="M 158.855469 98.8125 L 158.855469 94.140625 L 159.574219 94.140625 L 159.574219 94.8125 C 159.90625 94.304688 160.402344 94.046875 161.058594 94.046875 C 161.339844 94.046875 161.59375 94.101562 161.824219 94.203125 C 162.0625 94.296875 162.238281 94.429688 162.355469 94.59375 C 162.46875 94.75 162.550781 94.945312 162.605469 95.171875 C 162.636719 95.320312 162.652344 95.574219 162.652344 95.9375 L 162.652344 98.8125 L 161.855469 98.8125 L 161.855469 95.96875 C 161.855469 95.648438 161.824219 95.40625 161.761719 95.25 C 161.699219 95.09375 161.589844 94.96875 161.433594 94.875 C 161.277344 94.773438 161.09375 94.71875 160.886719 94.71875 C 160.550781 94.71875 160.261719 94.828125 160.011719 95.046875 C 159.769531 95.257812 159.652344 95.664062 159.652344 96.265625 L 159.652344 98.8125 Z M 158.855469 98.8125 "/>
<path style=" stroke:none;fill-rule:nonzero;fill:rgb(0%,0%,0%);fill-opacity:1;" d="M 166.75 97.109375 L 167.53125 97.203125 C 167.445312 97.746094 167.226562 98.167969 166.875 98.46875 C 166.519531 98.773438 166.085938 98.921875 165.578125 98.921875 C 164.941406 98.921875 164.429688 98.714844 164.046875 98.296875 C 163.660156 97.882812 163.46875 97.28125 163.46875 96.5 C 163.46875 95.992188 163.550781 95.546875 163.71875 95.171875 C 163.882812 94.796875 164.132812 94.515625 164.46875 94.328125 C 164.8125 94.140625 165.1875 94.046875 165.59375 94.046875 C 166.09375 94.046875 166.503906 94.179688 166.828125 94.4375 C 167.148438 94.6875 167.359375 95.046875 167.453125 95.515625 L 166.6875 95.640625 C 166.613281 95.328125 166.484375 95.09375 166.296875 94.9375 C 166.109375 94.773438 165.882812 94.6875 165.625 94.6875 C 165.21875 94.6875 164.890625 94.835938 164.640625 95.125 C 164.398438 95.40625 164.28125 95.855469 164.28125 96.46875 C 164.28125 97.105469 164.398438 97.5625 164.640625 97.84375 C 164.878906 98.125 165.191406 98.265625 165.578125 98.265625 C 165.890625 98.265625 166.148438 98.171875 166.359375 97.984375 C 166.566406 97.796875 166.695312 97.507812 166.75 97.109375 Z M 166.75 97.109375 "/>
<path style=" stroke:none;fill-rule:nonzero;fill:rgb(0%,0%,0%);fill-opacity:1;" d="M 169.789062 98.109375 L 169.898438 98.796875 C 169.667969 98.847656 169.46875 98.875 169.304688 98.875 C 169.011719 98.875 168.789062 98.828125 168.632812 98.734375 C 168.476562 98.640625 168.359375 98.523438 168.289062 98.375 C 168.226562 98.230469 168.195312 97.921875 168.195312 97.453125 L 168.195312 94.765625 L 167.617188 94.765625 L 167.617188 94.140625 L 168.195312 94.140625 L 168.195312 92.984375 L 168.992188 92.515625 L 168.992188 94.140625 L 169.789062 94.140625 L 169.789062 94.765625 L 168.992188 94.765625 L 168.992188 97.484375 C 168.992188 97.714844 169 97.859375 169.023438 97.921875 C 169.054688 97.984375 169.101562 98.039062 169.164062 98.078125 C 169.226562 98.121094 169.3125 98.140625 169.429688 98.140625 C 169.523438 98.140625 169.640625 98.132812 169.789062 98.109375 Z M 169.789062 98.109375 "/>
<path style=" stroke:none;fill-rule:nonzero;fill:rgb(0%,0%,0%);fill-opacity:1;" d="M 170.472656 93.28125 L 170.472656 92.375 L 171.269531 92.375 L 171.269531 93.28125 Z M 170.472656 98.8125 L 170.472656 94.140625 L 171.269531 94.140625 L 171.269531 98.8125 Z M 170.472656 98.8125 "/>
<path style=" stroke:none;fill-rule:nonzero;fill:rgb(0%,0%,0%);fill-opacity:1;" d="M 172.113281 96.484375 C 172.113281 95.621094 172.351562 94.980469 172.832031 94.5625 C 173.238281 94.21875 173.726562 94.046875 174.300781 94.046875 C 174.945312 94.046875 175.472656 94.257812 175.878906 94.671875 C 176.285156 95.089844 176.488281 95.667969 176.488281 96.40625 C 176.488281 97.011719 176.394531 97.484375 176.207031 97.828125 C 176.027344 98.171875 175.769531 98.445312 175.425781 98.640625 C 175.082031 98.828125 174.707031 98.921875 174.300781 98.921875 C 173.644531 98.921875 173.113281 98.714844 172.707031 98.296875 C 172.308594 97.871094 172.113281 97.265625 172.113281 96.484375 Z M 172.925781 96.484375 C 172.925781 97.078125 173.054688 97.527344 173.316406 97.828125 C 173.574219 98.121094 173.902344 98.265625 174.300781 98.265625 C 174.695312 98.265625 175.023438 98.121094 175.285156 97.828125 C 175.542969 97.527344 175.675781 97.070312 175.675781 96.453125 C 175.675781 95.882812 175.542969 95.445312 175.285156 95.140625 C 175.023438 94.839844 174.695312 94.6875 174.300781 94.6875 C 173.902344 94.6875 173.574219 94.839844 173.316406 95.140625 C 173.054688 95.433594 172.925781 95.882812 172.925781 96.484375 Z M 172.925781 96.484375 "/>
<path style=" stroke:none;fill-rule:nonzero;fill:rgb(0%,0%,0%);fill-opacity:1;" d="M 177.257812 98.8125 L 177.257812 94.140625 L 177.976562 94.140625 L 177.976562 94.8125 C 178.308594 94.304688 178.804688 94.046875 179.460938 94.046875 C 179.742188 94.046875 179.996094 94.101562 180.226562 94.203125 C 180.464844 94.296875 180.640625 94.429688 180.757812 94.59375 C 180.871094 94.75 180.953125 94.945312 181.007812 95.171875 C 181.039062 95.320312 181.054688 95.574219 181.054688 95.9375 L 181.054688 98.8125 L 180.257812 98.8125 L 180.257812 95.96875 C 180.257812 95.648438 180.226562 95.40625 180.164062 95.25 C 180.101562 95.09375 179.992188 94.96875 179.835938 94.875 C 179.679688 94.773438 179.496094 94.71875 179.289062 94.71875 C 178.953125 94.71875 178.664062 94.828125 178.414062 95.046875 C 178.171875 95.257812 178.054688 95.664062 178.054688 96.265625 L 178.054688 98.8125 Z M 177.257812 98.8125 "/>
<path style="fill:none;stroke-width:1.2;stroke-linecap:butt;stroke-linejoin:miter;stroke:rgb(0%,0%,0%);stroke-opacity:1;stroke-miterlimit:4;" d="M 57.574219 83.953125 L 116.628906 83.953125 "/>
<path style="fill-rule:evenodd;fill:rgb(100%,100%,100%);fill-opacity:1;stroke-width:1.2;stroke-linecap:butt;stroke-linejoin:miter;stroke:rgb(0%,0%,0%);stroke-opacity:1;stroke-miterlimit:4;" d="M 75.0625 83.929688 L 79.722656 77.734375 L 88.933594 77.734375 L 88.933594 90.117188 L 79.722656 90.117188 Z M 75.0625 83.929688 "/>
<path style="fill-rule:nonzero;fill:rgb(100%,100%,100%);fill-opacity:1;stroke-width:1.207682;stroke-linecap:butt;stroke-linejoin:miter;stroke:rgb(0%,0%,0%);stroke-opacity:1;stroke-miterlimit:4;" d="M 73.49844 84.019531 L 67.662718 87.390625 L 61.826997 90.757812 L 61.826997 77.28125 L 67.662718 80.648438 Z M 73.49844 84.019531 " transform="matrix(0.987319,0,0,1,0,0)"/>
<path style="fill-rule:nonzero;fill:rgb(100%,100%,100%);fill-opacity:1;stroke-width:1.2;stroke-linecap:butt;stroke-linejoin:miter;stroke:rgb(0%,0%,0%);stroke-opacity:1;stroke-miterlimit:4;" d="M 93.390625 77.644531 L 113.589844 77.644531 L 113.589844 90.066406 L 93.390625 90.066406 Z M 93.390625 77.644531 "/>
<path style=" stroke:none;fill-rule:nonzero;fill:rgb(0%,0%,0%);fill-opacity:1;" d="M 95.191406 86.902344 L 95.191406 80.464844 L 97.410156 80.464844 C 97.917969 80.464844 98.304688 80.496094 98.566406 80.558594 C 98.929688 80.644531 99.242188 80.792969 99.503906 81.011719 C 99.847656 81.304688 100.101562 81.675781 100.269531 82.121094 C 100.433594 82.558594 100.519531 83.070312 100.519531 83.652344 C 100.519531 84.144531 100.460938 84.574219 100.347656 84.949219 C 100.230469 85.324219 100.085938 85.636719 99.910156 85.886719 C 99.730469 86.136719 99.535156 86.335938 99.316406 86.480469 C 99.105469 86.617188 98.851562 86.722656 98.550781 86.792969 C 98.257812 86.867188 97.914062 86.902344 97.519531 86.902344 Z M 96.050781 86.136719 L 97.425781 86.136719 C 97.851562 86.136719 98.183594 86.101562 98.425781 86.027344 C 98.664062 85.945312 98.855469 85.832031 99.003906 85.683594 C 99.199219 85.488281 99.355469 85.214844 99.472656 84.871094 C 99.585938 84.527344 99.644531 84.117188 99.644531 83.636719 C 99.644531 82.960938 99.535156 82.445312 99.316406 82.089844 C 99.097656 81.726562 98.824219 81.480469 98.503906 81.355469 C 98.273438 81.261719 97.910156 81.214844 97.410156 81.214844 L 96.050781 81.214844 Z M 96.050781 86.136719 "/>
<path style=" stroke:none;fill-rule:nonzero;fill:rgb(0%,0%,0%);fill-opacity:1;" d="M 101.203125 84.839844 L 102 84.761719 C 102.039062 85.085938 102.128906 85.351562 102.265625 85.558594 C 102.410156 85.769531 102.628906 85.933594 102.921875 86.058594 C 103.210938 86.183594 103.539062 86.246094 103.90625 86.246094 C 104.226562 86.246094 104.515625 86.199219 104.765625 86.105469 C 105.015625 86.011719 105.203125 85.882812 105.328125 85.714844 C 105.453125 85.539062 105.515625 85.351562 105.515625 85.152344 C 105.515625 84.957031 105.453125 84.785156 105.328125 84.636719 C 105.210938 84.480469 105.019531 84.351562 104.75 84.246094 C 104.582031 84.175781 104.203125 84.070312 103.609375 83.933594 C 103.015625 83.789062 102.597656 83.652344 102.359375 83.527344 C 102.054688 83.371094 101.828125 83.175781 101.671875 82.933594 C 101.523438 82.695312 101.453125 82.425781 101.453125 82.121094 C 101.453125 81.800781 101.539062 81.496094 101.71875 81.214844 C 101.90625 80.933594 102.175781 80.722656 102.53125 80.574219 C 102.882812 80.429688 103.28125 80.355469 103.71875 80.355469 C 104.195312 80.355469 104.617188 80.433594 104.984375 80.589844 C 105.347656 80.738281 105.625 80.960938 105.8125 81.261719 C 106.007812 81.566406 106.117188 81.902344 106.140625 82.277344 L 105.3125 82.339844 C 105.269531 81.933594 105.125 81.628906 104.875 81.417969 C 104.625 81.210938 104.25 81.105469 103.75 81.105469 C 103.238281 81.105469 102.863281 81.199219 102.625 81.386719 C 102.382812 81.574219 102.265625 81.804688 102.265625 82.074219 C 102.265625 82.304688 102.347656 82.492188 102.515625 82.636719 C 102.679688 82.792969 103.109375 82.949219 103.796875 83.105469 C 104.492188 83.261719 104.972656 83.398438 105.234375 83.511719 C 105.609375 83.679688 105.882812 83.898438 106.0625 84.167969 C 106.238281 84.429688 106.328125 84.738281 106.328125 85.089844 C 106.328125 85.425781 106.226562 85.746094 106.03125 86.058594 C 105.832031 86.363281 105.550781 86.597656 105.1875 86.761719 C 104.820312 86.925781 104.410156 87.011719 103.953125 87.011719 C 103.367188 87.011719 102.878906 86.925781 102.484375 86.761719 C 102.085938 86.585938 101.773438 86.332031 101.546875 85.996094 C 101.328125 85.652344 101.210938 85.269531 101.203125 84.839844 Z M 101.203125 84.839844 "/>
<path style=" stroke:none;fill-rule:nonzero;fill:rgb(0%,0%,0%);fill-opacity:1;" d="M 107.300781 86.902344 L 107.300781 80.464844 L 109.738281 80.464844 C 110.164062 80.464844 110.492188 80.488281 110.722656 80.527344 C 111.035156 80.582031 111.292969 80.679688 111.503906 80.824219 C 111.722656 80.972656 111.894531 81.179688 112.019531 81.449219 C 112.152344 81.710938 112.222656 82.003906 112.222656 82.324219 C 112.222656 82.878906 112.042969 83.339844 111.691406 83.714844 C 111.347656 84.089844 110.722656 84.277344 109.816406 84.277344 L 108.160156 84.277344 L 108.160156 86.902344 Z M 108.160156 83.527344 L 109.832031 83.527344 C 110.371094 83.527344 110.757812 83.425781 110.988281 83.214844 C 111.226562 83.007812 111.347656 82.722656 111.347656 82.355469 C 111.347656 82.085938 111.277344 81.855469 111.144531 81.667969 C 111.007812 81.472656 110.824219 81.339844 110.597656 81.277344 C 110.460938 81.238281 110.195312 81.214844 109.800781 81.214844 L 108.160156 81.214844 Z M 108.160156 83.527344 "/>
<path style=" stroke:none;fill-rule:nonzero;fill:rgb(0%,0%,0%);fill-opacity:1;" d="M 118.542969 83.828125 C 118.542969 84.679688 117.855469 85.367188 117.003906 85.367188 C 116.15625 85.367188 115.464844 84.679688 115.464844 83.828125 C 115.464844 82.976562 116.15625 82.289062 117.003906 82.289062 C 117.855469 82.289062 118.542969 82.976562 118.542969 83.828125 Z M 118.542969 83.828125 "/>
<path style=" stroke:none;fill-rule:nonzero;fill:rgb(0%,0%,0%);fill-opacity:1;" d="M 58.632812 83.945312 C 58.632812 84.792969 57.941406 85.484375 57.089844 85.484375 C 56.242188 85.484375 55.550781 84.792969 55.550781 83.945312 C 55.550781 83.09375 56.242188 82.402344 57.089844 82.402344 C 57.941406 82.402344 58.632812 83.09375 58.632812 83.945312 Z M 58.632812 83.945312 "/>
</g>
</svg>
