<?xml version="1.0" encoding="UTF-8" standalone="no"?>
<svg
   width="266.213806pt"
   height="132.859589pt"
   viewBox="0 0 266.213806 132.859589"
   version="1.1"
   id="svg22885"
   sodipodi:docname="measure.svg"
   inkscape:version="1.2 (dc2aedaf03, 2022-05-15)"
   xmlns:inkscape="http://www.inkscape.org/namespaces/inkscape"
   xmlns:sodipodi="http://sodipodi.sourceforge.net/DTD/sodipodi-0.dtd"
   xmlns="http://www.w3.org/2000/svg"
   xmlns:svg="http://www.w3.org/2000/svg">
  <sodipodi:namedview
     id="namedview22887"
     pagecolor="#505050"
     bordercolor="#eeeeee"
     borderopacity="1"
     inkscape:showpageshadow="0"
     inkscape:pageopacity="0"
     inkscape:pagecheckerboard="0"
     inkscape:deskcolor="#505050"
     inkscape:document-units="pt"
     showgrid="false"
     inkscape:zoom="4.487934"
     inkscape:cx="177.36446"
     inkscape:cy="88.79364"
     inkscape:window-width="3840"
     inkscape:window-height="2080"
     inkscape:window-x="-11"
     inkscape:window-y="-11"
     inkscape:window-maximized="1"
     inkscape:current-layer="svg22885" />
  <defs
     id="defs22574">
    <clipPath
       id="clip1">
      <path
         d="M 114 125 L 119 125 L 119 132.859375 L 114 132.859375 Z M 114 125 "
         id="path22556" />
    </clipPath>
    <clipPath
       id="clip2">
      <path
         d="M 144 125 L 149 125 L 149 132.859375 L 144 132.859375 Z M 144 125 "
         id="path22559" />
    </clipPath>
    <clipPath
       id="clip3">
      <path
         d="M 170 125 L 175 125 L 175 132.859375 L 170 132.859375 Z M 170 125 "
         id="path22562" />
    </clipPath>
    <clipPath
       id="clip4">
      <path
         d="M 178 124 L 181 124 L 181 132.859375 L 178 132.859375 Z M 178 124 "
         id="path22565" />
    </clipPath>
    <clipPath
       id="clip5">
      <path
         d="M 196 124 L 199 124 L 199 132.859375 L 196 132.859375 Z M 196 124 "
         id="path22568" />
    </clipPath>
    <clipPath
       id="clip6">
      <path
         d="M 261 110 L 266.214844 110 L 266.214844 118 L 261 118 Z M 261 110 "
         id="path22571" />
    </clipPath>
  </defs>
  <path
     style="fill:none;stroke:#babdb6;stroke-width:0.75;stroke-linecap:butt;stroke-linejoin:miter;stroke-miterlimit:4;stroke-opacity:1"
     d="M 111.79297,107.14844 V 1.9375"
     id="path22576" />
  <path
     style="fill:none;stroke:#ffffff;stroke-width:0.500001;stroke-linecap:butt;stroke-linejoin:round;stroke-miterlimit:10;stroke-opacity:1"
     d="M 33.304688,1.886719 H 258.89062 V 107.14844 H 33.304688 Z m 0,0"
     id="path22578" />
  <path
     style="fill:none;stroke:#ffffff;stroke-width:0.75;stroke-linecap:butt;stroke-linejoin:round;stroke-miterlimit:10;stroke-opacity:1"
     d="m 40.582031,3.125 34.304688,0.617188 33.785161,4.953124 33.78906,13.621094 20.26953,13.003906 14.03515,16.71875 33.78516,28.484376 10.91797,8.667968 8.83594,6.8125 29.10547,6.191404"
     id="path22580" />
  <path
     style="fill:none;stroke:#ffffff;stroke-width:1.125;stroke-linecap:butt;stroke-linejoin:round;stroke-miterlimit:10;stroke-opacity:1"
     d="M 33.304688,1.886719 H 258.89062"
     id="path22582" />
  <path
     style="fill:none;stroke:#ffffff;stroke-width:1.125;stroke-linecap:butt;stroke-linejoin:round;stroke-miterlimit:10;stroke-opacity:1"
     d="M 33.304688,107.14844 H 258.89062"
     id="path22584" />
  <path
     style="fill:none;stroke:#ffffff;stroke-width:1.125;stroke-linecap:butt;stroke-linejoin:round;stroke-miterlimit:10;stroke-opacity:1"
     d="M 258.89062,107.14844 V 1.886719"
     id="path22586" />
  <path
     style="fill:none;stroke:#ffffff;stroke-width:1.125;stroke-linecap:butt;stroke-linejoin:round;stroke-miterlimit:10;stroke-opacity:1"
     d="M 33.304688,107.14844 V 1.886719"
     id="path22588" />
  <path
     style="fill:none;stroke:#ffffff;stroke-width:1.125;stroke-linecap:butt;stroke-linejoin:round;stroke-miterlimit:10;stroke-opacity:1"
     d="M 33.304688,107.14844 H 258.89062"
     id="path22590" />
  <path
     style="fill:none;stroke:#ffffff;stroke-width:1.125;stroke-linecap:butt;stroke-linejoin:round;stroke-miterlimit:10;stroke-opacity:1"
     d="M 33.304688,107.14844 V 1.886719"
     id="path22592" />
  <path
     style="fill:none;stroke:#ffffff;stroke-width:1.125;stroke-linecap:butt;stroke-linejoin:round;stroke-miterlimit:10;stroke-opacity:1"
     d="m 67.089844,107.14844 v -3"
     id="path22594" />
  <path
     style="fill:none;stroke:#ffffff;stroke-width:1.125;stroke-linecap:butt;stroke-linejoin:round;stroke-miterlimit:10;stroke-opacity:1"
     d="M 67.089844,1.9375 V 4.386719"
     id="path22596" />
  <path
     style="fill:none;stroke:#ffffff;stroke-width:1.125;stroke-linecap:butt;stroke-linejoin:round;stroke-miterlimit:10;stroke-opacity:1"
     d="m 86.84375,107.14844 v -3"
     id="path22598" />
  <path
     style="fill:none;stroke:#ffffff;stroke-width:1.125;stroke-linecap:butt;stroke-linejoin:round;stroke-miterlimit:10;stroke-opacity:1"
     d="M 86.84375,1.9375 V 4.386719"
     id="path22600" />
  <path
     style="fill:none;stroke:#ffffff;stroke-width:1.125;stroke-linecap:butt;stroke-linejoin:round;stroke-miterlimit:10;stroke-opacity:1"
     d="m 100.875,107.14844 v -3"
     id="path22602" />
  <path
     style="fill:none;stroke:#ffffff;stroke-width:1.125;stroke-linecap:butt;stroke-linejoin:round;stroke-miterlimit:10;stroke-opacity:1"
     d="M 100.875,1.9375 V 4.386719"
     id="path22604" />
  <path
     style="fill:none;stroke:#ffffff;stroke-width:1.125;stroke-linecap:butt;stroke-linejoin:round;stroke-miterlimit:10;stroke-opacity:1"
     d="m 111.79297,107.14844 v -3"
     id="path22606" />
  <path
     style="fill:none;stroke:#ffffff;stroke-width:1.125;stroke-linecap:butt;stroke-linejoin:round;stroke-miterlimit:10;stroke-opacity:1"
     d="M 111.79297,1.9375 V 4.386719"
     id="path22608" />
  <path
     style="fill:none;stroke:#ffffff;stroke-width:1.125;stroke-linecap:butt;stroke-linejoin:round;stroke-miterlimit:10;stroke-opacity:1"
     d="m 120.62891,107.14844 v -3"
     id="path22610" />
  <path
     style="fill:none;stroke:#ffffff;stroke-width:1.125;stroke-linecap:butt;stroke-linejoin:round;stroke-miterlimit:10;stroke-opacity:1"
     d="M 120.62891,1.9375 V 4.386719"
     id="path22612" />
  <path
     style="fill:none;stroke:#ffffff;stroke-width:1.125;stroke-linecap:butt;stroke-linejoin:round;stroke-miterlimit:10;stroke-opacity:1"
     d="m 128.42578,107.14844 v -3"
     id="path22614" />
  <path
     style="fill:none;stroke:#ffffff;stroke-width:1.125;stroke-linecap:butt;stroke-linejoin:round;stroke-miterlimit:10;stroke-opacity:1"
     d="M 128.42578,1.9375 V 4.386719"
     id="path22616" />
  <path
     style="fill:none;stroke:#ffffff;stroke-width:1.125;stroke-linecap:butt;stroke-linejoin:round;stroke-miterlimit:10;stroke-opacity:1"
     d="m 134.66406,107.14844 v -3"
     id="path22618" />
  <path
     style="fill:none;stroke:#ffffff;stroke-width:1.125;stroke-linecap:butt;stroke-linejoin:round;stroke-miterlimit:10;stroke-opacity:1"
     d="M 134.66406,1.9375 V 4.386719"
     id="path22620" />
  <path
     style="fill:none;stroke:#ffffff;stroke-width:1.125;stroke-linecap:butt;stroke-linejoin:round;stroke-miterlimit:10;stroke-opacity:1"
     d="m 140.89844,107.14844 v -3"
     id="path22622" />
  <path
     style="fill:none;stroke:#ffffff;stroke-width:1.125;stroke-linecap:butt;stroke-linejoin:round;stroke-miterlimit:10;stroke-opacity:1"
     d="M 140.89844,1.9375 V 4.386719"
     id="path22624" />
  <path
     style="fill:none;stroke:#ffffff;stroke-width:1.125;stroke-linecap:butt;stroke-linejoin:round;stroke-miterlimit:10;stroke-opacity:1"
     d="m 146.09766,107.14844 v -3"
     id="path22626" />
  <path
     style="fill:none;stroke:#ffffff;stroke-width:1.125;stroke-linecap:butt;stroke-linejoin:round;stroke-miterlimit:10;stroke-opacity:1"
     d="M 146.09766,1.9375 V 4.386719"
     id="path22628" />
  <path
     style="fill:none;stroke:#ffffff;stroke-width:1.125;stroke-linecap:butt;stroke-linejoin:round;stroke-miterlimit:10;stroke-opacity:1"
     d="m 146.09766,107.14844 v -5"
     id="path22630" />
  <path
     style="fill:none;stroke:#ffffff;stroke-width:1.125;stroke-linecap:butt;stroke-linejoin:round;stroke-miterlimit:10;stroke-opacity:1"
     d="M 146.09766,1.9375 V 6.835938"
     id="path22632" />
  <path
     style="fill:none;stroke:#ffffff;stroke-width:1.125;stroke-linecap:butt;stroke-linejoin:round;stroke-miterlimit:10;stroke-opacity:1"
     d="m 179.88281,107.14844 v -3"
     id="path22634" />
  <path
     style="fill:none;stroke:#ffffff;stroke-width:1.125;stroke-linecap:butt;stroke-linejoin:round;stroke-miterlimit:10;stroke-opacity:1"
     d="M 179.88281,1.9375 V 4.386719"
     id="path22636" />
  <path
     style="fill:none;stroke:#ffffff;stroke-width:1.125;stroke-linecap:butt;stroke-linejoin:round;stroke-miterlimit:10;stroke-opacity:1"
     d="m 199.63672,107.14844 v -3"
     id="path22638" />
  <path
     style="fill:none;stroke:#ffffff;stroke-width:1.125;stroke-linecap:butt;stroke-linejoin:round;stroke-miterlimit:10;stroke-opacity:1"
     d="M 199.63672,1.9375 V 4.386719"
     id="path22640" />
  <path
     style="fill:none;stroke:#ffffff;stroke-width:1.125;stroke-linecap:butt;stroke-linejoin:round;stroke-miterlimit:10;stroke-opacity:1"
     d="m 213.67187,107.14844 v -3"
     id="path22642" />
  <path
     style="fill:none;stroke:#ffffff;stroke-width:1.125;stroke-linecap:butt;stroke-linejoin:round;stroke-miterlimit:10;stroke-opacity:1"
     d="M 213.67187,1.9375 V 4.386719"
     id="path22644" />
  <path
     style="fill:none;stroke:#ffffff;stroke-width:1.125;stroke-linecap:butt;stroke-linejoin:round;stroke-miterlimit:10;stroke-opacity:1"
     d="m 224.58594,107.14844 v -3"
     id="path22646" />
  <path
     style="fill:none;stroke:#ffffff;stroke-width:1.125;stroke-linecap:butt;stroke-linejoin:round;stroke-miterlimit:10;stroke-opacity:1"
     d="M 224.58594,1.9375 V 4.386719"
     id="path22648" />
  <path
     style="fill:none;stroke:#ffffff;stroke-width:1.125;stroke-linecap:butt;stroke-linejoin:round;stroke-miterlimit:10;stroke-opacity:1"
     d="m 233.42187,107.14844 v -3"
     id="path22650" />
  <path
     style="fill:none;stroke:#ffffff;stroke-width:1.125;stroke-linecap:butt;stroke-linejoin:round;stroke-miterlimit:10;stroke-opacity:1"
     d="M 233.42187,1.9375 V 4.386719"
     id="path22652" />
  <path
     style="fill:none;stroke:#ffffff;stroke-width:1.125;stroke-linecap:butt;stroke-linejoin:round;stroke-miterlimit:10;stroke-opacity:1"
     d="m 241.21875,107.14844 v -3"
     id="path22654" />
  <path
     style="fill:none;stroke:#ffffff;stroke-width:1.125;stroke-linecap:butt;stroke-linejoin:round;stroke-miterlimit:10;stroke-opacity:1"
     d="M 241.21875,1.9375 V 4.386719"
     id="path22656" />
  <path
     style="fill:none;stroke:#ffffff;stroke-width:1.125;stroke-linecap:butt;stroke-linejoin:round;stroke-miterlimit:10;stroke-opacity:1"
     d="m 247.45703,107.14844 v -3"
     id="path22658" />
  <path
     style="fill:none;stroke:#ffffff;stroke-width:1.125;stroke-linecap:butt;stroke-linejoin:round;stroke-miterlimit:10;stroke-opacity:1"
     d="M 247.45703,1.9375 V 4.386719"
     id="path22660" />
  <path
     style="fill:none;stroke:#ffffff;stroke-width:1.125;stroke-linecap:butt;stroke-linejoin:round;stroke-miterlimit:10;stroke-opacity:1"
     d="m 253.69531,107.14844 v -3"
     id="path22662" />
  <path
     style="fill:none;stroke:#ffffff;stroke-width:1.125;stroke-linecap:butt;stroke-linejoin:round;stroke-miterlimit:10;stroke-opacity:1"
     d="M 253.69531,1.9375 V 4.386719"
     id="path22664" />
  <path
     style="fill:none;stroke:#ffffff;stroke-width:1.125;stroke-linecap:butt;stroke-linejoin:round;stroke-miterlimit:10;stroke-opacity:1"
     d="m 33.304688,107.14844 h 2.078124"
     id="path22666" />
  <path
     style="fill:none;stroke:#ffffff;stroke-width:1.125;stroke-linecap:butt;stroke-linejoin:round;stroke-miterlimit:10;stroke-opacity:1"
     d="m 33.304688,80.523438 h 5"
     id="path22668" />
  <path
     style="fill:none;stroke:#ffffff;stroke-width:1.125;stroke-linecap:butt;stroke-linejoin:round;stroke-miterlimit:10;stroke-opacity:1"
     d="m 258.97266,80.523438 h -5"
     id="path22670" />
  <path
     style="fill:none;stroke:#ffffff;stroke-width:1.125;stroke-linecap:butt;stroke-linejoin:round;stroke-miterlimit:10;stroke-opacity:1"
     d="m 33.304688,54.515625 h 5"
     id="path22672" />
  <path
     style="fill:none;stroke:#ffffff;stroke-width:1.125;stroke-linecap:butt;stroke-linejoin:round;stroke-miterlimit:10;stroke-opacity:1"
     d="m 258.97266,54.515625 h -5"
     id="path22674" />
  <path
     style="fill:none;stroke:#ffffff;stroke-width:1.125;stroke-linecap:butt;stroke-linejoin:round;stroke-miterlimit:10;stroke-opacity:1"
     d="m 33.304688,28.511719 h 5"
     id="path22676" />
  <path
     style="fill:none;stroke:#ffffff;stroke-width:1.125;stroke-linecap:butt;stroke-linejoin:round;stroke-miterlimit:10;stroke-opacity:1"
     d="m 258.97266,28.511719 h -5"
     id="path22678" />
  <path
     style="fill:none;stroke:#ffffff;stroke-width:1.125;stroke-linecap:butt;stroke-linejoin:round;stroke-miterlimit:10;stroke-opacity:1"
     d="M 33.304688,1.886719 H 258.89062"
     id="path22680" />
  <path
     style="fill:none;stroke:#ffffff;stroke-width:1.125;stroke-linecap:butt;stroke-linejoin:round;stroke-miterlimit:10;stroke-opacity:1"
     d="M 33.304688,107.14844 H 258.89062"
     id="path22682" />
  <path
     style="fill:none;stroke:#ffffff;stroke-width:1.125;stroke-linecap:butt;stroke-linejoin:round;stroke-miterlimit:10;stroke-opacity:1"
     d="M 258.89062,107.14844 V 1.886719"
     id="path22684" />
  <path
     style="fill:none;stroke:#ffffff;stroke-width:1.125;stroke-linecap:butt;stroke-linejoin:round;stroke-miterlimit:10;stroke-opacity:1"
     d="M 33.304688,107.14844 V 1.886719"
     id="path22686" />
  <path
     style="fill:none;stroke:#ffffff;stroke-width:1.125;stroke-linecap:butt;stroke-linejoin:round;stroke-miterlimit:10;stroke-opacity:1"
     d="m 33.417969,94.285156 h 2.5"
     id="path22688" />
  <path
     style="fill:none;stroke:#ffffff;stroke-width:1.125;stroke-linecap:butt;stroke-linejoin:round;stroke-miterlimit:10;stroke-opacity:1"
     d="m 33.417969,68.277344 h 2.5"
     id="path22690" />
  <path
     style="fill:none;stroke:#ffffff;stroke-width:1.125;stroke-linecap:butt;stroke-linejoin:round;stroke-miterlimit:10;stroke-opacity:1"
     d="m 33.417969,42.273438 h 2.5"
     id="path22692" />
  <path
     style="fill:none;stroke:#ffffff;stroke-width:1.125;stroke-linecap:butt;stroke-linejoin:round;stroke-miterlimit:10;stroke-opacity:1"
     d="m 33.417969,16.265625 h 2.5"
     id="path22694" />
  <path
     style="fill:none;stroke:#ffffff;stroke-width:1.125;stroke-linecap:butt;stroke-linejoin:round;stroke-miterlimit:10;stroke-opacity:1"
     d="m 256.35547,94.285156 h 2.5"
     id="path22696" />
  <path
     style="fill:none;stroke:#ffffff;stroke-width:1.125;stroke-linecap:butt;stroke-linejoin:round;stroke-miterlimit:10;stroke-opacity:1"
     d="m 256.35547,68.277344 h 2.5"
     id="path22698" />
  <path
     style="fill:none;stroke:#ffffff;stroke-width:1.125;stroke-linecap:butt;stroke-linejoin:round;stroke-miterlimit:10;stroke-opacity:1"
     d="m 256.35547,42.273438 h 2.5"
     id="path22700" />
  <path
     style="fill:none;stroke:#ffffff;stroke-width:1.125;stroke-linecap:butt;stroke-linejoin:round;stroke-miterlimit:10;stroke-opacity:1"
     d="m 256.35547,16.265625 h 2.5"
     id="path22702" />
  <path
     style="fill:none;stroke:#ffffff;stroke-width:1.5;stroke-linecap:butt;stroke-linejoin:miter;stroke-miterlimit:4;stroke-opacity:1"
     d="m 166.54687,61.234375 v 21.539063 h 22.66407 z m 0,0"
     id="path22840" />
  <g
     id="g24338">
    <path
       style="fill:#ffffff;fill-opacity:1;fill-rule:nonzero;stroke:none"
       d="M 16.980469,106.78125 H 19.5625 v 0.84375 h -2.582031 z m 0,0"
       id="path22704" />
    <path
       style="fill:#ffffff;fill-opacity:1;fill-rule:nonzero;stroke:none"
       d="m 21.558594,105.96875 c -0.347656,-0.12891 -0.605469,-0.30859 -0.773438,-0.54687 -0.167968,-0.23438 -0.25,-0.51954 -0.25,-0.84766 0,-0.5 0.175782,-0.91797 0.535156,-1.25781 0.359376,-0.33985 0.832032,-0.50782 1.429688,-0.50782 0.597656,0 1.078125,0.17579 1.441406,0.52344 0.363282,0.34375 0.546875,0.76563 0.546875,1.26563 0,0.3164 -0.08594,0.59375 -0.253906,0.82812 -0.164063,0.23438 -0.417969,0.41406 -0.753906,0.54297 0.417969,0.13672 0.738281,0.35938 0.957031,0.66406 0.21875,0.30469 0.328125,0.66797 0.328125,1.08985 0,0.58593 -0.207031,1.07812 -0.621094,1.47656 -0.414062,0.39844 -0.957031,0.59766 -1.632812,0.59766 -0.675781,0 -1.21875,-0.19922 -1.632813,-0.59766 -0.414062,-0.40234 -0.621094,-0.90234 -0.621094,-1.5 0,-0.44531 0.113282,-0.81641 0.335938,-1.11328 0.226562,-0.30469 0.550781,-0.50781 0.964844,-0.61719 z m -0.167969,-1.42187 c 0,0.32031 0.105469,0.58593 0.3125,0.79296 0.210937,0.20313 0.480469,0.3086 0.8125,0.3086 0.324219,0 0.589844,-0.10156 0.796875,-0.30469 0.207031,-0.20703 0.3125,-0.45703 0.3125,-0.75 0,-0.30859 -0.109375,-0.56641 -0.324219,-0.77734 C 23.089844,103.60547 22.824219,103.5 22.507812,103.5 c -0.320312,0 -0.585937,0.10156 -0.796874,0.30859 -0.214844,0.20313 -0.320313,0.44922 -0.320313,0.73829 z m -0.269531,3.16015 c 0,0.23828 0.05469,0.46875 0.167968,0.69531 0.117188,0.22266 0.285157,0.39844 0.507813,0.51954 0.226563,0.125 0.464844,0.18359 0.726563,0.18359 0.398437,0 0.730468,-0.12891 0.992187,-0.38672 0.261719,-0.25781 0.390625,-0.58594 0.390625,-0.98437 0,-0.40625 -0.132812,-0.73829 -0.402344,-1.00391 -0.269531,-0.26563 -0.605468,-0.39844 -1.011718,-0.39844 -0.394532,0 -0.722657,0.13281 -0.984376,0.39453 -0.257812,0.26172 -0.386718,0.58594 -0.386718,0.98047 z m 0,0"
       id="path22706" />
    <path
       style="fill:#ffffff;fill-opacity:1;fill-rule:nonzero;stroke:none"
       d="m 25.589844,106.30469 c 0,-0.8086 0.08203,-1.46094 0.246094,-1.94922 0.167968,-0.49609 0.414062,-0.87891 0.742187,-1.14453 0.328125,-0.26953 0.742187,-0.40235 1.242187,-0.40235 0.367188,0 0.6875,0.0742 0.964844,0.22266 0.277344,0.14844 0.507813,0.35938 0.6875,0.64063 0.179688,0.27734 0.320313,0.61718 0.425782,1.01953 0.101562,0.39843 0.152343,0.93359 0.152343,1.61328 0,0.80469 -0.08203,1.45312 -0.246093,1.94531 -0.167969,0.49219 -0.414063,0.875 -0.742188,1.14453 -0.328125,0.26953 -0.742188,0.40235 -1.242188,0.40235 -0.660156,0 -1.179687,-0.23829 -1.554687,-0.71094 -0.453125,-0.57031 -0.675781,-1.4961 -0.675781,-2.78125 z m 0.863281,0 c 0,1.125 0.128906,1.87109 0.390625,2.24609 0.265625,0.3711 0.589844,0.55469 0.976562,0.55469 0.386719,0 0.707032,-0.1875 0.96875,-0.55859 0.265626,-0.375 0.398438,-1.1211 0.398438,-2.24219 0,-1.125 -0.132812,-1.875 -0.398438,-2.2461 -0.261718,-0.36718 -0.585937,-0.55468 -0.980468,-0.55468 -0.382813,0 -0.691406,0.16406 -0.921875,0.49218 -0.289063,0.41407 -0.433594,1.1836 -0.433594,2.3086 z m 0,0"
       id="path22708" />
    <path
       style="fill:#ffffff;fill-opacity:1;fill-rule:nonzero;stroke:none"
       d="m 15.65625,82.460938 h 2.582031 v 0.84375 H 15.65625 Z m 0,0"
       id="path22710" />
    <path
       style="fill:#ffffff;fill-opacity:1;fill-rule:nonzero;stroke:none"
       d="m 23.300781,80.191406 -0.835937,0.06641 c -0.07422,-0.328124 -0.179688,-0.570312 -0.316406,-0.71875 -0.226563,-0.238281 -0.507813,-0.359374 -0.839844,-0.359374 -0.265625,0 -0.503906,0.07422 -0.703125,0.222656 -0.265625,0.195312 -0.472657,0.476562 -0.625,0.847656 -0.15625,0.367188 -0.234375,0.894531 -0.238281,1.582031 0.199218,-0.308593 0.449218,-0.539062 0.742187,-0.6875 0.289063,-0.148437 0.597656,-0.222656 0.917969,-0.222656 0.558594,0 1.035156,0.207031 1.429687,0.621094 0.394531,0.410156 0.589844,0.941406 0.589844,1.59375 0,0.429687 -0.09375,0.832031 -0.277344,1.199219 -0.183593,0.367187 -0.4375,0.652343 -0.761719,0.847656 -0.324218,0.195312 -0.691406,0.292968 -1.101562,0.292968 -0.699219,0 -1.273438,-0.257812 -1.714844,-0.769531 C 19.125,84.191406 18.90625,83.339844 18.90625,82.15625 c 0,-1.320312 0.242188,-2.28125 0.730469,-2.882812 0.425781,-0.523438 1,-0.785157 1.722656,-0.785157 0.539063,0 0.980469,0.152344 1.320313,0.453125 0.347656,0.300782 0.554687,0.71875 0.621093,1.25 z m -3.429687,2.949219 c 0,0.292969 0.0625,0.566406 0.183594,0.832031 0.121093,0.265625 0.296874,0.46875 0.515624,0.609375 0.222657,0.136719 0.453126,0.203125 0.695313,0.203125 0.355469,0 0.660156,-0.144531 0.917969,-0.429687 0.253906,-0.285157 0.382812,-0.675781 0.382812,-1.167969 0,-0.472656 -0.128906,-0.84375 -0.378906,-1.113281 -0.253906,-0.273438 -0.570312,-0.410157 -0.953125,-0.410157 -0.378906,0 -0.703125,0.136719 -0.964844,0.410157 -0.265625,0.269531 -0.398437,0.625 -0.398437,1.066406 z m 0,0"
       id="path22712" />
    <path
       style="fill:#ffffff;fill-opacity:1;fill-rule:nonzero;stroke:none"
       d="m 24.261719,81.984375 c 0,-0.808594 0.08594,-1.457031 0.25,-1.949219 0.167969,-0.496094 0.414062,-0.878906 0.742187,-1.144531 0.328125,-0.269531 0.742188,-0.402344 1.242188,-0.402344 0.367187,0 0.6875,0.07422 0.964844,0.222657 0.277343,0.148437 0.503906,0.363281 0.6875,0.640624 0.179687,0.277344 0.320312,0.617188 0.421874,1.019532 0.105469,0.398437 0.15625,0.933594 0.15625,1.613281 0,0.804687 -0.08203,1.453125 -0.25,1.945313 -0.164062,0.492187 -0.410156,0.875 -0.738281,1.144531 -0.328125,0.269531 -0.742187,0.402343 -1.242187,0.402343 -0.660156,0 -1.179688,-0.238281 -1.554688,-0.710937 -0.453125,-0.566406 -0.679687,-1.496094 -0.679687,-2.78125 z m 0.867187,0 c 0,1.125 0.128906,1.871094 0.390625,2.246094 0.265625,0.371093 0.589844,0.554687 0.976563,0.554687 0.382812,0 0.707031,-0.1875 0.96875,-0.558594 0.265625,-0.375 0.398437,-1.121093 0.398437,-2.242187 0,-1.125 -0.132812,-1.875 -0.398437,-2.246094 -0.261719,-0.367187 -0.585938,-0.554687 -0.980469,-0.554687 -0.386719,0 -0.691406,0.164062 -0.921875,0.492187 -0.289062,0.414063 -0.433594,1.1875 -0.433594,2.308594 z m 0,0"
       id="path22714" />
    <path
       style="fill:#ffffff;fill-opacity:1;fill-rule:nonzero;stroke:none"
       d="m 17.246094,53.292969 h 2.582031 v 0.84375 h -2.582031 z m 0,0"
       id="path22716" />
    <path
       style="fill:#ffffff;fill-opacity:1;fill-rule:nonzero;stroke:none"
       d="m 23.226562,56.191406 v -1.636718 h -2.96875 V 53.78125 l 3.121094,-4.433594 h 0.6875 v 4.433594 h 0.925782 v 0.773438 h -0.925782 v 1.636718 z m 0,-2.410156 v -3.082031 l -2.140624,3.082031 z m 0,0"
       id="path22718" />
    <path
       style="fill:#ffffff;fill-opacity:1;fill-rule:nonzero;stroke:none"
       d="m 25.855469,52.816406 c 0,-0.808594 0.08203,-1.460937 0.246093,-1.949218 0.167969,-0.496094 0.414063,-0.878907 0.742188,-1.144532 0.332031,-0.269531 0.742188,-0.402344 1.242188,-0.402344 0.367187,0 0.6875,0.07422 0.964843,0.222657 0.277344,0.148437 0.507813,0.359375 0.6875,0.640625 0.179688,0.277344 0.320313,0.617187 0.425781,1.019531 0.101563,0.398437 0.152344,0.933594 0.152344,1.613281 0,0.804688 -0.08203,1.453125 -0.246094,1.945313 -0.164062,0.492187 -0.414062,0.875 -0.742187,1.144531 -0.328125,0.269531 -0.742187,0.402344 -1.242187,0.402344 -0.660157,0 -1.179688,-0.238282 -1.554688,-0.710938 -0.449219,-0.566406 -0.675781,-1.496094 -0.675781,-2.78125 z m 0.863281,0 c 0,1.125 0.128906,1.871094 0.390625,2.246094 0.265625,0.371094 0.589844,0.554688 0.976563,0.554688 0.386718,0 0.710937,-0.1875 0.96875,-0.558594 0.265624,-0.375 0.398437,-1.121094 0.398437,-2.242188 0,-1.125 -0.132813,-1.875 -0.398437,-2.246094 -0.257813,-0.367187 -0.585938,-0.554687 -0.976563,-0.554687 -0.386719,0 -0.695313,0.164063 -0.925781,0.492187 -0.289063,0.414063 -0.433594,1.1875 -0.433594,2.308594 z m 0,0"
       id="path22720" />
    <path
       style="fill:#ffffff;fill-opacity:1;fill-rule:nonzero;stroke:none"
       d="m 18.839844,27.308594 h 2.578125 v 0.84375 h -2.578125 z m 0,0"
       id="path22722" />
    <path
       style="fill:#ffffff;fill-opacity:1;fill-rule:nonzero;stroke:none"
       d="m 26.539062,29.398438 v 0.808593 h -4.523437 c -0.0039,-0.203125 0.02734,-0.398437 0.09766,-0.585937 0.117188,-0.308594 0.300781,-0.609375 0.550781,-0.910156 0.257813,-0.296876 0.625,-0.644532 1.101563,-1.035157 0.746094,-0.609375 1.246094,-1.09375 1.507813,-1.449219 0.261718,-0.355468 0.394531,-0.695312 0.394531,-1.011718 0,-0.332032 -0.121094,-0.613282 -0.359375,-0.839844 -0.238282,-0.230469 -0.546875,-0.34375 -0.929688,-0.34375 -0.40625,0 -0.726562,0.121094 -0.972656,0.363281 -0.242188,0.242188 -0.363281,0.578125 -0.367188,1.007813 L 22.175781,25.3125 c 0.05859,-0.644531 0.28125,-1.132812 0.667969,-1.46875 0.386719,-0.339844 0.902344,-0.507812 1.554688,-0.507812 0.65625,0 1.175781,0.179687 1.558593,0.542968 0.382813,0.367188 0.574219,0.816406 0.574219,1.355469 0,0.273437 -0.05469,0.542969 -0.167969,0.808594 -0.113281,0.261719 -0.300781,0.542969 -0.5625,0.835937 -0.257812,0.289063 -0.6875,0.691406 -1.292969,1.203125 -0.503906,0.421875 -0.824218,0.710938 -0.96875,0.863281 -0.144531,0.148438 -0.261718,0.300782 -0.355468,0.453126 z m 0,0"
       id="path22724" />
    <path
       style="fill:#ffffff;fill-opacity:1;fill-rule:nonzero;stroke:none"
       d="m 27.445312,26.832031 c 0,-0.808593 0.08203,-1.460937 0.246094,-1.953125 0.167969,-0.496094 0.417969,-0.875 0.742188,-1.144531 0.332031,-0.265625 0.746094,-0.398437 1.242187,-0.398437 0.367188,0 0.691407,0.07422 0.96875,0.222656 0.273438,0.144531 0.503907,0.359375 0.683594,0.640625 0.179687,0.277343 0.324219,0.613281 0.425781,1.015625 0.101563,0.398437 0.152344,0.9375 0.152344,1.617187 0,0.800781 -0.08203,1.449219 -0.246094,1.945313 -0.164062,0.492187 -0.410156,0.871094 -0.742187,1.144531 -0.328125,0.265625 -0.742188,0.398437 -1.242188,0.398437 -0.660156,0 -1.175781,-0.234374 -1.554687,-0.707031 -0.449219,-0.570312 -0.675782,-1.496093 -0.675782,-2.78125 z m 0.863282,0 c 0,1.121094 0.132812,1.871094 0.390625,2.242188 0.265625,0.371093 0.589843,0.558593 0.976562,0.558593 0.386719,0 0.710938,-0.1875 0.972657,-0.5625 0.261718,-0.371093 0.394531,-1.121093 0.394531,-2.238281 0,-1.128906 -0.132813,-1.875 -0.394531,-2.246093 -0.261719,-0.371094 -0.589844,-0.554688 -0.980469,-0.554688 -0.386719,0 -0.695313,0.160156 -0.925781,0.488281 -0.289063,0.417969 -0.433594,1.1875 -0.433594,2.3125 z m 0,0"
       id="path22726" />
    <path
       style="fill:#ffffff;fill-opacity:1;fill-rule:nonzero;stroke:none"
       d="m 23.71875,3.496094 c 0,-0.808594 0.08203,-1.460938 0.246094,-1.949219 C 24.132812,1.050781 24.382812,0.667969 24.707031,0.402344 25.039062,0.132812 25.453125,0 25.949219,0 c 0.367187,0 0.691406,0.0742188 0.96875,0.222656 0.273437,0.148438 0.503906,0.359375 0.683593,0.640625 0.179688,0.277344 0.324219,0.617188 0.425782,1.019531 0.101562,0.398438 0.152344,0.933594 0.152344,1.613282 0,0.804687 -0.08203,1.453125 -0.246094,1.945312 -0.164063,0.492188 -0.410156,0.875 -0.742188,1.144532 -0.328125,0.269531 -0.742187,0.402343 -1.242187,0.402343 -0.660157,0 -1.175781,-0.238281 -1.554688,-0.710937 C 23.945312,5.707031 23.71875,4.78125 23.71875,3.496094 Z m 0.863281,0 c 0,1.125 0.132813,1.871094 0.390625,2.246094 0.265625,0.371093 0.589844,0.554687 0.976563,0.554687 0.386719,0 0.710937,-0.1875 0.972656,-0.558594 0.261719,-0.375 0.394531,-1.121093 0.394531,-2.242187 0,-1.125 -0.132812,-1.875 -0.394531,-2.246094 -0.261719,-0.371094 -0.589844,-0.554688 -0.980469,-0.554688 -0.386718,0 -0.695312,0.164063 -0.925781,0.492188 -0.289063,0.414062 -0.433594,1.183594 -0.433594,2.308594 z m 0,0"
       id="path22728" />
    <path
       style="fill:#ffffff;fill-opacity:1;fill-rule:nonzero;stroke:none"
       d="m 106.71484,124.00391 h 0.90625 v 6.84375 h -0.90625 z m 0,0"
       id="path22730" />
    <path
       style="fill:#ffffff;fill-opacity:1;fill-rule:nonzero;stroke:none"
       d="m 109.10547,130.84766 v -4.95703 h 0.75781 v 0.70312 c 0.36328,-0.54297 0.89063,-0.81641 1.57813,-0.81641 0.29687,0 0.57031,0.0547 0.82031,0.16407 0.25391,0.10547 0.44141,0.24609 0.56641,0.42187 0.12109,0.17188 0.21093,0.37891 0.25781,0.6211 0.0312,0.15234 0.0469,0.42578 0.0469,0.8164 v 3.04688 H 112.293 v -3.01563 c 0,-0.34375 -0.0312,-0.59765 -0.0977,-0.76562 -0.0625,-0.17188 -0.17968,-0.30469 -0.34765,-0.40625 -0.16797,-0.10157 -0.35938,-0.15235 -0.58594,-0.15235 -0.35547,0 -0.66797,0.11328 -0.92969,0.33985 -0.25781,0.22656 -0.38672,0.65625 -0.38672,1.29296 v 2.70704 z m 0,0"
       id="path22732" />
    <g
       clip-path="url(#clip1)"
       clip-rule="nonzero"
       id="g22736"
       style="fill:#ffffff">
      <path
         style="fill:#ffffff;fill-opacity:1;fill-rule:nonzero;stroke:none"
         d="m 114.42578,132.74609 v -6.85546 h 0.76563 v 0.64453 c 0.18359,-0.25391 0.38672,-0.44141 0.61328,-0.56641 0.22656,-0.125 0.5039,-0.19141 0.82422,-0.19141 0.42578,0 0.79687,0.10938 1.12109,0.32813 0.32422,0.21875 0.57031,0.52734 0.73438,0.92578 0.16406,0.39453 0.24609,0.82813 0.24609,1.30078 0,0.50781 -0.0898,0.96484 -0.27344,1.37109 -0.18359,0.40625 -0.44531,0.71485 -0.79297,0.9336 -0.34765,0.21484 -0.71093,0.32422 -1.09375,0.32422 -0.28125,0 -0.53125,-0.0586 -0.75781,-0.17969 -0.21875,-0.11719 -0.40234,-0.26563 -0.54297,-0.44531 v 2.41015 z m 0.76172,-4.34765 c 0,0.63672 0.12891,1.10937 0.38672,1.41406 0.26172,0.30469 0.57422,0.45703 0.94141,0.45703 0.37109,0 0.6914,-0.15625 0.95703,-0.47266 0.26562,-0.3164 0.39843,-0.80859 0.39843,-1.46875 0,-0.63281 -0.1289,-1.10546 -0.39062,-1.42187 -0.25781,-0.3125 -0.56641,-0.46875 -0.92969,-0.46875 -0.35547,0 -0.67578,0.16797 -0.95312,0.50391 -0.27344,0.33203 -0.41016,0.8164 -0.41016,1.45703 z m 0,0"
         id="path22734" />
    </g>
    <path
       style="fill:#ffffff;fill-opacity:1;fill-rule:nonzero;stroke:none"
       d="m 122.99609,130.84766 v -0.72657 c -0.38281,0.5586 -0.91015,0.83985 -1.57031,0.83985 -0.29297,0 -0.5664,-0.0586 -0.82422,-0.16797 -0.25,-0.11328 -0.4375,-0.25391 -0.5625,-0.42188 -0.12109,-0.17187 -0.20703,-0.3789 -0.25781,-0.625 -0.0352,-0.16406 -0.0508,-0.42578 -0.0508,-0.78515 v -3.07031 h 0.83984 v 2.74999 c 0,0.4375 0.0156,0.73438 0.0508,0.88672 0.0547,0.21875 0.16407,0.39453 0.33594,0.52344 0.17188,0.125 0.38281,0.18359 0.63672,0.18359 0.25,0 0.48828,-0.0625 0.70703,-0.1914 0.22266,-0.12891 0.37891,-0.30469 0.46875,-0.52735 0.0937,-0.22265 0.14063,-0.54687 0.14063,-0.96875 v -2.65624 H 123.75 v 4.95703 z m 0,0"
       id="path22738" />
    <path
       style="fill:#ffffff;fill-opacity:1;fill-rule:nonzero;stroke:none"
       d="m 126.90625,130.09766 0.12109,0.74218 c -0.23828,0.0469 -0.44921,0.0742 -0.63671,0.0742 -0.30469,0 -0.54297,-0.0508 -0.71094,-0.14453 -0.16797,-0.0977 -0.28516,-0.22266 -0.35156,-0.37891 -0.0703,-0.16015 -0.10547,-0.49218 -0.10547,-0.99609 v -2.85156 h -0.61328 v -0.65234 h 0.61328 v -1.22657 l 0.83593,-0.5039 v 1.73047 h 0.84766 v 0.65234 h -0.84766 v 2.89844 c 0,0.24218 0.0156,0.39453 0.043,0.46484 0.0312,0.0664 0.0781,0.12109 0.14453,0.16016 0.0703,0.043 0.16407,0.0625 0.28907,0.0625 0.0937,0 0.21484,-0.0117 0.37109,-0.0312 z m 0,0"
       id="path22740" />
    <path
       style="fill:#ffffff;fill-opacity:1;fill-rule:nonzero;stroke:none"
       d="m 130.52734,130.84766 v -6.84375 h 4.61719 v 0.80859 h -3.71094 v 2.11719 h 3.21094 v 0.80859 h -3.21094 v 3.10938 z m 0,0"
       id="path22742" />
    <path
       style="fill:#ffffff;fill-opacity:1;fill-rule:nonzero;stroke:none"
       d="m 136.20703,130.84766 v -4.95703 h 0.75781 v 0.75 c 0.19141,-0.35157 0.36719,-0.58204 0.53125,-0.69532 0.16407,-0.10937 0.34375,-0.16797 0.53907,-0.16797 0.28515,0 0.57421,0.0898 0.86718,0.27344 l -0.29297,0.77735 c -0.20312,-0.1211 -0.41015,-0.17969 -0.61328,-0.17969 -0.18359,0 -0.35156,0.0547 -0.49609,0.16797 -0.14453,0.10547 -0.25,0.26172 -0.3125,0.45703 -0.0937,0.29687 -0.14063,0.625 -0.14063,0.98047 v 2.59375 z m 0,0"
       id="path22744" />
    <path
       style="fill:#ffffff;fill-opacity:1;fill-rule:nonzero;stroke:none"
       d="m 142.80078,129.25 0.87109,0.10937 c -0.13671,0.50782 -0.39062,0.89844 -0.76171,1.17969 -0.3711,0.28125 -0.84375,0.42188 -1.41797,0.42188 -0.72657,0 -1.30078,-0.22266 -1.72657,-0.66797 -0.42578,-0.44922 -0.63671,-1.07422 -0.63671,-1.88281 0,-0.83203 0.21484,-1.48047 0.64453,-1.94141 0.42968,-0.46094 0.98437,-0.69141 1.67187,-0.69141 0.66016,0 1.20313,0.22657 1.625,0.67969 0.41797,0.44922 0.62891,1.08594 0.62891,1.90234 0,0.0508 -0.004,0.125 -0.004,0.22266 H 139.996 c 0.0312,0.54688 0.1875,0.96484 0.46485,1.25391 0.27343,0.28906 0.62109,0.43359 1.03515,0.43359 0.3086,0 0.57032,-0.082 0.78907,-0.24219 0.21875,-0.16406 0.39062,-0.42187 0.51562,-0.77734 z m -2.75781,-1.35547 h 2.76953 c -0.0391,-0.41797 -0.14453,-0.73047 -0.31641,-0.9414 -0.26953,-0.32032 -0.61718,-0.48438 -1.04297,-0.48438 -0.38671,0 -0.71093,0.12891 -0.97656,0.38672 -0.26172,0.25781 -0.40625,0.60547 -0.43359,1.03906 z m 0,0"
       id="path22746" />
    <g
       clip-path="url(#clip2)"
       clip-rule="nonzero"
       id="g22750"
       style="fill:#ffffff">
      <path
         style="fill:#ffffff;fill-opacity:1;fill-rule:nonzero;stroke:none"
         d="m 147.89062,132.74609 v -2.42578 c -0.13281,0.1836 -0.3164,0.33594 -0.55078,0.45703 -0.23437,0.1211 -0.48437,0.1836 -0.74609,0.1836 -0.58984,0 -1.09766,-0.23438 -1.52344,-0.70703 -0.42187,-0.46875 -0.63281,-1.11329 -0.63281,-1.92969 0,-0.5 0.0859,-0.94531 0.25391,-1.33984 0.17578,-0.39844 0.42578,-0.69532 0.7539,-0.89844 0.32813,-0.20313 0.69141,-0.3086 1.08203,-0.3086 0.61328,0 1.09375,0.25782 1.44532,0.77735 v -0.66406 h 0.75781 v 6.85546 z m -2.58984,-4.39062 c 0,0.63672 0.13281,1.11719 0.40234,1.4375 0.26563,0.3164 0.58594,0.47656 0.96094,0.47656 0.35547,0 0.66406,-0.15234 0.92188,-0.45312 0.25781,-0.30469 0.38672,-0.76563 0.38672,-1.38672 0,-0.66016 -0.13672,-1.15625 -0.41016,-1.48828 -0.26953,-0.33203 -0.58984,-0.5 -0.95703,-0.5 -0.36328,0 -0.67188,0.15625 -0.92578,0.46484 -0.25391,0.30859 -0.37891,0.79297 -0.37891,1.44922 z m 0,0"
         id="path22748" />
    </g>
    <path
       style="fill:#ffffff;fill-opacity:1;fill-rule:nonzero;stroke:none"
       d="m 153.30078,130.84766 v -0.72657 c -0.38672,0.5586 -0.91016,0.83985 -1.57422,0.83985 -0.29297,0 -0.5664,-0.0586 -0.82031,-0.16797 -0.25391,-0.11328 -0.44141,-0.25391 -0.56641,-0.42188 -0.12109,-0.17187 -0.20703,-0.3789 -0.2539,-0.625 -0.0352,-0.16406 -0.0547,-0.42578 -0.0547,-0.78515 v -3.07031 h 0.84375 v 2.74999 c 0,0.4375 0.0156,0.73438 0.0508,0.88672 0.0508,0.21875 0.16406,0.39453 0.33594,0.52344 0.17187,0.125 0.38281,0.18359 0.63281,0.18359 0.25391,0 0.48828,-0.0625 0.71094,-0.1914 0.21875,-0.12891 0.375,-0.30469 0.46484,-0.52735 0.0937,-0.22265 0.14063,-0.54687 0.14063,-0.96875 v -2.65624 h 0.83984 v 4.95703 z m 0,0"
       id="path22752" />
    <path
       style="fill:#ffffff;fill-opacity:1;fill-rule:nonzero;stroke:none"
       d="m 158.76562,129.25 0.86719,0.10937 c -0.13672,0.50782 -0.39062,0.89844 -0.75781,1.17969 -0.37109,0.28125 -0.84375,0.42188 -1.42188,0.42188 -0.72265,0 -1.30078,-0.22266 -1.72656,-0.66797 -0.42187,-0.44922 -0.63281,-1.07422 -0.63281,-1.88281 0,-0.83203 0.21484,-1.48047 0.64453,-1.94141 0.42969,-0.46094 0.98438,-0.69141 1.66797,-0.69141 0.66406,0 1.20703,0.22657 1.625,0.67969 0.42187,0.44922 0.63281,1.08594 0.63281,1.90234 0,0.0508 -0.004,0.125 -0.008,0.22266 h -3.69531 c 0.0312,0.54688 0.18359,0.96484 0.46093,1.25391 0.27735,0.28906 0.625,0.43359 1.03907,0.43359 0.30468,0 0.57031,-0.082 0.78515,-0.24219 0.21875,-0.16406 0.39063,-0.42187 0.51953,-0.77734 z m -2.75781,-1.35547 h 2.76953 c -0.0391,-0.41797 -0.14453,-0.73047 -0.32031,-0.9414 -0.26562,-0.32032 -0.61328,-0.48438 -1.03906,-0.48438 -0.38672,0 -0.71094,0.12891 -0.97656,0.38672 -0.26172,0.25781 -0.40625,0.60547 -0.4336,1.03906 z m 0,0"
       id="path22754" />
    <path
       style="fill:#ffffff;fill-opacity:1;fill-rule:nonzero;stroke:none"
       d="m 160.69531,130.84766 v -4.95703 h 0.75391 v 0.70312 c 0.36328,-0.54297 0.89062,-0.81641 1.57812,-0.81641 0.30078,0 0.57422,0.0547 0.82032,0.16407 0.2539,0.10547 0.4414,0.24609 0.5664,0.42187 0.125,0.17188 0.21094,0.37891 0.26172,0.6211 0.0312,0.15234 0.0469,0.42578 0.0469,0.8164 v 3.04688 h -0.83985 v -3.01563 c 0,-0.34375 -0.0352,-0.59765 -0.0977,-0.76562 -0.0664,-0.17188 -0.1836,-0.30469 -0.35157,-0.40625 -0.16406,-0.10157 -0.35937,-0.15235 -0.58203,-0.15235 -0.35937,0 -0.66797,0.11328 -0.92969,0.33985 -0.25781,0.22656 -0.38671,0.65625 -0.38671,1.29296 v 2.70704 z m 0,0"
       id="path22756" />
    <path
       style="fill:#ffffff;fill-opacity:1;fill-rule:nonzero;stroke:none"
       d="m 169.25,129.03125 0.82812,0.10937 c -0.0937,0.56641 -0.32421,1.01563 -0.69921,1.33985 -0.36719,0.32031 -0.82422,0.48047 -1.36719,0.48047 -0.67578,0 -1.22266,-0.22266 -1.63672,-0.66407 -0.41016,-0.44531 -0.61719,-1.08203 -0.61719,-1.91015 0,-0.53516 0.0898,-1.00391 0.26563,-1.40234 0.17968,-0.40235 0.44922,-0.70313 0.80859,-0.90235 0.36328,-0.20312 0.75781,-0.30469 1.1875,-0.30469 0.53516,0 0.97656,0.13672 1.32031,0.41016 0.33985,0.27344 0.5625,0.66016 0.65625,1.16016 l -0.8164,0.125 c -0.0781,-0.33203 -0.21485,-0.58203 -0.41407,-0.75 -0.19531,-0.16797 -0.43359,-0.25391 -0.71484,-0.25391 -0.42187,0 -0.76562,0.15234 -1.03125,0.45703 -0.26562,0.30469 -0.39844,0.78125 -0.39844,1.4375 0,0.66797 0.12891,1.15234 0.38282,1.45313 0.25781,0.30078 0.58984,0.45312 1,0.45312 0.32812,0 0.60546,-0.10156 0.82421,-0.30469 0.22266,-0.20312 0.36329,-0.51172 0.42188,-0.93359 z m 0,0"
       id="path22758" />
    <g
       clip-path="url(#clip3)"
       clip-rule="nonzero"
       id="g22762"
       style="fill:#ffffff">
      <path
         style="fill:#ffffff;fill-opacity:1;fill-rule:nonzero;stroke:none"
         d="m 170.75781,132.75781 -0.0937,-0.78906 c 0.1836,0.0508 0.34375,0.0742 0.48047,0.0742 0.1875,0 0.33594,-0.0312 0.44922,-0.0937 0.11328,-0.0625 0.20312,-0.14844 0.27344,-0.26172 0.0547,-0.082 0.14062,-0.29297 0.25781,-0.625 0.0156,-0.0469 0.0391,-0.11328 0.0742,-0.20703 l -1.87891,-4.96484 h 0.90235 l 1.03515,2.87109 c 0.13281,0.36328 0.25,0.74609 0.35938,1.14844 0.0937,-0.38672 0.21093,-0.76172 0.34375,-1.12891 l 1.05859,-2.89062 h 0.83984 l -1.88281,5.04296 c -0.20312,0.54297 -0.35937,0.91797 -0.47265,1.125 -0.14844,0.27344 -0.32032,0.47657 -0.51563,0.60547 -0.19141,0.12891 -0.42187,0.19531 -0.6875,0.19531 -0.16406,0 -0.34375,-0.0352 -0.54297,-0.10156 z m 0,0"
         id="path22760" />
    </g>
    <g
       clip-path="url(#clip4)"
       clip-rule="nonzero"
       id="g22766"
       style="fill:#ffffff">
      <path
         style="fill:#ffffff;fill-opacity:1;fill-rule:nonzero;stroke:none"
         d="m 178.24609,132.74609 v -8.74218 h 1.85157 v 0.69531 h -1.01172 v 7.35156 h 1.01172 v 0.69531 z m 0,0"
         id="path22764" />
    </g>
    <path
       style="fill:#ffffff;fill-opacity:1;fill-rule:nonzero;stroke:none"
       d="m 180.88281,130.84766 v -6.84375 h 0.83985 v 3.90234 l 1.98828,-2.01562 h 1.08593 l -1.89453,1.83984 2.08594,3.11719 h -1.03516 l -1.63671,-2.53516 -0.59375,0.57031 v 1.96485 z m 0,0"
       id="path22768" />
    <path
       style="fill:#ffffff;fill-opacity:1;fill-rule:nonzero;stroke:none"
       d="m 185.79297,130.84766 v -6.84375 h 0.90625 v 2.8125 h 3.55469 v -2.8125 h 0.90625 v 6.84375 h -0.90625 v -3.22657 h -3.55469 v 3.22657 z m 0,0"
       id="path22770" />
    <path
       style="fill:#ffffff;fill-opacity:1;fill-rule:nonzero;stroke:none"
       d="m 192.12109,130.84766 v -0.67969 l 3.15625,-3.625 c -0.35937,0.0195 -0.67187,0.0273 -0.94922,0.0273 h -2.01953 v -0.67968 h 4.05078 v 0.55468 l -2.68359,3.14844 -0.51953,0.57422 c 0.37891,-0.0312 0.73047,-0.043 1.0625,-0.043 h 2.28906 v 0.72266 z m 0,0"
       id="path22772" />
    <g
       clip-path="url(#clip5)"
       clip-rule="nonzero"
       id="g22776"
       style="fill:#ffffff">
      <path
         style="fill:#ffffff;fill-opacity:1;fill-rule:nonzero;stroke:none"
         d="m 198.75,132.74609 h -1.85156 v -0.69531 h 1.01172 v -7.35156 h -1.01172 v -0.69531 H 198.75 Z m 0,0"
         id="path22774" />
    </g>
    <path
       style="fill:#ffffff;fill-opacity:1;fill-rule:nonzero;stroke:none"
       d="M 6.84375,96.179688 H 0 V 91.5625 h 0.808594 v 3.710938 H 2.925781 V 92.0625 h 0.808594 v 3.210938 H 6.84375 Z m 0,0"
       id="path22778" />
    <path
       style="fill:#ffffff;fill-opacity:1;fill-rule:nonzero;stroke:none"
       d="M 0.964844,90.484375 H 0 v -0.839844 h 0.964844 z m 5.878906,0 H 1.886719 V 89.644531 H 6.84375 Z m 0,0"
       id="path22780" />
    <path
       style="fill:#ffffff;fill-opacity:1;fill-rule:nonzero;stroke:none"
       d="m 0,87.539062 h 6.84375 v 0.839844 H 0 Z m 0,0"
       id="path22782" />
    <path
       style="fill:#ffffff;fill-opacity:1;fill-rule:nonzero;stroke:none"
       d="m 6.089844,84.398438 0.742187,-0.121094 c 0.050781,0.234375 0.078125,0.449218 0.078125,0.632812 0,0.304688 -0.050781,0.542969 -0.148437,0.710938 -0.09375,0.167968 -0.21875,0.285156 -0.375,0.355468 -0.160157,0.06641 -0.492188,0.101563 -0.996094,0.101563 H 2.539062 v 0.617187 H 1.886719 V 86.078125 H 0.65625 L 0.152344,85.242188 h 1.734375 v -0.84375 h 0.652343 v 0.84375 H 5.4375 c 0.238281,0 0.394531,-0.01172 0.460938,-0.04297 0.070312,-0.02734 0.125,-0.07813 0.164062,-0.144531 0.042969,-0.06641 0.0625,-0.164063 0.0625,-0.289063 0,-0.09375 -0.011719,-0.214844 -0.035156,-0.367186 z m 0,0"
       id="path22784" />
    <path
       style="fill:#ffffff;fill-opacity:1;fill-rule:nonzero;stroke:none"
       d="m 5.246094,80.1875 0.109375,-0.867188 c 0.503906,0.136719 0.898437,0.390626 1.179687,0.761719 0.28125,0.367188 0.417969,0.84375 0.417969,1.417969 0,0.726562 -0.21875,1.300781 -0.664063,1.726562 -0.449218,0.421876 -1.078124,0.636719 -1.882812,0.636719 -0.832031,0 -1.480469,-0.214843 -1.941406,-0.644531 C 2.003906,82.789062 1.773438,82.230469 1.773438,81.546875 1.773438,80.882812 2,80.34375 2.449219,79.921875 2.902344,79.5 3.535156,79.292969 4.355469,79.292969 c 0.050781,0 0.125,0 0.222656,0.0039 v 3.695313 c 0.546875,-0.03125 0.960937,-0.183594 1.25,-0.460938 0.292969,-0.277344 0.4375,-0.621094 0.4375,-1.035156 0,-0.308594 -0.082031,-0.570313 -0.246094,-0.789063 C 5.859375,80.488281 5.601562,80.316406 5.246094,80.1875 Z m -1.359375,2.757812 v -2.765624 c -0.414063,0.03516 -0.726563,0.140624 -0.9375,0.316406 -0.324219,0.269531 -0.484375,0.613281 -0.484375,1.039062 0,0.386719 0.128906,0.710938 0.386718,0.976563 0.257813,0.261719 0.605469,0.40625 1.035157,0.433593 z m 0,0"
       id="path22786" />
    <path
       style="fill:#ffffff;fill-opacity:1;fill-rule:nonzero;stroke:none"
       d="M 6.84375,78.269531 H 1.886719 v -0.757812 h 0.75 C 2.285156,77.320312 2.054688,77.144531 1.941406,76.980469 1.828125,76.816406 1.773438,76.636719 1.773438,76.441406 c 0,-0.285156 0.089843,-0.574218 0.269531,-0.863281 l 0.78125,0.289063 c -0.121094,0.203124 -0.183594,0.410156 -0.183594,0.613281 0,0.183593 0.058594,0.351562 0.167969,0.496093 0.109375,0.144532 0.261718,0.25 0.457031,0.3125 0.300781,0.09375 0.628906,0.140626 0.980469,0.140626 H 6.84375 Z m 0,0"
       id="path22788" />
    <path
       style="fill:#ffffff;fill-opacity:1;fill-rule:nonzero;stroke:none"
       d="M 6.84375,72.292969 H 0 v -3.03125 c 0,-0.609375 0.0625,-1.074219 0.1875,-1.390625 0.121094,-0.320313 0.335938,-0.570313 0.648438,-0.761719 0.3125,-0.191406 0.65625,-0.285156 1.03125,-0.285156 0.484374,0 0.894531,0.15625 1.226562,0.472656 0.332031,0.3125 0.546875,0.796875 0.636719,1.457031 C 3.84375,68.511719 3.957031,68.332031 4.070312,68.207031 4.3125,67.941406 4.617188,67.691406 4.980469,67.453125 l 1.863281,-1.1875 v 1.136719 l -1.425781,0.90625 c -0.410157,0.265625 -0.722657,0.480468 -0.941407,0.652344 -0.21875,0.171874 -0.371093,0.328124 -0.457031,0.464843 -0.085937,0.132813 -0.148437,0.269531 -0.183593,0.410157 -0.019532,0.101562 -0.03125,0.269531 -0.03125,0.503906 v 1.050781 H 6.84375 Z M 3.019531,71.390625 v -1.949219 c 0,-0.414062 -0.042969,-0.734375 -0.125,-0.96875 C 2.808594,68.238281 2.671875,68.0625 2.484375,67.941406 2.292969,67.820312 2.089844,67.757812 1.867188,67.757812 c -0.324219,0 -0.589844,0.117188 -0.796876,0.355469 -0.210937,0.234375 -0.3125,0.601563 -0.3125,1.109375 v 2.167969 z m 0,0"
       id="path22790" />
    <path
       style="fill:#ffffff;fill-opacity:1;fill-rule:nonzero;stroke:none"
       d="m 5.246094,62.113281 0.109375,-0.867187 c 0.503906,0.136718 0.898437,0.390625 1.179687,0.761718 0.28125,0.371094 0.417969,0.84375 0.417969,1.417969 0,0.726563 -0.21875,1.300781 -0.664063,1.726563 -0.449218,0.425781 -1.078124,0.636718 -1.882812,0.636718 -0.832031,0 -1.480469,-0.214843 -1.941406,-0.644531 -0.460938,-0.429687 -0.691406,-0.988281 -0.691406,-1.671875 0,-0.664062 0.226562,-1.203125 0.675781,-1.625 0.453125,-0.417968 1.085937,-0.628906 1.90625,-0.628906 0.050781,0 0.125,0 0.222656,0.0039 v 3.699219 c 0.546875,-0.03125 0.960937,-0.1875 1.25,-0.464844 0.292969,-0.277343 0.4375,-0.621093 0.4375,-1.035156 0,-0.308594 -0.082031,-0.570313 -0.246094,-0.789063 C 5.859375,62.414062 5.601562,62.242188 5.246094,62.113281 Z M 3.886719,64.875 V 62.105469 C 3.472656,62.140625 3.160156,62.25 2.949219,62.421875 2.625,62.691406 2.464844,63.039062 2.464844,63.464844 c 0,0.382812 0.128906,0.710937 0.386718,0.972656 0.257813,0.261719 0.605469,0.40625 1.035157,0.4375 z m 0,0"
       id="path22792" />
    <path
       style="fill:#ffffff;fill-opacity:1;fill-rule:nonzero;stroke:none"
       d="M 5.363281,60.523438 5.234375,59.691406 C 5.566406,59.644531 5.820312,59.515625 6,59.304688 c 0.175781,-0.214844 0.265625,-0.511719 0.265625,-0.894532 0,-0.386718 -0.078125,-0.675781 -0.234375,-0.859375 -0.160156,-0.1875 -0.34375,-0.28125 -0.554688,-0.28125 -0.191406,0 -0.339843,0.08203 -0.449218,0.246094 -0.074219,0.117187 -0.167969,0.402344 -0.285156,0.859375 -0.15625,0.617188 -0.289063,1.042969 -0.402344,1.285156 -0.113282,0.234375 -0.269532,0.417969 -0.46875,0.539063 -0.203125,0.121093 -0.425782,0.183593 -0.667969,0.183593 -0.222656,0 -0.425781,-0.05078 -0.613281,-0.148437 C 2.402344,60.128906 2.242188,59.992188 2.121094,59.816406 2.023438,59.6875 1.941406,59.511719 1.875,59.285156 1.808594,59.058594 1.773438,58.816406 1.773438,58.558594 c 0,-0.390625 0.054687,-0.730469 0.167968,-1.023438 0.113282,-0.296875 0.265625,-0.511718 0.457032,-0.652344 0.191406,-0.140624 0.445312,-0.238281 0.765624,-0.289062 l 0.113282,0.820312 c -0.253906,0.03906 -0.453125,0.144532 -0.597656,0.328126 -0.144532,0.175781 -0.214844,0.429687 -0.214844,0.753906 0,0.386718 0.0625,0.664062 0.191406,0.828125 0.128906,0.164062 0.277344,0.246093 0.449219,0.246093 0.109375,0 0.207031,-0.03516 0.292969,-0.101562 C 3.488281,59.398438 3.5625,59.292969 3.621094,59.144531 3.652344,59.0625 3.726562,58.8125 3.835938,58.402344 3.996094,57.808594 4.125,57.394531 4.230469,57.160156 c 0.097656,-0.234375 0.246093,-0.417968 0.4375,-0.554687 0.191406,-0.132813 0.433593,-0.199219 0.71875,-0.199219 0.28125,0 0.542969,0.08203 0.792969,0.246094 0.246093,0.164062 0.4375,0.398437 0.574218,0.707031 0.132813,0.308594 0.199219,0.65625 0.199219,1.042969 0,0.644531 -0.132813,1.136718 -0.398437,1.476562 -0.269532,0.335938 -0.664063,0.550782 -1.191407,0.644532 z m 0,0"
       id="path22794" />
    <path
       style="fill:#ffffff;fill-opacity:1;fill-rule:nonzero;stroke:none"
       d="M 8.742188,55.40625 H 1.886719 V 54.640625 H 2.53125 C 2.277344,54.460938 2.089844,54.257812 1.964844,54.03125 1.835938,53.804688 1.773438,53.527344 1.773438,53.203125 c 0,-0.421875 0.109374,-0.796875 0.328124,-1.121094 0.214844,-0.320312 0.523438,-0.566406 0.921876,-0.730469 0.394531,-0.164062 0.832031,-0.25 1.304687,-0.25 0.507813,0 0.964844,0.09375 1.371094,0.277344 0.40625,0.179688 0.714843,0.445313 0.933593,0.792969 0.214844,0.347656 0.320313,0.710937 0.320313,1.09375 0,0.277344 -0.058594,0.53125 -0.175781,0.753906 -0.117188,0.222657 -0.265625,0.402344 -0.449219,0.546875 H 8.742188 Z M 4.390625,54.644531 C 5.03125,54.644531 5.5,54.515625 5.808594,54.257812 6.113281,54 6.265625,53.6875 6.265625,53.320312 c 0,-0.375 -0.160156,-0.691406 -0.472656,-0.957031 -0.316407,-0.265625 -0.808594,-0.402343 -1.46875,-0.402343 -0.632813,0 -1.105469,0.132812 -1.421875,0.394531 -0.3125,0.257812 -0.46875,0.566406 -0.46875,0.925781 0,0.359375 0.167968,0.675781 0.503906,0.953125 0.332031,0.273437 0.816406,0.410156 1.453125,0.410156 z m 0,0"
       id="path22796" />
    <path
       style="fill:#ffffff;fill-opacity:1;fill-rule:nonzero;stroke:none"
       d="m 4.363281,50.398438 c -0.917969,0 -1.597656,-0.253907 -2.039062,-0.765626 C 1.957031,49.207031 1.773438,48.6875 1.773438,48.074219 c 0,-0.683594 0.222656,-1.238281 0.671874,-1.671875 0.445313,-0.433594 1.0625,-0.648438 1.847657,-0.648438 0.640625,0 1.140625,0.09766 1.507812,0.289063 0.367188,0.191406 0.648438,0.46875 0.851563,0.835937 0.203125,0.363282 0.300781,0.761719 0.300781,1.195313 0,0.695312 -0.21875,1.253906 -0.664063,1.683593 -0.445312,0.425782 -1.085937,0.640626 -1.925781,0.640626 z m 0,-0.863282 c 0.636719,0 1.113281,-0.136718 1.429688,-0.414062 0.3125,-0.277344 0.472656,-0.628906 0.472656,-1.046875 0,-0.417969 -0.160156,-0.765625 -0.476563,-1.042969 -0.320312,-0.273438 -0.800781,-0.414062 -1.453124,-0.414062 -0.613282,0 -1.078126,0.140624 -1.390626,0.421874 -0.316406,0.277344 -0.476562,0.621094 -0.476562,1.035157 0,0.417969 0.15625,0.769531 0.472656,1.046875 0.3125,0.277344 0.789063,0.414062 1.421875,0.414062 z m 0,0"
       id="path22798" />
    <path
       style="fill:#ffffff;fill-opacity:1;fill-rule:nonzero;stroke:none"
       d="M 6.84375,44.765625 H 1.886719 V 44.007812 H 2.589844 C 2.046875,43.644531 1.773438,43.117188 1.773438,42.429688 c 0,-0.296876 0.054687,-0.570313 0.164062,-0.820313 0.105469,-0.253906 0.246094,-0.441406 0.417969,-0.566406 0.175781,-0.125 0.382812,-0.210938 0.621093,-0.261719 C 3.132812,40.75 3.40625,40.73828 3.792969,40.73828 H 6.84375 v 0.839844 H 3.828125 c -0.34375,0 -0.597656,0.03125 -0.765625,0.09766 -0.171875,0.0625 -0.308594,0.179688 -0.40625,0.347657 C 2.554688,42.191406 2.5,42.382812 2.5,42.609375 c 0,0.355469 0.117188,0.667969 0.34375,0.925781 0.226562,0.261719 0.65625,0.390625 1.292969,0.390625 H 6.84375 Z m 0,0"
       id="path22800" />
    <path
       style="fill:#ffffff;fill-opacity:1;fill-rule:nonzero;stroke:none"
       d="M 5.363281,39.78125 5.234375,38.949219 C 5.566406,38.902344 5.820312,38.773438 6,38.5625 6.175781,38.347656 6.265625,38.046875 6.265625,37.664062 6.265625,37.277344 6.1875,36.992188 6.03125,36.804688 5.871094,36.621094 5.6875,36.527344 5.476562,36.527344 c -0.191406,0 -0.339843,0.08203 -0.449218,0.246094 -0.074219,0.113281 -0.167969,0.402343 -0.285156,0.859374 -0.15625,0.617188 -0.289063,1.042969 -0.402344,1.28125 -0.113282,0.238282 -0.269532,0.417969 -0.46875,0.542969 -0.203125,0.121094 -0.425782,0.183594 -0.667969,0.183594 -0.222656,0 -0.425781,-0.05078 -0.613281,-0.152344 C 2.402344,39.386719 2.242188,39.25 2.121094,39.074219 2.023438,38.945312 1.941406,38.765625 1.875,38.542969 1.808594,38.316406 1.773438,38.074219 1.773438,37.8125 c 0,-0.386719 0.054687,-0.726562 0.167968,-1.019531 0.113282,-0.296875 0.265625,-0.515625 0.457032,-0.65625 C 2.589844,36 2.84375,35.902344 3.164062,35.847656 l 0.113282,0.824219 c -0.253906,0.03516 -0.453125,0.144531 -0.597656,0.324219 -0.144532,0.179687 -0.214844,0.429687 -0.214844,0.757812 0,0.386719 0.0625,0.660156 0.191406,0.824219 0.128906,0.167969 0.277344,0.25 0.449219,0.25 0.109375,0 0.207031,-0.03516 0.292969,-0.105469 0.089843,-0.06641 0.164062,-0.175781 0.222656,-0.320312 0.03125,-0.08203 0.105468,-0.332032 0.214844,-0.742188 0.160156,-0.59375 0.289062,-1.007812 0.394531,-1.242187 0.097656,-0.234375 0.246093,-0.421875 0.4375,-0.554688 0.191406,-0.132812 0.433593,-0.199219 0.71875,-0.199219 0.28125,0 0.542969,0.08203 0.792969,0.246094 0.246093,0.160156 0.4375,0.394532 0.574218,0.703125 0.132813,0.308594 0.199219,0.65625 0.199219,1.046875 0,0.644532 -0.132813,1.136719 -0.398437,1.476563 C 6.285156,39.472656 5.890625,39.6875 5.363281,39.78125 Z m 0,0"
       id="path22802" />
    <path
       style="fill:#ffffff;fill-opacity:1;fill-rule:nonzero;stroke:none"
       d="m 5.246094,31.269531 0.109375,-0.867187 c 0.503906,0.136718 0.898437,0.390625 1.179687,0.761718 0.28125,0.367188 0.417969,0.84375 0.417969,1.417969 0,0.726563 -0.21875,1.300781 -0.664063,1.726563 -0.449218,0.421875 -1.078124,0.636718 -1.882812,0.636718 -0.832031,0 -1.480469,-0.214843 -1.941406,-0.644531 C 2.003906,33.871094 1.773438,33.3125 1.773438,32.628906 1.773438,31.964844 2,31.425781 2.449219,31.003906 2.902344,30.582031 3.535156,30.375 4.355469,30.375 c 0.050781,0 0.125,0 0.222656,0.0039 v 3.695313 c 0.546875,-0.03125 0.960937,-0.183594 1.25,-0.460938 0.292969,-0.277343 0.4375,-0.621093 0.4375,-1.035156 0,-0.308594 -0.082031,-0.570313 -0.246094,-0.789063 -0.160156,-0.21875 -0.417969,-0.390624 -0.773437,-0.519531 z m -1.359375,2.757813 v -2.765625 c -0.414063,0.03516 -0.726563,0.140625 -0.9375,0.316406 -0.324219,0.269531 -0.484375,0.613281 -0.484375,1.039063 0,0.386718 0.128906,0.714843 0.386718,0.976562 C 3.109375,33.855469 3.457031,34 3.886719,34.027344 Z m 0,0"
       id="path22804" />
    <path
       style="fill:#ffffff;fill-opacity:1;fill-rule:nonzero;stroke:none"
       d="M 8.742188,26.671875 H 0 v -1.851563 h 0.695312 v 1.011719 h 7.351563 v -1.011719 h 0.695313 z m 0,0"
       id="path22806" />
    <path
       style="fill:#ffffff;fill-opacity:1;fill-rule:nonzero;stroke:none"
       d="m 6.84375,20.824219 h -0.625 c 0.492188,0.3125 0.734375,0.777343 0.734375,1.386719 0,0.394531 -0.105469,0.757812 -0.324219,1.089843 C 6.410156,23.632812 6.105469,23.890625 5.71875,24.074219 5.324219,24.253906 4.875,24.34375 4.367188,24.34375 3.875,24.34375 3.425781,24.261719 3.023438,24.097656 2.621094,23.929688 2.308594,23.683594 2.097656,23.355469 1.882812,23.023438 1.773438,22.65625 1.773438,22.246094 c 0,-0.296875 0.0625,-0.5625 0.191406,-0.796875 0.125,-0.234375 0.289062,-0.421875 0.492187,-0.570313 H 0 v -0.835937 h 6.84375 z m -2.476562,2.65625 c 0.636718,0 1.109374,-0.132813 1.425781,-0.402344 0.3125,-0.265625 0.472656,-0.582031 0.472656,-0.949219 0,-0.367187 -0.152344,-0.675781 -0.449219,-0.933594 C 5.515625,20.9375 5.054688,20.808594 4.4375,20.808594 c -0.675781,0 -1.175781,0.132812 -1.492188,0.394531 -0.316406,0.261719 -0.476562,0.582031 -0.476562,0.964844 0,0.375 0.152344,0.6875 0.457031,0.9375 0.304688,0.25 0.785157,0.375 1.441407,0.375 z m 0,0"
       id="path22808" />
    <path
       style="fill:#ffffff;fill-opacity:1;fill-rule:nonzero;stroke:none"
       d="M 6.84375,18.648438 H 0 V 16.082031 C 0,15.558594 0.0703125,15.140625 0.210938,14.824219 0.347656,14.507812 0.558594,14.261719 0.847656,14.082031 1.136719,13.902344 1.4375,13.8125 1.75,13.8125 c 0.292969,0 0.566406,0.07813 0.828125,0.238281 0.257813,0.160157 0.464844,0.398438 0.625,0.71875 0.121094,-0.414062 0.328125,-0.730469 0.621094,-0.953125 0.292969,-0.222656 0.636719,-0.335937 1.035156,-0.335937 0.320313,0 0.617187,0.07031 0.894531,0.207031 0.273438,0.132812 0.488282,0.300781 0.636719,0.5 0.148437,0.199219 0.261719,0.449219 0.339844,0.75 0.074219,0.300781 0.113281,0.667969 0.113281,1.101562 z M 2.875,17.742188 v -1.480469 c 0,-0.398438 -0.027344,-0.6875 -0.078125,-0.863281 C 2.726562,15.167969 2.613281,14.996094 2.457031,14.882812 2.296875,14.761719 2.097656,14.703125 1.859375,14.703125 c -0.230469,0 -0.429687,0.05469 -0.597656,0.164063 C 1.085938,14.976562 0.96875,15.132812 0.90625,15.335938 0.839844,15.535156 0.808594,15.882812 0.808594,16.375 v 1.367188 z m 3.160156,0 v -1.703126 c 0,-0.292968 -0.011718,-0.496093 -0.03125,-0.617187 C 5.964844,15.214844 5.902344,15.039062 5.816406,14.898438 5.730469,14.761719 5.601562,14.644531 5.4375,14.554688 5.269531,14.464844 5.078125,14.417969 4.859375,14.417969 c -0.253906,0 -0.476563,0.06641 -0.664063,0.199219 -0.1875,0.128906 -0.320312,0.3125 -0.394531,0.542968 -0.078125,0.230469 -0.117187,0.566406 -0.117187,1 v 1.582032 z m 0,0"
       id="path22810" />
    <path
       style="fill:#ffffff;fill-opacity:1;fill-rule:nonzero;stroke:none"
       d="M 8.742188,10.929688 V 12.78125 H 8.046875 V 11.769531 H 0.695312 V 12.78125 H 0 v -1.851562 z m 0,0"
       id="path22812" />
    <path
       style="fill:#ffffff;fill-opacity:1;fill-rule:nonzero;stroke:none"
       d="m 36.332031,117.59766 h -0.839843 v -5.35547 c -0.203126,0.1914 -0.46875,0.38672 -0.796876,0.57812 -0.328124,0.19141 -0.621093,0.33985 -0.882812,0.4336 v -0.8125 c 0.46875,-0.21875 0.878906,-0.48828 1.230469,-0.80078 0.351562,-0.31641 0.601562,-0.6211 0.75,-0.91407 h 0.539062 z m 0,0"
       id="path22814" />
    <path
       style="fill:#ffffff;fill-opacity:1;fill-rule:nonzero;stroke:none"
       d="m 143.82812,117.59766 h -0.83984 v -5.35547 c -0.20312,0.1914 -0.46875,0.38672 -0.80078,0.57812 -0.32422,0.19141 -0.62109,0.33985 -0.87891,0.4336 v -0.8125 c 0.46875,-0.21875 0.87891,-0.48828 1.23047,-0.80078 0.35156,-0.31641 0.60156,-0.6211 0.7461,-0.91407 h 0.54296 z m 0,0"
       id="path22816" />
    <path
       style="fill:#ffffff;fill-opacity:1;fill-rule:nonzero;stroke:none"
       d="m 145.98437,114.22266 c 0,-0.8125 0.082,-1.46094 0.2461,-1.95313 0.16797,-0.49609 0.41797,-0.875 0.74219,-1.14453 0.33203,-0.26562 0.74609,-0.39844 1.24218,-0.39844 0.36719,0 0.6875,0.0742 0.96485,0.22266 0.27734,0.14453 0.50781,0.35937 0.6875,0.64062 0.17968,0.27735 0.32422,0.61329 0.42578,1.01563 0.10156,0.39844 0.15234,0.9375 0.15234,1.61719 0,0.80078 -0.082,1.44922 -0.24609,1.94531 -0.16406,0.49219 -0.41406,0.87109 -0.74219,1.14453 -0.32812,0.26563 -0.74219,0.39844 -1.24219,0.39844 -0.66015,0 -1.17578,-0.23438 -1.55468,-0.70703 -0.44922,-0.57032 -0.67579,-1.4961 -0.67579,-2.78125 z m 0.86329,0 c 0,1.12109 0.1289,1.87109 0.39062,2.24218 0.26563,0.3711 0.58984,0.5586 0.97656,0.5586 0.38672,0 0.71094,-0.1875 0.97266,-0.5625 0.26172,-0.3711 0.39453,-1.1211 0.39453,-2.23828 0,-1.12891 -0.13281,-1.875 -0.39453,-2.2461 -0.26172,-0.37109 -0.58984,-0.55468 -0.98047,-0.55468 -0.38672,0 -0.69531,0.16015 -0.92578,0.48828 -0.28906,0.41797 -0.43359,1.1875 -0.43359,2.3125 z m 0,0"
       id="path22818" />
    <path
       style="fill:#ffffff;fill-opacity:1;fill-rule:nonzero;stroke:none"
       d="m 254.27344,117.59766 h -0.83985 v -5.35547 c -0.20312,0.1914 -0.46875,0.38672 -0.79687,0.57812 -0.32813,0.19141 -0.6211,0.33985 -0.88281,0.4336 v -0.8125 c 0.46875,-0.21875 0.8789,-0.48828 1.23046,-0.80078 0.35157,-0.31641 0.60157,-0.6211 0.7461,-0.91407 h 0.54297 z m 0,0"
       id="path22820" />
    <path
       style="fill:#ffffff;fill-opacity:1;fill-rule:nonzero;stroke:none"
       d="m 256.42969,114.22266 c 0,-0.8125 0.082,-1.46094 0.24609,-1.95313 0.16797,-0.49609 0.41797,-0.875 0.74219,-1.14453 0.33203,-0.26562 0.74609,-0.39844 1.24219,-0.39844 0.36718,0 0.6914,0.0742 0.96875,0.22266 0.27734,0.14453 0.5039,0.35937 0.68359,0.64062 0.18359,0.27735 0.32422,0.61329 0.42578,1.01563 0.10156,0.39844 0.15625,0.9375 0.15625,1.61719 0,0.80078 -0.0859,1.44922 -0.25,1.94531 -0.16406,0.49219 -0.41016,0.87109 -0.74219,1.14453 -0.32422,0.26563 -0.73828,0.39844 -1.24218,0.39844 -0.66016,0 -1.17579,-0.23438 -1.55469,-0.70703 -0.44922,-0.57032 -0.67578,-1.4961 -0.67578,-2.78125 z m 0.86328,0 c 0,1.12109 0.13281,1.87109 0.39453,2.24218 0.26172,0.3711 0.58984,0.5586 0.97266,0.5586 0.38671,0 0.71093,-0.1875 0.97265,-0.5625 0.26563,-0.3711 0.39453,-1.1211 0.39453,-2.23828 0,-1.12891 -0.1289,-1.875 -0.39453,-2.2461 -0.26172,-0.37109 -0.58984,-0.55468 -0.98047,-0.55468 -0.38672,0 -0.69531,0.16015 -0.92578,0.48828 -0.28906,0.41797 -0.43359,1.1875 -0.43359,2.3125 z m 0,0"
       id="path22822" />
    <g
       clip-path="url(#clip6)"
       clip-rule="nonzero"
       id="g22826"
       style="fill:#ffffff">
      <path
         style="fill:#ffffff;fill-opacity:1;fill-rule:nonzero;stroke:none"
         d="m 261.75,114.22266 c 0,-0.8125 0.082,-1.46094 0.25,-1.95313 0.16797,-0.49609 0.41406,-0.875 0.74219,-1.14453 0.32812,-0.26562 0.74218,-0.39844 1.24218,-0.39844 0.36719,0 0.6875,0.0742 0.96485,0.22266 0.27734,0.14453 0.5039,0.35937 0.6875,0.64062 0.17969,0.27735 0.32031,0.61329 0.42187,1.01563 0.10547,0.39844 0.15625,0.9375 0.15625,1.61719 0,0.80078 -0.082,1.44922 -0.25,1.94531 -0.16406,0.49219 -0.41015,0.87109 -0.74218,1.14453 -0.32422,0.26563 -0.73829,0.39844 -1.23829,0.39844 -0.66015,0 -1.17968,-0.23438 -1.55468,-0.70703 -0.45313,-0.57032 -0.67969,-1.4961 -0.67969,-2.78125 z m 0.86328,0 c 0,1.12109 0.13281,1.87109 0.39453,2.24218 0.26563,0.3711 0.58985,0.5586 0.97656,0.5586 0.38282,0 0.70704,-0.1875 0.96875,-0.5625 0.26563,-0.3711 0.39844,-1.1211 0.39844,-2.23828 0,-1.12891 -0.13281,-1.875 -0.39844,-2.2461 -0.26171,-0.37109 -0.58593,-0.55468 -0.98046,-0.55468 -0.38672,0 -0.69141,0.16015 -0.92188,0.48828 -0.29297,0.41797 -0.4375,1.1875 -0.4375,2.3125 z m 0,0"
         id="path22824" />
    </g>
    <path
       style="fill:#ffffff;fill-opacity:1;fill-rule:nonzero;stroke:none"
       d="m 194.57422,115.78906 0.84375,-0.11328 c 0.0937,0.47656 0.25781,0.82031 0.48828,1.03125 0.23437,0.21094 0.51562,0.31641 0.85156,0.31641 0.39453,0 0.72656,-0.14063 0.9961,-0.41406 0.27343,-0.27344 0.41015,-0.61329 0.41015,-1.01563 0,-0.38672 -0.125,-0.70312 -0.375,-0.95312 -0.2539,-0.25 -0.57422,-0.37891 -0.96484,-0.37891 -0.15625,0 -0.35547,0.0312 -0.58985,0.0937 l 0.0937,-0.73828 c 0.0547,0.008 0.0977,0.0117 0.13282,0.0117 0.35937,0 0.67968,-0.0937 0.96875,-0.28125 0.28515,-0.1875 0.42968,-0.47266 0.42968,-0.86328 0,-0.3086 -0.10546,-0.5625 -0.3164,-0.76563 -0.20703,-0.20312 -0.47656,-0.30469 -0.80469,-0.30469 -0.32812,0 -0.60156,0.10547 -0.81641,0.3086 -0.21875,0.20703 -0.35937,0.51562 -0.42187,0.92578 L 194.66016,112.5 c 0.10156,-0.56641 0.33593,-1 0.69921,-1.30859 0.36329,-0.3125 0.81641,-0.46485 1.35938,-0.46485 0.375,0 0.71875,0.0781 1.03125,0.24219 0.31641,0.15625 0.55469,0.375 0.71875,0.65234 0.16797,0.27735 0.25391,0.57032 0.25391,0.88282 0,0.29687 -0.082,0.5625 -0.23829,0.80859 -0.16015,0.24219 -0.39453,0.43359 -0.70703,0.57813 0.40625,0.0937 0.71875,0.28515 0.94532,0.58203 0.22265,0.29297 0.33593,0.66015 0.33593,1.10156 0,0.59766 -0.21875,1.10547 -0.65625,1.52344 -0.43359,0.41406 -0.98437,0.62109 -1.65234,0.62109 -0.59766,0 -1.09766,-0.17969 -1.49609,-0.53906 -0.39454,-0.35547 -0.6211,-0.82031 -0.67969,-1.39063 z m 0,0"
       id="path22828" />
    <path
       style="fill:#ffffff;fill-opacity:1;fill-rule:nonzero;stroke:none"
       d="m 199.89453,114.22266 c 0,-0.8125 0.082,-1.46094 0.24609,-1.95313 0.16797,-0.49609 0.41407,-0.875 0.74219,-1.14453 0.32813,-0.26562 0.74219,-0.39844 1.24219,-0.39844 0.36719,0 0.6875,0.0742 0.96484,0.22266 0.27735,0.14453 0.50782,0.35937 0.6875,0.64062 0.17969,0.27735 0.32032,0.61329 0.42188,1.01563 0.10547,0.39844 0.15625,0.9375 0.15625,1.61719 0,0.80078 -0.082,1.44922 -0.2461,1.94531 -0.16796,0.49219 -0.41406,0.87109 -0.74218,1.14453 -0.32813,0.26563 -0.74219,0.39844 -1.24219,0.39844 -0.66016,0 -1.17969,-0.23438 -1.55469,-0.70703 -0.45312,-0.57032 -0.67578,-1.4961 -0.67578,-2.78125 z m 0.86328,0 c 0,1.12109 0.12891,1.87109 0.39063,2.24218 0.26562,0.3711 0.58984,0.5586 0.97656,0.5586 0.38281,0 0.70703,-0.1875 0.96875,-0.5625 0.26562,-0.3711 0.39844,-1.1211 0.39844,-2.23828 0,-1.12891 -0.13282,-1.875 -0.39844,-2.2461 -0.26172,-0.37109 -0.58594,-0.55468 -0.98047,-0.55468 -0.38281,0 -0.69141,0.16015 -0.92187,0.48828 -0.28907,0.41797 -0.4336,1.1875 -0.4336,2.3125 z m 0,0"
       id="path22830" />
    <path
       style="fill:#ffffff;fill-opacity:1;fill-rule:nonzero;stroke:none"
       d="m 232.85937,112.42969 -0.83593,0.0625 c -0.0742,-0.32813 -0.17969,-0.56641 -0.31641,-0.71875 -0.22656,-0.23828 -0.50781,-0.35938 -0.83984,-0.35938 -0.26563,0 -0.50391,0.0781 -0.70313,0.22657 -0.26562,0.1914 -0.47265,0.47265 -0.625,0.84375 -0.15625,0.37109 -0.23437,0.89843 -0.23828,1.58203 0.19922,-0.3086 0.44922,-0.53516 0.74219,-0.6875 0.28906,-0.14844 0.59765,-0.22266 0.91797,-0.22266 0.55859,0 1.03515,0.20703 1.42968,0.62109 0.39454,0.41016 0.58985,0.94141 0.58985,1.59766 0,0.42969 -0.0937,0.82813 -0.27735,1.19922 -0.18359,0.36719 -0.4375,0.64844 -0.76171,0.84375 -0.32422,0.19531 -0.69141,0.29297 -1.10157,0.29297 -0.69922,0 -1.27343,-0.25391 -1.71484,-0.76953 -0.44141,-0.51563 -0.66016,-1.36328 -0.66016,-2.54688 0,-1.32422 0.24219,-2.28515 0.73047,-2.88672 0.42578,-0.52343 1,-0.78125 1.72266,-0.78125 0.53906,0 0.98047,0.14844 1.32031,0.44922 0.34766,0.30469 0.55469,0.71875 0.62109,1.25391 z m -3.42968,2.94922 c 0,0.28906 0.0625,0.5664 0.18359,0.83203 0.12109,0.26172 0.29688,0.46484 0.51563,0.60547 0.22265,0.13672 0.45312,0.20703 0.69531,0.20703 0.35547,0 0.66015,-0.14453 0.91797,-0.42969 0.2539,-0.28906 0.38281,-0.67578 0.38281,-1.16797 0,-0.47265 -0.12891,-0.84375 -0.37891,-1.11719 -0.2539,-0.27343 -0.57031,-0.41015 -0.95312,-0.41015 -0.37891,0 -0.70313,0.13672 -0.96485,0.41015 -0.26562,0.27344 -0.39843,0.62891 -0.39843,1.07032 z m 0,0"
       id="path22832" />
    <path
       style="fill:#ffffff;fill-opacity:1;fill-rule:nonzero;stroke:none"
       d="m 233.82031,114.22266 c 0,-0.8125 0.0859,-1.46094 0.25,-1.95313 0.16797,-0.49609 0.41406,-0.875 0.74219,-1.14453 0.32812,-0.26562 0.74219,-0.39844 1.24219,-0.39844 0.36718,0 0.6875,0.0742 0.96484,0.22266 0.27734,0.14453 0.50391,0.35937 0.6875,0.64062 0.17969,0.27735 0.32031,0.61329 0.42188,1.01563 0.10546,0.39844 0.15625,0.9375 0.15625,1.61719 0,0.80078 -0.082,1.44922 -0.25,1.94531 -0.16407,0.49219 -0.41016,0.87109 -0.73829,1.14453 -0.32812,0.26563 -0.74218,0.39844 -1.24218,0.39844 -0.66016,0 -1.17969,-0.23438 -1.55469,-0.70703 -0.45313,-0.57032 -0.67969,-1.4961 -0.67969,-2.78125 z m 0.86719,0 c 0,1.12109 0.12891,1.87109 0.39062,2.24218 0.26563,0.3711 0.58985,0.5586 0.97657,0.5586 0.38281,0 0.70703,-0.1875 0.96875,-0.5625 0.26562,-0.3711 0.39843,-1.1211 0.39843,-2.23828 0,-1.12891 -0.13281,-1.875 -0.39843,-2.2461 -0.26172,-0.37109 -0.58594,-0.55468 -0.98047,-0.55468 -0.38672,0 -0.69141,0.16015 -0.92188,0.48828 -0.28906,0.41797 -0.43359,1.1875 -0.43359,2.3125 z m 0,0"
       id="path22834" />
    <path
       style="fill:#ffffff;fill-opacity:1;fill-rule:nonzero;stroke:none"
       d="m 84.347656,115.78906 0.839844,-0.11328 c 0.09766,0.47656 0.261719,0.82031 0.492188,1.03125 0.230468,0.21094 0.515624,0.31641 0.847656,0.31641 0.394531,0 0.730468,-0.14063 1,-0.41406 0.273437,-0.27344 0.410156,-0.61329 0.410156,-1.01563 0,-0.38672 -0.125,-0.70312 -0.378906,-0.95312 -0.25,-0.25 -0.570313,-0.37891 -0.960938,-0.37891 -0.15625,0 -0.355468,0.0312 -0.59375,0.0937 l 0.09375,-0.73828 c 0.05859,0.008 0.101563,0.0117 0.136719,0.0117 0.359375,0 0.679687,-0.0937 0.964844,-0.28125 0.289062,-0.1875 0.429687,-0.47266 0.429687,-0.86328 0,-0.3086 -0.101562,-0.5625 -0.3125,-0.76563 -0.207031,-0.20312 -0.476562,-0.30469 -0.808594,-0.30469 -0.324218,0 -0.597656,0.10547 -0.816406,0.3086 -0.214844,0.20703 -0.355468,0.51562 -0.417968,0.92578 L 84.433594,112.5 c 0.101562,-0.56641 0.335937,-1 0.699218,-1.30859 0.363282,-0.3125 0.816407,-0.46485 1.359376,-0.46485 0.371093,0 0.714843,0.0781 1.03125,0.24219 0.3125,0.15625 0.554687,0.375 0.71875,0.65234 0.167968,0.27735 0.25,0.57032 0.25,0.88282 0,0.29687 -0.07813,0.5625 -0.238282,0.80859 -0.15625,0.24219 -0.390625,0.43359 -0.703125,0.57813 0.402344,0.0937 0.71875,0.28515 0.941407,0.58203 0.226562,0.29297 0.335937,0.66015 0.335937,1.10156 0,0.59766 -0.214844,1.10547 -0.652344,1.52344 -0.433593,0.41406 -0.984375,0.62109 -1.652343,0.62109 -0.601563,0 -1.101563,-0.17969 -1.5,-0.53906 -0.394532,-0.35547 -0.617188,-0.82031 -0.675782,-1.39063 z m 0,0"
       id="path22836" />
    <path
       style="fill:#ffffff;fill-opacity:1;fill-rule:nonzero;stroke:none"
       d="m 122.83203,112.42969 -0.83594,0.0625 c -0.0742,-0.32813 -0.17968,-0.56641 -0.3164,-0.71875 -0.22656,-0.23828 -0.50781,-0.35938 -0.83985,-0.35938 -0.26953,0 -0.5039,0.0781 -0.70703,0.22657 -0.26172,0.1914 -0.47265,0.47265 -0.625,0.84375 -0.15234,0.37109 -0.23047,0.89843 -0.23828,1.58203 0.20313,-0.3086 0.44922,-0.53516 0.74219,-0.6875 0.29297,-0.14844 0.60156,-0.22266 0.92187,-0.22266 0.5586,0 1.03516,0.20703 1.42579,0.62109 0.39453,0.41016 0.59375,0.94141 0.59375,1.59766 0,0.42969 -0.0937,0.82813 -0.28125,1.19922 -0.1836,0.36719 -0.4375,0.64844 -0.75782,0.84375 -0.32422,0.19531 -0.6914,0.29297 -1.10156,0.29297 -0.70312,0 -1.27344,-0.25391 -1.71484,-0.76953 -0.44141,-0.51563 -0.66407,-1.36328 -0.66407,-2.54688 0,-1.32422 0.2461,-2.28515 0.73438,-2.88672 0.42578,-0.52343 1,-0.78125 1.72266,-0.78125 0.53906,0 0.97656,0.14844 1.32031,0.44922 0.34375,0.30469 0.55078,0.71875 0.62109,1.25391 z m -3.42969,2.94922 c 0,0.28906 0.0586,0.5664 0.17969,0.83203 0.125,0.26172 0.29688,0.46484 0.51953,0.60547 0.21875,0.13672 0.45313,0.20703 0.69532,0.20703 0.35546,0 0.66015,-0.14453 0.91406,-0.42969 0.2539,-0.28906 0.38281,-0.67578 0.38281,-1.16797 0,-0.47265 -0.125,-0.84375 -0.37891,-1.11719 -0.25,-0.27343 -0.5664,-0.41015 -0.94921,-0.41015 -0.38282,0 -0.70313,0.13672 -0.96875,0.41015 -0.26563,0.27344 -0.39454,0.62891 -0.39454,1.07032 z m 0,0"
       id="path22838" />
    <path
       style="fill:#ffffff;fill-opacity:1;fill-rule:nonzero;stroke:none"
       d="m 107.61719,99.210938 h -6.84375 v -2.566407 c 0,-0.523437 0.0703,-0.941406 0.21094,-1.257812 0.13671,-0.316407 0.34765,-0.5625 0.63671,-0.742188 0.28907,-0.179687 0.58985,-0.269531 0.90235,-0.269531 0.29297,0 0.5664,0.07813 0.82812,0.238281 0.25782,0.15625 0.46485,0.398438 0.625,0.71875 0.1211,-0.414062 0.32813,-0.730469 0.6211,-0.953125 0.28906,-0.222656 0.63672,-0.335937 1.03515,-0.335937 0.32032,0 0.61719,0.07031 0.89453,0.207031 0.27344,0.132812 0.48829,0.296875 0.63672,0.496094 0.14844,0.199218 0.26172,0.453125 0.33985,0.753906 0.0742,0.296875 0.11328,0.664062 0.11328,1.101562 z m -3.96875,-0.90625 v -1.480469 c 0,-0.402344 -0.0273,-0.6875 -0.0781,-0.863281 -0.0703,-0.230469 -0.18359,-0.402344 -0.34375,-0.515626 -0.15625,-0.121093 -0.35547,-0.179687 -0.59765,-0.179687 -0.22657,0 -0.42578,0.05469 -0.59375,0.164063 -0.17578,0.109374 -0.29297,0.265624 -0.35547,0.464843 -0.0664,0.203125 -0.0977,0.550781 -0.0977,1.042969 v 1.367188 z m 3.16015,0 v -1.703126 c 0,-0.292968 -0.0117,-0.5 -0.0312,-0.617187 -0.0391,-0.207031 -0.10156,-0.382813 -0.1875,-0.523437 -0.0898,-0.140626 -0.21484,-0.253907 -0.3789,-0.34375 -0.16797,-0.08984 -0.35938,-0.136719 -0.57813,-0.136719 -0.2539,0 -0.47656,0.06641 -0.66406,0.195312 -0.1875,0.132813 -0.32031,0.3125 -0.39453,0.546875 -0.0781,0.230469 -0.11719,0.5625 -0.11719,1 v 1.582032 z m 0,0"
       id="path22842" />
    <path
       style="fill:#ffffff;fill-opacity:1;fill-rule:nonzero;stroke:none"
       d="m 107.00391,89.660156 c 0.26562,0.3125 0.45312,0.613282 0.5625,0.902344 0.10547,0.285156 0.16015,0.59375 0.16015,0.921875 0,0.546875 -0.13281,0.964844 -0.39453,1.257813 -0.26953,0.292968 -0.60937,0.4375 -1.02344,0.4375 -0.24218,0 -0.46484,-0.05469 -0.66406,-0.164063 -0.19922,-0.113281 -0.36328,-0.257813 -0.48437,-0.433594 -0.1211,-0.179687 -0.21094,-0.382812 -0.27344,-0.605469 -0.0469,-0.167968 -0.0859,-0.414062 -0.12891,-0.75 -0.0781,-0.675781 -0.17578,-1.175781 -0.28906,-1.496093 -0.11328,-0.0039 -0.1875,-0.0039 -0.21875,-0.0039 -0.34375,0 -0.58203,0.07813 -0.72266,0.238282 -0.1914,0.214844 -0.28515,0.53125 -0.28515,0.957031 0,0.394531 0.0703,0.6875 0.21094,0.875 0.13671,0.1875 0.3789,0.324219 0.73046,0.417969 l -0.10937,0.820312 c -0.35156,-0.07422 -0.63672,-0.199218 -0.85156,-0.371094 -0.21875,-0.167968 -0.38282,-0.417968 -0.5,-0.742187 -0.11719,-0.320313 -0.17578,-0.695313 -0.17578,-1.121094 0,-0.425781 0.0508,-0.769531 0.14843,-1.035156 0.10157,-0.261719 0.22657,-0.457031 0.37891,-0.582031 0.14844,-0.125 0.33984,-0.210938 0.57031,-0.261719 0.14063,-0.02734 0.40235,-0.04297 0.77344,-0.04297 h 1.12109 c 0.78125,0 1.27735,-0.01563 1.48438,-0.05078 0.20312,-0.03516 0.40234,-0.109375 0.59375,-0.214844 v 0.878907 c -0.17578,0.08594 -0.37891,0.144531 -0.61328,0.167968 z m -1.875,0.07031 c 0.125,0.304687 0.23047,0.761719 0.3164,1.371093 0.0508,0.347657 0.10547,0.589844 0.16797,0.734376 0.0625,0.140624 0.15235,0.253906 0.27735,0.332031 0.11718,0.07813 0.25,0.117187 0.39453,0.117187 0.22265,0 0.41015,-0.08594 0.5625,-0.253906 0.14843,-0.171875 0.22265,-0.421875 0.22265,-0.746094 0,-0.324218 -0.0703,-0.613281 -0.21093,-0.863281 -0.14454,-0.253906 -0.33594,-0.4375 -0.58204,-0.554687 -0.1914,-0.09375 -0.47265,-0.136719 -0.83984,-0.136719 z m 0,0"
       id="path22844" />
    <path
       style="fill:#ffffff;fill-opacity:1;fill-rule:nonzero;stroke:none"
       d="m 107.61719,87.574219 h -4.95703 v -0.757813 h 0.70312 c -0.54297,-0.363281 -0.8164,-0.890625 -0.8164,-1.578125 0,-0.296875 0.0547,-0.570312 0.16406,-0.820312 0.10547,-0.25 0.24609,-0.441407 0.41797,-0.566407 0.17578,-0.121093 0.38281,-0.210937 0.62109,-0.257812 0.15625,-0.03125 0.42969,-0.04687 0.81641,-0.04687 h 3.05078 v 0.839844 h -3.01563 c -0.34375,0 -0.59765,0.03125 -0.76562,0.09766 -0.17188,0.06641 -0.3086,0.179687 -0.40625,0.347656 -0.10156,0.167969 -0.15625,0.359375 -0.15625,0.585938 0,0.355469 0.11328,0.667969 0.34375,0.929687 0.22656,0.257813 0.65625,0.386719 1.29297,0.386719 h 2.70703 z m 0,0"
       id="path22846" />
    <path
       style="fill:#ffffff;fill-opacity:1;fill-rule:nonzero;stroke:none"
       d="m 107.61719,79.035156 h -0.625 c 0.48828,0.316406 0.73437,0.777344 0.73437,1.386719 0,0.394531 -0.10937,0.761719 -0.32422,1.09375 -0.21875,0.328125 -0.52343,0.585937 -0.91015,0.769531 -0.39453,0.179688 -0.84375,0.269532 -1.35156,0.269532 -0.49219,0 -0.94141,-0.08203 -1.34375,-0.246094 -0.40235,-0.164063 -0.71485,-0.414063 -0.92969,-0.742188 -0.21485,-0.328125 -0.32031,-0.699218 -0.32031,-1.105468 0,-0.300782 0.0625,-0.566407 0.1914,-0.800782 0.125,-0.230468 0.28906,-0.421875 0.48828,-0.566406 h -2.45312 v -0.835938 h 6.84375 z m -2.47656,2.65625 c 0.63671,0 1.10937,-0.132812 1.42578,-0.402344 0.3125,-0.265624 0.47265,-0.582031 0.47265,-0.945312 0,-0.367188 -0.15234,-0.679688 -0.44922,-0.933594 -0.30078,-0.257812 -0.76171,-0.386718 -1.3789,-0.386718 -0.67578,0 -1.17578,0.128906 -1.49219,0.390624 -0.31641,0.261719 -0.47656,0.582032 -0.47656,0.964844 0,0.375 0.15234,0.6875 0.45703,0.941406 0.30469,0.246094 0.78516,0.371094 1.44141,0.371094 z m 0,0"
       id="path22848" />
    <path
       style="fill:#ffffff;fill-opacity:1;fill-rule:nonzero;stroke:none"
       d="m 107.61719,76.015625 -4.95703,1.519531 v -0.871094 l 2.85937,-0.789062 1.06641,-0.292969 c -0.0547,-0.01172 -0.39453,-0.09766 -1.02344,-0.257812 l -2.90234,-0.789063 v -0.863281 l 2.875,-0.742187 0.94531,-0.246094 -0.95703,-0.285156 -2.86328,-0.847657 v -0.820312 l 4.95703,1.550781 v 0.875 l -2.96875,0.789062 -0.84766,0.191407 3.81641,1.003906 z m 0,0"
       id="path22850" />
    <path
       style="fill:#ffffff;fill-opacity:1;fill-rule:nonzero;stroke:none"
       d="m 101.73828,70.019531 h -0.96484 v -0.839843 h 0.96484 z m 5.87891,0 h -4.95703 v -0.839843 h 4.95703 z m 0,0"
       id="path22852" />
    <path
       style="fill:#ffffff;fill-opacity:1;fill-rule:nonzero;stroke:none"
       d="m 107.61719,64.679688 h -0.625 c 0.48828,0.3125 0.73437,0.773437 0.73437,1.386718 0,0.394532 -0.10937,0.757813 -0.32422,1.089844 -0.21875,0.332031 -0.52343,0.585938 -0.91015,0.769531 -0.39453,0.183594 -0.84375,0.273438 -1.35156,0.273438 -0.49219,0 -0.94141,-0.08203 -1.34375,-0.25 -0.40235,-0.164063 -0.71485,-0.410157 -0.92969,-0.742188 -0.21485,-0.328125 -0.32031,-0.699219 -0.32031,-1.105469 0,-0.296874 0.0625,-0.5625 0.1914,-0.796874 0.125,-0.234376 0.28906,-0.425782 0.48828,-0.570313 h -2.45312 v -0.835937 h 6.84375 z m -2.47656,2.65625 c 0.63671,0 1.10937,-0.136719 1.42578,-0.402344 0.3125,-0.269532 0.47265,-0.585938 0.47265,-0.949219 0,-0.367187 -0.15234,-0.675781 -0.44922,-0.933594 -0.30078,-0.257812 -0.76171,-0.386719 -1.3789,-0.386719 -0.67578,0 -1.17578,0.132813 -1.49219,0.390626 -0.31641,0.261718 -0.47656,0.585937 -0.47656,0.96875 0,0.371093 0.15234,0.683593 0.45703,0.9375 0.30469,0.25 0.78516,0.375 1.44141,0.375 z m 0,0"
       id="path22854" />
    <path
       style="fill:#ffffff;fill-opacity:1;fill-rule:nonzero;stroke:none"
       d="m 106.86328,60.738281 0.74219,-0.121093 c 0.0508,0.238281 0.0742,0.449218 0.0742,0.636718 0,0.304688 -0.0469,0.539063 -0.14453,0.707032 -0.0937,0.167968 -0.22266,0.285156 -0.375,0.355468 -0.16016,0.07031 -0.49219,0.101563 -0.9961,0.101563 h -2.85156 v 0.617187 h -0.65234 v -0.617187 h -1.23047 l -0.50391,-0.835938 h 1.73438 v -0.84375 h 0.65234 v 0.84375 h 2.89844 c 0.23828,0 0.39453,-0.01172 0.46094,-0.03906 0.0703,-0.03125 0.125,-0.08203 0.16406,-0.144531 0.0391,-0.07031 0.0625,-0.167969 0.0625,-0.289063 0,-0.09375 -0.0117,-0.21875 -0.0352,-0.371094 z m 0,0"
       id="path22856" />
    <path
       style="fill:#ffffff;fill-opacity:1;fill-rule:nonzero;stroke:none"
       d="m 107.61719,59.921875 h -6.84375 v -0.839844 h 2.45312 c -0.45312,-0.390625 -0.67968,-0.886719 -0.67968,-1.484375 0,-0.367187 0.0742,-0.6875 0.21875,-0.957031 0.14453,-0.269531 0.34375,-0.464844 0.59765,-0.578125 0.25391,-0.117188 0.625,-0.179688 1.10938,-0.179688 h 3.14453 v 0.839844 h -3.14453 c -0.41797,0 -0.72266,0.09375 -0.91407,0.277344 -0.1914,0.179688 -0.28906,0.4375 -0.28906,0.769531 0,0.25 0.0664,0.484375 0.19531,0.707031 0.12891,0.214844 0.30469,0.371094 0.52344,0.464844 0.22266,0.09375 0.52735,0.140625 0.91406,0.140625 h 2.71485 z m 0,0"
       id="path22858" />
    <path
       style="fill:#ffffff;fill-opacity:1;fill-rule:nonzero;stroke:none"
       d="m 107.61719,51.75 h -4.30469 v 0.742188 h -0.65234 V 51.75 h -0.52735 c -0.33593,0 -0.58203,-0.03125 -0.74218,-0.08984 -0.21875,-0.08203 -0.39454,-0.222656 -0.52735,-0.425781 -0.13672,-0.203125 -0.20703,-0.492187 -0.20703,-0.859375 0,-0.234375 0.0273,-0.496094 0.0859,-0.78125 l 0.73047,0.125 c -0.0312,0.171875 -0.0469,0.339844 -0.0469,0.496094 0,0.253906 0.0547,0.433594 0.16406,0.539062 0.10938,0.105469 0.3125,0.160156 0.61329,0.160156 h 0.45703 v -0.96875 h 0.65234 v 0.96875 h 4.30469 z m 0,0"
       id="path22860" />
    <path
       style="fill:#ffffff;fill-opacity:1;fill-rule:nonzero;stroke:none"
       d="m 108.42578,49.683594 -0.0664,-0.511719 c 0.28906,-0.05859 0.5,-0.160156 0.6289,-0.300781 0.125,-0.140625 0.19141,-0.3125 0.19141,-0.515625 0,-0.242188 -0.0859,-0.445313 -0.25391,-0.609375 -0.16406,-0.167969 -0.37109,-0.25 -0.61719,-0.25 -0.23437,0 -0.42968,0.07813 -0.58203,0.230468 -0.15234,0.152344 -0.23047,0.347657 -0.23047,0.585938 0,0.09766 0.0195,0.21875 0.0586,0.363281 l -0.44922,-0.05859 c 0.004,-0.03516 0.004,-0.0625 0.004,-0.08203 0,-0.21875 -0.0547,-0.414062 -0.17188,-0.589844 -0.11328,-0.175781 -0.28906,-0.261718 -0.52344,-0.261718 -0.1875,0 -0.34375,0.0625 -0.46875,0.191406 -0.12109,0.125 -0.18359,0.289062 -0.18359,0.492188 0,0.199218 0.0625,0.363281 0.1875,0.496093 0.125,0.132813 0.3125,0.21875 0.5625,0.257813 l -0.0898,0.511718 c -0.34375,-0.0625 -0.60938,-0.207031 -0.79688,-0.425781 -0.1875,-0.222656 -0.28516,-0.5 -0.28516,-0.828125 0,-0.226562 0.0508,-0.4375 0.14844,-0.628906 0.0977,-0.191406 0.23047,-0.339844 0.39844,-0.4375 0.16797,-0.101562 0.34766,-0.15625 0.53906,-0.15625 0.17969,0 0.34375,0.05078 0.49219,0.148438 0.14844,0.09375 0.26562,0.238281 0.35156,0.429687 0.0586,-0.25 0.17578,-0.441406 0.35547,-0.578125 0.17969,-0.136719 0.40234,-0.203125 0.67188,-0.203125 0.36328,0 0.67187,0.132813 0.92578,0.398437 0.2539,0.265626 0.3789,0.601563 0.3789,1.007813 0,0.363281 -0.10937,0.667969 -0.32812,0.910156 -0.21875,0.242188 -0.5,0.378907 -0.84766,0.414063 z m 0,0"
       id="path22862" />
    <path
       style="fill:#ffffff;fill-opacity:1;fill-rule:nonzero;stroke:none"
       d="m 109.52734,44.34375 h -0.3789 c 0.29687,0.191406 0.44922,0.472656 0.44922,0.84375 0,0.238281 -0.0664,0.460938 -0.19922,0.664062 -0.13281,0.203126 -0.32031,0.359376 -0.55469,0.46875 -0.24219,0.109376 -0.51562,0.167969 -0.82422,0.167969 -0.30078,0 -0.57422,-0.05078 -0.82031,-0.152343 -0.24609,-0.101563 -0.43359,-0.25 -0.5625,-0.453126 -0.13281,-0.199218 -0.19922,-0.425781 -0.19922,-0.671874 0,-0.183594 0.0391,-0.34375 0.11719,-0.488282 0.0781,-0.140625 0.17578,-0.257812 0.30078,-0.347656 h -1.49609 v -0.507812 h 4.16796 z m -1.50781,1.617188 c 0.38672,0 0.67578,-0.08203 0.86719,-0.246094 0.19141,-0.164063 0.28906,-0.355469 0.28906,-0.578125 0,-0.222657 -0.0898,-0.410157 -0.27344,-0.566407 -0.18359,-0.160156 -0.46484,-0.238281 -0.83984,-0.238281 -0.41406,0 -0.71484,0.08203 -0.91016,0.242188 -0.1914,0.15625 -0.28906,0.355469 -0.28906,0.585937 0,0.226563 0.0937,0.417969 0.27735,0.574219 0.1875,0.148437 0.48046,0.226563 0.8789,0.226563 z m 0,0"
       id="path22864" />
    <path
       style="fill:#ffffff;fill-opacity:1;fill-rule:nonzero;stroke:none"
       d="m 109.52734,43.015625 h -4.16796 v -1.5625 c 0,-0.320313 0.043,-0.574219 0.125,-0.765625 0.0859,-0.195312 0.21484,-0.34375 0.39062,-0.453125 0.17578,-0.109375 0.35938,-0.164063 0.55078,-0.164063 0.17578,0 0.34375,0.04688 0.50391,0.144532 0.15625,0.09766 0.28125,0.242187 0.3789,0.4375 0.0742,-0.25 0.19922,-0.445313 0.37891,-0.578125 0.17969,-0.136719 0.39063,-0.207031 0.63281,-0.207031 0.19532,0 0.375,0.04297 0.54297,0.125 0.16797,0.08203 0.29688,0.183593 0.38672,0.304687 0.0937,0.121094 0.16406,0.273437 0.21094,0.457031 0.043,0.183594 0.0664,0.40625 0.0664,0.671875 z m -2.41796,-0.550781 V 41.5625 c 0,-0.246094 -0.0156,-0.417969 -0.0469,-0.527344 -0.043,-0.140625 -0.11328,-0.242187 -0.20703,-0.3125 -0.0977,-0.07422 -0.21875,-0.109375 -0.36719,-0.109375 -0.13672,0 -0.25781,0.03125 -0.36328,0.09766 -0.10547,0.06641 -0.17578,0.164062 -0.21484,0.285156 -0.0391,0.125 -0.0586,0.335937 -0.0586,0.636718 v 0.832032 z m 1.92578,0 v -1.039063 c 0,-0.175781 -0.008,-0.304687 -0.0195,-0.375 -0.0234,-0.125 -0.0586,-0.234375 -0.11329,-0.320312 -0.0547,-0.08203 -0.1289,-0.152344 -0.23046,-0.207031 -0.10157,-0.05469 -0.21875,-0.08594 -0.35157,-0.08594 -0.15625,0 -0.29297,0.04297 -0.40625,0.121094 -0.11328,0.07813 -0.19531,0.191406 -0.24218,0.332031 -0.0469,0.140625 -0.0703,0.34375 -0.0703,0.609375 v 0.964844 z m 0,0"
       id="path22866" />
    <path
       style="fill:#ffffff;fill-opacity:1;fill-rule:nonzero;stroke:none"
       d="m 158.64844,90.511719 c -0.34766,-0.128907 -0.60547,-0.308594 -0.77344,-0.546875 -0.16797,-0.238282 -0.25391,-0.519532 -0.25391,-0.847656 0,-0.5 0.17969,-0.917969 0.53907,-1.257813 0.35937,-0.339844 0.83203,-0.507813 1.42968,-0.507813 0.59766,0 1.07813,0.171876 1.44141,0.523438 0.36328,0.34375 0.54687,0.765625 0.54687,1.261719 0,0.320312 -0.0859,0.597656 -0.2539,0.832031 -0.16406,0.234375 -0.41797,0.414062 -0.75781,0.542969 0.42187,0.136719 0.74218,0.355469 0.95703,0.660156 0.22265,0.308594 0.33203,0.671875 0.33203,1.09375 0,0.585937 -0.20703,1.078125 -0.6211,1.476563 -0.41406,0.398437 -0.95703,0.597656 -1.63281,0.597656 -0.67578,0 -1.21875,-0.199219 -1.63281,-0.597656 -0.41406,-0.402344 -0.62109,-0.902344 -0.62109,-1.5 0,-0.445313 0.11328,-0.816407 0.33593,-1.113282 0.22657,-0.304687 0.55078,-0.507812 0.96485,-0.617187 z m -0.16797,-1.425781 c 0,0.324218 0.10547,0.589843 0.3125,0.792968 0.21094,0.207032 0.48047,0.308594 0.8125,0.308594 0.32422,0 0.58984,-0.101562 0.79297,-0.300781 0.21093,-0.207031 0.3164,-0.457031 0.3164,-0.753907 0,-0.308593 -0.10937,-0.566406 -0.32422,-0.773437 -0.21093,-0.210937 -0.47656,-0.316406 -0.79296,-0.316406 -0.32032,0 -0.58594,0.101562 -0.79688,0.308593 -0.21484,0.203126 -0.32031,0.449219 -0.32031,0.734376 z m -0.26953,3.160156 c 0,0.242187 0.0547,0.472656 0.16797,0.695312 0.11718,0.226563 0.28515,0.398438 0.50781,0.523438 0.22656,0.121094 0.46484,0.183594 0.72656,0.183594 0.39844,0 0.73047,-0.128907 0.99219,-0.386719 0.26172,-0.261719 0.39062,-0.589844 0.39062,-0.988281 0,-0.402344 -0.13281,-0.738282 -0.40625,-1 -0.26562,-0.265626 -0.60156,-0.398438 -1.00781,-0.398438 -0.39453,0 -0.72266,0.128906 -0.98437,0.390625 -0.25782,0.261719 -0.38672,0.589844 -0.38672,0.980469 z m 0,0"
       id="path22868" />
    <path
       style="fill:#ffffff;fill-opacity:1;fill-rule:nonzero;stroke:none"
       d="m 162.67969,90.847656 c 0,-0.808594 0.082,-1.460937 0.24609,-1.953125 0.16797,-0.492187 0.41406,-0.875 0.74219,-1.140625 0.32812,-0.269531 0.74219,-0.402344 1.24219,-0.402344 0.36718,0 0.6875,0.07422 0.96484,0.222657 0.27734,0.148437 0.50781,0.359375 0.6875,0.640625 0.17969,0.277344 0.32031,0.617187 0.42578,1.015625 0.10156,0.398437 0.15234,0.9375 0.15234,1.617187 0,0.800782 -0.082,1.449219 -0.24609,1.945313 -0.16797,0.492187 -0.41406,0.875 -0.74219,1.144531 -0.32812,0.265625 -0.74218,0.402344 -1.24218,0.402344 -0.66016,0 -1.17969,-0.238282 -1.55469,-0.710938 -0.45313,-0.570312 -0.67578,-1.496094 -0.67578,-2.78125 z m 0.86328,0 c 0,1.121094 0.1289,1.871094 0.39062,2.246094 0.26563,0.367188 0.58985,0.554688 0.97657,0.554688 0.38671,0 0.70703,-0.1875 0.96875,-0.5625 0.26562,-0.371094 0.39843,-1.117188 0.39843,-2.238282 0,-1.128906 -0.13281,-1.875 -0.39843,-2.246094 -0.26172,-0.371093 -0.58594,-0.554687 -0.98047,-0.554687 -0.38282,0 -0.69141,0.164063 -0.92188,0.488281 -0.28906,0.417969 -0.43359,1.1875 -0.43359,2.3125 z m 0,0"
       id="path22870" />
    <path
       style="fill:#ffffff;fill-opacity:1;fill-rule:nonzero;stroke:none"
       d="m 171.44922,94.222656 v -0.625 c -0.31641,0.492188 -0.77735,0.734375 -1.38672,0.734375 -0.39453,0 -0.75781,-0.105469 -1.09375,-0.324219 -0.32813,-0.21875 -0.58594,-0.523437 -0.76953,-0.910156 -0.17969,-0.394531 -0.26953,-0.84375 -0.26953,-1.351562 0,-0.492188 0.082,-0.941406 0.24609,-1.34375 0.16406,-0.402344 0.41406,-0.714844 0.74219,-0.925782 0.33203,-0.214843 0.69922,-0.324218 1.10547,-0.324218 0.30078,0 0.5664,0.0625 0.80078,0.191406 0.23437,0.125 0.42187,0.289062 0.57031,0.492188 v -2.457032 h 0.83203 v 6.84375 z m -2.65625,-2.476562 c 0,0.636718 0.13281,1.109375 0.40234,1.425781 0.26563,0.3125 0.58203,0.472656 0.94531,0.472656 0.36719,0 0.67969,-0.152343 0.9336,-0.449219 0.25781,-0.300781 0.38672,-0.761718 0.38672,-1.378906 0,-0.675781 -0.12891,-1.175781 -0.39063,-1.492187 -0.26172,-0.316407 -0.58203,-0.476563 -0.96484,-0.476563 -0.375,0 -0.6875,0.152344 -0.9375,0.457032 -0.25,0.304687 -0.375,0.785156 -0.375,1.441406 z m 0,0"
       id="path22872" />
    <path
       style="fill:#ffffff;fill-opacity:1;fill-rule:nonzero;stroke:none"
       d="m 173.625,94.222656 v -6.84375 h 2.56641 c 0.52343,0 0.9414,0.07031 1.2539,0.210938 0.32031,0.136718 0.56641,0.347656 0.74219,0.636718 0.18359,0.289063 0.27344,0.589844 0.27344,0.902344 0,0.292969 -0.082,0.566406 -0.23828,0.828125 -0.16016,0.257813 -0.39844,0.464844 -0.71875,0.625 0.41406,0.121094 0.73046,0.328125 0.94921,0.621094 0.22657,0.292969 0.33985,0.636719 0.33985,1.035156 0,0.320313 -0.0703,0.617188 -0.20703,0.894531 -0.13282,0.273438 -0.30078,0.488282 -0.5,0.636719 -0.19922,0.148438 -0.44922,0.261719 -0.75,0.339844 -0.30078,0.07422 -0.66797,0.113281 -1.10157,0.113281 z m 0.90625,-3.96875 h 1.47656 c 0.40235,0 0.69141,-0.02734 0.86328,-0.07813 0.23047,-0.07031 0.40625,-0.183593 0.51953,-0.339843 0.11719,-0.160157 0.17579,-0.359376 0.17579,-0.597657 0,-0.230469 -0.0508,-0.429687 -0.16016,-0.597656 -0.10938,-0.175781 -0.26563,-0.292969 -0.46875,-0.355469 -0.20313,-0.06641 -0.54688,-0.09766 -1.03906,-0.09766 h -1.36719 z m 0,3.160156 h 1.70312 c 0.29297,0 0.4961,-0.01172 0.61329,-0.03125 0.21093,-0.03906 0.38281,-0.101562 0.52343,-0.1875 0.14063,-0.08594 0.25782,-0.214843 0.34766,-0.378906 0.0898,-0.167968 0.13281,-0.359375 0.13281,-0.578125 0,-0.253906 -0.0625,-0.476562 -0.19531,-0.664062 -0.12891,-0.1875 -0.3125,-0.320313 -0.54688,-0.394531 -0.23046,-0.07813 -0.5625,-0.117188 -0.99609,-0.117188 h -1.58203 z m 0,0"
       id="path22874" />
    <path
       style="fill:#ffffff;fill-opacity:1;fill-rule:nonzero;stroke:none"
       d="m 179.30859,94.339844 1.98438,-7.078125 h 0.67187 l -1.98047,7.078125 z m 0,0"
       id="path22876" />
    <path
       style="fill:#ffffff;fill-opacity:1;fill-rule:nonzero;stroke:none"
       d="m 185.80859,94.222656 v -0.625 c -0.3164,0.492188 -0.77734,0.734375 -1.38672,0.734375 -0.39843,0 -0.76171,-0.105469 -1.09375,-0.324219 -0.32812,-0.21875 -0.58593,-0.523437 -0.76953,-0.910156 -0.17968,-0.394531 -0.26953,-0.84375 -0.26953,-1.351562 0,-0.492188 0.082,-0.941406 0.2461,-1.34375 0.16406,-0.402344 0.41015,-0.714844 0.74218,-0.925782 0.32813,-0.214843 0.69922,-0.324218 1.10547,-0.324218 0.30078,0 0.56641,0.0625 0.79688,0.191406 0.23437,0.125 0.42578,0.289062 0.57031,0.492188 v -2.457032 h 0.83594 v 6.84375 z m -2.65625,-2.476562 c 0,0.636718 0.13282,1.109375 0.39844,1.425781 0.26953,0.3125 0.58594,0.472656 0.94922,0.472656 0.36719,0 0.67969,-0.152343 0.93359,-0.449219 0.25782,-0.300781 0.38672,-0.761718 0.38672,-1.378906 0,-0.675781 -0.1289,-1.175781 -0.39062,-1.492187 -0.26172,-0.316407 -0.58594,-0.476563 -0.96875,-0.476563 -0.3711,0 -0.6836,0.152344 -0.9375,0.457032 -0.25,0.304687 -0.3711,0.785156 -0.3711,1.441406 z m 0,0"
       id="path22878" />
    <path
       style="fill:#ffffff;fill-opacity:1;fill-rule:nonzero;stroke:none"
       d="m 191.30469,92.625 0.86718,0.109375 c -0.13671,0.503906 -0.39062,0.898437 -0.75781,1.179687 -0.37109,0.28125 -0.84375,0.417969 -1.42187,0.417969 -0.72266,0 -1.30078,-0.222656 -1.72657,-0.664062 -0.42187,-0.449219 -0.63281,-1.078125 -0.63281,-1.882813 0,-0.832031 0.21485,-1.480468 0.64453,-1.941406 0.42969,-0.460938 0.98438,-0.691406 1.66797,-0.691406 0.66406,0 1.20703,0.226562 1.625,0.675781 0.42188,0.453125 0.63281,1.085937 0.63281,1.90625 0,0.05078 -0.004,0.125 -0.008,0.222656 H 188.5 c 0.0312,0.546875 0.18359,0.960938 0.46094,1.25 0.27734,0.292969 0.625,0.4375 1.03906,0.4375 0.30469,0 0.57031,-0.08203 0.78516,-0.246093 0.21875,-0.160157 0.39062,-0.417969 0.51953,-0.773438 z m -2.75782,-1.359375 h 2.76954 c -0.0391,-0.414063 -0.14454,-0.726563 -0.32032,-0.9375 -0.26562,-0.324219 -0.61328,-0.484375 -1.03906,-0.484375 -0.38672,0 -0.71094,0.128906 -0.97656,0.386719 -0.26172,0.257812 -0.40625,0.605469 -0.4336,1.035156 z m 0,0"
       id="path22880" />
    <path
       style="fill:#ffffff;fill-opacity:1;fill-rule:nonzero;stroke:none"
       d="m 196.46875,92.40625 0.82422,0.105469 c -0.0898,0.570312 -0.32031,1.019531 -0.69531,1.339843 -0.3711,0.320313 -0.82422,0.480469 -1.36719,0.480469 -0.67969,0 -1.22266,-0.21875 -1.63672,-0.660156 -0.41016,-0.445313 -0.61719,-1.082031 -0.61719,-1.910156 0,-0.535157 0.0898,-1.003907 0.26563,-1.40625 0.17578,-0.398438 0.44531,-0.699219 0.80859,-0.898438 0.36328,-0.203125 0.75781,-0.304687 1.18359,-0.304687 0.53907,0 0.98047,0.136718 1.32032,0.410156 0.34375,0.273438 0.5625,0.65625 0.66015,1.160156 l -0.8164,0.125 c -0.0781,-0.332031 -0.21875,-0.585937 -0.41407,-0.753906 -0.19921,-0.167969 -0.4375,-0.25 -0.71484,-0.25 -0.42578,0 -0.76953,0.152344 -1.03125,0.457031 -0.26562,0.300781 -0.39844,0.78125 -0.39844,1.4375 0,0.667969 0.12891,1.148438 0.38282,1.453125 0.2539,0.300782 0.58984,0.453125 1,0.453125 0.32812,0 0.60546,-0.101562 0.82421,-0.304687 0.22266,-0.203125 0.36329,-0.515625 0.42188,-0.933594 z m 0,0"
       id="path22882" />
  </g>
</svg>
