<?xml version="1.0" encoding="UTF-8"?>
<svg xmlns="http://www.w3.org/2000/svg" xmlns:xlink="http://www.w3.org/1999/xlink" width="282.580933pt" height="133.592285pt" viewBox="0 0 282.580933 133.592285" version="1.1">
<defs>
<clipPath id="clip1">
  <path d="M 111 126 L 116 126 L 116 133.59375 L 111 133.59375 Z M 111 126 "/>
</clipPath>
<clipPath id="clip2">
  <path d="M 141 126 L 146 126 L 146 133.59375 L 141 133.59375 Z M 141 126 "/>
</clipPath>
<clipPath id="clip3">
  <path d="M 167 126 L 172 126 L 172 133.59375 L 167 133.59375 Z M 167 126 "/>
</clipPath>
<clipPath id="clip4">
  <path d="M 174 124 L 177 124 L 177 133.59375 L 174 133.59375 Z M 174 124 "/>
</clipPath>
<clipPath id="clip5">
  <path d="M 193 124 L 196 124 L 196 133.59375 L 193 133.59375 Z M 193 124 "/>
</clipPath>
<clipPath id="clip6">
  <path d="M 273 19 L 282.582031 19 L 282.582031 22 L 273 22 Z M 273 19 "/>
</clipPath>
<clipPath id="clip7">
  <path d="M 273 5 L 282.582031 5 L 282.582031 8 L 273 8 Z M 273 5 "/>
</clipPath>
</defs>
<g id="surface1">
<path style=" stroke:none;fill-rule:nonzero;fill:rgb(0%,0%,0%);fill-opacity:1;" d="M 23.363281 20.699219 L 22.503906 20.761719 C 22.417969 20.417969 22.304688 20.167969 22.160156 20.011719 C 21.917969 19.761719 21.628906 19.636719 21.285156 19.636719 C 21.003906 19.636719 20.757812 19.714844 20.550781 19.871094 C 20.269531 20.082031 20.050781 20.378906 19.894531 20.761719 C 19.738281 21.148438 19.652344 21.699219 19.644531 22.417969 C 19.851562 22.097656 20.105469 21.855469 20.410156 21.699219 C 20.722656 21.542969 21.042969 21.464844 21.378906 21.464844 C 21.972656 21.464844 22.472656 21.683594 22.878906 22.121094 C 23.292969 22.550781 23.503906 23.101562 23.503906 23.777344 C 23.503906 24.226562 23.402344 24.644531 23.207031 25.027344 C 23.007812 25.414062 22.738281 25.710938 22.394531 25.917969 C 22.058594 26.125 21.679688 26.230469 21.253906 26.230469 C 20.523438 26.230469 19.925781 25.960938 19.457031 25.417969 C 18.996094 24.878906 18.769531 23.992188 18.769531 22.761719 C 18.769531 21.378906 19.023438 20.367188 19.535156 19.730469 C 19.980469 19.191406 20.582031 18.917969 21.332031 18.917969 C 21.902344 18.917969 22.367188 19.082031 22.722656 19.402344 C 23.085938 19.714844 23.300781 20.148438 23.363281 20.699219 Z M 19.785156 23.792969 C 19.785156 24.097656 19.847656 24.386719 19.972656 24.667969 C 20.097656 24.941406 20.273438 25.148438 20.503906 25.292969 C 20.742188 25.441406 20.988281 25.511719 21.238281 25.511719 C 21.613281 25.511719 21.929688 25.363281 22.191406 25.058594 C 22.460938 24.757812 22.597656 24.351562 22.597656 23.839844 C 22.597656 23.339844 22.460938 22.949219 22.191406 22.667969 C 21.929688 22.378906 21.601562 22.230469 21.207031 22.230469 C 20.808594 22.230469 20.472656 22.378906 20.191406 22.667969 C 19.917969 22.949219 19.785156 23.324219 19.785156 23.792969 Z M 19.785156 23.792969 "/>
<path style=" stroke:none;fill-rule:nonzero;fill:rgb(0%,0%,0%);fill-opacity:1;" d="M 24.136719 24.230469 L 25.058594 24.152344 C 25.121094 24.601562 25.277344 24.941406 25.527344 25.167969 C 25.777344 25.398438 26.078125 25.511719 26.433594 25.511719 C 26.847656 25.511719 27.203125 25.351562 27.496094 25.027344 C 27.796875 24.707031 27.949219 24.285156 27.949219 23.761719 C 27.949219 23.261719 27.808594 22.867188 27.527344 22.574219 C 27.246094 22.285156 26.875 22.136719 26.417969 22.136719 C 26.136719 22.136719 25.878906 22.207031 25.652344 22.339844 C 25.421875 22.464844 25.238281 22.628906 25.105469 22.824219 L 24.292969 22.714844 L 24.980469 19.042969 L 28.542969 19.042969 L 28.542969 19.886719 L 25.683594 19.886719 L 25.292969 21.808594 C 25.730469 21.507812 26.183594 21.355469 26.652344 21.355469 C 27.277344 21.355469 27.800781 21.574219 28.230469 22.011719 C 28.65625 22.441406 28.871094 22.996094 28.871094 23.683594 C 28.871094 24.332031 28.683594 24.886719 28.308594 25.355469 C 27.847656 25.941406 27.222656 26.230469 26.433594 26.230469 C 25.777344 26.230469 25.238281 26.050781 24.824219 25.683594 C 24.417969 25.320312 24.1875 24.835938 24.136719 24.230469 Z M 24.136719 24.230469 "/>
<path style=" stroke:none;fill-rule:nonzero;fill:rgb(0%,0%,0%);fill-opacity:1;" d="M 103.441406 124.425781 L 104.378906 124.425781 L 104.378906 131.582031 L 103.441406 131.582031 Z M 103.441406 124.425781 "/>
<path style=" stroke:none;fill-rule:nonzero;fill:rgb(0%,0%,0%);fill-opacity:1;" d="M 105.8125 131.582031 L 105.8125 126.394531 L 106.609375 126.394531 L 106.609375 127.128906 C 106.984375 126.566406 107.53125 126.285156 108.25 126.285156 C 108.5625 126.285156 108.847656 126.34375 109.109375 126.457031 C 109.378906 126.5625 109.578125 126.707031 109.703125 126.894531 C 109.835938 127.074219 109.929688 127.285156 109.984375 127.535156 C 110.015625 127.703125 110.03125 127.988281 110.03125 128.394531 L 110.03125 131.582031 L 109.15625 131.582031 L 109.15625 128.425781 C 109.15625 128.074219 109.117188 127.808594 109.046875 127.628906 C 108.984375 127.453125 108.863281 127.3125 108.6875 127.207031 C 108.507812 127.09375 108.304688 127.035156 108.078125 127.035156 C 107.703125 127.035156 107.375 127.15625 107.09375 127.394531 C 106.820312 127.636719 106.6875 128.089844 106.6875 128.753906 L 106.6875 131.582031 Z M 105.8125 131.582031 "/>
<g clip-path="url(#clip1)" clip-rule="nonzero">
<path style=" stroke:none;fill-rule:nonzero;fill:rgb(0%,0%,0%);fill-opacity:1;" d="M 111.132812 133.566406 L 111.132812 126.394531 L 111.929688 126.394531 L 111.929688 127.066406 C 112.125 126.808594 112.339844 126.613281 112.570312 126.488281 C 112.808594 126.355469 113.101562 126.285156 113.445312 126.285156 C 113.882812 126.285156 114.265625 126.402344 114.601562 126.628906 C 114.945312 126.847656 115.199219 127.167969 115.367188 127.582031 C 115.542969 128 115.632812 128.457031 115.632812 128.957031 C 115.632812 129.480469 115.539062 129.953125 115.351562 130.378906 C 115.164062 130.808594 114.886719 131.136719 114.523438 131.363281 C 114.15625 131.589844 113.777344 131.707031 113.382812 131.707031 C 113.089844 131.707031 112.824219 131.644531 112.585938 131.519531 C 112.355469 131.394531 112.164062 131.238281 112.007812 131.050781 L 112.007812 133.566406 Z M 111.929688 129.019531 C 111.929688 129.6875 112.0625 130.183594 112.335938 130.503906 C 112.605469 130.816406 112.933594 130.972656 113.320312 130.972656 C 113.703125 130.972656 114.039062 130.8125 114.320312 130.488281 C 114.601562 130.15625 114.742188 129.640625 114.742188 128.941406 C 114.742188 128.285156 114.605469 127.796875 114.335938 127.472656 C 114.0625 127.140625 113.734375 126.972656 113.351562 126.972656 C 112.976562 126.972656 112.640625 127.152344 112.351562 127.503906 C 112.070312 127.847656 111.929688 128.355469 111.929688 129.019531 Z M 111.929688 129.019531 "/>
</g>
<path style=" stroke:none;fill-rule:nonzero;fill:rgb(0%,0%,0%);fill-opacity:1;" d="M 119.859375 131.582031 L 119.859375 130.816406 C 119.453125 131.410156 118.898438 131.707031 118.203125 131.707031 C 117.898438 131.707031 117.613281 131.648438 117.34375 131.535156 C 117.082031 131.410156 116.882812 131.261719 116.75 131.082031 C 116.625 130.90625 116.535156 130.6875 116.484375 130.425781 C 116.453125 130.261719 116.4375 129.988281 116.4375 129.613281 L 116.4375 126.394531 L 117.3125 126.394531 L 117.3125 129.269531 C 117.3125 129.730469 117.332031 130.042969 117.375 130.207031 C 117.425781 130.4375 117.539062 130.621094 117.71875 130.753906 C 117.894531 130.878906 118.117188 130.941406 118.390625 130.941406 C 118.648438 130.941406 118.894531 130.875 119.125 130.738281 C 119.351562 130.605469 119.515625 130.421875 119.609375 130.191406 C 119.710938 129.953125 119.765625 129.613281 119.765625 129.175781 L 119.765625 126.394531 L 120.640625 126.394531 L 120.640625 131.582031 Z M 119.859375 131.582031 "/>
<path style=" stroke:none;fill-rule:nonzero;fill:rgb(0%,0%,0%);fill-opacity:1;" d="M 123.695312 130.800781 L 123.820312 131.566406 C 123.570312 131.617188 123.351562 131.644531 123.164062 131.644531 C 122.839844 131.644531 122.589844 131.597656 122.414062 131.503906 C 122.234375 131.402344 122.109375 131.265625 122.039062 131.097656 C 121.976562 130.933594 121.945312 130.589844 121.945312 130.066406 L 121.945312 127.082031 L 121.289062 127.082031 L 121.289062 126.394531 L 121.945312 126.394531 L 121.945312 125.113281 L 122.804688 124.582031 L 122.804688 126.394531 L 123.695312 126.394531 L 123.695312 127.082031 L 122.804688 127.082031 L 122.804688 130.113281 C 122.804688 130.363281 122.820312 130.527344 122.851562 130.597656 C 122.882812 130.671875 122.933594 130.730469 123.007812 130.769531 C 123.078125 130.8125 123.179688 130.832031 123.304688 130.832031 C 123.40625 130.832031 123.539062 130.824219 123.695312 130.800781 Z M 123.695312 130.800781 "/>
<path style=" stroke:none;fill-rule:nonzero;fill:rgb(0%,0%,0%);fill-opacity:1;" d="M 127.25 131.582031 L 127.25 124.425781 L 132.078125 124.425781 L 132.078125 125.269531 L 128.1875 125.269531 L 128.1875 127.488281 L 131.546875 127.488281 L 131.546875 128.332031 L 128.1875 128.332031 L 128.1875 131.582031 Z M 127.25 131.582031 "/>
<path style=" stroke:none;fill-rule:nonzero;fill:rgb(0%,0%,0%);fill-opacity:1;" d="M 132.921875 131.582031 L 132.921875 126.394531 L 133.703125 126.394531 L 133.703125 127.175781 C 133.910156 126.8125 134.097656 126.574219 134.265625 126.457031 C 134.429688 126.34375 134.617188 126.285156 134.828125 126.285156 C 135.128906 126.285156 135.429688 126.378906 135.734375 126.566406 L 135.4375 127.378906 C 135.21875 127.253906 135 127.191406 134.78125 127.191406 C 134.59375 127.191406 134.421875 127.25 134.265625 127.363281 C 134.109375 127.480469 134 127.640625 133.9375 127.847656 C 133.84375 128.160156 133.796875 128.5 133.796875 128.863281 L 133.796875 131.582031 Z M 132.921875 131.582031 "/>
<path style=" stroke:none;fill-rule:nonzero;fill:rgb(0%,0%,0%);fill-opacity:1;" d="M 139.660156 129.910156 L 140.582031 130.019531 C 140.433594 130.550781 140.164062 130.96875 139.769531 131.269531 C 139.382812 131.5625 138.894531 131.707031 138.300781 131.707031 C 137.539062 131.707031 136.933594 131.472656 136.488281 131.003906 C 136.039062 130.535156 135.816406 129.878906 135.816406 129.035156 C 135.816406 128.160156 136.039062 127.484375 136.488281 127.003906 C 136.945312 126.527344 137.527344 126.285156 138.238281 126.285156 C 138.933594 126.285156 139.503906 126.519531 139.941406 126.988281 C 140.378906 127.457031 140.597656 128.121094 140.597656 128.972656 C 140.597656 129.027344 140.597656 129.105469 140.597656 129.207031 L 136.738281 129.207031 C 136.769531 129.78125 136.925781 130.21875 137.207031 130.519531 C 137.496094 130.824219 137.863281 130.972656 138.300781 130.972656 C 138.621094 130.972656 138.898438 130.890625 139.128906 130.722656 C 139.355469 130.558594 139.535156 130.285156 139.660156 129.910156 Z M 136.785156 128.488281 L 139.675781 128.488281 C 139.632812 128.050781 139.523438 127.722656 139.347656 127.503906 C 139.066406 127.171875 138.699219 127.003906 138.253906 127.003906 C 137.847656 127.003906 137.507812 127.140625 137.238281 127.410156 C 136.964844 127.683594 136.816406 128.042969 136.785156 128.488281 Z M 136.785156 128.488281 "/>
<g clip-path="url(#clip2)" clip-rule="nonzero">
<path style=" stroke:none;fill-rule:nonzero;fill:rgb(0%,0%,0%);fill-opacity:1;" d="M 144.746094 133.566406 L 144.746094 131.035156 C 144.609375 131.222656 144.417969 131.386719 144.167969 131.519531 C 143.917969 131.644531 143.65625 131.707031 143.386719 131.707031 C 142.769531 131.707031 142.238281 131.464844 141.792969 130.972656 C 141.355469 130.472656 141.136719 129.796875 141.136719 128.941406 C 141.136719 128.421875 141.222656 127.957031 141.402344 127.550781 C 141.578125 127.136719 141.839844 126.824219 142.183594 126.613281 C 142.527344 126.394531 142.90625 126.285156 143.324219 126.285156 C 143.957031 126.285156 144.457031 126.550781 144.824219 127.082031 L 144.824219 126.394531 L 145.621094 126.394531 L 145.621094 133.566406 Z M 142.027344 128.972656 C 142.027344 129.640625 142.167969 130.140625 142.449219 130.472656 C 142.730469 130.808594 143.066406 130.972656 143.464844 130.972656 C 143.839844 130.972656 144.15625 130.816406 144.417969 130.503906 C 144.6875 130.183594 144.824219 129.699219 144.824219 129.050781 C 144.824219 128.363281 144.683594 127.847656 144.402344 127.503906 C 144.121094 127.152344 143.785156 126.972656 143.402344 126.972656 C 143.015625 126.972656 142.6875 127.136719 142.417969 127.457031 C 142.15625 127.78125 142.027344 128.285156 142.027344 128.972656 Z M 142.027344 128.972656 "/>
</g>
<path style=" stroke:none;fill-rule:nonzero;fill:rgb(0%,0%,0%);fill-opacity:1;" d="M 150.164062 131.582031 L 150.164062 130.816406 C 149.757812 131.410156 149.203125 131.707031 148.507812 131.707031 C 148.203125 131.707031 147.917969 131.648438 147.648438 131.535156 C 147.386719 131.410156 147.1875 131.261719 147.054688 131.082031 C 146.929688 130.90625 146.839844 130.6875 146.789062 130.425781 C 146.757812 130.261719 146.742188 129.988281 146.742188 129.613281 L 146.742188 126.394531 L 147.617188 126.394531 L 147.617188 129.269531 C 147.617188 129.730469 147.636719 130.042969 147.679688 130.207031 C 147.730469 130.4375 147.84375 130.621094 148.023438 130.753906 C 148.199219 130.878906 148.421875 130.941406 148.695312 130.941406 C 148.953125 130.941406 149.199219 130.875 149.429688 130.738281 C 149.65625 130.605469 149.820312 130.421875 149.914062 130.191406 C 150.015625 129.953125 150.070312 129.613281 150.070312 129.175781 L 150.070312 126.394531 L 150.945312 126.394531 L 150.945312 131.582031 Z M 150.164062 131.582031 "/>
<path style=" stroke:none;fill-rule:nonzero;fill:rgb(0%,0%,0%);fill-opacity:1;" d="M 155.625 129.910156 L 156.546875 130.019531 C 156.398438 130.550781 156.128906 130.96875 155.734375 131.269531 C 155.347656 131.5625 154.859375 131.707031 154.265625 131.707031 C 153.503906 131.707031 152.898438 131.472656 152.453125 131.003906 C 152.003906 130.535156 151.78125 129.878906 151.78125 129.035156 C 151.78125 128.160156 152.003906 127.484375 152.453125 127.003906 C 152.910156 126.527344 153.492188 126.285156 154.203125 126.285156 C 154.898438 126.285156 155.46875 126.519531 155.90625 126.988281 C 156.34375 127.457031 156.5625 128.121094 156.5625 128.972656 C 156.5625 129.027344 156.5625 129.105469 156.5625 129.207031 L 152.703125 129.207031 C 152.734375 129.78125 152.890625 130.21875 153.171875 130.519531 C 153.460938 130.824219 153.828125 130.972656 154.265625 130.972656 C 154.585938 130.972656 154.863281 130.890625 155.09375 130.722656 C 155.320312 130.558594 155.5 130.285156 155.625 129.910156 Z M 152.75 128.488281 L 155.640625 128.488281 C 155.597656 128.050781 155.488281 127.722656 155.3125 127.503906 C 155.03125 127.171875 154.664062 127.003906 154.21875 127.003906 C 153.8125 127.003906 153.472656 127.140625 153.203125 127.410156 C 152.929688 127.683594 152.78125 128.042969 152.75 128.488281 Z M 152.75 128.488281 "/>
<path style=" stroke:none;fill-rule:nonzero;fill:rgb(0%,0%,0%);fill-opacity:1;" d="M 157.398438 131.582031 L 157.398438 126.394531 L 158.195312 126.394531 L 158.195312 127.128906 C 158.570312 126.566406 159.117188 126.285156 159.835938 126.285156 C 160.148438 126.285156 160.433594 126.34375 160.695312 126.457031 C 160.964844 126.5625 161.164062 126.707031 161.289062 126.894531 C 161.421875 127.074219 161.515625 127.285156 161.570312 127.535156 C 161.601562 127.703125 161.617188 127.988281 161.617188 128.394531 L 161.617188 131.582031 L 160.742188 131.582031 L 160.742188 128.425781 C 160.742188 128.074219 160.703125 127.808594 160.632812 127.628906 C 160.570312 127.453125 160.449219 127.3125 160.273438 127.207031 C 160.09375 127.09375 159.890625 127.035156 159.664062 127.035156 C 159.289062 127.035156 158.960938 127.15625 158.679688 127.394531 C 158.40625 127.636719 158.273438 128.089844 158.273438 128.753906 L 158.273438 131.582031 Z M 157.398438 131.582031 "/>
<path style=" stroke:none;fill-rule:nonzero;fill:rgb(0%,0%,0%);fill-opacity:1;" d="M 166.109375 129.675781 L 166.96875 129.800781 C 166.875 130.394531 166.628906 130.863281 166.234375 131.207031 C 165.847656 131.542969 165.375 131.707031 164.8125 131.707031 C 164.101562 131.707031 163.53125 131.472656 163.09375 131.003906 C 162.664062 130.535156 162.453125 129.871094 162.453125 129.003906 C 162.453125 128.453125 162.546875 127.96875 162.734375 127.550781 C 162.921875 127.125 163.203125 126.808594 163.578125 126.597656 C 163.953125 126.390625 164.363281 126.285156 164.8125 126.285156 C 165.375 126.285156 165.832031 126.425781 166.1875 126.707031 C 166.550781 126.988281 166.785156 127.394531 166.890625 127.925781 L 166.03125 128.050781 C 165.945312 127.707031 165.800781 127.449219 165.59375 127.269531 C 165.394531 127.09375 165.144531 127.003906 164.84375 127.003906 C 164.40625 127.003906 164.046875 127.167969 163.765625 127.488281 C 163.492188 127.800781 163.359375 128.300781 163.359375 128.988281 C 163.359375 129.6875 163.488281 130.191406 163.75 130.503906 C 164.019531 130.816406 164.367188 130.972656 164.796875 130.972656 C 165.140625 130.972656 165.425781 130.871094 165.65625 130.660156 C 165.894531 130.453125 166.046875 130.125 166.109375 129.675781 Z M 166.109375 129.675781 "/>
<g clip-path="url(#clip3)" clip-rule="nonzero">
<path style=" stroke:none;fill-rule:nonzero;fill:rgb(0%,0%,0%);fill-opacity:1;" d="M 167.46875 133.582031 L 167.359375 132.753906 C 167.554688 132.804688 167.726562 132.832031 167.875 132.832031 C 168.0625 132.832031 168.210938 132.800781 168.328125 132.738281 C 168.453125 132.675781 168.550781 132.582031 168.625 132.457031 C 168.675781 132.371094 168.765625 132.152344 168.890625 131.800781 C 168.910156 131.757812 168.9375 131.691406 168.96875 131.597656 L 167 126.394531 L 167.953125 126.394531 L 169.03125 129.394531 C 169.164062 129.78125 169.289062 130.183594 169.40625 130.597656 C 169.507812 130.191406 169.628906 129.800781 169.765625 129.425781 L 170.875 126.394531 L 171.75 126.394531 L 169.78125 131.675781 C 169.570312 132.238281 169.410156 132.628906 169.296875 132.847656 C 169.140625 133.136719 168.957031 133.351562 168.75 133.488281 C 168.550781 133.621094 168.3125 133.691406 168.03125 133.691406 C 167.863281 133.691406 167.675781 133.652344 167.46875 133.582031 Z M 167.46875 133.582031 "/>
</g>
<g clip-path="url(#clip4)" clip-rule="nonzero">
<path style=" stroke:none;fill-rule:nonzero;fill:rgb(0%,0%,0%);fill-opacity:1;" d="M 174.945312 133.566406 L 174.945312 124.425781 L 176.898438 124.425781 L 176.898438 125.144531 L 175.835938 125.144531 L 175.835938 132.847656 L 176.898438 132.847656 L 176.898438 133.566406 Z M 174.945312 133.566406 "/>
</g>
<path style=" stroke:none;fill-rule:nonzero;fill:rgb(0%,0%,0%);fill-opacity:1;" d="M 177.597656 131.582031 L 177.597656 124.425781 L 178.472656 124.425781 L 178.472656 128.503906 L 180.550781 126.394531 L 181.691406 126.394531 L 179.707031 128.316406 L 181.894531 131.582031 L 180.800781 131.582031 L 179.082031 128.925781 L 178.472656 129.519531 L 178.472656 131.582031 Z M 177.597656 131.582031 "/>
<path style=" stroke:none;fill-rule:nonzero;fill:rgb(0%,0%,0%);fill-opacity:1;" d="M 182.503906 131.582031 L 182.503906 124.425781 L 183.457031 124.425781 L 183.457031 127.363281 L 187.175781 127.363281 L 187.175781 124.425781 L 188.128906 124.425781 L 188.128906 131.582031 L 187.175781 131.582031 L 187.175781 128.207031 L 183.457031 128.207031 L 183.457031 131.582031 Z M 182.503906 131.582031 "/>
<path style=" stroke:none;fill-rule:nonzero;fill:rgb(0%,0%,0%);fill-opacity:1;" d="M 188.816406 131.582031 L 188.816406 130.863281 L 192.113281 127.082031 C 191.738281 127.105469 191.402344 127.113281 191.113281 127.113281 L 189.003906 127.113281 L 189.003906 126.394531 L 193.238281 126.394531 L 193.238281 126.972656 L 190.441406 130.269531 L 189.894531 130.863281 C 190.289062 130.84375 190.660156 130.832031 191.003906 130.832031 L 193.394531 130.832031 L 193.394531 131.582031 Z M 188.816406 131.582031 "/>
<g clip-path="url(#clip5)" clip-rule="nonzero">
<path style=" stroke:none;fill-rule:nonzero;fill:rgb(0%,0%,0%);fill-opacity:1;" d="M 195.519531 133.566406 L 193.582031 133.566406 L 193.582031 132.847656 L 194.644531 132.847656 L 194.644531 125.144531 L 193.582031 125.144531 L 193.582031 124.425781 L 195.519531 124.425781 Z M 195.519531 133.566406 "/>
</g>
<path style=" stroke:none;fill-rule:nonzero;fill:rgb(0%,0%,0%);fill-opacity:1;" d="M 6.960938 73.984375 L -0.195312 73.984375 L -0.195312 71.28125 C -0.195312 70.804688 -0.171875 70.4375 -0.132812 70.1875 C -0.0703125 69.835938 0.046875 69.542969 0.210938 69.3125 C 0.367188 69.074219 0.597656 68.882812 0.898438 68.734375 C 1.191406 68.589844 1.515625 68.515625 1.867188 68.515625 C 2.484375 68.515625 3.003906 68.710938 3.429688 69.09375 C 3.847656 69.480469 4.054688 70.179688 4.054688 71.1875 L 4.054688 73.03125 L 6.960938 73.03125 Z M 3.210938 73.03125 L 3.210938 71.1875 C 3.210938 70.574219 3.097656 70.136719 2.867188 69.875 C 2.640625 69.617188 2.316406 69.484375 1.898438 69.484375 C 1.597656 69.484375 1.34375 69.5625 1.132812 69.71875 C 0.925781 69.867188 0.785156 70.0625 0.710938 70.3125 C 0.671875 70.480469 0.648438 70.777344 0.648438 71.203125 L 0.648438 73.03125 Z M 3.210938 73.03125 "/>
<path style=" stroke:none;fill-rule:nonzero;fill:rgb(0%,0%,0%);fill-opacity:1;" d="M 4.664062 67.910156 L 4.585938 67.019531 C 4.941406 66.980469 5.234375 66.878906 5.460938 66.722656 C 5.691406 66.566406 5.878906 66.328125 6.023438 66.003906 C 6.160156 65.683594 6.226562 65.316406 6.226562 64.910156 C 6.226562 64.546875 6.175781 64.230469 6.070312 63.957031 C 5.96875 63.675781 5.820312 63.46875 5.632812 63.332031 C 5.445312 63.199219 5.242188 63.128906 5.023438 63.128906 C 4.796875 63.128906 4.597656 63.199219 4.429688 63.332031 C 4.265625 63.457031 4.125 63.671875 4.007812 63.972656 C 3.9375 64.160156 3.820312 64.582031 3.664062 65.238281 C 3.5 65.894531 3.347656 66.359375 3.210938 66.628906 C 3.035156 66.972656 2.816406 67.230469 2.554688 67.394531 C 2.285156 67.5625 1.984375 67.644531 1.648438 67.644531 C 1.296875 67.644531 0.960938 67.542969 0.648438 67.332031 C 0.328125 67.125 0.0859375 66.828125 -0.0703125 66.441406 C -0.234375 66.046875 -0.320312 65.605469 -0.320312 65.113281 C -0.320312 64.59375 -0.230469 64.128906 -0.0546875 63.722656 C 0.113281 63.316406 0.363281 63.003906 0.695312 62.785156 C 1.03125 62.566406 1.40625 62.449219 1.820312 62.425781 L 1.882812 63.332031 C 1.4375 63.386719 1.097656 63.550781 0.867188 63.832031 C 0.628906 64.113281 0.507812 64.53125 0.507812 65.082031 C 0.507812 65.65625 0.617188 66.074219 0.835938 66.332031 C 1.046875 66.59375 1.296875 66.722656 1.585938 66.722656 C 1.847656 66.722656 2.0625 66.628906 2.226562 66.441406 C 2.394531 66.265625 2.566406 65.792969 2.742188 65.019531 C 2.910156 64.25 3.0625 63.722656 3.195312 63.441406 C 3.382812 63.027344 3.628906 62.71875 3.929688 62.519531 C 4.222656 62.324219 4.5625 62.222656 4.945312 62.222656 C 5.320312 62.222656 5.679688 62.332031 6.023438 62.550781 C 6.359375 62.761719 6.617188 63.074219 6.804688 63.488281 C 6.992188 63.894531 7.085938 64.355469 7.085938 64.863281 C 7.085938 65.511719 6.992188 66.050781 6.804688 66.488281 C 6.617188 66.925781 6.335938 67.269531 5.960938 67.519531 C 5.578125 67.769531 5.144531 67.902344 4.664062 67.910156 Z M 4.664062 67.910156 "/>
<path style=" stroke:none;fill-rule:nonzero;fill:rgb(0%,0%,0%);fill-opacity:1;" d="M 6.960938 61.195312 L -0.195312 61.195312 L -0.195312 58.023438 C -0.195312 57.378906 -0.125 56.894531 0.0078125 56.570312 C 0.132812 56.238281 0.359375 55.972656 0.679688 55.773438 C 1.003906 55.566406 1.363281 55.460938 1.757812 55.460938 C 2.269531 55.460938 2.695312 55.628906 3.039062 55.960938 C 3.382812 56.296875 3.609375 56.800781 3.710938 57.476562 C 3.828125 57.226562 3.941406 57.039062 4.054688 56.914062 C 4.316406 56.632812 4.632812 56.375 5.007812 56.132812 L 6.960938 54.882812 L 6.960938 56.070312 L 5.476562 57.023438 C 5.039062 57.296875 4.710938 57.523438 4.492188 57.710938 C 4.265625 57.890625 4.101562 58.050781 4.007812 58.195312 C 3.914062 58.332031 3.851562 58.472656 3.820312 58.617188 C 3.800781 58.722656 3.789062 58.898438 3.789062 59.148438 L 3.789062 60.242188 L 6.960938 60.242188 Z M 2.960938 60.242188 L 2.960938 58.210938 C 2.960938 57.773438 2.921875 57.4375 2.835938 57.195312 C 2.742188 56.945312 2.597656 56.757812 2.398438 56.632812 C 2.203125 56.507812 1.988281 56.445312 1.757812 56.445312 C 1.414062 56.445312 1.132812 56.570312 0.914062 56.820312 C 0.695312 57.0625 0.585938 57.445312 0.585938 57.976562 L 0.585938 60.242188 Z M 2.960938 60.242188 "/>
<path style=" stroke:none;fill-rule:nonzero;fill:rgb(0%,0%,0%);fill-opacity:1;" d="M 6.960938 54.289062 L -0.195312 54.289062 L -0.195312 51.117188 C -0.195312 50.472656 -0.125 49.988281 0.0078125 49.664062 C 0.132812 49.332031 0.359375 49.066406 0.679688 48.867188 C 1.003906 48.660156 1.363281 48.554688 1.757812 48.554688 C 2.269531 48.554688 2.695312 48.722656 3.039062 49.054688 C 3.382812 49.390625 3.609375 49.894531 3.710938 50.570312 C 3.828125 50.320312 3.941406 50.132812 4.054688 50.007812 C 4.316406 49.726562 4.632812 49.46875 5.007812 49.226562 L 6.960938 47.976562 L 6.960938 49.164062 L 5.476562 50.117188 C 5.039062 50.390625 4.710938 50.617188 4.492188 50.804688 C 4.265625 50.984375 4.101562 51.144531 4.007812 51.289062 C 3.914062 51.425781 3.851562 51.566406 3.820312 51.710938 C 3.800781 51.816406 3.789062 51.992188 3.789062 52.242188 L 3.789062 53.335938 L 6.960938 53.335938 Z M 2.960938 53.335938 L 2.960938 51.304688 C 2.960938 50.867188 2.921875 50.53125 2.835938 50.289062 C 2.742188 50.039062 2.597656 49.851562 2.398438 49.726562 C 2.203125 49.601562 1.988281 49.539062 1.757812 49.539062 C 1.414062 49.539062 1.132812 49.664062 0.914062 49.914062 C 0.695312 50.15625 0.585938 50.539062 0.585938 51.070312 L 0.585938 53.335938 Z M 2.960938 53.335938 "/>
<path style=" stroke:none;fill-rule:nonzero;fill:rgb(0%,0%,0%);fill-opacity:1;" d="M 8.945312 44.839844 L -0.195312 44.839844 L -0.195312 42.886719 L 0.523438 42.886719 L 0.523438 43.949219 L 8.226562 43.949219 L 8.226562 42.886719 L 8.945312 42.886719 Z M 8.945312 44.839844 "/>
<path style=" stroke:none;fill-rule:nonzero;fill:rgb(0%,0%,0%);fill-opacity:1;" d="M 6.960938 38.828125 L 6.304688 38.828125 C 6.828125 39.164062 7.085938 39.648438 7.085938 40.28125 C 7.085938 40.699219 6.96875 41.085938 6.742188 41.4375 C 6.515625 41.78125 6.195312 42.046875 5.789062 42.234375 C 5.375 42.421875 4.898438 42.515625 4.367188 42.515625 C 3.859375 42.515625 3.394531 42.433594 2.976562 42.265625 C 2.550781 42.089844 2.226562 41.828125 2.007812 41.484375 C 1.78125 41.140625 1.664062 40.757812 1.664062 40.328125 C 1.664062 40.015625 1.734375 39.742188 1.867188 39.5 C 1.992188 39.25 2.160156 39.046875 2.367188 38.890625 L -0.195312 38.890625 L -0.195312 38.015625 L 6.960938 38.015625 Z M 4.367188 41.609375 C 5.035156 41.609375 5.535156 41.476562 5.867188 41.203125 C 6.191406 40.921875 6.351562 40.589844 6.351562 40.203125 C 6.351562 39.820312 6.195312 39.496094 5.882812 39.234375 C 5.570312 38.964844 5.09375 38.828125 4.445312 38.828125 C 3.738281 38.828125 3.21875 38.964844 2.882812 39.234375 C 2.550781 39.507812 2.382812 39.839844 2.382812 40.234375 C 2.382812 40.632812 2.546875 40.960938 2.867188 41.21875 C 3.179688 41.480469 3.679688 41.609375 4.367188 41.609375 Z M 4.367188 41.609375 "/>
<path style=" stroke:none;fill-rule:nonzero;fill:rgb(0%,0%,0%);fill-opacity:1;" d="M 6.960938 36.804688 L -0.195312 36.804688 L -0.195312 34.117188 C -0.195312 33.578125 -0.121094 33.140625 0.0234375 32.804688 C 0.171875 32.472656 0.394531 32.210938 0.695312 32.023438 C 0.988281 31.835938 1.300781 31.742188 1.632812 31.742188 C 1.9375 31.742188 2.222656 31.828125 2.492188 31.992188 C 2.765625 32.160156 2.984375 32.410156 3.148438 32.742188 C 3.273438 32.316406 3.492188 31.988281 3.804688 31.757812 C 4.109375 31.519531 4.46875 31.398438 4.882812 31.398438 C 5.21875 31.398438 5.53125 31.472656 5.820312 31.617188 C 6.113281 31.753906 6.335938 31.925781 6.492188 32.132812 C 6.648438 32.34375 6.769531 32.609375 6.851562 32.929688 C 6.925781 33.242188 6.960938 33.625 6.960938 34.070312 Z M 2.804688 35.851562 L 2.804688 34.304688 C 2.804688 33.890625 2.78125 33.59375 2.726562 33.414062 C 2.65625 33.164062 2.535156 32.984375 2.367188 32.867188 C 2.203125 32.742188 1.992188 32.679688 1.742188 32.679688 C 1.503906 32.679688 1.296875 32.738281 1.117188 32.851562 C 0.941406 32.96875 0.820312 33.132812 0.757812 33.351562 C 0.6875 33.5625 0.648438 33.921875 0.648438 34.429688 L 0.648438 35.851562 Z M 6.117188 35.851562 L 6.117188 34.070312 C 6.117188 33.769531 6.109375 33.554688 6.085938 33.429688 C 6.046875 33.210938 5.976562 33.03125 5.882812 32.882812 C 5.789062 32.738281 5.660156 32.617188 5.492188 32.523438 C 5.316406 32.429688 5.113281 32.382812 4.882812 32.382812 C 4.625 32.382812 4.394531 32.453125 4.195312 32.585938 C 4 32.722656 3.859375 32.914062 3.773438 33.164062 C 3.691406 33.40625 3.648438 33.753906 3.648438 34.210938 L 3.648438 35.851562 Z M 6.117188 35.851562 "/>
<path style=" stroke:none;fill-rule:nonzero;fill:rgb(0%,0%,0%);fill-opacity:1;" d="M 8.945312 29.027344 L 8.945312 30.964844 L 8.226562 30.964844 L 8.226562 29.902344 L 0.523438 29.902344 L 0.523438 30.964844 L -0.195312 30.964844 L -0.195312 29.027344 Z M 8.945312 29.027344 "/>
<path style="fill:none;stroke-width:1.125;stroke-linecap:square;stroke-linejoin:round;stroke:rgb(0%,0%,0%);stroke-opacity:1;stroke-miterlimit:10;" d="M 31.21875 105.765625 L 252.238281 105.765625 "/>
<path style="fill:none;stroke-width:1.125;stroke-linecap:square;stroke-linejoin:round;stroke:rgb(0%,0%,0%);stroke-opacity:1;stroke-miterlimit:10;" d="M 31.21875 0.5625 L 252.238281 0.5625 "/>
<path style="fill:none;stroke-width:1.125;stroke-linecap:square;stroke-linejoin:round;stroke:rgb(0%,0%,0%);stroke-opacity:1;stroke-miterlimit:10;" d="M 52.367188 105.238281 L 52.367188 101.363281 "/>
<path style="fill:none;stroke-width:1.125;stroke-linecap:square;stroke-linejoin:round;stroke:rgb(0%,0%,0%);stroke-opacity:1;stroke-miterlimit:10;" d="M 122.617188 105.238281 L 122.617188 101.363281 "/>
<path style="fill:none;stroke-width:1.125;stroke-linecap:square;stroke-linejoin:round;stroke:rgb(0%,0%,0%);stroke-opacity:1;stroke-miterlimit:10;" d="M 192.867188 105.238281 L 192.867188 101.363281 "/>
<path style="fill:none;stroke-width:1.125;stroke-linecap:square;stroke-linejoin:round;stroke:rgb(0%,0%,0%);stroke-opacity:1;stroke-miterlimit:10;" d="M 52.367188 1.328125 L 52.367188 5.203125 "/>
<path style="fill:none;stroke-width:1.125;stroke-linecap:square;stroke-linejoin:round;stroke:rgb(0%,0%,0%);stroke-opacity:1;stroke-miterlimit:10;" d="M 122.617188 1.328125 L 122.617188 5.203125 "/>
<path style="fill:none;stroke-width:1.125;stroke-linecap:square;stroke-linejoin:round;stroke:rgb(0%,0%,0%);stroke-opacity:1;stroke-miterlimit:10;" d="M 192.867188 1.328125 L 192.867188 5.203125 "/>
<path style="fill:none;stroke-width:1.125;stroke-linecap:square;stroke-linejoin:round;stroke:rgb(0%,0%,0%);stroke-opacity:1;stroke-miterlimit:10;" d="M 36.78125 105.238281 L 36.78125 103.300781 "/>
<path style="fill:none;stroke-width:1.125;stroke-linecap:square;stroke-linejoin:round;stroke:rgb(0%,0%,0%);stroke-opacity:1;stroke-miterlimit:10;" d="M 41.484375 105.238281 L 41.484375 103.300781 "/>
<path style="fill:none;stroke-width:1.125;stroke-linecap:square;stroke-linejoin:round;stroke:rgb(0%,0%,0%);stroke-opacity:1;stroke-miterlimit:10;" d="M 45.558594 105.238281 L 45.558594 103.300781 "/>
<path style="fill:none;stroke-width:1.125;stroke-linecap:square;stroke-linejoin:round;stroke:rgb(0%,0%,0%);stroke-opacity:1;stroke-miterlimit:10;" d="M 49.152344 105.238281 L 49.152344 103.300781 "/>
<path style="fill:none;stroke-width:1.125;stroke-linecap:square;stroke-linejoin:round;stroke:rgb(0%,0%,0%);stroke-opacity:1;stroke-miterlimit:10;" d="M 52.367188 105.238281 L 52.367188 103.300781 "/>
<path style="fill:none;stroke-width:1.125;stroke-linecap:square;stroke-linejoin:round;stroke:rgb(0%,0%,0%);stroke-opacity:1;stroke-miterlimit:10;" d="M 73.511719 105.238281 L 73.511719 103.300781 "/>
<path style="fill:none;stroke-width:1.125;stroke-linecap:square;stroke-linejoin:round;stroke:rgb(0%,0%,0%);stroke-opacity:1;stroke-miterlimit:10;" d="M 85.882812 105.238281 L 85.882812 103.300781 "/>
<path style="fill:none;stroke-width:1.125;stroke-linecap:square;stroke-linejoin:round;stroke:rgb(0%,0%,0%);stroke-opacity:1;stroke-miterlimit:10;" d="M 94.660156 105.238281 L 94.660156 103.300781 "/>
<path style="fill:none;stroke-width:1.125;stroke-linecap:square;stroke-linejoin:round;stroke:rgb(0%,0%,0%);stroke-opacity:1;stroke-miterlimit:10;" d="M 101.46875 105.238281 L 101.46875 103.300781 "/>
<path style="fill:none;stroke-width:1.125;stroke-linecap:square;stroke-linejoin:round;stroke:rgb(0%,0%,0%);stroke-opacity:1;stroke-miterlimit:10;" d="M 107.03125 105.238281 L 107.03125 103.300781 "/>
<path style="fill:none;stroke-width:1.125;stroke-linecap:square;stroke-linejoin:round;stroke:rgb(0%,0%,0%);stroke-opacity:1;stroke-miterlimit:10;" d="M 111.734375 105.238281 L 111.734375 103.300781 "/>
<path style="fill:none;stroke-width:1.125;stroke-linecap:square;stroke-linejoin:round;stroke:rgb(0%,0%,0%);stroke-opacity:1;stroke-miterlimit:10;" d="M 115.808594 105.238281 L 115.808594 103.300781 "/>
<path style="fill:none;stroke-width:1.125;stroke-linecap:square;stroke-linejoin:round;stroke:rgb(0%,0%,0%);stroke-opacity:1;stroke-miterlimit:10;" d="M 119.402344 105.238281 L 119.402344 103.300781 "/>
<path style="fill:none;stroke-width:1.125;stroke-linecap:square;stroke-linejoin:round;stroke:rgb(0%,0%,0%);stroke-opacity:1;stroke-miterlimit:10;" d="M 122.617188 105.238281 L 122.617188 103.300781 "/>
<path style="fill:none;stroke-width:1.125;stroke-linecap:square;stroke-linejoin:round;stroke:rgb(0%,0%,0%);stroke-opacity:1;stroke-miterlimit:10;" d="M 143.765625 105.238281 L 143.765625 103.300781 "/>
<path style="fill:none;stroke-width:1.125;stroke-linecap:square;stroke-linejoin:round;stroke:rgb(0%,0%,0%);stroke-opacity:1;stroke-miterlimit:10;" d="M 156.136719 105.238281 L 156.136719 103.300781 "/>
<path style="fill:none;stroke-width:1.125;stroke-linecap:square;stroke-linejoin:round;stroke:rgb(0%,0%,0%);stroke-opacity:1;stroke-miterlimit:10;" d="M 164.910156 105.238281 L 164.910156 103.300781 "/>
<path style="fill:none;stroke-width:1.125;stroke-linecap:square;stroke-linejoin:round;stroke:rgb(0%,0%,0%);stroke-opacity:1;stroke-miterlimit:10;" d="M 171.71875 105.238281 L 171.71875 103.300781 "/>
<path style="fill:none;stroke-width:1.125;stroke-linecap:square;stroke-linejoin:round;stroke:rgb(0%,0%,0%);stroke-opacity:1;stroke-miterlimit:10;" d="M 177.28125 105.238281 L 177.28125 103.300781 "/>
<path style="fill:none;stroke-width:1.125;stroke-linecap:square;stroke-linejoin:round;stroke:rgb(0%,0%,0%);stroke-opacity:1;stroke-miterlimit:10;" d="M 181.984375 105.238281 L 181.984375 103.300781 "/>
<path style="fill:none;stroke-width:1.125;stroke-linecap:square;stroke-linejoin:round;stroke:rgb(0%,0%,0%);stroke-opacity:1;stroke-miterlimit:10;" d="M 186.058594 105.238281 L 186.058594 103.300781 "/>
<path style="fill:none;stroke-width:1.125;stroke-linecap:square;stroke-linejoin:round;stroke:rgb(0%,0%,0%);stroke-opacity:1;stroke-miterlimit:10;" d="M 189.652344 105.238281 L 189.652344 103.300781 "/>
<path style="fill:none;stroke-width:1.125;stroke-linecap:square;stroke-linejoin:round;stroke:rgb(0%,0%,0%);stroke-opacity:1;stroke-miterlimit:10;" d="M 192.867188 105.238281 L 192.867188 103.300781 "/>
<path style="fill:none;stroke-width:1.125;stroke-linecap:square;stroke-linejoin:round;stroke:rgb(0%,0%,0%);stroke-opacity:1;stroke-miterlimit:10;" d="M 214.015625 105.238281 L 214.015625 103.300781 "/>
<path style="fill:none;stroke-width:1.125;stroke-linecap:square;stroke-linejoin:round;stroke:rgb(0%,0%,0%);stroke-opacity:1;stroke-miterlimit:10;" d="M 226.386719 105.238281 L 226.386719 103.300781 "/>
<path style="fill:none;stroke-width:1.125;stroke-linecap:square;stroke-linejoin:round;stroke:rgb(0%,0%,0%);stroke-opacity:1;stroke-miterlimit:10;" d="M 235.164062 105.238281 L 235.164062 103.300781 "/>
<path style="fill:none;stroke-width:1.125;stroke-linecap:square;stroke-linejoin:round;stroke:rgb(0%,0%,0%);stroke-opacity:1;stroke-miterlimit:10;" d="M 241.972656 105.238281 L 241.972656 103.300781 "/>
<path style="fill:none;stroke-width:1.125;stroke-linecap:square;stroke-linejoin:round;stroke:rgb(0%,0%,0%);stroke-opacity:1;stroke-miterlimit:10;" d="M 247.535156 105.238281 L 247.535156 103.300781 "/>
<path style="fill:none;stroke-width:1.125;stroke-linecap:square;stroke-linejoin:round;stroke:rgb(0%,0%,0%);stroke-opacity:1;stroke-miterlimit:10;" d="M 36.78125 1.328125 L 36.78125 3.265625 "/>
<path style="fill:none;stroke-width:1.125;stroke-linecap:square;stroke-linejoin:round;stroke:rgb(0%,0%,0%);stroke-opacity:1;stroke-miterlimit:10;" d="M 41.484375 1.328125 L 41.484375 3.265625 "/>
<path style="fill:none;stroke-width:1.125;stroke-linecap:square;stroke-linejoin:round;stroke:rgb(0%,0%,0%);stroke-opacity:1;stroke-miterlimit:10;" d="M 45.558594 1.328125 L 45.558594 3.265625 "/>
<path style="fill:none;stroke-width:1.125;stroke-linecap:square;stroke-linejoin:round;stroke:rgb(0%,0%,0%);stroke-opacity:1;stroke-miterlimit:10;" d="M 49.152344 1.328125 L 49.152344 3.265625 "/>
<path style="fill:none;stroke-width:1.125;stroke-linecap:square;stroke-linejoin:round;stroke:rgb(0%,0%,0%);stroke-opacity:1;stroke-miterlimit:10;" d="M 52.367188 1.328125 L 52.367188 3.265625 "/>
<path style="fill:none;stroke-width:1.125;stroke-linecap:square;stroke-linejoin:round;stroke:rgb(0%,0%,0%);stroke-opacity:1;stroke-miterlimit:10;" d="M 73.511719 1.328125 L 73.511719 3.265625 "/>
<path style="fill:none;stroke-width:1.125;stroke-linecap:square;stroke-linejoin:round;stroke:rgb(0%,0%,0%);stroke-opacity:1;stroke-miterlimit:10;" d="M 85.882812 1.328125 L 85.882812 3.265625 "/>
<path style="fill:none;stroke-width:1.125;stroke-linecap:square;stroke-linejoin:round;stroke:rgb(0%,0%,0%);stroke-opacity:1;stroke-miterlimit:10;" d="M 94.660156 1.328125 L 94.660156 3.265625 "/>
<path style="fill:none;stroke-width:1.125;stroke-linecap:square;stroke-linejoin:round;stroke:rgb(0%,0%,0%);stroke-opacity:1;stroke-miterlimit:10;" d="M 101.46875 1.328125 L 101.46875 3.265625 "/>
<path style="fill:none;stroke-width:1.125;stroke-linecap:square;stroke-linejoin:round;stroke:rgb(0%,0%,0%);stroke-opacity:1;stroke-miterlimit:10;" d="M 107.03125 1.328125 L 107.03125 3.265625 "/>
<path style="fill:none;stroke-width:1.125;stroke-linecap:square;stroke-linejoin:round;stroke:rgb(0%,0%,0%);stroke-opacity:1;stroke-miterlimit:10;" d="M 111.734375 1.328125 L 111.734375 3.265625 "/>
<path style="fill:none;stroke-width:1.125;stroke-linecap:square;stroke-linejoin:round;stroke:rgb(0%,0%,0%);stroke-opacity:1;stroke-miterlimit:10;" d="M 115.808594 1.328125 L 115.808594 3.265625 "/>
<path style="fill:none;stroke-width:1.125;stroke-linecap:square;stroke-linejoin:round;stroke:rgb(0%,0%,0%);stroke-opacity:1;stroke-miterlimit:10;" d="M 119.402344 1.328125 L 119.402344 3.265625 "/>
<path style="fill:none;stroke-width:1.125;stroke-linecap:square;stroke-linejoin:round;stroke:rgb(0%,0%,0%);stroke-opacity:1;stroke-miterlimit:10;" d="M 122.617188 1.328125 L 122.617188 3.265625 "/>
<path style="fill:none;stroke-width:1.125;stroke-linecap:square;stroke-linejoin:round;stroke:rgb(0%,0%,0%);stroke-opacity:1;stroke-miterlimit:10;" d="M 143.765625 1.328125 L 143.765625 3.265625 "/>
<path style="fill:none;stroke-width:1.125;stroke-linecap:square;stroke-linejoin:round;stroke:rgb(0%,0%,0%);stroke-opacity:1;stroke-miterlimit:10;" d="M 156.136719 1.328125 L 156.136719 3.265625 "/>
<path style="fill:none;stroke-width:1.125;stroke-linecap:square;stroke-linejoin:round;stroke:rgb(0%,0%,0%);stroke-opacity:1;stroke-miterlimit:10;" d="M 164.910156 1.328125 L 164.910156 3.265625 "/>
<path style="fill:none;stroke-width:1.125;stroke-linecap:square;stroke-linejoin:round;stroke:rgb(0%,0%,0%);stroke-opacity:1;stroke-miterlimit:10;" d="M 171.71875 1.328125 L 171.71875 3.265625 "/>
<path style="fill:none;stroke-width:1.125;stroke-linecap:square;stroke-linejoin:round;stroke:rgb(0%,0%,0%);stroke-opacity:1;stroke-miterlimit:10;" d="M 177.28125 1.328125 L 177.28125 3.265625 "/>
<path style="fill:none;stroke-width:1.125;stroke-linecap:square;stroke-linejoin:round;stroke:rgb(0%,0%,0%);stroke-opacity:1;stroke-miterlimit:10;" d="M 181.984375 1.328125 L 181.984375 3.265625 "/>
<path style="fill:none;stroke-width:1.125;stroke-linecap:square;stroke-linejoin:round;stroke:rgb(0%,0%,0%);stroke-opacity:1;stroke-miterlimit:10;" d="M 186.058594 1.328125 L 186.058594 3.265625 "/>
<path style="fill:none;stroke-width:1.125;stroke-linecap:square;stroke-linejoin:round;stroke:rgb(0%,0%,0%);stroke-opacity:1;stroke-miterlimit:10;" d="M 189.652344 1.328125 L 189.652344 3.265625 "/>
<path style="fill:none;stroke-width:1.125;stroke-linecap:square;stroke-linejoin:round;stroke:rgb(0%,0%,0%);stroke-opacity:1;stroke-miterlimit:10;" d="M 192.867188 1.328125 L 192.867188 3.265625 "/>
<path style="fill:none;stroke-width:1.125;stroke-linecap:square;stroke-linejoin:round;stroke:rgb(0%,0%,0%);stroke-opacity:1;stroke-miterlimit:10;" d="M 214.015625 1.328125 L 214.015625 3.265625 "/>
<path style="fill:none;stroke-width:1.125;stroke-linecap:square;stroke-linejoin:round;stroke:rgb(0%,0%,0%);stroke-opacity:1;stroke-miterlimit:10;" d="M 226.386719 1.328125 L 226.386719 3.265625 "/>
<path style="fill:none;stroke-width:1.125;stroke-linecap:square;stroke-linejoin:round;stroke:rgb(0%,0%,0%);stroke-opacity:1;stroke-miterlimit:10;" d="M 235.164062 1.328125 L 235.164062 3.265625 "/>
<path style="fill:none;stroke-width:1.125;stroke-linecap:square;stroke-linejoin:round;stroke:rgb(0%,0%,0%);stroke-opacity:1;stroke-miterlimit:10;" d="M 241.972656 1.328125 L 241.972656 3.265625 "/>
<path style="fill:none;stroke-width:1.125;stroke-linecap:square;stroke-linejoin:round;stroke:rgb(0%,0%,0%);stroke-opacity:1;stroke-miterlimit:10;" d="M 247.535156 1.328125 L 247.535156 3.265625 "/>
<path style="fill:none;stroke-width:1.125;stroke-linecap:square;stroke-linejoin:round;stroke:rgb(0%,0%,0%);stroke-opacity:1;stroke-miterlimit:10;" d="M 31.21875 105.765625 L 31.21875 0.5625 "/>
<path style="fill:none;stroke-width:1.125;stroke-linecap:square;stroke-linejoin:round;stroke:rgb(0%,0%,0%);stroke-opacity:1;stroke-miterlimit:10;" d="M 252.238281 105.765625 L 252.238281 0.5625 "/>
<path style="fill:none;stroke-width:1.125;stroke-linecap:square;stroke-linejoin:round;stroke:rgb(0%,0%,0%);stroke-opacity:1;stroke-miterlimit:10;" d="M 249.050781 13.617188 L 251.390625 13.617188 "/>
<path style="fill:none;stroke-width:1.125;stroke-linecap:square;stroke-linejoin:round;stroke:rgb(0%,0%,0%);stroke-opacity:1;stroke-miterlimit:10;" d="M 249.050781 59.882812 L 251.390625 59.882812 "/>
<path style="fill:none;stroke-width:1.125;stroke-linecap:square;stroke-linejoin:round;stroke:rgb(0%,0%,0%);stroke-opacity:1;stroke-miterlimit:10;" d="M 249.222656 82.953125 L 251.5625 82.953125 "/>
<path style="fill:none;stroke-width:1.125;stroke-linecap:square;stroke-linejoin:round;stroke:rgb(0%,0%,0%);stroke-opacity:1;stroke-miterlimit:10;" d="M 249.335938 36.84375 L 251.675781 36.84375 "/>
<path style=" stroke:none;fill-rule:nonzero;fill:rgb(0%,0%,0%);fill-opacity:1;" d="M 256.105469 83.148438 L 258.808594 83.148438 L 258.808594 84.023438 L 256.105469 84.023438 Z M 256.105469 83.148438 "/>
<path style=" stroke:none;fill-rule:nonzero;fill:rgb(0%,0%,0%);fill-opacity:1;" d="M 262.222656 86.179688 L 262.222656 84.460938 L 259.113281 84.460938 L 259.113281 83.664062 L 262.378906 79.023438 L 263.097656 79.023438 L 263.097656 83.664062 L 264.066406 83.664062 L 264.066406 84.460938 L 263.097656 84.460938 L 263.097656 86.179688 Z M 262.222656 83.664062 L 262.222656 80.429688 L 259.972656 83.664062 Z M 262.222656 83.664062 "/>
<path style=" stroke:none;fill-rule:nonzero;fill:rgb(0%,0%,0%);fill-opacity:1;" d="M 264.730469 84.304688 L 265.652344 84.226562 C 265.714844 84.675781 265.871094 85.015625 266.121094 85.242188 C 266.371094 85.472656 266.671875 85.585938 267.027344 85.585938 C 267.441406 85.585938 267.796875 85.425781 268.089844 85.101562 C 268.390625 84.78125 268.542969 84.359375 268.542969 83.835938 C 268.542969 83.335938 268.402344 82.941406 268.121094 82.648438 C 267.839844 82.359375 267.46875 82.210938 267.011719 82.210938 C 266.730469 82.210938 266.472656 82.28125 266.246094 82.414062 C 266.015625 82.539062 265.832031 82.703125 265.699219 82.898438 L 264.886719 82.789062 L 265.574219 79.117188 L 269.136719 79.117188 L 269.136719 79.960938 L 266.277344 79.960938 L 265.886719 81.882812 C 266.324219 81.582031 266.777344 81.429688 267.246094 81.429688 C 267.871094 81.429688 268.394531 81.648438 268.824219 82.085938 C 269.25 82.515625 269.464844 83.070312 269.464844 83.757812 C 269.464844 84.40625 269.277344 84.960938 268.902344 85.429688 C 268.441406 86.015625 267.816406 86.304688 267.027344 86.304688 C 266.371094 86.304688 265.832031 86.125 265.417969 85.757812 C 265.011719 85.394531 264.78125 84.910156 264.730469 84.304688 Z M 264.730469 84.304688 "/>
<path style=" stroke:none;fill-rule:nonzero;fill:rgb(0%,0%,0%);fill-opacity:1;" d="M 280.679688 89.5625 L 273.523438 89.5625 L 273.523438 88.140625 L 278.585938 86.453125 C 279.066406 86.296875 279.421875 86.183594 279.648438 86.109375 C 279.390625 86.027344 279.007812 85.902344 278.507812 85.734375 L 273.523438 84.015625 L 273.523438 82.734375 L 280.679688 82.734375 L 280.679688 83.65625 L 274.695312 83.65625 L 280.679688 85.734375 L 280.679688 86.59375 L 274.585938 88.65625 L 280.679688 88.65625 Z M 280.679688 89.5625 "/>
<path style=" stroke:none;fill-rule:nonzero;fill:rgb(0%,0%,0%);fill-opacity:1;" d="M 279.007812 78.136719 L 279.117188 77.214844 C 279.648438 77.363281 280.066406 77.632812 280.367188 78.027344 C 280.660156 78.414062 280.804688 78.902344 280.804688 79.496094 C 280.804688 80.257812 280.570312 80.863281 280.101562 81.308594 C 279.632812 81.757812 278.976562 81.980469 278.132812 81.980469 C 277.257812 81.980469 276.582031 81.757812 276.101562 81.308594 C 275.625 80.851562 275.382812 80.269531 275.382812 79.558594 C 275.382812 78.863281 275.617188 78.292969 276.085938 77.855469 C 276.554688 77.417969 277.21875 77.199219 278.070312 77.199219 C 278.125 77.199219 278.203125 77.199219 278.304688 77.199219 L 278.304688 81.058594 C 278.878906 81.027344 279.316406 80.871094 279.617188 80.589844 C 279.921875 80.300781 280.070312 79.933594 280.070312 79.496094 C 280.070312 79.175781 279.988281 78.898438 279.820312 78.667969 C 279.65625 78.441406 279.382812 78.261719 279.007812 78.136719 Z M 277.585938 81.011719 L 277.585938 78.121094 C 277.148438 78.164062 276.820312 78.273438 276.601562 78.449219 C 276.269531 78.730469 276.101562 79.097656 276.101562 79.542969 C 276.101562 79.949219 276.238281 80.289062 276.507812 80.558594 C 276.78125 80.832031 277.140625 80.980469 277.585938 81.011719 Z M 277.585938 81.011719 "/>
<path style=" stroke:none;fill-rule:nonzero;fill:rgb(0%,0%,0%);fill-opacity:1;" d="M 280.039062 72.972656 C 280.320312 73.296875 280.519531 73.609375 280.632812 73.910156 C 280.746094 74.214844 280.804688 74.535156 280.804688 74.878906 C 280.804688 75.453125 280.664062 75.894531 280.382812 76.207031 C 280.101562 76.511719 279.742188 76.660156 279.304688 76.660156 C 279.054688 76.660156 278.828125 76.605469 278.617188 76.488281 C 278.410156 76.375 278.242188 76.222656 278.117188 76.035156 C 277.984375 75.847656 277.882812 75.636719 277.820312 75.394531 C 277.78125 75.230469 277.738281 74.96875 277.695312 74.613281 C 277.613281 73.90625 277.507812 73.386719 277.382812 73.050781 C 277.269531 73.050781 277.195312 73.050781 277.164062 73.050781 C 276.800781 73.050781 276.546875 73.136719 276.398438 73.300781 C 276.203125 73.519531 276.101562 73.855469 276.101562 74.300781 C 276.101562 74.707031 276.175781 75.011719 276.320312 75.207031 C 276.46875 75.40625 276.722656 75.550781 277.085938 75.644531 L 276.976562 76.503906 C 276.601562 76.433594 276.304688 76.308594 276.085938 76.128906 C 275.859375 75.941406 275.6875 75.683594 275.570312 75.347656 C 275.445312 75.003906 275.382812 74.609375 275.382812 74.160156 C 275.382812 73.722656 275.4375 73.371094 275.539062 73.097656 C 275.644531 72.816406 275.773438 72.613281 275.929688 72.488281 C 276.085938 72.355469 276.285156 72.261719 276.523438 72.207031 C 276.671875 72.175781 276.941406 72.160156 277.335938 72.160156 L 278.507812 72.160156 C 279.320312 72.160156 279.835938 72.144531 280.054688 72.113281 C 280.273438 72.074219 280.484375 71.996094 280.679688 71.878906 L 280.679688 72.800781 C 280.492188 72.894531 280.28125 72.953125 280.039062 72.972656 Z M 278.070312 73.050781 C 278.207031 73.375 278.320312 73.855469 278.414062 74.488281 C 278.46875 74.84375 278.523438 75.097656 278.585938 75.253906 C 278.648438 75.402344 278.742188 75.515625 278.867188 75.597656 C 278.992188 75.683594 279.132812 75.722656 279.289062 75.722656 C 279.519531 75.722656 279.710938 75.636719 279.867188 75.457031 C 280.023438 75.28125 280.101562 75.019531 280.101562 74.675781 C 280.101562 74.332031 280.03125 74.03125 279.882812 73.769531 C 279.738281 73.511719 279.535156 73.316406 279.273438 73.191406 C 279.078125 73.097656 278.785156 73.050781 278.398438 73.050781 Z M 278.070312 73.050781 "/>
<path style=" stroke:none;fill-rule:nonzero;fill:rgb(0%,0%,0%);fill-opacity:1;" d="M 279.132812 71.386719 L 278.992188 70.527344 C 279.347656 70.476562 279.617188 70.339844 279.804688 70.121094 C 279.984375 69.894531 280.070312 69.582031 280.070312 69.183594 C 280.070312 68.777344 279.992188 68.476562 279.835938 68.277344 C 279.671875 68.082031 279.472656 67.980469 279.242188 67.980469 C 279.046875 67.980469 278.890625 68.070312 278.773438 68.246094 C 278.703125 68.371094 278.601562 68.675781 278.476562 69.152344 C 278.320312 69.789062 278.1875 70.230469 278.070312 70.480469 C 277.945312 70.730469 277.78125 70.925781 277.570312 71.058594 C 277.363281 71.183594 277.128906 71.246094 276.867188 71.246094 C 276.640625 71.246094 276.425781 71.195312 276.226562 71.089844 C 276.03125 70.988281 275.867188 70.839844 275.742188 70.652344 C 275.640625 70.519531 275.554688 70.335938 275.492188 70.105469 C 275.421875 69.867188 275.382812 69.613281 275.382812 69.339844 C 275.382812 68.933594 275.441406 68.582031 275.554688 68.277344 C 275.671875 67.964844 275.832031 67.738281 276.039062 67.589844 C 276.238281 67.433594 276.503906 67.332031 276.835938 67.277344 L 276.945312 68.136719 C 276.6875 68.179688 276.484375 68.292969 276.335938 68.480469 C 276.179688 68.667969 276.101562 68.933594 276.101562 69.277344 C 276.101562 69.675781 276.171875 69.960938 276.304688 70.136719 C 276.429688 70.316406 276.585938 70.402344 276.773438 70.402344 C 276.890625 70.402344 276.988281 70.367188 277.070312 70.292969 C 277.164062 70.222656 277.242188 70.105469 277.304688 69.949219 C 277.335938 69.867188 277.414062 69.605469 277.539062 69.167969 C 277.707031 68.554688 277.84375 68.128906 277.945312 67.886719 C 278.050781 67.636719 278.207031 67.445312 278.414062 67.308594 C 278.613281 67.164062 278.859375 67.089844 279.148438 67.089844 C 279.453125 67.089844 279.734375 67.175781 279.992188 67.339844 C 280.242188 67.507812 280.441406 67.753906 280.585938 68.074219 C 280.730469 68.398438 280.804688 68.761719 280.804688 69.167969 C 280.804688 69.847656 280.664062 70.363281 280.382812 70.714844 C 280.101562 71.070312 279.6875 71.292969 279.132812 71.386719 Z M 279.132812 71.386719 "/>
<path style=" stroke:none;fill-rule:nonzero;fill:rgb(0%,0%,0%);fill-opacity:1;" d="M 280.679688 62.855469 L 279.914062 62.855469 C 280.507812 63.261719 280.804688 63.816406 280.804688 64.511719 C 280.804688 64.816406 280.746094 65.101562 280.632812 65.371094 C 280.507812 65.632812 280.359375 65.832031 280.179688 65.964844 C 280.003906 66.089844 279.785156 66.179688 279.523438 66.230469 C 279.359375 66.261719 279.085938 66.277344 278.710938 66.277344 L 275.492188 66.277344 L 275.492188 65.402344 L 278.367188 65.402344 C 278.828125 65.402344 279.140625 65.382812 279.304688 65.339844 C 279.535156 65.289062 279.71875 65.175781 279.851562 64.996094 C 279.976562 64.820312 280.039062 64.597656 280.039062 64.324219 C 280.039062 64.066406 279.972656 63.820312 279.835938 63.589844 C 279.703125 63.363281 279.519531 63.199219 279.289062 63.105469 C 279.050781 63.003906 278.710938 62.949219 278.273438 62.949219 L 275.492188 62.949219 L 275.492188 62.074219 L 280.679688 62.074219 Z M 280.679688 62.855469 "/>
<path style=" stroke:none;fill-rule:nonzero;fill:rgb(0%,0%,0%);fill-opacity:1;" d="M 280.679688 60.941406 L 275.492188 60.941406 L 275.492188 60.160156 L 276.273438 60.160156 C 275.910156 59.953125 275.671875 59.765625 275.554688 59.597656 C 275.441406 59.433594 275.382812 59.246094 275.382812 59.035156 C 275.382812 58.734375 275.476562 58.433594 275.664062 58.128906 L 276.476562 58.425781 C 276.351562 58.644531 276.289062 58.863281 276.289062 59.082031 C 276.289062 59.269531 276.347656 59.441406 276.460938 59.597656 C 276.578125 59.753906 276.738281 59.863281 276.945312 59.925781 C 277.257812 60.019531 277.597656 60.066406 277.960938 60.066406 L 280.679688 60.066406 Z M 280.679688 60.941406 "/>
<path style=" stroke:none;fill-rule:nonzero;fill:rgb(0%,0%,0%);fill-opacity:1;" d="M 279.007812 54.199219 L 279.117188 53.277344 C 279.648438 53.425781 280.066406 53.695312 280.367188 54.089844 C 280.660156 54.476562 280.804688 54.964844 280.804688 55.558594 C 280.804688 56.320312 280.570312 56.925781 280.101562 57.371094 C 279.632812 57.820312 278.976562 58.042969 278.132812 58.042969 C 277.257812 58.042969 276.582031 57.820312 276.101562 57.371094 C 275.625 56.914062 275.382812 56.332031 275.382812 55.621094 C 275.382812 54.925781 275.617188 54.355469 276.085938 53.917969 C 276.554688 53.480469 277.21875 53.261719 278.070312 53.261719 C 278.125 53.261719 278.203125 53.261719 278.304688 53.261719 L 278.304688 57.121094 C 278.878906 57.089844 279.316406 56.933594 279.617188 56.652344 C 279.921875 56.363281 280.070312 55.996094 280.070312 55.558594 C 280.070312 55.238281 279.988281 54.960938 279.820312 54.730469 C 279.65625 54.503906 279.382812 54.324219 279.007812 54.199219 Z M 277.585938 57.074219 L 277.585938 54.183594 C 277.148438 54.226562 276.820312 54.335938 276.601562 54.511719 C 276.269531 54.792969 276.101562 55.160156 276.101562 55.605469 C 276.101562 56.011719 276.238281 56.351562 276.507812 56.621094 C 276.78125 56.894531 277.140625 57.042969 277.585938 57.074219 Z M 277.585938 57.074219 "/>
<path style=" stroke:none;fill-rule:nonzero;fill:rgb(0%,0%,0%);fill-opacity:1;" d="M 280.679688 49.050781 L 280.023438 49.050781 C 280.546875 49.386719 280.804688 49.871094 280.804688 50.503906 C 280.804688 50.921875 280.6875 51.308594 280.460938 51.660156 C 280.234375 52.003906 279.914062 52.269531 279.507812 52.457031 C 279.09375 52.644531 278.617188 52.738281 278.085938 52.738281 C 277.578125 52.738281 277.113281 52.65625 276.695312 52.488281 C 276.269531 52.3125 275.945312 52.050781 275.726562 51.707031 C 275.5 51.363281 275.382812 50.980469 275.382812 50.550781 C 275.382812 50.238281 275.453125 49.964844 275.585938 49.722656 C 275.710938 49.472656 275.878906 49.269531 276.085938 49.113281 L 273.523438 49.113281 L 273.523438 48.238281 L 280.679688 48.238281 Z M 278.085938 51.832031 C 278.753906 51.832031 279.253906 51.699219 279.585938 51.425781 C 279.910156 51.144531 280.070312 50.8125 280.070312 50.425781 C 280.070312 50.042969 279.914062 49.71875 279.601562 49.457031 C 279.289062 49.1875 278.8125 49.050781 278.164062 49.050781 C 277.457031 49.050781 276.9375 49.1875 276.601562 49.457031 C 276.269531 49.730469 276.101562 50.0625 276.101562 50.457031 C 276.101562 50.855469 276.265625 51.183594 276.585938 51.441406 C 276.898438 51.703125 277.398438 51.832031 278.085938 51.832031 Z M 278.085938 51.832031 "/>
<path style=" stroke:none;fill-rule:nonzero;fill:rgb(0%,0%,0%);fill-opacity:1;" d="M 280.679688 42.675781 L 274.367188 42.675781 L 274.367188 45.035156 L 273.523438 45.035156 L 273.523438 39.363281 L 274.367188 39.363281 L 274.367188 41.722656 L 280.679688 41.722656 Z M 280.679688 42.675781 "/>
<path style=" stroke:none;fill-rule:nonzero;fill:rgb(0%,0%,0%);fill-opacity:1;" d="M 278.085938 40.160156 C 277.128906 40.160156 276.414062 39.890625 275.945312 39.347656 C 275.570312 38.910156 275.382812 38.371094 275.382812 37.722656 C 275.382812 37.015625 275.617188 36.4375 276.085938 35.988281 C 276.546875 35.53125 277.1875 35.300781 278.007812 35.300781 C 278.675781 35.300781 279.203125 35.402344 279.585938 35.597656 C 279.972656 35.796875 280.273438 36.089844 280.492188 36.472656 C 280.699219 36.859375 280.804688 37.277344 280.804688 37.722656 C 280.804688 38.453125 280.570312 39.042969 280.101562 39.488281 C 279.632812 39.9375 278.960938 40.160156 278.085938 40.160156 Z M 278.085938 39.253906 C 278.753906 39.253906 279.253906 39.109375 279.585938 38.816406 C 279.910156 38.527344 280.070312 38.160156 280.070312 37.722656 C 280.070312 37.285156 279.90625 36.925781 279.570312 36.644531 C 279.238281 36.355469 278.734375 36.207031 278.054688 36.207031 C 277.421875 36.207031 276.9375 36.355469 276.601562 36.644531 C 276.269531 36.9375 276.101562 37.296875 276.101562 37.722656 C 276.101562 38.160156 276.269531 38.527344 276.601562 38.816406 C 276.925781 39.109375 277.421875 39.253906 278.085938 39.253906 Z M 278.085938 39.253906 "/>
<path style=" stroke:none;fill-rule:nonzero;fill:rgb(0%,0%,0%);fill-opacity:1;" d="M 280.679688 34.503906 L 275.492188 34.503906 L 275.492188 33.707031 L 276.226562 33.707031 C 275.664062 33.332031 275.382812 32.785156 275.382812 32.066406 C 275.382812 31.753906 275.441406 31.46875 275.554688 31.207031 C 275.660156 30.9375 275.804688 30.738281 275.992188 30.613281 C 276.171875 30.480469 276.382812 30.386719 276.632812 30.332031 C 276.800781 30.300781 277.085938 30.285156 277.492188 30.285156 L 280.679688 30.285156 L 280.679688 31.160156 L 277.523438 31.160156 C 277.171875 31.160156 276.90625 31.199219 276.726562 31.269531 C 276.550781 31.332031 276.410156 31.453125 276.304688 31.628906 C 276.191406 31.808594 276.132812 32.011719 276.132812 32.238281 C 276.132812 32.613281 276.253906 32.941406 276.492188 33.222656 C 276.734375 33.496094 277.1875 33.628906 277.851562 33.628906 L 280.679688 33.628906 Z M 280.679688 34.503906 "/>
<path style=" stroke:none;fill-rule:nonzero;fill:rgb(0%,0%,0%);fill-opacity:1;" d="M 279.007812 25.632812 L 279.117188 24.710938 C 279.648438 24.859375 280.066406 25.128906 280.367188 25.523438 C 280.660156 25.910156 280.804688 26.398438 280.804688 26.992188 C 280.804688 27.753906 280.570312 28.359375 280.101562 28.804688 C 279.632812 29.253906 278.976562 29.476562 278.132812 29.476562 C 277.257812 29.476562 276.582031 29.253906 276.101562 28.804688 C 275.625 28.347656 275.382812 27.765625 275.382812 27.054688 C 275.382812 26.359375 275.617188 25.789062 276.085938 25.351562 C 276.554688 24.914062 277.21875 24.695312 278.070312 24.695312 C 278.125 24.695312 278.203125 24.695312 278.304688 24.695312 L 278.304688 28.554688 C 278.878906 28.523438 279.316406 28.367188 279.617188 28.085938 C 279.921875 27.796875 280.070312 27.429688 280.070312 26.992188 C 280.070312 26.671875 279.988281 26.394531 279.820312 26.164062 C 279.65625 25.9375 279.382812 25.757812 279.007812 25.632812 Z M 277.585938 28.507812 L 277.585938 25.617188 C 277.148438 25.660156 276.820312 25.769531 276.601562 25.945312 C 276.269531 26.226562 276.101562 26.59375 276.101562 27.039062 C 276.101562 27.445312 276.238281 27.785156 276.507812 28.054688 C 276.78125 28.328125 277.140625 28.476562 277.585938 28.507812 Z M 277.585938 28.507812 "/>
<g clip-path="url(#clip6)" clip-rule="nonzero">
<path style=" stroke:none;fill-rule:nonzero;fill:rgb(0%,0%,0%);fill-opacity:1;" d="M 282.664062 21.191406 L 273.523438 21.191406 L 273.523438 19.238281 L 274.242188 19.238281 L 274.242188 20.300781 L 281.945312 20.300781 L 281.945312 19.238281 L 282.664062 19.238281 Z M 282.664062 21.191406 "/>
</g>
<path style=" stroke:none;fill-rule:nonzero;fill:rgb(0%,0%,0%);fill-opacity:1;" d="M 280.679688 15.183594 L 280.023438 15.183594 C 280.546875 15.519531 280.804688 16.003906 280.804688 16.636719 C 280.804688 17.054688 280.6875 17.441406 280.460938 17.792969 C 280.234375 18.136719 279.914062 18.402344 279.507812 18.589844 C 279.09375 18.777344 278.617188 18.871094 278.085938 18.871094 C 277.578125 18.871094 277.113281 18.789062 276.695312 18.621094 C 276.269531 18.445312 275.945312 18.183594 275.726562 17.839844 C 275.5 17.496094 275.382812 17.113281 275.382812 16.683594 C 275.382812 16.371094 275.453125 16.097656 275.585938 15.855469 C 275.710938 15.605469 275.878906 15.402344 276.085938 15.246094 L 273.523438 15.246094 L 273.523438 14.371094 L 280.679688 14.371094 Z M 278.085938 17.964844 C 278.753906 17.964844 279.253906 17.832031 279.585938 17.558594 C 279.910156 17.277344 280.070312 16.945312 280.070312 16.558594 C 280.070312 16.175781 279.914062 15.851562 279.601562 15.589844 C 279.289062 15.320312 278.8125 15.183594 278.164062 15.183594 C 277.457031 15.183594 276.9375 15.320312 276.601562 15.589844 C 276.269531 15.863281 276.101562 16.195312 276.101562 16.589844 C 276.101562 16.988281 276.265625 17.316406 276.585938 17.574219 C 276.898438 17.835938 277.398438 17.964844 278.085938 17.964844 Z M 278.085938 17.964844 "/>
<path style=" stroke:none;fill-rule:nonzero;fill:rgb(0%,0%,0%);fill-opacity:1;" d="M 280.679688 13.15625 L 273.523438 13.15625 L 273.523438 10.46875 C 273.523438 9.929688 273.597656 9.492188 273.742188 9.15625 C 273.890625 8.824219 274.113281 8.5625 274.414062 8.375 C 274.707031 8.1875 275.019531 8.09375 275.351562 8.09375 C 275.65625 8.09375 275.941406 8.179688 276.210938 8.34375 C 276.484375 8.511719 276.703125 8.761719 276.867188 9.09375 C 276.992188 8.667969 277.210938 8.339844 277.523438 8.109375 C 277.828125 7.871094 278.1875 7.75 278.601562 7.75 C 278.9375 7.75 279.25 7.824219 279.539062 7.96875 C 279.832031 8.105469 280.054688 8.277344 280.210938 8.484375 C 280.367188 8.695312 280.488281 8.960938 280.570312 9.28125 C 280.644531 9.59375 280.679688 9.976562 280.679688 10.421875 Z M 276.523438 12.203125 L 276.523438 10.65625 C 276.523438 10.242188 276.5 9.945312 276.445312 9.765625 C 276.375 9.515625 276.253906 9.335938 276.085938 9.21875 C 275.921875 9.09375 275.710938 9.03125 275.460938 9.03125 C 275.222656 9.03125 275.015625 9.089844 274.835938 9.203125 C 274.660156 9.320312 274.539062 9.484375 274.476562 9.703125 C 274.40625 9.914062 274.367188 10.273438 274.367188 10.78125 L 274.367188 12.203125 Z M 279.835938 12.203125 L 279.835938 10.421875 C 279.835938 10.121094 279.828125 9.90625 279.804688 9.78125 C 279.765625 9.5625 279.695312 9.382812 279.601562 9.234375 C 279.507812 9.089844 279.378906 8.96875 279.210938 8.875 C 279.035156 8.78125 278.832031 8.734375 278.601562 8.734375 C 278.34375 8.734375 278.113281 8.804688 277.914062 8.9375 C 277.71875 9.074219 277.578125 9.265625 277.492188 9.515625 C 277.410156 9.757812 277.367188 10.105469 277.367188 10.5625 L 277.367188 12.203125 Z M 279.835938 12.203125 "/>
<g clip-path="url(#clip7)" clip-rule="nonzero">
<path style=" stroke:none;fill-rule:nonzero;fill:rgb(0%,0%,0%);fill-opacity:1;" d="M 282.664062 5.382812 L 282.664062 7.320312 L 281.945312 7.320312 L 281.945312 6.257812 L 274.242188 6.257812 L 274.242188 7.320312 L 273.523438 7.320312 L 273.523438 5.382812 Z M 282.664062 5.382812 "/>
</g>
<path style=" stroke:none;fill-rule:nonzero;fill:rgb(0%,0%,0%);fill-opacity:1;" d="M 123.257812 117.03125 L 122.382812 117.03125 L 122.382812 111.4375 C 122.171875 111.636719 121.898438 111.839844 121.554688 112.046875 C 121.210938 112.246094 120.902344 112.390625 120.632812 112.484375 L 120.632812 111.640625 C 121.121094 111.414062 121.546875 111.136719 121.914062 110.8125 C 122.289062 110.480469 122.546875 110.15625 122.695312 109.84375 L 123.257812 109.84375 Z M 123.257812 117.03125 "/>
<path style=" stroke:none;fill-rule:nonzero;fill:rgb(0%,0%,0%);fill-opacity:1;" d="M 191.121094 117.03125 L 190.246094 117.03125 L 190.246094 111.4375 C 190.035156 111.636719 189.761719 111.839844 189.417969 112.046875 C 189.074219 112.246094 188.765625 112.390625 188.496094 112.484375 L 188.496094 111.640625 C 188.984375 111.414062 189.410156 111.136719 189.777344 110.8125 C 190.152344 110.480469 190.410156 110.15625 190.558594 109.84375 L 191.121094 109.84375 Z M 191.121094 117.03125 "/>
<path style=" stroke:none;fill-rule:nonzero;fill:rgb(0%,0%,0%);fill-opacity:1;" d="M 193.144531 113.5 C 193.144531 112.65625 193.226562 111.980469 193.394531 111.46875 C 193.570312 110.949219 193.832031 110.546875 194.175781 110.265625 C 194.519531 109.984375 194.949219 109.84375 195.472656 109.84375 C 195.855469 109.84375 196.191406 109.921875 196.472656 110.078125 C 196.761719 110.234375 197.003906 110.460938 197.191406 110.75 C 197.386719 111.042969 197.539062 111.398438 197.644531 111.8125 C 197.746094 112.230469 197.800781 112.792969 197.800781 113.5 C 197.800781 114.34375 197.710938 115.027344 197.535156 115.546875 C 197.367188 116.058594 197.113281 116.453125 196.769531 116.734375 C 196.425781 117.015625 195.992188 117.15625 195.472656 117.15625 C 194.785156 117.15625 194.242188 116.90625 193.847656 116.40625 C 193.378906 115.8125 193.144531 114.84375 193.144531 113.5 Z M 194.035156 113.5 C 194.035156 114.679688 194.167969 115.464844 194.441406 115.859375 C 194.722656 116.246094 195.066406 116.4375 195.472656 116.4375 C 195.878906 116.4375 196.214844 116.246094 196.488281 115.859375 C 196.769531 115.464844 196.910156 114.679688 196.910156 113.5 C 196.910156 112.324219 196.769531 111.542969 196.488281 111.15625 C 196.214844 110.773438 195.871094 110.578125 195.457031 110.578125 C 195.058594 110.578125 194.738281 110.746094 194.488281 111.078125 C 194.183594 111.515625 194.035156 112.324219 194.035156 113.5 Z M 194.035156 113.5 "/>
<path style=" stroke:none;fill-rule:nonzero;fill:rgb(0%,0%,0%);fill-opacity:1;" d="M 46.785156 113.5 C 46.785156 112.65625 46.867188 111.980469 47.035156 111.46875 C 47.210938 110.949219 47.472656 110.546875 47.816406 110.265625 C 48.160156 109.984375 48.589844 109.84375 49.113281 109.84375 C 49.496094 109.84375 49.832031 109.921875 50.113281 110.078125 C 50.402344 110.234375 50.644531 110.460938 50.832031 110.75 C 51.027344 111.042969 51.179688 111.398438 51.285156 111.8125 C 51.386719 112.230469 51.441406 112.792969 51.441406 113.5 C 51.441406 114.34375 51.351562 115.027344 51.175781 115.546875 C 51.007812 116.058594 50.753906 116.453125 50.410156 116.734375 C 50.066406 117.015625 49.632812 117.15625 49.113281 117.15625 C 48.425781 117.15625 47.882812 116.90625 47.488281 116.40625 C 47.019531 115.8125 46.785156 114.84375 46.785156 113.5 Z M 47.675781 113.5 C 47.675781 114.679688 47.808594 115.464844 48.082031 115.859375 C 48.363281 116.246094 48.707031 116.4375 49.113281 116.4375 C 49.519531 116.4375 49.855469 116.246094 50.128906 115.859375 C 50.410156 115.464844 50.550781 114.679688 50.550781 113.5 C 50.550781 112.324219 50.410156 111.542969 50.128906 111.15625 C 49.855469 110.773438 49.511719 110.578125 49.097656 110.578125 C 48.699219 110.578125 48.378906 110.746094 48.128906 111.078125 C 47.824219 111.515625 47.675781 112.324219 47.675781 113.5 Z M 47.675781 113.5 "/>
<path style=" stroke:none;fill-rule:nonzero;fill:rgb(0%,0%,0%);fill-opacity:1;" d="M 52.589844 116.03125 L 53.589844 116.03125 L 53.589844 117.03125 L 52.589844 117.03125 Z M 52.589844 116.03125 "/>
<path style=" stroke:none;fill-rule:nonzero;fill:rgb(0%,0%,0%);fill-opacity:1;" d="M 58.050781 117.03125 L 57.175781 117.03125 L 57.175781 111.4375 C 56.964844 111.636719 56.691406 111.839844 56.347656 112.046875 C 56.003906 112.246094 55.695312 112.390625 55.425781 112.484375 L 55.425781 111.640625 C 55.914062 111.414062 56.339844 111.136719 56.707031 110.8125 C 57.082031 110.480469 57.339844 110.15625 57.488281 109.84375 L 58.050781 109.84375 Z M 58.050781 117.03125 "/>
<path style=" stroke:none;fill-rule:nonzero;fill:rgb(0%,0%,0%);fill-opacity:1;" d="M 88.320312 113.5 C 88.320312 112.65625 88.402344 111.980469 88.570312 111.46875 C 88.746094 110.949219 89.007812 110.546875 89.351562 110.265625 C 89.695312 109.984375 90.125 109.84375 90.648438 109.84375 C 91.03125 109.84375 91.367188 109.921875 91.648438 110.078125 C 91.9375 110.234375 92.179688 110.460938 92.367188 110.75 C 92.5625 111.042969 92.714844 111.398438 92.820312 111.8125 C 92.921875 112.230469 92.976562 112.792969 92.976562 113.5 C 92.976562 114.34375 92.886719 115.027344 92.710938 115.546875 C 92.542969 116.058594 92.289062 116.453125 91.945312 116.734375 C 91.601562 117.015625 91.167969 117.15625 90.648438 117.15625 C 89.960938 117.15625 89.417969 116.90625 89.023438 116.40625 C 88.554688 115.8125 88.320312 114.84375 88.320312 113.5 Z M 89.210938 113.5 C 89.210938 114.679688 89.34375 115.464844 89.617188 115.859375 C 89.898438 116.246094 90.242188 116.4375 90.648438 116.4375 C 91.054688 116.4375 91.390625 116.246094 91.664062 115.859375 C 91.945312 115.464844 92.085938 114.679688 92.085938 113.5 C 92.085938 112.324219 91.945312 111.542969 91.664062 111.15625 C 91.390625 110.773438 91.046875 110.578125 90.632812 110.578125 C 90.234375 110.578125 89.914062 110.746094 89.664062 111.078125 C 89.359375 111.515625 89.210938 112.324219 89.210938 113.5 Z M 89.210938 113.5 "/>
<path style=" stroke:none;fill-rule:nonzero;fill:rgb(0%,0%,0%);fill-opacity:1;" d="M 94.125 116.03125 L 95.125 116.03125 L 95.125 117.03125 L 94.125 117.03125 Z M 94.125 116.03125 "/>
<path style=" stroke:none;fill-rule:nonzero;fill:rgb(0%,0%,0%);fill-opacity:1;" d="M 99.105469 117.03125 L 99.105469 115.3125 L 95.996094 115.3125 L 95.996094 114.515625 L 99.261719 109.875 L 99.980469 109.875 L 99.980469 114.515625 L 100.949219 114.515625 L 100.949219 115.3125 L 99.980469 115.3125 L 99.980469 117.03125 Z M 99.105469 114.515625 L 99.105469 111.28125 L 96.855469 114.515625 Z M 99.105469 114.515625 "/>
<path style=" stroke:none;fill-rule:nonzero;fill:rgb(0%,0%,0%);fill-opacity:1;" d="M 165.6875 117.148438 L 165.6875 115.429688 L 162.578125 115.429688 L 162.578125 114.632812 L 165.84375 109.992188 L 166.5625 109.992188 L 166.5625 114.632812 L 167.53125 114.632812 L 167.53125 115.429688 L 166.5625 115.429688 L 166.5625 117.148438 Z M 165.6875 114.632812 L 165.6875 111.398438 L 163.4375 114.632812 Z M 165.6875 114.632812 "/>
<path style=" stroke:none;fill-rule:nonzero;fill:rgb(0%,0%,0%);fill-opacity:1;" d="M 233.164062 117.03125 L 233.164062 115.3125 L 230.054688 115.3125 L 230.054688 114.515625 L 233.320312 109.875 L 234.039062 109.875 L 234.039062 114.515625 L 235.007812 114.515625 L 235.007812 115.3125 L 234.039062 115.3125 L 234.039062 117.03125 Z M 233.164062 114.515625 L 233.164062 111.28125 L 230.914062 114.515625 Z M 233.164062 114.515625 "/>
<path style=" stroke:none;fill-rule:nonzero;fill:rgb(0%,0%,0%);fill-opacity:1;" d="M 235.671875 113.5 C 235.671875 112.65625 235.753906 111.980469 235.921875 111.46875 C 236.097656 110.949219 236.359375 110.546875 236.703125 110.265625 C 237.046875 109.984375 237.476562 109.84375 238 109.84375 C 238.382812 109.84375 238.71875 109.921875 239 110.078125 C 239.289062 110.234375 239.53125 110.460938 239.71875 110.75 C 239.914062 111.042969 240.066406 111.398438 240.171875 111.8125 C 240.273438 112.230469 240.328125 112.792969 240.328125 113.5 C 240.328125 114.34375 240.238281 115.027344 240.0625 115.546875 C 239.894531 116.058594 239.640625 116.453125 239.296875 116.734375 C 238.953125 117.015625 238.519531 117.15625 238 117.15625 C 237.3125 117.15625 236.769531 116.90625 236.375 116.40625 C 235.90625 115.8125 235.671875 114.84375 235.671875 113.5 Z M 236.5625 113.5 C 236.5625 114.679688 236.695312 115.464844 236.96875 115.859375 C 237.25 116.246094 237.59375 116.4375 238 116.4375 C 238.40625 116.4375 238.742188 116.246094 239.015625 115.859375 C 239.296875 115.464844 239.4375 114.679688 239.4375 113.5 C 239.4375 112.324219 239.296875 111.542969 239.015625 111.15625 C 238.742188 110.773438 238.398438 110.578125 237.984375 110.578125 C 237.585938 110.578125 237.265625 110.746094 237.015625 111.078125 C 236.710938 111.515625 236.5625 112.324219 236.5625 113.5 Z M 236.5625 113.5 "/>
<path style="fill:none;stroke-width:1.2;stroke-linecap:square;stroke-linejoin:round;stroke:rgb(0%,0%,0%);stroke-opacity:1;stroke-miterlimit:10;" d="M 31.800781 45.902344 L 35.402344 45.902344 "/>
<path style="fill:none;stroke-width:0.8;stroke-linecap:butt;stroke-linejoin:round;stroke:rgb(0%,0%,0%);stroke-opacity:1;stroke-miterlimit:10;" d="M 30.726562 52.234375 L 61.019531 56.882812 L 80.132812 56.601562 L 94.214844 64.097656 L 113.328125 68.214844 L 124.507812 78.550781 L 143.621094 89.621094 L 151.554688 88.699219 L 157.707031 87.015625 L 162.734375 78.117188 L 187.996094 46.371094 L 207.109375 39.371094 L 221.195312 15.25 L 251.488281 11.089844 "/>
<path style="fill:none;stroke-width:1.2;stroke-linecap:square;stroke-linejoin:round;stroke:rgb(0%,0%,0%);stroke-opacity:1;stroke-miterlimit:10;" d="M 31.800781 69.175781 L 35.402344 69.175781 "/>
<path style="fill:none;stroke-width:1.2;stroke-linecap:square;stroke-linejoin:round;stroke:rgb(0%,0%,0%);stroke-opacity:1;stroke-miterlimit:10;" d="M 31.800781 22.632812 L 35.402344 22.632812 "/>
<path style="fill:none;stroke-width:1.2;stroke-linecap:square;stroke-linejoin:round;stroke:rgb(0%,0%,0%);stroke-opacity:1;stroke-miterlimit:10;" d="M 31.800781 92.445312 L 35.402344 92.445312 "/>
<path style=" stroke:none;fill-rule:nonzero;fill:rgb(0%,0%,0%);fill-opacity:1;" d="M 23.4375 43.894531 L 22.578125 43.957031 C 22.492188 43.613281 22.378906 43.363281 22.234375 43.207031 C 21.992188 42.957031 21.703125 42.832031 21.359375 42.832031 C 21.078125 42.832031 20.832031 42.910156 20.625 43.066406 C 20.34375 43.277344 20.125 43.574219 19.96875 43.957031 C 19.8125 44.34375 19.726562 44.894531 19.71875 45.613281 C 19.925781 45.292969 20.179688 45.050781 20.484375 44.894531 C 20.796875 44.738281 21.117188 44.660156 21.453125 44.660156 C 22.046875 44.660156 22.546875 44.878906 22.953125 45.316406 C 23.367188 45.746094 23.578125 46.296875 23.578125 46.972656 C 23.578125 47.421875 23.476562 47.839844 23.28125 48.222656 C 23.082031 48.609375 22.8125 48.90625 22.46875 49.113281 C 22.132812 49.320312 21.753906 49.425781 21.328125 49.425781 C 20.597656 49.425781 20 49.15625 19.53125 48.613281 C 19.070312 48.074219 18.84375 47.1875 18.84375 45.957031 C 18.84375 44.574219 19.097656 43.5625 19.609375 42.925781 C 20.054688 42.386719 20.65625 42.113281 21.40625 42.113281 C 21.976562 42.113281 22.441406 42.277344 22.796875 42.597656 C 23.160156 42.910156 23.375 43.34375 23.4375 43.894531 Z M 19.859375 46.988281 C 19.859375 47.292969 19.921875 47.582031 20.046875 47.863281 C 20.171875 48.136719 20.347656 48.34375 20.578125 48.488281 C 20.816406 48.636719 21.0625 48.707031 21.3125 48.707031 C 21.6875 48.707031 22.003906 48.558594 22.265625 48.253906 C 22.535156 47.953125 22.671875 47.546875 22.671875 47.035156 C 22.671875 46.535156 22.535156 46.144531 22.265625 45.863281 C 22.003906 45.574219 21.675781 45.425781 21.28125 45.425781 C 20.882812 45.425781 20.546875 45.574219 20.265625 45.863281 C 19.992188 46.144531 19.859375 46.519531 19.859375 46.988281 Z M 19.859375 46.988281 "/>
<path style=" stroke:none;fill-rule:nonzero;fill:rgb(0%,0%,0%);fill-opacity:1;" d="M 24.214844 45.769531 C 24.214844 44.925781 24.296875 44.25 24.464844 43.738281 C 24.640625 43.21875 24.902344 42.816406 25.246094 42.535156 C 25.589844 42.253906 26.019531 42.113281 26.542969 42.113281 C 26.925781 42.113281 27.261719 42.191406 27.542969 42.347656 C 27.832031 42.503906 28.074219 42.730469 28.261719 43.019531 C 28.457031 43.3125 28.609375 43.667969 28.714844 44.082031 C 28.816406 44.5 28.871094 45.0625 28.871094 45.769531 C 28.871094 46.613281 28.78125 47.296875 28.605469 47.816406 C 28.4375 48.328125 28.183594 48.722656 27.839844 49.003906 C 27.496094 49.285156 27.0625 49.425781 26.542969 49.425781 C 25.855469 49.425781 25.3125 49.175781 24.917969 48.675781 C 24.449219 48.082031 24.214844 47.113281 24.214844 45.769531 Z M 25.105469 45.769531 C 25.105469 46.949219 25.238281 47.734375 25.511719 48.128906 C 25.792969 48.515625 26.136719 48.707031 26.542969 48.707031 C 26.949219 48.707031 27.285156 48.515625 27.558594 48.128906 C 27.839844 47.734375 27.980469 46.949219 27.980469 45.769531 C 27.980469 44.59375 27.839844 43.8125 27.558594 43.425781 C 27.285156 43.042969 26.941406 42.847656 26.527344 42.847656 C 26.128906 42.847656 25.808594 43.015625 25.558594 43.347656 C 25.253906 43.785156 25.105469 44.59375 25.105469 45.769531 Z M 25.105469 45.769531 "/>
<path style=" stroke:none;fill-rule:nonzero;fill:rgb(0%,0%,0%);fill-opacity:1;" d="M 18.816406 70.5625 L 19.738281 70.484375 C 19.800781 70.933594 19.957031 71.273438 20.207031 71.5 C 20.457031 71.730469 20.757812 71.84375 21.113281 71.84375 C 21.527344 71.84375 21.882812 71.683594 22.175781 71.359375 C 22.476562 71.039062 22.628906 70.617188 22.628906 70.09375 C 22.628906 69.59375 22.488281 69.199219 22.207031 68.90625 C 21.925781 68.617188 21.554688 68.46875 21.097656 68.46875 C 20.816406 68.46875 20.558594 68.539062 20.332031 68.671875 C 20.101562 68.796875 19.917969 68.960938 19.785156 69.15625 L 18.972656 69.046875 L 19.660156 65.375 L 23.222656 65.375 L 23.222656 66.21875 L 20.363281 66.21875 L 19.972656 68.140625 C 20.410156 67.839844 20.863281 67.6875 21.332031 67.6875 C 21.957031 67.6875 22.480469 67.90625 22.910156 68.34375 C 23.335938 68.773438 23.550781 69.328125 23.550781 70.015625 C 23.550781 70.664062 23.363281 71.21875 22.988281 71.6875 C 22.527344 72.273438 21.902344 72.5625 21.113281 72.5625 C 20.457031 72.5625 19.917969 72.382812 19.503906 72.015625 C 19.097656 71.652344 18.867188 71.167969 18.816406 70.5625 Z M 18.816406 70.5625 "/>
<path style=" stroke:none;fill-rule:nonzero;fill:rgb(0%,0%,0%);fill-opacity:1;" d="M 24.136719 70.5625 L 25.058594 70.484375 C 25.121094 70.933594 25.277344 71.273438 25.527344 71.5 C 25.777344 71.730469 26.078125 71.84375 26.433594 71.84375 C 26.847656 71.84375 27.203125 71.683594 27.496094 71.359375 C 27.796875 71.039062 27.949219 70.617188 27.949219 70.09375 C 27.949219 69.59375 27.808594 69.199219 27.527344 68.90625 C 27.246094 68.617188 26.875 68.46875 26.417969 68.46875 C 26.136719 68.46875 25.878906 68.539062 25.652344 68.671875 C 25.421875 68.796875 25.238281 68.960938 25.105469 69.15625 L 24.292969 69.046875 L 24.980469 65.375 L 28.542969 65.375 L 28.542969 66.21875 L 25.683594 66.21875 L 25.292969 68.140625 C 25.730469 67.839844 26.183594 67.6875 26.652344 67.6875 C 27.277344 67.6875 27.800781 67.90625 28.230469 68.34375 C 28.65625 68.773438 28.871094 69.328125 28.871094 70.015625 C 28.871094 70.664062 28.683594 71.21875 28.308594 71.6875 C 27.847656 72.273438 27.222656 72.5625 26.433594 72.5625 C 25.777344 72.5625 25.238281 72.382812 24.824219 72.015625 C 24.417969 71.652344 24.1875 71.167969 24.136719 70.5625 Z M 24.136719 70.5625 "/>
<path style=" stroke:none;fill-rule:nonzero;fill:rgb(0%,0%,0%);fill-opacity:1;" d="M 18.890625 93.816406 L 19.8125 93.738281 C 19.875 94.1875 20.03125 94.527344 20.28125 94.753906 C 20.53125 94.984375 20.832031 95.097656 21.1875 95.097656 C 21.601562 95.097656 21.957031 94.9375 22.25 94.613281 C 22.550781 94.292969 22.703125 93.871094 22.703125 93.347656 C 22.703125 92.847656 22.5625 92.453125 22.28125 92.160156 C 22 91.871094 21.628906 91.722656 21.171875 91.722656 C 20.890625 91.722656 20.632812 91.792969 20.40625 91.925781 C 20.175781 92.050781 19.992188 92.214844 19.859375 92.410156 L 19.046875 92.300781 L 19.734375 88.628906 L 23.296875 88.628906 L 23.296875 89.472656 L 20.4375 89.472656 L 20.046875 91.394531 C 20.484375 91.09375 20.9375 90.941406 21.40625 90.941406 C 22.03125 90.941406 22.554688 91.160156 22.984375 91.597656 C 23.410156 92.027344 23.625 92.582031 23.625 93.269531 C 23.625 93.917969 23.4375 94.472656 23.0625 94.941406 C 22.601562 95.527344 21.976562 95.816406 21.1875 95.816406 C 20.53125 95.816406 19.992188 95.636719 19.578125 95.269531 C 19.171875 94.90625 18.941406 94.421875 18.890625 93.816406 Z M 18.890625 93.816406 "/>
<path style=" stroke:none;fill-rule:nonzero;fill:rgb(0%,0%,0%);fill-opacity:1;" d="M 24.214844 92.160156 C 24.214844 91.316406 24.296875 90.640625 24.464844 90.128906 C 24.640625 89.609375 24.902344 89.207031 25.246094 88.925781 C 25.589844 88.644531 26.019531 88.503906 26.542969 88.503906 C 26.925781 88.503906 27.261719 88.582031 27.542969 88.738281 C 27.832031 88.894531 28.074219 89.121094 28.261719 89.410156 C 28.457031 89.703125 28.609375 90.058594 28.714844 90.472656 C 28.816406 90.890625 28.871094 91.453125 28.871094 92.160156 C 28.871094 93.003906 28.78125 93.6875 28.605469 94.207031 C 28.4375 94.71875 28.183594 95.113281 27.839844 95.394531 C 27.496094 95.675781 27.0625 95.816406 26.542969 95.816406 C 25.855469 95.816406 25.3125 95.566406 24.917969 95.066406 C 24.449219 94.472656 24.214844 93.503906 24.214844 92.160156 Z M 25.105469 92.160156 C 25.105469 93.339844 25.238281 94.125 25.511719 94.519531 C 25.792969 94.90625 26.136719 95.097656 26.542969 95.097656 C 26.949219 95.097656 27.285156 94.90625 27.558594 94.519531 C 27.839844 94.125 27.980469 93.339844 27.980469 92.160156 C 27.980469 90.984375 27.839844 90.203125 27.558594 89.816406 C 27.285156 89.433594 26.941406 89.238281 26.527344 89.238281 C 26.128906 89.238281 25.808594 89.40625 25.558594 89.738281 C 25.253906 90.175781 25.105469 90.984375 25.105469 92.160156 Z M 25.105469 92.160156 "/>
<path style=" stroke:none;fill-rule:nonzero;fill:rgb(0%,0%,0%);fill-opacity:1;" d="M 256.464844 36.9375 L 259.167969 36.9375 L 259.167969 37.8125 L 256.464844 37.8125 Z M 256.464844 36.9375 "/>
<path style=" stroke:none;fill-rule:nonzero;fill:rgb(0%,0%,0%);fill-opacity:1;" d="M 259.765625 38.09375 L 260.6875 38.015625 C 260.75 38.464844 260.90625 38.804688 261.15625 39.03125 C 261.40625 39.261719 261.707031 39.375 262.0625 39.375 C 262.476562 39.375 262.832031 39.214844 263.125 38.890625 C 263.425781 38.570312 263.578125 38.148438 263.578125 37.625 C 263.578125 37.125 263.4375 36.730469 263.15625 36.4375 C 262.875 36.148438 262.503906 36 262.046875 36 C 261.765625 36 261.507812 36.070312 261.28125 36.203125 C 261.050781 36.328125 260.867188 36.492188 260.734375 36.6875 L 259.921875 36.578125 L 260.609375 32.90625 L 264.171875 32.90625 L 264.171875 33.75 L 261.3125 33.75 L 260.921875 35.671875 C 261.359375 35.371094 261.8125 35.21875 262.28125 35.21875 C 262.90625 35.21875 263.429688 35.4375 263.859375 35.875 C 264.285156 36.304688 264.5 36.859375 264.5 37.546875 C 264.5 38.195312 264.3125 38.75 263.9375 39.21875 C 263.476562 39.804688 262.851562 40.09375 262.0625 40.09375 C 261.40625 40.09375 260.867188 39.914062 260.453125 39.546875 C 260.046875 39.183594 259.816406 38.699219 259.765625 38.09375 Z M 259.765625 38.09375 "/>
<path style=" stroke:none;fill-rule:nonzero;fill:rgb(0%,0%,0%);fill-opacity:1;" d="M 265.085938 38.09375 L 266.007812 38.015625 C 266.070312 38.464844 266.226562 38.804688 266.476562 39.03125 C 266.726562 39.261719 267.027344 39.375 267.382812 39.375 C 267.796875 39.375 268.152344 39.214844 268.445312 38.890625 C 268.746094 38.570312 268.898438 38.148438 268.898438 37.625 C 268.898438 37.125 268.757812 36.730469 268.476562 36.4375 C 268.195312 36.148438 267.824219 36 267.367188 36 C 267.085938 36 266.828125 36.070312 266.601562 36.203125 C 266.371094 36.328125 266.1875 36.492188 266.054688 36.6875 L 265.242188 36.578125 L 265.929688 32.90625 L 269.492188 32.90625 L 269.492188 33.75 L 266.632812 33.75 L 266.242188 35.671875 C 266.679688 35.371094 267.132812 35.21875 267.601562 35.21875 C 268.226562 35.21875 268.75 35.4375 269.179688 35.875 C 269.605469 36.304688 269.820312 36.859375 269.820312 37.546875 C 269.820312 38.195312 269.632812 38.75 269.257812 39.21875 C 268.796875 39.804688 268.171875 40.09375 267.382812 40.09375 C 266.726562 40.09375 266.1875 39.914062 265.773438 39.546875 C 265.367188 39.183594 265.136719 38.699219 265.085938 38.09375 Z M 265.085938 38.09375 "/>
<path style=" stroke:none;fill-rule:nonzero;fill:rgb(0%,0%,0%);fill-opacity:1;" d="M 255.054688 13.917969 L 257.757812 13.917969 L 257.757812 14.792969 L 255.054688 14.792969 Z M 255.054688 13.917969 "/>
<path style=" stroke:none;fill-rule:nonzero;fill:rgb(0%,0%,0%);fill-opacity:1;" d="M 262.902344 11.542969 L 262.042969 11.605469 C 261.957031 11.261719 261.84375 11.011719 261.699219 10.855469 C 261.457031 10.605469 261.167969 10.480469 260.824219 10.480469 C 260.542969 10.480469 260.296875 10.558594 260.089844 10.714844 C 259.808594 10.925781 259.589844 11.222656 259.433594 11.605469 C 259.277344 11.992188 259.191406 12.542969 259.183594 13.261719 C 259.390625 12.941406 259.644531 12.699219 259.949219 12.542969 C 260.261719 12.386719 260.582031 12.308594 260.917969 12.308594 C 261.511719 12.308594 262.011719 12.527344 262.417969 12.964844 C 262.832031 13.394531 263.042969 13.945312 263.042969 14.621094 C 263.042969 15.070312 262.941406 15.488281 262.746094 15.871094 C 262.546875 16.257812 262.277344 16.554688 261.933594 16.761719 C 261.597656 16.96875 261.21875 17.074219 260.792969 17.074219 C 260.0625 17.074219 259.464844 16.804688 258.996094 16.261719 C 258.535156 15.722656 258.308594 14.835938 258.308594 13.605469 C 258.308594 12.222656 258.5625 11.210938 259.074219 10.574219 C 259.519531 10.035156 260.121094 9.761719 260.871094 9.761719 C 261.441406 9.761719 261.90625 9.925781 262.261719 10.246094 C 262.625 10.558594 262.839844 10.992188 262.902344 11.542969 Z M 259.324219 14.636719 C 259.324219 14.941406 259.386719 15.230469 259.511719 15.511719 C 259.636719 15.785156 259.8125 15.992188 260.042969 16.136719 C 260.28125 16.285156 260.527344 16.355469 260.777344 16.355469 C 261.152344 16.355469 261.46875 16.207031 261.730469 15.902344 C 262 15.601562 262.136719 15.195312 262.136719 14.683594 C 262.136719 14.183594 262 13.792969 261.730469 13.511719 C 261.46875 13.222656 261.140625 13.074219 260.746094 13.074219 C 260.347656 13.074219 260.011719 13.222656 259.730469 13.511719 C 259.457031 13.792969 259.324219 14.167969 259.324219 14.636719 Z M 259.324219 14.636719 "/>
<path style=" stroke:none;fill-rule:nonzero;fill:rgb(0%,0%,0%);fill-opacity:1;" d="M 263.679688 13.417969 C 263.679688 12.574219 263.761719 11.898438 263.929688 11.386719 C 264.105469 10.867188 264.367188 10.464844 264.710938 10.183594 C 265.054688 9.902344 265.484375 9.761719 266.007812 9.761719 C 266.390625 9.761719 266.726562 9.839844 267.007812 9.996094 C 267.296875 10.152344 267.539062 10.378906 267.726562 10.667969 C 267.921875 10.960938 268.074219 11.316406 268.179688 11.730469 C 268.28125 12.148438 268.335938 12.710938 268.335938 13.417969 C 268.335938 14.261719 268.246094 14.945312 268.070312 15.464844 C 267.902344 15.976562 267.648438 16.371094 267.304688 16.652344 C 266.960938 16.933594 266.527344 17.074219 266.007812 17.074219 C 265.320312 17.074219 264.777344 16.824219 264.382812 16.324219 C 263.914062 15.730469 263.679688 14.761719 263.679688 13.417969 Z M 264.570312 13.417969 C 264.570312 14.597656 264.703125 15.382812 264.976562 15.777344 C 265.257812 16.164062 265.601562 16.355469 266.007812 16.355469 C 266.414062 16.355469 266.75 16.164062 267.023438 15.777344 C 267.304688 15.382812 267.445312 14.597656 267.445312 13.417969 C 267.445312 12.242188 267.304688 11.460938 267.023438 11.074219 C 266.75 10.691406 266.40625 10.496094 265.992188 10.496094 C 265.59375 10.496094 265.273438 10.664062 265.023438 10.996094 C 264.71875 11.433594 264.570312 12.242188 264.570312 13.417969 Z M 264.570312 13.417969 "/>
<path style=" stroke:none;fill-rule:nonzero;fill:rgb(0%,0%,0%);fill-opacity:1;" d="M 255.679688 60.082031 L 258.382812 60.082031 L 258.382812 60.957031 L 255.679688 60.957031 Z M 255.679688 60.082031 "/>
<path style=" stroke:none;fill-rule:nonzero;fill:rgb(0%,0%,0%);fill-opacity:1;" d="M 258.984375 61.238281 L 259.90625 61.160156 C 259.96875 61.609375 260.125 61.949219 260.375 62.175781 C 260.625 62.40625 260.925781 62.519531 261.28125 62.519531 C 261.695312 62.519531 262.050781 62.359375 262.34375 62.035156 C 262.644531 61.714844 262.796875 61.292969 262.796875 60.769531 C 262.796875 60.269531 262.65625 59.875 262.375 59.582031 C 262.09375 59.292969 261.722656 59.144531 261.265625 59.144531 C 260.984375 59.144531 260.726562 59.214844 260.5 59.347656 C 260.269531 59.472656 260.085938 59.636719 259.953125 59.832031 L 259.140625 59.722656 L 259.828125 56.050781 L 263.390625 56.050781 L 263.390625 56.894531 L 260.53125 56.894531 L 260.140625 58.816406 C 260.578125 58.515625 261.03125 58.363281 261.5 58.363281 C 262.125 58.363281 262.648438 58.582031 263.078125 59.019531 C 263.503906 59.449219 263.71875 60.003906 263.71875 60.691406 C 263.71875 61.339844 263.53125 61.894531 263.15625 62.363281 C 262.695312 62.949219 262.070312 63.238281 261.28125 63.238281 C 260.625 63.238281 260.085938 63.058594 259.671875 62.691406 C 259.265625 62.328125 259.035156 61.84375 258.984375 61.238281 Z M 258.984375 61.238281 "/>
<path style=" stroke:none;fill-rule:nonzero;fill:rgb(0%,0%,0%);fill-opacity:1;" d="M 264.304688 59.582031 C 264.304688 58.738281 264.386719 58.0625 264.554688 57.550781 C 264.730469 57.03125 264.992188 56.628906 265.335938 56.347656 C 265.679688 56.066406 266.109375 55.925781 266.632812 55.925781 C 267.015625 55.925781 267.351562 56.003906 267.632812 56.160156 C 267.921875 56.316406 268.164062 56.542969 268.351562 56.832031 C 268.546875 57.125 268.699219 57.480469 268.804688 57.894531 C 268.90625 58.3125 268.960938 58.875 268.960938 59.582031 C 268.960938 60.425781 268.871094 61.109375 268.695312 61.628906 C 268.527344 62.140625 268.273438 62.535156 267.929688 62.816406 C 267.585938 63.097656 267.152344 63.238281 266.632812 63.238281 C 265.945312 63.238281 265.402344 62.988281 265.007812 62.488281 C 264.539062 61.894531 264.304688 60.925781 264.304688 59.582031 Z M 265.195312 59.582031 C 265.195312 60.761719 265.328125 61.546875 265.601562 61.941406 C 265.882812 62.328125 266.226562 62.519531 266.632812 62.519531 C 267.039062 62.519531 267.375 62.328125 267.648438 61.941406 C 267.929688 61.546875 268.070312 60.761719 268.070312 59.582031 C 268.070312 58.40625 267.929688 57.625 267.648438 57.238281 C 267.375 56.855469 267.03125 56.660156 266.617188 56.660156 C 266.21875 56.660156 265.898438 56.828125 265.648438 57.160156 C 265.34375 57.597656 265.195312 58.40625 265.195312 59.582031 Z M 265.195312 59.582031 "/>
</g>
</svg>
