<?xml version="1.0" encoding="UTF-8" standalone="no"?>
<svg
   width="282.580933pt"
   height="133.592285pt"
   viewBox="0 0 282.580933 133.592285"
   version="1.1"
   id="svg25803"
   sodipodi:docname="PSRR.svg"
   inkscape:version="1.2 (dc2aedaf03, 2022-05-15)"
   xmlns:inkscape="http://www.inkscape.org/namespaces/inkscape"
   xmlns:sodipodi="http://sodipodi.sourceforge.net/DTD/sodipodi-0.dtd"
   xmlns="http://www.w3.org/2000/svg"
   xmlns:svg="http://www.w3.org/2000/svg">
  <sodipodi:namedview
     id="namedview25805"
     pagecolor="#505050"
     bordercolor="#eeeeee"
     borderopacity="1"
     inkscape:showpageshadow="0"
     inkscape:pageopacity="0"
     inkscape:pagecheckerboard="0"
     inkscape:deskcolor="#505050"
     inkscape:document-units="pt"
     showgrid="false"
     inkscape:zoom="4.2279923"
     inkscape:cx="188.26903"
     inkscape:cy="89.285877"
     inkscape:window-width="3840"
     inkscape:window-height="2080"
     inkscape:window-x="-11"
     inkscape:window-y="-11"
     inkscape:window-maximized="1"
     inkscape:current-layer="svg25803" />
  <defs
     id="defs25486">
    <clipPath
       id="clip1">
      <path
         d="M 111 126 L 116 126 L 116 133.59375 L 111 133.59375 Z M 111 126 "
         id="path25465" />
    </clipPath>
    <clipPath
       id="clip2">
      <path
         d="M 141 126 L 146 126 L 146 133.59375 L 141 133.59375 Z M 141 126 "
         id="path25468" />
    </clipPath>
    <clipPath
       id="clip3">
      <path
         d="M 167 126 L 172 126 L 172 133.59375 L 167 133.59375 Z M 167 126 "
         id="path25471" />
    </clipPath>
    <clipPath
       id="clip4">
      <path
         d="M 174 124 L 177 124 L 177 133.59375 L 174 133.59375 Z M 174 124 "
         id="path25474" />
    </clipPath>
    <clipPath
       id="clip5">
      <path
         d="M 193 124 L 196 124 L 196 133.59375 L 193 133.59375 Z M 193 124 "
         id="path25477" />
    </clipPath>
    <clipPath
       id="clip6">
      <path
         d="M 273 19 L 282.582031 19 L 282.582031 22 L 273 22 Z M 273 19 "
         id="path25480" />
    </clipPath>
    <clipPath
       id="clip7">
      <path
         d="M 273 5 L 282.582031 5 L 282.582031 8 L 273 8 Z M 273 5 "
         id="path25483" />
    </clipPath>
  </defs>
  <path
     style="fill:none;stroke:#ffffff;stroke-width:1.125;stroke-linecap:square;stroke-linejoin:round;stroke-miterlimit:10;stroke-opacity:1"
     d="M 31.21875,105.76563 H 252.23828"
     id="path25556" />
  <path
     style="fill:none;stroke:#ffffff;stroke-width:1.125;stroke-linecap:square;stroke-linejoin:round;stroke-miterlimit:10;stroke-opacity:1"
     d="M 31.21875,0.5625 H 252.23828"
     id="path25558" />
  <path
     style="fill:none;stroke:#ffffff;stroke-width:1.125;stroke-linecap:square;stroke-linejoin:round;stroke-miterlimit:10;stroke-opacity:1"
     d="m 52.367188,105.23828 v -3.875"
     id="path25560" />
  <path
     style="fill:none;stroke:#ffffff;stroke-width:1.125;stroke-linecap:square;stroke-linejoin:round;stroke-miterlimit:10;stroke-opacity:1"
     d="m 122.61719,105.23828 v -3.875"
     id="path25562" />
  <path
     style="fill:none;stroke:#ffffff;stroke-width:1.125;stroke-linecap:square;stroke-linejoin:round;stroke-miterlimit:10;stroke-opacity:1"
     d="m 192.86719,105.23828 v -3.875"
     id="path25564" />
  <path
     style="fill:none;stroke:#ffffff;stroke-width:1.125;stroke-linecap:square;stroke-linejoin:round;stroke-miterlimit:10;stroke-opacity:1"
     d="m 52.367188,1.328125 v 3.875"
     id="path25566" />
  <path
     style="fill:none;stroke:#ffffff;stroke-width:1.125;stroke-linecap:square;stroke-linejoin:round;stroke-miterlimit:10;stroke-opacity:1"
     d="m 122.61719,1.328125 v 3.875"
     id="path25568" />
  <path
     style="fill:none;stroke:#ffffff;stroke-width:1.125;stroke-linecap:square;stroke-linejoin:round;stroke-miterlimit:10;stroke-opacity:1"
     d="m 192.86719,1.328125 v 3.875"
     id="path25570" />
  <path
     style="fill:none;stroke:#ffffff;stroke-width:1.125;stroke-linecap:square;stroke-linejoin:round;stroke-miterlimit:10;stroke-opacity:1"
     d="m 36.78125,105.23828 v -1.9375"
     id="path25572" />
  <path
     style="fill:none;stroke:#ffffff;stroke-width:1.125;stroke-linecap:square;stroke-linejoin:round;stroke-miterlimit:10;stroke-opacity:1"
     d="m 41.484375,105.23828 v -1.9375"
     id="path25574" />
  <path
     style="fill:none;stroke:#ffffff;stroke-width:1.125;stroke-linecap:square;stroke-linejoin:round;stroke-miterlimit:10;stroke-opacity:1"
     d="m 45.558594,105.23828 v -1.9375"
     id="path25576" />
  <path
     style="fill:none;stroke:#ffffff;stroke-width:1.125;stroke-linecap:square;stroke-linejoin:round;stroke-miterlimit:10;stroke-opacity:1"
     d="m 49.152344,105.23828 v -1.9375"
     id="path25578" />
  <path
     style="fill:none;stroke:#ffffff;stroke-width:1.125;stroke-linecap:square;stroke-linejoin:round;stroke-miterlimit:10;stroke-opacity:1"
     d="m 52.367188,105.23828 v -1.9375"
     id="path25580" />
  <path
     style="fill:none;stroke:#ffffff;stroke-width:1.125;stroke-linecap:square;stroke-linejoin:round;stroke-miterlimit:10;stroke-opacity:1"
     d="m 73.511719,105.23828 v -1.9375"
     id="path25582" />
  <path
     style="fill:none;stroke:#ffffff;stroke-width:1.125;stroke-linecap:square;stroke-linejoin:round;stroke-miterlimit:10;stroke-opacity:1"
     d="m 85.882812,105.23828 v -1.9375"
     id="path25584" />
  <path
     style="fill:none;stroke:#ffffff;stroke-width:1.125;stroke-linecap:square;stroke-linejoin:round;stroke-miterlimit:10;stroke-opacity:1"
     d="m 94.660156,105.23828 v -1.9375"
     id="path25586" />
  <path
     style="fill:none;stroke:#ffffff;stroke-width:1.125;stroke-linecap:square;stroke-linejoin:round;stroke-miterlimit:10;stroke-opacity:1"
     d="m 101.46875,105.23828 v -1.9375"
     id="path25588" />
  <path
     style="fill:none;stroke:#ffffff;stroke-width:1.125;stroke-linecap:square;stroke-linejoin:round;stroke-miterlimit:10;stroke-opacity:1"
     d="m 107.03125,105.23828 v -1.9375"
     id="path25590" />
  <path
     style="fill:none;stroke:#ffffff;stroke-width:1.125;stroke-linecap:square;stroke-linejoin:round;stroke-miterlimit:10;stroke-opacity:1"
     d="m 111.73438,105.23828 v -1.9375"
     id="path25592" />
  <path
     style="fill:none;stroke:#ffffff;stroke-width:1.125;stroke-linecap:square;stroke-linejoin:round;stroke-miterlimit:10;stroke-opacity:1"
     d="m 115.80859,105.23828 v -1.9375"
     id="path25594" />
  <path
     style="fill:none;stroke:#ffffff;stroke-width:1.125;stroke-linecap:square;stroke-linejoin:round;stroke-miterlimit:10;stroke-opacity:1"
     d="m 119.40234,105.23828 v -1.9375"
     id="path25596" />
  <path
     style="fill:none;stroke:#ffffff;stroke-width:1.125;stroke-linecap:square;stroke-linejoin:round;stroke-miterlimit:10;stroke-opacity:1"
     d="m 122.61719,105.23828 v -1.9375"
     id="path25598" />
  <path
     style="fill:none;stroke:#ffffff;stroke-width:1.125;stroke-linecap:square;stroke-linejoin:round;stroke-miterlimit:10;stroke-opacity:1"
     d="m 143.76562,105.23828 v -1.9375"
     id="path25600" />
  <path
     style="fill:none;stroke:#ffffff;stroke-width:1.125;stroke-linecap:square;stroke-linejoin:round;stroke-miterlimit:10;stroke-opacity:1"
     d="m 156.13672,105.23828 v -1.9375"
     id="path25602" />
  <path
     style="fill:none;stroke:#ffffff;stroke-width:1.125;stroke-linecap:square;stroke-linejoin:round;stroke-miterlimit:10;stroke-opacity:1"
     d="m 164.91016,105.23828 v -1.9375"
     id="path25604" />
  <path
     style="fill:none;stroke:#ffffff;stroke-width:1.125;stroke-linecap:square;stroke-linejoin:round;stroke-miterlimit:10;stroke-opacity:1"
     d="m 171.71875,105.23828 v -1.9375"
     id="path25606" />
  <path
     style="fill:none;stroke:#ffffff;stroke-width:1.125;stroke-linecap:square;stroke-linejoin:round;stroke-miterlimit:10;stroke-opacity:1"
     d="m 177.28125,105.23828 v -1.9375"
     id="path25608" />
  <path
     style="fill:none;stroke:#ffffff;stroke-width:1.125;stroke-linecap:square;stroke-linejoin:round;stroke-miterlimit:10;stroke-opacity:1"
     d="m 181.98437,105.23828 v -1.9375"
     id="path25610" />
  <path
     style="fill:none;stroke:#ffffff;stroke-width:1.125;stroke-linecap:square;stroke-linejoin:round;stroke-miterlimit:10;stroke-opacity:1"
     d="m 186.05859,105.23828 v -1.9375"
     id="path25612" />
  <path
     style="fill:none;stroke:#ffffff;stroke-width:1.125;stroke-linecap:square;stroke-linejoin:round;stroke-miterlimit:10;stroke-opacity:1"
     d="m 189.65234,105.23828 v -1.9375"
     id="path25614" />
  <path
     style="fill:none;stroke:#ffffff;stroke-width:1.125;stroke-linecap:square;stroke-linejoin:round;stroke-miterlimit:10;stroke-opacity:1"
     d="m 192.86719,105.23828 v -1.9375"
     id="path25616" />
  <path
     style="fill:none;stroke:#ffffff;stroke-width:1.125;stroke-linecap:square;stroke-linejoin:round;stroke-miterlimit:10;stroke-opacity:1"
     d="m 214.01562,105.23828 v -1.9375"
     id="path25618" />
  <path
     style="fill:none;stroke:#ffffff;stroke-width:1.125;stroke-linecap:square;stroke-linejoin:round;stroke-miterlimit:10;stroke-opacity:1"
     d="m 226.38672,105.23828 v -1.9375"
     id="path25620" />
  <path
     style="fill:none;stroke:#ffffff;stroke-width:1.125;stroke-linecap:square;stroke-linejoin:round;stroke-miterlimit:10;stroke-opacity:1"
     d="m 235.16406,105.23828 v -1.9375"
     id="path25622" />
  <path
     style="fill:none;stroke:#ffffff;stroke-width:1.125;stroke-linecap:square;stroke-linejoin:round;stroke-miterlimit:10;stroke-opacity:1"
     d="m 241.97266,105.23828 v -1.9375"
     id="path25624" />
  <path
     style="fill:none;stroke:#ffffff;stroke-width:1.125;stroke-linecap:square;stroke-linejoin:round;stroke-miterlimit:10;stroke-opacity:1"
     d="m 247.53516,105.23828 v -1.9375"
     id="path25626" />
  <path
     style="fill:none;stroke:#ffffff;stroke-width:1.125;stroke-linecap:square;stroke-linejoin:round;stroke-miterlimit:10;stroke-opacity:1"
     d="m 36.78125,1.328125 v 1.9375"
     id="path25628" />
  <path
     style="fill:none;stroke:#ffffff;stroke-width:1.125;stroke-linecap:square;stroke-linejoin:round;stroke-miterlimit:10;stroke-opacity:1"
     d="m 41.484375,1.328125 v 1.9375"
     id="path25630" />
  <path
     style="fill:none;stroke:#ffffff;stroke-width:1.125;stroke-linecap:square;stroke-linejoin:round;stroke-miterlimit:10;stroke-opacity:1"
     d="m 45.558594,1.328125 v 1.9375"
     id="path25632" />
  <path
     style="fill:none;stroke:#ffffff;stroke-width:1.125;stroke-linecap:square;stroke-linejoin:round;stroke-miterlimit:10;stroke-opacity:1"
     d="m 49.152344,1.328125 v 1.9375"
     id="path25634" />
  <path
     style="fill:none;stroke:#ffffff;stroke-width:1.125;stroke-linecap:square;stroke-linejoin:round;stroke-miterlimit:10;stroke-opacity:1"
     d="m 52.367188,1.328125 v 1.9375"
     id="path25636" />
  <path
     style="fill:none;stroke:#ffffff;stroke-width:1.125;stroke-linecap:square;stroke-linejoin:round;stroke-miterlimit:10;stroke-opacity:1"
     d="m 73.511719,1.328125 v 1.9375"
     id="path25638" />
  <path
     style="fill:none;stroke:#ffffff;stroke-width:1.125;stroke-linecap:square;stroke-linejoin:round;stroke-miterlimit:10;stroke-opacity:1"
     d="m 85.882812,1.328125 v 1.9375"
     id="path25640" />
  <path
     style="fill:none;stroke:#ffffff;stroke-width:1.125;stroke-linecap:square;stroke-linejoin:round;stroke-miterlimit:10;stroke-opacity:1"
     d="m 94.660156,1.328125 v 1.9375"
     id="path25642" />
  <path
     style="fill:none;stroke:#ffffff;stroke-width:1.125;stroke-linecap:square;stroke-linejoin:round;stroke-miterlimit:10;stroke-opacity:1"
     d="m 101.46875,1.328125 v 1.9375"
     id="path25644" />
  <path
     style="fill:none;stroke:#ffffff;stroke-width:1.125;stroke-linecap:square;stroke-linejoin:round;stroke-miterlimit:10;stroke-opacity:1"
     d="m 107.03125,1.328125 v 1.9375"
     id="path25646" />
  <path
     style="fill:none;stroke:#ffffff;stroke-width:1.125;stroke-linecap:square;stroke-linejoin:round;stroke-miterlimit:10;stroke-opacity:1"
     d="m 111.73438,1.328125 v 1.9375"
     id="path25648" />
  <path
     style="fill:none;stroke:#ffffff;stroke-width:1.125;stroke-linecap:square;stroke-linejoin:round;stroke-miterlimit:10;stroke-opacity:1"
     d="m 115.80859,1.328125 v 1.9375"
     id="path25650" />
  <path
     style="fill:none;stroke:#ffffff;stroke-width:1.125;stroke-linecap:square;stroke-linejoin:round;stroke-miterlimit:10;stroke-opacity:1"
     d="m 119.40234,1.328125 v 1.9375"
     id="path25652" />
  <path
     style="fill:none;stroke:#ffffff;stroke-width:1.125;stroke-linecap:square;stroke-linejoin:round;stroke-miterlimit:10;stroke-opacity:1"
     d="m 122.61719,1.328125 v 1.9375"
     id="path25654" />
  <path
     style="fill:none;stroke:#ffffff;stroke-width:1.125;stroke-linecap:square;stroke-linejoin:round;stroke-miterlimit:10;stroke-opacity:1"
     d="m 143.76562,1.328125 v 1.9375"
     id="path25656" />
  <path
     style="fill:none;stroke:#ffffff;stroke-width:1.125;stroke-linecap:square;stroke-linejoin:round;stroke-miterlimit:10;stroke-opacity:1"
     d="m 156.13672,1.328125 v 1.9375"
     id="path25658" />
  <path
     style="fill:none;stroke:#ffffff;stroke-width:1.125;stroke-linecap:square;stroke-linejoin:round;stroke-miterlimit:10;stroke-opacity:1"
     d="m 164.91016,1.328125 v 1.9375"
     id="path25660" />
  <path
     style="fill:none;stroke:#ffffff;stroke-width:1.125;stroke-linecap:square;stroke-linejoin:round;stroke-miterlimit:10;stroke-opacity:1"
     d="m 171.71875,1.328125 v 1.9375"
     id="path25662" />
  <path
     style="fill:none;stroke:#ffffff;stroke-width:1.125;stroke-linecap:square;stroke-linejoin:round;stroke-miterlimit:10;stroke-opacity:1"
     d="m 177.28125,1.328125 v 1.9375"
     id="path25664" />
  <path
     style="fill:none;stroke:#ffffff;stroke-width:1.125;stroke-linecap:square;stroke-linejoin:round;stroke-miterlimit:10;stroke-opacity:1"
     d="m 181.98437,1.328125 v 1.9375"
     id="path25666" />
  <path
     style="fill:none;stroke:#ffffff;stroke-width:1.125;stroke-linecap:square;stroke-linejoin:round;stroke-miterlimit:10;stroke-opacity:1"
     d="m 186.05859,1.328125 v 1.9375"
     id="path25668" />
  <path
     style="fill:none;stroke:#ffffff;stroke-width:1.125;stroke-linecap:square;stroke-linejoin:round;stroke-miterlimit:10;stroke-opacity:1"
     d="m 189.65234,1.328125 v 1.9375"
     id="path25670" />
  <path
     style="fill:none;stroke:#ffffff;stroke-width:1.125;stroke-linecap:square;stroke-linejoin:round;stroke-miterlimit:10;stroke-opacity:1"
     d="m 192.86719,1.328125 v 1.9375"
     id="path25672" />
  <path
     style="fill:none;stroke:#ffffff;stroke-width:1.125;stroke-linecap:square;stroke-linejoin:round;stroke-miterlimit:10;stroke-opacity:1"
     d="m 214.01562,1.328125 v 1.9375"
     id="path25674" />
  <path
     style="fill:none;stroke:#ffffff;stroke-width:1.125;stroke-linecap:square;stroke-linejoin:round;stroke-miterlimit:10;stroke-opacity:1"
     d="m 226.38672,1.328125 v 1.9375"
     id="path25676" />
  <path
     style="fill:none;stroke:#ffffff;stroke-width:1.125;stroke-linecap:square;stroke-linejoin:round;stroke-miterlimit:10;stroke-opacity:1"
     d="m 235.16406,1.328125 v 1.9375"
     id="path25678" />
  <path
     style="fill:none;stroke:#ffffff;stroke-width:1.125;stroke-linecap:square;stroke-linejoin:round;stroke-miterlimit:10;stroke-opacity:1"
     d="m 241.97266,1.328125 v 1.9375"
     id="path25680" />
  <path
     style="fill:none;stroke:#ffffff;stroke-width:1.125;stroke-linecap:square;stroke-linejoin:round;stroke-miterlimit:10;stroke-opacity:1"
     d="m 247.53516,1.328125 v 1.9375"
     id="path25682" />
  <path
     style="fill:none;stroke:#ffffff;stroke-width:1.125;stroke-linecap:square;stroke-linejoin:round;stroke-miterlimit:10;stroke-opacity:1"
     d="M 31.21875,105.76563 V 0.5625"
     id="path25684" />
  <path
     style="fill:none;stroke:#ffffff;stroke-width:1.125;stroke-linecap:square;stroke-linejoin:round;stroke-miterlimit:10;stroke-opacity:1"
     d="M 252.23828,105.76563 V 0.5625"
     id="path25686" />
  <path
     style="fill:none;stroke:#ffffff;stroke-width:1.125;stroke-linecap:square;stroke-linejoin:round;stroke-miterlimit:10;stroke-opacity:1"
     d="m 249.05078,13.617188 h 2.33984"
     id="path25688" />
  <path
     style="fill:none;stroke:#ffffff;stroke-width:1.125;stroke-linecap:square;stroke-linejoin:round;stroke-miterlimit:10;stroke-opacity:1"
     d="m 249.05078,59.882812 h 2.33984"
     id="path25690" />
  <path
     style="fill:none;stroke:#ffffff;stroke-width:1.125;stroke-linecap:square;stroke-linejoin:round;stroke-miterlimit:10;stroke-opacity:1"
     d="m 249.22266,82.953125 h 2.33984"
     id="path25692" />
  <path
     style="fill:none;stroke:#ffffff;stroke-width:1.125;stroke-linecap:square;stroke-linejoin:round;stroke-miterlimit:10;stroke-opacity:1"
     d="m 249.33594,36.84375 h 2.33984"
     id="path25694" />
  <path
     style="fill:none;stroke:#ffffff;stroke-width:1.2;stroke-linecap:square;stroke-linejoin:round;stroke-miterlimit:10;stroke-opacity:1"
     d="m 31.800781,45.902344 h 3.601563"
     id="path25762" />
  <path
     style="fill:none;stroke:#ffffff;stroke-width:0.8;stroke-linecap:butt;stroke-linejoin:round;stroke-miterlimit:10;stroke-opacity:1"
     d="m 30.726562,52.234375 30.292969,4.648437 19.113281,-0.28125 14.082032,7.496094 19.113286,4.117188 11.17968,10.335937 19.11328,11.070313 7.9336,-0.921875 6.15234,-1.683594 5.02734,-8.898437 25.26172,-31.746094 19.11328,-7 L 221.19531,15.25 251.48828,11.089844"
     id="path25764" />
  <path
     style="fill:none;stroke:#ffffff;stroke-width:1.2;stroke-linecap:square;stroke-linejoin:round;stroke-miterlimit:10;stroke-opacity:1"
     d="m 31.800781,69.175781 h 3.601563"
     id="path25766" />
  <path
     style="fill:none;stroke:#ffffff;stroke-width:1.2;stroke-linecap:square;stroke-linejoin:round;stroke-miterlimit:10;stroke-opacity:1"
     d="m 31.800781,22.632812 h 3.601563"
     id="path25768" />
  <path
     style="fill:none;stroke:#ffffff;stroke-width:1.2;stroke-linecap:square;stroke-linejoin:round;stroke-miterlimit:10;stroke-opacity:1"
     d="m 31.800781,92.445312 h 3.601563"
     id="path25770" />
  <g
     id="g26526">
    <path
       style="fill:#ffffff;fill-opacity:1;fill-rule:nonzero;stroke:none"
       d="m 23.363281,20.699219 -0.859375,0.0625 c -0.08594,-0.34375 -0.199218,-0.59375 -0.34375,-0.75 -0.242187,-0.25 -0.53125,-0.375 -0.875,-0.375 -0.28125,0 -0.527344,0.07813 -0.734375,0.234375 -0.28125,0.210937 -0.5,0.507812 -0.65625,0.890625 -0.15625,0.386719 -0.242187,0.9375 -0.25,1.65625 0.207031,-0.320313 0.460938,-0.5625 0.765625,-0.71875 0.3125,-0.15625 0.632813,-0.234375 0.96875,-0.234375 0.59375,0 1.09375,0.21875 1.5,0.65625 0.414063,0.429687 0.625,0.980468 0.625,1.65625 0,0.449218 -0.101562,0.867187 -0.296875,1.25 -0.199219,0.386718 -0.46875,0.683594 -0.8125,0.890625 -0.335937,0.207031 -0.714843,0.3125 -1.140625,0.3125 -0.730468,0 -1.328125,-0.269531 -1.796875,-0.8125 -0.460937,-0.539063 -0.6875,-1.425781 -0.6875,-2.65625 0,-1.382813 0.253907,-2.394531 0.765625,-3.03125 0.445313,-0.539063 1.046875,-0.8125 1.796875,-0.8125 0.570313,0 1.035157,0.164062 1.390625,0.484375 0.363282,0.3125 0.578125,0.746094 0.640625,1.296875 z m -3.578125,3.09375 c 0,0.304687 0.0625,0.59375 0.1875,0.875 0.125,0.273437 0.300782,0.480469 0.53125,0.625 0.238282,0.148437 0.484375,0.21875 0.734375,0.21875 0.375,0 0.691407,-0.148438 0.953125,-0.453125 0.269532,-0.300782 0.40625,-0.707032 0.40625,-1.21875 0,-0.5 -0.136718,-0.890625 -0.40625,-1.171875 -0.261718,-0.289063 -0.589844,-0.4375 -0.984375,-0.4375 -0.398437,0 -0.734375,0.148437 -1.015625,0.4375 -0.273437,0.28125 -0.40625,0.65625 -0.40625,1.125 z m 0,0"
       id="path25488" />
    <path
       style="fill:#ffffff;fill-opacity:1;fill-rule:nonzero;stroke:none"
       d="m 24.136719,24.230469 0.921875,-0.07813 c 0.0625,0.449218 0.21875,0.789062 0.46875,1.015625 0.25,0.230469 0.550781,0.34375 0.90625,0.34375 0.414062,0 0.769531,-0.160157 1.0625,-0.484375 0.300781,-0.320313 0.453125,-0.742188 0.453125,-1.265625 0,-0.5 -0.140625,-0.894531 -0.421875,-1.1875 -0.28125,-0.289063 -0.652344,-0.4375 -1.109375,-0.4375 -0.28125,0 -0.539063,0.07031 -0.765625,0.203125 -0.230469,0.125 -0.414063,0.289062 -0.546875,0.484375 l -0.8125,-0.109375 0.6875,-3.671875 h 3.5625 v 0.84375 h -2.859375 l -0.390625,1.921875 c 0.4375,-0.300782 0.890625,-0.453125 1.359375,-0.453125 0.625,0 1.148437,0.21875 1.578125,0.65625 0.425781,0.429687 0.640625,0.984375 0.640625,1.671875 0,0.648437 -0.1875,1.203125 -0.5625,1.671875 -0.460938,0.585937 -1.085938,0.875 -1.875,0.875 -0.65625,0 -1.195313,-0.179688 -1.609375,-0.546875 -0.40625,-0.363282 -0.636719,-0.847656 -0.6875,-1.453125 z m 0,0"
       id="path25490" />
    <path
       style="fill:#ffffff;fill-opacity:1;fill-rule:nonzero;stroke:none"
       d="m 103.44141,124.42578 h 0.9375 v 7.15625 h -0.9375 z m 0,0"
       id="path25492" />
    <path
       style="fill:#ffffff;fill-opacity:1;fill-rule:nonzero;stroke:none"
       d="m 105.8125,131.58203 v -5.1875 h 0.79688 v 0.73438 c 0.375,-0.5625 0.92187,-0.84375 1.64062,-0.84375 0.3125,0 0.59766,0.0586 0.85938,0.17187 0.26953,0.10547 0.46875,0.25 0.59375,0.4375 0.13281,0.17969 0.22656,0.39063 0.28125,0.64063 0.0312,0.16797 0.0469,0.45312 0.0469,0.85937 v 3.1875 h -0.875 v -3.15625 c 0,-0.35156 -0.0391,-0.61719 -0.10937,-0.79687 -0.0625,-0.17578 -0.1836,-0.31641 -0.35938,-0.42188 -0.17969,-0.11328 -0.38281,-0.17187 -0.60937,-0.17187 -0.375,0 -0.70313,0.12109 -0.98438,0.35937 -0.27344,0.24219 -0.40625,0.69531 -0.40625,1.35938 v 2.82812 z m 0,0"
       id="path25494" />
    <g
       clip-path="url(#clip1)"
       clip-rule="nonzero"
       id="g25498"
       style="fill:#ffffff">
      <path
         style="fill:#ffffff;fill-opacity:1;fill-rule:nonzero;stroke:none"
         d="m 111.13281,133.56641 v -7.17188 h 0.79688 v 0.67188 c 0.19531,-0.25782 0.41015,-0.45313 0.64062,-0.57813 0.23828,-0.13281 0.53125,-0.20312 0.875,-0.20312 0.4375,0 0.82032,0.11718 1.15625,0.34375 0.34375,0.21875 0.59766,0.53906 0.76563,0.95312 0.17578,0.41797 0.26562,0.875 0.26562,1.375 0,0.52344 -0.0937,0.99609 -0.28125,1.42188 -0.1875,0.42968 -0.46484,0.75781 -0.82812,0.98437 -0.36719,0.22656 -0.7461,0.34375 -1.14063,0.34375 -0.29297,0 -0.55859,-0.0625 -0.79687,-0.1875 -0.23047,-0.125 -0.42188,-0.28125 -0.57813,-0.46875 v 2.51563 z m 0.79688,-4.54688 c 0,0.66797 0.13281,1.16406 0.40625,1.48438 0.26953,0.3125 0.59765,0.46875 0.98437,0.46875 0.38282,0 0.71875,-0.16016 1,-0.48438 0.28125,-0.33203 0.42188,-0.84766 0.42188,-1.54687 0,-0.65625 -0.13672,-1.14453 -0.40625,-1.46875 -0.27344,-0.33203 -0.60156,-0.5 -0.98438,-0.5 -0.375,0 -0.71093,0.17968 -1,0.53125 -0.28125,0.34375 -0.42187,0.85156 -0.42187,1.51562 z m 0,0"
         id="path25496" />
    </g>
    <path
       style="fill:#ffffff;fill-opacity:1;fill-rule:nonzero;stroke:none"
       d="m 119.85938,131.58203 v -0.76562 c -0.40625,0.59375 -0.96094,0.89062 -1.65625,0.89062 -0.30469,0 -0.58985,-0.0586 -0.85938,-0.17187 -0.26172,-0.125 -0.46094,-0.27344 -0.59375,-0.45313 -0.125,-0.17578 -0.21484,-0.39453 -0.26562,-0.65625 -0.0312,-0.16406 -0.0469,-0.4375 -0.0469,-0.8125 v -3.21875 h 0.875 v 2.875 c 0,0.46094 0.0195,0.77344 0.0625,0.9375 0.0508,0.23047 0.16406,0.41406 0.34375,0.54688 0.17578,0.125 0.39844,0.1875 0.67188,0.1875 0.25781,0 0.5039,-0.0664 0.73437,-0.20313 0.22656,-0.13281 0.39063,-0.31641 0.48438,-0.54687 0.10156,-0.23829 0.15625,-0.57813 0.15625,-1.01563 v -2.78125 h 0.875 v 5.1875 z m 0,0"
       id="path25500" />
    <path
       style="fill:#ffffff;fill-opacity:1;fill-rule:nonzero;stroke:none"
       d="m 123.69531,130.80078 0.125,0.76563 c -0.25,0.0508 -0.46875,0.0781 -0.65625,0.0781 -0.32422,0 -0.57422,-0.0469 -0.75,-0.14062 -0.17968,-0.10157 -0.30468,-0.23829 -0.375,-0.40625 -0.0625,-0.16407 -0.0937,-0.50782 -0.0937,-1.03125 v -2.98438 h -0.65625 v -0.6875 h 0.65625 v -1.28125 l 0.85938,-0.53125 v 1.8125 h 0.89062 v 0.6875 h -0.89062 v 3.03125 c 0,0.25 0.0156,0.41406 0.0469,0.48438 0.0312,0.0742 0.082,0.13281 0.15625,0.17187 0.0703,0.043 0.17188,0.0625 0.29688,0.0625 0.10156,0 0.23437,-0.008 0.39062,-0.0312 z m 0,0"
       id="path25502" />
    <path
       style="fill:#ffffff;fill-opacity:1;fill-rule:nonzero;stroke:none"
       d="m 127.25,131.58203 v -7.15625 h 4.82812 v 0.84375 h -3.89062 v 2.21875 h 3.35937 v 0.84375 h -3.35937 v 3.25 z m 0,0"
       id="path25504" />
    <path
       style="fill:#ffffff;fill-opacity:1;fill-rule:nonzero;stroke:none"
       d="m 132.92187,131.58203 v -5.1875 h 0.78125 v 0.78125 c 0.20704,-0.36328 0.39454,-0.60156 0.5625,-0.71875 0.16407,-0.11328 0.35157,-0.17187 0.5625,-0.17187 0.30079,0 0.60157,0.0937 0.90625,0.28125 l -0.29687,0.8125 c -0.21875,-0.125 -0.4375,-0.1875 -0.65625,-0.1875 -0.1875,0 -0.35938,0.0586 -0.51563,0.17187 -0.15625,0.11719 -0.26562,0.27735 -0.32812,0.48438 -0.0937,0.3125 -0.14063,0.65234 -0.14063,1.01562 v 2.71875 z m 0,0"
       id="path25506" />
    <path
       style="fill:#ffffff;fill-opacity:1;fill-rule:nonzero;stroke:none"
       d="m 139.66016,129.91016 0.92187,0.10937 c -0.14844,0.53125 -0.41797,0.94922 -0.8125,1.25 -0.38672,0.29297 -0.875,0.4375 -1.46875,0.4375 -0.76172,0 -1.36719,-0.23437 -1.8125,-0.70312 -0.44922,-0.46875 -0.67187,-1.125 -0.67187,-1.96875 0,-0.875 0.22265,-1.55078 0.67187,-2.03125 0.45703,-0.47657 1.03906,-0.71875 1.75,-0.71875 0.69531,0 1.26563,0.23437 1.70313,0.70312 0.4375,0.46875 0.65625,1.13281 0.65625,1.98438 0,0.0547 0,0.13281 0,0.23437 h -3.85938 c 0.0312,0.57422 0.1875,1.01172 0.46875,1.3125 0.28906,0.30469 0.65625,0.45313 1.09375,0.45313 0.32031,0 0.59766,-0.082 0.82813,-0.25 0.22656,-0.16407 0.40625,-0.4375 0.53125,-0.8125 z m -2.875,-1.42188 h 2.89062 c -0.043,-0.4375 -0.15234,-0.76562 -0.32812,-0.98437 -0.28125,-0.33203 -0.64844,-0.5 -1.09375,-0.5 -0.40625,0 -0.7461,0.13672 -1.01563,0.40625 -0.27344,0.27343 -0.42187,0.63281 -0.45312,1.07812 z m 0,0"
       id="path25508" />
    <g
       clip-path="url(#clip2)"
       clip-rule="nonzero"
       id="g25512"
       style="fill:#ffffff">
      <path
         style="fill:#ffffff;fill-opacity:1;fill-rule:nonzero;stroke:none"
         d="m 144.74609,133.56641 v -2.53125 c -0.13672,0.1875 -0.32812,0.35156 -0.57812,0.48437 -0.25,0.125 -0.51172,0.1875 -0.78125,0.1875 -0.61719,0 -1.14844,-0.24219 -1.59375,-0.73437 -0.4375,-0.5 -0.65625,-1.17579 -0.65625,-2.03125 0,-0.51954 0.0859,-0.98438 0.26562,-1.39063 0.17578,-0.41406 0.4375,-0.72656 0.78125,-0.9375 0.34375,-0.21875 0.72266,-0.32812 1.14063,-0.32812 0.63281,0 1.13281,0.26562 1.5,0.79687 v -0.6875 h 0.79687 v 7.17188 z m -2.71875,-4.59375 c 0,0.66796 0.14063,1.16796 0.42188,1.5 0.28125,0.33593 0.61719,0.5 1.01562,0.5 0.375,0 0.69141,-0.15625 0.95313,-0.46875 0.26953,-0.32032 0.40625,-0.80469 0.40625,-1.45313 0,-0.6875 -0.14063,-1.20312 -0.42188,-1.54687 -0.28125,-0.35157 -0.61718,-0.53125 -1,-0.53125 -0.38672,0 -0.71484,0.16406 -0.98437,0.48437 -0.26172,0.32422 -0.39063,0.82813 -0.39063,1.51563 z m 0,0"
         id="path25510" />
    </g>
    <path
       style="fill:#ffffff;fill-opacity:1;fill-rule:nonzero;stroke:none"
       d="m 150.16406,131.58203 v -0.76562 c -0.40625,0.59375 -0.96094,0.89062 -1.65625,0.89062 -0.30469,0 -0.58984,-0.0586 -0.85937,-0.17187 -0.26172,-0.125 -0.46094,-0.27344 -0.59375,-0.45313 -0.125,-0.17578 -0.21485,-0.39453 -0.26563,-0.65625 -0.0312,-0.16406 -0.0469,-0.4375 -0.0469,-0.8125 v -3.21875 h 0.875 v 2.875 c 0,0.46094 0.0195,0.77344 0.0625,0.9375 0.0508,0.23047 0.16406,0.41406 0.34375,0.54688 0.17578,0.125 0.39843,0.1875 0.67187,0.1875 0.25781,0 0.50391,-0.0664 0.73438,-0.20313 0.22656,-0.13281 0.39062,-0.31641 0.48437,-0.54687 0.10156,-0.23829 0.15625,-0.57813 0.15625,-1.01563 v -2.78125 h 0.875 v 5.1875 z m 0,0"
       id="path25514" />
    <path
       style="fill:#ffffff;fill-opacity:1;fill-rule:nonzero;stroke:none"
       d="m 155.625,129.91016 0.92187,0.10937 c -0.14843,0.53125 -0.41796,0.94922 -0.8125,1.25 -0.38671,0.29297 -0.875,0.4375 -1.46875,0.4375 -0.76171,0 -1.36718,-0.23437 -1.8125,-0.70312 -0.44921,-0.46875 -0.67187,-1.125 -0.67187,-1.96875 0,-0.875 0.22266,-1.55078 0.67187,-2.03125 0.45704,-0.47657 1.03907,-0.71875 1.75,-0.71875 0.69532,0 1.26563,0.23437 1.70313,0.70312 0.4375,0.46875 0.65625,1.13281 0.65625,1.98438 0,0.0547 0,0.13281 0,0.23437 h -3.85938 c 0.0312,0.57422 0.1875,1.01172 0.46875,1.3125 0.28907,0.30469 0.65625,0.45313 1.09375,0.45313 0.32032,0 0.59766,-0.082 0.82813,-0.25 0.22656,-0.16407 0.40625,-0.4375 0.53125,-0.8125 z m -2.875,-1.42188 h 2.89062 c -0.043,-0.4375 -0.15234,-0.76562 -0.32812,-0.98437 -0.28125,-0.33203 -0.64844,-0.5 -1.09375,-0.5 -0.40625,0 -0.74609,0.13672 -1.01563,0.40625 -0.27343,0.27343 -0.42187,0.63281 -0.45312,1.07812 z m 0,0"
       id="path25516" />
    <path
       style="fill:#ffffff;fill-opacity:1;fill-rule:nonzero;stroke:none"
       d="m 157.39844,131.58203 v -5.1875 h 0.79687 v 0.73438 c 0.375,-0.5625 0.92188,-0.84375 1.64063,-0.84375 0.3125,0 0.59765,0.0586 0.85937,0.17187 0.26953,0.10547 0.46875,0.25 0.59375,0.4375 0.13281,0.17969 0.22656,0.39063 0.28125,0.64063 0.0312,0.16797 0.0469,0.45312 0.0469,0.85937 v 3.1875 h -0.875 v -3.15625 c 0,-0.35156 -0.0391,-0.61719 -0.10938,-0.79687 -0.0625,-0.17578 -0.18359,-0.31641 -0.35937,-0.42188 -0.17969,-0.11328 -0.38282,-0.17187 -0.60938,-0.17187 -0.375,0 -0.70312,0.12109 -0.98437,0.35937 -0.27344,0.24219 -0.40625,0.69531 -0.40625,1.35938 v 2.82812 z m 0,0"
       id="path25518" />
    <path
       style="fill:#ffffff;fill-opacity:1;fill-rule:nonzero;stroke:none"
       d="m 166.10937,129.67578 0.85938,0.125 c -0.0937,0.59375 -0.33984,1.0625 -0.73438,1.40625 -0.38671,0.33594 -0.85937,0.5 -1.42187,0.5 -0.71094,0 -1.28125,-0.23437 -1.71875,-0.70312 -0.42969,-0.46875 -0.64063,-1.13282 -0.64063,-2 0,-0.55079 0.0937,-1.03516 0.28125,-1.45313 0.1875,-0.42578 0.46875,-0.74219 0.84375,-0.95312 0.375,-0.20703 0.78516,-0.3125 1.23438,-0.3125 0.5625,0 1.01953,0.14062 1.375,0.42187 0.36328,0.28125 0.59766,0.6875 0.70312,1.21875 l -0.85937,0.125 c -0.0859,-0.34375 -0.23047,-0.60156 -0.4375,-0.78125 -0.19922,-0.17578 -0.44922,-0.26562 -0.75,-0.26562 -0.4375,0 -0.79688,0.16406 -1.07813,0.48437 -0.27343,0.3125 -0.40625,0.8125 -0.40625,1.5 0,0.69922 0.12891,1.20313 0.39063,1.51563 0.26953,0.3125 0.61719,0.46875 1.04687,0.46875 0.34375,0 0.62891,-0.10157 0.85938,-0.3125 0.23828,-0.20704 0.39062,-0.53516 0.45312,-0.98438 z m 0,0"
       id="path25520" />
    <g
       clip-path="url(#clip3)"
       clip-rule="nonzero"
       id="g25524"
       style="fill:#ffffff">
      <path
         style="fill:#ffffff;fill-opacity:1;fill-rule:nonzero;stroke:none"
         d="m 167.46875,133.58203 -0.10938,-0.82812 c 0.19532,0.0508 0.36719,0.0781 0.51563,0.0781 0.1875,0 0.33594,-0.0312 0.45312,-0.0937 0.125,-0.0625 0.22266,-0.15625 0.29688,-0.28125 0.0508,-0.0859 0.14062,-0.30469 0.26562,-0.65625 0.0195,-0.043 0.0469,-0.10937 0.0781,-0.20312 L 167,126.39453 h 0.95312 l 1.07813,3 c 0.13281,0.38672 0.25781,0.78906 0.375,1.20313 0.10156,-0.40625 0.22266,-0.79688 0.35937,-1.17188 l 1.10938,-3.03125 h 0.875 l -1.96875,5.28125 c -0.21094,0.5625 -0.37109,0.95313 -0.48438,1.17188 -0.15625,0.28906 -0.33984,0.5039 -0.54687,0.64062 -0.19922,0.13281 -0.4375,0.20313 -0.71875,0.20313 -0.16797,0 -0.35547,-0.0391 -0.5625,-0.10938 z m 0,0"
         id="path25522" />
    </g>
    <g
       clip-path="url(#clip4)"
       clip-rule="nonzero"
       id="g25528"
       style="fill:#ffffff">
      <path
         style="fill:#ffffff;fill-opacity:1;fill-rule:nonzero;stroke:none"
         d="m 174.94531,133.56641 v -9.14063 h 1.95313 v 0.71875 h -1.0625 v 7.70313 h 1.0625 v 0.71875 z m 0,0"
         id="path25526" />
    </g>
    <path
       style="fill:#ffffff;fill-opacity:1;fill-rule:nonzero;stroke:none"
       d="m 177.59766,131.58203 v -7.15625 h 0.875 v 4.07813 l 2.07812,-2.10938 h 1.14063 l -1.98438,1.92188 2.1875,3.26562 h -1.09375 l -1.71875,-2.65625 -0.60937,0.59375 v 2.0625 z m 0,0"
       id="path25530" />
    <path
       style="fill:#ffffff;fill-opacity:1;fill-rule:nonzero;stroke:none"
       d="m 182.50391,131.58203 v -7.15625 h 0.95312 v 2.9375 h 3.71875 v -2.9375 h 0.95313 v 7.15625 h -0.95313 v -3.375 h -3.71875 v 3.375 z m 0,0"
       id="path25532" />
    <path
       style="fill:#ffffff;fill-opacity:1;fill-rule:nonzero;stroke:none"
       d="m 188.81641,131.58203 v -0.71875 l 3.29687,-3.78125 c -0.375,0.0234 -0.71094,0.0312 -1,0.0312 h -2.10937 v -0.71875 h 4.23437 v 0.57813 l -2.79687,3.29687 -0.54688,0.59375 c 0.39453,-0.0195 0.76563,-0.0312 1.10938,-0.0312 h 2.39062 v 0.75 z m 0,0"
       id="path25534" />
    <g
       clip-path="url(#clip5)"
       clip-rule="nonzero"
       id="g25538"
       style="fill:#ffffff">
      <path
         style="fill:#ffffff;fill-opacity:1;fill-rule:nonzero;stroke:none"
         d="m 195.51953,133.56641 h -1.9375 v -0.71875 h 1.0625 v -7.70313 h -1.0625 v -0.71875 h 1.9375 z m 0,0"
         id="path25536" />
    </g>
    <path
       style="fill:#ffffff;fill-opacity:1;fill-rule:nonzero;stroke:none"
       d="m 6.960938,73.984375 h -7.15625 V 71.28125 c 0,-0.476562 0.023437,-0.84375 0.0625,-1.09375 0.0624995,-0.351562 0.179687,-0.644531 0.34375,-0.875 0.15625,-0.238281 0.386718,-0.429688 0.6875,-0.578125 0.292968,-0.144531 0.617187,-0.21875 0.96875,-0.21875 0.617187,0 1.136718,0.195313 1.5625,0.578125 0.417968,0.386719 0.625,1.085938 0.625,2.09375 v 1.84375 h 2.90625 z m -3.75,-0.953125 V 71.1875 c 0,-0.613281 -0.113282,-1.050781 -0.34375,-1.3125 -0.226563,-0.257812 -0.550782,-0.390625 -0.96875,-0.390625 -0.300782,0 -0.554688,0.07813 -0.765626,0.234375 -0.207031,0.148438 -0.347656,0.34375 -0.421874,0.59375 -0.039063,0.167969 -0.0625,0.464844 -0.0625,0.890625 v 1.828125 z m 0,0"
       id="path25540" />
    <path
       style="fill:#ffffff;fill-opacity:1;fill-rule:nonzero;stroke:none"
       d="M 4.664062,67.910156 4.585938,67.019531 c 0.355468,-0.03906 0.648437,-0.140625 0.875,-0.296875 0.230468,-0.15625 0.417968,-0.394531 0.5625,-0.71875 0.136718,-0.320312 0.203124,-0.6875 0.203124,-1.09375 0,-0.363281 -0.050781,-0.679687 -0.15625,-0.953125 -0.101562,-0.28125 -0.25,-0.488281 -0.4375,-0.625 -0.1875,-0.132812 -0.390624,-0.203125 -0.609374,-0.203125 -0.226563,0 -0.425782,0.07031 -0.59375,0.203125 -0.164063,0.125 -0.304688,0.339844 -0.421876,0.640625 -0.070312,0.1875 -0.1875,0.609375 -0.34375,1.265625 -0.164062,0.65625 -0.316406,1.121094 -0.453124,1.390625 -0.175782,0.34375 -0.394532,0.601563 -0.65625,0.765625 -0.269532,0.167969 -0.570313,0.25 -0.90625,0.25 -0.351563,0 -0.6875,-0.101562 -1,-0.3125 C 0.328125,67.125 0.0859375,66.828125 -0.0703125,66.441406 -0.234375,66.046875 -0.320312,65.605469 -0.320312,65.113281 c 0,-0.519531 0.089843,-0.984375 0.2656245,-1.390625 0.1679685,-0.40625 0.4179685,-0.71875 0.7499995,-0.9375 0.335938,-0.21875 0.710938,-0.335937 1.125,-0.359375 l 0.0625,0.90625 c -0.445312,0.05469 -0.785156,0.21875 -1.015624,0.5 -0.238282,0.28125 -0.359376,0.699219 -0.359376,1.25 0,0.574219 0.109376,0.992188 0.328126,1.25 0.210937,0.261719 0.460937,0.390625 0.75,0.390625 0.261718,0 0.476562,-0.09375 0.640624,-0.28125 C 2.394531,66.265625 2.566406,65.792969 2.742188,65.019531 2.910156,64.25 3.0625,63.722656 3.195312,63.441406 3.382812,63.027344 3.628906,62.71875 3.929688,62.519531 4.222656,62.324219 4.5625,62.222656 4.945312,62.222656 c 0.375,0 0.734376,0.109375 1.078126,0.328125 0.335937,0.210938 0.59375,0.523438 0.78125,0.9375 0.1875,0.40625 0.28125,0.867188 0.28125,1.375 0,0.648438 -0.09375,1.1875 -0.28125,1.625 -0.1875,0.4375 -0.46875,0.78125 -0.84375,1.03125 -0.382813,0.25 -0.816407,0.382813 -1.296876,0.390625 z m 0,0"
       id="path25542" />
    <path
       style="fill:#ffffff;fill-opacity:1;fill-rule:nonzero;stroke:none"
       d="m 6.960938,61.195312 h -7.15625 v -3.171874 c 0,-0.644532 0.070312,-1.128907 0.2031245,-1.453126 0.1249995,-0.332031 0.3515625,-0.597656 0.6718755,-0.796874 0.324218,-0.207032 0.683593,-0.3125 1.078124,-0.3125 0.511719,0 0.9375,0.167968 1.28125,0.5 0.34375,0.335937 0.570313,0.839843 0.671876,1.515624 0.117187,-0.25 0.230468,-0.4375 0.34375,-0.5625 0.261718,-0.28125 0.578124,-0.539062 0.953124,-0.78125 l 1.953126,-1.25 v 1.1875 l -1.484376,0.953126 c -0.4375,0.273437 -0.765624,0.5 -0.984374,0.6875 -0.226563,0.179687 -0.390626,0.339843 -0.484376,0.484374 -0.09375,0.136719 -0.15625,0.277344 -0.1875,0.421876 -0.019531,0.105468 -0.03125,0.28125 -0.03125,0.53125 v 1.09375 h 3.171876 z m -4,-0.953124 v -2.03125 c 0,-0.4375 -0.039063,-0.773438 -0.125,-1.015626 -0.09375,-0.25 -0.238282,-0.4375 -0.4375,-0.5625 -0.195313,-0.125 -0.410157,-0.1875 -0.640626,-0.1875 -0.34375,0 -0.625,0.125 -0.84375,0.375 -0.21875,0.242188 -0.328124,0.625 -0.328124,1.15625 v 2.265626 z m 0,0"
       id="path25544" />
    <path
       style="fill:#ffffff;fill-opacity:1;fill-rule:nonzero;stroke:none"
       d="m 6.960938,54.289062 h -7.15625 v -3.171874 c 0,-0.644532 0.070312,-1.128907 0.2031245,-1.453126 0.1249995,-0.332031 0.3515625,-0.597656 0.6718755,-0.796874 0.324218,-0.207032 0.683593,-0.3125 1.078124,-0.3125 0.511719,0 0.9375,0.167968 1.28125,0.5 0.34375,0.335937 0.570313,0.839843 0.671876,1.515624 0.117187,-0.25 0.230468,-0.4375 0.34375,-0.5625 0.261718,-0.28125 0.578124,-0.539062 0.953124,-0.78125 l 1.953126,-1.25 v 1.1875 l -1.484376,0.953126 c -0.4375,0.273437 -0.765624,0.5 -0.984374,0.6875 -0.226563,0.179687 -0.390626,0.339843 -0.484376,0.484374 -0.09375,0.136719 -0.15625,0.277344 -0.1875,0.421876 -0.019531,0.105468 -0.03125,0.28125 -0.03125,0.53125 v 1.09375 h 3.171876 z m -4,-0.953124 v -2.03125 c 0,-0.4375 -0.039063,-0.773438 -0.125,-1.015626 -0.09375,-0.25 -0.238282,-0.4375 -0.4375,-0.5625 -0.195313,-0.125 -0.410157,-0.1875 -0.640626,-0.1875 -0.34375,0 -0.625,0.125 -0.84375,0.375 -0.21875,0.242188 -0.328124,0.625 -0.328124,1.15625 v 2.265626 z m 0,0"
       id="path25546" />
    <path
       style="fill:#ffffff;fill-opacity:1;fill-rule:nonzero;stroke:none"
       d="m 8.945312,44.839844 h -9.140624 v -1.953125 h 0.71875 v 1.0625 h 7.703124 v -1.0625 h 0.71875 z m 0,0"
       id="path25548" />
    <path
       style="fill:#ffffff;fill-opacity:1;fill-rule:nonzero;stroke:none"
       d="m 6.960938,38.828125 h -0.65625 c 0.523437,0.335937 0.78125,0.820313 0.78125,1.453125 0,0.417969 -0.117188,0.804688 -0.34375,1.15625 -0.226563,0.34375 -0.546876,0.609375 -0.953126,0.796875 -0.414062,0.1875 -0.890624,0.28125 -1.421874,0.28125 -0.507813,0 -0.972657,-0.08203 -1.390626,-0.25 -0.425781,-0.175781 -0.75,-0.4375 -0.96875,-0.78125 -0.226562,-0.34375 -0.34375,-0.726563 -0.34375,-1.15625 0,-0.3125 0.070313,-0.585937 0.203126,-0.828125 0.125,-0.25 0.292968,-0.453125 0.5,-0.609375 h -2.5625 v -0.875 h 7.15625 z m -2.59375,2.78125 c 0.667968,0 1.167968,-0.132813 1.5,-0.40625 0.324218,-0.28125 0.484374,-0.613281 0.484374,-1 0,-0.382813 -0.15625,-0.707031 -0.46875,-0.96875 -0.3125,-0.269531 -0.789062,-0.40625 -1.4375,-0.40625 -0.707031,0 -1.226562,0.136719 -1.5625,0.40625 -0.332031,0.273437 -0.5,0.605469 -0.5,1 0,0.398437 0.164063,0.726563 0.484376,0.984375 0.3125,0.261719 0.8125,0.390625 1.5,0.390625 z m 0,0"
       id="path25550" />
    <path
       style="fill:#ffffff;fill-opacity:1;fill-rule:nonzero;stroke:none"
       d="m 6.960938,36.804688 h -7.15625 v -2.6875 c 0,-0.539063 0.074218,-0.976563 0.2187495,-1.3125 0.1484375,-0.332032 0.3710935,-0.59375 0.6718745,-0.78125 0.292969,-0.1875 0.605469,-0.28125 0.9375,-0.28125 0.304688,0 0.589844,0.08594 0.859376,0.25 0.273437,0.167968 0.492187,0.417968 0.65625,0.75 0.125,-0.425782 0.34375,-0.753907 0.65625,-0.984376 0.304687,-0.238281 0.664062,-0.359374 1.078124,-0.359374 0.335938,0 0.648438,0.07422 0.9375,0.21875 0.292969,0.136718 0.515626,0.308593 0.671876,0.515624 0.15625,0.210938 0.277343,0.476563 0.359374,0.796876 0.074219,0.3125 0.109376,0.695312 0.109376,1.140624 z m -4.15625,-0.953126 v -1.546874 c 0,-0.414063 -0.023438,-0.710938 -0.078126,-0.890626 -0.070312,-0.25 -0.191406,-0.429687 -0.359374,-0.546874 -0.164063,-0.125 -0.375,-0.1875 -0.625,-0.1875 -0.238282,0 -0.445313,0.05859 -0.625,0.171874 -0.175782,0.117188 -0.296876,0.28125 -0.359376,0.5 C 0.6875,33.5625 0.648438,33.921875 0.648438,34.429688 v 1.421874 z m 3.3125,0 v -1.78125 c 0,-0.300781 -0.00781,-0.515624 -0.03125,-0.640624 C 6.046875,33.210938 5.976562,33.03125 5.882812,32.882812 5.789062,32.738281 5.660156,32.617188 5.492188,32.523438 5.316406,32.429688 5.113281,32.382812 4.882812,32.382812 c -0.257812,0 -0.488281,0.07031 -0.6875,0.203126 C 4,32.722656 3.859375,32.914062 3.773438,33.164062 c -0.082032,0.242188 -0.125,0.589844 -0.125,1.046876 v 1.640624 z m 0,0"
       id="path25552" />
    <path
       style="fill:#ffffff;fill-opacity:1;fill-rule:nonzero;stroke:none"
       d="m 8.945312,29.027344 v 1.9375 h -0.71875 v -1.0625 H 0.523438 v 1.0625 h -0.71875 v -1.9375 z m 0,0"
       id="path25554" />
    <path
       style="fill:#ffffff;fill-opacity:1;fill-rule:nonzero;stroke:none"
       d="m 256.10547,83.148438 h 2.70312 v 0.875 h -2.70312 z m 0,0"
       id="path25696" />
    <path
       style="fill:#ffffff;fill-opacity:1;fill-rule:nonzero;stroke:none"
       d="m 262.22266,86.179688 v -1.71875 h -3.10938 v -0.796876 l 3.26563,-4.640624 h 0.71875 v 4.640624 h 0.96875 v 0.796876 h -0.96875 v 1.71875 z m 0,-2.515626 v -3.234374 l -2.25,3.234374 z m 0,0"
       id="path25698" />
    <path
       style="fill:#ffffff;fill-opacity:1;fill-rule:nonzero;stroke:none"
       d="m 264.73047,84.304688 0.92187,-0.07813 c 0.0625,0.449219 0.21875,0.789063 0.46875,1.015626 0.25,0.230468 0.55078,0.34375 0.90625,0.34375 0.41407,0 0.76953,-0.160157 1.0625,-0.484376 0.30078,-0.320312 0.45313,-0.742187 0.45313,-1.265624 0,-0.5 -0.14063,-0.894532 -0.42188,-1.1875 -0.28125,-0.289063 -0.65234,-0.4375 -1.10937,-0.4375 -0.28125,0 -0.53906,0.07031 -0.76563,0.203124 -0.23047,0.125 -0.41406,0.289063 -0.54687,0.484376 l -0.8125,-0.109376 0.6875,-3.671874 h 3.5625 v 0.84375 h -2.85938 l -0.39062,1.921874 c 0.4375,-0.300781 0.89062,-0.453124 1.35937,-0.453124 0.625,0 1.14844,0.21875 1.57813,0.65625 0.42578,0.429687 0.64062,0.984374 0.64062,1.671874 0,0.648438 -0.1875,1.203126 -0.5625,1.671876 -0.46093,0.585937 -1.08593,0.875 -1.875,0.875 -0.65625,0 -1.19531,-0.179688 -1.60937,-0.546876 -0.40625,-0.363281 -0.63672,-0.847656 -0.6875,-1.453124 z m 0,0"
       id="path25700" />
    <path
       style="fill:#ffffff;fill-opacity:1;fill-rule:nonzero;stroke:none"
       d="m 280.67969,89.5625 h -7.15625 v -1.421875 l 5.0625,-1.6875 c 0.48047,-0.15625 0.83593,-0.269531 1.0625,-0.34375 -0.25782,-0.08203 -0.64063,-0.207031 -1.14063,-0.375 l -4.98437,-1.71875 v -1.28125 h 7.15625 v 0.921875 h -5.98438 l 5.98438,2.078125 v 0.859375 l -6.09375,2.0625 h 6.09375 z m 0,0"
       id="path25702" />
    <path
       style="fill:#ffffff;fill-opacity:1;fill-rule:nonzero;stroke:none"
       d="m 279.00781,78.136719 0.10938,-0.921875 c 0.53125,0.148437 0.94922,0.417968 1.25,0.8125 0.29297,0.386718 0.4375,0.875 0.4375,1.46875 0,0.761718 -0.23438,1.367187 -0.70313,1.8125 -0.46875,0.449218 -1.125,0.671875 -1.96875,0.671875 -0.875,0 -1.55078,-0.222657 -2.03125,-0.671875 -0.47656,-0.457032 -0.71875,-1.039063 -0.71875,-1.75 0,-0.695313 0.23438,-1.265625 0.70313,-1.703125 0.46875,-0.4375 1.13281,-0.65625 1.98437,-0.65625 0.0547,0 0.13281,0 0.23438,0 v 3.859375 c 0.57422,-0.03125 1.01172,-0.1875 1.3125,-0.46875 0.30468,-0.289063 0.45312,-0.65625 0.45312,-1.09375 0,-0.320313 -0.082,-0.597656 -0.25,-0.828125 -0.16406,-0.226563 -0.4375,-0.40625 -0.8125,-0.53125 z m -1.42187,2.875 v -2.890625 c -0.4375,0.04297 -0.76563,0.152344 -0.98438,0.328125 -0.33203,0.28125 -0.5,0.648437 -0.5,1.09375 0,0.40625 0.13672,0.746093 0.40625,1.015625 0.27344,0.273437 0.63281,0.421875 1.07813,0.453125 z m 0,0"
       id="path25704" />
    <path
       style="fill:#ffffff;fill-opacity:1;fill-rule:nonzero;stroke:none"
       d="m 280.03906,72.972656 c 0.28125,0.324219 0.48047,0.636719 0.59375,0.9375 0.11328,0.304688 0.17188,0.625 0.17188,0.96875 0,0.574219 -0.14063,1.015625 -0.42188,1.328125 -0.28125,0.304688 -0.64062,0.453125 -1.07812,0.453125 -0.25,0 -0.47657,-0.05469 -0.6875,-0.171875 -0.20703,-0.113281 -0.375,-0.265625 -0.5,-0.453125 -0.13282,-0.1875 -0.23438,-0.398437 -0.29688,-0.640625 -0.0391,-0.164062 -0.082,-0.425781 -0.125,-0.78125 -0.082,-0.707031 -0.1875,-1.226562 -0.3125,-1.5625 -0.11328,0 -0.1875,0 -0.21875,0 -0.36328,0 -0.61719,0.08594 -0.76562,0.25 -0.19532,0.21875 -0.29688,0.554688 -0.29688,1 0,0.40625 0.0742,0.710938 0.21875,0.90625 0.14844,0.199219 0.40235,0.34375 0.76563,0.4375 l -0.10938,0.859375 c -0.375,-0.07031 -0.67187,-0.195312 -0.89062,-0.375 -0.22657,-0.1875 -0.39844,-0.445312 -0.51563,-0.78125 -0.125,-0.34375 -0.1875,-0.738281 -0.1875,-1.1875 0,-0.4375 0.0547,-0.789062 0.15625,-1.0625 0.10547,-0.28125 0.23438,-0.484375 0.39063,-0.609375 0.15625,-0.132812 0.35547,-0.226562 0.59375,-0.28125 0.14843,-0.03125 0.41797,-0.04687 0.8125,-0.04687 h 1.17187 c 0.8125,0 1.32813,-0.01563 1.54688,-0.04687 0.21875,-0.03906 0.42968,-0.117187 0.625,-0.234375 v 0.921875 c -0.1875,0.09375 -0.39844,0.152344 -0.64063,0.171875 z m -1.96875,0.07813 c 0.13672,0.324219 0.25,0.804688 0.34375,1.4375 0.0547,0.355469 0.10938,0.609375 0.17188,0.765625 0.0625,0.148438 0.15625,0.261719 0.28125,0.34375 0.125,0.08594 0.26562,0.125 0.42187,0.125 0.23047,0 0.42188,-0.08594 0.57813,-0.265625 0.15625,-0.175781 0.23437,-0.4375 0.23437,-0.78125 0,-0.34375 -0.0703,-0.644531 -0.21875,-0.90625 -0.14453,-0.257812 -0.34765,-0.453125 -0.60937,-0.578125 -0.19532,-0.09375 -0.48828,-0.140625 -0.875,-0.140625 z m 0,0"
       id="path25706" />
    <path
       style="fill:#ffffff;fill-opacity:1;fill-rule:nonzero;stroke:none"
       d="m 279.13281,71.386719 -0.14062,-0.859375 c 0.35547,-0.05078 0.625,-0.1875 0.8125,-0.40625 0.17968,-0.226563 0.26562,-0.539063 0.26562,-0.9375 0,-0.40625 -0.0781,-0.707032 -0.23437,-0.90625 -0.16407,-0.195313 -0.36328,-0.296875 -0.59375,-0.296875 -0.19532,0 -0.35157,0.08984 -0.46875,0.265625 -0.0703,0.125 -0.17188,0.429687 -0.29688,0.90625 -0.15625,0.636718 -0.28906,1.078125 -0.40625,1.328125 -0.125,0.25 -0.28906,0.445312 -0.5,0.578125 -0.20703,0.125 -0.4414,0.1875 -0.70312,0.1875 -0.22657,0 -0.44141,-0.05078 -0.64063,-0.15625 -0.19531,-0.101563 -0.35937,-0.25 -0.48437,-0.4375 -0.10157,-0.132813 -0.1875,-0.316406 -0.25,-0.546875 -0.0703,-0.238281 -0.10938,-0.492188 -0.10938,-0.765625 0,-0.40625 0.0586,-0.757813 0.17188,-1.0625 0.11718,-0.3125 0.27734,-0.539063 0.48437,-0.6875 0.19922,-0.15625 0.46485,-0.257813 0.79688,-0.3125 l 0.10937,0.859375 c -0.25781,0.04297 -0.46094,0.15625 -0.60937,0.34375 -0.15625,0.1875 -0.23438,0.453125 -0.23438,0.796875 0,0.398437 0.0703,0.683594 0.20313,0.859375 0.125,0.179687 0.28125,0.265625 0.46875,0.265625 0.11718,0 0.21484,-0.03516 0.29687,-0.109375 0.0937,-0.07031 0.17188,-0.1875 0.23438,-0.34375 0.0312,-0.08203 0.10937,-0.34375 0.23437,-0.78125 0.16797,-0.613281 0.30469,-1.039063 0.40625,-1.28125 0.10547,-0.25 0.26172,-0.441407 0.46875,-0.578125 0.19922,-0.144532 0.44531,-0.21875 0.73438,-0.21875 0.30468,0 0.58593,0.08594 0.84375,0.25 0.25,0.167968 0.44922,0.414062 0.59375,0.734375 0.14453,0.324219 0.21875,0.6875 0.21875,1.09375 0,0.679687 -0.14063,1.195312 -0.42188,1.546875 -0.28125,0.355468 -0.69531,0.578125 -1.25,0.671875 z m 0,0"
       id="path25708" />
    <path
       style="fill:#ffffff;fill-opacity:1;fill-rule:nonzero;stroke:none"
       d="m 280.67969,62.855469 h -0.76563 c 0.59375,0.40625 0.89063,0.960937 0.89063,1.65625 0,0.304687 -0.0586,0.589843 -0.17188,0.859375 -0.125,0.261718 -0.27344,0.460937 -0.45312,0.59375 -0.17578,0.125 -0.39453,0.214844 -0.65625,0.265625 -0.16407,0.03125 -0.4375,0.04687 -0.8125,0.04687 h -3.21875 v -0.875 h 2.875 c 0.46093,0 0.77343,-0.01953 0.9375,-0.0625 0.23047,-0.05078 0.41406,-0.164063 0.54687,-0.34375 0.125,-0.175782 0.1875,-0.398438 0.1875,-0.671875 0,-0.257813 -0.0664,-0.503907 -0.20312,-0.734375 -0.13282,-0.226563 -0.31641,-0.390625 -0.54688,-0.484375 -0.23828,-0.101563 -0.57812,-0.15625 -1.01562,-0.15625 h -2.78125 v -0.875 h 5.1875 z m 0,0"
       id="path25710" />
    <path
       style="fill:#ffffff;fill-opacity:1;fill-rule:nonzero;stroke:none"
       d="m 280.67969,60.941406 h -5.1875 v -0.78125 h 0.78125 c -0.36328,-0.207031 -0.60157,-0.394531 -0.71875,-0.5625 -0.11328,-0.164062 -0.17188,-0.351562 -0.17188,-0.5625 0,-0.300781 0.0937,-0.601562 0.28125,-0.90625 l 0.8125,0.296875 c -0.125,0.21875 -0.1875,0.4375 -0.1875,0.65625 0,0.1875 0.0586,0.359375 0.17188,0.515625 0.11718,0.15625 0.27734,0.265625 0.48437,0.328125 0.3125,0.09375 0.65235,0.140625 1.01563,0.140625 h 2.71875 z m 0,0"
       id="path25712" />
    <path
       style="fill:#ffffff;fill-opacity:1;fill-rule:nonzero;stroke:none"
       d="m 279.00781,54.199219 0.10938,-0.921875 c 0.53125,0.148437 0.94922,0.417968 1.25,0.8125 0.29297,0.386718 0.4375,0.875 0.4375,1.46875 0,0.761718 -0.23438,1.367187 -0.70313,1.8125 -0.46875,0.449218 -1.125,0.671875 -1.96875,0.671875 -0.875,0 -1.55078,-0.222657 -2.03125,-0.671875 -0.47656,-0.457032 -0.71875,-1.039063 -0.71875,-1.75 0,-0.695313 0.23438,-1.265625 0.70313,-1.703125 0.46875,-0.4375 1.13281,-0.65625 1.98437,-0.65625 0.0547,0 0.13281,0 0.23438,0 v 3.859375 c 0.57422,-0.03125 1.01172,-0.1875 1.3125,-0.46875 0.30468,-0.289063 0.45312,-0.65625 0.45312,-1.09375 0,-0.320313 -0.082,-0.597656 -0.25,-0.828125 -0.16406,-0.226563 -0.4375,-0.40625 -0.8125,-0.53125 z m -1.42187,2.875 v -2.890625 c -0.4375,0.04297 -0.76563,0.152344 -0.98438,0.328125 -0.33203,0.28125 -0.5,0.648437 -0.5,1.09375 0,0.40625 0.13672,0.746093 0.40625,1.015625 0.27344,0.273437 0.63281,0.421875 1.07813,0.453125 z m 0,0"
       id="path25714" />
    <path
       style="fill:#ffffff;fill-opacity:1;fill-rule:nonzero;stroke:none"
       d="m 280.67969,49.050781 h -0.65625 c 0.52343,0.335938 0.78125,0.820313 0.78125,1.453125 0,0.417969 -0.11719,0.804688 -0.34375,1.15625 -0.22657,0.34375 -0.54688,0.609375 -0.95313,0.796875 -0.41406,0.1875 -0.89062,0.28125 -1.42187,0.28125 -0.50782,0 -0.97266,-0.08203 -1.39063,-0.25 -0.42578,-0.175781 -0.75,-0.4375 -0.96875,-0.78125 -0.22656,-0.34375 -0.34375,-0.726562 -0.34375,-1.15625 0,-0.3125 0.0703,-0.585937 0.20313,-0.828125 0.125,-0.25 0.29297,-0.453125 0.5,-0.609375 h -2.5625 v -0.875 h 7.15625 z m -2.59375,2.78125 c 0.66797,0 1.16797,-0.132812 1.5,-0.40625 0.32422,-0.28125 0.48437,-0.613281 0.48437,-1 0,-0.382812 -0.15625,-0.707031 -0.46875,-0.96875 -0.3125,-0.269531 -0.78906,-0.40625 -1.4375,-0.40625 -0.70703,0 -1.22656,0.136719 -1.5625,0.40625 -0.33203,0.273438 -0.5,0.605469 -0.5,1 0,0.398438 0.16406,0.726563 0.48438,0.984375 0.3125,0.261719 0.8125,0.390625 1.5,0.390625 z m 0,0"
       id="path25716" />
    <path
       style="fill:#ffffff;fill-opacity:1;fill-rule:nonzero;stroke:none"
       d="m 280.67969,42.675781 h -6.3125 v 2.359375 h -0.84375 v -5.671875 h 0.84375 v 2.359375 h 6.3125 z m 0,0"
       id="path25718" />
    <path
       style="fill:#ffffff;fill-opacity:1;fill-rule:nonzero;stroke:none"
       d="m 278.08594,40.160156 c -0.95703,0 -1.67188,-0.269531 -2.14063,-0.8125 -0.375,-0.4375 -0.5625,-0.976562 -0.5625,-1.625 0,-0.707031 0.23438,-1.285156 0.70313,-1.734375 0.46093,-0.457031 1.10156,-0.6875 1.92187,-0.6875 0.66797,0 1.19531,0.101563 1.57813,0.296875 0.38672,0.199219 0.6875,0.492188 0.90625,0.875 0.20703,0.386719 0.3125,0.804688 0.3125,1.25 0,0.730469 -0.23438,1.320313 -0.70313,1.765625 -0.46875,0.449219 -1.14062,0.671875 -2.01562,0.671875 z m 0,-0.90625 c 0.66797,0 1.16797,-0.144531 1.5,-0.4375 0.32422,-0.289062 0.48437,-0.65625 0.48437,-1.09375 0,-0.4375 -0.16406,-0.796875 -0.5,-1.078125 -0.33203,-0.289062 -0.83594,-0.4375 -1.51562,-0.4375 -0.63282,0 -1.11719,0.148438 -1.45313,0.4375 -0.33203,0.292969 -0.5,0.652344 -0.5,1.078125 0,0.4375 0.16797,0.804688 0.5,1.09375 0.32422,0.292969 0.82031,0.4375 1.48438,0.4375 z m 0,0"
       id="path25720" />
    <path
       style="fill:#ffffff;fill-opacity:1;fill-rule:nonzero;stroke:none"
       d="m 280.67969,34.503906 h -5.1875 v -0.796875 h 0.73437 c -0.5625,-0.375 -0.84375,-0.921875 -0.84375,-1.640625 0,-0.3125 0.0586,-0.597656 0.17188,-0.859375 0.10547,-0.269531 0.25,-0.46875 0.4375,-0.59375 0.17968,-0.132812 0.39062,-0.226562 0.64062,-0.28125 0.16797,-0.03125 0.45313,-0.04687 0.85938,-0.04687 h 3.1875 v 0.875 h -3.15625 c -0.35157,0 -0.61719,0.03906 -0.79688,0.109375 -0.17578,0.0625 -0.3164,0.183594 -0.42187,0.359375 -0.11328,0.179688 -0.17188,0.382813 -0.17188,0.609375 0,0.375 0.1211,0.703125 0.35938,0.984375 0.24218,0.273438 0.69531,0.40625 1.35937,0.40625 h 2.82813 z m 0,0"
       id="path25722" />
    <path
       style="fill:#ffffff;fill-opacity:1;fill-rule:nonzero;stroke:none"
       d="m 279.00781,25.632812 0.10938,-0.921874 c 0.53125,0.148437 0.94922,0.417968 1.25,0.8125 0.29297,0.386718 0.4375,0.875 0.4375,1.46875 0,0.761718 -0.23438,1.367187 -0.70313,1.8125 -0.46875,0.449218 -1.125,0.671874 -1.96875,0.671874 -0.875,0 -1.55078,-0.222656 -2.03125,-0.671874 -0.47656,-0.457032 -0.71875,-1.039063 -0.71875,-1.75 0,-0.695313 0.23438,-1.265626 0.70313,-1.703126 0.46875,-0.4375 1.13281,-0.65625 1.98437,-0.65625 0.0547,0 0.13281,0 0.23438,0 v 3.859376 c 0.57422,-0.03125 1.01172,-0.1875 1.3125,-0.46875 0.30468,-0.289063 0.45312,-0.65625 0.45312,-1.09375 0,-0.320313 -0.082,-0.597657 -0.25,-0.828126 -0.16406,-0.226562 -0.4375,-0.40625 -0.8125,-0.53125 z m -1.42187,2.875 v -2.890624 c -0.4375,0.04297 -0.76563,0.152343 -0.98438,0.328124 -0.33203,0.28125 -0.5,0.648438 -0.5,1.09375 0,0.40625 0.13672,0.746094 0.40625,1.015626 0.27344,0.273437 0.63281,0.421874 1.07813,0.453124 z m 0,0"
       id="path25724" />
    <g
       clip-path="url(#clip6)"
       clip-rule="nonzero"
       id="g25728"
       style="fill:#ffffff">
      <path
         style="fill:#ffffff;fill-opacity:1;fill-rule:nonzero;stroke:none"
         d="m 282.66406,21.191406 h -9.14062 v -1.953125 h 0.71875 v 1.0625 h 7.70312 v -1.0625 h 0.71875 z m 0,0"
         id="path25726" />
    </g>
    <path
       style="fill:#ffffff;fill-opacity:1;fill-rule:nonzero;stroke:none"
       d="m 280.67969,15.183594 h -0.65625 c 0.52343,0.335937 0.78125,0.820312 0.78125,1.453125 0,0.417969 -0.11719,0.804687 -0.34375,1.15625 -0.22657,0.34375 -0.54688,0.609375 -0.95313,0.796875 -0.41406,0.1875 -0.89062,0.28125 -1.42187,0.28125 -0.50782,0 -0.97266,-0.08203 -1.39063,-0.25 -0.42578,-0.175782 -0.75,-0.4375 -0.96875,-0.78125 -0.22656,-0.34375 -0.34375,-0.726563 -0.34375,-1.15625 0,-0.3125 0.0703,-0.585938 0.20313,-0.828125 0.125,-0.25 0.29297,-0.453125 0.5,-0.609375 h -2.5625 v -0.875 h 7.15625 z m -2.59375,2.78125 c 0.66797,0 1.16797,-0.132813 1.5,-0.40625 0.32422,-0.28125 0.48437,-0.613282 0.48437,-1 0,-0.382813 -0.15625,-0.707032 -0.46875,-0.96875 -0.3125,-0.269532 -0.78906,-0.40625 -1.4375,-0.40625 -0.70703,0 -1.22656,0.136718 -1.5625,0.40625 -0.33203,0.273437 -0.5,0.605468 -0.5,1 0,0.398437 0.16406,0.726562 0.48438,0.984375 0.3125,0.261719 0.8125,0.390625 1.5,0.390625 z m 0,0"
       id="path25730" />
    <path
       style="fill:#ffffff;fill-opacity:1;fill-rule:nonzero;stroke:none"
       d="m 280.67969,13.15625 h -7.15625 v -2.6875 c 0,-0.539062 0.0742,-0.976562 0.21875,-1.3125 0.14843,-0.332031 0.37109,-0.59375 0.67187,-0.78125 0.29297,-0.1875 0.60547,-0.28125 0.9375,-0.28125 0.30469,0 0.58985,0.085938 0.85938,0.25 0.27343,0.167969 0.49218,0.417969 0.65625,0.75 0.125,-0.425781 0.34375,-0.753906 0.65625,-0.984375 C 277.82812,7.871094 278.1875,7.75 278.60156,7.75 c 0.33594,0 0.64844,0.074219 0.9375,0.21875 0.29297,0.136719 0.51563,0.308594 0.67188,0.515625 0.15625,0.210937 0.27734,0.476563 0.35937,0.796875 0.0742,0.3125 0.10938,0.695312 0.10938,1.140625 z m -4.15625,-0.953125 V 10.65625 c 0,-0.414062 -0.0234,-0.710938 -0.0781,-0.890625 -0.0703,-0.25 -0.1914,-0.429687 -0.35937,-0.546875 -0.16407,-0.125 -0.375,-0.1875 -0.625,-0.1875 -0.23828,0 -0.44532,0.058594 -0.625,0.171875 -0.17578,0.117187 -0.29688,0.28125 -0.35938,0.5 -0.0703,0.210937 -0.10937,0.570313 -0.10937,1.078125 v 1.421875 z m 3.3125,0 v -1.78125 c 0,-0.300781 -0.008,-0.515625 -0.0312,-0.640625 -0.0391,-0.21875 -0.10938,-0.398438 -0.20313,-0.546875 -0.0937,-0.144531 -0.22265,-0.265625 -0.39062,-0.359375 -0.17578,-0.09375 -0.37891,-0.140625 -0.60938,-0.140625 -0.25781,0 -0.48828,0.070313 -0.6875,0.203125 -0.19531,0.136719 -0.33594,0.328125 -0.42187,0.578125 -0.082,0.242187 -0.125,0.589844 -0.125,1.046875 v 1.640625 z m 0,0"
       id="path25732" />
    <g
       clip-path="url(#clip7)"
       clip-rule="nonzero"
       id="g25736"
       style="fill:#ffffff">
      <path
         style="fill:#ffffff;fill-opacity:1;fill-rule:nonzero;stroke:none"
         d="m 282.66406,5.382812 v 1.9375 h -0.71875 v -1.0625 h -7.70312 v 1.0625 h -0.71875 v -1.9375 z m 0,0"
         id="path25734" />
    </g>
    <path
       style="fill:#ffffff;fill-opacity:1;fill-rule:nonzero;stroke:none"
       d="m 123.25781,117.03125 h -0.875 v -5.59375 c -0.21093,0.19922 -0.48437,0.40234 -0.82812,0.60938 -0.34375,0.19921 -0.65235,0.34375 -0.92188,0.4375 v -0.84375 c 0.48828,-0.22657 0.91407,-0.50391 1.28125,-0.82813 0.375,-0.33203 0.63282,-0.65625 0.78125,-0.96875 h 0.5625 z m 0,0"
       id="path25738" />
    <path
       style="fill:#ffffff;fill-opacity:1;fill-rule:nonzero;stroke:none"
       d="m 191.12109,117.03125 h -0.875 v -5.59375 c -0.21093,0.19922 -0.48437,0.40234 -0.82812,0.60938 -0.34375,0.19921 -0.65235,0.34375 -0.92188,0.4375 v -0.84375 c 0.48828,-0.22657 0.91407,-0.50391 1.28125,-0.82813 0.375,-0.33203 0.63282,-0.65625 0.78125,-0.96875 h 0.5625 z m 0,0"
       id="path25740" />
    <path
       style="fill:#ffffff;fill-opacity:1;fill-rule:nonzero;stroke:none"
       d="m 193.14453,113.5 c 0,-0.84375 0.082,-1.51953 0.25,-2.03125 0.17578,-0.51953 0.4375,-0.92187 0.78125,-1.20312 0.34375,-0.28125 0.77344,-0.42188 1.29688,-0.42188 0.38281,0 0.71875,0.0781 1,0.23438 0.28906,0.15625 0.53125,0.38281 0.71875,0.67187 0.19531,0.29297 0.34765,0.64844 0.45312,1.0625 0.10156,0.41797 0.15625,0.98047 0.15625,1.6875 0,0.84375 -0.0898,1.52734 -0.26562,2.04688 -0.16797,0.51171 -0.42188,0.90625 -0.76563,1.1875 -0.34375,0.28125 -0.77734,0.42187 -1.29687,0.42187 -0.6875,0 -1.23047,-0.25 -1.625,-0.75 -0.46875,-0.59375 -0.70313,-1.5625 -0.70313,-2.90625 z m 0.89063,0 c 0,1.17969 0.13281,1.96484 0.40625,2.35938 0.28125,0.38671 0.625,0.57812 1.03125,0.57812 0.40625,0 0.74218,-0.19141 1.01562,-0.57812 0.28125,-0.39454 0.42188,-1.17969 0.42188,-2.35938 0,-1.17578 -0.14063,-1.95703 -0.42188,-2.34375 -0.27344,-0.38281 -0.61719,-0.57812 -1.03125,-0.57812 -0.39844,0 -0.71875,0.16796 -0.96875,0.5 -0.30469,0.4375 -0.45312,1.24609 -0.45312,2.42187 z m 0,0"
       id="path25742" />
    <path
       style="fill:#ffffff;fill-opacity:1;fill-rule:nonzero;stroke:none"
       d="m 46.785156,113.5 c 0,-0.84375 0.08203,-1.51953 0.25,-2.03125 0.175782,-0.51953 0.4375,-0.92187 0.78125,-1.20312 0.34375,-0.28125 0.773438,-0.42188 1.296875,-0.42188 0.382813,0 0.71875,0.0781 1,0.23438 0.289063,0.15625 0.53125,0.38281 0.71875,0.67187 0.195313,0.29297 0.347657,0.64844 0.453125,1.0625 0.101563,0.41797 0.15625,0.98047 0.15625,1.6875 0,0.84375 -0.08984,1.52734 -0.265625,2.04688 -0.167969,0.51171 -0.421875,0.90625 -0.765625,1.1875 -0.34375,0.28125 -0.777344,0.42187 -1.296875,0.42187 -0.6875,0 -1.230469,-0.25 -1.625,-0.75 -0.46875,-0.59375 -0.703125,-1.5625 -0.703125,-2.90625 z m 0.890625,0 c 0,1.17969 0.132813,1.96484 0.40625,2.35938 0.28125,0.38671 0.625,0.57812 1.03125,0.57812 0.40625,0 0.742188,-0.19141 1.015625,-0.57812 0.28125,-0.39454 0.421875,-1.17969 0.421875,-2.35938 0,-1.17578 -0.140625,-1.95703 -0.421875,-2.34375 -0.273437,-0.38281 -0.617187,-0.57812 -1.03125,-0.57812 -0.398437,0 -0.71875,0.16796 -0.96875,0.5 -0.304687,0.4375 -0.453125,1.24609 -0.453125,2.42187 z m 0,0"
       id="path25744" />
    <path
       style="fill:#ffffff;fill-opacity:1;fill-rule:nonzero;stroke:none"
       d="m 52.589844,116.03125 h 1 v 1 h -1 z m 0,0"
       id="path25746" />
    <path
       style="fill:#ffffff;fill-opacity:1;fill-rule:nonzero;stroke:none"
       d="m 58.050781,117.03125 h -0.875 v -5.59375 c -0.210937,0.19922 -0.484375,0.40234 -0.828125,0.60938 -0.34375,0.19921 -0.652344,0.34375 -0.921875,0.4375 v -0.84375 c 0.488281,-0.22657 0.914063,-0.50391 1.28125,-0.82813 0.375,-0.33203 0.632813,-0.65625 0.78125,-0.96875 h 0.5625 z m 0,0"
       id="path25748" />
    <path
       style="fill:#ffffff;fill-opacity:1;fill-rule:nonzero;stroke:none"
       d="m 88.320312,113.5 c 0,-0.84375 0.08203,-1.51953 0.25,-2.03125 0.175782,-0.51953 0.4375,-0.92187 0.78125,-1.20312 0.34375,-0.28125 0.773438,-0.42188 1.296876,-0.42188 0.382812,0 0.71875,0.0781 1,0.23438 0.289062,0.15625 0.53125,0.38281 0.71875,0.67187 0.195312,0.29297 0.347656,0.64844 0.453124,1.0625 0.101563,0.41797 0.15625,0.98047 0.15625,1.6875 0,0.84375 -0.08984,1.52734 -0.265624,2.04688 -0.167969,0.51171 -0.421876,0.90625 -0.765626,1.1875 -0.34375,0.28125 -0.777343,0.42187 -1.296874,0.42187 -0.6875,0 -1.230469,-0.25 -1.625,-0.75 -0.46875,-0.59375 -0.703126,-1.5625 -0.703126,-2.90625 z m 0.890626,0 c 0,1.17969 0.132812,1.96484 0.40625,2.35938 0.28125,0.38671 0.625,0.57812 1.03125,0.57812 0.40625,0 0.742187,-0.19141 1.015624,-0.57812 0.28125,-0.39454 0.421876,-1.17969 0.421876,-2.35938 0,-1.17578 -0.140626,-1.95703 -0.421876,-2.34375 -0.273437,-0.38281 -0.617187,-0.57812 -1.03125,-0.57812 -0.398437,0 -0.71875,0.16796 -0.96875,0.5 -0.304687,0.4375 -0.453124,1.24609 -0.453124,2.42187 z m 0,0"
       id="path25750" />
    <path
       style="fill:#ffffff;fill-opacity:1;fill-rule:nonzero;stroke:none"
       d="m 94.125,116.03125 h 1 v 1 h -1 z m 0,0"
       id="path25752" />
    <path
       style="fill:#ffffff;fill-opacity:1;fill-rule:nonzero;stroke:none"
       d="m 99.105469,117.03125 v -1.71875 h -3.109375 v -0.79687 l 3.265625,-4.64063 h 0.71875 v 4.64063 h 0.968751 v 0.79687 h -0.968751 v 1.71875 z m 0,-2.51562 v -3.23438 l -2.25,3.23438 z m 0,0"
       id="path25754" />
    <path
       style="fill:#ffffff;fill-opacity:1;fill-rule:nonzero;stroke:none"
       d="m 165.6875,117.14844 v -1.71875 h -3.10938 v -0.79688 l 3.26563,-4.64062 h 0.71875 v 4.64062 h 0.96875 v 0.79688 h -0.96875 v 1.71875 z m 0,-2.51563 v -3.23437 l -2.25,3.23437 z m 0,0"
       id="path25756" />
    <path
       style="fill:#ffffff;fill-opacity:1;fill-rule:nonzero;stroke:none"
       d="m 233.16406,117.03125 v -1.71875 h -3.10937 v -0.79687 l 3.26562,-4.64063 h 0.71875 v 4.64063 h 0.96875 v 0.79687 h -0.96875 v 1.71875 z m 0,-2.51562 v -3.23438 l -2.25,3.23438 z m 0,0"
       id="path25758" />
    <path
       style="fill:#ffffff;fill-opacity:1;fill-rule:nonzero;stroke:none"
       d="m 235.67187,113.5 c 0,-0.84375 0.082,-1.51953 0.25,-2.03125 0.17579,-0.51953 0.4375,-0.92187 0.78125,-1.20312 0.34375,-0.28125 0.77344,-0.42188 1.29688,-0.42188 0.38281,0 0.71875,0.0781 1,0.23438 0.28906,0.15625 0.53125,0.38281 0.71875,0.67187 0.19531,0.29297 0.34766,0.64844 0.45312,1.0625 0.10157,0.41797 0.15625,0.98047 0.15625,1.6875 0,0.84375 -0.0898,1.52734 -0.26562,2.04688 -0.16797,0.51171 -0.42188,0.90625 -0.76563,1.1875 -0.34375,0.28125 -0.77734,0.42187 -1.29687,0.42187 -0.6875,0 -1.23047,-0.25 -1.625,-0.75 -0.46875,-0.59375 -0.70313,-1.5625 -0.70313,-2.90625 z m 0.89063,0 c 0,1.17969 0.13281,1.96484 0.40625,2.35938 0.28125,0.38671 0.625,0.57812 1.03125,0.57812 0.40625,0 0.74219,-0.19141 1.01562,-0.57812 0.28125,-0.39454 0.42188,-1.17969 0.42188,-2.35938 0,-1.17578 -0.14063,-1.95703 -0.42188,-2.34375 -0.27343,-0.38281 -0.61718,-0.57812 -1.03125,-0.57812 -0.39843,0 -0.71875,0.16796 -0.96875,0.5 -0.30468,0.4375 -0.45312,1.24609 -0.45312,2.42187 z m 0,0"
       id="path25760" />
    <path
       style="fill:#ffffff;fill-opacity:1;fill-rule:nonzero;stroke:none"
       d="m 23.4375,43.894531 -0.859375,0.0625 c -0.08594,-0.34375 -0.199219,-0.59375 -0.34375,-0.75 -0.242187,-0.25 -0.53125,-0.375 -0.875,-0.375 -0.28125,0 -0.527344,0.07813 -0.734375,0.234375 -0.28125,0.210938 -0.5,0.507813 -0.65625,0.890625 -0.15625,0.386719 -0.242188,0.9375 -0.25,1.65625 0.207031,-0.320312 0.460938,-0.5625 0.765625,-0.71875 0.3125,-0.15625 0.632813,-0.234375 0.96875,-0.234375 0.59375,0 1.09375,0.21875 1.5,0.65625 0.414063,0.429688 0.625,0.980469 0.625,1.65625 0,0.449219 -0.101563,0.867188 -0.296875,1.25 -0.199219,0.386719 -0.46875,0.683594 -0.8125,0.890625 -0.335938,0.207031 -0.714844,0.3125 -1.140625,0.3125 -0.730469,0 -1.328125,-0.269531 -1.796875,-0.8125 -0.460938,-0.539062 -0.6875,-1.425781 -0.6875,-2.65625 0,-1.382812 0.253906,-2.394531 0.765625,-3.03125 0.445313,-0.539062 1.046875,-0.8125 1.796875,-0.8125 0.570312,0 1.035156,0.164063 1.390625,0.484375 0.363281,0.3125 0.578125,0.746094 0.640625,1.296875 z m -3.578125,3.09375 c 0,0.304688 0.0625,0.59375 0.1875,0.875 0.125,0.273438 0.300781,0.480469 0.53125,0.625 0.238281,0.148438 0.484375,0.21875 0.734375,0.21875 0.375,0 0.691406,-0.148437 0.953125,-0.453125 0.269531,-0.300781 0.40625,-0.707031 0.40625,-1.21875 0,-0.5 -0.136719,-0.890625 -0.40625,-1.171875 -0.261719,-0.289062 -0.589844,-0.4375 -0.984375,-0.4375 -0.398438,0 -0.734375,0.148438 -1.015625,0.4375 -0.273437,0.28125 -0.40625,0.65625 -0.40625,1.125 z m 0,0"
       id="path25772" />
    <path
       style="fill:#ffffff;fill-opacity:1;fill-rule:nonzero;stroke:none"
       d="m 24.214844,45.769531 c 0,-0.84375 0.08203,-1.519531 0.25,-2.03125 0.175781,-0.519531 0.4375,-0.921875 0.78125,-1.203125 0.34375,-0.28125 0.773437,-0.421875 1.296875,-0.421875 0.382812,0 0.71875,0.07813 1,0.234375 0.289062,0.15625 0.53125,0.382813 0.71875,0.671875 0.195312,0.292969 0.347656,0.648438 0.453125,1.0625 0.101562,0.417969 0.15625,0.980469 0.15625,1.6875 0,0.84375 -0.08984,1.527344 -0.265625,2.046875 -0.167969,0.511719 -0.421875,0.90625 -0.765625,1.1875 -0.34375,0.28125 -0.777344,0.421875 -1.296875,0.421875 -0.6875,0 -1.230469,-0.25 -1.625,-0.75 -0.46875,-0.59375 -0.703125,-1.5625 -0.703125,-2.90625 z m 0.890625,0 c 0,1.179688 0.132812,1.964844 0.40625,2.359375 0.28125,0.386719 0.625,0.578125 1.03125,0.578125 0.40625,0 0.742187,-0.191406 1.015625,-0.578125 0.28125,-0.394531 0.421875,-1.179687 0.421875,-2.359375 0,-1.175781 -0.140625,-1.957031 -0.421875,-2.34375 -0.273438,-0.382812 -0.617188,-0.578125 -1.03125,-0.578125 -0.398438,0 -0.71875,0.167969 -0.96875,0.5 -0.304688,0.4375 -0.453125,1.246094 -0.453125,2.421875 z m 0,0"
       id="path25774" />
    <path
       style="fill:#ffffff;fill-opacity:1;fill-rule:nonzero;stroke:none"
       d="m 18.816406,70.5625 0.921875,-0.07813 c 0.0625,0.449219 0.21875,0.789063 0.46875,1.015625 0.25,0.230469 0.550781,0.34375 0.90625,0.34375 0.414063,0 0.769531,-0.160156 1.0625,-0.484375 0.300781,-0.320313 0.453125,-0.742187 0.453125,-1.265625 0,-0.5 -0.140625,-0.894531 -0.421875,-1.1875 -0.28125,-0.289062 -0.652343,-0.4375 -1.109375,-0.4375 -0.28125,0 -0.539062,0.07031 -0.765625,0.203125 -0.230469,0.125 -0.414062,0.289063 -0.546875,0.484375 l -0.8125,-0.109375 0.6875,-3.671875 h 3.5625 v 0.84375 h -2.859375 l -0.390625,1.921875 c 0.4375,-0.300781 0.890625,-0.453125 1.359375,-0.453125 0.625,0 1.148438,0.21875 1.578125,0.65625 0.425782,0.429688 0.640625,0.984375 0.640625,1.671875 0,0.648437 -0.1875,1.203125 -0.5625,1.671875 -0.460937,0.585938 -1.085937,0.875 -1.875,0.875 -0.65625,0 -1.195312,-0.179688 -1.609375,-0.546875 -0.40625,-0.363281 -0.636718,-0.847656 -0.6875,-1.453125 z m 0,0"
       id="path25776" />
    <path
       style="fill:#ffffff;fill-opacity:1;fill-rule:nonzero;stroke:none"
       d="m 24.136719,70.5625 0.921875,-0.07813 c 0.0625,0.449219 0.21875,0.789063 0.46875,1.015625 0.25,0.230469 0.550781,0.34375 0.90625,0.34375 0.414062,0 0.769531,-0.160156 1.0625,-0.484375 0.300781,-0.320313 0.453125,-0.742187 0.453125,-1.265625 0,-0.5 -0.140625,-0.894531 -0.421875,-1.1875 -0.28125,-0.289062 -0.652344,-0.4375 -1.109375,-0.4375 -0.28125,0 -0.539063,0.07031 -0.765625,0.203125 -0.230469,0.125 -0.414063,0.289063 -0.546875,0.484375 l -0.8125,-0.109375 0.6875,-3.671875 h 3.5625 v 0.84375 h -2.859375 l -0.390625,1.921875 c 0.4375,-0.300781 0.890625,-0.453125 1.359375,-0.453125 0.625,0 1.148437,0.21875 1.578125,0.65625 0.425781,0.429688 0.640625,0.984375 0.640625,1.671875 0,0.648437 -0.1875,1.203125 -0.5625,1.671875 -0.460938,0.585938 -1.085938,0.875 -1.875,0.875 -0.65625,0 -1.195313,-0.179688 -1.609375,-0.546875 -0.40625,-0.363281 -0.636719,-0.847656 -0.6875,-1.453125 z m 0,0"
       id="path25778" />
    <path
       style="fill:#ffffff;fill-opacity:1;fill-rule:nonzero;stroke:none"
       d="m 18.890625,93.816406 0.921875,-0.07813 c 0.0625,0.449219 0.21875,0.789063 0.46875,1.015625 0.25,0.230469 0.550781,0.34375 0.90625,0.34375 0.414062,0 0.769531,-0.160156 1.0625,-0.484375 0.300781,-0.320312 0.453125,-0.742187 0.453125,-1.265625 0,-0.5 -0.140625,-0.894531 -0.421875,-1.1875 -0.28125,-0.289062 -0.652344,-0.4375 -1.109375,-0.4375 -0.28125,0 -0.539063,0.07031 -0.765625,0.203125 -0.230469,0.125 -0.414062,0.289063 -0.546875,0.484375 l -0.8125,-0.109375 0.6875,-3.671875 h 3.5625 v 0.84375 H 20.4375 l -0.390625,1.921875 c 0.4375,-0.300781 0.890625,-0.453125 1.359375,-0.453125 0.625,0 1.148438,0.21875 1.578125,0.65625 0.425781,0.429688 0.640625,0.984375 0.640625,1.671875 0,0.648438 -0.1875,1.203125 -0.5625,1.671875 -0.460938,0.585938 -1.085938,0.875 -1.875,0.875 -0.65625,0 -1.195312,-0.179687 -1.609375,-0.546875 -0.40625,-0.363281 -0.636719,-0.847656 -0.6875,-1.453125 z m 0,0"
       id="path25780" />
    <path
       style="fill:#ffffff;fill-opacity:1;fill-rule:nonzero;stroke:none"
       d="m 24.214844,92.160156 c 0,-0.84375 0.08203,-1.519531 0.25,-2.03125 0.175781,-0.519531 0.4375,-0.921875 0.78125,-1.203125 0.34375,-0.28125 0.773437,-0.421875 1.296875,-0.421875 0.382812,0 0.71875,0.07813 1,0.234375 0.289062,0.15625 0.53125,0.382813 0.71875,0.671875 0.195312,0.292969 0.347656,0.648438 0.453125,1.0625 0.101562,0.417969 0.15625,0.980469 0.15625,1.6875 0,0.84375 -0.08984,1.527344 -0.265625,2.046875 -0.167969,0.511719 -0.421875,0.90625 -0.765625,1.1875 -0.34375,0.28125 -0.777344,0.421875 -1.296875,0.421875 -0.6875,0 -1.230469,-0.25 -1.625,-0.75 -0.46875,-0.59375 -0.703125,-1.5625 -0.703125,-2.90625 z m 0.890625,0 c 0,1.179688 0.132812,1.964844 0.40625,2.359375 0.28125,0.386719 0.625,0.578125 1.03125,0.578125 0.40625,0 0.742187,-0.191406 1.015625,-0.578125 0.28125,-0.394531 0.421875,-1.179687 0.421875,-2.359375 0,-1.175781 -0.140625,-1.957031 -0.421875,-2.34375 -0.273438,-0.382812 -0.617188,-0.578125 -1.03125,-0.578125 -0.398438,0 -0.71875,0.167969 -0.96875,0.5 -0.304688,0.4375 -0.453125,1.246094 -0.453125,2.421875 z m 0,0"
       id="path25782" />
    <path
       style="fill:#ffffff;fill-opacity:1;fill-rule:nonzero;stroke:none"
       d="m 256.46484,36.9375 h 2.70313 v 0.875 h -2.70313 z m 0,0"
       id="path25784" />
    <path
       style="fill:#ffffff;fill-opacity:1;fill-rule:nonzero;stroke:none"
       d="m 259.76562,38.09375 0.92188,-0.07813 c 0.0625,0.449219 0.21875,0.789063 0.46875,1.015625 0.25,0.230469 0.55078,0.34375 0.90625,0.34375 0.41406,0 0.76953,-0.160156 1.0625,-0.484375 0.30078,-0.320313 0.45312,-0.742187 0.45312,-1.265625 0,-0.5 -0.14062,-0.894531 -0.42187,-1.1875 C 262.875,36.148438 262.50391,36 262.04687,36 c -0.28125,0 -0.53906,0.07031 -0.76562,0.203125 -0.23047,0.125 -0.41406,0.289063 -0.54688,0.484375 l -0.8125,-0.109375 0.6875,-3.671875 h 3.5625 V 33.75 h -2.85937 l -0.39063,1.921875 c 0.4375,-0.300781 0.89063,-0.453125 1.35938,-0.453125 0.625,0 1.14844,0.21875 1.57812,0.65625 0.42579,0.429688 0.64063,0.984375 0.64063,1.671875 0,0.648437 -0.1875,1.203125 -0.5625,1.671875 -0.46094,0.585938 -1.08594,0.875 -1.875,0.875 -0.65625,0 -1.19531,-0.179688 -1.60938,-0.546875 -0.40625,-0.363281 -0.63671,-0.847656 -0.6875,-1.453125 z m 0,0"
       id="path25786" />
    <path
       style="fill:#ffffff;fill-opacity:1;fill-rule:nonzero;stroke:none"
       d="m 265.08594,38.09375 0.92187,-0.07813 c 0.0625,0.449219 0.21875,0.789063 0.46875,1.015625 0.25,0.230469 0.55078,0.34375 0.90625,0.34375 0.41406,0 0.76953,-0.160156 1.0625,-0.484375 0.30078,-0.320313 0.45313,-0.742187 0.45313,-1.265625 0,-0.5 -0.14063,-0.894531 -0.42188,-1.1875 C 268.19531,36.148438 267.82422,36 267.36719,36 c -0.28125,0 -0.53907,0.07031 -0.76563,0.203125 -0.23047,0.125 -0.41406,0.289063 -0.54687,0.484375 l -0.8125,-0.109375 0.6875,-3.671875 h 3.5625 V 33.75 h -2.85938 l -0.39062,1.921875 c 0.4375,-0.300781 0.89062,-0.453125 1.35937,-0.453125 0.625,0 1.14844,0.21875 1.57813,0.65625 0.42578,0.429688 0.64062,0.984375 0.64062,1.671875 0,0.648437 -0.1875,1.203125 -0.5625,1.671875 -0.46094,0.585938 -1.08594,0.875 -1.875,0.875 -0.65625,0 -1.19531,-0.179688 -1.60937,-0.546875 -0.40625,-0.363281 -0.63672,-0.847656 -0.6875,-1.453125 z m 0,0"
       id="path25788" />
    <path
       style="fill:#ffffff;fill-opacity:1;fill-rule:nonzero;stroke:none"
       d="m 255.05469,13.917969 h 2.70312 v 0.875 h -2.70312 z m 0,0"
       id="path25790" />
    <path
       style="fill:#ffffff;fill-opacity:1;fill-rule:nonzero;stroke:none"
       d="m 262.90234,11.542969 -0.85937,0.0625 c -0.0859,-0.34375 -0.19922,-0.59375 -0.34375,-0.75 -0.24219,-0.25 -0.53125,-0.375 -0.875,-0.375 -0.28125,0 -0.52735,0.07813 -0.73438,0.234375 -0.28125,0.210937 -0.5,0.507812 -0.65625,0.890625 -0.15625,0.386719 -0.24218,0.9375 -0.25,1.65625 0.20703,-0.320313 0.46094,-0.5625 0.76563,-0.71875 0.3125,-0.15625 0.63281,-0.234375 0.96875,-0.234375 0.59375,0 1.09375,0.21875 1.5,0.65625 0.41406,0.429687 0.625,0.980468 0.625,1.65625 0,0.449218 -0.10156,0.867187 -0.29688,1.25 -0.19922,0.386718 -0.46875,0.683594 -0.8125,0.890625 -0.33593,0.207031 -0.71484,0.3125 -1.14062,0.3125 -0.73047,0 -1.32813,-0.269531 -1.79688,-0.8125 -0.46093,-0.539063 -0.6875,-1.425781 -0.6875,-2.65625 0,-1.382813 0.25391,-2.394531 0.76563,-3.03125 0.44531,-0.539063 1.04687,-0.8125 1.79687,-0.8125 0.57032,0 1.03516,0.164062 1.39063,0.484375 0.36328,0.3125 0.57812,0.746094 0.64062,1.296875 z m -3.57812,3.09375 c 0,0.304687 0.0625,0.59375 0.1875,0.875 0.125,0.273437 0.30078,0.480469 0.53125,0.625 0.23828,0.148437 0.48437,0.21875 0.73437,0.21875 0.375,0 0.69141,-0.148438 0.95313,-0.453125 0.26953,-0.300782 0.40625,-0.707032 0.40625,-1.21875 0,-0.5 -0.13672,-0.890625 -0.40625,-1.171875 -0.26172,-0.289063 -0.58985,-0.4375 -0.98438,-0.4375 -0.39843,0 -0.73437,0.148437 -1.01562,0.4375 -0.27344,0.28125 -0.40625,0.65625 -0.40625,1.125 z m 0,0"
       id="path25792" />
    <path
       style="fill:#ffffff;fill-opacity:1;fill-rule:nonzero;stroke:none"
       d="m 263.67969,13.417969 c 0,-0.84375 0.082,-1.519531 0.25,-2.03125 0.17578,-0.519531 0.4375,-0.921875 0.78125,-1.203125 0.34375,-0.28125 0.77343,-0.421875 1.29687,-0.421875 0.38281,0 0.71875,0.078125 1,0.234375 0.28906,0.15625 0.53125,0.382812 0.71875,0.671875 0.19531,0.292969 0.34766,0.648437 0.45313,1.0625 0.10156,0.417969 0.15625,0.980469 0.15625,1.6875 0,0.84375 -0.0899,1.527343 -0.26563,2.046875 -0.16797,0.511718 -0.42187,0.90625 -0.76562,1.1875 -0.34375,0.28125 -0.77735,0.421875 -1.29688,0.421875 -0.6875,0 -1.23047,-0.25 -1.625,-0.75 -0.46875,-0.59375 -0.70312,-1.5625 -0.70312,-2.90625 z m 0.89062,0 c 0,1.179687 0.13281,1.964843 0.40625,2.359375 0.28125,0.386718 0.625,0.578125 1.03125,0.578125 0.40625,0 0.74219,-0.191407 1.01563,-0.578125 0.28125,-0.394532 0.42187,-1.179688 0.42187,-2.359375 0,-1.175781 -0.14062,-1.957031 -0.42187,-2.34375 -0.27344,-0.382813 -0.61719,-0.578125 -1.03125,-0.578125 -0.39844,0 -0.71875,0.167968 -0.96875,0.5 -0.30469,0.4375 -0.45313,1.246094 -0.45313,2.421875 z m 0,0"
       id="path25794" />
    <path
       style="fill:#ffffff;fill-opacity:1;fill-rule:nonzero;stroke:none"
       d="m 255.67969,60.082031 h 2.70312 v 0.875 h -2.70312 z m 0,0"
       id="path25796" />
    <path
       style="fill:#ffffff;fill-opacity:1;fill-rule:nonzero;stroke:none"
       d="m 258.98437,61.238281 0.92188,-0.07813 c 0.0625,0.449219 0.21875,0.789063 0.46875,1.015625 0.25,0.230469 0.55078,0.34375 0.90625,0.34375 0.41406,0 0.76953,-0.160156 1.0625,-0.484375 0.30078,-0.320312 0.45312,-0.742187 0.45312,-1.265625 0,-0.5 -0.14062,-0.894531 -0.42187,-1.1875 -0.28125,-0.289062 -0.65234,-0.4375 -1.10938,-0.4375 -0.28125,0 -0.53906,0.07031 -0.76562,0.203125 -0.23047,0.125 -0.41406,0.289063 -0.54688,0.484375 l -0.8125,-0.109375 0.6875,-3.671875 h 3.5625 v 0.84375 h -2.85937 l -0.39063,1.921875 c 0.4375,-0.300781 0.89063,-0.453125 1.35938,-0.453125 0.625,0 1.14844,0.21875 1.57812,0.65625 0.42579,0.429688 0.64063,0.984375 0.64063,1.671875 0,0.648438 -0.1875,1.203125 -0.5625,1.671875 -0.46094,0.585938 -1.08594,0.875 -1.875,0.875 -0.65625,0 -1.19531,-0.179687 -1.60938,-0.546875 -0.40625,-0.363281 -0.63671,-0.847656 -0.6875,-1.453125 z m 0,0"
       id="path25798" />
    <path
       style="fill:#ffffff;fill-opacity:1;fill-rule:nonzero;stroke:none"
       d="m 264.30469,59.582031 c 0,-0.84375 0.082,-1.519531 0.25,-2.03125 0.17578,-0.519531 0.4375,-0.921875 0.78125,-1.203125 0.34375,-0.28125 0.77343,-0.421875 1.29687,-0.421875 0.38281,0 0.71875,0.07813 1,0.234375 0.28906,0.15625 0.53125,0.382813 0.71875,0.671875 0.19531,0.292969 0.34766,0.648438 0.45313,1.0625 0.10156,0.417969 0.15625,0.980469 0.15625,1.6875 0,0.84375 -0.0899,1.527344 -0.26563,2.046875 -0.16797,0.511719 -0.42187,0.90625 -0.76562,1.1875 -0.34375,0.28125 -0.77735,0.421875 -1.29688,0.421875 -0.6875,0 -1.23047,-0.25 -1.625,-0.75 -0.46875,-0.59375 -0.70312,-1.5625 -0.70312,-2.90625 z m 0.89062,0 c 0,1.179688 0.13281,1.964844 0.40625,2.359375 0.28125,0.386719 0.625,0.578125 1.03125,0.578125 0.40625,0 0.74219,-0.191406 1.01563,-0.578125 0.28125,-0.394531 0.42187,-1.179687 0.42187,-2.359375 0,-1.175781 -0.14062,-1.957031 -0.42187,-2.34375 -0.27344,-0.382812 -0.61719,-0.578125 -1.03125,-0.578125 -0.39844,0 -0.71875,0.167969 -0.96875,0.5 -0.30469,0.4375 -0.45313,1.246094 -0.45313,2.421875 z m 0,0"
       id="path25800" />
  </g>
</svg>
