<?xml version="1.0" encoding="UTF-8"?>
<svg xmlns="http://www.w3.org/2000/svg" xmlns:xlink="http://www.w3.org/1999/xlink" width="256.466248pt" height="157.873428pt" viewBox="0 0 256.466248 157.873428" version="1.1">
<defs>
<clipPath id="clip1">
  <path d="M 252 138 L 256.464844 138 L 256.464844 145 L 252 145 Z M 252 138 "/>
</clipPath>
<clipPath id="clip2">
  <path d="M 164 149 L 166 149 L 166 157.875 L 164 157.875 Z M 164 149 "/>
</clipPath>
<clipPath id="clip3">
  <path d="M 178 149 L 180 149 L 180 157.875 L 178 157.875 Z M 178 149 "/>
</clipPath>
</defs>
<g id="surface1">
<path style="fill:none;stroke-width:0.500001;stroke-linecap:butt;stroke-linejoin:round;stroke:rgb(100%,100%,100%);stroke-opacity:1;stroke-miterlimit:10;" d="M 19.777344 0.601562 L 254.410156 0.601562 L 254.410156 42.535156 L 19.777344 42.535156 Z M 19.777344 0.601562 "/>
<path style="fill:none;stroke-width:0.8;stroke-linecap:butt;stroke-linejoin:round;stroke:rgb(0%,0%,0%);stroke-opacity:1;stroke-miterlimit:10;" d="M 218.3125 3.785156 L 218.84375 3.785156 L 218.84375 38.820312 L 220.964844 38.820312 L 220.964844 3.785156 L 220.964844 38.820312 L 223.089844 38.820312 L 223.089844 3.785156 L 223.621094 3.785156 L 223.621094 38.820312 L 225.742188 38.820312 L 225.742188 3.785156 L 225.742188 38.820312 L 227.867188 38.820312 L 227.867188 3.785156 L 228.398438 3.785156 L 228.398438 38.820312 L 229.992188 38.820312 L 229.992188 3.785156 L 230.523438 3.785156 L 230.523438 38.820312 L 232.644531 38.820312 L 232.644531 3.785156 L 233.175781 3.785156 L 233.175781 38.820312 L 234.769531 38.820312 L 234.769531 3.785156 L 235.828125 3.785156 L 235.828125 38.820312 L 237.421875 38.820312 L 237.421875 3.785156 L 237.953125 3.785156 L 237.953125 38.820312 L 239.546875 38.820312 L 239.546875 3.785156 L 240.609375 3.785156 L 240.609375 38.820312 L 241.667969 38.820312 L 241.667969 3.785156 L 242.730469 3.785156 L 242.730469 38.820312 L 244.324219 38.820312 L 244.324219 3.785156 L 245.386719 3.785156 L 245.386719 38.820312 L 246.445312 38.820312 L 246.445312 3.785156 L 248.039062 3.785156 L 248.039062 38.820312 L 249.101562 38.820312 L 249.101562 3.785156 L 250.164062 3.785156 L 250.164062 38.820312 L 251.222656 38.820312 L 251.222656 3.785156 L 252.816406 3.785156 L 252.816406 38.820312 L 253.347656 38.820312 L 253.347656 3.785156 L 254.941406 3.785156 "/>
<path style="fill:none;stroke-width:0.8;stroke-linecap:butt;stroke-linejoin:round;stroke:rgb(0%,0%,0%);stroke-opacity:1;stroke-miterlimit:10;" d="M 182.214844 38.820312 L 182.746094 38.820312 L 182.746094 3.785156 L 183.277344 3.785156 L 183.277344 38.820312 L 184.867188 38.820312 L 184.867188 3.785156 L 185.398438 3.785156 L 185.398438 38.820312 L 187.523438 38.820312 L 187.523438 3.785156 L 187.523438 38.820312 L 189.648438 38.820312 L 189.648438 3.785156 L 190.175781 3.785156 L 190.175781 38.820312 L 192.300781 38.820312 L 192.300781 3.785156 L 192.300781 38.820312 L 194.425781 38.820312 L 194.425781 3.785156 L 194.957031 3.785156 L 194.957031 38.820312 L 197.078125 38.820312 L 197.078125 3.785156 L 197.078125 38.820312 L 199.734375 38.820312 L 199.734375 3.785156 L 199.734375 38.820312 L 201.855469 38.820312 L 201.855469 3.785156 L 201.855469 38.820312 L 204.511719 38.820312 L 204.511719 3.785156 L 204.511719 38.820312 L 206.632812 38.820312 L 206.632812 3.785156 L 206.632812 38.820312 L 209.289062 38.820312 L 209.289062 3.785156 L 209.289062 38.820312 L 211.410156 38.820312 L 211.410156 3.785156 L 211.410156 38.820312 L 213.535156 38.820312 L 213.535156 3.785156 L 214.066406 3.785156 L 214.066406 38.820312 L 216.1875 38.820312 L 216.1875 3.785156 L 216.1875 38.820312 L 218.3125 38.820312 L 218.3125 3.785156 "/>
<path style="fill:none;stroke-width:0.8;stroke-linecap:butt;stroke-linejoin:round;stroke:rgb(0%,0%,0%);stroke-opacity:1;stroke-miterlimit:10;" d="M 145.585938 38.820312 L 146.117188 38.820312 L 146.117188 3.785156 L 148.242188 3.785156 L 148.242188 38.820312 L 148.242188 3.785156 L 150.363281 3.785156 L 150.363281 38.820312 L 150.894531 38.820312 L 150.894531 3.785156 L 153.019531 3.785156 L 153.019531 38.820312 L 153.019531 3.785156 L 155.140625 3.785156 L 155.140625 38.820312 L 155.671875 38.820312 L 155.671875 3.785156 L 157.265625 3.785156 L 157.265625 38.820312 L 158.328125 38.820312 L 158.328125 3.785156 L 159.917969 3.785156 L 159.917969 38.820312 L 160.449219 38.820312 L 160.449219 3.785156 L 162.042969 3.785156 L 162.042969 38.820312 L 163.105469 38.820312 L 163.105469 3.785156 L 164.695312 3.785156 L 164.695312 38.820312 L 165.226562 38.820312 L 165.226562 3.785156 L 166.820312 3.785156 L 166.820312 38.820312 L 167.882812 38.820312 L 167.882812 3.785156 L 168.945312 3.785156 L 168.945312 38.820312 L 170.535156 38.820312 L 170.535156 3.785156 L 171.597656 3.785156 L 171.597656 38.820312 L 172.660156 38.820312 L 172.660156 3.785156 L 173.722656 3.785156 L 173.722656 38.820312 L 175.3125 38.820312 L 175.3125 3.785156 L 175.84375 3.785156 L 175.84375 38.820312 L 177.4375 38.820312 L 177.4375 3.785156 L 178.5 3.785156 L 178.5 38.820312 L 180.089844 38.820312 L 180.089844 3.785156 L 180.621094 3.785156 L 180.621094 38.820312 L 182.214844 38.820312 "/>
<path style="fill:none;stroke-width:0.8;stroke-linecap:butt;stroke-linejoin:round;stroke:rgb(0%,0%,0%);stroke-opacity:1;stroke-miterlimit:10;" d="M 109.488281 3.785156 L 110.019531 3.785156 L 110.019531 38.820312 L 110.550781 38.820312 L 110.550781 3.785156 L 112.144531 3.785156 L 112.144531 38.820312 L 112.675781 38.820312 L 112.675781 3.785156 L 114.796875 3.785156 L 114.796875 38.820312 L 114.796875 3.785156 L 116.921875 3.785156 L 116.921875 38.820312 L 117.453125 38.820312 L 117.453125 3.785156 L 119.574219 3.785156 L 119.574219 38.820312 L 119.574219 3.785156 L 122.230469 3.785156 L 122.230469 38.820312 L 122.230469 3.785156 L 124.351562 3.785156 L 124.351562 38.820312 L 124.351562 3.785156 L 127.007812 3.785156 L 127.007812 38.820312 L 127.007812 3.785156 L 129.128906 3.785156 L 129.128906 38.820312 L 129.128906 3.785156 L 131.785156 3.785156 L 131.785156 38.820312 L 131.785156 3.785156 L 133.90625 3.785156 L 133.90625 38.820312 L 133.90625 3.785156 L 136.5625 3.785156 L 136.5625 38.820312 L 136.5625 3.785156 L 138.683594 3.785156 L 138.683594 38.820312 L 138.683594 3.785156 L 140.808594 3.785156 L 140.808594 38.820312 L 141.339844 38.820312 L 141.339844 3.785156 L 143.460938 3.785156 L 143.460938 38.820312 L 143.460938 3.785156 L 145.585938 3.785156 L 145.585938 38.820312 "/>
<path style="fill:none;stroke-width:0.8;stroke-linecap:butt;stroke-linejoin:round;stroke:rgb(0%,0%,0%);stroke-opacity:1;stroke-miterlimit:10;" d="M 72.859375 3.785156 L 73.390625 3.785156 L 73.390625 38.820312 L 75.515625 38.820312 L 75.515625 3.785156 L 75.515625 38.820312 L 77.636719 38.820312 L 77.636719 3.785156 L 78.167969 3.785156 L 78.167969 38.820312 L 80.292969 38.820312 L 80.292969 3.785156 L 80.824219 3.785156 L 80.824219 38.820312 L 82.417969 38.820312 L 82.417969 3.785156 L 82.945312 3.785156 L 82.945312 38.820312 L 84.539062 38.820312 L 84.539062 3.785156 L 85.601562 3.785156 L 85.601562 38.820312 L 87.195312 38.820312 L 87.195312 3.785156 L 87.722656 3.785156 L 87.722656 38.820312 L 89.316406 38.820312 L 89.316406 3.785156 L 90.378906 3.785156 L 90.378906 38.820312 L 91.441406 38.820312 L 91.441406 3.785156 L 93.03125 3.785156 L 93.03125 38.820312 L 94.09375 38.820312 L 94.09375 3.785156 L 95.15625 3.785156 L 95.15625 38.820312 L 96.21875 38.820312 L 96.21875 3.785156 L 97.808594 3.785156 L 97.808594 38.820312 L 98.871094 38.820312 L 98.871094 3.785156 L 99.933594 3.785156 L 99.933594 38.820312 L 100.996094 38.820312 L 100.996094 3.785156 L 102.589844 3.785156 L 102.589844 38.820312 L 103.117188 38.820312 L 103.117188 3.785156 L 105.242188 3.785156 L 105.242188 38.820312 L 105.773438 38.820312 L 105.773438 3.785156 L 107.367188 3.785156 L 107.367188 38.820312 L 107.894531 38.820312 L 107.894531 3.785156 L 109.488281 3.785156 "/>
<path style="fill:none;stroke-width:0.8;stroke-linecap:butt;stroke-linejoin:round;stroke:rgb(0%,0%,0%);stroke-opacity:1;stroke-miterlimit:10;" d="M 36.765625 38.820312 L 37.292969 38.820312 L 37.292969 3.785156 L 37.824219 3.785156 L 37.824219 38.820312 L 39.417969 38.820312 L 39.417969 3.785156 L 39.949219 3.785156 L 39.949219 38.820312 L 42.070312 38.820312 L 42.070312 3.785156 L 42.070312 38.820312 L 44.726562 38.820312 L 44.726562 3.785156 L 44.726562 38.820312 L 46.851562 38.820312 L 46.851562 3.785156 L 46.851562 38.820312 L 49.503906 38.820312 L 49.503906 3.785156 L 49.503906 38.820312 L 51.628906 38.820312 L 51.628906 3.785156 L 51.628906 38.820312 L 54.28125 38.820312 L 54.28125 3.785156 L 54.28125 38.820312 L 56.40625 38.820312 L 56.40625 3.785156 L 56.40625 38.820312 L 59.058594 38.820312 L 59.058594 3.785156 L 59.058594 38.820312 L 61.183594 38.820312 L 61.183594 3.785156 L 61.183594 38.820312 L 63.835938 38.820312 L 63.835938 3.785156 L 63.835938 38.820312 L 65.960938 38.820312 L 65.960938 3.785156 L 65.960938 38.820312 L 68.082031 38.820312 L 68.082031 3.785156 L 68.613281 3.785156 L 68.613281 38.820312 L 70.738281 38.820312 L 70.738281 3.785156 L 70.738281 38.820312 L 72.859375 38.820312 L 72.859375 3.785156 "/>
<path style="fill:none;stroke-width:0.8;stroke-linecap:butt;stroke-linejoin:round;stroke:rgb(0%,0%,0%);stroke-opacity:1;stroke-miterlimit:10;" d="M 19.777344 38.820312 L 20.308594 38.820312 L 20.308594 3.785156 L 21.371094 3.785156 L 21.371094 38.820312 L 22.429688 38.820312 L 22.429688 3.785156 L 23.492188 3.785156 L 23.492188 38.820312 L 25.085938 38.820312 L 25.085938 3.785156 L 26.148438 3.785156 L 26.148438 38.820312 L 27.207031 38.820312 L 27.207031 3.785156 L 28.269531 3.785156 L 28.269531 38.820312 L 29.863281 38.820312 L 29.863281 3.785156 L 30.394531 3.785156 L 30.394531 38.820312 L 32.515625 38.820312 L 32.515625 3.785156 L 33.046875 3.785156 L 33.046875 38.820312 L 34.640625 38.820312 L 34.640625 3.785156 L 35.171875 3.785156 L 35.171875 38.820312 L 36.765625 38.820312 "/>
<path style="fill:none;stroke-width:0.500001;stroke-linecap:butt;stroke-linejoin:round;stroke:rgb(100%,100%,100%);stroke-opacity:1;stroke-miterlimit:10;" d="M 19.777344 46.558594 L 254.410156 46.558594 L 254.410156 88.496094 L 19.777344 88.496094 Z M 19.777344 46.558594 "/>
<path style="fill:none;stroke-width:0.8;stroke-linecap:butt;stroke-linejoin:round;stroke:rgb(0%,0%,0%);stroke-opacity:1;stroke-miterlimit:10;" d="M 202.386719 84.78125 L 254.941406 84.78125 "/>
<path style="fill:none;stroke-width:0.8;stroke-linecap:butt;stroke-linejoin:round;stroke:rgb(0%,0%,0%);stroke-opacity:1;stroke-miterlimit:10;" d="M 156.203125 84.78125 L 156.734375 84.78125 L 156.734375 49.746094 L 156.734375 84.78125 L 163.636719 84.78125 L 163.636719 49.746094 L 164.167969 49.746094 L 164.167969 84.78125 L 170.535156 84.78125 L 170.535156 49.746094 L 170.535156 84.78125 L 175.84375 84.78125 L 175.84375 49.746094 L 175.84375 84.78125 L 182.214844 84.78125 L 182.214844 49.746094 L 182.214844 84.78125 L 189.648438 84.78125 L 189.648438 49.746094 L 189.648438 84.78125 L 202.386719 84.78125 "/>
<path style="fill:none;stroke-width:0.8;stroke-linecap:butt;stroke-linejoin:round;stroke:rgb(0%,0%,0%);stroke-opacity:1;stroke-miterlimit:10;" d="M 104.710938 84.78125 L 149.832031 84.78125 L 149.832031 49.746094 L 149.832031 84.78125 L 156.203125 84.78125 "/>
<path style="fill:none;stroke-width:0.8;stroke-linecap:butt;stroke-linejoin:round;stroke:rgb(0%,0%,0%);stroke-opacity:1;stroke-miterlimit:10;" d="M 52.15625 84.78125 L 104.710938 84.78125 "/>
<path style="fill:none;stroke-width:0.8;stroke-linecap:butt;stroke-linejoin:round;stroke:rgb(0%,0%,0%);stroke-opacity:1;stroke-miterlimit:10;" d="M 19.777344 84.78125 L 25.617188 84.78125 L 25.617188 49.746094 L 25.617188 84.78125 L 31.984375 84.78125 L 31.984375 49.746094 L 31.984375 84.78125 L 39.949219 84.78125 L 39.949219 49.746094 L 39.949219 84.78125 L 52.15625 84.78125 "/>
<path style="fill:none;stroke-width:0.500001;stroke-linecap:butt;stroke-linejoin:round;stroke:rgb(100%,100%,100%);stroke-opacity:1;stroke-miterlimit:10;" d="M 19.777344 91.988281 L 254.410156 91.988281 L 254.410156 133.925781 L 19.777344 133.925781 Z M 19.777344 91.988281 "/>
<path style="fill:none;stroke-width:0.8;stroke-linecap:butt;stroke-linejoin:round;stroke:rgb(0%,0%,0%);stroke-opacity:1;stroke-miterlimit:10;" d="M 207.695312 130.210938 L 224.152344 130.210938 L 224.152344 95.171875 L 224.152344 130.210938 L 232.113281 130.210938 L 232.113281 95.171875 L 232.113281 130.210938 L 239.015625 130.210938 L 239.015625 95.171875 L 239.015625 130.210938 L 244.324219 130.210938 L 244.324219 95.171875 L 244.324219 130.210938 L 250.164062 130.210938 L 250.164062 95.171875 L 250.164062 130.210938 L 254.941406 130.210938 "/>
<path style="fill:none;stroke-width:0.8;stroke-linecap:butt;stroke-linejoin:round;stroke:rgb(0%,0%,0%);stroke-opacity:1;stroke-miterlimit:10;" d="M 155.140625 130.210938 L 207.695312 130.210938 "/>
<path style="fill:none;stroke-width:0.8;stroke-linecap:butt;stroke-linejoin:round;stroke:rgb(0%,0%,0%);stroke-opacity:1;stroke-miterlimit:10;" d="M 104.710938 130.210938 L 107.367188 130.210938 L 107.367188 95.171875 L 107.367188 130.210938 L 114.796875 130.210938 L 114.796875 95.171875 L 114.796875 130.210938 L 155.140625 130.210938 "/>
<path style="fill:none;stroke-width:0.8;stroke-linecap:butt;stroke-linejoin:round;stroke:rgb(0%,0%,0%);stroke-opacity:1;stroke-miterlimit:10;" d="M 56.9375 130.210938 L 74.453125 130.210938 L 74.453125 95.171875 L 74.453125 130.210938 L 81.886719 130.210938 L 81.886719 95.171875 L 81.886719 130.210938 L 88.785156 130.210938 L 88.785156 95.171875 L 88.785156 130.210938 L 95.15625 130.210938 L 95.15625 95.171875 L 95.15625 130.210938 L 100.464844 130.210938 L 100.464844 95.171875 L 100.996094 130.210938 L 104.710938 130.210938 "/>
<path style="fill:none;stroke-width:0.8;stroke-linecap:butt;stroke-linejoin:round;stroke:rgb(0%,0%,0%);stroke-opacity:1;stroke-miterlimit:10;" d="M 19.777344 130.210938 L 19.777344 95.171875 L 19.777344 130.210938 L 56.9375 130.210938 "/>
<path style="fill:none;stroke-width:1.2;stroke-linecap:butt;stroke-linejoin:round;stroke:rgb(0%,0%,0%);stroke-opacity:1;stroke-miterlimit:10;" d="M 19.777344 0.601562 L 254.410156 0.601562 "/>
<path style="fill:none;stroke-width:1.2;stroke-linecap:butt;stroke-linejoin:round;stroke:rgb(0%,0%,0%);stroke-opacity:1;stroke-miterlimit:10;" d="M 19.777344 42.535156 L 254.410156 42.535156 "/>
<path style="fill:none;stroke-width:1.2;stroke-linecap:butt;stroke-linejoin:round;stroke:rgb(0%,0%,0%);stroke-opacity:1;stroke-miterlimit:10;" d="M 254.410156 42.535156 L 254.410156 0.601562 "/>
<path style="fill:none;stroke-width:1.2;stroke-linecap:butt;stroke-linejoin:round;stroke:rgb(0%,0%,0%);stroke-opacity:1;stroke-miterlimit:10;" d="M 19.777344 42.535156 L 19.777344 0.601562 "/>
<path style="fill:none;stroke-width:1.2;stroke-linecap:butt;stroke-linejoin:round;stroke:rgb(0%,0%,0%);stroke-opacity:1;stroke-miterlimit:10;" d="M 19.777344 42.535156 L 254.410156 42.535156 "/>
<path style="fill:none;stroke-width:1.2;stroke-linecap:butt;stroke-linejoin:round;stroke:rgb(0%,0%,0%);stroke-opacity:1;stroke-miterlimit:10;" d="M 19.777344 42.535156 L 19.777344 0.601562 "/>
<path style="fill:none;stroke-width:1.2;stroke-linecap:butt;stroke-linejoin:round;stroke:rgb(0%,0%,0%);stroke-opacity:1;stroke-miterlimit:10;" d="M 43.132812 42.535156 L 43.132812 37.738281 "/>
<path style="fill:none;stroke-width:1.2;stroke-linecap:butt;stroke-linejoin:round;stroke:rgb(0%,0%,0%);stroke-opacity:1;stroke-miterlimit:10;" d="M 43.132812 0.523438 L 43.132812 5.324219 "/>
<path style="fill:none;stroke-width:1.2;stroke-linecap:butt;stroke-linejoin:round;stroke:rgb(0%,0%,0%);stroke-opacity:1;stroke-miterlimit:10;" d="M 66.492188 42.535156 L 66.492188 37.738281 "/>
<path style="fill:none;stroke-width:1.2;stroke-linecap:butt;stroke-linejoin:round;stroke:rgb(0%,0%,0%);stroke-opacity:1;stroke-miterlimit:10;" d="M 66.492188 0.523438 L 66.492188 5.324219 "/>
<path style="fill:none;stroke-width:1.2;stroke-linecap:butt;stroke-linejoin:round;stroke:rgb(0%,0%,0%);stroke-opacity:1;stroke-miterlimit:10;" d="M 89.847656 42.535156 L 89.847656 37.738281 "/>
<path style="fill:none;stroke-width:1.2;stroke-linecap:butt;stroke-linejoin:round;stroke:rgb(0%,0%,0%);stroke-opacity:1;stroke-miterlimit:10;" d="M 89.847656 0.523438 L 89.847656 5.324219 "/>
<path style="fill:none;stroke-width:1.2;stroke-linecap:butt;stroke-linejoin:round;stroke:rgb(0%,0%,0%);stroke-opacity:1;stroke-miterlimit:10;" d="M 113.203125 42.535156 L 113.203125 37.738281 "/>
<path style="fill:none;stroke-width:1.2;stroke-linecap:butt;stroke-linejoin:round;stroke:rgb(0%,0%,0%);stroke-opacity:1;stroke-miterlimit:10;" d="M 113.203125 0.523438 L 113.203125 5.324219 "/>
<path style="fill:none;stroke-width:1.2;stroke-linecap:butt;stroke-linejoin:round;stroke:rgb(0%,0%,0%);stroke-opacity:1;stroke-miterlimit:10;" d="M 137.09375 42.535156 L 137.09375 37.738281 "/>
<path style="fill:none;stroke-width:1.2;stroke-linecap:butt;stroke-linejoin:round;stroke:rgb(0%,0%,0%);stroke-opacity:1;stroke-miterlimit:10;" d="M 137.09375 0.523438 L 137.09375 5.324219 "/>
<path style="fill:none;stroke-width:1.2;stroke-linecap:butt;stroke-linejoin:round;stroke:rgb(0%,0%,0%);stroke-opacity:1;stroke-miterlimit:10;" d="M 160.449219 42.535156 L 160.449219 37.738281 "/>
<path style="fill:none;stroke-width:1.2;stroke-linecap:butt;stroke-linejoin:round;stroke:rgb(0%,0%,0%);stroke-opacity:1;stroke-miterlimit:10;" d="M 160.449219 0.523438 L 160.449219 5.324219 "/>
<path style="fill:none;stroke-width:1.2;stroke-linecap:butt;stroke-linejoin:round;stroke:rgb(0%,0%,0%);stroke-opacity:1;stroke-miterlimit:10;" d="M 183.808594 42.535156 L 183.808594 37.738281 "/>
<path style="fill:none;stroke-width:1.2;stroke-linecap:butt;stroke-linejoin:round;stroke:rgb(0%,0%,0%);stroke-opacity:1;stroke-miterlimit:10;" d="M 183.808594 0.523438 L 183.808594 5.324219 "/>
<path style="fill:none;stroke-width:1.2;stroke-linecap:butt;stroke-linejoin:round;stroke:rgb(0%,0%,0%);stroke-opacity:1;stroke-miterlimit:10;" d="M 207.164062 42.535156 L 207.164062 37.738281 "/>
<path style="fill:none;stroke-width:1.2;stroke-linecap:butt;stroke-linejoin:round;stroke:rgb(0%,0%,0%);stroke-opacity:1;stroke-miterlimit:10;" d="M 207.164062 0.523438 L 207.164062 5.324219 "/>
<path style="fill:none;stroke-width:1.2;stroke-linecap:butt;stroke-linejoin:round;stroke:rgb(0%,0%,0%);stroke-opacity:1;stroke-miterlimit:10;" d="M 230.523438 42.535156 L 230.523438 37.738281 "/>
<path style="fill:none;stroke-width:1.2;stroke-linecap:butt;stroke-linejoin:round;stroke:rgb(0%,0%,0%);stroke-opacity:1;stroke-miterlimit:10;" d="M 230.523438 0.523438 L 230.523438 5.324219 "/>
<path style="fill:none;stroke-width:1.2;stroke-linecap:butt;stroke-linejoin:round;stroke:rgb(0%,0%,0%);stroke-opacity:1;stroke-miterlimit:10;" d="M 19.777344 38.820312 L 24.578125 38.820312 "/>
<path style="fill:none;stroke-width:1.2;stroke-linecap:butt;stroke-linejoin:round;stroke:rgb(0%,0%,0%);stroke-opacity:1;stroke-miterlimit:10;" d="M 254.363281 38.820312 L 249.5625 38.820312 "/>
<path style="fill:none;stroke-width:1.2;stroke-linecap:butt;stroke-linejoin:round;stroke:rgb(0%,0%,0%);stroke-opacity:1;stroke-miterlimit:10;" d="M 19.777344 3.785156 L 24.578125 3.785156 "/>
<path style="fill:none;stroke-width:1.2;stroke-linecap:butt;stroke-linejoin:round;stroke:rgb(0%,0%,0%);stroke-opacity:1;stroke-miterlimit:10;" d="M 254.363281 3.785156 L 249.5625 3.785156 "/>
<path style="fill:none;stroke-width:1.2;stroke-linecap:butt;stroke-linejoin:round;stroke:rgb(0%,0%,0%);stroke-opacity:1;stroke-miterlimit:10;" d="M 254.410156 42.535156 L 254.410156 0.601562 "/>
<path style="fill:none;stroke-width:1.2;stroke-linecap:butt;stroke-linejoin:round;stroke:rgb(0%,0%,0%);stroke-opacity:1;stroke-miterlimit:10;" d="M 19.777344 42.535156 L 19.777344 0.601562 "/>
<path style="fill:none;stroke-width:1.2;stroke-linecap:butt;stroke-linejoin:round;stroke:rgb(0%,0%,0%);stroke-opacity:1;stroke-miterlimit:10;" d="M 19.777344 46.558594 L 254.410156 46.558594 "/>
<path style="fill:none;stroke-width:1.2;stroke-linecap:butt;stroke-linejoin:round;stroke:rgb(0%,0%,0%);stroke-opacity:1;stroke-miterlimit:10;" d="M 19.777344 88.496094 L 254.410156 88.496094 "/>
<path style="fill:none;stroke-width:1.2;stroke-linecap:butt;stroke-linejoin:round;stroke:rgb(0%,0%,0%);stroke-opacity:1;stroke-miterlimit:10;" d="M 254.410156 88.496094 L 254.410156 46.558594 "/>
<path style="fill:none;stroke-width:1.2;stroke-linecap:butt;stroke-linejoin:round;stroke:rgb(0%,0%,0%);stroke-opacity:1;stroke-miterlimit:10;" d="M 19.777344 88.496094 L 19.777344 46.558594 "/>
<path style="fill:none;stroke-width:1.2;stroke-linecap:butt;stroke-linejoin:round;stroke:rgb(0%,0%,0%);stroke-opacity:1;stroke-miterlimit:10;" d="M 19.777344 88.496094 L 254.410156 88.496094 "/>
<path style="fill:none;stroke-width:1.2;stroke-linecap:butt;stroke-linejoin:round;stroke:rgb(0%,0%,0%);stroke-opacity:1;stroke-miterlimit:10;" d="M 19.777344 88.496094 L 19.777344 46.558594 "/>
<path style="fill:none;stroke-width:1.2;stroke-linecap:butt;stroke-linejoin:round;stroke:rgb(0%,0%,0%);stroke-opacity:1;stroke-miterlimit:10;" d="M 43.132812 88.496094 L 43.132812 83.695312 "/>
<path style="fill:none;stroke-width:1.2;stroke-linecap:butt;stroke-linejoin:round;stroke:rgb(0%,0%,0%);stroke-opacity:1;stroke-miterlimit:10;" d="M 43.132812 46.332031 L 43.132812 51.132812 "/>
<path style="fill:none;stroke-width:1.2;stroke-linecap:butt;stroke-linejoin:round;stroke:rgb(0%,0%,0%);stroke-opacity:1;stroke-miterlimit:10;" d="M 66.492188 88.496094 L 66.492188 83.695312 "/>
<path style="fill:none;stroke-width:1.2;stroke-linecap:butt;stroke-linejoin:round;stroke:rgb(0%,0%,0%);stroke-opacity:1;stroke-miterlimit:10;" d="M 66.492188 46.332031 L 66.492188 51.132812 "/>
<path style="fill:none;stroke-width:1.2;stroke-linecap:butt;stroke-linejoin:round;stroke:rgb(0%,0%,0%);stroke-opacity:1;stroke-miterlimit:10;" d="M 89.847656 88.496094 L 89.847656 83.695312 "/>
<path style="fill:none;stroke-width:1.2;stroke-linecap:butt;stroke-linejoin:round;stroke:rgb(0%,0%,0%);stroke-opacity:1;stroke-miterlimit:10;" d="M 89.847656 46.332031 L 89.847656 51.132812 "/>
<path style="fill:none;stroke-width:1.2;stroke-linecap:butt;stroke-linejoin:round;stroke:rgb(0%,0%,0%);stroke-opacity:1;stroke-miterlimit:10;" d="M 113.203125 88.496094 L 113.203125 83.695312 "/>
<path style="fill:none;stroke-width:1.2;stroke-linecap:butt;stroke-linejoin:round;stroke:rgb(0%,0%,0%);stroke-opacity:1;stroke-miterlimit:10;" d="M 113.203125 46.332031 L 113.203125 51.132812 "/>
<path style="fill:none;stroke-width:1.2;stroke-linecap:butt;stroke-linejoin:round;stroke:rgb(0%,0%,0%);stroke-opacity:1;stroke-miterlimit:10;" d="M 137.09375 88.496094 L 137.09375 83.695312 "/>
<path style="fill:none;stroke-width:1.2;stroke-linecap:butt;stroke-linejoin:round;stroke:rgb(0%,0%,0%);stroke-opacity:1;stroke-miterlimit:10;" d="M 137.09375 46.332031 L 137.09375 51.132812 "/>
<path style="fill:none;stroke-width:1.2;stroke-linecap:butt;stroke-linejoin:round;stroke:rgb(0%,0%,0%);stroke-opacity:1;stroke-miterlimit:10;" d="M 160.449219 88.496094 L 160.449219 83.695312 "/>
<path style="fill:none;stroke-width:1.2;stroke-linecap:butt;stroke-linejoin:round;stroke:rgb(0%,0%,0%);stroke-opacity:1;stroke-miterlimit:10;" d="M 160.449219 46.332031 L 160.449219 51.132812 "/>
<path style="fill:none;stroke-width:1.2;stroke-linecap:butt;stroke-linejoin:round;stroke:rgb(0%,0%,0%);stroke-opacity:1;stroke-miterlimit:10;" d="M 183.808594 88.496094 L 183.808594 83.695312 "/>
<path style="fill:none;stroke-width:1.2;stroke-linecap:butt;stroke-linejoin:round;stroke:rgb(0%,0%,0%);stroke-opacity:1;stroke-miterlimit:10;" d="M 183.808594 46.332031 L 183.808594 51.132812 "/>
<path style="fill:none;stroke-width:1.2;stroke-linecap:butt;stroke-linejoin:round;stroke:rgb(0%,0%,0%);stroke-opacity:1;stroke-miterlimit:10;" d="M 207.164062 88.496094 L 207.164062 83.695312 "/>
<path style="fill:none;stroke-width:1.2;stroke-linecap:butt;stroke-linejoin:round;stroke:rgb(0%,0%,0%);stroke-opacity:1;stroke-miterlimit:10;" d="M 207.164062 46.332031 L 207.164062 51.132812 "/>
<path style="fill:none;stroke-width:1.2;stroke-linecap:butt;stroke-linejoin:round;stroke:rgb(0%,0%,0%);stroke-opacity:1;stroke-miterlimit:10;" d="M 230.523438 88.496094 L 230.523438 83.695312 "/>
<path style="fill:none;stroke-width:1.2;stroke-linecap:butt;stroke-linejoin:round;stroke:rgb(0%,0%,0%);stroke-opacity:1;stroke-miterlimit:10;" d="M 230.523438 46.332031 L 230.523438 51.132812 "/>
<path style="fill:none;stroke-width:1.2;stroke-linecap:butt;stroke-linejoin:round;stroke:rgb(0%,0%,0%);stroke-opacity:1;stroke-miterlimit:10;" d="M 19.777344 84.78125 L 24.578125 84.78125 "/>
<path style="fill:none;stroke-width:1.2;stroke-linecap:butt;stroke-linejoin:round;stroke:rgb(0%,0%,0%);stroke-opacity:1;stroke-miterlimit:10;" d="M 254.363281 84.78125 L 249.5625 84.78125 "/>
<path style="fill:none;stroke-width:1.2;stroke-linecap:butt;stroke-linejoin:round;stroke:rgb(0%,0%,0%);stroke-opacity:1;stroke-miterlimit:10;" d="M 19.777344 49.746094 L 24.578125 49.746094 "/>
<path style="fill:none;stroke-width:1.2;stroke-linecap:butt;stroke-linejoin:round;stroke:rgb(0%,0%,0%);stroke-opacity:1;stroke-miterlimit:10;" d="M 254.363281 49.746094 L 249.5625 49.746094 "/>
<path style="fill:none;stroke-width:1.2;stroke-linecap:butt;stroke-linejoin:round;stroke:rgb(0%,0%,0%);stroke-opacity:1;stroke-miterlimit:10;" d="M 19.777344 88.496094 L 254.410156 88.496094 "/>
<path style="fill:none;stroke-width:1.2;stroke-linecap:butt;stroke-linejoin:round;stroke:rgb(0%,0%,0%);stroke-opacity:1;stroke-miterlimit:10;" d="M 254.410156 88.496094 L 254.410156 46.558594 "/>
<path style="fill:none;stroke-width:1.2;stroke-linecap:butt;stroke-linejoin:round;stroke:rgb(0%,0%,0%);stroke-opacity:1;stroke-miterlimit:10;" d="M 19.777344 88.496094 L 19.777344 46.558594 "/>
<path style="fill:none;stroke-width:1.2;stroke-linecap:butt;stroke-linejoin:round;stroke:rgb(0%,0%,0%);stroke-opacity:1;stroke-miterlimit:10;" d="M 19.777344 91.988281 L 254.410156 91.988281 "/>
<path style="fill:none;stroke-width:1.2;stroke-linecap:butt;stroke-linejoin:round;stroke:rgb(0%,0%,0%);stroke-opacity:1;stroke-miterlimit:10;" d="M 19.777344 133.925781 L 254.410156 133.925781 "/>
<path style="fill:none;stroke-width:1.2;stroke-linecap:butt;stroke-linejoin:round;stroke:rgb(0%,0%,0%);stroke-opacity:1;stroke-miterlimit:10;" d="M 254.410156 133.925781 L 254.410156 91.988281 "/>
<path style="fill:none;stroke-width:1.2;stroke-linecap:butt;stroke-linejoin:round;stroke:rgb(0%,0%,0%);stroke-opacity:1;stroke-miterlimit:10;" d="M 19.777344 133.925781 L 19.777344 91.988281 "/>
<path style="fill:none;stroke-width:1.2;stroke-linecap:butt;stroke-linejoin:round;stroke:rgb(0%,0%,0%);stroke-opacity:1;stroke-miterlimit:10;" d="M 19.777344 133.925781 L 254.410156 133.925781 "/>
<path style="fill:none;stroke-width:1.2;stroke-linecap:butt;stroke-linejoin:round;stroke:rgb(0%,0%,0%);stroke-opacity:1;stroke-miterlimit:10;" d="M 19.777344 133.925781 L 19.777344 91.988281 "/>
<path style="fill:none;stroke-width:1.2;stroke-linecap:butt;stroke-linejoin:round;stroke:rgb(0%,0%,0%);stroke-opacity:1;stroke-miterlimit:10;" d="M 43.132812 133.925781 L 43.132812 129.125 "/>
<path style="fill:none;stroke-width:1.2;stroke-linecap:butt;stroke-linejoin:round;stroke:rgb(0%,0%,0%);stroke-opacity:1;stroke-miterlimit:10;" d="M 43.132812 92.011719 L 43.132812 96.8125 "/>
<path style="fill:none;stroke-width:1.2;stroke-linecap:butt;stroke-linejoin:round;stroke:rgb(0%,0%,0%);stroke-opacity:1;stroke-miterlimit:10;" d="M 66.492188 133.925781 L 66.492188 129.125 "/>
<path style="fill:none;stroke-width:1.2;stroke-linecap:butt;stroke-linejoin:round;stroke:rgb(0%,0%,0%);stroke-opacity:1;stroke-miterlimit:10;" d="M 66.492188 92.011719 L 66.492188 96.8125 "/>
<path style="fill:none;stroke-width:1.2;stroke-linecap:butt;stroke-linejoin:round;stroke:rgb(0%,0%,0%);stroke-opacity:1;stroke-miterlimit:10;" d="M 89.847656 133.925781 L 89.847656 129.125 "/>
<path style="fill:none;stroke-width:1.2;stroke-linecap:butt;stroke-linejoin:round;stroke:rgb(0%,0%,0%);stroke-opacity:1;stroke-miterlimit:10;" d="M 89.847656 92.011719 L 89.847656 96.8125 "/>
<path style="fill:none;stroke-width:1.2;stroke-linecap:butt;stroke-linejoin:round;stroke:rgb(0%,0%,0%);stroke-opacity:1;stroke-miterlimit:10;" d="M 113.203125 133.925781 L 113.203125 129.125 "/>
<path style="fill:none;stroke-width:1.2;stroke-linecap:butt;stroke-linejoin:round;stroke:rgb(0%,0%,0%);stroke-opacity:1;stroke-miterlimit:10;" d="M 113.203125 92.011719 L 113.203125 96.8125 "/>
<path style="fill:none;stroke-width:1.2;stroke-linecap:butt;stroke-linejoin:round;stroke:rgb(0%,0%,0%);stroke-opacity:1;stroke-miterlimit:10;" d="M 137.09375 133.925781 L 137.09375 129.125 "/>
<path style="fill:none;stroke-width:1.2;stroke-linecap:butt;stroke-linejoin:round;stroke:rgb(0%,0%,0%);stroke-opacity:1;stroke-miterlimit:10;" d="M 137.09375 92.011719 L 137.09375 96.8125 "/>
<path style="fill:none;stroke-width:1.2;stroke-linecap:butt;stroke-linejoin:round;stroke:rgb(0%,0%,0%);stroke-opacity:1;stroke-miterlimit:10;" d="M 160.449219 133.925781 L 160.449219 129.125 "/>
<path style="fill:none;stroke-width:1.2;stroke-linecap:butt;stroke-linejoin:round;stroke:rgb(0%,0%,0%);stroke-opacity:1;stroke-miterlimit:10;" d="M 160.449219 92.011719 L 160.449219 96.8125 "/>
<path style="fill:none;stroke-width:1.2;stroke-linecap:butt;stroke-linejoin:round;stroke:rgb(0%,0%,0%);stroke-opacity:1;stroke-miterlimit:10;" d="M 183.808594 133.925781 L 183.808594 129.125 "/>
<path style="fill:none;stroke-width:1.2;stroke-linecap:butt;stroke-linejoin:round;stroke:rgb(0%,0%,0%);stroke-opacity:1;stroke-miterlimit:10;" d="M 183.808594 92.011719 L 183.808594 96.8125 "/>
<path style="fill:none;stroke-width:1.2;stroke-linecap:butt;stroke-linejoin:round;stroke:rgb(0%,0%,0%);stroke-opacity:1;stroke-miterlimit:10;" d="M 207.164062 133.925781 L 207.164062 129.125 "/>
<path style="fill:none;stroke-width:1.2;stroke-linecap:butt;stroke-linejoin:round;stroke:rgb(0%,0%,0%);stroke-opacity:1;stroke-miterlimit:10;" d="M 207.164062 92.011719 L 207.164062 96.8125 "/>
<path style="fill:none;stroke-width:1.2;stroke-linecap:butt;stroke-linejoin:round;stroke:rgb(0%,0%,0%);stroke-opacity:1;stroke-miterlimit:10;" d="M 230.523438 133.925781 L 230.523438 129.125 "/>
<path style="fill:none;stroke-width:1.2;stroke-linecap:butt;stroke-linejoin:round;stroke:rgb(0%,0%,0%);stroke-opacity:1;stroke-miterlimit:10;" d="M 230.523438 92.011719 L 230.523438 96.8125 "/>
<path style="fill:none;stroke-width:1.2;stroke-linecap:butt;stroke-linejoin:round;stroke:rgb(0%,0%,0%);stroke-opacity:1;stroke-miterlimit:10;" d="M 19.777344 130.210938 L 24.578125 130.210938 "/>
<path style="fill:none;stroke-width:1.2;stroke-linecap:butt;stroke-linejoin:round;stroke:rgb(0%,0%,0%);stroke-opacity:1;stroke-miterlimit:10;" d="M 254.363281 130.210938 L 249.5625 130.210938 "/>
<path style="fill:none;stroke-width:1.2;stroke-linecap:butt;stroke-linejoin:round;stroke:rgb(0%,0%,0%);stroke-opacity:1;stroke-miterlimit:10;" d="M 19.777344 95.171875 L 24.578125 95.171875 "/>
<path style="fill:none;stroke-width:1.2;stroke-linecap:butt;stroke-linejoin:round;stroke:rgb(0%,0%,0%);stroke-opacity:1;stroke-miterlimit:10;" d="M 254.363281 95.171875 L 249.5625 95.171875 "/>
<path style="fill:none;stroke-width:1.2;stroke-linecap:butt;stroke-linejoin:round;stroke:rgb(0%,0%,0%);stroke-opacity:1;stroke-miterlimit:10;" d="M 19.777344 91.988281 L 254.410156 91.988281 "/>
<path style="fill:none;stroke-width:1.2;stroke-linecap:butt;stroke-linejoin:round;stroke:rgb(0%,0%,0%);stroke-opacity:1;stroke-miterlimit:10;" d="M 19.777344 133.925781 L 254.410156 133.925781 "/>
<path style="fill:none;stroke-width:1.2;stroke-linecap:butt;stroke-linejoin:round;stroke:rgb(0%,0%,0%);stroke-opacity:1;stroke-miterlimit:10;" d="M 254.410156 133.925781 L 254.410156 91.988281 "/>
<path style="fill:none;stroke-width:1.2;stroke-linecap:butt;stroke-linejoin:round;stroke:rgb(0%,0%,0%);stroke-opacity:1;stroke-miterlimit:10;" d="M 19.777344 133.925781 L 19.777344 91.988281 "/>
<path style=" stroke:none;fill-rule:nonzero;fill:rgb(0%,0%,0%);fill-opacity:1;" d="M 12.757812 38.863281 C 12.757812 38.1875 12.824219 37.644531 12.960938 37.238281 C 13.105469 36.824219 13.3125 36.503906 13.585938 36.285156 C 13.867188 36.058594 14.214844 35.941406 14.632812 35.941406 C 14.933594 35.941406 15.199219 36.003906 15.429688 36.128906 C 15.667969 36.253906 15.859375 36.433594 16.007812 36.660156 C 16.164062 36.890625 16.28125 37.175781 16.367188 37.519531 C 16.449219 37.855469 16.492188 38.300781 16.492188 38.863281 C 16.492188 39.542969 16.421875 40.089844 16.289062 40.503906 C 16.152344 40.910156 15.945312 41.230469 15.664062 41.457031 C 15.390625 41.675781 15.046875 41.785156 14.632812 41.785156 C 14.078125 41.785156 13.648438 41.589844 13.335938 41.191406 C 12.949219 40.714844 12.757812 39.9375 12.757812 38.863281 Z M 13.492188 38.863281 C 13.492188 39.800781 13.601562 40.425781 13.820312 40.738281 C 14.039062 41.050781 14.308594 41.207031 14.632812 41.207031 C 14.953125 41.207031 15.226562 41.050781 15.445312 40.738281 C 15.664062 40.425781 15.773438 39.800781 15.773438 38.863281 C 15.773438 37.925781 15.664062 37.300781 15.445312 36.988281 C 15.226562 36.675781 14.949219 36.519531 14.617188 36.519531 C 14.292969 36.519531 14.039062 36.65625 13.851562 36.925781 C 13.609375 37.28125 13.492188 37.925781 13.492188 38.863281 Z M 13.492188 38.863281 "/>
<path style=" stroke:none;fill-rule:nonzero;fill:rgb(0%,0%,0%);fill-opacity:1;" d="M 15.6875 6.902344 L 14.984375 6.902344 L 14.984375 2.417969 C 14.816406 2.585938 14.59375 2.753906 14.3125 2.917969 C 14.039062 3.074219 13.796875 3.191406 13.578125 3.261719 L 13.578125 2.589844 C 13.972656 2.402344 14.316406 2.179688 14.609375 1.917969 C 14.898438 1.660156 15.109375 1.402344 15.234375 1.152344 L 15.6875 1.152344 Z M 15.6875 6.902344 "/>
<path style=" stroke:none;fill-rule:nonzero;fill:rgb(0%,0%,0%);fill-opacity:1;" d="M 12.757812 85.230469 C 12.757812 84.554688 12.824219 84.011719 12.960938 83.605469 C 13.105469 83.191406 13.3125 82.871094 13.585938 82.652344 C 13.867188 82.425781 14.214844 82.308594 14.632812 82.308594 C 14.933594 82.308594 15.199219 82.371094 15.429688 82.496094 C 15.667969 82.621094 15.859375 82.800781 16.007812 83.027344 C 16.164062 83.257812 16.28125 83.542969 16.367188 83.886719 C 16.449219 84.222656 16.492188 84.667969 16.492188 85.230469 C 16.492188 85.910156 16.421875 86.457031 16.289062 86.871094 C 16.152344 87.277344 15.945312 87.597656 15.664062 87.824219 C 15.390625 88.042969 15.046875 88.152344 14.632812 88.152344 C 14.078125 88.152344 13.648438 87.957031 13.335938 87.558594 C 12.949219 87.082031 12.757812 86.304688 12.757812 85.230469 Z M 13.492188 85.230469 C 13.492188 86.167969 13.601562 86.792969 13.820312 87.105469 C 14.039062 87.417969 14.308594 87.574219 14.632812 87.574219 C 14.953125 87.574219 15.226562 87.417969 15.445312 87.105469 C 15.664062 86.792969 15.773438 86.167969 15.773438 85.230469 C 15.773438 84.292969 15.664062 83.667969 15.445312 83.355469 C 15.226562 83.042969 14.949219 82.886719 14.617188 82.886719 C 14.292969 82.886719 14.039062 83.023438 13.851562 83.292969 C 13.609375 83.648438 13.492188 84.292969 13.492188 85.230469 Z M 13.492188 85.230469 "/>
<path style=" stroke:none;fill-rule:nonzero;fill:rgb(0%,0%,0%);fill-opacity:1;" d="M 15.6875 53.269531 L 14.984375 53.269531 L 14.984375 48.785156 C 14.816406 48.953125 14.59375 49.121094 14.3125 49.285156 C 14.039062 49.441406 13.796875 49.558594 13.578125 49.628906 L 13.578125 48.957031 C 13.972656 48.769531 14.316406 48.546875 14.609375 48.285156 C 14.898438 48.027344 15.109375 47.769531 15.234375 47.519531 L 15.6875 47.519531 Z M 15.6875 53.269531 "/>
<path style=" stroke:none;fill-rule:nonzero;fill:rgb(0%,0%,0%);fill-opacity:1;" d="M 12.757812 130.625 C 12.757812 129.949219 12.824219 129.40625 12.960938 129 C 13.105469 128.585938 13.3125 128.265625 13.585938 128.046875 C 13.867188 127.820312 14.214844 127.703125 14.632812 127.703125 C 14.933594 127.703125 15.199219 127.765625 15.429688 127.890625 C 15.667969 128.015625 15.859375 128.195312 16.007812 128.421875 C 16.164062 128.652344 16.28125 128.9375 16.367188 129.28125 C 16.449219 129.617188 16.492188 130.0625 16.492188 130.625 C 16.492188 131.304688 16.421875 131.851562 16.289062 132.265625 C 16.152344 132.671875 15.945312 132.992188 15.664062 133.21875 C 15.390625 133.4375 15.046875 133.546875 14.632812 133.546875 C 14.078125 133.546875 13.648438 133.351562 13.335938 132.953125 C 12.949219 132.476562 12.757812 131.699219 12.757812 130.625 Z M 13.492188 130.625 C 13.492188 131.5625 13.601562 132.1875 13.820312 132.5 C 14.039062 132.8125 14.308594 132.96875 14.632812 132.96875 C 14.953125 132.96875 15.226562 132.8125 15.445312 132.5 C 15.664062 132.1875 15.773438 131.5625 15.773438 130.625 C 15.773438 129.6875 15.664062 129.0625 15.445312 128.75 C 15.226562 128.4375 14.949219 128.28125 14.617188 128.28125 C 14.292969 128.28125 14.039062 128.417969 13.851562 128.6875 C 13.609375 129.042969 13.492188 129.6875 13.492188 130.625 Z M 13.492188 130.625 "/>
<path style=" stroke:none;fill-rule:nonzero;fill:rgb(0%,0%,0%);fill-opacity:1;" d="M 15.6875 98.667969 L 14.984375 98.667969 L 14.984375 94.183594 C 14.816406 94.351562 14.59375 94.519531 14.3125 94.683594 C 14.039062 94.839844 13.796875 94.957031 13.578125 95.027344 L 13.578125 94.355469 C 13.972656 94.167969 14.316406 93.945312 14.609375 93.683594 C 14.898438 93.425781 15.109375 93.167969 15.234375 92.917969 L 15.6875 92.917969 Z M 15.6875 98.667969 "/>
<path style=" stroke:none;fill-rule:nonzero;fill:rgb(0%,0%,0%);fill-opacity:1;" d="M 18.15625 141.664062 C 18.15625 140.988281 18.222656 140.445312 18.359375 140.039062 C 18.503906 139.625 18.710938 139.304688 18.984375 139.085938 C 19.265625 138.859375 19.613281 138.742188 20.03125 138.742188 C 20.332031 138.742188 20.597656 138.804688 20.828125 138.929688 C 21.066406 139.054688 21.257812 139.234375 21.40625 139.460938 C 21.5625 139.691406 21.679688 139.976562 21.765625 140.320312 C 21.847656 140.65625 21.890625 141.101562 21.890625 141.664062 C 21.890625 142.34375 21.820312 142.890625 21.6875 143.304688 C 21.550781 143.710938 21.34375 144.03125 21.0625 144.257812 C 20.789062 144.476562 20.445312 144.585938 20.03125 144.585938 C 19.476562 144.585938 19.046875 144.390625 18.734375 143.992188 C 18.347656 143.515625 18.15625 142.738281 18.15625 141.664062 Z M 18.890625 141.664062 C 18.890625 142.601562 19 143.226562 19.21875 143.539062 C 19.4375 143.851562 19.707031 144.007812 20.03125 144.007812 C 20.351562 144.007812 20.625 143.851562 20.84375 143.539062 C 21.0625 143.226562 21.171875 142.601562 21.171875 141.664062 C 21.171875 140.726562 21.0625 140.101562 20.84375 139.789062 C 20.625 139.476562 20.347656 139.320312 20.015625 139.320312 C 19.691406 139.320312 19.4375 139.457031 19.25 139.726562 C 19.007812 140.082031 18.890625 140.726562 18.890625 141.664062 Z M 18.890625 141.664062 "/>
<path style=" stroke:none;fill-rule:nonzero;fill:rgb(0%,0%,0%);fill-opacity:1;" d="M 61.730469 141.664062 C 61.730469 140.988281 61.796875 140.445312 61.933594 140.039062 C 62.078125 139.625 62.285156 139.304688 62.558594 139.085938 C 62.839844 138.859375 63.1875 138.742188 63.605469 138.742188 C 63.90625 138.742188 64.171875 138.804688 64.402344 138.929688 C 64.640625 139.054688 64.832031 139.234375 64.980469 139.460938 C 65.136719 139.691406 65.253906 139.976562 65.339844 140.320312 C 65.421875 140.65625 65.464844 141.101562 65.464844 141.664062 C 65.464844 142.34375 65.394531 142.890625 65.261719 143.304688 C 65.125 143.710938 64.917969 144.03125 64.636719 144.257812 C 64.363281 144.476562 64.019531 144.585938 63.605469 144.585938 C 63.050781 144.585938 62.621094 144.390625 62.308594 143.992188 C 61.921875 143.515625 61.730469 142.738281 61.730469 141.664062 Z M 62.464844 141.664062 C 62.464844 142.601562 62.574219 143.226562 62.792969 143.539062 C 63.011719 143.851562 63.28125 144.007812 63.605469 144.007812 C 63.925781 144.007812 64.199219 143.851562 64.417969 143.539062 C 64.636719 143.226562 64.746094 142.601562 64.746094 141.664062 C 64.746094 140.726562 64.636719 140.101562 64.417969 139.789062 C 64.199219 139.476562 63.921875 139.320312 63.589844 139.320312 C 63.265625 139.320312 63.011719 139.457031 62.824219 139.726562 C 62.582031 140.082031 62.464844 140.726562 62.464844 141.664062 Z M 62.464844 141.664062 "/>
<path style=" stroke:none;fill-rule:nonzero;fill:rgb(0%,0%,0%);fill-opacity:1;" d="M 66.589844 143.695312 L 67.386719 143.695312 L 67.386719 144.492188 L 66.589844 144.492188 Z M 66.589844 143.695312 "/>
<path style=" stroke:none;fill-rule:nonzero;fill:rgb(0%,0%,0%);fill-opacity:1;" d="M 70.667969 144.492188 L 70.667969 143.117188 L 68.183594 143.117188 L 68.183594 142.476562 L 70.792969 138.757812 L 71.371094 138.757812 L 71.371094 142.476562 L 72.136719 142.476562 L 72.136719 143.117188 L 71.371094 143.117188 L 71.371094 144.492188 Z M 70.667969 142.476562 L 70.667969 139.898438 L 68.871094 142.476562 Z M 70.667969 142.476562 "/>
<path style=" stroke:none;fill-rule:nonzero;fill:rgb(0%,0%,0%);fill-opacity:1;" d="M 108.621094 141.664062 C 108.621094 140.988281 108.6875 140.445312 108.824219 140.039062 C 108.96875 139.625 109.175781 139.304688 109.449219 139.085938 C 109.730469 138.859375 110.078125 138.742188 110.496094 138.742188 C 110.796875 138.742188 111.0625 138.804688 111.292969 138.929688 C 111.53125 139.054688 111.722656 139.234375 111.871094 139.460938 C 112.027344 139.691406 112.144531 139.976562 112.230469 140.320312 C 112.3125 140.65625 112.355469 141.101562 112.355469 141.664062 C 112.355469 142.34375 112.285156 142.890625 112.152344 143.304688 C 112.015625 143.710938 111.808594 144.03125 111.527344 144.257812 C 111.253906 144.476562 110.910156 144.585938 110.496094 144.585938 C 109.941406 144.585938 109.511719 144.390625 109.199219 143.992188 C 108.8125 143.515625 108.621094 142.738281 108.621094 141.664062 Z M 109.355469 141.664062 C 109.355469 142.601562 109.464844 143.226562 109.683594 143.539062 C 109.902344 143.851562 110.171875 144.007812 110.496094 144.007812 C 110.816406 144.007812 111.089844 143.851562 111.308594 143.539062 C 111.527344 143.226562 111.636719 142.601562 111.636719 141.664062 C 111.636719 140.726562 111.527344 140.101562 111.308594 139.789062 C 111.089844 139.476562 110.8125 139.320312 110.480469 139.320312 C 110.15625 139.320312 109.902344 139.457031 109.714844 139.726562 C 109.472656 140.082031 109.355469 140.726562 109.355469 141.664062 Z M 109.355469 141.664062 "/>
<path style=" stroke:none;fill-rule:nonzero;fill:rgb(0%,0%,0%);fill-opacity:1;" d="M 113.480469 143.695312 L 114.277344 143.695312 L 114.277344 144.492188 L 113.480469 144.492188 Z M 113.480469 143.695312 "/>
<path style=" stroke:none;fill-rule:nonzero;fill:rgb(0%,0%,0%);fill-opacity:1;" d="M 116.386719 141.382812 C 116.09375 141.28125 115.875 141.128906 115.730469 140.929688 C 115.59375 140.734375 115.527344 140.492188 115.527344 140.210938 C 115.527344 139.796875 115.671875 139.445312 115.964844 139.164062 C 116.265625 138.882812 116.667969 138.742188 117.167969 138.742188 C 117.667969 138.742188 118.066406 138.890625 118.371094 139.179688 C 118.671875 139.472656 118.824219 139.828125 118.824219 140.242188 C 118.824219 140.503906 118.753906 140.734375 118.621094 140.929688 C 118.484375 141.128906 118.269531 141.28125 117.980469 141.382812 C 118.332031 141.5 118.597656 141.6875 118.777344 141.945312 C 118.964844 142.195312 119.058594 142.5 119.058594 142.851562 C 119.058594 143.34375 118.886719 143.753906 118.542969 144.085938 C 118.199219 144.421875 117.746094 144.585938 117.183594 144.585938 C 116.609375 144.585938 116.152344 144.421875 115.808594 144.085938 C 115.464844 143.753906 115.292969 143.335938 115.292969 142.835938 C 115.292969 142.460938 115.386719 142.148438 115.574219 141.898438 C 115.761719 141.648438 116.03125 141.476562 116.386719 141.382812 Z M 116.246094 140.195312 C 116.246094 140.46875 116.328125 140.691406 116.496094 140.867188 C 116.671875 141.035156 116.902344 141.117188 117.183594 141.117188 C 117.453125 141.117188 117.671875 141.035156 117.839844 140.867188 C 118.015625 140.691406 118.105469 140.476562 118.105469 140.226562 C 118.105469 139.976562 118.015625 139.765625 117.839844 139.585938 C 117.660156 139.410156 117.4375 139.320312 117.167969 139.320312 C 116.90625 139.320312 116.6875 139.410156 116.511719 139.585938 C 116.332031 139.753906 116.246094 139.957031 116.246094 140.195312 Z M 116.011719 142.835938 C 116.011719 143.035156 116.058594 143.226562 116.152344 143.414062 C 116.246094 143.601562 116.386719 143.75 116.574219 143.851562 C 116.761719 143.957031 116.964844 144.007812 117.183594 144.007812 C 117.515625 144.007812 117.792969 143.90625 118.011719 143.695312 C 118.230469 143.476562 118.339844 143.203125 118.339844 142.867188 C 118.339844 142.523438 118.222656 142.242188 117.996094 142.023438 C 117.777344 141.804688 117.5 141.695312 117.167969 141.695312 C 116.832031 141.695312 116.558594 141.804688 116.339844 142.023438 C 116.121094 142.242188 116.011719 142.515625 116.011719 142.835938 Z M 116.011719 142.835938 "/>
<path style=" stroke:none;fill-rule:nonzero;fill:rgb(0%,0%,0%);fill-opacity:1;" d="M 157.953125 144.492188 L 157.25 144.492188 L 157.25 140.007812 C 157.082031 140.175781 156.859375 140.34375 156.578125 140.507812 C 156.304688 140.664062 156.0625 140.78125 155.84375 140.851562 L 155.84375 140.179688 C 156.238281 139.992188 156.582031 139.769531 156.875 139.507812 C 157.164062 139.25 157.375 138.992188 157.5 138.742188 L 157.953125 138.742188 Z M 157.953125 144.492188 "/>
<path style=" stroke:none;fill-rule:nonzero;fill:rgb(0%,0%,0%);fill-opacity:1;" d="M 160.15625 143.695312 L 160.953125 143.695312 L 160.953125 144.492188 L 160.15625 144.492188 Z M 160.15625 143.695312 "/>
<path style=" stroke:none;fill-rule:nonzero;fill:rgb(0%,0%,0%);fill-opacity:1;" d="M 165.671875 143.820312 L 165.671875 144.492188 L 161.890625 144.492188 C 161.878906 144.328125 161.90625 144.164062 161.96875 144.007812 C 162.0625 143.75 162.210938 143.492188 162.421875 143.242188 C 162.640625 142.992188 162.945312 142.703125 163.34375 142.367188 C 163.96875 141.859375 164.390625 141.457031 164.609375 141.164062 C 164.828125 140.863281 164.9375 140.582031 164.9375 140.320312 C 164.9375 140.039062 164.835938 139.804688 164.640625 139.617188 C 164.441406 139.421875 164.179688 139.320312 163.859375 139.320312 C 163.523438 139.320312 163.253906 139.425781 163.046875 139.632812 C 162.847656 139.832031 162.742188 140.113281 162.734375 140.476562 L 162.015625 140.398438 C 162.066406 139.859375 162.253906 139.445312 162.578125 139.164062 C 162.898438 138.882812 163.332031 138.742188 163.875 138.742188 C 164.425781 138.742188 164.859375 138.894531 165.171875 139.195312 C 165.492188 139.5 165.65625 139.878906 165.65625 140.335938 C 165.65625 140.566406 165.609375 140.789062 165.515625 141.007812 C 165.421875 141.226562 165.265625 141.460938 165.046875 141.710938 C 164.835938 141.953125 164.476562 142.285156 163.96875 142.710938 C 163.550781 143.066406 163.28125 143.304688 163.15625 143.429688 C 163.039062 143.554688 162.941406 143.6875 162.859375 143.820312 Z M 165.671875 143.820312 "/>
<path style=" stroke:none;fill-rule:nonzero;fill:rgb(0%,0%,0%);fill-opacity:1;" d="M 204.835938 144.492188 L 204.132812 144.492188 L 204.132812 140.007812 C 203.964844 140.175781 203.742188 140.34375 203.460938 140.507812 C 203.1875 140.664062 202.945312 140.78125 202.726562 140.851562 L 202.726562 140.179688 C 203.121094 139.992188 203.464844 139.769531 203.757812 139.507812 C 204.046875 139.25 204.257812 138.992188 204.382812 138.742188 L 204.835938 138.742188 Z M 204.835938 144.492188 "/>
<path style=" stroke:none;fill-rule:nonzero;fill:rgb(0%,0%,0%);fill-opacity:1;" d="M 207.039062 143.695312 L 207.835938 143.695312 L 207.835938 144.492188 L 207.039062 144.492188 Z M 207.039062 143.695312 "/>
<path style=" stroke:none;fill-rule:nonzero;fill:rgb(0%,0%,0%);fill-opacity:1;" d="M 212.507812 140.164062 L 211.804688 140.226562 C 211.742188 139.945312 211.652344 139.742188 211.539062 139.617188 C 211.351562 139.421875 211.117188 139.320312 210.835938 139.320312 C 210.617188 139.320312 210.417969 139.382812 210.242188 139.507812 C 210.023438 139.664062 209.851562 139.898438 209.726562 140.210938 C 209.601562 140.523438 209.53125 140.96875 209.523438 141.539062 C 209.6875 141.28125 209.890625 141.085938 210.132812 140.960938 C 210.382812 140.835938 210.640625 140.773438 210.914062 140.773438 C 211.382812 140.773438 211.777344 140.945312 212.101562 141.289062 C 212.433594 141.632812 212.601562 142.082031 212.601562 142.632812 C 212.601562 142.988281 212.523438 143.320312 212.367188 143.632812 C 212.21875 143.945312 212.011719 144.1875 211.742188 144.351562 C 211.46875 144.507812 211.164062 144.585938 210.820312 144.585938 C 210.226562 144.585938 209.742188 144.375 209.367188 143.945312 C 209 143.507812 208.820312 142.796875 208.820312 141.804688 C 208.820312 140.703125 209.027344 139.898438 209.445312 139.398438 C 209.796875 138.960938 210.277344 138.742188 210.882812 138.742188 C 211.328125 138.742188 211.695312 138.867188 211.976562 139.117188 C 212.265625 139.367188 212.445312 139.71875 212.507812 140.164062 Z M 209.632812 142.632812 C 209.632812 142.875 209.683594 143.109375 209.789062 143.335938 C 209.890625 143.554688 210.03125 143.722656 210.210938 143.835938 C 210.398438 143.953125 210.59375 144.007812 210.804688 144.007812 C 211.09375 144.007812 211.34375 143.890625 211.554688 143.648438 C 211.773438 143.410156 211.882812 143.085938 211.882812 142.679688 C 211.882812 142.285156 211.777344 141.972656 211.570312 141.742188 C 211.359375 141.515625 211.09375 141.398438 210.773438 141.398438 C 210.460938 141.398438 210.1875 141.515625 209.960938 141.742188 C 209.742188 141.972656 209.632812 142.269531 209.632812 142.632812 Z M 209.632812 142.632812 "/>
<g clip-path="url(#clip1)" clip-rule="nonzero">
<path style=" stroke:none;fill-rule:nonzero;fill:rgb(0%,0%,0%);fill-opacity:1;" d="M 256.46875 143.820312 L 256.46875 144.492188 L 252.6875 144.492188 C 252.675781 144.328125 252.703125 144.164062 252.765625 144.007812 C 252.859375 143.75 253.007812 143.492188 253.21875 143.242188 C 253.4375 142.992188 253.742188 142.703125 254.140625 142.367188 C 254.765625 141.859375 255.1875 141.457031 255.40625 141.164062 C 255.625 140.863281 255.734375 140.582031 255.734375 140.320312 C 255.734375 140.039062 255.632812 139.804688 255.4375 139.617188 C 255.238281 139.421875 254.976562 139.320312 254.65625 139.320312 C 254.320312 139.320312 254.050781 139.425781 253.84375 139.632812 C 253.644531 139.832031 253.539062 140.113281 253.53125 140.476562 L 252.8125 140.398438 C 252.863281 139.859375 253.050781 139.445312 253.375 139.164062 C 253.695312 138.882812 254.128906 138.742188 254.671875 138.742188 C 255.222656 138.742188 255.65625 138.894531 255.96875 139.195312 C 256.289062 139.5 256.453125 139.878906 256.453125 140.335938 C 256.453125 140.566406 256.40625 140.789062 256.3125 141.007812 C 256.21875 141.226562 256.0625 141.460938 255.84375 141.710938 C 255.632812 141.953125 255.273438 142.285156 254.765625 142.710938 C 254.347656 143.066406 254.078125 143.304688 253.953125 143.429688 C 253.835938 143.554688 253.738281 143.6875 253.65625 143.820312 Z M 256.46875 143.820312 "/>
</g>
<path style=" stroke:none;fill-rule:nonzero;fill:rgb(0%,0%,0%);fill-opacity:1;" d="M 97.28125 154.023438 L 98.078125 153.945312 C 98.117188 154.269531 98.207031 154.535156 98.34375 154.742188 C 98.488281 154.953125 98.707031 155.117188 99 155.242188 C 99.289062 155.367188 99.617188 155.429688 99.984375 155.429688 C 100.304688 155.429688 100.59375 155.382812 100.84375 155.289062 C 101.09375 155.195312 101.28125 155.066406 101.40625 154.898438 C 101.53125 154.722656 101.59375 154.535156 101.59375 154.335938 C 101.59375 154.140625 101.53125 153.96875 101.40625 153.820312 C 101.289062 153.664062 101.097656 153.535156 100.828125 153.429688 C 100.660156 153.359375 100.28125 153.253906 99.6875 153.117188 C 99.09375 152.972656 98.675781 152.835938 98.4375 152.710938 C 98.132812 152.554688 97.90625 152.359375 97.75 152.117188 C 97.601562 151.878906 97.53125 151.609375 97.53125 151.304688 C 97.53125 150.984375 97.617188 150.679688 97.796875 150.398438 C 97.984375 150.117188 98.253906 149.90625 98.609375 149.757812 C 98.960938 149.613281 99.359375 149.539062 99.796875 149.539062 C 100.273438 149.539062 100.695312 149.617188 101.0625 149.773438 C 101.425781 149.921875 101.703125 150.144531 101.890625 150.445312 C 102.085938 150.75 102.195312 151.085938 102.21875 151.460938 L 101.390625 151.523438 C 101.347656 151.117188 101.203125 150.8125 100.953125 150.601562 C 100.703125 150.394531 100.328125 150.289062 99.828125 150.289062 C 99.316406 150.289062 98.941406 150.382812 98.703125 150.570312 C 98.460938 150.757812 98.34375 150.988281 98.34375 151.257812 C 98.34375 151.488281 98.425781 151.675781 98.59375 151.820312 C 98.757812 151.976562 99.1875 152.132812 99.875 152.289062 C 100.570312 152.445312 101.050781 152.582031 101.3125 152.695312 C 101.6875 152.863281 101.960938 153.082031 102.140625 153.351562 C 102.316406 153.613281 102.40625 153.921875 102.40625 154.273438 C 102.40625 154.609375 102.304688 154.929688 102.109375 155.242188 C 101.910156 155.546875 101.628906 155.78125 101.265625 155.945312 C 100.898438 156.109375 100.488281 156.195312 100.03125 156.195312 C 99.445312 156.195312 98.957031 156.109375 98.5625 155.945312 C 98.164062 155.769531 97.851562 155.515625 97.625 155.179688 C 97.40625 154.835938 97.289062 154.453125 97.28125 154.023438 Z M 97.28125 154.023438 "/>
<path style=" stroke:none;fill-rule:nonzero;fill:rgb(0%,0%,0%);fill-opacity:1;" d="M 103.480469 150.554688 L 103.480469 149.648438 L 104.277344 149.648438 L 104.277344 150.554688 Z M 103.480469 156.085938 L 103.480469 151.414062 L 104.277344 151.414062 L 104.277344 156.085938 Z M 103.480469 156.085938 "/>
<path style=" stroke:none;fill-rule:nonzero;fill:rgb(0%,0%,0%);fill-opacity:1;" d="M 105.484375 156.085938 L 105.484375 151.414062 L 106.1875 151.414062 L 106.1875 152.070312 C 106.332031 151.84375 106.523438 151.660156 106.765625 151.523438 C 107.015625 151.390625 107.296875 151.320312 107.609375 151.320312 C 107.953125 151.320312 108.234375 151.394531 108.453125 151.539062 C 108.671875 151.675781 108.828125 151.875 108.921875 152.132812 C 109.296875 151.59375 109.773438 151.320312 110.359375 151.320312 C 110.828125 151.320312 111.1875 151.453125 111.4375 151.710938 C 111.6875 151.960938 111.8125 152.351562 111.8125 152.882812 L 111.8125 156.085938 L 111.015625 156.085938 L 111.015625 153.148438 C 111.015625 152.828125 110.988281 152.597656 110.9375 152.460938 C 110.894531 152.328125 110.804688 152.21875 110.671875 152.132812 C 110.535156 152.039062 110.375 151.992188 110.1875 151.992188 C 109.863281 151.992188 109.59375 152.101562 109.375 152.320312 C 109.15625 152.539062 109.046875 152.890625 109.046875 153.367188 L 109.046875 156.085938 L 108.25 156.085938 L 108.25 153.054688 C 108.25 152.703125 108.1875 152.4375 108.0625 152.257812 C 107.9375 152.082031 107.726562 151.992188 107.4375 151.992188 C 107.207031 151.992188 107 152.054688 106.8125 152.179688 C 106.625 152.296875 106.488281 152.46875 106.40625 152.695312 C 106.320312 152.914062 106.28125 153.238281 106.28125 153.664062 L 106.28125 156.085938 Z M 105.484375 156.085938 "/>
<path style=" stroke:none;fill-rule:nonzero;fill:rgb(0%,0%,0%);fill-opacity:1;" d="M 116.054688 156.085938 L 116.054688 155.398438 C 115.6875 155.929688 115.195312 156.195312 114.570312 156.195312 C 114.296875 156.195312 114.042969 156.140625 113.804688 156.039062 C 113.5625 155.925781 113.382812 155.789062 113.257812 155.632812 C 113.140625 155.476562 113.0625 155.285156 113.023438 155.054688 C 112.992188 154.898438 112.976562 154.648438 112.976562 154.304688 L 112.976562 151.414062 L 113.757812 151.414062 L 113.757812 154.007812 C 113.757812 154.425781 113.777344 154.703125 113.820312 154.835938 C 113.859375 155.046875 113.960938 155.210938 114.117188 155.335938 C 114.28125 155.453125 114.484375 155.507812 114.726562 155.507812 C 114.964844 155.507812 115.1875 155.453125 115.398438 155.335938 C 115.605469 155.210938 115.75 155.046875 115.835938 154.835938 C 115.917969 154.628906 115.960938 154.320312 115.960938 153.914062 L 115.960938 151.414062 L 116.757812 151.414062 L 116.757812 156.085938 Z M 116.054688 156.085938 "/>
<path style=" stroke:none;fill-rule:nonzero;fill:rgb(0%,0%,0%);fill-opacity:1;" d="M 117.984375 149.648438 L 118.765625 149.648438 L 118.765625 156.085938 L 117.984375 156.085938 Z M 117.984375 149.648438 "/>
<path style=" stroke:none;fill-rule:nonzero;fill:rgb(0%,0%,0%);fill-opacity:1;" d="M 123.050781 155.507812 C 122.757812 155.757812 122.476562 155.9375 122.207031 156.039062 C 121.933594 156.140625 121.644531 156.195312 121.332031 156.195312 C 120.820312 156.195312 120.425781 156.070312 120.144531 155.820312 C 119.871094 155.570312 119.738281 155.25 119.738281 154.851562 C 119.738281 154.625 119.789062 154.414062 119.894531 154.226562 C 119.996094 154.039062 120.132812 153.890625 120.300781 153.773438 C 120.464844 153.660156 120.652344 153.570312 120.863281 153.507812 C 121.019531 153.476562 121.253906 153.441406 121.566406 153.398438 C 122.210938 153.328125 122.683594 153.234375 122.988281 153.117188 C 122.988281 153.015625 122.988281 152.945312 122.988281 152.914062 C 122.988281 152.59375 122.914062 152.367188 122.769531 152.242188 C 122.558594 152.054688 122.257812 151.960938 121.863281 151.960938 C 121.488281 151.960938 121.210938 152.03125 121.035156 152.164062 C 120.855469 152.289062 120.726562 152.519531 120.644531 152.851562 L 119.878906 152.757812 C 119.941406 152.425781 120.050781 152.160156 120.207031 151.960938 C 120.371094 151.753906 120.605469 151.597656 120.910156 151.492188 C 121.222656 151.378906 121.574219 151.320312 121.972656 151.320312 C 122.378906 151.320312 122.699219 151.367188 122.941406 151.460938 C 123.191406 151.554688 123.371094 151.675781 123.488281 151.820312 C 123.613281 151.957031 123.695312 152.132812 123.738281 152.351562 C 123.769531 152.488281 123.785156 152.726562 123.785156 153.070312 L 123.785156 154.132812 C 123.785156 154.863281 123.800781 155.328125 123.832031 155.523438 C 123.863281 155.722656 123.929688 155.910156 124.035156 156.085938 L 123.207031 156.085938 C 123.121094 155.921875 123.070312 155.726562 123.050781 155.507812 Z M 122.988281 153.742188 C 122.695312 153.859375 122.261719 153.957031 121.691406 154.039062 C 121.367188 154.09375 121.136719 154.148438 121.003906 154.210938 C 120.867188 154.265625 120.761719 154.347656 120.691406 154.460938 C 120.617188 154.578125 120.582031 154.703125 120.582031 154.835938 C 120.582031 155.046875 120.660156 155.222656 120.816406 155.367188 C 120.972656 155.503906 121.207031 155.570312 121.519531 155.570312 C 121.820312 155.570312 122.089844 155.503906 122.332031 155.367188 C 122.570312 155.234375 122.746094 155.050781 122.863281 154.820312 C 122.945312 154.644531 122.988281 154.382812 122.988281 154.039062 Z M 122.988281 153.742188 "/>
<path style=" stroke:none;fill-rule:nonzero;fill:rgb(0%,0%,0%);fill-opacity:1;" d="M 126.75 155.382812 L 126.859375 156.070312 C 126.628906 156.121094 126.429688 156.148438 126.265625 156.148438 C 125.972656 156.148438 125.75 156.101562 125.59375 156.007812 C 125.4375 155.914062 125.320312 155.796875 125.25 155.648438 C 125.1875 155.503906 125.15625 155.195312 125.15625 154.726562 L 125.15625 152.039062 L 124.578125 152.039062 L 124.578125 151.414062 L 125.15625 151.414062 L 125.15625 150.257812 L 125.953125 149.789062 L 125.953125 151.414062 L 126.75 151.414062 L 126.75 152.039062 L 125.953125 152.039062 L 125.953125 154.757812 C 125.953125 154.988281 125.960938 155.132812 125.984375 155.195312 C 126.015625 155.257812 126.0625 155.3125 126.125 155.351562 C 126.1875 155.394531 126.273438 155.414062 126.390625 155.414062 C 126.484375 155.414062 126.601562 155.40625 126.75 155.382812 Z M 126.75 155.382812 "/>
<path style=" stroke:none;fill-rule:nonzero;fill:rgb(0%,0%,0%);fill-opacity:1;" d="M 127.511719 150.554688 L 127.511719 149.648438 L 128.308594 149.648438 L 128.308594 150.554688 Z M 127.511719 156.085938 L 127.511719 151.414062 L 128.308594 151.414062 L 128.308594 156.085938 Z M 127.511719 156.085938 "/>
<path style=" stroke:none;fill-rule:nonzero;fill:rgb(0%,0%,0%);fill-opacity:1;" d="M 129.21875 153.757812 C 129.21875 152.894531 129.457031 152.253906 129.9375 151.835938 C 130.34375 151.492188 130.832031 151.320312 131.40625 151.320312 C 132.050781 151.320312 132.578125 151.53125 132.984375 151.945312 C 133.390625 152.363281 133.59375 152.941406 133.59375 153.679688 C 133.59375 154.285156 133.5 154.757812 133.3125 155.101562 C 133.132812 155.445312 132.875 155.71875 132.53125 155.914062 C 132.1875 156.101562 131.8125 156.195312 131.40625 156.195312 C 130.75 156.195312 130.21875 155.988281 129.8125 155.570312 C 129.414062 155.144531 129.21875 154.539062 129.21875 153.757812 Z M 130.03125 153.757812 C 130.03125 154.351562 130.160156 154.800781 130.421875 155.101562 C 130.679688 155.394531 131.007812 155.539062 131.40625 155.539062 C 131.800781 155.539062 132.128906 155.394531 132.390625 155.101562 C 132.648438 154.800781 132.78125 154.34375 132.78125 153.726562 C 132.78125 153.15625 132.648438 152.71875 132.390625 152.414062 C 132.128906 152.113281 131.800781 151.960938 131.40625 151.960938 C 131.007812 151.960938 130.679688 152.113281 130.421875 152.414062 C 130.160156 152.707031 130.03125 153.15625 130.03125 153.757812 Z M 130.03125 153.757812 "/>
<path style=" stroke:none;fill-rule:nonzero;fill:rgb(0%,0%,0%);fill-opacity:1;" d="M 134.523438 156.085938 L 134.523438 151.414062 L 135.242188 151.414062 L 135.242188 152.085938 C 135.574219 151.578125 136.070312 151.320312 136.726562 151.320312 C 137.007812 151.320312 137.261719 151.375 137.492188 151.476562 C 137.730469 151.570312 137.90625 151.703125 138.023438 151.867188 C 138.136719 152.023438 138.21875 152.21875 138.273438 152.445312 C 138.304688 152.59375 138.320312 152.847656 138.320312 153.210938 L 138.320312 156.085938 L 137.523438 156.085938 L 137.523438 153.242188 C 137.523438 152.921875 137.492188 152.679688 137.429688 152.523438 C 137.367188 152.367188 137.257812 152.242188 137.101562 152.148438 C 136.945312 152.046875 136.761719 151.992188 136.554688 151.992188 C 136.21875 151.992188 135.929688 152.101562 135.679688 152.320312 C 135.4375 152.53125 135.320312 152.9375 135.320312 153.539062 L 135.320312 156.085938 Z M 134.523438 156.085938 "/>
<path style=" stroke:none;fill-rule:nonzero;fill:rgb(0%,0%,0%);fill-opacity:1;" d="M 143.617188 156.085938 L 143.617188 150.398438 L 141.507812 150.398438 L 141.507812 149.648438 L 146.601562 149.648438 L 146.601562 150.398438 L 144.476562 150.398438 L 144.476562 156.085938 Z M 143.617188 156.085938 "/>
<path style=" stroke:none;fill-rule:nonzero;fill:rgb(0%,0%,0%);fill-opacity:1;" d="M 147.050781 150.554688 L 147.050781 149.648438 L 147.847656 149.648438 L 147.847656 150.554688 Z M 147.050781 156.085938 L 147.050781 151.414062 L 147.847656 151.414062 L 147.847656 156.085938 Z M 147.050781 156.085938 "/>
<path style=" stroke:none;fill-rule:nonzero;fill:rgb(0%,0%,0%);fill-opacity:1;" d="M 149.0625 156.085938 L 149.0625 151.414062 L 149.765625 151.414062 L 149.765625 152.070312 C 149.910156 151.84375 150.101562 151.660156 150.34375 151.523438 C 150.59375 151.390625 150.875 151.320312 151.1875 151.320312 C 151.53125 151.320312 151.8125 151.394531 152.03125 151.539062 C 152.25 151.675781 152.40625 151.875 152.5 152.132812 C 152.875 151.59375 153.351562 151.320312 153.9375 151.320312 C 154.40625 151.320312 154.765625 151.453125 155.015625 151.710938 C 155.265625 151.960938 155.390625 152.351562 155.390625 152.882812 L 155.390625 156.085938 L 154.59375 156.085938 L 154.59375 153.148438 C 154.59375 152.828125 154.566406 152.597656 154.515625 152.460938 C 154.472656 152.328125 154.382812 152.21875 154.25 152.132812 C 154.113281 152.039062 153.953125 151.992188 153.765625 151.992188 C 153.441406 151.992188 153.171875 152.101562 152.953125 152.320312 C 152.734375 152.539062 152.625 152.890625 152.625 153.367188 L 152.625 156.085938 L 151.828125 156.085938 L 151.828125 153.054688 C 151.828125 152.703125 151.765625 152.4375 151.640625 152.257812 C 151.515625 152.082031 151.304688 151.992188 151.015625 151.992188 C 150.785156 151.992188 150.578125 152.054688 150.390625 152.179688 C 150.203125 152.296875 150.066406 152.46875 149.984375 152.695312 C 149.898438 152.914062 149.859375 153.238281 149.859375 153.664062 L 149.859375 156.085938 Z M 149.0625 156.085938 "/>
<path style=" stroke:none;fill-rule:nonzero;fill:rgb(0%,0%,0%);fill-opacity:1;" d="M 159.753906 154.585938 L 160.582031 154.679688 C 160.445312 155.160156 160.199219 155.535156 159.847656 155.804688 C 159.503906 156.066406 159.058594 156.195312 158.519531 156.195312 C 157.839844 156.195312 157.300781 155.988281 156.894531 155.570312 C 156.496094 155.144531 156.300781 154.550781 156.300781 153.789062 C 156.300781 153.007812 156.503906 152.40625 156.910156 151.976562 C 157.316406 151.539062 157.839844 151.320312 158.488281 151.320312 C 159.113281 151.320312 159.617188 151.535156 160.003906 151.960938 C 160.398438 152.378906 160.597656 152.972656 160.597656 153.742188 C 160.597656 153.796875 160.597656 153.867188 160.597656 153.960938 L 157.113281 153.960938 C 157.144531 154.472656 157.289062 154.863281 157.550781 155.132812 C 157.808594 155.40625 158.136719 155.539062 158.535156 155.539062 C 158.824219 155.539062 159.070312 155.46875 159.269531 155.320312 C 159.476562 155.164062 159.636719 154.921875 159.753906 154.585938 Z M 157.160156 153.304688 L 159.769531 153.304688 C 159.738281 152.910156 159.636719 152.613281 159.472656 152.414062 C 159.222656 152.113281 158.894531 151.960938 158.488281 151.960938 C 158.121094 151.960938 157.816406 152.085938 157.566406 152.335938 C 157.324219 152.578125 157.191406 152.898438 157.160156 153.304688 Z M 157.160156 153.304688 "/>
<g clip-path="url(#clip2)" clip-rule="nonzero">
<path style=" stroke:none;fill-rule:nonzero;fill:rgb(0%,0%,0%);fill-opacity:1;" d="M 164.089844 157.867188 L 164.089844 149.648438 L 165.839844 149.648438 L 165.839844 150.304688 L 164.886719 150.304688 L 164.886719 157.226562 L 165.839844 157.226562 L 165.839844 157.867188 Z M 164.089844 157.867188 "/>
</g>
<path style=" stroke:none;fill-rule:nonzero;fill:rgb(0%,0%,0%);fill-opacity:1;" d="M 166.570312 156.085938 L 166.570312 151.414062 L 167.273438 151.414062 L 167.273438 152.070312 C 167.417969 151.84375 167.609375 151.660156 167.851562 151.523438 C 168.101562 151.390625 168.382812 151.320312 168.695312 151.320312 C 169.039062 151.320312 169.320312 151.394531 169.539062 151.539062 C 169.757812 151.675781 169.914062 151.875 170.007812 152.132812 C 170.382812 151.59375 170.859375 151.320312 171.445312 151.320312 C 171.914062 151.320312 172.273438 151.453125 172.523438 151.710938 C 172.773438 151.960938 172.898438 152.351562 172.898438 152.882812 L 172.898438 156.085938 L 172.101562 156.085938 L 172.101562 153.148438 C 172.101562 152.828125 172.074219 152.597656 172.023438 152.460938 C 171.980469 152.328125 171.890625 152.21875 171.757812 152.132812 C 171.621094 152.039062 171.460938 151.992188 171.273438 151.992188 C 170.949219 151.992188 170.679688 152.101562 170.460938 152.320312 C 170.242188 152.539062 170.132812 152.890625 170.132812 153.367188 L 170.132812 156.085938 L 169.335938 156.085938 L 169.335938 153.054688 C 169.335938 152.703125 169.273438 152.4375 169.148438 152.257812 C 169.023438 152.082031 168.8125 151.992188 168.523438 151.992188 C 168.292969 151.992188 168.085938 152.054688 167.898438 152.179688 C 167.710938 152.296875 167.574219 152.46875 167.492188 152.695312 C 167.40625 152.914062 167.367188 153.238281 167.367188 153.664062 L 167.367188 156.085938 Z M 166.570312 156.085938 "/>
<path style=" stroke:none;fill-rule:nonzero;fill:rgb(0%,0%,0%);fill-opacity:1;" d="M 173.761719 154.695312 L 174.542969 154.570312 C 174.582031 154.882812 174.703125 155.125 174.902344 155.289062 C 175.109375 155.457031 175.390625 155.539062 175.746094 155.539062 C 176.109375 155.539062 176.378906 155.46875 176.558594 155.320312 C 176.734375 155.175781 176.824219 155.003906 176.824219 154.804688 C 176.824219 154.617188 176.746094 154.476562 176.589844 154.382812 C 176.472656 154.3125 176.203125 154.21875 175.777344 154.101562 C 175.191406 153.957031 174.785156 153.832031 174.558594 153.726562 C 174.339844 153.625 174.171875 153.476562 174.058594 153.289062 C 173.941406 153.101562 173.886719 152.894531 173.886719 152.664062 C 173.886719 152.457031 173.933594 152.265625 174.027344 152.085938 C 174.121094 151.910156 174.25 151.757812 174.417969 151.632812 C 174.542969 151.550781 174.707031 151.476562 174.917969 151.414062 C 175.136719 151.351562 175.363281 151.320312 175.605469 151.320312 C 175.96875 151.320312 176.285156 151.375 176.558594 151.476562 C 176.839844 151.582031 177.046875 151.722656 177.183594 151.898438 C 177.316406 152.078125 177.410156 152.316406 177.464844 152.617188 L 176.683594 152.726562 C 176.652344 152.488281 176.546875 152.300781 176.371094 152.164062 C 176.203125 152.03125 175.96875 151.960938 175.667969 151.960938 C 175.300781 151.960938 175.042969 152.023438 174.886719 152.148438 C 174.730469 152.265625 174.652344 152.40625 174.652344 152.570312 C 174.652344 152.675781 174.683594 152.765625 174.746094 152.835938 C 174.808594 152.929688 174.910156 153.003906 175.058594 153.054688 C 175.128906 153.085938 175.359375 153.15625 175.746094 153.257812 C 176.308594 153.40625 176.699219 153.523438 176.917969 153.617188 C 177.144531 153.710938 177.324219 153.851562 177.449219 154.039062 C 177.574219 154.21875 177.636719 154.441406 177.636719 154.710938 C 177.636719 154.984375 177.558594 155.234375 177.402344 155.460938 C 177.246094 155.691406 177.019531 155.875 176.730469 156.007812 C 176.449219 156.132812 176.121094 156.195312 175.746094 156.195312 C 175.140625 156.195312 174.675781 156.070312 174.355469 155.820312 C 174.042969 155.5625 173.84375 155.1875 173.761719 154.695312 Z M 173.761719 154.695312 "/>
<g clip-path="url(#clip3)" clip-rule="nonzero">
<path style=" stroke:none;fill-rule:nonzero;fill:rgb(0%,0%,0%);fill-opacity:1;" d="M 179.902344 157.867188 L 178.152344 157.867188 L 178.152344 157.226562 L 179.105469 157.226562 L 179.105469 150.304688 L 178.152344 150.304688 L 178.152344 149.648438 L 179.902344 149.648438 Z M 179.902344 157.867188 "/>
</g>
<path style=" stroke:none;fill-rule:nonzero;fill:rgb(0%,0%,0%);fill-opacity:1;" d="M 0.851562 66.988281 L 0.851562 66.128906 L 4.570312 66.128906 C 5.21875 66.128906 5.734375 66.207031 6.117188 66.363281 C 6.492188 66.511719 6.800781 66.777344 7.039062 67.160156 C 7.28125 67.535156 7.398438 68.035156 7.398438 68.660156 C 7.398438 69.265625 7.292969 69.761719 7.085938 70.144531 C 6.878906 70.519531 6.578125 70.792969 6.179688 70.957031 C 5.785156 71.125 5.25 71.207031 4.570312 71.207031 L 0.851562 71.207031 L 0.851562 70.347656 L 4.570312 70.347656 C 5.125 70.347656 5.535156 70.296875 5.804688 70.191406 C 6.066406 70.089844 6.269531 69.910156 6.414062 69.660156 C 6.5625 69.410156 6.632812 69.097656 6.632812 68.722656 C 6.632812 68.097656 6.492188 67.65625 6.210938 67.394531 C 5.921875 67.125 5.375 66.988281 4.570312 66.988281 Z M 0.851562 66.988281 "/>
<path style=" stroke:none;fill-rule:nonzero;fill:rgb(0%,0%,0%);fill-opacity:1;" d="M 7.289062 64.71875 L 0.851562 64.71875 L 0.851562 62.28125 C 0.851562 61.855469 0.875 61.527344 0.914062 61.296875 C 0.96875 60.984375 1.066406 60.726562 1.210938 60.515625 C 1.359375 60.296875 1.566406 60.125 1.835938 60 C 2.097656 59.867188 2.390625 59.796875 2.710938 59.796875 C 3.265625 59.796875 3.726562 59.976562 4.101562 60.328125 C 4.476562 60.671875 4.664062 61.296875 4.664062 62.203125 L 4.664062 63.859375 L 7.289062 63.859375 Z M 3.914062 63.859375 L 3.914062 62.1875 C 3.914062 61.648438 3.8125 61.261719 3.601562 61.03125 C 3.394531 60.792969 3.109375 60.671875 2.742188 60.671875 C 2.472656 60.671875 2.242188 60.742188 2.054688 60.875 C 1.859375 61.011719 1.726562 61.195312 1.664062 61.421875 C 1.625 61.558594 1.601562 61.824219 1.601562 62.21875 L 1.601562 63.859375 Z M 3.914062 63.859375 "/>
<path style=" stroke:none;fill-rule:nonzero;fill:rgb(0%,0%,0%);fill-opacity:1;" d="M 7.34375 116.707031 L 0.90625 116.707031 L 0.90625 114.488281 C 0.90625 113.980469 0.9375 113.59375 1 113.332031 C 1.085938 112.96875 1.234375 112.65625 1.453125 112.394531 C 1.746094 112.050781 2.117188 111.796875 2.5625 111.628906 C 3 111.464844 3.511719 111.378906 4.09375 111.378906 C 4.585938 111.378906 5.015625 111.4375 5.390625 111.550781 C 5.765625 111.667969 6.078125 111.8125 6.328125 111.988281 C 6.578125 112.167969 6.777344 112.363281 6.921875 112.582031 C 7.058594 112.792969 7.164062 113.046875 7.234375 113.347656 C 7.308594 113.640625 7.34375 113.984375 7.34375 114.378906 Z M 6.578125 115.847656 L 6.578125 114.472656 C 6.578125 114.046875 6.542969 113.714844 6.46875 113.472656 C 6.386719 113.234375 6.273438 113.042969 6.125 112.894531 C 5.929688 112.699219 5.65625 112.542969 5.3125 112.425781 C 4.96875 112.3125 4.558594 112.253906 4.078125 112.253906 C 3.402344 112.253906 2.886719 112.363281 2.53125 112.582031 C 2.167969 112.800781 1.921875 113.074219 1.796875 113.394531 C 1.703125 113.625 1.65625 113.988281 1.65625 114.488281 L 1.65625 115.847656 Z M 6.578125 115.847656 "/>
<path style=" stroke:none;fill-rule:nonzero;fill:rgb(0%,0%,0%);fill-opacity:1;" d="M 7.34375 110.203125 L 0.90625 110.203125 L 0.90625 109.328125 L 5.953125 105.953125 L 0.90625 105.953125 L 0.90625 105.125 L 7.34375 105.125 L 7.34375 106 L 2.28125 109.390625 L 7.34375 109.390625 Z M 7.34375 110.203125 "/>
<path style=" stroke:none;fill-rule:nonzero;fill:rgb(0%,0%,0%);fill-opacity:1;" d="M 6.441406 33.824219 L 0.00390625 33.824219 L 0.00390625 31.386719 C 0.00390625 30.960938 0.0273438 30.632812 0.0664062 30.402344 C 0.121094 30.089844 0.21875 29.832031 0.363281 29.621094 C 0.511719 29.402344 0.71875 29.230469 0.988281 29.105469 C 1.25 28.972656 1.542969 28.902344 1.863281 28.902344 C 2.417969 28.902344 2.878906 29.082031 3.253906 29.433594 C 3.628906 29.777344 3.816406 30.402344 3.816406 31.308594 L 3.816406 32.964844 L 6.441406 32.964844 Z M 3.066406 32.964844 L 3.066406 31.292969 C 3.066406 30.753906 2.964844 30.367188 2.753906 30.136719 C 2.546875 29.898438 2.261719 29.777344 1.894531 29.777344 C 1.625 29.777344 1.394531 29.847656 1.207031 29.980469 C 1.011719 30.117188 0.878906 30.300781 0.816406 30.527344 C 0.777344 30.664062 0.753906 30.929688 0.753906 31.324219 L 0.753906 32.964844 Z M 3.066406 32.964844 "/>
<path style=" stroke:none;fill-rule:nonzero;fill:rgb(0%,0%,0%);fill-opacity:1;" d="M 6.441406 26.6875 L 0.00390625 28.390625 L 0.00390625 27.515625 L 4.222656 26.53125 C 4.660156 26.429688 5.097656 26.339844 5.535156 26.265625 C 4.847656 26.101562 4.453125 26 4.347656 25.96875 L 0.00390625 24.75 L 0.00390625 23.71875 L 3.253906 22.796875 C 4.066406 22.570312 4.828125 22.402344 5.535156 22.296875 C 5.128906 22.214844 4.667969 22.105469 4.144531 21.96875 L 0.00390625 20.96875 L 0.00390625 20.109375 L 6.441406 21.875 L 6.441406 22.6875 L 1.535156 24.046875 C 1.121094 24.164062 0.863281 24.230469 0.769531 24.25 C 1.074219 24.324219 1.328125 24.386719 1.535156 24.4375 L 6.441406 25.8125 Z M 6.441406 26.6875 "/>
<path style=" stroke:none;fill-rule:nonzero;fill:rgb(0%,0%,0%);fill-opacity:1;" d="M 6.441406 19.335938 L 0.00390625 19.335938 L 0.00390625 18.054688 L 4.566406 16.539062 C 4.984375 16.394531 5.300781 16.289062 5.519531 16.226562 C 5.28125 16.15625 4.9375 16.039062 4.488281 15.882812 L 0.00390625 14.335938 L 0.00390625 13.195312 L 6.441406 13.195312 L 6.441406 14.007812 L 1.050781 14.007812 L 6.441406 15.882812 L 6.441406 16.648438 L 0.957031 18.523438 L 6.441406 18.523438 Z M 6.441406 19.335938 "/>
<path style=" stroke:none;fill-rule:nonzero;fill:rgb(0%,0%,0%);fill-opacity:1;" d="M 3.945312 11.378906 L 8.242188 11.378906 L 8.242188 11.941406 L 3.945312 11.941406 Z M 3.945312 11.378906 "/>
<path style=" stroke:none;fill-rule:nonzero;fill:rgb(0%,0%,0%);fill-opacity:1;" d="M 8.242188 10.425781 L 3.945312 10.425781 L 3.945312 9.832031 L 7.320312 7.582031 L 3.945312 7.582031 L 3.945312 7.035156 L 8.242188 7.035156 L 8.242188 7.613281 L 4.867188 9.878906 L 8.242188 9.878906 Z M 8.242188 10.425781 "/>
</g>
</svg>
