<?xml version="1.0" encoding="UTF-8" standalone="no"?>
<svg
   width="256.466248pt"
   height="157.873428pt"
   viewBox="0 0 256.466248 157.873428"
   version="1.1"
   id="svg31846"
   sodipodi:docname="SSS.svg"
   inkscape:version="1.2 (dc2aedaf03, 2022-05-15)"
   xmlns:inkscape="http://www.inkscape.org/namespaces/inkscape"
   xmlns:sodipodi="http://sodipodi.sourceforge.net/DTD/sodipodi-0.dtd"
   xmlns="http://www.w3.org/2000/svg"
   xmlns:svg="http://www.w3.org/2000/svg">
  <sodipodi:namedview
     id="namedview31848"
     pagecolor="#505050"
     bordercolor="#eeeeee"
     borderopacity="1"
     inkscape:showpageshadow="0"
     inkscape:pageopacity="0"
     inkscape:pagecheckerboard="0"
     inkscape:deskcolor="#505050"
     inkscape:document-units="pt"
     showgrid="false"
     inkscape:zoom="4.6585077"
     inkscape:cx="170.87017"
     inkscape:cy="105.29123"
     inkscape:window-width="3840"
     inkscape:window-height="2080"
     inkscape:window-x="-11"
     inkscape:window-y="-11"
     inkscape:window-maximized="1"
     inkscape:current-layer="svg31846" />
  <defs
     id="defs31517">
    <clipPath
       id="clip1">
      <path
         d="M 252 138 L 256.464844 138 L 256.464844 145 L 252 145 Z M 252 138 "
         id="path31508" />
    </clipPath>
    <clipPath
       id="clip2">
      <path
         d="M 164 149 L 166 149 L 166 157.875 L 164 157.875 Z M 164 149 "
         id="path31511" />
    </clipPath>
    <clipPath
       id="clip3">
      <path
         d="M 178 149 L 180 149 L 180 157.875 L 178 157.875 Z M 178 149 "
         id="path31514" />
    </clipPath>
  </defs>
  <path
     style="fill:none;stroke:#ffffff;stroke-width:0.500001;stroke-linecap:butt;stroke-linejoin:round;stroke-miterlimit:10;stroke-opacity:1"
     d="M 19.777344,0.601562 H 254.41016 V 42.535156 H 19.777344 Z m 0,0"
     id="path31519" />
  <path
     style="fill:none;stroke:#ffffff;stroke-width:0.8;stroke-linecap:butt;stroke-linejoin:round;stroke-miterlimit:10;stroke-opacity:1"
     d="m 218.3125,3.785156 h 0.53125 v 35.035156 h 2.12109 V 3.785156 38.820312 h 2.125 V 3.785156 h 0.53125 v 35.035156 h 2.1211 V 3.785156 38.820312 h 2.125 V 3.785156 h 0.53125 v 35.035156 h 1.59375 V 3.785156 h 0.53125 v 35.035156 h 2.12109 V 3.785156 h 0.53125 v 35.035156 h 1.59375 V 3.785156 h 1.05859 v 35.035156 h 1.59375 V 3.785156 h 0.53125 v 35.035156 h 1.59375 V 3.785156 h 1.0625 v 35.035156 h 1.0586 V 3.785156 h 1.0625 v 35.035156 h 1.59375 V 3.785156 h 1.0625 v 35.035156 h 1.05859 V 3.785156 h 1.59375 v 35.035156 h 1.0625 V 3.785156 h 1.0625 v 35.035156 h 1.0586 V 3.785156 h 1.59375 v 35.035156 h 0.53125 V 3.785156 h 1.59375"
     id="path31521" />
  <path
     style="fill:none;stroke:#ffffff;stroke-width:0.8;stroke-linecap:butt;stroke-linejoin:round;stroke-miterlimit:10;stroke-opacity:1"
     d="m 182.21484,38.820312 h 0.53125 V 3.785156 h 0.53125 v 35.035156 h 1.58985 V 3.785156 h 0.53125 v 35.035156 h 2.125 V 3.785156 38.820312 h 2.125 V 3.785156 h 0.52734 v 35.035156 h 2.125 V 3.785156 38.820312 h 2.125 V 3.785156 h 0.53125 v 35.035156 h 2.12109 V 3.785156 38.820312 h 2.65625 V 3.785156 38.820312 h 2.1211 V 3.785156 38.820312 h 2.65625 V 3.785156 38.820312 h 2.12109 V 3.785156 38.820312 h 2.65625 V 3.785156 38.820312 h 2.1211 V 3.785156 38.820312 h 2.125 V 3.785156 h 0.53125 v 35.035156 h 2.12109 V 3.785156 38.820312 h 2.125 V 3.785156"
     id="path31523" />
  <path
     style="fill:none;stroke:#ffffff;stroke-width:0.8;stroke-linecap:butt;stroke-linejoin:round;stroke-miterlimit:10;stroke-opacity:1"
     d="m 145.58594,38.820312 h 0.53125 V 3.785156 h 2.125 V 38.820312 3.785156 h 2.12109 v 35.035156 h 0.53125 V 3.785156 h 2.125 V 38.820312 3.785156 h 2.12109 v 35.035156 h 0.53125 V 3.785156 h 1.59375 v 35.035156 h 1.0625 V 3.785156 h 1.58985 v 35.035156 h 0.53125 V 3.785156 h 1.59375 v 35.035156 h 1.0625 V 3.785156 h 1.58984 v 35.035156 h 0.53125 V 3.785156 h 1.59375 v 35.035156 h 1.0625 V 3.785156 h 1.0625 v 35.035156 h 1.58985 V 3.785156 h 1.0625 v 35.035156 h 1.0625 V 3.785156 h 1.0625 v 35.035156 h 1.58984 V 3.785156 h 0.53125 v 35.035156 h 1.59375 V 3.785156 H 178.5 v 35.035156 h 1.58984 V 3.785156 h 0.53125 v 35.035156 h 1.59375"
     id="path31525" />
  <path
     style="fill:none;stroke:#ffffff;stroke-width:0.8;stroke-linecap:butt;stroke-linejoin:round;stroke-miterlimit:10;stroke-opacity:1"
     d="m 109.48828,3.785156 h 0.53125 v 35.035156 h 0.53125 V 3.785156 h 1.59375 v 35.035156 h 0.53125 V 3.785156 h 2.1211 V 38.820312 3.785156 h 2.125 v 35.035156 h 0.53125 V 3.785156 h 2.12109 V 38.820312 3.785156 h 2.65625 V 38.820312 3.785156 h 2.12109 V 38.820312 3.785156 h 2.65625 V 38.820312 3.785156 h 2.1211 V 38.820312 3.785156 h 2.65625 V 38.820312 3.785156 h 2.12109 V 38.820312 3.785156 h 2.65625 V 38.820312 3.785156 h 2.12109 V 38.820312 3.785156 h 2.125 v 35.035156 h 0.53125 V 3.785156 h 2.1211 V 38.820312 3.785156 h 2.125 v 35.035156"
     id="path31527" />
  <path
     style="fill:none;stroke:#ffffff;stroke-width:0.8;stroke-linecap:butt;stroke-linejoin:round;stroke-miterlimit:10;stroke-opacity:1"
     d="m 72.859375,3.785156 h 0.53125 v 35.035156 h 2.125 V 3.785156 38.820312 h 2.121094 V 3.785156 h 0.53125 v 35.035156 h 2.125 V 3.785156 h 0.53125 v 35.035156 h 1.59375 V 3.785156 h 0.527343 v 35.035156 h 1.59375 V 3.785156 h 1.0625 v 35.035156 h 1.59375 V 3.785156 h 0.527344 v 35.035156 h 1.59375 V 3.785156 h 1.0625 v 35.035156 h 1.0625 V 3.785156 h 1.589844 v 35.035156 h 1.0625 V 3.785156 h 1.0625 v 35.035156 h 1.0625 V 3.785156 h 1.589844 v 35.035156 h 1.0625 V 3.785156 h 1.0625 v 35.035156 h 1.062496 V 3.785156 h 1.59375 v 35.035156 h 0.52735 V 3.785156 h 2.125 v 35.035156 h 0.53125 V 3.785156 h 1.59375 v 35.035156 h 0.52734 V 3.785156 h 1.59375"
     id="path31529" />
  <path
     style="fill:none;stroke:#ffffff;stroke-width:0.8;stroke-linecap:butt;stroke-linejoin:round;stroke-miterlimit:10;stroke-opacity:1"
     d="m 36.765625,38.820312 h 0.527344 V 3.785156 h 0.53125 v 35.035156 h 1.59375 V 3.785156 h 0.53125 v 35.035156 h 2.121093 V 3.785156 38.820312 h 2.65625 V 3.785156 38.820312 h 2.125 V 3.785156 38.820312 h 2.652344 V 3.785156 38.820312 h 2.125 V 3.785156 38.820312 H 54.28125 V 3.785156 38.820312 h 2.125 V 3.785156 38.820312 h 2.652344 V 3.785156 38.820312 h 2.125 V 3.785156 38.820312 h 2.652344 V 3.785156 38.820312 h 2.125 V 3.785156 38.820312 h 2.121093 V 3.785156 h 0.53125 v 35.035156 h 2.125 V 3.785156 38.820312 h 2.121094 V 3.785156"
     id="path31531" />
  <path
     style="fill:none;stroke:#ffffff;stroke-width:0.8;stroke-linecap:butt;stroke-linejoin:round;stroke-miterlimit:10;stroke-opacity:1"
     d="m 19.777344,38.820312 h 0.53125 V 3.785156 h 1.0625 v 35.035156 h 1.058594 V 3.785156 h 1.0625 v 35.035156 h 1.59375 V 3.785156 h 1.0625 v 35.035156 h 1.058593 V 3.785156 h 1.0625 v 35.035156 h 1.59375 V 3.785156 h 0.53125 v 35.035156 h 2.121094 V 3.785156 h 0.53125 v 35.035156 h 1.59375 V 3.785156 h 0.53125 v 35.035156 h 1.59375"
     id="path31533" />
  <path
     style="fill:none;stroke:#ffffff;stroke-width:0.500001;stroke-linecap:butt;stroke-linejoin:round;stroke-miterlimit:10;stroke-opacity:1"
     d="M 19.777344,46.558594 H 254.41016 v 41.9375 H 19.777344 Z m 0,0"
     id="path31535" />
  <path
     style="fill:none;stroke:#ffffff;stroke-width:0.8;stroke-linecap:butt;stroke-linejoin:round;stroke-miterlimit:10;stroke-opacity:1"
     d="m 202.38672,84.78125 h 52.55469"
     id="path31537" />
  <path
     style="fill:none;stroke:#ffffff;stroke-width:0.8;stroke-linecap:butt;stroke-linejoin:round;stroke-miterlimit:10;stroke-opacity:1"
     d="m 156.20312,84.78125 h 0.53125 V 49.746094 84.78125 h 6.90235 V 49.746094 h 0.53125 V 84.78125 h 6.36719 V 49.746094 84.78125 h 5.30859 V 49.746094 84.78125 h 6.37109 V 49.746094 84.78125 h 7.4336 V 49.746094 84.78125 h 12.73828"
     id="path31539" />
  <path
     style="fill:none;stroke:#ffffff;stroke-width:0.8;stroke-linecap:butt;stroke-linejoin:round;stroke-miterlimit:10;stroke-opacity:1"
     d="m 104.71094,84.78125 h 45.12109 V 49.746094 84.78125 h 6.37109"
     id="path31541" />
  <path
     style="fill:none;stroke:#ffffff;stroke-width:0.8;stroke-linecap:butt;stroke-linejoin:round;stroke-miterlimit:10;stroke-opacity:1"
     d="m 52.15625,84.78125 h 52.55469"
     id="path31543" />
  <path
     style="fill:none;stroke:#ffffff;stroke-width:0.8;stroke-linecap:butt;stroke-linejoin:round;stroke-miterlimit:10;stroke-opacity:1"
     d="m 19.777344,84.78125 h 5.839844 V 49.746094 84.78125 h 6.367187 V 49.746094 84.78125 h 7.964844 V 49.746094 84.78125 H 52.15625"
     id="path31545" />
  <path
     style="fill:none;stroke:#ffffff;stroke-width:0.500001;stroke-linecap:butt;stroke-linejoin:round;stroke-miterlimit:10;stroke-opacity:1"
     d="M 19.777344,91.988281 H 254.41016 V 133.92578 H 19.777344 Z m 0,0"
     id="path31547" />
  <path
     style="fill:none;stroke:#ffffff;stroke-width:0.8;stroke-linecap:butt;stroke-linejoin:round;stroke-miterlimit:10;stroke-opacity:1"
     d="m 207.69531,130.21094 h 16.45703 V 95.171875 130.21094 h 7.96094 V 95.171875 130.21094 h 6.90234 V 95.171875 130.21094 h 5.3086 V 95.171875 130.21094 h 5.83984 V 95.171875 130.21094 h 4.77735"
     id="path31549" />
  <path
     style="fill:none;stroke:#ffffff;stroke-width:0.8;stroke-linecap:butt;stroke-linejoin:round;stroke-miterlimit:10;stroke-opacity:1"
     d="m 155.14062,130.21094 h 52.55469"
     id="path31551" />
  <path
     style="fill:none;stroke:#ffffff;stroke-width:0.8;stroke-linecap:butt;stroke-linejoin:round;stroke-miterlimit:10;stroke-opacity:1"
     d="m 104.71094,130.21094 h 2.65625 V 95.171875 130.21094 h 7.42969 V 95.171875 130.21094 h 40.34374"
     id="path31553" />
  <path
     style="fill:none;stroke:#ffffff;stroke-width:0.8;stroke-linecap:butt;stroke-linejoin:round;stroke-miterlimit:10;stroke-opacity:1"
     d="M 56.9375,130.21094 H 74.453125 V 95.171875 130.21094 h 7.433594 V 95.171875 130.21094 h 6.898437 V 95.171875 130.21094 H 95.15625 V 95.171875 130.21094 h 5.30859 V 95.171875 l 0.53125,35.039065 h 3.71485"
     id="path31555" />
  <path
     style="fill:none;stroke:#ffffff;stroke-width:0.8;stroke-linecap:butt;stroke-linejoin:round;stroke-miterlimit:10;stroke-opacity:1"
     d="M 19.777344,130.21094 V 95.171875 130.21094 H 56.9375"
     id="path31557" />
  <path
     style="fill:none;stroke:#ffffff;stroke-width:1.2;stroke-linecap:butt;stroke-linejoin:round;stroke-miterlimit:10;stroke-opacity:1"
     d="M 19.777344,0.601562 H 254.41016"
     id="path31559" />
  <path
     style="fill:none;stroke:#ffffff;stroke-width:1.2;stroke-linecap:butt;stroke-linejoin:round;stroke-miterlimit:10;stroke-opacity:1"
     d="M 19.777344,42.535156 H 254.41016"
     id="path31561" />
  <path
     style="fill:none;stroke:#ffffff;stroke-width:1.2;stroke-linecap:butt;stroke-linejoin:round;stroke-miterlimit:10;stroke-opacity:1"
     d="M 254.41016,42.535156 V 0.601562"
     id="path31563" />
  <path
     style="fill:none;stroke:#ffffff;stroke-width:1.2;stroke-linecap:butt;stroke-linejoin:round;stroke-miterlimit:10;stroke-opacity:1"
     d="M 19.777344,42.535156 V 0.601562"
     id="path31565" />
  <path
     style="fill:none;stroke:#ffffff;stroke-width:1.2;stroke-linecap:butt;stroke-linejoin:round;stroke-miterlimit:10;stroke-opacity:1"
     d="M 19.777344,42.535156 H 254.41016"
     id="path31567" />
  <path
     style="fill:none;stroke:#ffffff;stroke-width:1.2;stroke-linecap:butt;stroke-linejoin:round;stroke-miterlimit:10;stroke-opacity:1"
     d="M 19.777344,42.535156 V 0.601562"
     id="path31569" />
  <path
     style="fill:none;stroke:#ffffff;stroke-width:1.2;stroke-linecap:butt;stroke-linejoin:round;stroke-miterlimit:10;stroke-opacity:1"
     d="M 43.132812,42.535156 V 37.738281"
     id="path31571" />
  <path
     style="fill:none;stroke:#ffffff;stroke-width:1.2;stroke-linecap:butt;stroke-linejoin:round;stroke-miterlimit:10;stroke-opacity:1"
     d="M 43.132812,0.523438 V 5.324219"
     id="path31573" />
  <path
     style="fill:none;stroke:#ffffff;stroke-width:1.2;stroke-linecap:butt;stroke-linejoin:round;stroke-miterlimit:10;stroke-opacity:1"
     d="M 66.492188,42.535156 V 37.738281"
     id="path31575" />
  <path
     style="fill:none;stroke:#ffffff;stroke-width:1.2;stroke-linecap:butt;stroke-linejoin:round;stroke-miterlimit:10;stroke-opacity:1"
     d="M 66.492188,0.523438 V 5.324219"
     id="path31577" />
  <path
     style="fill:none;stroke:#ffffff;stroke-width:1.2;stroke-linecap:butt;stroke-linejoin:round;stroke-miterlimit:10;stroke-opacity:1"
     d="M 89.847656,42.535156 V 37.738281"
     id="path31579" />
  <path
     style="fill:none;stroke:#ffffff;stroke-width:1.2;stroke-linecap:butt;stroke-linejoin:round;stroke-miterlimit:10;stroke-opacity:1"
     d="M 89.847656,0.523438 V 5.324219"
     id="path31581" />
  <path
     style="fill:none;stroke:#ffffff;stroke-width:1.2;stroke-linecap:butt;stroke-linejoin:round;stroke-miterlimit:10;stroke-opacity:1"
     d="M 113.20313,42.535156 V 37.738281"
     id="path31583" />
  <path
     style="fill:none;stroke:#ffffff;stroke-width:1.2;stroke-linecap:butt;stroke-linejoin:round;stroke-miterlimit:10;stroke-opacity:1"
     d="M 113.20313,0.523438 V 5.324219"
     id="path31585" />
  <path
     style="fill:none;stroke:#ffffff;stroke-width:1.2;stroke-linecap:butt;stroke-linejoin:round;stroke-miterlimit:10;stroke-opacity:1"
     d="M 137.09375,42.535156 V 37.738281"
     id="path31587" />
  <path
     style="fill:none;stroke:#ffffff;stroke-width:1.2;stroke-linecap:butt;stroke-linejoin:round;stroke-miterlimit:10;stroke-opacity:1"
     d="M 137.09375,0.523438 V 5.324219"
     id="path31589" />
  <path
     style="fill:none;stroke:#ffffff;stroke-width:1.2;stroke-linecap:butt;stroke-linejoin:round;stroke-miterlimit:10;stroke-opacity:1"
     d="M 160.44922,42.535156 V 37.738281"
     id="path31591" />
  <path
     style="fill:none;stroke:#ffffff;stroke-width:1.2;stroke-linecap:butt;stroke-linejoin:round;stroke-miterlimit:10;stroke-opacity:1"
     d="M 160.44922,0.523438 V 5.324219"
     id="path31593" />
  <path
     style="fill:none;stroke:#ffffff;stroke-width:1.2;stroke-linecap:butt;stroke-linejoin:round;stroke-miterlimit:10;stroke-opacity:1"
     d="M 183.80859,42.535156 V 37.738281"
     id="path31595" />
  <path
     style="fill:none;stroke:#ffffff;stroke-width:1.2;stroke-linecap:butt;stroke-linejoin:round;stroke-miterlimit:10;stroke-opacity:1"
     d="M 183.80859,0.523438 V 5.324219"
     id="path31597" />
  <path
     style="fill:none;stroke:#ffffff;stroke-width:1.2;stroke-linecap:butt;stroke-linejoin:round;stroke-miterlimit:10;stroke-opacity:1"
     d="M 207.16406,42.535156 V 37.738281"
     id="path31599" />
  <path
     style="fill:none;stroke:#ffffff;stroke-width:1.2;stroke-linecap:butt;stroke-linejoin:round;stroke-miterlimit:10;stroke-opacity:1"
     d="M 207.16406,0.523438 V 5.324219"
     id="path31601" />
  <path
     style="fill:none;stroke:#ffffff;stroke-width:1.2;stroke-linecap:butt;stroke-linejoin:round;stroke-miterlimit:10;stroke-opacity:1"
     d="M 230.52344,42.535156 V 37.738281"
     id="path31603" />
  <path
     style="fill:none;stroke:#ffffff;stroke-width:1.2;stroke-linecap:butt;stroke-linejoin:round;stroke-miterlimit:10;stroke-opacity:1"
     d="M 230.52344,0.523438 V 5.324219"
     id="path31605" />
  <path
     style="fill:none;stroke:#ffffff;stroke-width:1.2;stroke-linecap:butt;stroke-linejoin:round;stroke-miterlimit:10;stroke-opacity:1"
     d="m 19.777344,38.820312 h 4.800781"
     id="path31607" />
  <path
     style="fill:none;stroke:#ffffff;stroke-width:1.2;stroke-linecap:butt;stroke-linejoin:round;stroke-miterlimit:10;stroke-opacity:1"
     d="M 254.36328,38.820312 H 249.5625"
     id="path31609" />
  <path
     style="fill:none;stroke:#ffffff;stroke-width:1.2;stroke-linecap:butt;stroke-linejoin:round;stroke-miterlimit:10;stroke-opacity:1"
     d="m 19.777344,3.785156 h 4.800781"
     id="path31611" />
  <path
     style="fill:none;stroke:#ffffff;stroke-width:1.2;stroke-linecap:butt;stroke-linejoin:round;stroke-miterlimit:10;stroke-opacity:1"
     d="M 254.36328,3.785156 H 249.5625"
     id="path31613" />
  <path
     style="fill:none;stroke:#ffffff;stroke-width:1.2;stroke-linecap:butt;stroke-linejoin:round;stroke-miterlimit:10;stroke-opacity:1"
     d="M 254.41016,42.535156 V 0.601562"
     id="path31615" />
  <path
     style="fill:none;stroke:#ffffff;stroke-width:1.2;stroke-linecap:butt;stroke-linejoin:round;stroke-miterlimit:10;stroke-opacity:1"
     d="M 19.777344,42.535156 V 0.601562"
     id="path31617" />
  <path
     style="fill:none;stroke:#ffffff;stroke-width:1.2;stroke-linecap:butt;stroke-linejoin:round;stroke-miterlimit:10;stroke-opacity:1"
     d="M 19.777344,46.558594 H 254.41016"
     id="path31619" />
  <path
     style="fill:none;stroke:#ffffff;stroke-width:1.2;stroke-linecap:butt;stroke-linejoin:round;stroke-miterlimit:10;stroke-opacity:1"
     d="M 19.777344,88.496094 H 254.41016"
     id="path31621" />
  <path
     style="fill:none;stroke:#ffffff;stroke-width:1.2;stroke-linecap:butt;stroke-linejoin:round;stroke-miterlimit:10;stroke-opacity:1"
     d="m 254.41016,88.496094 v -41.9375"
     id="path31623" />
  <path
     style="fill:none;stroke:#ffffff;stroke-width:1.2;stroke-linecap:butt;stroke-linejoin:round;stroke-miterlimit:10;stroke-opacity:1"
     d="m 19.777344,88.496094 v -41.9375"
     id="path31625" />
  <path
     style="fill:none;stroke:#ffffff;stroke-width:1.2;stroke-linecap:butt;stroke-linejoin:round;stroke-miterlimit:10;stroke-opacity:1"
     d="M 19.777344,88.496094 H 254.41016"
     id="path31627" />
  <path
     style="fill:none;stroke:#ffffff;stroke-width:1.2;stroke-linecap:butt;stroke-linejoin:round;stroke-miterlimit:10;stroke-opacity:1"
     d="m 19.777344,88.496094 v -41.9375"
     id="path31629" />
  <path
     style="fill:none;stroke:#ffffff;stroke-width:1.2;stroke-linecap:butt;stroke-linejoin:round;stroke-miterlimit:10;stroke-opacity:1"
     d="M 43.132812,88.496094 V 83.695312"
     id="path31631" />
  <path
     style="fill:none;stroke:#ffffff;stroke-width:1.2;stroke-linecap:butt;stroke-linejoin:round;stroke-miterlimit:10;stroke-opacity:1"
     d="m 43.132812,46.332031 v 4.800781"
     id="path31633" />
  <path
     style="fill:none;stroke:#ffffff;stroke-width:1.2;stroke-linecap:butt;stroke-linejoin:round;stroke-miterlimit:10;stroke-opacity:1"
     d="M 66.492188,88.496094 V 83.695312"
     id="path31635" />
  <path
     style="fill:none;stroke:#ffffff;stroke-width:1.2;stroke-linecap:butt;stroke-linejoin:round;stroke-miterlimit:10;stroke-opacity:1"
     d="m 66.492188,46.332031 v 4.800781"
     id="path31637" />
  <path
     style="fill:none;stroke:#ffffff;stroke-width:1.2;stroke-linecap:butt;stroke-linejoin:round;stroke-miterlimit:10;stroke-opacity:1"
     d="M 89.847656,88.496094 V 83.695312"
     id="path31639" />
  <path
     style="fill:none;stroke:#ffffff;stroke-width:1.2;stroke-linecap:butt;stroke-linejoin:round;stroke-miterlimit:10;stroke-opacity:1"
     d="m 89.847656,46.332031 v 4.800781"
     id="path31641" />
  <path
     style="fill:none;stroke:#ffffff;stroke-width:1.2;stroke-linecap:butt;stroke-linejoin:round;stroke-miterlimit:10;stroke-opacity:1"
     d="M 113.20313,88.496094 V 83.695312"
     id="path31643" />
  <path
     style="fill:none;stroke:#ffffff;stroke-width:1.2;stroke-linecap:butt;stroke-linejoin:round;stroke-miterlimit:10;stroke-opacity:1"
     d="m 113.20313,46.332031 v 4.800781"
     id="path31645" />
  <path
     style="fill:none;stroke:#ffffff;stroke-width:1.2;stroke-linecap:butt;stroke-linejoin:round;stroke-miterlimit:10;stroke-opacity:1"
     d="M 137.09375,88.496094 V 83.695312"
     id="path31647" />
  <path
     style="fill:none;stroke:#ffffff;stroke-width:1.2;stroke-linecap:butt;stroke-linejoin:round;stroke-miterlimit:10;stroke-opacity:1"
     d="m 137.09375,46.332031 v 4.800781"
     id="path31649" />
  <path
     style="fill:none;stroke:#ffffff;stroke-width:1.2;stroke-linecap:butt;stroke-linejoin:round;stroke-miterlimit:10;stroke-opacity:1"
     d="M 160.44922,88.496094 V 83.695312"
     id="path31651" />
  <path
     style="fill:none;stroke:#ffffff;stroke-width:1.2;stroke-linecap:butt;stroke-linejoin:round;stroke-miterlimit:10;stroke-opacity:1"
     d="m 160.44922,46.332031 v 4.800781"
     id="path31653" />
  <path
     style="fill:none;stroke:#ffffff;stroke-width:1.2;stroke-linecap:butt;stroke-linejoin:round;stroke-miterlimit:10;stroke-opacity:1"
     d="M 183.80859,88.496094 V 83.695312"
     id="path31655" />
  <path
     style="fill:none;stroke:#ffffff;stroke-width:1.2;stroke-linecap:butt;stroke-linejoin:round;stroke-miterlimit:10;stroke-opacity:1"
     d="m 183.80859,46.332031 v 4.800781"
     id="path31657" />
  <path
     style="fill:none;stroke:#ffffff;stroke-width:1.2;stroke-linecap:butt;stroke-linejoin:round;stroke-miterlimit:10;stroke-opacity:1"
     d="M 207.16406,88.496094 V 83.695312"
     id="path31659" />
  <path
     style="fill:none;stroke:#ffffff;stroke-width:1.2;stroke-linecap:butt;stroke-linejoin:round;stroke-miterlimit:10;stroke-opacity:1"
     d="m 207.16406,46.332031 v 4.800781"
     id="path31661" />
  <path
     style="fill:none;stroke:#ffffff;stroke-width:1.2;stroke-linecap:butt;stroke-linejoin:round;stroke-miterlimit:10;stroke-opacity:1"
     d="M 230.52344,88.496094 V 83.695312"
     id="path31663" />
  <path
     style="fill:none;stroke:#ffffff;stroke-width:1.2;stroke-linecap:butt;stroke-linejoin:round;stroke-miterlimit:10;stroke-opacity:1"
     d="m 230.52344,46.332031 v 4.800781"
     id="path31665" />
  <path
     style="fill:none;stroke:#ffffff;stroke-width:1.2;stroke-linecap:butt;stroke-linejoin:round;stroke-miterlimit:10;stroke-opacity:1"
     d="m 19.777344,84.78125 h 4.800781"
     id="path31667" />
  <path
     style="fill:none;stroke:#ffffff;stroke-width:1.2;stroke-linecap:butt;stroke-linejoin:round;stroke-miterlimit:10;stroke-opacity:1"
     d="M 254.36328,84.78125 H 249.5625"
     id="path31669" />
  <path
     style="fill:none;stroke:#ffffff;stroke-width:1.2;stroke-linecap:butt;stroke-linejoin:round;stroke-miterlimit:10;stroke-opacity:1"
     d="m 19.777344,49.746094 h 4.800781"
     id="path31671" />
  <path
     style="fill:none;stroke:#ffffff;stroke-width:1.2;stroke-linecap:butt;stroke-linejoin:round;stroke-miterlimit:10;stroke-opacity:1"
     d="M 254.36328,49.746094 H 249.5625"
     id="path31673" />
  <path
     style="fill:none;stroke:#ffffff;stroke-width:1.2;stroke-linecap:butt;stroke-linejoin:round;stroke-miterlimit:10;stroke-opacity:1"
     d="M 19.777344,88.496094 H 254.41016"
     id="path31675" />
  <path
     style="fill:none;stroke:#ffffff;stroke-width:1.2;stroke-linecap:butt;stroke-linejoin:round;stroke-miterlimit:10;stroke-opacity:1"
     d="m 254.41016,88.496094 v -41.9375"
     id="path31677" />
  <path
     style="fill:none;stroke:#ffffff;stroke-width:1.2;stroke-linecap:butt;stroke-linejoin:round;stroke-miterlimit:10;stroke-opacity:1"
     d="m 19.777344,88.496094 v -41.9375"
     id="path31679" />
  <path
     style="fill:none;stroke:#ffffff;stroke-width:1.2;stroke-linecap:butt;stroke-linejoin:round;stroke-miterlimit:10;stroke-opacity:1"
     d="M 19.777344,91.988281 H 254.41016"
     id="path31681" />
  <path
     style="fill:none;stroke:#ffffff;stroke-width:1.2;stroke-linecap:butt;stroke-linejoin:round;stroke-miterlimit:10;stroke-opacity:1"
     d="M 19.777344,133.92578 H 254.41016"
     id="path31683" />
  <path
     style="fill:none;stroke:#ffffff;stroke-width:1.2;stroke-linecap:butt;stroke-linejoin:round;stroke-miterlimit:10;stroke-opacity:1"
     d="M 254.41016,133.92578 V 91.988281"
     id="path31685" />
  <path
     style="fill:none;stroke:#ffffff;stroke-width:1.2;stroke-linecap:butt;stroke-linejoin:round;stroke-miterlimit:10;stroke-opacity:1"
     d="M 19.777344,133.92578 V 91.988281"
     id="path31687" />
  <path
     style="fill:none;stroke:#ffffff;stroke-width:1.2;stroke-linecap:butt;stroke-linejoin:round;stroke-miterlimit:10;stroke-opacity:1"
     d="M 19.777344,133.92578 H 254.41016"
     id="path31689" />
  <path
     style="fill:none;stroke:#ffffff;stroke-width:1.2;stroke-linecap:butt;stroke-linejoin:round;stroke-miterlimit:10;stroke-opacity:1"
     d="M 19.777344,133.92578 V 91.988281"
     id="path31691" />
  <path
     style="fill:none;stroke:#ffffff;stroke-width:1.2;stroke-linecap:butt;stroke-linejoin:round;stroke-miterlimit:10;stroke-opacity:1"
     d="M 43.132812,133.92578 V 129.125"
     id="path31693" />
  <path
     style="fill:none;stroke:#ffffff;stroke-width:1.2;stroke-linecap:butt;stroke-linejoin:round;stroke-miterlimit:10;stroke-opacity:1"
     d="M 43.132812,92.011719 V 96.8125"
     id="path31695" />
  <path
     style="fill:none;stroke:#ffffff;stroke-width:1.2;stroke-linecap:butt;stroke-linejoin:round;stroke-miterlimit:10;stroke-opacity:1"
     d="M 66.492188,133.92578 V 129.125"
     id="path31697" />
  <path
     style="fill:none;stroke:#ffffff;stroke-width:1.2;stroke-linecap:butt;stroke-linejoin:round;stroke-miterlimit:10;stroke-opacity:1"
     d="M 66.492188,92.011719 V 96.8125"
     id="path31699" />
  <path
     style="fill:none;stroke:#ffffff;stroke-width:1.2;stroke-linecap:butt;stroke-linejoin:round;stroke-miterlimit:10;stroke-opacity:1"
     d="M 89.847656,133.92578 V 129.125"
     id="path31701" />
  <path
     style="fill:none;stroke:#ffffff;stroke-width:1.2;stroke-linecap:butt;stroke-linejoin:round;stroke-miterlimit:10;stroke-opacity:1"
     d="M 89.847656,92.011719 V 96.8125"
     id="path31703" />
  <path
     style="fill:none;stroke:#ffffff;stroke-width:1.2;stroke-linecap:butt;stroke-linejoin:round;stroke-miterlimit:10;stroke-opacity:1"
     d="M 113.20313,133.92578 V 129.125"
     id="path31705" />
  <path
     style="fill:none;stroke:#ffffff;stroke-width:1.2;stroke-linecap:butt;stroke-linejoin:round;stroke-miterlimit:10;stroke-opacity:1"
     d="M 113.20313,92.011719 V 96.8125"
     id="path31707" />
  <path
     style="fill:none;stroke:#ffffff;stroke-width:1.2;stroke-linecap:butt;stroke-linejoin:round;stroke-miterlimit:10;stroke-opacity:1"
     d="M 137.09375,133.92578 V 129.125"
     id="path31709" />
  <path
     style="fill:none;stroke:#ffffff;stroke-width:1.2;stroke-linecap:butt;stroke-linejoin:round;stroke-miterlimit:10;stroke-opacity:1"
     d="M 137.09375,92.011719 V 96.8125"
     id="path31711" />
  <path
     style="fill:none;stroke:#ffffff;stroke-width:1.2;stroke-linecap:butt;stroke-linejoin:round;stroke-miterlimit:10;stroke-opacity:1"
     d="M 160.44922,133.92578 V 129.125"
     id="path31713" />
  <path
     style="fill:none;stroke:#ffffff;stroke-width:1.2;stroke-linecap:butt;stroke-linejoin:round;stroke-miterlimit:10;stroke-opacity:1"
     d="M 160.44922,92.011719 V 96.8125"
     id="path31715" />
  <path
     style="fill:none;stroke:#ffffff;stroke-width:1.2;stroke-linecap:butt;stroke-linejoin:round;stroke-miterlimit:10;stroke-opacity:1"
     d="M 183.80859,133.92578 V 129.125"
     id="path31717" />
  <path
     style="fill:none;stroke:#ffffff;stroke-width:1.2;stroke-linecap:butt;stroke-linejoin:round;stroke-miterlimit:10;stroke-opacity:1"
     d="M 183.80859,92.011719 V 96.8125"
     id="path31719" />
  <path
     style="fill:none;stroke:#ffffff;stroke-width:1.2;stroke-linecap:butt;stroke-linejoin:round;stroke-miterlimit:10;stroke-opacity:1"
     d="M 207.16406,133.92578 V 129.125"
     id="path31721" />
  <path
     style="fill:none;stroke:#ffffff;stroke-width:1.2;stroke-linecap:butt;stroke-linejoin:round;stroke-miterlimit:10;stroke-opacity:1"
     d="M 207.16406,92.011719 V 96.8125"
     id="path31723" />
  <path
     style="fill:none;stroke:#ffffff;stroke-width:1.2;stroke-linecap:butt;stroke-linejoin:round;stroke-miterlimit:10;stroke-opacity:1"
     d="M 230.52344,133.92578 V 129.125"
     id="path31725" />
  <path
     style="fill:none;stroke:#ffffff;stroke-width:1.2;stroke-linecap:butt;stroke-linejoin:round;stroke-miterlimit:10;stroke-opacity:1"
     d="M 230.52344,92.011719 V 96.8125"
     id="path31727" />
  <path
     style="fill:none;stroke:#ffffff;stroke-width:1.2;stroke-linecap:butt;stroke-linejoin:round;stroke-miterlimit:10;stroke-opacity:1"
     d="m 19.777344,130.21094 h 4.800781"
     id="path31729" />
  <path
     style="fill:none;stroke:#ffffff;stroke-width:1.2;stroke-linecap:butt;stroke-linejoin:round;stroke-miterlimit:10;stroke-opacity:1"
     d="M 254.36328,130.21094 H 249.5625"
     id="path31731" />
  <path
     style="fill:none;stroke:#ffffff;stroke-width:1.2;stroke-linecap:butt;stroke-linejoin:round;stroke-miterlimit:10;stroke-opacity:1"
     d="m 19.777344,95.171875 h 4.800781"
     id="path31733" />
  <path
     style="fill:none;stroke:#ffffff;stroke-width:1.2;stroke-linecap:butt;stroke-linejoin:round;stroke-miterlimit:10;stroke-opacity:1"
     d="M 254.36328,95.171875 H 249.5625"
     id="path31735" />
  <path
     style="fill:none;stroke:#ffffff;stroke-width:1.2;stroke-linecap:butt;stroke-linejoin:round;stroke-miterlimit:10;stroke-opacity:1"
     d="M 19.777344,91.988281 H 254.41016"
     id="path31737" />
  <path
     style="fill:none;stroke:#ffffff;stroke-width:1.2;stroke-linecap:butt;stroke-linejoin:round;stroke-miterlimit:10;stroke-opacity:1"
     d="M 19.777344,133.92578 H 254.41016"
     id="path31739" />
  <path
     style="fill:none;stroke:#ffffff;stroke-width:1.2;stroke-linecap:butt;stroke-linejoin:round;stroke-miterlimit:10;stroke-opacity:1"
     d="M 254.41016,133.92578 V 91.988281"
     id="path31741" />
  <path
     style="fill:none;stroke:#ffffff;stroke-width:1.2;stroke-linecap:butt;stroke-linejoin:round;stroke-miterlimit:10;stroke-opacity:1"
     d="M 19.777344,133.92578 V 91.988281"
     id="path31743" />
  <g
     id="g34976">
    <path
       style="fill:#ffffff;fill-opacity:1;fill-rule:nonzero;stroke:none"
       d="m 12.757812,38.863281 c 0,-0.675781 0.06641,-1.21875 0.203126,-1.625 0.144531,-0.414062 0.351562,-0.734375 0.625,-0.953125 0.28125,-0.226562 0.628906,-0.34375 1.046874,-0.34375 0.300782,0 0.566407,0.0625 0.796876,0.1875 0.238281,0.125 0.429687,0.304688 0.578124,0.53125 0.15625,0.230469 0.273438,0.515625 0.359376,0.859375 0.08203,0.335938 0.125,0.78125 0.125,1.34375 0,0.679688 -0.07031,1.226563 -0.203126,1.640625 -0.136718,0.40625 -0.34375,0.726563 -0.625,0.953125 -0.273437,0.21875 -0.617187,0.328125 -1.03125,0.328125 -0.554687,0 -0.984374,-0.195312 -1.296874,-0.59375 -0.386719,-0.476562 -0.578126,-1.253906 -0.578126,-2.328125 z m 0.734376,0 c 0,0.9375 0.109374,1.5625 0.328124,1.875 0.21875,0.3125 0.488282,0.46875 0.8125,0.46875 0.320313,0 0.59375,-0.15625 0.8125,-0.46875 0.21875,-0.3125 0.328126,-0.9375 0.328126,-1.875 0,-0.9375 -0.109376,-1.5625 -0.328126,-1.875 -0.21875,-0.3125 -0.496093,-0.46875 -0.828124,-0.46875 -0.324219,0 -0.578126,0.136719 -0.765626,0.40625 -0.242187,0.355469 -0.359374,1 -0.359374,1.9375 z m 0,0"
       id="path31745" />
    <path
       style="fill:#ffffff;fill-opacity:1;fill-rule:nonzero;stroke:none"
       d="M 15.6875,6.902344 H 14.984375 V 2.417969 c -0.167969,0.167969 -0.390625,0.335937 -0.671875,0.5 -0.273438,0.15625 -0.515625,0.273437 -0.734375,0.34375 V 2.589844 c 0.394531,-0.1875 0.738281,-0.410156 1.03125,-0.671875 0.289063,-0.257813 0.5,-0.515625 0.625,-0.765625 H 15.6875 Z m 0,0"
       id="path31747" />
    <path
       style="fill:#ffffff;fill-opacity:1;fill-rule:nonzero;stroke:none"
       d="m 12.757812,85.230469 c 0,-0.675781 0.06641,-1.21875 0.203126,-1.625 0.144531,-0.414063 0.351562,-0.734375 0.625,-0.953125 0.28125,-0.226563 0.628906,-0.34375 1.046874,-0.34375 0.300782,0 0.566407,0.0625 0.796876,0.1875 0.238281,0.125 0.429687,0.304687 0.578124,0.53125 0.15625,0.230468 0.273438,0.515625 0.359376,0.859375 0.08203,0.335937 0.125,0.78125 0.125,1.34375 0,0.679687 -0.07031,1.226562 -0.203126,1.640625 -0.136718,0.40625 -0.34375,0.726562 -0.625,0.953125 -0.273437,0.21875 -0.617187,0.328125 -1.03125,0.328125 -0.554687,0 -0.984374,-0.195313 -1.296874,-0.59375 -0.386719,-0.476563 -0.578126,-1.253906 -0.578126,-2.328125 z m 0.734376,0 c 0,0.9375 0.109374,1.5625 0.328124,1.875 0.21875,0.3125 0.488282,0.46875 0.8125,0.46875 0.320313,0 0.59375,-0.15625 0.8125,-0.46875 0.21875,-0.3125 0.328126,-0.9375 0.328126,-1.875 0,-0.9375 -0.109376,-1.5625 -0.328126,-1.875 -0.21875,-0.3125 -0.496093,-0.46875 -0.828124,-0.46875 -0.324219,0 -0.578126,0.136719 -0.765626,0.40625 -0.242187,0.355469 -0.359374,1 -0.359374,1.9375 z m 0,0"
       id="path31749" />
    <path
       style="fill:#ffffff;fill-opacity:1;fill-rule:nonzero;stroke:none"
       d="m 15.6875,53.269531 h -0.703125 v -4.484375 c -0.167969,0.167969 -0.390625,0.335938 -0.671875,0.5 -0.273438,0.15625 -0.515625,0.273438 -0.734375,0.34375 v -0.671875 c 0.394531,-0.1875 0.738281,-0.410156 1.03125,-0.671875 0.289063,-0.257812 0.5,-0.515625 0.625,-0.765625 H 15.6875 Z m 0,0"
       id="path31751" />
    <path
       style="fill:#ffffff;fill-opacity:1;fill-rule:nonzero;stroke:none"
       d="m 12.757812,130.625 c 0,-0.67578 0.06641,-1.21875 0.203126,-1.625 0.144531,-0.41406 0.351562,-0.73438 0.625,-0.95313 0.28125,-0.22656 0.628906,-0.34374 1.046874,-0.34374 0.300782,0 0.566407,0.0625 0.796876,0.1875 0.238281,0.12499 0.429687,0.30468 0.578124,0.53124 0.15625,0.23047 0.273438,0.51563 0.359376,0.85938 0.08203,0.33594 0.125,0.78125 0.125,1.34375 0,0.67969 -0.07031,1.22656 -0.203126,1.64062 -0.136718,0.40625 -0.34375,0.72657 -0.625,0.95313 -0.273437,0.21875 -0.617187,0.32812 -1.03125,0.32812 -0.554687,0 -0.984374,-0.19531 -1.296874,-0.59375 -0.386719,-0.47656 -0.578126,-1.2539 -0.578126,-2.32812 z m 0.734376,0 c 0,0.9375 0.109374,1.5625 0.328124,1.875 0.21875,0.3125 0.488282,0.46875 0.8125,0.46875 0.320313,0 0.59375,-0.15625 0.8125,-0.46875 0.21875,-0.3125 0.328126,-0.9375 0.328126,-1.875 0,-0.9375 -0.109376,-1.5625 -0.328126,-1.875 -0.21875,-0.3125 -0.496093,-0.46875 -0.828124,-0.46875 -0.324219,0 -0.578126,0.13672 -0.765626,0.40625 -0.242187,0.35547 -0.359374,1 -0.359374,1.9375 z m 0,0"
       id="path31753" />
    <path
       style="fill:#ffffff;fill-opacity:1;fill-rule:nonzero;stroke:none"
       d="m 15.6875,98.667969 h -0.703125 v -4.484375 c -0.167969,0.167968 -0.390625,0.335937 -0.671875,0.5 -0.273438,0.15625 -0.515625,0.273437 -0.734375,0.34375 v -0.671875 c 0.394531,-0.1875 0.738281,-0.410157 1.03125,-0.671875 0.289063,-0.257813 0.5,-0.515625 0.625,-0.765625 H 15.6875 Z m 0,0"
       id="path31755" />
    <path
       style="fill:#ffffff;fill-opacity:1;fill-rule:nonzero;stroke:none"
       d="m 18.15625,141.66406 c 0,-0.67578 0.06641,-1.21875 0.203125,-1.625 0.144531,-0.41406 0.351563,-0.73437 0.625,-0.95312 0.28125,-0.22657 0.628906,-0.34375 1.046875,-0.34375 0.300781,0 0.566406,0.0625 0.796875,0.1875 0.238281,0.125 0.429687,0.30468 0.578125,0.53125 0.15625,0.23047 0.273438,0.51562 0.359375,0.85937 0.08203,0.33594 0.125,0.78125 0.125,1.34375 0,0.67969 -0.07031,1.22656 -0.203125,1.64063 -0.136719,0.40625 -0.34375,0.72656 -0.625,0.95312 -0.273438,0.21875 -0.617188,0.32813 -1.03125,0.32813 -0.554688,0 -0.984375,-0.19532 -1.296875,-0.59375 -0.386719,-0.47657 -0.578125,-1.25391 -0.578125,-2.32813 z m 0.734375,0 c 0,0.9375 0.109375,1.5625 0.328125,1.875 0.21875,0.3125 0.488281,0.46875 0.8125,0.46875 0.320312,0 0.59375,-0.15625 0.8125,-0.46875 0.21875,-0.3125 0.328125,-0.9375 0.328125,-1.875 0,-0.9375 -0.109375,-1.5625 -0.328125,-1.875 -0.21875,-0.3125 -0.496094,-0.46875 -0.828125,-0.46875 -0.324219,0 -0.578125,0.13672 -0.765625,0.40625 -0.242188,0.35547 -0.359375,1 -0.359375,1.9375 z m 0,0"
       id="path31757" />
    <path
       style="fill:#ffffff;fill-opacity:1;fill-rule:nonzero;stroke:none"
       d="m 61.730469,141.66406 c 0,-0.67578 0.06641,-1.21875 0.203125,-1.625 0.144531,-0.41406 0.351562,-0.73437 0.625,-0.95312 0.28125,-0.22657 0.628906,-0.34375 1.046875,-0.34375 0.300781,0 0.566406,0.0625 0.796875,0.1875 0.238281,0.125 0.429687,0.30468 0.578125,0.53125 0.15625,0.23047 0.273437,0.51562 0.359375,0.85937 0.08203,0.33594 0.125,0.78125 0.125,1.34375 0,0.67969 -0.07031,1.22656 -0.203125,1.64063 -0.136719,0.40625 -0.34375,0.72656 -0.625,0.95312 -0.273438,0.21875 -0.617188,0.32813 -1.03125,0.32813 -0.554688,0 -0.984375,-0.19532 -1.296875,-0.59375 -0.386719,-0.47657 -0.578125,-1.25391 -0.578125,-2.32813 z m 0.734375,0 c 0,0.9375 0.109375,1.5625 0.328125,1.875 0.21875,0.3125 0.488281,0.46875 0.8125,0.46875 0.320312,0 0.59375,-0.15625 0.8125,-0.46875 0.21875,-0.3125 0.328125,-0.9375 0.328125,-1.875 0,-0.9375 -0.109375,-1.5625 -0.328125,-1.875 -0.21875,-0.3125 -0.496094,-0.46875 -0.828125,-0.46875 -0.324219,0 -0.578125,0.13672 -0.765625,0.40625 -0.242188,0.35547 -0.359375,1 -0.359375,1.9375 z m 0,0"
       id="path31759" />
    <path
       style="fill:#ffffff;fill-opacity:1;fill-rule:nonzero;stroke:none"
       d="m 66.589844,143.69531 h 0.796875 v 0.79688 h -0.796875 z m 0,0"
       id="path31761" />
    <path
       style="fill:#ffffff;fill-opacity:1;fill-rule:nonzero;stroke:none"
       d="m 70.667969,144.49219 v -1.375 h -2.484375 v -0.64063 l 2.609375,-3.71875 h 0.578125 v 3.71875 h 0.765625 v 0.64063 h -0.765625 v 1.375 z m 0,-2.01563 v -2.57812 l -1.796875,2.57812 z m 0,0"
       id="path31763" />
    <path
       style="fill:#ffffff;fill-opacity:1;fill-rule:nonzero;stroke:none"
       d="m 108.62109,141.66406 c 0,-0.67578 0.0664,-1.21875 0.20313,-1.625 0.14453,-0.41406 0.35156,-0.73437 0.625,-0.95312 0.28125,-0.22657 0.62891,-0.34375 1.04687,-0.34375 0.30079,0 0.56641,0.0625 0.79688,0.1875 0.23828,0.125 0.42969,0.30468 0.57812,0.53125 0.15625,0.23047 0.27344,0.51562 0.35938,0.85937 0.082,0.33594 0.125,0.78125 0.125,1.34375 0,0.67969 -0.0703,1.22656 -0.20313,1.64063 -0.13671,0.40625 -0.34375,0.72656 -0.625,0.95312 -0.27343,0.21875 -0.61718,0.32813 -1.03125,0.32813 -0.55468,0 -0.98437,-0.19532 -1.29687,-0.59375 -0.38672,-0.47657 -0.57813,-1.25391 -0.57813,-2.32813 z m 0.73438,0 c 0,0.9375 0.10937,1.5625 0.32812,1.875 0.21875,0.3125 0.48829,0.46875 0.8125,0.46875 0.32032,0 0.59375,-0.15625 0.8125,-0.46875 0.21875,-0.3125 0.32813,-0.9375 0.32813,-1.875 0,-0.9375 -0.10938,-1.5625 -0.32813,-1.875 -0.21875,-0.3125 -0.49609,-0.46875 -0.82812,-0.46875 -0.32422,0 -0.57813,0.13672 -0.76563,0.40625 -0.24218,0.35547 -0.35937,1 -0.35937,1.9375 z m 0,0"
       id="path31765" />
    <path
       style="fill:#ffffff;fill-opacity:1;fill-rule:nonzero;stroke:none"
       d="m 113.48047,143.69531 h 0.79687 v 0.79688 h -0.79687 z m 0,0"
       id="path31767" />
    <path
       style="fill:#ffffff;fill-opacity:1;fill-rule:nonzero;stroke:none"
       d="m 116.38672,141.38281 c -0.29297,-0.10156 -0.51172,-0.2539 -0.65625,-0.45312 -0.13672,-0.19532 -0.20313,-0.4375 -0.20313,-0.71875 0,-0.41407 0.14454,-0.76563 0.4375,-1.04688 0.30079,-0.28125 0.70313,-0.42187 1.20313,-0.42187 0.5,0 0.89844,0.14843 1.20312,0.4375 0.30079,0.29297 0.45313,0.64843 0.45313,1.0625 0,0.26172 -0.0703,0.49218 -0.20313,0.6875 -0.13671,0.19922 -0.35156,0.35156 -0.64062,0.45312 0.35156,0.11719 0.61719,0.30469 0.79687,0.5625 0.1875,0.25 0.28125,0.55469 0.28125,0.90625 0,0.49219 -0.17187,0.90235 -0.51562,1.23438 -0.34375,0.33593 -0.79688,0.5 -1.35938,0.5 -0.57421,0 -1.03125,-0.16407 -1.375,-0.5 -0.34375,-0.33203 -0.51562,-0.75 -0.51562,-1.25 0,-0.375 0.0937,-0.6875 0.28125,-0.9375 0.1875,-0.25 0.45703,-0.42188 0.8125,-0.51563 z m -0.14063,-1.1875 c 0,0.27344 0.082,0.4961 0.25,0.67188 0.17579,0.16797 0.40625,0.25 0.6875,0.25 0.26954,0 0.48829,-0.082 0.65625,-0.25 0.17579,-0.17578 0.26563,-0.39063 0.26563,-0.64063 0,-0.25 -0.0898,-0.46094 -0.26563,-0.64062 -0.17968,-0.17578 -0.40234,-0.26563 -0.67187,-0.26563 -0.26172,0 -0.48047,0.0898 -0.65625,0.26563 -0.17969,0.16797 -0.26563,0.37109 -0.26563,0.60937 z m -0.23437,2.64063 c 0,0.19922 0.0469,0.39062 0.14062,0.57812 0.0937,0.1875 0.23438,0.33594 0.42188,0.4375 0.1875,0.10547 0.39062,0.15625 0.60937,0.15625 0.33204,0 0.60938,-0.10156 0.82813,-0.3125 0.21875,-0.21875 0.32812,-0.49219 0.32812,-0.82812 0,-0.34375 -0.11718,-0.625 -0.34375,-0.84375 -0.21875,-0.21875 -0.49609,-0.32813 -0.82812,-0.32813 -0.33594,0 -0.60938,0.10938 -0.82813,0.32813 -0.21875,0.21875 -0.32812,0.49218 -0.32812,0.8125 z m 0,0"
       id="path31769" />
    <path
       style="fill:#ffffff;fill-opacity:1;fill-rule:nonzero;stroke:none"
       d="M 157.95312,144.49219 H 157.25 v -4.48438 c -0.16797,0.16797 -0.39063,0.33594 -0.67188,0.5 -0.27343,0.15625 -0.51562,0.27344 -0.73437,0.34375 v -0.67187 c 0.39453,-0.1875 0.73828,-0.41016 1.03125,-0.67188 0.28906,-0.25781 0.5,-0.51562 0.625,-0.76562 h 0.45312 z m 0,0"
       id="path31771" />
    <path
       style="fill:#ffffff;fill-opacity:1;fill-rule:nonzero;stroke:none"
       d="m 160.15625,143.69531 h 0.79687 v 0.79688 h -0.79687 z m 0,0"
       id="path31773" />
    <path
       style="fill:#ffffff;fill-opacity:1;fill-rule:nonzero;stroke:none"
       d="m 165.67187,143.82031 v 0.67188 h -3.78125 c -0.0117,-0.16407 0.0156,-0.32813 0.0781,-0.48438 0.0937,-0.25781 0.24219,-0.51562 0.45312,-0.76562 0.21875,-0.25 0.52344,-0.53907 0.92188,-0.875 0.625,-0.50782 1.04687,-0.91016 1.26562,-1.20313 0.21875,-0.30078 0.32813,-0.58203 0.32813,-0.84375 0,-0.28125 -0.10156,-0.51562 -0.29688,-0.70312 -0.19921,-0.19532 -0.46093,-0.29688 -0.78125,-0.29688 -0.33593,0 -0.60546,0.10547 -0.8125,0.3125 -0.19921,0.19922 -0.30468,0.48047 -0.3125,0.84375 l -0.71875,-0.0781 c 0.0508,-0.53907 0.23829,-0.95313 0.5625,-1.23438 0.32032,-0.28125 0.75391,-0.42187 1.29688,-0.42187 0.55078,0 0.98437,0.15234 1.29687,0.45312 0.32032,0.30469 0.48438,0.6836 0.48438,1.14063 0,0.23047 -0.0469,0.45312 -0.14063,0.67187 -0.0937,0.21875 -0.25,0.45313 -0.46875,0.70313 -0.21093,0.24218 -0.57031,0.57422 -1.07812,1 -0.41797,0.35547 -0.6875,0.59375 -0.8125,0.71875 -0.11719,0.125 -0.21484,0.25781 -0.29688,0.39062 z m 0,0"
       id="path31775" />
    <path
       style="fill:#ffffff;fill-opacity:1;fill-rule:nonzero;stroke:none"
       d="m 204.83594,144.49219 h -0.70313 v -4.48438 c -0.16797,0.16797 -0.39062,0.33594 -0.67187,0.5 -0.27344,0.15625 -0.51563,0.27344 -0.73438,0.34375 v -0.67187 c 0.39453,-0.1875 0.73828,-0.41016 1.03125,-0.67188 0.28906,-0.25781 0.5,-0.51562 0.625,-0.76562 h 0.45313 z m 0,0"
       id="path31777" />
    <path
       style="fill:#ffffff;fill-opacity:1;fill-rule:nonzero;stroke:none"
       d="m 207.03906,143.69531 h 0.79688 v 0.79688 h -0.79688 z m 0,0"
       id="path31779" />
    <path
       style="fill:#ffffff;fill-opacity:1;fill-rule:nonzero;stroke:none"
       d="m 212.50781,140.16406 -0.70312,0.0625 c -0.0625,-0.28125 -0.15235,-0.48437 -0.26563,-0.60937 -0.1875,-0.19532 -0.42187,-0.29688 -0.70312,-0.29688 -0.21875,0 -0.41797,0.0625 -0.59375,0.1875 -0.21875,0.15625 -0.39063,0.39063 -0.51563,0.70313 -0.125,0.3125 -0.19531,0.75781 -0.20312,1.32812 0.16406,-0.25781 0.36718,-0.45312 0.60937,-0.57812 0.25,-0.125 0.50781,-0.1875 0.78125,-0.1875 0.46875,0 0.86328,0.17187 1.1875,0.51562 0.33203,0.34375 0.5,0.79297 0.5,1.34375 0,0.35547 -0.0781,0.6875 -0.23437,1 -0.14844,0.3125 -0.35547,0.55469 -0.625,0.71875 -0.27344,0.15625 -0.57813,0.23438 -0.92188,0.23438 -0.59375,0 -1.07812,-0.21094 -1.45312,-0.64063 -0.36719,-0.4375 -0.54688,-1.14844 -0.54688,-2.14062 0,-1.10157 0.20703,-1.90625 0.625,-2.40625 0.35156,-0.4375 0.83203,-0.65625 1.4375,-0.65625 0.44531,0 0.8125,0.125 1.09375,0.375 0.28906,0.25 0.46875,0.60156 0.53125,1.04687 z m -2.875,2.46875 c 0,0.24219 0.0508,0.47656 0.15625,0.70313 0.10156,0.21875 0.24219,0.38672 0.42188,0.5 0.1875,0.11718 0.38281,0.17187 0.59375,0.17187 0.28906,0 0.53906,-0.11719 0.75,-0.35937 0.21875,-0.23828 0.32812,-0.5625 0.32812,-0.96875 0,-0.39453 -0.10547,-0.70703 -0.3125,-0.9375 -0.21094,-0.22657 -0.47656,-0.34375 -0.79687,-0.34375 -0.3125,0 -0.58594,0.11718 -0.8125,0.34375 -0.21875,0.23047 -0.32813,0.52734 -0.32813,0.89062 z m 0,0"
       id="path31781" />
    <g
       clip-path="url(#clip1)"
       clip-rule="nonzero"
       id="g31785"
       style="fill:#ffffff">
      <path
         style="fill:#ffffff;fill-opacity:1;fill-rule:nonzero;stroke:none"
         d="m 256.46875,143.82031 v 0.67188 h -3.78125 c -0.0117,-0.16407 0.0156,-0.32813 0.0781,-0.48438 0.0937,-0.25781 0.24219,-0.51562 0.45313,-0.76562 0.21875,-0.25 0.52344,-0.53907 0.92187,-0.875 0.625,-0.50782 1.04688,-0.91016 1.26563,-1.20313 0.21875,-0.30078 0.32812,-0.58203 0.32812,-0.84375 0,-0.28125 -0.10156,-0.51562 -0.29687,-0.70312 -0.19922,-0.19532 -0.46094,-0.29688 -0.78125,-0.29688 -0.33594,0 -0.60547,0.10547 -0.8125,0.3125 -0.19922,0.19922 -0.30469,0.48047 -0.3125,0.84375 l -0.71875,-0.0781 c 0.0508,-0.53907 0.23828,-0.95313 0.5625,-1.23438 0.32031,-0.28125 0.75391,-0.42187 1.29687,-0.42187 0.55079,0 0.98438,0.15234 1.29688,0.45312 0.32031,0.30469 0.48437,0.6836 0.48437,1.14063 0,0.23047 -0.0469,0.45312 -0.14062,0.67187 -0.0937,0.21875 -0.25,0.45313 -0.46875,0.70313 -0.21094,0.24218 -0.57031,0.57422 -1.07813,1 -0.41796,0.35547 -0.6875,0.59375 -0.8125,0.71875 -0.11718,0.125 -0.21484,0.25781 -0.29687,0.39062 z m 0,0"
         id="path31783" />
    </g>
    <path
       style="fill:#ffffff;fill-opacity:1;fill-rule:nonzero;stroke:none"
       d="m 97.28125,154.02344 0.796875,-0.0781 c 0.03906,0.32422 0.128906,0.58985 0.265625,0.79688 0.144531,0.21093 0.363281,0.375 0.65625,0.5 0.289062,0.125 0.617188,0.1875 0.984375,0.1875 0.320315,0 0.609375,-0.0469 0.859375,-0.14063 0.25,-0.0937 0.4375,-0.22265 0.5625,-0.39062 0.125,-0.17578 0.1875,-0.36328 0.1875,-0.5625 0,-0.19532 -0.0625,-0.36719 -0.1875,-0.51563 -0.11719,-0.15625 -0.30859,-0.28515 -0.57812,-0.39062 -0.16797,-0.0703 -0.54688,-0.17578 -1.14063,-0.3125 -0.59375,-0.14453 -1.011719,-0.28125 -1.25,-0.40625 -0.304688,-0.15625 -0.53125,-0.35157 -0.6875,-0.59375 -0.148438,-0.23828 -0.21875,-0.50782 -0.21875,-0.8125 0,-0.32032 0.08594,-0.625 0.265625,-0.90625 0.1875,-0.28125 0.457031,-0.49219 0.8125,-0.64063 0.351563,-0.14453 0.75,-0.21875 1.1875,-0.21875 0.476565,0 0.898435,0.0781 1.265625,0.23438 0.36328,0.14843 0.64063,0.37109 0.82813,0.67187 0.19531,0.30469 0.30468,0.64063 0.32812,1.01563 l -0.82812,0.0625 c -0.043,-0.40625 -0.1875,-0.71094 -0.4375,-0.92188 -0.25,-0.20703 -0.625,-0.3125 -1.125005,-0.3125 -0.511719,0 -0.886719,0.0937 -1.125,0.28125 -0.242187,0.1875 -0.359375,0.41797 -0.359375,0.6875 0,0.23047 0.08203,0.41797 0.25,0.5625 0.164062,0.15625 0.59375,0.3125 1.28125,0.46875 0.69531,0.15625 1.17578,0.29297 1.4375,0.40625 0.375,0.16797 0.64844,0.38672 0.82813,0.65625 0.17578,0.26172 0.26562,0.57031 0.26562,0.92188 0,0.33593 -0.10156,0.65625 -0.29687,0.96875 -0.19922,0.30468 -0.48047,0.53906 -0.84375,0.70312 -0.36719,0.16406 -0.77735,0.25 -1.23438,0.25 -0.585938,0 -1.074219,-0.0859 -1.46875,-0.25 -0.398438,-0.17578 -0.710938,-0.42969 -0.9375,-0.76562 -0.21875,-0.34375 -0.335938,-0.72657 -0.34375,-1.15625 z m 0,0"
       id="path31787" />
    <path
       style="fill:#ffffff;fill-opacity:1;fill-rule:nonzero;stroke:none"
       d="m 103.48047,150.55469 v -0.90625 h 0.79687 v 0.90625 z m 0,5.53125 v -4.67188 h 0.79687 v 4.67188 z m 0,0"
       id="path31789" />
    <path
       style="fill:#ffffff;fill-opacity:1;fill-rule:nonzero;stroke:none"
       d="m 105.48438,156.08594 v -4.67188 h 0.70312 v 0.65625 c 0.14453,-0.22656 0.33594,-0.41015 0.57813,-0.54687 0.25,-0.13282 0.53125,-0.20313 0.84375,-0.20313 0.34375,0 0.625,0.0742 0.84375,0.21875 0.21875,0.13672 0.375,0.33594 0.46875,0.59375 0.375,-0.53906 0.85156,-0.8125 1.4375,-0.8125 0.46875,0 0.82812,0.13281 1.07812,0.39063 0.25,0.25 0.375,0.64062 0.375,1.17187 v 3.20313 h -0.79687 v -2.9375 c 0,-0.32032 -0.0273,-0.55078 -0.0781,-0.6875 -0.043,-0.13282 -0.13281,-0.24219 -0.26562,-0.32813 -0.13672,-0.0937 -0.29688,-0.14062 -0.48438,-0.14062 -0.32422,0 -0.59375,0.10937 -0.8125,0.32812 -0.21875,0.21875 -0.32812,0.57031 -0.32812,1.04688 v 2.71875 H 108.25 v -3.03125 c 0,-0.35157 -0.0625,-0.61719 -0.1875,-0.79688 -0.125,-0.17578 -0.33594,-0.26562 -0.625,-0.26562 -0.23047,0 -0.4375,0.0625 -0.625,0.1875 -0.1875,0.11718 -0.32422,0.28906 -0.40625,0.51562 -0.0859,0.21875 -0.125,0.54297 -0.125,0.96875 v 2.42188 z m 0,0"
       id="path31791" />
    <path
       style="fill:#ffffff;fill-opacity:1;fill-rule:nonzero;stroke:none"
       d="m 116.05469,156.08594 v -0.6875 c -0.36719,0.53125 -0.85938,0.79687 -1.48438,0.79687 -0.27343,0 -0.52734,-0.0547 -0.76562,-0.15625 -0.24219,-0.11328 -0.42188,-0.25 -0.54688,-0.40625 -0.11718,-0.15625 -0.19531,-0.34765 -0.23437,-0.57812 -0.0312,-0.15625 -0.0469,-0.40625 -0.0469,-0.75 v -2.89063 h 0.78125 v 2.59375 c 0,0.41797 0.0195,0.69531 0.0625,0.82813 0.0391,0.21093 0.14063,0.375 0.29688,0.5 0.16406,0.11718 0.36719,0.17187 0.60937,0.17187 0.23828,0 0.46094,-0.0547 0.67188,-0.17187 0.20703,-0.125 0.35156,-0.28907 0.4375,-0.5 0.082,-0.20703 0.125,-0.51563 0.125,-0.92188 v -2.5 h 0.79687 v 4.67188 z m 0,0"
       id="path31793" />
    <path
       style="fill:#ffffff;fill-opacity:1;fill-rule:nonzero;stroke:none"
       d="m 117.98438,149.64844 h 0.78125 v 6.4375 h -0.78125 z m 0,0"
       id="path31795" />
    <path
       style="fill:#ffffff;fill-opacity:1;fill-rule:nonzero;stroke:none"
       d="m 123.05078,155.50781 c -0.29297,0.25 -0.57422,0.42969 -0.84375,0.53125 -0.27344,0.10156 -0.5625,0.15625 -0.875,0.15625 -0.51172,0 -0.90625,-0.125 -1.1875,-0.375 -0.27344,-0.25 -0.40625,-0.57031 -0.40625,-0.96875 0,-0.22656 0.0508,-0.4375 0.15625,-0.625 0.10156,-0.1875 0.23828,-0.33594 0.40625,-0.45312 0.16406,-0.11328 0.35156,-0.20313 0.5625,-0.26563 0.15625,-0.0312 0.39063,-0.0664 0.70313,-0.10937 0.64453,-0.0703 1.11718,-0.16407 1.42187,-0.28125 0,-0.10157 0,-0.17188 0,-0.20313 0,-0.32031 -0.0742,-0.54687 -0.21875,-0.67187 -0.21094,-0.1875 -0.51172,-0.28125 -0.90625,-0.28125 -0.375,0 -0.65234,0.0703 -0.82812,0.20312 -0.17969,0.125 -0.3086,0.35547 -0.39063,0.6875 l -0.76562,-0.0937 c 0.0625,-0.33203 0.17187,-0.59765 0.32812,-0.79687 0.16406,-0.20703 0.39844,-0.36328 0.70313,-0.46875 0.3125,-0.11328 0.66406,-0.17188 1.0625,-0.17188 0.40625,0 0.72656,0.0469 0.96875,0.14063 0.25,0.0937 0.42968,0.21484 0.54687,0.35937 0.125,0.13672 0.20703,0.3125 0.25,0.53125 0.0312,0.13672 0.0469,0.375 0.0469,0.71875 v 1.0625 c 0,0.73047 0.0156,1.19531 0.0469,1.39063 0.0312,0.19922 0.0977,0.38672 0.20313,0.5625 h -0.82813 c -0.0859,-0.16407 -0.13672,-0.35938 -0.15625,-0.57813 z m -0.0625,-1.76562 c -0.29297,0.11718 -0.72656,0.21484 -1.29687,0.29687 -0.32422,0.0547 -0.55469,0.10938 -0.6875,0.17188 -0.13672,0.0547 -0.24219,0.13672 -0.3125,0.25 -0.0742,0.11718 -0.10938,0.24218 -0.10938,0.375 0,0.21093 0.0781,0.38672 0.23438,0.53125 0.15625,0.13672 0.39062,0.20312 0.70312,0.20312 0.30078,0 0.57031,-0.0664 0.8125,-0.20312 0.23828,-0.13282 0.41406,-0.31641 0.53125,-0.54688 0.082,-0.17578 0.125,-0.4375 0.125,-0.78125 z m 0,0"
       id="path31797" />
    <path
       style="fill:#ffffff;fill-opacity:1;fill-rule:nonzero;stroke:none"
       d="m 126.75,155.38281 0.10938,0.6875 c -0.23047,0.0508 -0.42969,0.0781 -0.59375,0.0781 -0.29297,0 -0.51563,-0.0469 -0.67188,-0.14063 -0.15625,-0.0937 -0.27344,-0.21094 -0.34375,-0.35937 -0.0625,-0.14453 -0.0937,-0.45313 -0.0937,-0.92188 v -2.6875 h -0.57812 v -0.625 h 0.57812 v -1.15625 l 0.79688,-0.46875 v 1.625 H 126.75 v 0.625 h -0.79687 v 2.71875 c 0,0.23047 0.008,0.375 0.0312,0.4375 0.0312,0.0625 0.0781,0.11719 0.14062,0.15625 0.0625,0.043 0.14844,0.0625 0.26563,0.0625 0.0937,0 0.21093,-0.008 0.35937,-0.0312 z m 0,0"
       id="path31799" />
    <path
       style="fill:#ffffff;fill-opacity:1;fill-rule:nonzero;stroke:none"
       d="m 127.51172,150.55469 v -0.90625 h 0.79687 v 0.90625 z m 0,5.53125 v -4.67188 h 0.79687 v 4.67188 z m 0,0"
       id="path31801" />
    <path
       style="fill:#ffffff;fill-opacity:1;fill-rule:nonzero;stroke:none"
       d="m 129.21875,153.75781 c 0,-0.86328 0.23828,-1.5039 0.71875,-1.92187 0.40625,-0.34375 0.89453,-0.51563 1.46875,-0.51563 0.64453,0 1.17187,0.21094 1.57812,0.625 0.40625,0.41797 0.60938,0.9961 0.60938,1.73438 0,0.60547 -0.0937,1.07812 -0.28125,1.42187 -0.17969,0.34375 -0.4375,0.61719 -0.78125,0.8125 -0.34375,0.1875 -0.71875,0.28125 -1.125,0.28125 -0.65625,0 -1.1875,-0.20703 -1.59375,-0.625 -0.39844,-0.42578 -0.59375,-1.03125 -0.59375,-1.8125 z m 0.8125,0 c 0,0.59375 0.12891,1.04297 0.39062,1.34375 0.25782,0.29297 0.58594,0.4375 0.98438,0.4375 0.39453,0 0.72266,-0.14453 0.98437,-0.4375 0.25782,-0.30078 0.39063,-0.75781 0.39063,-1.375 0,-0.57031 -0.13281,-1.00781 -0.39063,-1.3125 -0.26171,-0.30078 -0.58984,-0.45312 -0.98437,-0.45312 -0.39844,0 -0.72656,0.15234 -0.98438,0.45312 -0.26171,0.29297 -0.39062,0.74219 -0.39062,1.34375 z m 0,0"
       id="path31803" />
    <path
       style="fill:#ffffff;fill-opacity:1;fill-rule:nonzero;stroke:none"
       d="m 134.52344,156.08594 v -4.67188 h 0.71875 v 0.67188 c 0.33203,-0.50782 0.82812,-0.76563 1.48437,-0.76563 0.28125,0 0.53516,0.0547 0.76563,0.15625 0.23828,0.0937 0.41406,0.22656 0.53125,0.39063 0.11328,0.15625 0.19531,0.35156 0.25,0.57812 0.0312,0.14844 0.0469,0.40235 0.0469,0.76563 v 2.875 h -0.79687 v -2.84375 c 0,-0.32032 -0.0312,-0.5625 -0.0937,-0.71875 -0.0625,-0.15625 -0.17188,-0.28125 -0.32813,-0.375 -0.15625,-0.10157 -0.33984,-0.15625 -0.54687,-0.15625 -0.33594,0 -0.625,0.10937 -0.875,0.32812 -0.24219,0.21094 -0.35938,0.61719 -0.35938,1.21875 v 2.54688 z m 0,0"
       id="path31805" />
    <path
       style="fill:#ffffff;fill-opacity:1;fill-rule:nonzero;stroke:none"
       d="m 143.61719,156.08594 v -5.6875 h -2.10938 v -0.75 h 5.09375 v 0.75 h -2.125 v 5.6875 z m 0,0"
       id="path31807" />
    <path
       style="fill:#ffffff;fill-opacity:1;fill-rule:nonzero;stroke:none"
       d="m 147.05078,150.55469 v -0.90625 h 0.79688 v 0.90625 z m 0,5.53125 v -4.67188 h 0.79688 v 4.67188 z m 0,0"
       id="path31809" />
    <path
       style="fill:#ffffff;fill-opacity:1;fill-rule:nonzero;stroke:none"
       d="m 149.0625,156.08594 v -4.67188 h 0.70312 v 0.65625 c 0.14454,-0.22656 0.33594,-0.41015 0.57813,-0.54687 0.25,-0.13282 0.53125,-0.20313 0.84375,-0.20313 0.34375,0 0.625,0.0742 0.84375,0.21875 0.21875,0.13672 0.375,0.33594 0.46875,0.59375 0.375,-0.53906 0.85156,-0.8125 1.4375,-0.8125 0.46875,0 0.82812,0.13281 1.07812,0.39063 0.25,0.25 0.375,0.64062 0.375,1.17187 v 3.20313 h -0.79687 v -2.9375 c 0,-0.32032 -0.0273,-0.55078 -0.0781,-0.6875 -0.043,-0.13282 -0.13281,-0.24219 -0.26562,-0.32813 -0.13672,-0.0937 -0.29688,-0.14062 -0.48438,-0.14062 -0.32421,0 -0.59375,0.10937 -0.8125,0.32812 -0.21875,0.21875 -0.32812,0.57031 -0.32812,1.04688 v 2.71875 h -0.79688 v -3.03125 c 0,-0.35157 -0.0625,-0.61719 -0.1875,-0.79688 -0.125,-0.17578 -0.33593,-0.26562 -0.625,-0.26562 -0.23046,0 -0.4375,0.0625 -0.625,0.1875 -0.1875,0.11718 -0.32421,0.28906 -0.40625,0.51562 -0.0859,0.21875 -0.125,0.54297 -0.125,0.96875 v 2.42188 z m 0,0"
       id="path31811" />
    <path
       style="fill:#ffffff;fill-opacity:1;fill-rule:nonzero;stroke:none"
       d="m 159.75391,154.58594 0.82812,0.0937 c -0.13672,0.48047 -0.38281,0.85547 -0.73437,1.125 -0.34375,0.26172 -0.78907,0.39062 -1.32813,0.39062 -0.67969,0 -1.21875,-0.20703 -1.625,-0.625 -0.39844,-0.42578 -0.59375,-1.01953 -0.59375,-1.78125 0,-0.78125 0.20313,-1.38281 0.60938,-1.8125 0.40625,-0.4375 0.92968,-0.65625 1.57812,-0.65625 0.625,0 1.12891,0.21485 1.51563,0.64063 0.39453,0.41797 0.59375,1.01172 0.59375,1.78125 0,0.0547 0,0.125 0,0.21875 h -3.48438 c 0.0312,0.51172 0.17578,0.90234 0.4375,1.17187 0.25781,0.27344 0.58594,0.40625 0.98438,0.40625 0.28906,0 0.53515,-0.0703 0.73437,-0.21875 0.20703,-0.15625 0.36719,-0.39844 0.48438,-0.73437 z m -2.59375,-1.28125 h 2.60937 c -0.0312,-0.39453 -0.13281,-0.69141 -0.29687,-0.89063 -0.25,-0.30078 -0.57813,-0.45312 -0.98438,-0.45312 -0.36719,0 -0.67187,0.125 -0.92187,0.375 -0.24219,0.24218 -0.375,0.5625 -0.40625,0.96875 z m 0,0"
       id="path31813" />
    <g
       clip-path="url(#clip2)"
       clip-rule="nonzero"
       id="g31817"
       style="fill:#ffffff">
      <path
         style="fill:#ffffff;fill-opacity:1;fill-rule:nonzero;stroke:none"
         d="m 164.08984,157.86719 v -8.21875 h 1.75 v 0.65625 h -0.95312 v 6.92187 h 0.95312 v 0.64063 z m 0,0"
         id="path31815" />
    </g>
    <path
       style="fill:#ffffff;fill-opacity:1;fill-rule:nonzero;stroke:none"
       d="m 166.57031,156.08594 v -4.67188 h 0.70313 v 0.65625 c 0.14453,-0.22656 0.33593,-0.41015 0.57812,-0.54687 0.25,-0.13282 0.53125,-0.20313 0.84375,-0.20313 0.34375,0 0.625,0.0742 0.84375,0.21875 0.21875,0.13672 0.375,0.33594 0.46875,0.59375 0.375,-0.53906 0.85156,-0.8125 1.4375,-0.8125 0.46875,0 0.82813,0.13281 1.07813,0.39063 0.25,0.25 0.375,0.64062 0.375,1.17187 v 3.20313 h -0.79688 v -2.9375 c 0,-0.32032 -0.0273,-0.55078 -0.0781,-0.6875 -0.043,-0.13282 -0.13282,-0.24219 -0.26563,-0.32813 -0.13672,-0.0937 -0.29687,-0.14062 -0.48437,-0.14062 -0.32422,0 -0.59375,0.10937 -0.8125,0.32812 -0.21875,0.21875 -0.32813,0.57031 -0.32813,1.04688 v 2.71875 h -0.79687 v -3.03125 c 0,-0.35157 -0.0625,-0.61719 -0.1875,-0.79688 -0.125,-0.17578 -0.33594,-0.26562 -0.625,-0.26562 -0.23047,0 -0.4375,0.0625 -0.625,0.1875 -0.1875,0.11718 -0.32422,0.28906 -0.40625,0.51562 -0.0859,0.21875 -0.125,0.54297 -0.125,0.96875 v 2.42188 z m 0,0"
       id="path31819" />
    <path
       style="fill:#ffffff;fill-opacity:1;fill-rule:nonzero;stroke:none"
       d="m 173.76172,154.69531 0.78125,-0.125 c 0.0391,0.3125 0.16015,0.55469 0.35937,0.71875 0.20703,0.16797 0.48828,0.25 0.84375,0.25 0.36328,0 0.63282,-0.0703 0.8125,-0.21875 0.17578,-0.14453 0.26563,-0.3164 0.26563,-0.51562 0,-0.1875 -0.0781,-0.32813 -0.23438,-0.42188 -0.11718,-0.0703 -0.38672,-0.16406 -0.8125,-0.28125 -0.58593,-0.14453 -0.99218,-0.26953 -1.21875,-0.375 -0.21875,-0.10156 -0.38672,-0.25 -0.5,-0.4375 -0.11718,-0.1875 -0.17187,-0.39453 -0.17187,-0.625 0,-0.20703 0.0469,-0.39844 0.14062,-0.57812 0.0937,-0.17578 0.22266,-0.32813 0.39063,-0.45313 0.125,-0.082 0.28906,-0.15625 0.5,-0.21875 0.21875,-0.0625 0.44531,-0.0937 0.6875,-0.0937 0.36328,0 0.67969,0.0547 0.95312,0.15625 0.28125,0.10547 0.48828,0.2461 0.625,0.42188 0.13282,0.17968 0.22657,0.41797 0.28125,0.71875 l -0.78125,0.10937 c -0.0312,-0.23828 -0.13672,-0.42578 -0.3125,-0.5625 -0.16797,-0.13281 -0.40234,-0.20312 -0.70312,-0.20312 -0.36719,0 -0.625,0.0625 -0.78125,0.1875 -0.15625,0.11718 -0.23438,0.25781 -0.23438,0.42187 0,0.10547 0.0312,0.19531 0.0937,0.26563 0.0625,0.0937 0.16407,0.16797 0.3125,0.21875 0.0703,0.0312 0.30078,0.10156 0.6875,0.20312 0.5625,0.14844 0.95313,0.26563 1.17188,0.35938 0.22656,0.0937 0.40625,0.23437 0.53125,0.42187 0.125,0.17969 0.1875,0.40235 0.1875,0.67188 0,0.27343 -0.0781,0.52343 -0.23438,0.75 -0.15625,0.23047 -0.38281,0.41406 -0.67187,0.54687 -0.28125,0.125 -0.60938,0.1875 -0.98438,0.1875 -0.60547,0 -1.07031,-0.125 -1.39062,-0.375 -0.3125,-0.25781 -0.51172,-0.63281 -0.59375,-1.125 z m 0,0"
       id="path31821" />
    <g
       clip-path="url(#clip3)"
       clip-rule="nonzero"
       id="g31825"
       style="fill:#ffffff">
      <path
         style="fill:#ffffff;fill-opacity:1;fill-rule:nonzero;stroke:none"
         d="m 179.90234,157.86719 h -1.75 v -0.64063 h 0.95313 v -6.92187 h -0.95313 v -0.65625 h 1.75 z m 0,0"
         id="path31823" />
    </g>
    <path
       style="fill:#ffffff;fill-opacity:1;fill-rule:nonzero;stroke:none"
       d="m 0.851562,66.988281 v -0.859375 h 3.71875 c 0.648438,0 1.164063,0.07813 1.546876,0.234375 0.375,0.148438 0.683593,0.414063 0.921874,0.796875 0.242188,0.375 0.359376,0.875 0.359376,1.5 0,0.605469 -0.105469,1.101563 -0.3125,1.484375 -0.207032,0.375 -0.507813,0.648438 -0.90625,0.8125 -0.394532,0.167969 -0.929688,0.25 -1.609376,0.25 h -3.71875 v -0.859375 h 3.71875 c 0.554688,0 0.964844,-0.05078 1.234376,-0.15625 0.261718,-0.101562 0.464843,-0.28125 0.609374,-0.53125 0.148438,-0.25 0.21875,-0.5625 0.21875,-0.9375 0,-0.625 -0.140624,-1.066406 -0.421874,-1.328125 C 5.921875,67.125 5.375,66.988281 4.570312,66.988281 Z m 0,0"
       id="path31827" />
    <path
       style="fill:#ffffff;fill-opacity:1;fill-rule:nonzero;stroke:none"
       d="m 7.289062,64.71875 h -6.4375 v -2.4375 c 0,-0.425781 0.023438,-0.753906 0.0625,-0.984375 0.054688,-0.3125 0.152344,-0.570313 0.296876,-0.78125 C 1.359375,60.296875 1.566406,60.125 1.835938,60 c 0.261718,-0.132812 0.554687,-0.203125 0.875,-0.203125 0.554687,0 1.015624,0.179687 1.390624,0.53125 0.375,0.34375 0.5625,0.96875 0.5625,1.875 v 1.65625 h 2.625 z m -3.375,-0.859375 V 62.1875 c 0,-0.539062 -0.101562,-0.925781 -0.3125,-1.15625 -0.207031,-0.238281 -0.492187,-0.359375 -0.859374,-0.359375 -0.269532,0 -0.5,0.07031 -0.6875,0.203125 -0.195313,0.136719 -0.328126,0.320312 -0.390626,0.546875 -0.039062,0.136719 -0.0625,0.402344 -0.0625,0.796875 v 1.640625 z m 0,0"
       id="path31829" />
    <path
       style="fill:#ffffff;fill-opacity:1;fill-rule:nonzero;stroke:none"
       d="m 7.34375,116.70703 h -6.4375 v -2.21875 c 0,-0.50781 0.03125,-0.89453 0.09375,-1.15625 0.085938,-0.36328 0.234375,-0.67578 0.453125,-0.9375 0.292969,-0.34375 0.664063,-0.59765 1.109375,-0.76562 0.4375,-0.16407 0.949219,-0.25 1.53125,-0.25 0.492188,0 0.921875,0.0586 1.296875,0.17187 0.375,0.11719 0.6875,0.26172 0.9375,0.4375 0.25,0.17969 0.449219,0.375 0.59375,0.59375 0.136719,0.21094 0.242187,0.46485 0.3125,0.76563 0.074219,0.29297 0.109375,0.63672 0.109375,1.03125 z m -0.765625,-0.85937 v -1.375 c 0,-0.42578 -0.035156,-0.75782 -0.109375,-1 -0.082031,-0.23828 -0.195312,-0.42969 -0.34375,-0.57813 -0.195312,-0.19531 -0.46875,-0.35156 -0.8125,-0.46875 -0.34375,-0.11328 -0.753906,-0.17187 -1.234375,-0.17187 -0.675781,0 -1.191406,0.10937 -1.546875,0.32812 -0.363281,0.21875 -0.609375,0.49219 -0.734375,0.8125 -0.09375,0.23047 -0.140625,0.59375 -0.140625,1.09375 v 1.35938 z m 0,0"
       id="path31831" />
    <path
       style="fill:#ffffff;fill-opacity:1;fill-rule:nonzero;stroke:none"
       d="m 7.34375,110.20313 h -6.4375 v -0.875 l 5.046875,-3.375 H 0.90625 V 105.125 h 6.4375 V 106 l -5.0625,3.39063 h 5.0625 z m 0,0"
       id="path31833" />
    <path
       style="fill:#ffffff;fill-opacity:1;fill-rule:nonzero;stroke:none"
       d="M 6.441406,33.824219 H 0.00390625 v -2.4375 c 0,-0.425781 0.02343755,-0.753907 0.06249995,-0.984375 0.0546878,-0.3125 0.1523438,-0.570313 0.2968748,-0.78125 0.148438,-0.21875 0.355469,-0.390625 0.625,-0.515625 0.261719,-0.132813 0.554688,-0.203125 0.875,-0.203125 0.554688,0 1.015625,0.179687 1.390625,0.53125 0.375,0.34375 0.5625,0.96875 0.5625,1.875 v 1.65625 h 2.625 z m -3.375,-0.859375 v -1.671875 c 0,-0.539063 -0.101562,-0.925781 -0.3125,-1.15625 -0.207031,-0.238281 -0.492187,-0.359375 -0.859375,-0.359375 -0.269531,0 -0.5,0.07031 -0.6875,0.203125 -0.195312,0.136719 -0.328125,0.320312 -0.390625,0.546875 -0.039062,0.136718 -0.0625,0.402344 -0.0625,0.796875 v 1.640625 z m 0,0"
       id="path31835" />
    <path
       style="fill:#ffffff;fill-opacity:1;fill-rule:nonzero;stroke:none"
       d="m 6.441406,26.6875 -6.43749975,1.703125 v -0.875 L 4.222656,26.53125 c 0.4375,-0.101562 0.875,-0.191406 1.3125,-0.265625 C 4.847656,26.101562 4.453125,26 4.347656,25.96875 L 0.00390625,24.75 V 23.71875 L 3.253906,22.796875 c 0.8125,-0.226563 1.574219,-0.394531 2.28125,-0.5 -0.40625,-0.08203 -0.867187,-0.191406 -1.390625,-0.328125 l -4.14062475,-1 V 20.109375 L 6.441406,21.875 v 0.8125 l -4.90625,1.359375 C 1.121094,24.164062 0.863281,24.230469 0.769531,24.25 c 0.304688,0.07422 0.558594,0.136719 0.765625,0.1875 l 4.90625,1.375 z m 0,0"
       id="path31837" />
    <path
       style="fill:#ffffff;fill-opacity:1;fill-rule:nonzero;stroke:none"
       d="M 6.441406,19.335938 H 0.00390625 v -1.28125 L 4.566406,16.539062 c 0.417969,-0.144531 0.734375,-0.25 0.953125,-0.3125 C 5.28125,16.15625 4.9375,16.039062 4.488281,15.882812 L 0.00390625,14.335938 V 13.195312 H 6.441406 v 0.8125 H 1.050781 l 5.390625,1.875 v 0.765626 l -5.484375,1.875 h 5.484375 z m 0,0"
       id="path31839" />
    <path
       style="fill:#ffffff;fill-opacity:1;fill-rule:nonzero;stroke:none"
       d="m 3.945312,11.378906 h 4.296876 v 0.5625 H 3.945312 Z m 0,0"
       id="path31841" />
    <path
       style="fill:#ffffff;fill-opacity:1;fill-rule:nonzero;stroke:none"
       d="M 8.242188,10.425781 H 3.945312 v -0.59375 l 3.375,-2.25 h -3.375 V 7.035156 h 4.296876 v 0.578125 l -3.375,2.265625 h 3.375 z m 0,0"
       id="path31843" />
  </g>
</svg>
