<?xml version="1.0" encoding="UTF-8" standalone="no"?>
<svg
   width="261.106903pt"
   height="202.577332pt"
   viewBox="0 0 261.106903 202.577332"
   version="1.1"
   id="svg48491"
   sodipodi:docname="TDIG.svg"
   inkscape:version="1.2 (dc2aedaf03, 2022-05-15)"
   xmlns:inkscape="http://www.inkscape.org/namespaces/inkscape"
   xmlns:sodipodi="http://sodipodi.sourceforge.net/DTD/sodipodi-0.dtd"
   xmlns="http://www.w3.org/2000/svg"
   xmlns:svg="http://www.w3.org/2000/svg">
  <sodipodi:namedview
     id="namedview48493"
     pagecolor="#505050"
     bordercolor="#eeeeee"
     borderopacity="1"
     inkscape:showpageshadow="0"
     inkscape:pageopacity="0"
     inkscape:pagecheckerboard="0"
     inkscape:deskcolor="#505050"
     inkscape:document-units="pt"
     showgrid="false"
     inkscape:zoom="6.471034"
     inkscape:cx="164.2705"
     inkscape:cy="164.19323"
     inkscape:window-width="3840"
     inkscape:window-height="2080"
     inkscape:window-x="-11"
     inkscape:window-y="-11"
     inkscape:window-maximized="1"
     inkscape:current-layer="svg48491" />
  <defs
     id="defs48170">
    <clipPath
       id="clip1">
      <path
         d="M 168 193 L 171 193 L 171 202.578125 L 168 202.578125 Z M 168 193 "
         id="path48158" />
    </clipPath>
    <clipPath
       id="clip2">
      <path
         d="M 170 195 L 176 195 L 176 202.578125 L 170 202.578125 Z M 170 195 "
         id="path48161" />
    </clipPath>
    <clipPath
       id="clip3">
      <path
         d="M 180 193 L 183 193 L 183 202.578125 L 180 202.578125 Z M 180 193 "
         id="path48164" />
    </clipPath>
    <clipPath
       id="clip4">
      <path
         d="M 256 180 L 261.105469 180 L 261.105469 188 L 256 188 Z M 256 180 "
         id="path48167" />
    </clipPath>
  </defs>
  <path
     style="fill:none;stroke:#ffffff;stroke-width:1.2;stroke-linecap:butt;stroke-linejoin:round;stroke-miterlimit:10;stroke-opacity:1"
     d="M 23.792969,62.0625 H 255.94531"
     id="path48172" />
  <path
     style="fill:none;stroke:#ffffff;stroke-width:1.2;stroke-linecap:butt;stroke-linejoin:round;stroke-miterlimit:10;stroke-opacity:1"
     d="M 23.792969,116.89063 H 255.94531"
     id="path48174" />
  <path
     style="fill:none;stroke:#ffffff;stroke-width:1.2;stroke-linecap:butt;stroke-linejoin:round;stroke-miterlimit:10;stroke-opacity:1"
     d="M 255.94531,116.89063 V 62.0625"
     id="path48176" />
  <path
     style="fill:none;stroke:#ffffff;stroke-width:1.2;stroke-linecap:butt;stroke-linejoin:round;stroke-miterlimit:10;stroke-opacity:1"
     d="M 23.792969,116.89063 V 62.0625"
     id="path48178" />
  <path
     style="fill:none;stroke:#ffffff;stroke-width:1.2;stroke-linecap:butt;stroke-linejoin:round;stroke-miterlimit:10;stroke-opacity:1"
     d="M 23.792969,116.89063 H 255.94531"
     id="path48180" />
  <path
     style="fill:none;stroke:#ffffff;stroke-width:1.2;stroke-linecap:butt;stroke-linejoin:round;stroke-miterlimit:10;stroke-opacity:1"
     d="M 23.792969,116.89063 V 62.0625"
     id="path48182" />
  <path
     style="fill:none;stroke:#ffffff;stroke-width:1.2;stroke-linecap:butt;stroke-linejoin:round;stroke-miterlimit:10;stroke-opacity:1"
     d="m 23.792969,116.89063 v -2.33204"
     id="path48184" />
  <path
     style="fill:none;stroke:#ffffff;stroke-width:1.2;stroke-linecap:butt;stroke-linejoin:round;stroke-miterlimit:10;stroke-opacity:1"
     d="m 23.792969,62.0625 v 1.75"
     id="path48186" />
  <path
     style="fill:none;stroke:#ffffff;stroke-width:1.2;stroke-linecap:butt;stroke-linejoin:round;stroke-miterlimit:10;stroke-opacity:1"
     d="m 69.875,116.89063 v -4.79688"
     id="path48188" />
  <path
     style="fill:none;stroke:#ffffff;stroke-width:1.2;stroke-linecap:butt;stroke-linejoin:round;stroke-miterlimit:10;stroke-opacity:1"
     d="m 69.875,61.335938 v 4.800781"
     id="path48190" />
  <path
     style="fill:none;stroke:#ffffff;stroke-width:1.2;stroke-linecap:butt;stroke-linejoin:round;stroke-miterlimit:10;stroke-opacity:1"
     d="m 116.53906,116.89063 v -4.79688"
     id="path48192" />
  <path
     style="fill:none;stroke:#ffffff;stroke-width:1.2;stroke-linecap:butt;stroke-linejoin:round;stroke-miterlimit:10;stroke-opacity:1"
     d="m 116.53906,61.335938 v 4.800781"
     id="path48194" />
  <path
     style="fill:none;stroke:#ffffff;stroke-width:1.2;stroke-linecap:butt;stroke-linejoin:round;stroke-miterlimit:10;stroke-opacity:1"
     d="m 162.61719,116.89063 v -4.79688"
     id="path48196" />
  <path
     style="fill:none;stroke:#ffffff;stroke-width:1.2;stroke-linecap:butt;stroke-linejoin:round;stroke-miterlimit:10;stroke-opacity:1"
     d="m 162.61719,61.335938 v 4.800781"
     id="path48198" />
  <path
     style="fill:none;stroke:#ffffff;stroke-width:1.2;stroke-linecap:butt;stroke-linejoin:round;stroke-miterlimit:10;stroke-opacity:1"
     d="m 209.28125,116.89063 v -4.79688"
     id="path48200" />
  <path
     style="fill:none;stroke:#ffffff;stroke-width:1.2;stroke-linecap:butt;stroke-linejoin:round;stroke-miterlimit:10;stroke-opacity:1"
     d="m 209.28125,61.335938 v 4.800781"
     id="path48202" />
  <path
     style="fill:none;stroke:#ffffff;stroke-width:1.2;stroke-linecap:butt;stroke-linejoin:round;stroke-miterlimit:10;stroke-opacity:1"
     d="m 255.94531,116.89063 v -2.33204"
     id="path48204" />
  <path
     style="fill:none;stroke:#ffffff;stroke-width:1.2;stroke-linecap:butt;stroke-linejoin:round;stroke-miterlimit:10;stroke-opacity:1"
     d="m 255.94531,62.0625 v 1.75"
     id="path48206" />
  <path
     style="fill:none;stroke:#ffffff;stroke-width:1.2;stroke-linecap:butt;stroke-linejoin:round;stroke-miterlimit:10;stroke-opacity:1"
     d="M 23.792969,112.22656 H 28.59375"
     id="path48208" />
  <path
     style="fill:none;stroke:#ffffff;stroke-width:1.2;stroke-linecap:butt;stroke-linejoin:round;stroke-miterlimit:10;stroke-opacity:1"
     d="M 255.86328,112.22656 H 251.0625"
     id="path48210" />
  <path
     style="fill:none;stroke:#ffffff;stroke-width:1.2;stroke-linecap:butt;stroke-linejoin:round;stroke-miterlimit:10;stroke-opacity:1"
     d="M 23.792969,89.476562 H 28.59375"
     id="path48212" />
  <path
     style="fill:none;stroke:#ffffff;stroke-width:1.2;stroke-linecap:butt;stroke-linejoin:round;stroke-miterlimit:10;stroke-opacity:1"
     d="M 255.86328,89.476562 H 251.0625"
     id="path48214" />
  <path
     style="fill:none;stroke:#ffffff;stroke-width:1.2;stroke-linecap:butt;stroke-linejoin:round;stroke-miterlimit:10;stroke-opacity:1"
     d="M 23.792969,66.144531 H 28.59375"
     id="path48216" />
  <path
     style="fill:none;stroke:#ffffff;stroke-width:1.2;stroke-linecap:butt;stroke-linejoin:round;stroke-miterlimit:10;stroke-opacity:1"
     d="M 255.86328,66.144531 H 251.0625"
     id="path48218" />
  <path
     style="fill:none;stroke:#ffffff;stroke-width:1.2;stroke-linecap:butt;stroke-linejoin:round;stroke-miterlimit:10;stroke-opacity:1"
     d="M 23.792969,62.0625 H 255.94531"
     id="path48220" />
  <path
     style="fill:none;stroke:#ffffff;stroke-width:1.2;stroke-linecap:butt;stroke-linejoin:round;stroke-miterlimit:10;stroke-opacity:1"
     d="M 23.792969,116.89063 H 255.94531"
     id="path48222" />
  <path
     style="fill:none;stroke:#ffffff;stroke-width:1.2;stroke-linecap:butt;stroke-linejoin:round;stroke-miterlimit:10;stroke-opacity:1"
     d="M 255.94531,116.89063 V 62.0625"
     id="path48224" />
  <path
     style="fill:none;stroke:#ffffff;stroke-width:1.2;stroke-linecap:butt;stroke-linejoin:round;stroke-miterlimit:10;stroke-opacity:1"
     d="M 23.792969,116.89063 V 62.0625"
     id="path48226" />
  <path
     style="fill:none;stroke:#ffffff;stroke-width:1.2;stroke-linecap:butt;stroke-linejoin:round;stroke-miterlimit:10;stroke-opacity:1"
     d="M 23.792969,123.75 H 255.94531"
     id="path48228" />
  <path
     style="fill:none;stroke:#ffffff;stroke-width:1.2;stroke-linecap:butt;stroke-linejoin:round;stroke-miterlimit:10;stroke-opacity:1"
     d="M 23.792969,178.57812 H 255.94531"
     id="path48230" />
  <path
     style="fill:none;stroke:#ffffff;stroke-width:1.2;stroke-linecap:butt;stroke-linejoin:round;stroke-miterlimit:10;stroke-opacity:1"
     d="M 255.94531,178.57812 V 123.75"
     id="path48232" />
  <path
     style="fill:none;stroke:#ffffff;stroke-width:1.2;stroke-linecap:butt;stroke-linejoin:round;stroke-miterlimit:10;stroke-opacity:1"
     d="M 23.792969,178.57812 V 123.75"
     id="path48234" />
  <path
     style="fill:none;stroke:#ffffff;stroke-width:1.2;stroke-linecap:butt;stroke-linejoin:round;stroke-miterlimit:10;stroke-opacity:1"
     d="M 23.792969,178.57812 H 255.94531"
     id="path48236" />
  <path
     style="fill:none;stroke:#ffffff;stroke-width:1.2;stroke-linecap:butt;stroke-linejoin:round;stroke-miterlimit:10;stroke-opacity:1"
     d="M 23.792969,178.57812 V 123.75"
     id="path48238" />
  <path
     style="fill:none;stroke:#ffffff;stroke-width:1.2;stroke-linecap:butt;stroke-linejoin:round;stroke-miterlimit:10;stroke-opacity:1"
     d="m 23.792969,178.57812 v -2.33203"
     id="path48240" />
  <path
     style="fill:none;stroke:#ffffff;stroke-width:1.2;stroke-linecap:butt;stroke-linejoin:round;stroke-miterlimit:10;stroke-opacity:1"
     d="m 23.792969,123.75 v 1.75"
     id="path48242" />
  <path
     style="fill:none;stroke:#ffffff;stroke-width:1.2;stroke-linecap:butt;stroke-linejoin:round;stroke-miterlimit:10;stroke-opacity:1"
     d="m 69.875,178.57812 v -4.79687"
     id="path48244" />
  <path
     style="fill:none;stroke:#ffffff;stroke-width:1.2;stroke-linecap:butt;stroke-linejoin:round;stroke-miterlimit:10;stroke-opacity:1"
     d="m 69.875,123.42578 v 4.80078"
     id="path48246" />
  <path
     style="fill:none;stroke:#ffffff;stroke-width:1.2;stroke-linecap:butt;stroke-linejoin:round;stroke-miterlimit:10;stroke-opacity:1"
     d="m 116.53906,178.57812 v -4.79687"
     id="path48248" />
  <path
     style="fill:none;stroke:#ffffff;stroke-width:1.2;stroke-linecap:butt;stroke-linejoin:round;stroke-miterlimit:10;stroke-opacity:1"
     d="m 116.53906,123.42578 v 4.80078"
     id="path48250" />
  <path
     style="fill:none;stroke:#ffffff;stroke-width:1.2;stroke-linecap:butt;stroke-linejoin:round;stroke-miterlimit:10;stroke-opacity:1"
     d="m 162.61719,178.57812 v -4.79687"
     id="path48252" />
  <path
     style="fill:none;stroke:#ffffff;stroke-width:1.2;stroke-linecap:butt;stroke-linejoin:round;stroke-miterlimit:10;stroke-opacity:1"
     d="m 162.61719,123.42578 v 4.80078"
     id="path48254" />
  <path
     style="fill:none;stroke:#ffffff;stroke-width:1.2;stroke-linecap:butt;stroke-linejoin:round;stroke-miterlimit:10;stroke-opacity:1"
     d="m 209.28125,178.57812 v -4.79687"
     id="path48256" />
  <path
     style="fill:none;stroke:#ffffff;stroke-width:1.2;stroke-linecap:butt;stroke-linejoin:round;stroke-miterlimit:10;stroke-opacity:1"
     d="m 209.28125,123.42578 v 4.80078"
     id="path48258" />
  <path
     style="fill:none;stroke:#ffffff;stroke-width:1.2;stroke-linecap:butt;stroke-linejoin:round;stroke-miterlimit:10;stroke-opacity:1"
     d="m 255.94531,178.57812 v -2.33203"
     id="path48260" />
  <path
     style="fill:none;stroke:#ffffff;stroke-width:1.2;stroke-linecap:butt;stroke-linejoin:round;stroke-miterlimit:10;stroke-opacity:1"
     d="m 255.94531,123.75 v 1.75"
     id="path48262" />
  <path
     style="fill:none;stroke:#ffffff;stroke-width:1.2;stroke-linecap:butt;stroke-linejoin:round;stroke-miterlimit:10;stroke-opacity:1"
     d="M 23.792969,173.91406 H 28.59375"
     id="path48264" />
  <path
     style="fill:none;stroke:#ffffff;stroke-width:1.2;stroke-linecap:butt;stroke-linejoin:round;stroke-miterlimit:10;stroke-opacity:1"
     d="M 255.86328,173.91406 H 251.0625"
     id="path48266" />
  <path
     style="fill:none;stroke:#ffffff;stroke-width:1.2;stroke-linecap:butt;stroke-linejoin:round;stroke-miterlimit:10;stroke-opacity:1"
     d="M 23.792969,151.16406 H 28.59375"
     id="path48268" />
  <path
     style="fill:none;stroke:#ffffff;stroke-width:1.2;stroke-linecap:butt;stroke-linejoin:round;stroke-miterlimit:10;stroke-opacity:1"
     d="M 255.86328,151.16406 H 251.0625"
     id="path48270" />
  <path
     style="fill:none;stroke:#ffffff;stroke-width:1.2;stroke-linecap:butt;stroke-linejoin:round;stroke-miterlimit:10;stroke-opacity:1"
     d="M 23.792969,127.83203 H 28.59375"
     id="path48272" />
  <path
     style="fill:none;stroke:#ffffff;stroke-width:1.2;stroke-linecap:butt;stroke-linejoin:round;stroke-miterlimit:10;stroke-opacity:1"
     d="M 255.86328,127.83203 H 251.0625"
     id="path48274" />
  <path
     style="fill:none;stroke:#ffffff;stroke-width:1.2;stroke-linecap:butt;stroke-linejoin:round;stroke-miterlimit:10;stroke-opacity:1"
     d="M 23.792969,123.75 H 255.94531"
     id="path48276" />
  <path
     style="fill:none;stroke:#ffffff;stroke-width:1.2;stroke-linecap:butt;stroke-linejoin:round;stroke-miterlimit:10;stroke-opacity:1"
     d="M 23.792969,178.57812 H 255.94531"
     id="path48278" />
  <path
     style="fill:none;stroke:#ffffff;stroke-width:1.2;stroke-linecap:butt;stroke-linejoin:round;stroke-miterlimit:10;stroke-opacity:1"
     d="M 255.94531,178.57812 V 123.75"
     id="path48280" />
  <path
     style="fill:none;stroke:#ffffff;stroke-width:1.2;stroke-linecap:butt;stroke-linejoin:round;stroke-miterlimit:10;stroke-opacity:1"
     d="M 23.792969,178.57812 V 123.75"
     id="path48282" />
  <path
     style="fill:none;stroke:#0000ff;stroke-width:0.8;stroke-linecap:butt;stroke-linejoin:round;stroke-miterlimit:10;stroke-opacity:1"
     d="m 198.78516,173.91406 h 32.66406 l 0.58203,-46.08203 h 12.83203 l 0.58594,46.08203 h 11.08203"
     id="path48284" />
  <path
     style="fill:none;stroke:#0000ff;stroke-width:0.8;stroke-linecap:butt;stroke-linejoin:round;stroke-miterlimit:10;stroke-opacity:1"
     d="m 141.03516,127.83203 h 1.75 l 0.58593,46.08203 h 10.4961 l 0.58593,-46.08203 h 14 l 0.58204,46.08203 h 29.75"
     id="path48286" />
  <path
     style="fill:none;stroke:#0000ff;stroke-width:0.8;stroke-linecap:butt;stroke-linejoin:round;stroke-miterlimit:10;stroke-opacity:1"
     d="m 83.871094,173.91406 h 44.332026 v -46.08203 h 12.83204"
     id="path48288" />
  <path
     style="fill:none;stroke:#0000ff;stroke-width:0.8;stroke-linecap:butt;stroke-linejoin:round;stroke-miterlimit:10;stroke-opacity:1"
     d="m 26.125,127.83203 h 14 l 0.582031,46.08203 h 10.5 l 0.585938,-46.08203 H 65.789062 L 66.375,173.91406 h 17.496094"
     id="path48290" />
  <path
     style="fill:none;stroke:#0000ff;stroke-width:0.8;stroke-linecap:butt;stroke-linejoin:round;stroke-miterlimit:10;stroke-opacity:1"
     d="M 23.792969,173.91406 24.375,127.83203 h 1.75"
     id="path48292" />
  <path
     style="fill:none;stroke:#ff0000;stroke-width:0.8;stroke-linecap:butt;stroke-linejoin:round;stroke-miterlimit:10;stroke-opacity:1"
     d="m 199.36719,127.83203 h 6.41406 v 46.08203 h 14.58594 l 0.58203,-46.08203 h 10.5 l 0.58203,46.08203 h 24.5"
     id="path48294" />
  <path
     style="fill:none;stroke:#ff0000;stroke-width:0.8;stroke-linecap:butt;stroke-linejoin:round;stroke-miterlimit:10;stroke-opacity:1"
     d="m 141.62109,173.91406 h 37.91407 l 0.58203,-46.08203 0.58593,46.08203 h 13.41407 l 0.58203,-46.08203 h 4.66797"
     id="path48296" />
  <path
     style="fill:none;stroke:#ff0000;stroke-width:0.8;stroke-linecap:butt;stroke-linejoin:round;stroke-miterlimit:10;stroke-opacity:1"
     d="m 84.457031,173.91406 h 7.582031 v -46.08203 h 10.499998 l 0.58203,46.08203 h 13.41797 l 0.58203,-46.08203 h 10.5 l 0.58203,46.08203 h 13.41797"
     id="path48298" />
  <path
     style="fill:none;stroke:#ff0000;stroke-width:0.8;stroke-linecap:butt;stroke-linejoin:round;stroke-miterlimit:10;stroke-opacity:1"
     d="M 27.292969,173.91406 H 75.707031 V 127.83203 H 76.875 l 0.582031,46.08203 h 7"
     id="path48300" />
  <path
     style="fill:none;stroke:#ff0000;stroke-width:0.8;stroke-linecap:butt;stroke-linejoin:round;stroke-miterlimit:10;stroke-opacity:1"
     d="m 23.792969,127.83203 v 46.08203 h 3.5"
     id="path48302" />
  <path
     style="fill:none;stroke:#ffffff;stroke-width:0.8;stroke-linecap:butt;stroke-linejoin:round;stroke-miterlimit:10;stroke-opacity:1"
     d="m 198.78516,112.22656 h 32.66406 l 0.58203,-46.082029 h 24.5"
     id="path48374" />
  <path
     style="fill:none;stroke:#ffffff;stroke-width:0.8;stroke-linecap:butt;stroke-linejoin:round;stroke-miterlimit:10;stroke-opacity:1"
     d="m 141.03516,66.144531 h 38.5 l 0.58203,46.082029 h 18.66797"
     id="path48376" />
  <path
     style="fill:none;stroke:#ffffff;stroke-width:0.8;stroke-linecap:butt;stroke-linejoin:round;stroke-miterlimit:10;stroke-opacity:1"
     d="m 83.289062,112.22656 h 44.332028 l 0.58203,-46.082029 h 12.83204"
     id="path48378" />
  <path
     style="fill:none;stroke:#ffffff;stroke-width:0.8;stroke-linecap:butt;stroke-linejoin:round;stroke-miterlimit:10;stroke-opacity:1"
     d="m 26.125,66.144531 h 49.582031 v 46.082029 h 7.582031"
     id="path48380" />
  <path
     style="fill:none;stroke:#ffffff;stroke-width:0.8;stroke-linecap:butt;stroke-linejoin:round;stroke-miterlimit:10;stroke-opacity:1"
     d="M 23.792969,112.22656 V 66.144531 H 26.125"
     id="path48382" />
  <path
     style="fill:none;stroke:#ffffff;stroke-width:1.2;stroke-linecap:butt;stroke-linejoin:round;stroke-miterlimit:10;stroke-opacity:1"
     d="M 23.792969,0.601562 H 255.94531"
     id="path48388" />
  <path
     style="fill:none;stroke:#ffffff;stroke-width:1.2;stroke-linecap:butt;stroke-linejoin:round;stroke-miterlimit:10;stroke-opacity:1"
     d="M 23.792969,55.429688 H 255.94531"
     id="path48390" />
  <path
     style="fill:none;stroke:#ffffff;stroke-width:1.2;stroke-linecap:butt;stroke-linejoin:round;stroke-miterlimit:10;stroke-opacity:1"
     d="M 255.94531,55.429688 V 0.601562"
     id="path48392" />
  <path
     style="fill:none;stroke:#ffffff;stroke-width:1.2;stroke-linecap:butt;stroke-linejoin:round;stroke-miterlimit:10;stroke-opacity:1"
     d="M 23.792969,55.429688 V 0.601562"
     id="path48394" />
  <path
     style="fill:none;stroke:#ffffff;stroke-width:1.2;stroke-linecap:butt;stroke-linejoin:round;stroke-miterlimit:10;stroke-opacity:1"
     d="M 23.792969,55.429688 H 255.94531"
     id="path48396" />
  <path
     style="fill:none;stroke:#ffffff;stroke-width:1.2;stroke-linecap:butt;stroke-linejoin:round;stroke-miterlimit:10;stroke-opacity:1"
     d="M 23.792969,55.429688 V 0.601562"
     id="path48398" />
  <path
     style="fill:none;stroke:#ffffff;stroke-width:1.2;stroke-linecap:butt;stroke-linejoin:round;stroke-miterlimit:10;stroke-opacity:1"
     d="M 23.792969,55.429688 V 53.097656"
     id="path48400" />
  <path
     style="fill:none;stroke:#ffffff;stroke-width:1.2;stroke-linecap:butt;stroke-linejoin:round;stroke-miterlimit:10;stroke-opacity:1"
     d="m 23.792969,1.183594 v 1.75"
     id="path48402" />
  <path
     style="fill:none;stroke:#ffffff;stroke-width:1.2;stroke-linecap:butt;stroke-linejoin:round;stroke-miterlimit:10;stroke-opacity:1"
     d="M 69.875,55.429688 V 50.628906"
     id="path48404" />
  <path
     style="fill:none;stroke:#ffffff;stroke-width:1.2;stroke-linecap:butt;stroke-linejoin:round;stroke-miterlimit:10;stroke-opacity:1"
     d="M 69.875,0.457031 V 5.257812"
     id="path48406" />
  <path
     style="fill:none;stroke:#ffffff;stroke-width:1.2;stroke-linecap:butt;stroke-linejoin:round;stroke-miterlimit:10;stroke-opacity:1"
     d="M 116.53906,55.429688 V 50.628906"
     id="path48408" />
  <path
     style="fill:none;stroke:#ffffff;stroke-width:1.2;stroke-linecap:butt;stroke-linejoin:round;stroke-miterlimit:10;stroke-opacity:1"
     d="M 116.53906,0.457031 V 5.257812"
     id="path48410" />
  <path
     style="fill:none;stroke:#ffffff;stroke-width:1.2;stroke-linecap:butt;stroke-linejoin:round;stroke-miterlimit:10;stroke-opacity:1"
     d="M 162.61719,55.429688 V 50.628906"
     id="path48412" />
  <path
     style="fill:none;stroke:#ffffff;stroke-width:1.2;stroke-linecap:butt;stroke-linejoin:round;stroke-miterlimit:10;stroke-opacity:1"
     d="M 162.61719,0.457031 V 5.257812"
     id="path48414" />
  <path
     style="fill:none;stroke:#ffffff;stroke-width:1.2;stroke-linecap:butt;stroke-linejoin:round;stroke-miterlimit:10;stroke-opacity:1"
     d="M 209.28125,55.429688 V 50.628906"
     id="path48416" />
  <path
     style="fill:none;stroke:#ffffff;stroke-width:1.2;stroke-linecap:butt;stroke-linejoin:round;stroke-miterlimit:10;stroke-opacity:1"
     d="M 209.28125,0.457031 V 5.257812"
     id="path48418" />
  <path
     style="fill:none;stroke:#ffffff;stroke-width:1.2;stroke-linecap:butt;stroke-linejoin:round;stroke-miterlimit:10;stroke-opacity:1"
     d="M 255.94531,55.429688 V 53.097656"
     id="path48420" />
  <path
     style="fill:none;stroke:#ffffff;stroke-width:1.2;stroke-linecap:butt;stroke-linejoin:round;stroke-miterlimit:10;stroke-opacity:1"
     d="m 255.94531,1.183594 v 1.75"
     id="path48422" />
  <path
     style="fill:none;stroke:#ffffff;stroke-width:1.2;stroke-linecap:butt;stroke-linejoin:round;stroke-miterlimit:10;stroke-opacity:1"
     d="M 23.792969,50.765625 H 28.59375"
     id="path48424" />
  <path
     style="fill:none;stroke:#ffffff;stroke-width:1.2;stroke-linecap:butt;stroke-linejoin:round;stroke-miterlimit:10;stroke-opacity:1"
     d="M 255.86328,50.765625 H 251.0625"
     id="path48426" />
  <path
     style="fill:none;stroke:#ffffff;stroke-width:1.2;stroke-linecap:butt;stroke-linejoin:round;stroke-miterlimit:10;stroke-opacity:1"
     d="M 23.792969,28.015625 H 28.59375"
     id="path48428" />
  <path
     style="fill:none;stroke:#ffffff;stroke-width:1.2;stroke-linecap:butt;stroke-linejoin:round;stroke-miterlimit:10;stroke-opacity:1"
     d="M 255.86328,28.015625 H 251.0625"
     id="path48430" />
  <path
     style="fill:none;stroke:#ffffff;stroke-width:1.2;stroke-linecap:butt;stroke-linejoin:round;stroke-miterlimit:10;stroke-opacity:1"
     d="M 23.792969,5.265625 H 28.59375"
     id="path48432" />
  <path
     style="fill:none;stroke:#ffffff;stroke-width:1.2;stroke-linecap:butt;stroke-linejoin:round;stroke-miterlimit:10;stroke-opacity:1"
     d="M 255.86328,5.265625 H 251.0625"
     id="path48434" />
  <path
     style="fill:none;stroke:#ffffff;stroke-width:1.2;stroke-linecap:butt;stroke-linejoin:round;stroke-miterlimit:10;stroke-opacity:1"
     d="M 23.792969,0.601562 H 255.94531"
     id="path48436" />
  <path
     style="fill:none;stroke:#ffffff;stroke-width:1.2;stroke-linecap:butt;stroke-linejoin:round;stroke-miterlimit:10;stroke-opacity:1"
     d="M 23.792969,55.429688 H 255.94531"
     id="path48438" />
  <path
     style="fill:none;stroke:#ffffff;stroke-width:1.2;stroke-linecap:butt;stroke-linejoin:round;stroke-miterlimit:10;stroke-opacity:1"
     d="M 255.94531,55.429688 V 0.601562"
     id="path48440" />
  <path
     style="fill:none;stroke:#ffffff;stroke-width:1.2;stroke-linecap:butt;stroke-linejoin:round;stroke-miterlimit:10;stroke-opacity:1"
     d="M 23.792969,55.429688 V 0.601562"
     id="path48442" />
  <path
     style="fill:none;stroke:#ffffff;stroke-width:0.8;stroke-linecap:butt;stroke-linejoin:round;stroke-miterlimit:10;stroke-opacity:1"
     d="m 199.36719,50.765625 h 6.41406 v -45.5 h 14.58594 l 0.58203,45.5 h 10.5 l 0.58203,-45.5 h 12.83203 l 0.58594,45.5 h 11.08203"
     id="path48444" />
  <path
     style="fill:none;stroke:#ffffff;stroke-width:0.8;stroke-linecap:butt;stroke-linejoin:round;stroke-miterlimit:10;stroke-opacity:1"
     d="m 141.62109,5.265625 h 1.16407 l 0.58593,45.5 h 10.4961 l 0.58593,-45.5 h 14 l 0.58204,45.5 h 11.08203 l 0.58593,-45.5 h 13.41407 l 0.58203,45.5 h 4.66797"
     id="path48446" />
  <path
     style="fill:none;stroke:#ffffff;stroke-width:0.8;stroke-linecap:butt;stroke-linejoin:round;stroke-miterlimit:10;stroke-opacity:1"
     d="m 85.039062,5.265625 h 7 v 45.5 h 10.499998 l 0.58203,-45.5 h 13.41797 l 0.58203,45.5 h 11.08203 v -45.5 h 13.41797"
     id="path48448" />
  <path
     style="fill:none;stroke:#ffffff;stroke-width:0.8;stroke-linecap:butt;stroke-linejoin:round;stroke-miterlimit:10;stroke-opacity:1"
     d="M 27.292969,5.265625 H 40.125 l 0.582031,45.5 h 10.5 l 0.585938,-45.5 h 13.996093 l 0.585938,45.5 h 10.5 l 0.582031,-45.5 h 7.582031"
     id="path48450" />
  <path
     style="fill:none;stroke:#ffffff;stroke-width:0.8;stroke-linecap:butt;stroke-linejoin:round;stroke-miterlimit:10;stroke-opacity:1"
     d="m 23.792969,50.765625 0.582031,-45.5 h 2.917969"
     id="path48452" />
  <g
     id="g49189">
    <path
       style="fill:#ffffff;fill-opacity:1;fill-rule:nonzero;stroke:none"
       d="m 16.097656,173.80859 c 0,-0.84375 0.08203,-1.51953 0.25,-2.03125 0.175782,-0.51953 0.4375,-0.92187 0.78125,-1.20312 0.34375,-0.28125 0.773438,-0.42188 1.296875,-0.42188 0.382813,0 0.71875,0.0781 1,0.23438 0.289063,0.15625 0.53125,0.38281 0.71875,0.67187 0.195313,0.29297 0.347657,0.64844 0.453125,1.0625 0.101563,0.41797 0.15625,0.98047 0.15625,1.6875 0,0.84375 -0.08984,1.52735 -0.265625,2.04688 -0.167969,0.51172 -0.421875,0.90625 -0.765625,1.1875 -0.34375,0.28125 -0.777344,0.42187 -1.296875,0.42187 -0.6875,0 -1.230469,-0.25 -1.625,-0.75 -0.46875,-0.59375 -0.703125,-1.5625 -0.703125,-2.90625 z m 0.890625,0 c 0,1.17969 0.132813,1.96485 0.40625,2.35938 0.28125,0.38672 0.625,0.57812 1.03125,0.57812 0.40625,0 0.742188,-0.1914 1.015625,-0.57812 0.28125,-0.39453 0.421875,-1.17969 0.421875,-2.35938 0,-1.17578 -0.140625,-1.95703 -0.421875,-2.34375 -0.273437,-0.38281 -0.617187,-0.57812 -1.03125,-0.57812 -0.398437,0 -0.71875,0.16797 -0.96875,0.5 -0.304687,0.4375 -0.453125,1.24609 -0.453125,2.42187 z m 0,0"
       id="path48304" />
    <path
       style="fill:#ffffff;fill-opacity:1;fill-rule:nonzero;stroke:none"
       d="m 19.183594,131.55469 h -0.875 v -5.59375 c -0.210938,0.19922 -0.484375,0.40234 -0.828125,0.60937 -0.34375,0.19922 -0.652344,0.34375 -0.921875,0.4375 v -0.84375 c 0.488281,-0.22656 0.914062,-0.5039 1.28125,-0.82812 0.375,-0.33203 0.632812,-0.65625 0.78125,-0.96875 h 0.5625 z m 0,0"
       id="path48306" />
    <path
       style="fill:#ffffff;fill-opacity:1;fill-rule:nonzero;stroke:none"
       d="m 97.25,198.37891 0.890625,-0.0781 c 0.03906,0.35547 0.140625,0.64844 0.296875,0.875 0.15625,0.23047 0.394531,0.41797 0.71875,0.5625 0.320312,0.13672 0.6875,0.20313 1.09375,0.20313 0.36328,0 0.67969,-0.0508 0.95313,-0.15625 0.28125,-0.10157 0.48828,-0.25 0.625,-0.4375 0.13281,-0.1875 0.20312,-0.39063 0.20312,-0.60938 0,-0.22656 -0.0703,-0.42578 -0.20312,-0.59375 -0.125,-0.16406 -0.33985,-0.30469 -0.64063,-0.42187 -0.1875,-0.0703 -0.60937,-0.1875 -1.265625,-0.34375 -0.65625,-0.16407 -1.121094,-0.31641 -1.390625,-0.45313 -0.34375,-0.17578 -0.601562,-0.39453 -0.765625,-0.65625 -0.167969,-0.26953 -0.25,-0.57031 -0.25,-0.90625 0,-0.35156 0.101563,-0.6875 0.3125,-1 0.207031,-0.32031 0.503906,-0.5625 0.890625,-0.71875 0.394531,-0.16406 0.835938,-0.25 1.32813,-0.25 0.51953,0 0.98437,0.0898 1.39062,0.26563 0.40625,0.16796 0.71875,0.41796 0.9375,0.75 0.21875,0.33593 0.33594,0.71093 0.35938,1.125 l -0.90625,0.0625 c -0.0547,-0.44532 -0.21875,-0.78516 -0.5,-1.01563 -0.28125,-0.23828 -0.69922,-0.35937 -1.25,-0.35937 -0.574224,0 -0.992192,0.10937 -1.250005,0.32812 -0.261719,0.21094 -0.390625,0.46094 -0.390625,0.75 0,0.26172 0.09375,0.47656 0.28125,0.64063 0.175781,0.16796 0.648438,0.33984 1.42188,0.51562 0.76953,0.16797 1.29687,0.32031 1.57812,0.45313 0.41406,0.1875 0.72266,0.43359 0.92188,0.73437 0.19531,0.29297 0.29687,0.63281 0.29687,1.01563 0,0.375 -0.10937,0.73437 -0.32812,1.07812 -0.21094,0.33594 -0.52344,0.59375 -0.9375,0.78125 -0.40625,0.1875 -0.86719,0.28125 -1.375,0.28125 -0.648442,0 -1.187505,-0.0937 -1.625005,-0.28125 -0.4375,-0.1875 -0.78125,-0.46875 -1.03125,-0.84375 -0.25,-0.38281 -0.382813,-0.81641 -0.390625,-1.29687 z m 0,0"
       id="path48308" />
    <path
       style="fill:#ffffff;fill-opacity:1;fill-rule:nonzero;stroke:none"
       d="m 103.85156,194.53516 v -1.01563 h 0.875 v 1.01563 z m 0,6.14062 v -5.1875 h 0.875 v 5.1875 z m 0,0"
       id="path48310" />
    <path
       style="fill:#ffffff;fill-opacity:1;fill-rule:nonzero;stroke:none"
       d="m 105.96484,200.67578 v -5.1875 h 0.79688 v 0.73438 c 0.15625,-0.25782 0.36719,-0.46094 0.64062,-0.60938 0.26954,-0.15625 0.57813,-0.23437 0.92188,-0.23437 0.38281,0 0.69531,0.0781 0.9375,0.23437 0.25,0.15625 0.42578,0.38281 0.53125,0.67188 0.40625,-0.60157 0.9375,-0.90625 1.59375,-0.90625 0.51953,0 0.91406,0.14062 1.1875,0.42187 0.28125,0.28125 0.42187,0.71875 0.42187,1.3125 v 3.5625 h -0.875 v -3.26562 c 0,-0.35157 -0.0312,-0.60938 -0.0937,-0.76563 -0.0547,-0.15625 -0.15625,-0.28125 -0.3125,-0.375 -0.14843,-0.0937 -0.32031,-0.14062 -0.51562,-0.14062 -0.36719,0 -0.66797,0.125 -0.90625,0.375 -0.24219,0.24218 -0.35938,0.625 -0.35938,1.15625 v 3.01562 h -0.89062 v -3.375 c 0,-0.38281 -0.0742,-0.67578 -0.21875,-0.875 -0.13672,-0.19531 -0.36719,-0.29687 -0.6875,-0.29687 -0.25,0 -0.48047,0.0703 -0.6875,0.20312 -0.21094,0.125 -0.36719,0.3125 -0.46875,0.5625 -0.0937,0.25 -0.14063,0.61719 -0.14063,1.09375 v 2.6875 z m 0,0"
       id="path48312" />
    <path
       style="fill:#ffffff;fill-opacity:1;fill-rule:nonzero;stroke:none"
       d="m 117.34375,200.67578 v -0.76562 c -0.40625,0.59375 -0.96094,0.89062 -1.65625,0.89062 -0.30469,0 -0.58984,-0.0586 -0.85937,-0.17187 -0.26172,-0.125 -0.46094,-0.27344 -0.59375,-0.45313 -0.125,-0.17578 -0.21485,-0.39453 -0.26563,-0.65625 -0.0312,-0.16406 -0.0469,-0.4375 -0.0469,-0.8125 v -3.21875 h 0.875 v 2.875 c 0,0.46094 0.0195,0.77344 0.0625,0.9375 0.0508,0.23047 0.16406,0.41406 0.34375,0.54688 0.17578,0.125 0.39843,0.1875 0.67187,0.1875 0.25781,0 0.50391,-0.0664 0.73438,-0.20313 0.22656,-0.13281 0.39062,-0.31641 0.48437,-0.54687 0.10156,-0.23829 0.15625,-0.57813 0.15625,-1.01563 v -2.78125 h 0.875 v 5.1875 z m 0,0"
       id="path48314" />
    <path
       style="fill:#ffffff;fill-opacity:1;fill-rule:nonzero;stroke:none"
       d="m 119.24609,193.51953 h 0.875 v 7.15625 h -0.875 z m 0,0"
       id="path48316" />
    <path
       style="fill:#ffffff;fill-opacity:1;fill-rule:nonzero;stroke:none"
       d="m 124.77734,200.03516 c -0.32421,0.28125 -0.63671,0.48046 -0.9375,0.59375 -0.30468,0.11328 -0.625,0.17187 -0.96875,0.17187 -0.57421,0 -1.01562,-0.14062 -1.32812,-0.42187 -0.30469,-0.28125 -0.45313,-0.64063 -0.45313,-1.07813 0,-0.25 0.0547,-0.47656 0.17188,-0.6875 0.11328,-0.20703 0.26562,-0.375 0.45312,-0.5 0.1875,-0.13281 0.39844,-0.23437 0.64063,-0.29687 0.16406,-0.0391 0.42578,-0.082 0.78125,-0.125 0.70703,-0.082 1.22656,-0.1875 1.5625,-0.3125 0,-0.11329 0,-0.1875 0,-0.21875 0,-0.36329 -0.0859,-0.61719 -0.25,-0.76563 -0.21875,-0.19531 -0.55469,-0.29687 -1,-0.29687 -0.40625,0 -0.71094,0.0742 -0.90625,0.21875 -0.19922,0.14843 -0.34375,0.40234 -0.4375,0.76562 l -0.85938,-0.10937 c 0.0703,-0.375 0.19532,-0.67188 0.375,-0.89063 0.1875,-0.22656 0.44532,-0.39844 0.78125,-0.51562 0.34375,-0.125 0.73829,-0.1875 1.1875,-0.1875 0.4375,0 0.78907,0.0547 1.0625,0.15625 0.28125,0.10546 0.48438,0.23437 0.60938,0.39062 0.13281,0.15625 0.22656,0.35547 0.28125,0.59375 0.0312,0.14844 0.0469,0.41797 0.0469,0.8125 v 1.17188 c 0,0.8125 0.0156,1.32812 0.0469,1.54687 0.0391,0.21875 0.11719,0.42969 0.23437,0.625 h -0.92187 c -0.0937,-0.1875 -0.15234,-0.39844 -0.17188,-0.64062 z m -0.0781,-1.96875 c -0.32422,0.13671 -0.80469,0.25 -1.4375,0.34375 -0.35547,0.0547 -0.60938,0.10937 -0.76563,0.17187 -0.14843,0.0625 -0.26171,0.15625 -0.34375,0.28125 -0.0859,0.125 -0.125,0.26563 -0.125,0.42188 0,0.23046 0.0859,0.42187 0.26563,0.57812 0.17578,0.15625 0.4375,0.23438 0.78125,0.23438 0.34375,0 0.64453,-0.0703 0.90625,-0.21875 0.25781,-0.14454 0.45312,-0.34766 0.57812,-0.60938 0.0937,-0.19531 0.14063,-0.48828 0.14063,-0.875 z m 0,0"
       id="path48318" />
    <path
       style="fill:#ffffff;fill-opacity:1;fill-rule:nonzero;stroke:none"
       d="m 128.63281,199.89453 0.125,0.76563 c -0.25,0.0508 -0.46875,0.0781 -0.65625,0.0781 -0.32422,0 -0.57422,-0.0469 -0.75,-0.14062 -0.17968,-0.10157 -0.30468,-0.23829 -0.375,-0.40625 -0.0625,-0.16407 -0.0937,-0.50782 -0.0937,-1.03125 v -2.98438 h -0.65625 v -0.6875 h 0.65625 v -1.28125 l 0.85938,-0.53125 v 1.8125 h 0.89062 v 0.6875 h -0.89062 v 3.03125 c 0,0.25 0.0156,0.41406 0.0469,0.48438 0.0312,0.0742 0.082,0.13281 0.15625,0.17187 0.0703,0.043 0.17188,0.0625 0.29688,0.0625 0.10156,0 0.23437,-0.008 0.39062,-0.0312 z m 0,0"
       id="path48320" />
    <path
       style="fill:#ffffff;fill-opacity:1;fill-rule:nonzero;stroke:none"
       d="m 129.375,194.53516 v -1.01563 h 0.875 v 1.01563 z m 0,6.14062 v -5.1875 h 0.875 v 5.1875 z m 0,0"
       id="path48322" />
    <path
       style="fill:#ffffff;fill-opacity:1;fill-rule:nonzero;stroke:none"
       d="m 131.16016,198.08203 c 0,-0.95703 0.26953,-1.67187 0.8125,-2.14062 0.4375,-0.375 0.97656,-0.5625 1.625,-0.5625 0.70703,0 1.28515,0.23437 1.73437,0.70312 0.45703,0.46094 0.6875,1.10156 0.6875,1.92188 0,0.66796 -0.10156,1.19531 -0.29687,1.57812 -0.19922,0.38672 -0.49219,0.6875 -0.875,0.90625 -0.38672,0.20703 -0.80469,0.3125 -1.25,0.3125 -0.73047,0 -1.32032,-0.23437 -1.76563,-0.70312 -0.44922,-0.46875 -0.67187,-1.14063 -0.67187,-2.01563 z m 0.90625,0 c 0,0.66797 0.14453,1.16797 0.4375,1.5 0.28906,0.32422 0.65625,0.48438 1.09375,0.48438 0.4375,0 0.79687,-0.16407 1.07812,-0.5 0.28906,-0.33204 0.4375,-0.83594 0.4375,-1.51563 0,-0.63281 -0.14844,-1.11719 -0.4375,-1.45312 -0.29297,-0.33204 -0.65234,-0.5 -1.07812,-0.5 -0.4375,0 -0.80469,0.16796 -1.09375,0.5 -0.29297,0.32421 -0.4375,0.82031 -0.4375,1.48437 z m 0,0"
       id="path48324" />
    <path
       style="fill:#ffffff;fill-opacity:1;fill-rule:nonzero;stroke:none"
       d="m 136.8125,200.67578 v -5.1875 h 0.79687 v 0.73438 c 0.375,-0.5625 0.92188,-0.84375 1.64063,-0.84375 0.3125,0 0.59766,0.0586 0.85937,0.17187 0.26954,0.10547 0.46875,0.25 0.59375,0.4375 0.13282,0.17969 0.22657,0.39063 0.28125,0.64063 0.0312,0.16796 0.0469,0.45312 0.0469,0.85937 v 3.1875 h -0.875 v -3.15625 c 0,-0.35156 -0.0391,-0.61719 -0.10938,-0.79687 -0.0625,-0.17579 -0.18359,-0.31641 -0.35937,-0.42188 -0.17969,-0.11328 -0.38281,-0.17187 -0.60938,-0.17187 -0.375,0 -0.70312,0.12109 -0.98437,0.35937 -0.27344,0.24219 -0.40625,0.69531 -0.40625,1.35938 v 2.82812 z m 0,0"
       id="path48326" />
    <path
       style="fill:#ffffff;fill-opacity:1;fill-rule:nonzero;stroke:none"
       d="m 146.5625,200.67578 v -6.3125 h -2.35938 v -0.84375 h 5.67188 v 0.84375 h -2.35938 v 6.3125 z m 0,0"
       id="path48328" />
    <path
       style="fill:#ffffff;fill-opacity:1;fill-rule:nonzero;stroke:none"
       d="m 150.12891,194.53516 v -1.01563 h 0.875 v 1.01563 z m 0,6.14062 v -5.1875 h 0.875 v 5.1875 z m 0,0"
       id="path48330" />
    <path
       style="fill:#ffffff;fill-opacity:1;fill-rule:nonzero;stroke:none"
       d="m 152.25,200.67578 v -5.1875 h 0.79687 v 0.73438 c 0.15625,-0.25782 0.36719,-0.46094 0.64063,-0.60938 0.26953,-0.15625 0.57812,-0.23437 0.92187,-0.23437 0.38282,0 0.69532,0.0781 0.9375,0.23437 0.25,0.15625 0.42579,0.38281 0.53125,0.67188 0.40625,-0.60157 0.9375,-0.90625 1.59375,-0.90625 0.51954,0 0.91407,0.14062 1.1875,0.42187 0.28125,0.28125 0.42188,0.71875 0.42188,1.3125 v 3.5625 h -0.875 v -3.26562 c 0,-0.35157 -0.0312,-0.60938 -0.0937,-0.76563 -0.0547,-0.15625 -0.15625,-0.28125 -0.3125,-0.375 -0.14844,-0.0937 -0.32031,-0.14062 -0.51563,-0.14062 -0.36718,0 -0.66796,0.125 -0.90625,0.375 -0.24218,0.24218 -0.35937,0.625 -0.35937,1.15625 v 3.01562 h -0.89063 v -3.375 c 0,-0.38281 -0.0742,-0.67578 -0.21875,-0.875 -0.13671,-0.19531 -0.36718,-0.29687 -0.6875,-0.29687 -0.25,0 -0.48046,0.0703 -0.6875,0.20312 -0.21093,0.125 -0.36718,0.3125 -0.46875,0.5625 -0.0937,0.25 -0.14062,0.61719 -0.14062,1.09375 v 2.6875 z m 0,0"
       id="path48332" />
    <path
       style="fill:#ffffff;fill-opacity:1;fill-rule:nonzero;stroke:none"
       d="m 163.76953,199.00391 0.92188,0.10937 c -0.14844,0.53125 -0.41797,0.94922 -0.8125,1.25 -0.38672,0.29297 -0.875,0.4375 -1.46875,0.4375 -0.76172,0 -1.36719,-0.23437 -1.8125,-0.70312 -0.44922,-0.46875 -0.67188,-1.125 -0.67188,-1.96875 0,-0.875 0.22266,-1.55079 0.67188,-2.03125 0.45703,-0.47657 1.03906,-0.71875 1.75,-0.71875 0.69531,0 1.26562,0.23437 1.70312,0.70312 0.4375,0.46875 0.65625,1.13281 0.65625,1.98438 0,0.0547 0,0.13281 0,0.23437 h -3.85937 c 0.0312,0.57422 0.1875,1.01172 0.46875,1.3125 0.28906,0.30469 0.65625,0.45313 1.09375,0.45313 0.32031,0 0.59765,-0.082 0.82812,-0.25 0.22656,-0.16407 0.40625,-0.4375 0.53125,-0.8125 z m -2.875,-1.42188 h 2.89063 c -0.043,-0.4375 -0.15235,-0.76562 -0.32813,-0.98437 -0.28125,-0.33204 -0.64844,-0.5 -1.09375,-0.5 -0.40625,0 -0.74609,0.13671 -1.01562,0.40625 -0.27344,0.27343 -0.42188,0.63281 -0.45313,1.07812 z m 0,0"
       id="path48334" />
    <g
       clip-path="url(#clip1)"
       clip-rule="nonzero"
       id="g48338"
       style="fill:#ffffff">
      <path
         style="fill:#ffffff;fill-opacity:1;fill-rule:nonzero;stroke:none"
         d="m 168.21094,202.66016 v -9.14063 h 1.95312 v 0.71875 h -1.0625 v 7.70313 h 1.0625 v 0.71875 z m 0,0"
         id="path48336" />
    </g>
    <g
       clip-path="url(#clip2)"
       clip-rule="nonzero"
       id="g48342"
       style="fill:#ffffff">
      <path
         style="fill:#ffffff;fill-opacity:1;fill-rule:nonzero;stroke:none"
         d="m 175.16016,195.48828 v 5.1875 h -0.78125 v -0.60937 c -0.16797,0.26171 -0.33594,0.4375 -0.5,0.53125 -0.23047,0.13281 -0.4961,0.20312 -0.79688,0.20312 -0.27344,0 -0.51172,-0.0586 -0.71875,-0.17187 -0.15625,-0.0703 -0.32812,-0.22657 -0.51562,-0.46875 v 2.5 h -0.875 v -7.17188 h 0.875 v 2.20313 c 0,0.79296 0.0391,1.30859 0.125,1.54687 0.082,0.24219 0.21875,0.42969 0.40625,0.5625 0.1875,0.13672 0.40625,0.20313 0.65625,0.20313 0.25781,0 0.49218,-0.0703 0.70312,-0.21875 0.20703,-0.14454 0.35156,-0.32813 0.4375,-0.54688 0.082,-0.22656 0.125,-0.73828 0.125,-1.53125 v -2.21875 z m 0,0"
         id="path48340" />
    </g>
    <path
       style="fill:#ffffff;fill-opacity:1;fill-rule:nonzero;stroke:none"
       d="m 176.01172,199.12891 0.85937,-0.14063 c 0.0508,0.35547 0.1875,0.625 0.40625,0.8125 0.22657,0.17969 0.53907,0.26563 0.9375,0.26563 0.40625,0 0.70703,-0.0781 0.90625,-0.23438 0.19532,-0.16406 0.29688,-0.36328 0.29688,-0.59375 0,-0.19531 -0.0898,-0.35156 -0.26563,-0.46875 -0.125,-0.0703 -0.42968,-0.17187 -0.90625,-0.29687 -0.63672,-0.15625 -1.07812,-0.28907 -1.32812,-0.40625 -0.25,-0.125 -0.44531,-0.28907 -0.57813,-0.5 -0.125,-0.20704 -0.1875,-0.44141 -0.1875,-0.70313 0,-0.22656 0.0508,-0.44141 0.15625,-0.64062 0.10157,-0.19532 0.25,-0.35938 0.4375,-0.48438 0.13282,-0.10156 0.31641,-0.1875 0.54688,-0.25 0.23828,-0.0703 0.49219,-0.10937 0.76562,-0.10937 0.40625,0 0.75782,0.0586 1.0625,0.17187 0.3125,0.11719 0.53907,0.27734 0.6875,0.48438 0.15625,0.19921 0.25782,0.46484 0.3125,0.79687 l -0.85937,0.10938 c -0.043,-0.25782 -0.15625,-0.46094 -0.34375,-0.60938 -0.1875,-0.15625 -0.45313,-0.23437 -0.79688,-0.23437 -0.39843,0 -0.68359,0.0703 -0.85937,0.20312 -0.17969,0.125 -0.26563,0.28125 -0.26563,0.46875 0,0.11719 0.0352,0.21484 0.10938,0.29688 0.0703,0.0937 0.1875,0.17187 0.34375,0.23437 0.082,0.0312 0.34375,0.10938 0.78125,0.23438 0.61328,0.16796 1.03906,0.30468 1.28125,0.40625 0.25,0.10546 0.4414,0.26171 0.57812,0.46875 0.14453,0.19921 0.21875,0.44531 0.21875,0.73437 0,0.30469 -0.0859,0.58594 -0.25,0.84375 -0.16797,0.25 -0.41406,0.44922 -0.73437,0.59375 -0.32422,0.14453 -0.6875,0.21875 -1.09375,0.21875 -0.67969,0 -1.19531,-0.14062 -1.54688,-0.42187 -0.35547,-0.28125 -0.57812,-0.69532 -0.67187,-1.25 z m 0,0"
       id="path48344" />
    <g
       clip-path="url(#clip3)"
       clip-rule="nonzero"
       id="g48348"
       style="fill:#ffffff">
      <path
         style="fill:#ffffff;fill-opacity:1;fill-rule:nonzero;stroke:none"
         d="m 182.60547,202.66016 h -1.9375 v -0.71875 h 1.0625 v -7.70313 h -1.0625 v -0.71875 h 1.9375 z m 0,0"
         id="path48346" />
    </g>
    <path
       style="fill:#ffffff;fill-opacity:1;fill-rule:nonzero;stroke:none"
       d="m 251.34766,185.82031 0.92187,-0.0781 c 0.0625,0.44922 0.21875,0.78906 0.46875,1.01562 0.25,0.23047 0.55078,0.34375 0.90625,0.34375 0.41406,0 0.76953,-0.16015 1.0625,-0.48437 0.30078,-0.32032 0.45313,-0.74219 0.45313,-1.26563 0,-0.5 -0.14063,-0.89453 -0.42188,-1.1875 -0.28125,-0.28906 -0.65234,-0.4375 -1.10937,-0.4375 -0.28125,0 -0.53907,0.0703 -0.76563,0.20313 -0.23047,0.125 -0.41406,0.28906 -0.54687,0.48437 l -0.8125,-0.10937 0.6875,-3.67188 h 3.5625 v 0.84375 h -2.85938 l -0.39062,1.92188 c 0.4375,-0.30078 0.89062,-0.45313 1.35937,-0.45313 0.625,0 1.14844,0.21875 1.57813,0.65625 0.42578,0.42969 0.64062,0.98438 0.64062,1.67188 0,0.64843 -0.1875,1.20312 -0.5625,1.67187 -0.46094,0.58594 -1.08594,0.875 -1.875,0.875 -0.65625,0 -1.19531,-0.17969 -1.60937,-0.54687 -0.40625,-0.36328 -0.63672,-0.84766 -0.6875,-1.45313 z m 0,0"
       id="path48350" />
    <g
       clip-path="url(#clip4)"
       clip-rule="nonzero"
       id="g48354"
       style="fill:#ffffff">
      <path
         style="fill:#ffffff;fill-opacity:1;fill-rule:nonzero;stroke:none"
         d="m 256.66797,184.16406 c 0,-0.84375 0.082,-1.51953 0.25,-2.03125 0.17578,-0.51953 0.4375,-0.92187 0.78125,-1.20312 0.34375,-0.28125 0.77344,-0.42188 1.29687,-0.42188 0.38282,0 0.71875,0.0781 1,0.23438 0.28907,0.15625 0.53125,0.38281 0.71875,0.67187 0.19532,0.29297 0.34766,0.64844 0.45313,1.0625 0.10156,0.41797 0.15625,0.98047 0.15625,1.6875 0,0.84375 -0.0899,1.52735 -0.26563,2.04688 -0.16797,0.51172 -0.42187,0.90625 -0.76562,1.1875 -0.34375,0.28125 -0.77735,0.42187 -1.29688,0.42187 -0.6875,0 -1.23047,-0.25 -1.625,-0.75 -0.46875,-0.59375 -0.70312,-1.5625 -0.70312,-2.90625 z m 0.89062,0 c 0,1.17969 0.13282,1.96485 0.40625,2.35938 0.28125,0.38672 0.625,0.57812 1.03125,0.57812 0.40625,0 0.74219,-0.1914 1.01563,-0.57812 0.28125,-0.39453 0.42187,-1.17969 0.42187,-2.35938 0,-1.17578 -0.14062,-1.95703 -0.42187,-2.34375 -0.27344,-0.38281 -0.61719,-0.57812 -1.03125,-0.57812 -0.39844,0 -0.71875,0.16797 -0.96875,0.5 -0.30469,0.4375 -0.45313,1.24609 -0.45313,2.42187 z m 0,0"
         id="path48352" />
    </g>
    <path
       style="fill:#ffffff;fill-opacity:1;fill-rule:nonzero;stroke:none"
       d="m 158.51562,185.80078 0.875,-0.10937 c 0.10157,0.49218 0.27344,0.85156 0.51563,1.07812 0.23828,0.21875 0.53516,0.32813 0.89062,0.32813 0.41407,0 0.76563,-0.14063 1.04688,-0.42188 0.28125,-0.28906 0.42187,-0.64844 0.42187,-1.07812 0,-0.40625 -0.13281,-0.73829 -0.39062,-1 -0.26172,-0.25782 -0.59375,-0.39063 -1,-0.39063 -0.16797,0 -0.375,0.0312 -0.625,0.0937 l 0.0937,-0.76562 c 0.0625,0 0.10937,0 0.14062,0 0.375,0 0.71094,-0.0937 1.01563,-0.28125 0.30078,-0.19532 0.45312,-0.5 0.45312,-0.90625 0,-0.32032 -0.10937,-0.58594 -0.32812,-0.79688 -0.21875,-0.21875 -0.5,-0.32812 -0.84375,-0.32812 -0.34375,0 -0.63281,0.10937 -0.85938,0.32812 -0.23046,0.21094 -0.375,0.53125 -0.4375,0.96875 l -0.875,-0.15625 c 0.10157,-0.59375 0.34375,-1.05078 0.71875,-1.375 0.38282,-0.32031 0.85938,-0.48437 1.42188,-0.48437 0.39453,0 0.75391,0.0859 1.07812,0.25 0.33204,0.16796 0.58204,0.39843 0.75,0.6875 0.17579,0.29296 0.26563,0.60156 0.26563,0.92187 0,0.3125 -0.0859,0.59375 -0.25,0.84375 -0.15625,0.25 -0.40234,0.45313 -0.73438,0.60938 0.42579,0.0937 0.75391,0.29687 0.98438,0.60937 0.23828,0.30469 0.35937,0.6875 0.35937,1.15625 0,0.625 -0.23046,1.15625 -0.6875,1.59375 -0.46093,0.42969 -1.03125,0.64063 -1.71875,0.64063 -0.63671,0 -1.16406,-0.1875 -1.57812,-0.5625 -0.40625,-0.375 -0.64063,-0.85938 -0.70313,-1.45313 z m 0,0"
       id="path48356" />
    <path
       style="fill:#ffffff;fill-opacity:1;fill-rule:nonzero;stroke:none"
       d="m 163.83594,184.16016 c 0,-0.84375 0.082,-1.51954 0.25,-2.03125 0.17578,-0.51954 0.4375,-0.92188 0.78125,-1.20313 0.34375,-0.28125 0.77343,-0.42187 1.29687,-0.42187 0.38281,0 0.71875,0.0781 1,0.23437 0.28906,0.15625 0.53125,0.38281 0.71875,0.67188 0.19531,0.29296 0.34766,0.64843 0.45313,1.0625 0.10156,0.41796 0.15625,0.98046 0.15625,1.6875 0,0.84375 -0.0898,1.52734 -0.26563,2.04687 -0.16797,0.51172 -0.42187,0.90625 -0.76562,1.1875 -0.34375,0.28125 -0.77735,0.42188 -1.29688,0.42188 -0.6875,0 -1.23047,-0.25 -1.625,-0.75 -0.46875,-0.59375 -0.70312,-1.5625 -0.70312,-2.90625 z m 0.89062,0 c 0,1.17968 0.13281,1.96484 0.40625,2.35937 0.28125,0.38672 0.625,0.57813 1.03125,0.57813 0.40625,0 0.74219,-0.19141 1.01563,-0.57813 0.28125,-0.39453 0.42187,-1.17969 0.42187,-2.35937 0,-1.17579 -0.14062,-1.95704 -0.42187,-2.34375 -0.27344,-0.38282 -0.61719,-0.57813 -1.03125,-0.57813 -0.39844,0 -0.71875,0.16797 -0.96875,0.5 -0.30469,0.4375 -0.45313,1.24609 -0.45313,2.42188 z m 0,0"
       id="path48358" />
    <path
       style="fill:#ffffff;fill-opacity:1;fill-rule:nonzero;stroke:none"
       d="m 68.664062,187.69531 h -0.875 v -5.59375 c -0.210937,0.19922 -0.484374,0.40235 -0.828124,0.60938 -0.34375,0.19922 -0.652344,0.34375 -0.921876,0.4375 v -0.84375 c 0.488282,-0.22657 0.914063,-0.50391 1.28125,-0.82813 0.375,-0.33203 0.632813,-0.65625 0.78125,-0.96875 h 0.5625 z m 0,0"
       id="path48360" />
    <path
       style="fill:#ffffff;fill-opacity:1;fill-rule:nonzero;stroke:none"
       d="m 70.6875,184.16406 c 0,-0.84375 0.08203,-1.51953 0.25,-2.03125 0.175781,-0.51953 0.4375,-0.92187 0.78125,-1.20312 0.34375,-0.28125 0.773438,-0.42188 1.296875,-0.42188 0.382813,0 0.71875,0.0781 1,0.23438 0.289063,0.15625 0.53125,0.38281 0.71875,0.67187 0.195313,0.29297 0.347656,0.64844 0.453125,1.0625 0.101562,0.41797 0.15625,0.98047 0.15625,1.6875 0,0.84375 -0.08984,1.52735 -0.265625,2.04688 -0.167969,0.51172 -0.421875,0.90625 -0.765625,1.1875 -0.34375,0.28125 -0.777344,0.42187 -1.296875,0.42187 -0.6875,0 -1.230469,-0.25 -1.625,-0.75 -0.46875,-0.59375 -0.703125,-1.5625 -0.703125,-2.90625 z m 0.890625,0 c 0,1.17969 0.132813,1.96485 0.40625,2.35938 0.28125,0.38672 0.625,0.57812 1.03125,0.57812 0.40625,0 0.742187,-0.1914 1.015625,-0.57812 0.28125,-0.39453 0.421875,-1.17969 0.421875,-2.35938 0,-1.17578 -0.140625,-1.95703 -0.421875,-2.34375 -0.273438,-0.38281 -0.617188,-0.57812 -1.03125,-0.57812 -0.398438,0 -0.71875,0.16797 -0.96875,0.5 -0.304688,0.4375 -0.453125,1.24609 -0.453125,2.42187 z m 0,0"
       id="path48362" />
    <path
       style="fill:#ffffff;fill-opacity:1;fill-rule:nonzero;stroke:none"
       d="m 116.76563,186.85156 v 0.84375 h -4.73438 c 0,-0.20703 0.0352,-0.41015 0.10938,-0.60937 0.125,-0.32032 0.3164,-0.64063 0.57812,-0.95313 0.25781,-0.3125 0.64453,-0.67187 1.15625,-1.07812 0.76953,-0.64453 1.28906,-1.14844 1.5625,-1.51563 0.28125,-0.375 0.42188,-0.72656 0.42188,-1.0625 0,-0.35156 -0.125,-0.64453 -0.375,-0.875 -0.25,-0.23828 -0.57422,-0.35937 -0.96875,-0.35937 -0.42969,0 -0.77344,0.125 -1.03125,0.375 -0.25,0.25 -0.375,0.60156 -0.375,1.04687 l -0.90625,-0.0937 c 0.0625,-0.66406 0.28906,-1.17578 0.6875,-1.53125 0.40625,-0.35156 0.95312,-0.53125 1.64062,-0.53125 0.6875,0 1.22656,0.19531 1.625,0.57813 0.40625,0.375 0.60938,0.84375 0.60938,1.40625 0,0.29297 -0.0625,0.57812 -0.1875,0.85937 -0.11719,0.27344 -0.3086,0.5625 -0.57813,0.875 -0.27344,0.30469 -0.72656,0.71875 -1.35937,1.25 -0.52344,0.4375 -0.85938,0.74219 -1.01563,0.90625 -0.14844,0.15625 -0.26562,0.3125 -0.35937,0.46875 z m 0,0"
       id="path48364" />
    <path
       style="fill:#ffffff;fill-opacity:1;fill-rule:nonzero;stroke:none"
       d="m 117.48047,184.16406 c 0,-0.84375 0.082,-1.51953 0.25,-2.03125 0.17578,-0.51953 0.4375,-0.92187 0.78125,-1.20312 0.34375,-0.28125 0.77344,-0.42188 1.29687,-0.42188 0.38282,0 0.71875,0.0781 1,0.23438 0.28907,0.15625 0.53125,0.38281 0.71875,0.67187 0.19532,0.29297 0.34766,0.64844 0.45313,1.0625 0.10156,0.41797 0.15625,0.98047 0.15625,1.6875 0,0.84375 -0.0898,1.52735 -0.26563,2.04688 -0.16796,0.51172 -0.42187,0.90625 -0.76562,1.1875 -0.34375,0.28125 -0.77734,0.42187 -1.29688,0.42187 -0.6875,0 -1.23046,-0.25 -1.625,-0.75 -0.46875,-0.59375 -0.70312,-1.5625 -0.70312,-2.90625 z m 0.89062,0 c 0,1.17969 0.13282,1.96485 0.40625,2.35938 0.28125,0.38672 0.625,0.57812 1.03125,0.57812 0.40625,0 0.74219,-0.1914 1.01563,-0.57812 0.28125,-0.39453 0.42187,-1.17969 0.42187,-2.35938 0,-1.17578 -0.14062,-1.95703 -0.42187,-2.34375 -0.27344,-0.38281 -0.61719,-0.57812 -1.03125,-0.57812 -0.39844,0 -0.71875,0.16797 -0.96875,0.5 -0.30469,0.4375 -0.45313,1.24609 -0.45313,2.42187 z m 0,0"
       id="path48366" />
    <path
       style="fill:#ffffff;fill-opacity:1;fill-rule:nonzero;stroke:none"
       d="m 207.88281,187.69531 v -1.71875 h -3.10937 v -0.79687 l 3.26562,-4.64063 h 0.71875 v 4.64063 h 0.96875 v 0.79687 h -0.96875 v 1.71875 z m 0,-2.51562 v -3.23438 l -2.25,3.23438 z m 0,0"
       id="path48368" />
    <path
       style="fill:#ffffff;fill-opacity:1;fill-rule:nonzero;stroke:none"
       d="m 210.39062,184.16406 c 0,-0.84375 0.082,-1.51953 0.25,-2.03125 0.17579,-0.51953 0.4375,-0.92187 0.78125,-1.20312 0.34375,-0.28125 0.77344,-0.42188 1.29688,-0.42188 0.38281,0 0.71875,0.0781 1,0.23438 0.28906,0.15625 0.53125,0.38281 0.71875,0.67187 0.19531,0.29297 0.34766,0.64844 0.45312,1.0625 0.10157,0.41797 0.15625,0.98047 0.15625,1.6875 0,0.84375 -0.0898,1.52735 -0.26562,2.04688 -0.16797,0.51172 -0.42188,0.90625 -0.76563,1.1875 -0.34375,0.28125 -0.77734,0.42187 -1.29687,0.42187 -0.6875,0 -1.23047,-0.25 -1.625,-0.75 -0.46875,-0.59375 -0.70313,-1.5625 -0.70313,-2.90625 z m 0.89063,0 c 0,1.17969 0.13281,1.96485 0.40625,2.35938 0.28125,0.38672 0.625,0.57812 1.03125,0.57812 0.40625,0 0.74219,-0.1914 1.01562,-0.57812 0.28125,-0.39453 0.42188,-1.17969 0.42188,-2.35938 0,-1.17578 -0.14063,-1.95703 -0.42188,-2.34375 -0.27343,-0.38281 -0.61718,-0.57812 -1.03125,-0.57812 -0.39843,0 -0.71875,0.16797 -0.96875,0.5 -0.30468,0.4375 -0.45312,1.24609 -0.45312,2.42187 z m 0,0"
       id="path48370" />
    <path
       style="fill:#ffffff;fill-opacity:1;fill-rule:nonzero;stroke:none"
       d="m 21.507812,184.16406 c 0,-0.84375 0.08203,-1.51953 0.25,-2.03125 0.175782,-0.51953 0.4375,-0.92187 0.78125,-1.20312 0.34375,-0.28125 0.773438,-0.42188 1.296876,-0.42188 0.382812,0 0.71875,0.0781 1,0.23438 0.289062,0.15625 0.53125,0.38281 0.71875,0.67187 0.195312,0.29297 0.347656,0.64844 0.453124,1.0625 0.101563,0.41797 0.15625,0.98047 0.15625,1.6875 0,0.84375 -0.08984,1.52735 -0.265624,2.04688 -0.167969,0.51172 -0.421876,0.90625 -0.765626,1.1875 -0.34375,0.28125 -0.777343,0.42187 -1.296874,0.42187 -0.6875,0 -1.230469,-0.25 -1.625,-0.75 -0.46875,-0.59375 -0.703126,-1.5625 -0.703126,-2.90625 z m 0.890626,0 c 0,1.17969 0.132812,1.96485 0.40625,2.35938 0.28125,0.38672 0.625,0.57812 1.03125,0.57812 0.40625,0 0.742187,-0.1914 1.015624,-0.57812 0.28125,-0.39453 0.421876,-1.17969 0.421876,-2.35938 0,-1.17578 -0.140626,-1.95703 -0.421876,-2.34375 -0.273437,-0.38281 -0.617187,-0.57812 -1.03125,-0.57812 -0.398437,0 -0.71875,0.16797 -0.96875,0.5 -0.304687,0.4375 -0.453124,1.24609 -0.453124,2.42187 z m 0,0"
       id="path48372" />
    <path
       style="fill:#ffffff;fill-opacity:1;fill-rule:nonzero;stroke:none"
       d="m 15.722656,112.25391 c 0,-0.84375 0.08203,-1.51953 0.25,-2.03125 0.175782,-0.51953 0.4375,-0.92188 0.78125,-1.20313 0.34375,-0.28125 0.773438,-0.42187 1.296875,-0.42187 0.382813,0 0.71875,0.0781 1,0.23437 0.289063,0.15625 0.53125,0.38281 0.71875,0.67188 0.195313,0.29297 0.347657,0.64843 0.453125,1.0625 0.101563,0.41797 0.15625,0.98047 0.15625,1.6875 0,0.84375 -0.08984,1.52734 -0.265625,2.04687 -0.167969,0.51172 -0.421875,0.90625 -0.765625,1.1875 -0.34375,0.28125 -0.777344,0.42188 -1.296875,0.42188 -0.6875,0 -1.230469,-0.25 -1.625,-0.75 -0.46875,-0.59375 -0.703125,-1.5625 -0.703125,-2.90625 z m 0.890625,0 c 0,1.17968 0.132813,1.96484 0.40625,2.35937 0.28125,0.38672 0.625,0.57813 1.03125,0.57813 0.40625,0 0.742188,-0.19141 1.015625,-0.57813 0.28125,-0.39453 0.421875,-1.17969 0.421875,-2.35937 0,-1.17578 -0.140625,-1.95703 -0.421875,-2.34375 -0.273437,-0.38282 -0.617187,-0.57813 -1.03125,-0.57813 -0.398437,0 -0.71875,0.16797 -0.96875,0.5 -0.304687,0.4375 -0.453125,1.2461 -0.453125,2.42188 z m 0,0"
       id="path48384" />
    <path
       style="fill:#ffffff;fill-opacity:1;fill-rule:nonzero;stroke:none"
       d="m 18.804688,69.996094 h -0.875 v -5.59375 c -0.210938,0.199218 -0.484376,0.402344 -0.828126,0.609375 -0.34375,0.199219 -0.652343,0.34375 -0.921874,0.4375 v -0.84375 c 0.488281,-0.226563 0.914062,-0.503907 1.28125,-0.828125 0.375,-0.332032 0.632812,-0.65625 0.78125,-0.96875 h 0.5625 z m 0,0"
       id="path48386" />
    <path
       style="fill:#ffffff;fill-opacity:1;fill-rule:nonzero;stroke:none"
       d="m 16.933594,50.835938 c 0,-0.84375 0.08203,-1.519532 0.25,-2.03125 0.175781,-0.519532 0.4375,-0.921876 0.78125,-1.203126 0.34375,-0.28125 0.773437,-0.421874 1.296875,-0.421874 0.382812,0 0.71875,0.07812 1,0.234374 0.289062,0.15625 0.53125,0.382813 0.71875,0.671876 0.195312,0.292968 0.347656,0.648437 0.453125,1.0625 0.101562,0.417968 0.15625,0.980468 0.15625,1.6875 0,0.84375 -0.08984,1.527343 -0.265625,2.046874 -0.167969,0.511719 -0.421875,0.90625 -0.765625,1.1875 -0.34375,0.28125 -0.777344,0.421876 -1.296875,0.421876 -0.6875,0 -1.230469,-0.25 -1.625,-0.75 -0.46875,-0.59375 -0.703125,-1.5625 -0.703125,-2.90625 z m 0.890625,0 c 0,1.179687 0.132812,1.964843 0.40625,2.359374 0.28125,0.386719 0.625,0.578126 1.03125,0.578126 0.40625,0 0.742187,-0.191407 1.015625,-0.578126 0.28125,-0.394531 0.421875,-1.179687 0.421875,-2.359374 0,-1.175782 -0.140625,-1.957032 -0.421875,-2.34375 -0.273438,-0.382813 -0.617188,-0.578126 -1.03125,-0.578126 -0.398438,0 -0.71875,0.167969 -0.96875,0.5 -0.304688,0.4375 -0.453125,1.246094 -0.453125,2.421876 z m 0,0"
       id="path48454" />
    <path
       style="fill:#ffffff;fill-opacity:1;fill-rule:nonzero;stroke:none"
       d="m 20.019531,8.582031 h -0.875 v -5.59375 c -0.210937,0.199219 -0.484375,0.402344 -0.828125,0.609375 -0.34375,0.199219 -0.652344,0.34375 -0.921875,0.4375 v -0.84375 c 0.488281,-0.226562 0.914063,-0.503906 1.28125,-0.828125 0.375,-0.332031 0.632813,-0.65625 0.78125,-0.96875 h 0.5625 z m 0,0"
       id="path48456" />
    <path
       style="fill:#ffffff;fill-opacity:1;fill-rule:nonzero;stroke:none"
       d="m 7.007812,111.71875 h -7.15625 v -2.70312 c 0,-0.47657 0.023438,-0.84375 0.0625005,-1.09375 0.0625,-0.35157 0.1796875,-0.64454 0.3437495,-0.875 0.15625,-0.23829 0.386719,-0.42969 0.6875,-0.57813 0.292969,-0.14453 0.617188,-0.21875 0.96875,-0.21875 0.617188,0 1.136719,0.19531 1.5625,0.57813 0.417969,0.38671 0.625,1.08593 0.625,2.09375 v 1.84375 h 2.90625 z m -3.75,-0.95312 v -1.84375 c 0,-0.61329 -0.113281,-1.05079 -0.34375,-1.3125 -0.226562,-0.25782 -0.550781,-0.39063 -0.96875,-0.39063 -0.300781,0 -0.554687,0.0781 -0.765624,0.23438 -0.207032,0.14843 -0.347657,0.34375 -0.421876,0.59375 -0.039062,0.16796 -0.0625,0.46484 -0.0625,0.89062 v 1.82813 z m 0,0"
       id="path48458" />
    <path
       style="fill:#ffffff;fill-opacity:1;fill-rule:nonzero;stroke:none"
       d="m 7.007812,104.08594 -7.15625,1.89062 v -0.96875 l 4.6875,-1.09375 c 0.492188,-0.11328 0.980469,-0.21093 1.46875,-0.29687 -0.769531,-0.1875 -1.210937,-0.29688 -1.328124,-0.32813 l -4.828126,-1.35937 v -1.14063 l 3.625,-1.031248 C 4.375,99.507812 5.21875,99.328125 6.007812,99.210938 5.550781,99.117188 5.03125,99 4.445312,98.851562 l -4.59375,-1.125 v -0.953124 l 7.15625,1.96875 v 0.90625 l -5.453124,1.515622 c -0.457032,0.125 -0.738282,0.19922 -0.84375,0.21875 0.335937,0.0742 0.617187,0.14844 0.84375,0.21875 l 5.453124,1.51563 z m 0,0"
       id="path48460" />
    <path
       style="fill:#ffffff;fill-opacity:1;fill-rule:nonzero;stroke:none"
       d="m 7.007812,96.332031 h -7.15625 v -1.421875 l 5.0625,-1.6875 c 0.480469,-0.15625 0.835938,-0.269531 1.0625,-0.34375 -0.257812,-0.08203 -0.640624,-0.207031 -1.140624,-0.375 l -4.984376,-1.71875 v -1.28125 h 7.15625 v 0.921875 H 1.023438 l 5.984374,2.078125 v 0.859375 l -6.09375,2.0625 h 6.09375 z m 0,0"
       id="path48462" />
    <path
       style="fill:#ffffff;fill-opacity:1;fill-rule:nonzero;stroke:none"
       d="m 3.523438,85.972656 c -1.1875,0 -2.113282,-0.316406 -2.78125,-0.953125 -0.6757818,-0.632812 -1.015626,-1.457031 -1.015626,-2.46875 0,-0.664062 0.15625,-1.265625 0.46875,-1.796875 0.3125,-0.53125 0.757813,-0.929687 1.328126,-1.203125 0.5625,-0.28125 1.203124,-0.421875 1.921874,-0.421875 0.71875,0 1.367188,0.148438 1.9375,0.4375 0.574219,0.292969 1.011719,0.710938 1.3125,1.25 0.292969,0.53125 0.4375,1.109375 0.4375,1.734375 0,0.679688 -0.160156,1.28125 -0.484374,1.8125 -0.332032,0.53125 -0.78125,0.933594 -1.34375,1.203125 -0.5625,0.273438 -1.15625,0.40625 -1.78125,0.40625 z m 0.015624,-0.96875 c 0.867188,0 1.546876,-0.234375 2.046876,-0.703125 0.492187,-0.46875 0.734374,-1.050781 0.734374,-1.75 0,-0.707031 -0.25,-1.289062 -0.75,-1.75 -0.5,-0.46875 -1.210937,-0.703125 -2.140624,-0.703125 -0.582032,0 -1.085938,0.101563 -1.515626,0.296875 -0.4375,0.199219 -0.773437,0.492188 -1.015624,0.875 -0.238282,0.375 -0.359376,0.796875 -0.359376,1.265625 0,0.679688 0.230469,1.261719 0.6875,1.75 0.460938,0.480469 1.230469,0.71875 2.3125,0.71875 z m 0,0"
       id="path48464" />
    <path
       style="fill:#ffffff;fill-opacity:1;fill-rule:nonzero;stroke:none"
       d="m -0.148438,73.558594 v -0.953125 h 4.140626 c 0.71875,0 1.292968,0.08594 1.71875,0.25 0.417968,0.167969 0.761718,0.464843 1.03125,0.890625 0.261718,0.417968 0.390624,0.96875 0.390624,1.65625 0,0.679687 -0.117187,1.230468 -0.34375,1.65625 -0.238281,0.429687 -0.578124,0.734375 -1.015624,0.921875 -0.4375,0.179687 -1.03125,0.265625 -1.78125,0.265625 h -4.140626 v -0.953125 h 4.125 c 0.625,0 1.085938,-0.05469 1.375,-0.171875 0.292969,-0.113282 0.523438,-0.3125 0.6875,-0.59375 0.15625,-0.28125 0.234376,-0.625 0.234376,-1.03125 0,-0.695313 -0.15625,-1.191406 -0.46875,-1.484375 C 5.484375,73.710938 4.875,73.558594 3.976562,73.558594 Z m 0,0"
       id="path48466" />
    <path
       style="fill:#ffffff;fill-opacity:1;fill-rule:nonzero;stroke:none"
       d="m 7.007812,69.523438 h -6.3125 v 2.359374 h -0.84375 v -5.671874 h 0.84375 v 2.359374 h 6.3125 z m 0,0"
       id="path48468" />
    <path
       style="fill:#ffffff;fill-opacity:1;fill-rule:nonzero;stroke:none"
       d="M 7.15625,44.734375 H 0 V 42.03125 c 0,-0.476562 0.0234375,-0.84375 0.0625,-1.09375 0.0625,-0.351562 0.179688,-0.644531 0.34375,-0.875 0.15625,-0.238281 0.386719,-0.429688 0.6875,-0.578125 0.292969,-0.144531 0.617188,-0.21875 0.96875,-0.21875 0.617188,0 1.136719,0.195313 1.5625,0.578125 0.417969,0.386719 0.625,1.085938 0.625,2.09375 v 1.84375 h 2.90625 z m -3.75,-0.953125 V 41.9375 c 0,-0.613281 -0.113281,-1.050781 -0.34375,-1.3125 -0.226562,-0.257812 -0.550781,-0.390625 -0.96875,-0.390625 -0.300781,0 -0.554688,0.07813 -0.765625,0.234375 -0.207031,0.148438 -0.347656,0.34375 -0.421875,0.59375 -0.039062,0.167969 -0.0625,0.464844 -0.0625,0.890625 v 1.828125 z m 0,0"
       id="path48470" />
    <path
       style="fill:#ffffff;fill-opacity:1;fill-rule:nonzero;stroke:none"
       d="M 7.15625,37.097656 0,38.988281 v -0.96875 l 4.6875,-1.09375 C 5.179688,36.8125 5.667969,36.714844 6.15625,36.628906 5.386719,36.441406 4.945312,36.332031 4.828125,36.300781 L 0,34.941406 v -1.140625 l 3.625,-1.03125 c 0.898438,-0.25 1.742188,-0.429687 2.53125,-0.546875 -0.457031,-0.09375 -0.976562,-0.210937 -1.5625,-0.359375 L 0,30.738281 v -0.953125 l 7.15625,1.96875 v 0.90625 l -5.453125,1.515625 c -0.457031,0.125 -0.738281,0.199219 -0.84375,0.21875 0.335937,0.07422 0.617187,0.148438 0.84375,0.21875 l 5.453125,1.515625 z m 0,0"
       id="path48472" />
    <path
       style="fill:#ffffff;fill-opacity:1;fill-rule:nonzero;stroke:none"
       d="M 7.15625,29.347656 H 0 v -1.421875 l 5.0625,-1.6875 C 5.542969,26.082031 5.898438,25.96875 6.125,25.894531 5.867188,25.8125 5.484375,25.6875 4.984375,25.519531 L 0,23.800781 v -1.28125 h 7.15625 v 0.921875 H 1.171875 l 5.984375,2.078125 v 0.859375 l -6.09375,2.0625 h 6.09375 z m 0,0"
       id="path48474" />
    <path
       style="fill:#ffffff;fill-opacity:1;fill-rule:nonzero;stroke:none"
       d="m 0,17.597656 h 7.15625 v 0.9375 H 0 Z m 0,0"
       id="path48476" />
    <path
       style="fill:#ffffff;fill-opacity:1;fill-rule:nonzero;stroke:none"
       d="M 7.15625,16.054688 H 0 v -0.96875 L 5.625,11.320312 H 0 v -0.90625 h 7.15625 v 0.96875 l -5.625,3.765626 h 5.625 z m 0,0"
       id="path48478" />
    <path
       style="fill:#ffffff;fill-opacity:1;fill-rule:nonzero;stroke:none"
       d="m -0.195312,161.38281 v -0.95312 h 4.140624 c 0.71875,0 1.292969,0.0859 1.71875,0.25 0.417969,0.16797 0.761719,0.46484 1.03125,0.89062 0.261719,0.41797 0.390626,0.96875 0.390626,1.65625 0,0.67969 -0.117188,1.23047 -0.34375,1.65625 -0.238282,0.42969 -0.578126,0.73438 -1.015626,0.92188 -0.4375,0.17968 -1.03125,0.26562 -1.78125,0.26562 h -4.140624 v -0.95312 h 4.125 c 0.625,0 1.085937,-0.0547 1.375,-0.17188 0.292968,-0.11328 0.523437,-0.3125 0.6875,-0.59375 0.15625,-0.28125 0.234374,-0.625 0.234374,-1.03125 0,-0.69531 -0.15625,-1.1914 -0.46875,-1.48437 -0.320312,-0.30078 -0.929687,-0.45313 -1.828124,-0.45313 z m 0,0"
       id="path48480" />
    <path
       style="fill:#ffffff;fill-opacity:1;fill-rule:nonzero;stroke:none"
       d="m 6.960938,159.17578 h -7.15625 v -2.70312 c 0,-0.47657 0.023437,-0.84375 0.0625,-1.09375 0.0624995,-0.35157 0.179687,-0.64454 0.34375,-0.875 0.15625,-0.23829 0.386718,-0.42969 0.6875,-0.57813 0.292968,-0.14453 0.617187,-0.21875 0.96875,-0.21875 0.617187,0 1.136718,0.19531 1.5625,0.57813 0.417968,0.38671 0.625,1.08593 0.625,2.09375 v 1.84375 h 2.90625 z m -3.75,-0.95312 v -1.84375 c 0,-0.61329 -0.113282,-1.05079 -0.34375,-1.3125 -0.226563,-0.25782 -0.550782,-0.39063 -0.96875,-0.39063 -0.300782,0 -0.554688,0.0781 -0.765626,0.23438 -0.207031,0.14843 -0.347656,0.34375 -0.421874,0.59375 -0.039063,0.16796 -0.0625,0.46484 -0.0625,0.89062 v 1.82813 z m 0,0"
       id="path48482" />
    <path
       style="fill:#ffffff;fill-opacity:1;fill-rule:nonzero;stroke:none"
       d="m 7.085938,153.55859 -7.40625,-2.07812 v -0.70313 l 7.40625,2.07813 z m 0,0"
       id="path48484" />
    <path
       style="fill:#ffffff;fill-opacity:1;fill-rule:nonzero;stroke:none"
       d="m 6.960938,150.14062 h -7.15625 v -2.46875 c 0,-0.5625 0.03125,-0.98828 0.09375,-1.28125 0.0937495,-0.40625 0.265624,-0.7539 0.515624,-1.04687 0.324219,-0.375 0.734376,-0.65625 1.234376,-0.84375 0.492187,-0.1875 1.054687,-0.28125 1.6875,-0.28125 0.554687,0 1.039062,0.0625 1.453124,0.1875 0.417969,0.125 0.765626,0.28906 1.046876,0.48437 0.273437,0.19922 0.484374,0.41797 0.640624,0.65625 0.15625,0.24219 0.277344,0.52735 0.359376,0.85938 0.085937,0.33594 0.125,0.71484 0.125,1.14062 z m -0.84375,-0.95312 v -1.53125 c 0,-0.46875 -0.039063,-0.83594 -0.125,-1.10938 -0.09375,-0.26953 -0.21875,-0.48437 -0.375,-0.64062 C 5.390625,145.67969 5.085938,145.5 4.710938,145.375 4.328125,145.25 3.863281,145.1875 3.320312,145.1875 c -0.738281,0 -1.3125,0.125 -1.71875,0.375 -0.40625,0.25 -0.675781,0.54687 -0.8125,0.89062 -0.09375,0.26172 -0.140624,0.67188 -0.140624,1.23438 v 1.5 z m 0,0"
       id="path48486" />
    <path
       style="fill:#ffffff;fill-opacity:1;fill-rule:nonzero;stroke:none"
       d="m 6.960938,143.23047 h -7.15625 v -0.96875 l 5.625,-3.76563 h -5.625 v -0.90625 h 7.15625 v 0.96875 l -5.625,3.76563 h 5.625 z m 0,0"
       id="path48488" />
  </g>
</svg>
