<?xml version="1.0" encoding="UTF-8"?>
<svg xmlns="http://www.w3.org/2000/svg" xmlns:xlink="http://www.w3.org/1999/xlink" width="261.106903pt" height="202.577332pt" viewBox="0 0 261.106903 202.577332" version="1.1">
<defs>
<clipPath id="clip1">
  <path d="M 168 193 L 171 193 L 171 202.578125 L 168 202.578125 Z M 168 193 "/>
</clipPath>
<clipPath id="clip2">
  <path d="M 170 195 L 176 195 L 176 202.578125 L 170 202.578125 Z M 170 195 "/>
</clipPath>
<clipPath id="clip3">
  <path d="M 180 193 L 183 193 L 183 202.578125 L 180 202.578125 Z M 180 193 "/>
</clipPath>
<clipPath id="clip4">
  <path d="M 256 180 L 261.105469 180 L 261.105469 188 L 256 188 Z M 256 180 "/>
</clipPath>
</defs>
<g id="surface1">
<path style="fill:none;stroke-width:1.2;stroke-linecap:butt;stroke-linejoin:round;stroke:rgb(0%,0%,0%);stroke-opacity:1;stroke-miterlimit:10;" d="M 23.792969 62.0625 L 255.945312 62.0625 "/>
<path style="fill:none;stroke-width:1.2;stroke-linecap:butt;stroke-linejoin:round;stroke:rgb(0%,0%,0%);stroke-opacity:1;stroke-miterlimit:10;" d="M 23.792969 116.890625 L 255.945312 116.890625 "/>
<path style="fill:none;stroke-width:1.2;stroke-linecap:butt;stroke-linejoin:round;stroke:rgb(0%,0%,0%);stroke-opacity:1;stroke-miterlimit:10;" d="M 255.945312 116.890625 L 255.945312 62.0625 "/>
<path style="fill:none;stroke-width:1.2;stroke-linecap:butt;stroke-linejoin:round;stroke:rgb(0%,0%,0%);stroke-opacity:1;stroke-miterlimit:10;" d="M 23.792969 116.890625 L 23.792969 62.0625 "/>
<path style="fill:none;stroke-width:1.2;stroke-linecap:butt;stroke-linejoin:round;stroke:rgb(0%,0%,0%);stroke-opacity:1;stroke-miterlimit:10;" d="M 23.792969 116.890625 L 255.945312 116.890625 "/>
<path style="fill:none;stroke-width:1.2;stroke-linecap:butt;stroke-linejoin:round;stroke:rgb(0%,0%,0%);stroke-opacity:1;stroke-miterlimit:10;" d="M 23.792969 116.890625 L 23.792969 62.0625 "/>
<path style="fill:none;stroke-width:1.2;stroke-linecap:butt;stroke-linejoin:round;stroke:rgb(0%,0%,0%);stroke-opacity:1;stroke-miterlimit:10;" d="M 23.792969 116.890625 L 23.792969 114.558594 "/>
<path style="fill:none;stroke-width:1.2;stroke-linecap:butt;stroke-linejoin:round;stroke:rgb(0%,0%,0%);stroke-opacity:1;stroke-miterlimit:10;" d="M 23.792969 62.0625 L 23.792969 63.8125 "/>
<path style="fill:none;stroke-width:1.2;stroke-linecap:butt;stroke-linejoin:round;stroke:rgb(0%,0%,0%);stroke-opacity:1;stroke-miterlimit:10;" d="M 69.875 116.890625 L 69.875 112.09375 "/>
<path style="fill:none;stroke-width:1.2;stroke-linecap:butt;stroke-linejoin:round;stroke:rgb(0%,0%,0%);stroke-opacity:1;stroke-miterlimit:10;" d="M 69.875 61.335938 L 69.875 66.136719 "/>
<path style="fill:none;stroke-width:1.2;stroke-linecap:butt;stroke-linejoin:round;stroke:rgb(0%,0%,0%);stroke-opacity:1;stroke-miterlimit:10;" d="M 116.539062 116.890625 L 116.539062 112.09375 "/>
<path style="fill:none;stroke-width:1.2;stroke-linecap:butt;stroke-linejoin:round;stroke:rgb(0%,0%,0%);stroke-opacity:1;stroke-miterlimit:10;" d="M 116.539062 61.335938 L 116.539062 66.136719 "/>
<path style="fill:none;stroke-width:1.2;stroke-linecap:butt;stroke-linejoin:round;stroke:rgb(0%,0%,0%);stroke-opacity:1;stroke-miterlimit:10;" d="M 162.617188 116.890625 L 162.617188 112.09375 "/>
<path style="fill:none;stroke-width:1.2;stroke-linecap:butt;stroke-linejoin:round;stroke:rgb(0%,0%,0%);stroke-opacity:1;stroke-miterlimit:10;" d="M 162.617188 61.335938 L 162.617188 66.136719 "/>
<path style="fill:none;stroke-width:1.2;stroke-linecap:butt;stroke-linejoin:round;stroke:rgb(0%,0%,0%);stroke-opacity:1;stroke-miterlimit:10;" d="M 209.28125 116.890625 L 209.28125 112.09375 "/>
<path style="fill:none;stroke-width:1.2;stroke-linecap:butt;stroke-linejoin:round;stroke:rgb(0%,0%,0%);stroke-opacity:1;stroke-miterlimit:10;" d="M 209.28125 61.335938 L 209.28125 66.136719 "/>
<path style="fill:none;stroke-width:1.2;stroke-linecap:butt;stroke-linejoin:round;stroke:rgb(0%,0%,0%);stroke-opacity:1;stroke-miterlimit:10;" d="M 255.945312 116.890625 L 255.945312 114.558594 "/>
<path style="fill:none;stroke-width:1.2;stroke-linecap:butt;stroke-linejoin:round;stroke:rgb(0%,0%,0%);stroke-opacity:1;stroke-miterlimit:10;" d="M 255.945312 62.0625 L 255.945312 63.8125 "/>
<path style="fill:none;stroke-width:1.2;stroke-linecap:butt;stroke-linejoin:round;stroke:rgb(0%,0%,0%);stroke-opacity:1;stroke-miterlimit:10;" d="M 23.792969 112.226562 L 28.59375 112.226562 "/>
<path style="fill:none;stroke-width:1.2;stroke-linecap:butt;stroke-linejoin:round;stroke:rgb(0%,0%,0%);stroke-opacity:1;stroke-miterlimit:10;" d="M 255.863281 112.226562 L 251.0625 112.226562 "/>
<path style="fill:none;stroke-width:1.2;stroke-linecap:butt;stroke-linejoin:round;stroke:rgb(0%,0%,0%);stroke-opacity:1;stroke-miterlimit:10;" d="M 23.792969 89.476562 L 28.59375 89.476562 "/>
<path style="fill:none;stroke-width:1.2;stroke-linecap:butt;stroke-linejoin:round;stroke:rgb(0%,0%,0%);stroke-opacity:1;stroke-miterlimit:10;" d="M 255.863281 89.476562 L 251.0625 89.476562 "/>
<path style="fill:none;stroke-width:1.2;stroke-linecap:butt;stroke-linejoin:round;stroke:rgb(0%,0%,0%);stroke-opacity:1;stroke-miterlimit:10;" d="M 23.792969 66.144531 L 28.59375 66.144531 "/>
<path style="fill:none;stroke-width:1.2;stroke-linecap:butt;stroke-linejoin:round;stroke:rgb(0%,0%,0%);stroke-opacity:1;stroke-miterlimit:10;" d="M 255.863281 66.144531 L 251.0625 66.144531 "/>
<path style="fill:none;stroke-width:1.2;stroke-linecap:butt;stroke-linejoin:round;stroke:rgb(0%,0%,0%);stroke-opacity:1;stroke-miterlimit:10;" d="M 23.792969 62.0625 L 255.945312 62.0625 "/>
<path style="fill:none;stroke-width:1.2;stroke-linecap:butt;stroke-linejoin:round;stroke:rgb(0%,0%,0%);stroke-opacity:1;stroke-miterlimit:10;" d="M 23.792969 116.890625 L 255.945312 116.890625 "/>
<path style="fill:none;stroke-width:1.2;stroke-linecap:butt;stroke-linejoin:round;stroke:rgb(0%,0%,0%);stroke-opacity:1;stroke-miterlimit:10;" d="M 255.945312 116.890625 L 255.945312 62.0625 "/>
<path style="fill:none;stroke-width:1.2;stroke-linecap:butt;stroke-linejoin:round;stroke:rgb(0%,0%,0%);stroke-opacity:1;stroke-miterlimit:10;" d="M 23.792969 116.890625 L 23.792969 62.0625 "/>
<path style="fill:none;stroke-width:1.2;stroke-linecap:butt;stroke-linejoin:round;stroke:rgb(0%,0%,0%);stroke-opacity:1;stroke-miterlimit:10;" d="M 23.792969 123.75 L 255.945312 123.75 "/>
<path style="fill:none;stroke-width:1.2;stroke-linecap:butt;stroke-linejoin:round;stroke:rgb(0%,0%,0%);stroke-opacity:1;stroke-miterlimit:10;" d="M 23.792969 178.578125 L 255.945312 178.578125 "/>
<path style="fill:none;stroke-width:1.2;stroke-linecap:butt;stroke-linejoin:round;stroke:rgb(0%,0%,0%);stroke-opacity:1;stroke-miterlimit:10;" d="M 255.945312 178.578125 L 255.945312 123.75 "/>
<path style="fill:none;stroke-width:1.2;stroke-linecap:butt;stroke-linejoin:round;stroke:rgb(0%,0%,0%);stroke-opacity:1;stroke-miterlimit:10;" d="M 23.792969 178.578125 L 23.792969 123.75 "/>
<path style="fill:none;stroke-width:1.2;stroke-linecap:butt;stroke-linejoin:round;stroke:rgb(0%,0%,0%);stroke-opacity:1;stroke-miterlimit:10;" d="M 23.792969 178.578125 L 255.945312 178.578125 "/>
<path style="fill:none;stroke-width:1.2;stroke-linecap:butt;stroke-linejoin:round;stroke:rgb(0%,0%,0%);stroke-opacity:1;stroke-miterlimit:10;" d="M 23.792969 178.578125 L 23.792969 123.75 "/>
<path style="fill:none;stroke-width:1.2;stroke-linecap:butt;stroke-linejoin:round;stroke:rgb(0%,0%,0%);stroke-opacity:1;stroke-miterlimit:10;" d="M 23.792969 178.578125 L 23.792969 176.246094 "/>
<path style="fill:none;stroke-width:1.2;stroke-linecap:butt;stroke-linejoin:round;stroke:rgb(0%,0%,0%);stroke-opacity:1;stroke-miterlimit:10;" d="M 23.792969 123.75 L 23.792969 125.5 "/>
<path style="fill:none;stroke-width:1.2;stroke-linecap:butt;stroke-linejoin:round;stroke:rgb(0%,0%,0%);stroke-opacity:1;stroke-miterlimit:10;" d="M 69.875 178.578125 L 69.875 173.78125 "/>
<path style="fill:none;stroke-width:1.2;stroke-linecap:butt;stroke-linejoin:round;stroke:rgb(0%,0%,0%);stroke-opacity:1;stroke-miterlimit:10;" d="M 69.875 123.425781 L 69.875 128.226562 "/>
<path style="fill:none;stroke-width:1.2;stroke-linecap:butt;stroke-linejoin:round;stroke:rgb(0%,0%,0%);stroke-opacity:1;stroke-miterlimit:10;" d="M 116.539062 178.578125 L 116.539062 173.78125 "/>
<path style="fill:none;stroke-width:1.2;stroke-linecap:butt;stroke-linejoin:round;stroke:rgb(0%,0%,0%);stroke-opacity:1;stroke-miterlimit:10;" d="M 116.539062 123.425781 L 116.539062 128.226562 "/>
<path style="fill:none;stroke-width:1.2;stroke-linecap:butt;stroke-linejoin:round;stroke:rgb(0%,0%,0%);stroke-opacity:1;stroke-miterlimit:10;" d="M 162.617188 178.578125 L 162.617188 173.78125 "/>
<path style="fill:none;stroke-width:1.2;stroke-linecap:butt;stroke-linejoin:round;stroke:rgb(0%,0%,0%);stroke-opacity:1;stroke-miterlimit:10;" d="M 162.617188 123.425781 L 162.617188 128.226562 "/>
<path style="fill:none;stroke-width:1.2;stroke-linecap:butt;stroke-linejoin:round;stroke:rgb(0%,0%,0%);stroke-opacity:1;stroke-miterlimit:10;" d="M 209.28125 178.578125 L 209.28125 173.78125 "/>
<path style="fill:none;stroke-width:1.2;stroke-linecap:butt;stroke-linejoin:round;stroke:rgb(0%,0%,0%);stroke-opacity:1;stroke-miterlimit:10;" d="M 209.28125 123.425781 L 209.28125 128.226562 "/>
<path style="fill:none;stroke-width:1.2;stroke-linecap:butt;stroke-linejoin:round;stroke:rgb(0%,0%,0%);stroke-opacity:1;stroke-miterlimit:10;" d="M 255.945312 178.578125 L 255.945312 176.246094 "/>
<path style="fill:none;stroke-width:1.2;stroke-linecap:butt;stroke-linejoin:round;stroke:rgb(0%,0%,0%);stroke-opacity:1;stroke-miterlimit:10;" d="M 255.945312 123.75 L 255.945312 125.5 "/>
<path style="fill:none;stroke-width:1.2;stroke-linecap:butt;stroke-linejoin:round;stroke:rgb(0%,0%,0%);stroke-opacity:1;stroke-miterlimit:10;" d="M 23.792969 173.914062 L 28.59375 173.914062 "/>
<path style="fill:none;stroke-width:1.2;stroke-linecap:butt;stroke-linejoin:round;stroke:rgb(0%,0%,0%);stroke-opacity:1;stroke-miterlimit:10;" d="M 255.863281 173.914062 L 251.0625 173.914062 "/>
<path style="fill:none;stroke-width:1.2;stroke-linecap:butt;stroke-linejoin:round;stroke:rgb(0%,0%,0%);stroke-opacity:1;stroke-miterlimit:10;" d="M 23.792969 151.164062 L 28.59375 151.164062 "/>
<path style="fill:none;stroke-width:1.2;stroke-linecap:butt;stroke-linejoin:round;stroke:rgb(0%,0%,0%);stroke-opacity:1;stroke-miterlimit:10;" d="M 255.863281 151.164062 L 251.0625 151.164062 "/>
<path style="fill:none;stroke-width:1.2;stroke-linecap:butt;stroke-linejoin:round;stroke:rgb(0%,0%,0%);stroke-opacity:1;stroke-miterlimit:10;" d="M 23.792969 127.832031 L 28.59375 127.832031 "/>
<path style="fill:none;stroke-width:1.2;stroke-linecap:butt;stroke-linejoin:round;stroke:rgb(0%,0%,0%);stroke-opacity:1;stroke-miterlimit:10;" d="M 255.863281 127.832031 L 251.0625 127.832031 "/>
<path style="fill:none;stroke-width:1.2;stroke-linecap:butt;stroke-linejoin:round;stroke:rgb(0%,0%,0%);stroke-opacity:1;stroke-miterlimit:10;" d="M 23.792969 123.75 L 255.945312 123.75 "/>
<path style="fill:none;stroke-width:1.2;stroke-linecap:butt;stroke-linejoin:round;stroke:rgb(0%,0%,0%);stroke-opacity:1;stroke-miterlimit:10;" d="M 23.792969 178.578125 L 255.945312 178.578125 "/>
<path style="fill:none;stroke-width:1.2;stroke-linecap:butt;stroke-linejoin:round;stroke:rgb(0%,0%,0%);stroke-opacity:1;stroke-miterlimit:10;" d="M 255.945312 178.578125 L 255.945312 123.75 "/>
<path style="fill:none;stroke-width:1.2;stroke-linecap:butt;stroke-linejoin:round;stroke:rgb(0%,0%,0%);stroke-opacity:1;stroke-miterlimit:10;" d="M 23.792969 178.578125 L 23.792969 123.75 "/>
<path style="fill:none;stroke-width:0.8;stroke-linecap:butt;stroke-linejoin:round;stroke:rgb(0%,0%,100%);stroke-opacity:1;stroke-miterlimit:10;" d="M 198.785156 173.914062 L 231.449219 173.914062 L 232.03125 127.832031 L 244.863281 127.832031 L 245.449219 173.914062 L 256.53125 173.914062 "/>
<path style="fill:none;stroke-width:0.8;stroke-linecap:butt;stroke-linejoin:round;stroke:rgb(0%,0%,100%);stroke-opacity:1;stroke-miterlimit:10;" d="M 141.035156 127.832031 L 142.785156 127.832031 L 143.371094 173.914062 L 153.867188 173.914062 L 154.453125 127.832031 L 168.453125 127.832031 L 169.035156 173.914062 L 198.785156 173.914062 "/>
<path style="fill:none;stroke-width:0.8;stroke-linecap:butt;stroke-linejoin:round;stroke:rgb(0%,0%,100%);stroke-opacity:1;stroke-miterlimit:10;" d="M 83.871094 173.914062 L 128.203125 173.914062 L 128.203125 127.832031 L 141.035156 127.832031 "/>
<path style="fill:none;stroke-width:0.8;stroke-linecap:butt;stroke-linejoin:round;stroke:rgb(0%,0%,100%);stroke-opacity:1;stroke-miterlimit:10;" d="M 26.125 127.832031 L 40.125 127.832031 L 40.707031 173.914062 L 51.207031 173.914062 L 51.792969 127.832031 L 65.789062 127.832031 L 66.375 173.914062 L 83.871094 173.914062 "/>
<path style="fill:none;stroke-width:0.8;stroke-linecap:butt;stroke-linejoin:round;stroke:rgb(0%,0%,100%);stroke-opacity:1;stroke-miterlimit:10;" d="M 23.792969 173.914062 L 24.375 127.832031 L 26.125 127.832031 "/>
<path style="fill:none;stroke-width:0.8;stroke-linecap:butt;stroke-linejoin:round;stroke:rgb(100%,0%,0%);stroke-opacity:1;stroke-miterlimit:10;" d="M 199.367188 127.832031 L 205.78125 127.832031 L 205.78125 173.914062 L 220.367188 173.914062 L 220.949219 127.832031 L 231.449219 127.832031 L 232.03125 173.914062 L 256.53125 173.914062 "/>
<path style="fill:none;stroke-width:0.8;stroke-linecap:butt;stroke-linejoin:round;stroke:rgb(100%,0%,0%);stroke-opacity:1;stroke-miterlimit:10;" d="M 141.621094 173.914062 L 179.535156 173.914062 L 180.117188 127.832031 L 180.703125 173.914062 L 194.117188 173.914062 L 194.699219 127.832031 L 199.367188 127.832031 "/>
<path style="fill:none;stroke-width:0.8;stroke-linecap:butt;stroke-linejoin:round;stroke:rgb(100%,0%,0%);stroke-opacity:1;stroke-miterlimit:10;" d="M 84.457031 173.914062 L 92.039062 173.914062 L 92.039062 127.832031 L 102.539062 127.832031 L 103.121094 173.914062 L 116.539062 173.914062 L 117.121094 127.832031 L 127.621094 127.832031 L 128.203125 173.914062 L 141.621094 173.914062 "/>
<path style="fill:none;stroke-width:0.8;stroke-linecap:butt;stroke-linejoin:round;stroke:rgb(100%,0%,0%);stroke-opacity:1;stroke-miterlimit:10;" d="M 27.292969 173.914062 L 75.707031 173.914062 L 75.707031 127.832031 L 76.875 127.832031 L 77.457031 173.914062 L 84.457031 173.914062 "/>
<path style="fill:none;stroke-width:0.8;stroke-linecap:butt;stroke-linejoin:round;stroke:rgb(100%,0%,0%);stroke-opacity:1;stroke-miterlimit:10;" d="M 23.792969 127.832031 L 23.792969 173.914062 L 27.292969 173.914062 "/>
<path style=" stroke:none;fill-rule:nonzero;fill:rgb(0%,0%,0%);fill-opacity:1;" d="M 16.097656 173.808594 C 16.097656 172.964844 16.179688 172.289062 16.347656 171.777344 C 16.523438 171.257812 16.785156 170.855469 17.128906 170.574219 C 17.472656 170.292969 17.902344 170.152344 18.425781 170.152344 C 18.808594 170.152344 19.144531 170.230469 19.425781 170.386719 C 19.714844 170.542969 19.957031 170.769531 20.144531 171.058594 C 20.339844 171.351562 20.492188 171.707031 20.597656 172.121094 C 20.699219 172.539062 20.753906 173.101562 20.753906 173.808594 C 20.753906 174.652344 20.664062 175.335938 20.488281 175.855469 C 20.320312 176.367188 20.066406 176.761719 19.722656 177.042969 C 19.378906 177.324219 18.945312 177.464844 18.425781 177.464844 C 17.738281 177.464844 17.195312 177.214844 16.800781 176.714844 C 16.332031 176.121094 16.097656 175.152344 16.097656 173.808594 Z M 16.988281 173.808594 C 16.988281 174.988281 17.121094 175.773438 17.394531 176.167969 C 17.675781 176.554688 18.019531 176.746094 18.425781 176.746094 C 18.832031 176.746094 19.167969 176.554688 19.441406 176.167969 C 19.722656 175.773438 19.863281 174.988281 19.863281 173.808594 C 19.863281 172.632812 19.722656 171.851562 19.441406 171.464844 C 19.167969 171.082031 18.824219 170.886719 18.410156 170.886719 C 18.011719 170.886719 17.691406 171.054688 17.441406 171.386719 C 17.136719 171.824219 16.988281 172.632812 16.988281 173.808594 Z M 16.988281 173.808594 "/>
<path style=" stroke:none;fill-rule:nonzero;fill:rgb(0%,0%,0%);fill-opacity:1;" d="M 19.183594 131.554688 L 18.308594 131.554688 L 18.308594 125.960938 C 18.097656 126.160156 17.824219 126.363281 17.480469 126.570312 C 17.136719 126.769531 16.828125 126.914062 16.558594 127.007812 L 16.558594 126.164062 C 17.046875 125.9375 17.472656 125.660156 17.839844 125.335938 C 18.214844 125.003906 18.472656 124.679688 18.621094 124.367188 L 19.183594 124.367188 Z M 19.183594 131.554688 "/>
<path style=" stroke:none;fill-rule:nonzero;fill:rgb(0%,0%,0%);fill-opacity:1;" d="M 97.25 198.378906 L 98.140625 198.300781 C 98.179688 198.65625 98.28125 198.949219 98.4375 199.175781 C 98.59375 199.40625 98.832031 199.59375 99.15625 199.738281 C 99.476562 199.875 99.84375 199.941406 100.25 199.941406 C 100.613281 199.941406 100.929688 199.890625 101.203125 199.785156 C 101.484375 199.683594 101.691406 199.535156 101.828125 199.347656 C 101.960938 199.160156 102.03125 198.957031 102.03125 198.738281 C 102.03125 198.511719 101.960938 198.3125 101.828125 198.144531 C 101.703125 197.980469 101.488281 197.839844 101.1875 197.722656 C 101 197.652344 100.578125 197.535156 99.921875 197.378906 C 99.265625 197.214844 98.800781 197.0625 98.53125 196.925781 C 98.1875 196.75 97.929688 196.53125 97.765625 196.269531 C 97.597656 196 97.515625 195.699219 97.515625 195.363281 C 97.515625 195.011719 97.617188 194.675781 97.828125 194.363281 C 98.035156 194.042969 98.332031 193.800781 98.71875 193.644531 C 99.113281 193.480469 99.554688 193.394531 100.046875 193.394531 C 100.566406 193.394531 101.03125 193.484375 101.4375 193.660156 C 101.84375 193.828125 102.15625 194.078125 102.375 194.410156 C 102.59375 194.746094 102.710938 195.121094 102.734375 195.535156 L 101.828125 195.597656 C 101.773438 195.152344 101.609375 194.8125 101.328125 194.582031 C 101.046875 194.34375 100.628906 194.222656 100.078125 194.222656 C 99.503906 194.222656 99.085938 194.332031 98.828125 194.550781 C 98.566406 194.761719 98.4375 195.011719 98.4375 195.300781 C 98.4375 195.5625 98.53125 195.777344 98.71875 195.941406 C 98.894531 196.109375 99.367188 196.28125 100.140625 196.457031 C 100.910156 196.625 101.4375 196.777344 101.71875 196.910156 C 102.132812 197.097656 102.441406 197.34375 102.640625 197.644531 C 102.835938 197.9375 102.9375 198.277344 102.9375 198.660156 C 102.9375 199.035156 102.828125 199.394531 102.609375 199.738281 C 102.398438 200.074219 102.085938 200.332031 101.671875 200.519531 C 101.265625 200.707031 100.804688 200.800781 100.296875 200.800781 C 99.648438 200.800781 99.109375 200.707031 98.671875 200.519531 C 98.234375 200.332031 97.890625 200.050781 97.640625 199.675781 C 97.390625 199.292969 97.257812 198.859375 97.25 198.378906 Z M 97.25 198.378906 "/>
<path style=" stroke:none;fill-rule:nonzero;fill:rgb(0%,0%,0%);fill-opacity:1;" d="M 103.851562 194.535156 L 103.851562 193.519531 L 104.726562 193.519531 L 104.726562 194.535156 Z M 103.851562 200.675781 L 103.851562 195.488281 L 104.726562 195.488281 L 104.726562 200.675781 Z M 103.851562 200.675781 "/>
<path style=" stroke:none;fill-rule:nonzero;fill:rgb(0%,0%,0%);fill-opacity:1;" d="M 105.964844 200.675781 L 105.964844 195.488281 L 106.761719 195.488281 L 106.761719 196.222656 C 106.917969 195.964844 107.128906 195.761719 107.402344 195.613281 C 107.671875 195.457031 107.980469 195.378906 108.324219 195.378906 C 108.707031 195.378906 109.019531 195.457031 109.261719 195.613281 C 109.511719 195.769531 109.6875 195.996094 109.792969 196.285156 C 110.199219 195.683594 110.730469 195.378906 111.386719 195.378906 C 111.90625 195.378906 112.300781 195.519531 112.574219 195.800781 C 112.855469 196.082031 112.996094 196.519531 112.996094 197.113281 L 112.996094 200.675781 L 112.121094 200.675781 L 112.121094 197.410156 C 112.121094 197.058594 112.089844 196.800781 112.027344 196.644531 C 111.972656 196.488281 111.871094 196.363281 111.714844 196.269531 C 111.566406 196.175781 111.394531 196.128906 111.199219 196.128906 C 110.832031 196.128906 110.53125 196.253906 110.292969 196.503906 C 110.050781 196.746094 109.933594 197.128906 109.933594 197.660156 L 109.933594 200.675781 L 109.042969 200.675781 L 109.042969 197.300781 C 109.042969 196.917969 108.96875 196.625 108.824219 196.425781 C 108.6875 196.230469 108.457031 196.128906 108.136719 196.128906 C 107.886719 196.128906 107.65625 196.199219 107.449219 196.332031 C 107.238281 196.457031 107.082031 196.644531 106.980469 196.894531 C 106.886719 197.144531 106.839844 197.511719 106.839844 197.988281 L 106.839844 200.675781 Z M 105.964844 200.675781 "/>
<path style=" stroke:none;fill-rule:nonzero;fill:rgb(0%,0%,0%);fill-opacity:1;" d="M 117.34375 200.675781 L 117.34375 199.910156 C 116.9375 200.503906 116.382812 200.800781 115.6875 200.800781 C 115.382812 200.800781 115.097656 200.742188 114.828125 200.628906 C 114.566406 200.503906 114.367188 200.355469 114.234375 200.175781 C 114.109375 200 114.019531 199.78125 113.96875 199.519531 C 113.9375 199.355469 113.921875 199.082031 113.921875 198.707031 L 113.921875 195.488281 L 114.796875 195.488281 L 114.796875 198.363281 C 114.796875 198.824219 114.816406 199.136719 114.859375 199.300781 C 114.910156 199.53125 115.023438 199.714844 115.203125 199.847656 C 115.378906 199.972656 115.601562 200.035156 115.875 200.035156 C 116.132812 200.035156 116.378906 199.96875 116.609375 199.832031 C 116.835938 199.699219 117 199.515625 117.09375 199.285156 C 117.195312 199.046875 117.25 198.707031 117.25 198.269531 L 117.25 195.488281 L 118.125 195.488281 L 118.125 200.675781 Z M 117.34375 200.675781 "/>
<path style=" stroke:none;fill-rule:nonzero;fill:rgb(0%,0%,0%);fill-opacity:1;" d="M 119.246094 193.519531 L 120.121094 193.519531 L 120.121094 200.675781 L 119.246094 200.675781 Z M 119.246094 193.519531 "/>
<path style=" stroke:none;fill-rule:nonzero;fill:rgb(0%,0%,0%);fill-opacity:1;" d="M 124.777344 200.035156 C 124.453125 200.316406 124.140625 200.515625 123.839844 200.628906 C 123.535156 200.742188 123.214844 200.800781 122.871094 200.800781 C 122.296875 200.800781 121.855469 200.660156 121.542969 200.378906 C 121.238281 200.097656 121.089844 199.738281 121.089844 199.300781 C 121.089844 199.050781 121.144531 198.824219 121.261719 198.613281 C 121.375 198.40625 121.527344 198.238281 121.714844 198.113281 C 121.902344 197.980469 122.113281 197.878906 122.355469 197.816406 C 122.519531 197.777344 122.78125 197.734375 123.136719 197.691406 C 123.84375 197.609375 124.363281 197.503906 124.699219 197.378906 C 124.699219 197.265625 124.699219 197.191406 124.699219 197.160156 C 124.699219 196.796875 124.613281 196.542969 124.449219 196.394531 C 124.230469 196.199219 123.894531 196.097656 123.449219 196.097656 C 123.042969 196.097656 122.738281 196.171875 122.542969 196.316406 C 122.34375 196.464844 122.199219 196.71875 122.105469 197.082031 L 121.246094 196.972656 C 121.316406 196.597656 121.441406 196.300781 121.621094 196.082031 C 121.808594 195.855469 122.066406 195.683594 122.402344 195.566406 C 122.746094 195.441406 123.140625 195.378906 123.589844 195.378906 C 124.027344 195.378906 124.378906 195.433594 124.652344 195.535156 C 124.933594 195.640625 125.136719 195.769531 125.261719 195.925781 C 125.394531 196.082031 125.488281 196.28125 125.542969 196.519531 C 125.574219 196.667969 125.589844 196.9375 125.589844 197.332031 L 125.589844 198.503906 C 125.589844 199.316406 125.605469 199.832031 125.636719 200.050781 C 125.675781 200.269531 125.753906 200.480469 125.871094 200.675781 L 124.949219 200.675781 C 124.855469 200.488281 124.796875 200.277344 124.777344 200.035156 Z M 124.699219 198.066406 C 124.375 198.203125 123.894531 198.316406 123.261719 198.410156 C 122.90625 198.464844 122.652344 198.519531 122.496094 198.582031 C 122.347656 198.644531 122.234375 198.738281 122.152344 198.863281 C 122.066406 198.988281 122.027344 199.128906 122.027344 199.285156 C 122.027344 199.515625 122.113281 199.707031 122.292969 199.863281 C 122.46875 200.019531 122.730469 200.097656 123.074219 200.097656 C 123.417969 200.097656 123.71875 200.027344 123.980469 199.878906 C 124.238281 199.734375 124.433594 199.53125 124.558594 199.269531 C 124.652344 199.074219 124.699219 198.78125 124.699219 198.394531 Z M 124.699219 198.066406 "/>
<path style=" stroke:none;fill-rule:nonzero;fill:rgb(0%,0%,0%);fill-opacity:1;" d="M 128.632812 199.894531 L 128.757812 200.660156 C 128.507812 200.710938 128.289062 200.738281 128.101562 200.738281 C 127.777344 200.738281 127.527344 200.691406 127.351562 200.597656 C 127.171875 200.496094 127.046875 200.359375 126.976562 200.191406 C 126.914062 200.027344 126.882812 199.683594 126.882812 199.160156 L 126.882812 196.175781 L 126.226562 196.175781 L 126.226562 195.488281 L 126.882812 195.488281 L 126.882812 194.207031 L 127.742188 193.675781 L 127.742188 195.488281 L 128.632812 195.488281 L 128.632812 196.175781 L 127.742188 196.175781 L 127.742188 199.207031 C 127.742188 199.457031 127.757812 199.621094 127.789062 199.691406 C 127.820312 199.765625 127.871094 199.824219 127.945312 199.863281 C 128.015625 199.90625 128.117188 199.925781 128.242188 199.925781 C 128.34375 199.925781 128.476562 199.917969 128.632812 199.894531 Z M 128.632812 199.894531 "/>
<path style=" stroke:none;fill-rule:nonzero;fill:rgb(0%,0%,0%);fill-opacity:1;" d="M 129.375 194.535156 L 129.375 193.519531 L 130.25 193.519531 L 130.25 194.535156 Z M 129.375 200.675781 L 129.375 195.488281 L 130.25 195.488281 L 130.25 200.675781 Z M 129.375 200.675781 "/>
<path style=" stroke:none;fill-rule:nonzero;fill:rgb(0%,0%,0%);fill-opacity:1;" d="M 131.160156 198.082031 C 131.160156 197.125 131.429688 196.410156 131.972656 195.941406 C 132.410156 195.566406 132.949219 195.378906 133.597656 195.378906 C 134.304688 195.378906 134.882812 195.613281 135.332031 196.082031 C 135.789062 196.542969 136.019531 197.183594 136.019531 198.003906 C 136.019531 198.671875 135.917969 199.199219 135.722656 199.582031 C 135.523438 199.96875 135.230469 200.269531 134.847656 200.488281 C 134.460938 200.695312 134.042969 200.800781 133.597656 200.800781 C 132.867188 200.800781 132.277344 200.566406 131.832031 200.097656 C 131.382812 199.628906 131.160156 198.957031 131.160156 198.082031 Z M 132.066406 198.082031 C 132.066406 198.75 132.210938 199.25 132.503906 199.582031 C 132.792969 199.90625 133.160156 200.066406 133.597656 200.066406 C 134.035156 200.066406 134.394531 199.902344 134.675781 199.566406 C 134.964844 199.234375 135.113281 198.730469 135.113281 198.050781 C 135.113281 197.417969 134.964844 196.933594 134.675781 196.597656 C 134.382812 196.265625 134.023438 196.097656 133.597656 196.097656 C 133.160156 196.097656 132.792969 196.265625 132.503906 196.597656 C 132.210938 196.921875 132.066406 197.417969 132.066406 198.082031 Z M 132.066406 198.082031 "/>
<path style=" stroke:none;fill-rule:nonzero;fill:rgb(0%,0%,0%);fill-opacity:1;" d="M 136.8125 200.675781 L 136.8125 195.488281 L 137.609375 195.488281 L 137.609375 196.222656 C 137.984375 195.660156 138.53125 195.378906 139.25 195.378906 C 139.5625 195.378906 139.847656 195.4375 140.109375 195.550781 C 140.378906 195.65625 140.578125 195.800781 140.703125 195.988281 C 140.835938 196.167969 140.929688 196.378906 140.984375 196.628906 C 141.015625 196.796875 141.03125 197.082031 141.03125 197.488281 L 141.03125 200.675781 L 140.15625 200.675781 L 140.15625 197.519531 C 140.15625 197.167969 140.117188 196.902344 140.046875 196.722656 C 139.984375 196.546875 139.863281 196.40625 139.6875 196.300781 C 139.507812 196.1875 139.304688 196.128906 139.078125 196.128906 C 138.703125 196.128906 138.375 196.25 138.09375 196.488281 C 137.820312 196.730469 137.6875 197.183594 137.6875 197.847656 L 137.6875 200.675781 Z M 136.8125 200.675781 "/>
<path style=" stroke:none;fill-rule:nonzero;fill:rgb(0%,0%,0%);fill-opacity:1;" d="M 146.5625 200.675781 L 146.5625 194.363281 L 144.203125 194.363281 L 144.203125 193.519531 L 149.875 193.519531 L 149.875 194.363281 L 147.515625 194.363281 L 147.515625 200.675781 Z M 146.5625 200.675781 "/>
<path style=" stroke:none;fill-rule:nonzero;fill:rgb(0%,0%,0%);fill-opacity:1;" d="M 150.128906 194.535156 L 150.128906 193.519531 L 151.003906 193.519531 L 151.003906 194.535156 Z M 150.128906 200.675781 L 150.128906 195.488281 L 151.003906 195.488281 L 151.003906 200.675781 Z M 150.128906 200.675781 "/>
<path style=" stroke:none;fill-rule:nonzero;fill:rgb(0%,0%,0%);fill-opacity:1;" d="M 152.25 200.675781 L 152.25 195.488281 L 153.046875 195.488281 L 153.046875 196.222656 C 153.203125 195.964844 153.414062 195.761719 153.6875 195.613281 C 153.957031 195.457031 154.265625 195.378906 154.609375 195.378906 C 154.992188 195.378906 155.304688 195.457031 155.546875 195.613281 C 155.796875 195.769531 155.972656 195.996094 156.078125 196.285156 C 156.484375 195.683594 157.015625 195.378906 157.671875 195.378906 C 158.191406 195.378906 158.585938 195.519531 158.859375 195.800781 C 159.140625 196.082031 159.28125 196.519531 159.28125 197.113281 L 159.28125 200.675781 L 158.40625 200.675781 L 158.40625 197.410156 C 158.40625 197.058594 158.375 196.800781 158.3125 196.644531 C 158.257812 196.488281 158.15625 196.363281 158 196.269531 C 157.851562 196.175781 157.679688 196.128906 157.484375 196.128906 C 157.117188 196.128906 156.816406 196.253906 156.578125 196.503906 C 156.335938 196.746094 156.21875 197.128906 156.21875 197.660156 L 156.21875 200.675781 L 155.328125 200.675781 L 155.328125 197.300781 C 155.328125 196.917969 155.253906 196.625 155.109375 196.425781 C 154.972656 196.230469 154.742188 196.128906 154.421875 196.128906 C 154.171875 196.128906 153.941406 196.199219 153.734375 196.332031 C 153.523438 196.457031 153.367188 196.644531 153.265625 196.894531 C 153.171875 197.144531 153.125 197.511719 153.125 197.988281 L 153.125 200.675781 Z M 152.25 200.675781 "/>
<path style=" stroke:none;fill-rule:nonzero;fill:rgb(0%,0%,0%);fill-opacity:1;" d="M 163.769531 199.003906 L 164.691406 199.113281 C 164.542969 199.644531 164.273438 200.0625 163.878906 200.363281 C 163.492188 200.65625 163.003906 200.800781 162.410156 200.800781 C 161.648438 200.800781 161.042969 200.566406 160.597656 200.097656 C 160.148438 199.628906 159.925781 198.972656 159.925781 198.128906 C 159.925781 197.253906 160.148438 196.578125 160.597656 196.097656 C 161.054688 195.621094 161.636719 195.378906 162.347656 195.378906 C 163.042969 195.378906 163.613281 195.613281 164.050781 196.082031 C 164.488281 196.550781 164.707031 197.214844 164.707031 198.066406 C 164.707031 198.121094 164.707031 198.199219 164.707031 198.300781 L 160.847656 198.300781 C 160.878906 198.875 161.035156 199.3125 161.316406 199.613281 C 161.605469 199.917969 161.972656 200.066406 162.410156 200.066406 C 162.730469 200.066406 163.007812 199.984375 163.238281 199.816406 C 163.464844 199.652344 163.644531 199.378906 163.769531 199.003906 Z M 160.894531 197.582031 L 163.785156 197.582031 C 163.742188 197.144531 163.632812 196.816406 163.457031 196.597656 C 163.175781 196.265625 162.808594 196.097656 162.363281 196.097656 C 161.957031 196.097656 161.617188 196.234375 161.347656 196.503906 C 161.074219 196.777344 160.925781 197.136719 160.894531 197.582031 Z M 160.894531 197.582031 "/>
<g clip-path="url(#clip1)" clip-rule="nonzero">
<path style=" stroke:none;fill-rule:nonzero;fill:rgb(0%,0%,0%);fill-opacity:1;" d="M 168.210938 202.660156 L 168.210938 193.519531 L 170.164062 193.519531 L 170.164062 194.238281 L 169.101562 194.238281 L 169.101562 201.941406 L 170.164062 201.941406 L 170.164062 202.660156 Z M 168.210938 202.660156 "/>
</g>
<g clip-path="url(#clip2)" clip-rule="nonzero">
<path style=" stroke:none;fill-rule:nonzero;fill:rgb(0%,0%,0%);fill-opacity:1;" d="M 175.160156 195.488281 L 175.160156 200.675781 L 174.378906 200.675781 L 174.378906 200.066406 C 174.210938 200.328125 174.042969 200.503906 173.878906 200.597656 C 173.648438 200.730469 173.382812 200.800781 173.082031 200.800781 C 172.808594 200.800781 172.570312 200.742188 172.363281 200.628906 C 172.207031 200.558594 172.035156 200.402344 171.847656 200.160156 L 171.847656 202.660156 L 170.972656 202.660156 L 170.972656 195.488281 L 171.847656 195.488281 L 171.847656 197.691406 C 171.847656 198.484375 171.886719 199 171.972656 199.238281 C 172.054688 199.480469 172.191406 199.667969 172.378906 199.800781 C 172.566406 199.9375 172.785156 200.003906 173.035156 200.003906 C 173.292969 200.003906 173.527344 199.933594 173.738281 199.785156 C 173.945312 199.640625 174.089844 199.457031 174.175781 199.238281 C 174.257812 199.011719 174.300781 198.5 174.300781 197.707031 L 174.300781 195.488281 Z M 175.160156 195.488281 "/>
</g>
<path style=" stroke:none;fill-rule:nonzero;fill:rgb(0%,0%,0%);fill-opacity:1;" d="M 176.011719 199.128906 L 176.871094 198.988281 C 176.921875 199.34375 177.058594 199.613281 177.277344 199.800781 C 177.503906 199.980469 177.816406 200.066406 178.214844 200.066406 C 178.621094 200.066406 178.921875 199.988281 179.121094 199.832031 C 179.316406 199.667969 179.417969 199.46875 179.417969 199.238281 C 179.417969 199.042969 179.328125 198.886719 179.152344 198.769531 C 179.027344 198.699219 178.722656 198.597656 178.246094 198.472656 C 177.609375 198.316406 177.167969 198.183594 176.917969 198.066406 C 176.667969 197.941406 176.472656 197.777344 176.339844 197.566406 C 176.214844 197.359375 176.152344 197.125 176.152344 196.863281 C 176.152344 196.636719 176.203125 196.421875 176.308594 196.222656 C 176.410156 196.027344 176.558594 195.863281 176.746094 195.738281 C 176.878906 195.636719 177.0625 195.550781 177.292969 195.488281 C 177.53125 195.417969 177.785156 195.378906 178.058594 195.378906 C 178.464844 195.378906 178.816406 195.4375 179.121094 195.550781 C 179.433594 195.667969 179.660156 195.828125 179.808594 196.035156 C 179.964844 196.234375 180.066406 196.5 180.121094 196.832031 L 179.261719 196.941406 C 179.21875 196.683594 179.105469 196.480469 178.917969 196.332031 C 178.730469 196.175781 178.464844 196.097656 178.121094 196.097656 C 177.722656 196.097656 177.4375 196.167969 177.261719 196.300781 C 177.082031 196.425781 176.996094 196.582031 176.996094 196.769531 C 176.996094 196.886719 177.03125 196.984375 177.105469 197.066406 C 177.175781 197.160156 177.292969 197.238281 177.449219 197.300781 C 177.53125 197.332031 177.792969 197.410156 178.230469 197.535156 C 178.84375 197.703125 179.269531 197.839844 179.511719 197.941406 C 179.761719 198.046875 179.953125 198.203125 180.089844 198.410156 C 180.234375 198.609375 180.308594 198.855469 180.308594 199.144531 C 180.308594 199.449219 180.222656 199.730469 180.058594 199.988281 C 179.890625 200.238281 179.644531 200.4375 179.324219 200.582031 C 179 200.726562 178.636719 200.800781 178.230469 200.800781 C 177.550781 200.800781 177.035156 200.660156 176.683594 200.378906 C 176.328125 200.097656 176.105469 199.683594 176.011719 199.128906 Z M 176.011719 199.128906 "/>
<g clip-path="url(#clip3)" clip-rule="nonzero">
<path style=" stroke:none;fill-rule:nonzero;fill:rgb(0%,0%,0%);fill-opacity:1;" d="M 182.605469 202.660156 L 180.667969 202.660156 L 180.667969 201.941406 L 181.730469 201.941406 L 181.730469 194.238281 L 180.667969 194.238281 L 180.667969 193.519531 L 182.605469 193.519531 Z M 182.605469 202.660156 "/>
</g>
<path style=" stroke:none;fill-rule:nonzero;fill:rgb(0%,0%,0%);fill-opacity:1;" d="M 251.347656 185.820312 L 252.269531 185.742188 C 252.332031 186.191406 252.488281 186.53125 252.738281 186.757812 C 252.988281 186.988281 253.289062 187.101562 253.644531 187.101562 C 254.058594 187.101562 254.414062 186.941406 254.707031 186.617188 C 255.007812 186.296875 255.160156 185.875 255.160156 185.351562 C 255.160156 184.851562 255.019531 184.457031 254.738281 184.164062 C 254.457031 183.875 254.085938 183.726562 253.628906 183.726562 C 253.347656 183.726562 253.089844 183.796875 252.863281 183.929688 C 252.632812 184.054688 252.449219 184.21875 252.316406 184.414062 L 251.503906 184.304688 L 252.191406 180.632812 L 255.753906 180.632812 L 255.753906 181.476562 L 252.894531 181.476562 L 252.503906 183.398438 C 252.941406 183.097656 253.394531 182.945312 253.863281 182.945312 C 254.488281 182.945312 255.011719 183.164062 255.441406 183.601562 C 255.867188 184.03125 256.082031 184.585938 256.082031 185.273438 C 256.082031 185.921875 255.894531 186.476562 255.519531 186.945312 C 255.058594 187.53125 254.433594 187.820312 253.644531 187.820312 C 252.988281 187.820312 252.449219 187.640625 252.035156 187.273438 C 251.628906 186.910156 251.398438 186.425781 251.347656 185.820312 Z M 251.347656 185.820312 "/>
<g clip-path="url(#clip4)" clip-rule="nonzero">
<path style=" stroke:none;fill-rule:nonzero;fill:rgb(0%,0%,0%);fill-opacity:1;" d="M 256.667969 184.164062 C 256.667969 183.320312 256.75 182.644531 256.917969 182.132812 C 257.09375 181.613281 257.355469 181.210938 257.699219 180.929688 C 258.042969 180.648438 258.472656 180.507812 258.996094 180.507812 C 259.378906 180.507812 259.714844 180.585938 259.996094 180.742188 C 260.285156 180.898438 260.527344 181.125 260.714844 181.414062 C 260.910156 181.707031 261.0625 182.0625 261.167969 182.476562 C 261.269531 182.894531 261.324219 183.457031 261.324219 184.164062 C 261.324219 185.007812 261.234375 185.691406 261.058594 186.210938 C 260.890625 186.722656 260.636719 187.117188 260.292969 187.398438 C 259.949219 187.679688 259.515625 187.820312 258.996094 187.820312 C 258.308594 187.820312 257.765625 187.570312 257.371094 187.070312 C 256.902344 186.476562 256.667969 185.507812 256.667969 184.164062 Z M 257.558594 184.164062 C 257.558594 185.34375 257.691406 186.128906 257.964844 186.523438 C 258.246094 186.910156 258.589844 187.101562 258.996094 187.101562 C 259.402344 187.101562 259.738281 186.910156 260.011719 186.523438 C 260.292969 186.128906 260.433594 185.34375 260.433594 184.164062 C 260.433594 182.988281 260.292969 182.207031 260.011719 181.820312 C 259.738281 181.4375 259.394531 181.242188 258.980469 181.242188 C 258.582031 181.242188 258.261719 181.410156 258.011719 181.742188 C 257.707031 182.179688 257.558594 182.988281 257.558594 184.164062 Z M 257.558594 184.164062 "/>
</g>
<path style=" stroke:none;fill-rule:nonzero;fill:rgb(0%,0%,0%);fill-opacity:1;" d="M 158.515625 185.800781 L 159.390625 185.691406 C 159.492188 186.183594 159.664062 186.542969 159.90625 186.769531 C 160.144531 186.988281 160.441406 187.097656 160.796875 187.097656 C 161.210938 187.097656 161.5625 186.957031 161.84375 186.675781 C 162.125 186.386719 162.265625 186.027344 162.265625 185.597656 C 162.265625 185.191406 162.132812 184.859375 161.875 184.597656 C 161.613281 184.339844 161.28125 184.207031 160.875 184.207031 C 160.707031 184.207031 160.5 184.238281 160.25 184.300781 L 160.34375 183.535156 C 160.40625 183.535156 160.453125 183.535156 160.484375 183.535156 C 160.859375 183.535156 161.195312 183.441406 161.5 183.253906 C 161.800781 183.058594 161.953125 182.753906 161.953125 182.347656 C 161.953125 182.027344 161.84375 181.761719 161.625 181.550781 C 161.40625 181.332031 161.125 181.222656 160.78125 181.222656 C 160.4375 181.222656 160.148438 181.332031 159.921875 181.550781 C 159.691406 181.761719 159.546875 182.082031 159.484375 182.519531 L 158.609375 182.363281 C 158.710938 181.769531 158.953125 181.3125 159.328125 180.988281 C 159.710938 180.667969 160.1875 180.503906 160.75 180.503906 C 161.144531 180.503906 161.503906 180.589844 161.828125 180.753906 C 162.160156 180.921875 162.410156 181.152344 162.578125 181.441406 C 162.753906 181.734375 162.84375 182.042969 162.84375 182.363281 C 162.84375 182.675781 162.757812 182.957031 162.59375 183.207031 C 162.4375 183.457031 162.191406 183.660156 161.859375 183.816406 C 162.285156 183.910156 162.613281 184.113281 162.84375 184.425781 C 163.082031 184.730469 163.203125 185.113281 163.203125 185.582031 C 163.203125 186.207031 162.972656 186.738281 162.515625 187.175781 C 162.054688 187.605469 161.484375 187.816406 160.796875 187.816406 C 160.160156 187.816406 159.632812 187.628906 159.21875 187.253906 C 158.8125 186.878906 158.578125 186.394531 158.515625 185.800781 Z M 158.515625 185.800781 "/>
<path style=" stroke:none;fill-rule:nonzero;fill:rgb(0%,0%,0%);fill-opacity:1;" d="M 163.835938 184.160156 C 163.835938 183.316406 163.917969 182.640625 164.085938 182.128906 C 164.261719 181.609375 164.523438 181.207031 164.867188 180.925781 C 165.210938 180.644531 165.640625 180.503906 166.164062 180.503906 C 166.546875 180.503906 166.882812 180.582031 167.164062 180.738281 C 167.453125 180.894531 167.695312 181.121094 167.882812 181.410156 C 168.078125 181.703125 168.230469 182.058594 168.335938 182.472656 C 168.4375 182.890625 168.492188 183.453125 168.492188 184.160156 C 168.492188 185.003906 168.402344 185.6875 168.226562 186.207031 C 168.058594 186.71875 167.804688 187.113281 167.460938 187.394531 C 167.117188 187.675781 166.683594 187.816406 166.164062 187.816406 C 165.476562 187.816406 164.933594 187.566406 164.539062 187.066406 C 164.070312 186.472656 163.835938 185.503906 163.835938 184.160156 Z M 164.726562 184.160156 C 164.726562 185.339844 164.859375 186.125 165.132812 186.519531 C 165.414062 186.90625 165.757812 187.097656 166.164062 187.097656 C 166.570312 187.097656 166.90625 186.90625 167.179688 186.519531 C 167.460938 186.125 167.601562 185.339844 167.601562 184.160156 C 167.601562 182.984375 167.460938 182.203125 167.179688 181.816406 C 166.90625 181.433594 166.5625 181.238281 166.148438 181.238281 C 165.75 181.238281 165.429688 181.40625 165.179688 181.738281 C 164.875 182.175781 164.726562 182.984375 164.726562 184.160156 Z M 164.726562 184.160156 "/>
<path style=" stroke:none;fill-rule:nonzero;fill:rgb(0%,0%,0%);fill-opacity:1;" d="M 68.664062 187.695312 L 67.789062 187.695312 L 67.789062 182.101562 C 67.578125 182.300781 67.304688 182.503906 66.960938 182.710938 C 66.617188 182.910156 66.308594 183.054688 66.039062 183.148438 L 66.039062 182.304688 C 66.527344 182.078125 66.953125 181.800781 67.320312 181.476562 C 67.695312 181.144531 67.953125 180.820312 68.101562 180.507812 L 68.664062 180.507812 Z M 68.664062 187.695312 "/>
<path style=" stroke:none;fill-rule:nonzero;fill:rgb(0%,0%,0%);fill-opacity:1;" d="M 70.6875 184.164062 C 70.6875 183.320312 70.769531 182.644531 70.9375 182.132812 C 71.113281 181.613281 71.375 181.210938 71.71875 180.929688 C 72.0625 180.648438 72.492188 180.507812 73.015625 180.507812 C 73.398438 180.507812 73.734375 180.585938 74.015625 180.742188 C 74.304688 180.898438 74.546875 181.125 74.734375 181.414062 C 74.929688 181.707031 75.082031 182.0625 75.1875 182.476562 C 75.289062 182.894531 75.34375 183.457031 75.34375 184.164062 C 75.34375 185.007812 75.253906 185.691406 75.078125 186.210938 C 74.910156 186.722656 74.65625 187.117188 74.3125 187.398438 C 73.96875 187.679688 73.535156 187.820312 73.015625 187.820312 C 72.328125 187.820312 71.785156 187.570312 71.390625 187.070312 C 70.921875 186.476562 70.6875 185.507812 70.6875 184.164062 Z M 71.578125 184.164062 C 71.578125 185.34375 71.710938 186.128906 71.984375 186.523438 C 72.265625 186.910156 72.609375 187.101562 73.015625 187.101562 C 73.421875 187.101562 73.757812 186.910156 74.03125 186.523438 C 74.3125 186.128906 74.453125 185.34375 74.453125 184.164062 C 74.453125 182.988281 74.3125 182.207031 74.03125 181.820312 C 73.757812 181.4375 73.414062 181.242188 73 181.242188 C 72.601562 181.242188 72.28125 181.410156 72.03125 181.742188 C 71.726562 182.179688 71.578125 182.988281 71.578125 184.164062 Z M 71.578125 184.164062 "/>
<path style=" stroke:none;fill-rule:nonzero;fill:rgb(0%,0%,0%);fill-opacity:1;" d="M 116.765625 186.851562 L 116.765625 187.695312 L 112.03125 187.695312 C 112.03125 187.488281 112.066406 187.285156 112.140625 187.085938 C 112.265625 186.765625 112.457031 186.445312 112.71875 186.132812 C 112.976562 185.820312 113.363281 185.460938 113.875 185.054688 C 114.644531 184.410156 115.164062 183.90625 115.4375 183.539062 C 115.71875 183.164062 115.859375 182.8125 115.859375 182.476562 C 115.859375 182.125 115.734375 181.832031 115.484375 181.601562 C 115.234375 181.363281 114.910156 181.242188 114.515625 181.242188 C 114.085938 181.242188 113.742188 181.367188 113.484375 181.617188 C 113.234375 181.867188 113.109375 182.21875 113.109375 182.664062 L 112.203125 182.570312 C 112.265625 181.90625 112.492188 181.394531 112.890625 181.039062 C 113.296875 180.6875 113.84375 180.507812 114.53125 180.507812 C 115.21875 180.507812 115.757812 180.703125 116.15625 181.085938 C 116.5625 181.460938 116.765625 181.929688 116.765625 182.492188 C 116.765625 182.785156 116.703125 183.070312 116.578125 183.351562 C 116.460938 183.625 116.269531 183.914062 116 184.226562 C 115.726562 184.53125 115.273438 184.945312 114.640625 185.476562 C 114.117188 185.914062 113.78125 186.21875 113.625 186.382812 C 113.476562 186.539062 113.359375 186.695312 113.265625 186.851562 Z M 116.765625 186.851562 "/>
<path style=" stroke:none;fill-rule:nonzero;fill:rgb(0%,0%,0%);fill-opacity:1;" d="M 117.480469 184.164062 C 117.480469 183.320312 117.5625 182.644531 117.730469 182.132812 C 117.90625 181.613281 118.167969 181.210938 118.511719 180.929688 C 118.855469 180.648438 119.285156 180.507812 119.808594 180.507812 C 120.191406 180.507812 120.527344 180.585938 120.808594 180.742188 C 121.097656 180.898438 121.339844 181.125 121.527344 181.414062 C 121.722656 181.707031 121.875 182.0625 121.980469 182.476562 C 122.082031 182.894531 122.136719 183.457031 122.136719 184.164062 C 122.136719 185.007812 122.046875 185.691406 121.871094 186.210938 C 121.703125 186.722656 121.449219 187.117188 121.105469 187.398438 C 120.761719 187.679688 120.328125 187.820312 119.808594 187.820312 C 119.121094 187.820312 118.578125 187.570312 118.183594 187.070312 C 117.714844 186.476562 117.480469 185.507812 117.480469 184.164062 Z M 118.371094 184.164062 C 118.371094 185.34375 118.503906 186.128906 118.777344 186.523438 C 119.058594 186.910156 119.402344 187.101562 119.808594 187.101562 C 120.214844 187.101562 120.550781 186.910156 120.824219 186.523438 C 121.105469 186.128906 121.246094 185.34375 121.246094 184.164062 C 121.246094 182.988281 121.105469 182.207031 120.824219 181.820312 C 120.550781 181.4375 120.207031 181.242188 119.792969 181.242188 C 119.394531 181.242188 119.074219 181.410156 118.824219 181.742188 C 118.519531 182.179688 118.371094 182.988281 118.371094 184.164062 Z M 118.371094 184.164062 "/>
<path style=" stroke:none;fill-rule:nonzero;fill:rgb(0%,0%,0%);fill-opacity:1;" d="M 207.882812 187.695312 L 207.882812 185.976562 L 204.773438 185.976562 L 204.773438 185.179688 L 208.039062 180.539062 L 208.757812 180.539062 L 208.757812 185.179688 L 209.726562 185.179688 L 209.726562 185.976562 L 208.757812 185.976562 L 208.757812 187.695312 Z M 207.882812 185.179688 L 207.882812 181.945312 L 205.632812 185.179688 Z M 207.882812 185.179688 "/>
<path style=" stroke:none;fill-rule:nonzero;fill:rgb(0%,0%,0%);fill-opacity:1;" d="M 210.390625 184.164062 C 210.390625 183.320312 210.472656 182.644531 210.640625 182.132812 C 210.816406 181.613281 211.078125 181.210938 211.421875 180.929688 C 211.765625 180.648438 212.195312 180.507812 212.71875 180.507812 C 213.101562 180.507812 213.4375 180.585938 213.71875 180.742188 C 214.007812 180.898438 214.25 181.125 214.4375 181.414062 C 214.632812 181.707031 214.785156 182.0625 214.890625 182.476562 C 214.992188 182.894531 215.046875 183.457031 215.046875 184.164062 C 215.046875 185.007812 214.957031 185.691406 214.78125 186.210938 C 214.613281 186.722656 214.359375 187.117188 214.015625 187.398438 C 213.671875 187.679688 213.238281 187.820312 212.71875 187.820312 C 212.03125 187.820312 211.488281 187.570312 211.09375 187.070312 C 210.625 186.476562 210.390625 185.507812 210.390625 184.164062 Z M 211.28125 184.164062 C 211.28125 185.34375 211.414062 186.128906 211.6875 186.523438 C 211.96875 186.910156 212.3125 187.101562 212.71875 187.101562 C 213.125 187.101562 213.460938 186.910156 213.734375 186.523438 C 214.015625 186.128906 214.15625 185.34375 214.15625 184.164062 C 214.15625 182.988281 214.015625 182.207031 213.734375 181.820312 C 213.460938 181.4375 213.117188 181.242188 212.703125 181.242188 C 212.304688 181.242188 211.984375 181.410156 211.734375 181.742188 C 211.429688 182.179688 211.28125 182.988281 211.28125 184.164062 Z M 211.28125 184.164062 "/>
<path style=" stroke:none;fill-rule:nonzero;fill:rgb(0%,0%,0%);fill-opacity:1;" d="M 21.507812 184.164062 C 21.507812 183.320312 21.589844 182.644531 21.757812 182.132812 C 21.933594 181.613281 22.195312 181.210938 22.539062 180.929688 C 22.882812 180.648438 23.3125 180.507812 23.835938 180.507812 C 24.21875 180.507812 24.554688 180.585938 24.835938 180.742188 C 25.125 180.898438 25.367188 181.125 25.554688 181.414062 C 25.75 181.707031 25.902344 182.0625 26.007812 182.476562 C 26.109375 182.894531 26.164062 183.457031 26.164062 184.164062 C 26.164062 185.007812 26.074219 185.691406 25.898438 186.210938 C 25.730469 186.722656 25.476562 187.117188 25.132812 187.398438 C 24.789062 187.679688 24.355469 187.820312 23.835938 187.820312 C 23.148438 187.820312 22.605469 187.570312 22.210938 187.070312 C 21.742188 186.476562 21.507812 185.507812 21.507812 184.164062 Z M 22.398438 184.164062 C 22.398438 185.34375 22.53125 186.128906 22.804688 186.523438 C 23.085938 186.910156 23.429688 187.101562 23.835938 187.101562 C 24.242188 187.101562 24.578125 186.910156 24.851562 186.523438 C 25.132812 186.128906 25.273438 185.34375 25.273438 184.164062 C 25.273438 182.988281 25.132812 182.207031 24.851562 181.820312 C 24.578125 181.4375 24.234375 181.242188 23.820312 181.242188 C 23.421875 181.242188 23.101562 181.410156 22.851562 181.742188 C 22.546875 182.179688 22.398438 182.988281 22.398438 184.164062 Z M 22.398438 184.164062 "/>
<path style="fill:none;stroke-width:0.8;stroke-linecap:butt;stroke-linejoin:round;stroke:rgb(0%,0%,0%);stroke-opacity:1;stroke-miterlimit:10;" d="M 198.785156 112.226562 L 231.449219 112.226562 L 232.03125 66.144531 L 256.53125 66.144531 "/>
<path style="fill:none;stroke-width:0.8;stroke-linecap:butt;stroke-linejoin:round;stroke:rgb(0%,0%,0%);stroke-opacity:1;stroke-miterlimit:10;" d="M 141.035156 66.144531 L 179.535156 66.144531 L 180.117188 112.226562 L 198.785156 112.226562 "/>
<path style="fill:none;stroke-width:0.8;stroke-linecap:butt;stroke-linejoin:round;stroke:rgb(0%,0%,0%);stroke-opacity:1;stroke-miterlimit:10;" d="M 83.289062 112.226562 L 127.621094 112.226562 L 128.203125 66.144531 L 141.035156 66.144531 "/>
<path style="fill:none;stroke-width:0.8;stroke-linecap:butt;stroke-linejoin:round;stroke:rgb(0%,0%,0%);stroke-opacity:1;stroke-miterlimit:10;" d="M 26.125 66.144531 L 75.707031 66.144531 L 75.707031 112.226562 L 83.289062 112.226562 "/>
<path style="fill:none;stroke-width:0.8;stroke-linecap:butt;stroke-linejoin:round;stroke:rgb(0%,0%,0%);stroke-opacity:1;stroke-miterlimit:10;" d="M 23.792969 112.226562 L 23.792969 66.144531 L 26.125 66.144531 "/>
<path style=" stroke:none;fill-rule:nonzero;fill:rgb(0%,0%,0%);fill-opacity:1;" d="M 15.722656 112.253906 C 15.722656 111.410156 15.804688 110.734375 15.972656 110.222656 C 16.148438 109.703125 16.410156 109.300781 16.753906 109.019531 C 17.097656 108.738281 17.527344 108.597656 18.050781 108.597656 C 18.433594 108.597656 18.769531 108.675781 19.050781 108.832031 C 19.339844 108.988281 19.582031 109.214844 19.769531 109.503906 C 19.964844 109.796875 20.117188 110.152344 20.222656 110.566406 C 20.324219 110.984375 20.378906 111.546875 20.378906 112.253906 C 20.378906 113.097656 20.289062 113.78125 20.113281 114.300781 C 19.945312 114.8125 19.691406 115.207031 19.347656 115.488281 C 19.003906 115.769531 18.570312 115.910156 18.050781 115.910156 C 17.363281 115.910156 16.820312 115.660156 16.425781 115.160156 C 15.957031 114.566406 15.722656 113.597656 15.722656 112.253906 Z M 16.613281 112.253906 C 16.613281 113.433594 16.746094 114.21875 17.019531 114.613281 C 17.300781 115 17.644531 115.191406 18.050781 115.191406 C 18.457031 115.191406 18.792969 115 19.066406 114.613281 C 19.347656 114.21875 19.488281 113.433594 19.488281 112.253906 C 19.488281 111.078125 19.347656 110.296875 19.066406 109.910156 C 18.792969 109.527344 18.449219 109.332031 18.035156 109.332031 C 17.636719 109.332031 17.316406 109.5 17.066406 109.832031 C 16.761719 110.269531 16.613281 111.078125 16.613281 112.253906 Z M 16.613281 112.253906 "/>
<path style=" stroke:none;fill-rule:nonzero;fill:rgb(0%,0%,0%);fill-opacity:1;" d="M 18.804688 69.996094 L 17.929688 69.996094 L 17.929688 64.402344 C 17.71875 64.601562 17.445312 64.804688 17.101562 65.011719 C 16.757812 65.210938 16.449219 65.355469 16.179688 65.449219 L 16.179688 64.605469 C 16.667969 64.378906 17.09375 64.101562 17.460938 63.777344 C 17.835938 63.445312 18.09375 63.121094 18.242188 62.808594 L 18.804688 62.808594 Z M 18.804688 69.996094 "/>
<path style="fill:none;stroke-width:1.2;stroke-linecap:butt;stroke-linejoin:round;stroke:rgb(0%,0%,0%);stroke-opacity:1;stroke-miterlimit:10;" d="M 23.792969 0.601562 L 255.945312 0.601562 "/>
<path style="fill:none;stroke-width:1.2;stroke-linecap:butt;stroke-linejoin:round;stroke:rgb(0%,0%,0%);stroke-opacity:1;stroke-miterlimit:10;" d="M 23.792969 55.429688 L 255.945312 55.429688 "/>
<path style="fill:none;stroke-width:1.2;stroke-linecap:butt;stroke-linejoin:round;stroke:rgb(0%,0%,0%);stroke-opacity:1;stroke-miterlimit:10;" d="M 255.945312 55.429688 L 255.945312 0.601562 "/>
<path style="fill:none;stroke-width:1.2;stroke-linecap:butt;stroke-linejoin:round;stroke:rgb(0%,0%,0%);stroke-opacity:1;stroke-miterlimit:10;" d="M 23.792969 55.429688 L 23.792969 0.601562 "/>
<path style="fill:none;stroke-width:1.2;stroke-linecap:butt;stroke-linejoin:round;stroke:rgb(0%,0%,0%);stroke-opacity:1;stroke-miterlimit:10;" d="M 23.792969 55.429688 L 255.945312 55.429688 "/>
<path style="fill:none;stroke-width:1.2;stroke-linecap:butt;stroke-linejoin:round;stroke:rgb(0%,0%,0%);stroke-opacity:1;stroke-miterlimit:10;" d="M 23.792969 55.429688 L 23.792969 0.601562 "/>
<path style="fill:none;stroke-width:1.2;stroke-linecap:butt;stroke-linejoin:round;stroke:rgb(0%,0%,0%);stroke-opacity:1;stroke-miterlimit:10;" d="M 23.792969 55.429688 L 23.792969 53.097656 "/>
<path style="fill:none;stroke-width:1.2;stroke-linecap:butt;stroke-linejoin:round;stroke:rgb(0%,0%,0%);stroke-opacity:1;stroke-miterlimit:10;" d="M 23.792969 1.183594 L 23.792969 2.933594 "/>
<path style="fill:none;stroke-width:1.2;stroke-linecap:butt;stroke-linejoin:round;stroke:rgb(0%,0%,0%);stroke-opacity:1;stroke-miterlimit:10;" d="M 69.875 55.429688 L 69.875 50.628906 "/>
<path style="fill:none;stroke-width:1.2;stroke-linecap:butt;stroke-linejoin:round;stroke:rgb(0%,0%,0%);stroke-opacity:1;stroke-miterlimit:10;" d="M 69.875 0.457031 L 69.875 5.257812 "/>
<path style="fill:none;stroke-width:1.2;stroke-linecap:butt;stroke-linejoin:round;stroke:rgb(0%,0%,0%);stroke-opacity:1;stroke-miterlimit:10;" d="M 116.539062 55.429688 L 116.539062 50.628906 "/>
<path style="fill:none;stroke-width:1.2;stroke-linecap:butt;stroke-linejoin:round;stroke:rgb(0%,0%,0%);stroke-opacity:1;stroke-miterlimit:10;" d="M 116.539062 0.457031 L 116.539062 5.257812 "/>
<path style="fill:none;stroke-width:1.2;stroke-linecap:butt;stroke-linejoin:round;stroke:rgb(0%,0%,0%);stroke-opacity:1;stroke-miterlimit:10;" d="M 162.617188 55.429688 L 162.617188 50.628906 "/>
<path style="fill:none;stroke-width:1.2;stroke-linecap:butt;stroke-linejoin:round;stroke:rgb(0%,0%,0%);stroke-opacity:1;stroke-miterlimit:10;" d="M 162.617188 0.457031 L 162.617188 5.257812 "/>
<path style="fill:none;stroke-width:1.2;stroke-linecap:butt;stroke-linejoin:round;stroke:rgb(0%,0%,0%);stroke-opacity:1;stroke-miterlimit:10;" d="M 209.28125 55.429688 L 209.28125 50.628906 "/>
<path style="fill:none;stroke-width:1.2;stroke-linecap:butt;stroke-linejoin:round;stroke:rgb(0%,0%,0%);stroke-opacity:1;stroke-miterlimit:10;" d="M 209.28125 0.457031 L 209.28125 5.257812 "/>
<path style="fill:none;stroke-width:1.2;stroke-linecap:butt;stroke-linejoin:round;stroke:rgb(0%,0%,0%);stroke-opacity:1;stroke-miterlimit:10;" d="M 255.945312 55.429688 L 255.945312 53.097656 "/>
<path style="fill:none;stroke-width:1.2;stroke-linecap:butt;stroke-linejoin:round;stroke:rgb(0%,0%,0%);stroke-opacity:1;stroke-miterlimit:10;" d="M 255.945312 1.183594 L 255.945312 2.933594 "/>
<path style="fill:none;stroke-width:1.2;stroke-linecap:butt;stroke-linejoin:round;stroke:rgb(0%,0%,0%);stroke-opacity:1;stroke-miterlimit:10;" d="M 23.792969 50.765625 L 28.59375 50.765625 "/>
<path style="fill:none;stroke-width:1.2;stroke-linecap:butt;stroke-linejoin:round;stroke:rgb(0%,0%,0%);stroke-opacity:1;stroke-miterlimit:10;" d="M 255.863281 50.765625 L 251.0625 50.765625 "/>
<path style="fill:none;stroke-width:1.2;stroke-linecap:butt;stroke-linejoin:round;stroke:rgb(0%,0%,0%);stroke-opacity:1;stroke-miterlimit:10;" d="M 23.792969 28.015625 L 28.59375 28.015625 "/>
<path style="fill:none;stroke-width:1.2;stroke-linecap:butt;stroke-linejoin:round;stroke:rgb(0%,0%,0%);stroke-opacity:1;stroke-miterlimit:10;" d="M 255.863281 28.015625 L 251.0625 28.015625 "/>
<path style="fill:none;stroke-width:1.2;stroke-linecap:butt;stroke-linejoin:round;stroke:rgb(0%,0%,0%);stroke-opacity:1;stroke-miterlimit:10;" d="M 23.792969 5.265625 L 28.59375 5.265625 "/>
<path style="fill:none;stroke-width:1.2;stroke-linecap:butt;stroke-linejoin:round;stroke:rgb(0%,0%,0%);stroke-opacity:1;stroke-miterlimit:10;" d="M 255.863281 5.265625 L 251.0625 5.265625 "/>
<path style="fill:none;stroke-width:1.2;stroke-linecap:butt;stroke-linejoin:round;stroke:rgb(0%,0%,0%);stroke-opacity:1;stroke-miterlimit:10;" d="M 23.792969 0.601562 L 255.945312 0.601562 "/>
<path style="fill:none;stroke-width:1.2;stroke-linecap:butt;stroke-linejoin:round;stroke:rgb(0%,0%,0%);stroke-opacity:1;stroke-miterlimit:10;" d="M 23.792969 55.429688 L 255.945312 55.429688 "/>
<path style="fill:none;stroke-width:1.2;stroke-linecap:butt;stroke-linejoin:round;stroke:rgb(0%,0%,0%);stroke-opacity:1;stroke-miterlimit:10;" d="M 255.945312 55.429688 L 255.945312 0.601562 "/>
<path style="fill:none;stroke-width:1.2;stroke-linecap:butt;stroke-linejoin:round;stroke:rgb(0%,0%,0%);stroke-opacity:1;stroke-miterlimit:10;" d="M 23.792969 55.429688 L 23.792969 0.601562 "/>
<path style="fill:none;stroke-width:0.8;stroke-linecap:butt;stroke-linejoin:round;stroke:rgb(0%,0%,0%);stroke-opacity:1;stroke-miterlimit:10;" d="M 199.367188 50.765625 L 205.78125 50.765625 L 205.78125 5.265625 L 220.367188 5.265625 L 220.949219 50.765625 L 231.449219 50.765625 L 232.03125 5.265625 L 244.863281 5.265625 L 245.449219 50.765625 L 256.53125 50.765625 "/>
<path style="fill:none;stroke-width:0.8;stroke-linecap:butt;stroke-linejoin:round;stroke:rgb(0%,0%,0%);stroke-opacity:1;stroke-miterlimit:10;" d="M 141.621094 5.265625 L 142.785156 5.265625 L 143.371094 50.765625 L 153.867188 50.765625 L 154.453125 5.265625 L 168.453125 5.265625 L 169.035156 50.765625 L 180.117188 50.765625 L 180.703125 5.265625 L 194.117188 5.265625 L 194.699219 50.765625 L 199.367188 50.765625 "/>
<path style="fill:none;stroke-width:0.8;stroke-linecap:butt;stroke-linejoin:round;stroke:rgb(0%,0%,0%);stroke-opacity:1;stroke-miterlimit:10;" d="M 85.039062 5.265625 L 92.039062 5.265625 L 92.039062 50.765625 L 102.539062 50.765625 L 103.121094 5.265625 L 116.539062 5.265625 L 117.121094 50.765625 L 128.203125 50.765625 L 128.203125 5.265625 L 141.621094 5.265625 "/>
<path style="fill:none;stroke-width:0.8;stroke-linecap:butt;stroke-linejoin:round;stroke:rgb(0%,0%,0%);stroke-opacity:1;stroke-miterlimit:10;" d="M 27.292969 5.265625 L 40.125 5.265625 L 40.707031 50.765625 L 51.207031 50.765625 L 51.792969 5.265625 L 65.789062 5.265625 L 66.375 50.765625 L 76.875 50.765625 L 77.457031 5.265625 L 85.039062 5.265625 "/>
<path style="fill:none;stroke-width:0.8;stroke-linecap:butt;stroke-linejoin:round;stroke:rgb(0%,0%,0%);stroke-opacity:1;stroke-miterlimit:10;" d="M 23.792969 50.765625 L 24.375 5.265625 L 27.292969 5.265625 "/>
<path style=" stroke:none;fill-rule:nonzero;fill:rgb(0%,0%,0%);fill-opacity:1;" d="M 16.933594 50.835938 C 16.933594 49.992188 17.015625 49.316406 17.183594 48.804688 C 17.359375 48.285156 17.621094 47.882812 17.964844 47.601562 C 18.308594 47.320312 18.738281 47.179688 19.261719 47.179688 C 19.644531 47.179688 19.980469 47.257812 20.261719 47.414062 C 20.550781 47.570312 20.792969 47.796875 20.980469 48.085938 C 21.175781 48.378906 21.328125 48.734375 21.433594 49.148438 C 21.535156 49.566406 21.589844 50.128906 21.589844 50.835938 C 21.589844 51.679688 21.5 52.363281 21.324219 52.882812 C 21.15625 53.394531 20.902344 53.789062 20.558594 54.070312 C 20.214844 54.351562 19.78125 54.492188 19.261719 54.492188 C 18.574219 54.492188 18.03125 54.242188 17.636719 53.742188 C 17.167969 53.148438 16.933594 52.179688 16.933594 50.835938 Z M 17.824219 50.835938 C 17.824219 52.015625 17.957031 52.800781 18.230469 53.195312 C 18.511719 53.582031 18.855469 53.773438 19.261719 53.773438 C 19.667969 53.773438 20.003906 53.582031 20.277344 53.195312 C 20.558594 52.800781 20.699219 52.015625 20.699219 50.835938 C 20.699219 49.660156 20.558594 48.878906 20.277344 48.492188 C 20.003906 48.109375 19.660156 47.914062 19.246094 47.914062 C 18.847656 47.914062 18.527344 48.082031 18.277344 48.414062 C 17.972656 48.851562 17.824219 49.660156 17.824219 50.835938 Z M 17.824219 50.835938 "/>
<path style=" stroke:none;fill-rule:nonzero;fill:rgb(0%,0%,0%);fill-opacity:1;" d="M 20.019531 8.582031 L 19.144531 8.582031 L 19.144531 2.988281 C 18.933594 3.1875 18.660156 3.390625 18.316406 3.597656 C 17.972656 3.796875 17.664062 3.941406 17.394531 4.035156 L 17.394531 3.191406 C 17.882812 2.964844 18.308594 2.6875 18.675781 2.363281 C 19.050781 2.03125 19.308594 1.707031 19.457031 1.394531 L 20.019531 1.394531 Z M 20.019531 8.582031 "/>
<path style=" stroke:none;fill-rule:nonzero;fill:rgb(0%,0%,0%);fill-opacity:1;" d="M 7.007812 111.71875 L -0.148438 111.71875 L -0.148438 109.015625 C -0.148438 108.539062 -0.125 108.171875 -0.0859375 107.921875 C -0.0234375 107.570312 0.09375 107.277344 0.257812 107.046875 C 0.414062 106.808594 0.644531 106.617188 0.945312 106.46875 C 1.238281 106.324219 1.5625 106.25 1.914062 106.25 C 2.53125 106.25 3.050781 106.445312 3.476562 106.828125 C 3.894531 107.214844 4.101562 107.914062 4.101562 108.921875 L 4.101562 110.765625 L 7.007812 110.765625 Z M 3.257812 110.765625 L 3.257812 108.921875 C 3.257812 108.308594 3.144531 107.871094 2.914062 107.609375 C 2.6875 107.351562 2.363281 107.21875 1.945312 107.21875 C 1.644531 107.21875 1.390625 107.296875 1.179688 107.453125 C 0.972656 107.601562 0.832031 107.796875 0.757812 108.046875 C 0.71875 108.214844 0.695312 108.511719 0.695312 108.9375 L 0.695312 110.765625 Z M 3.257812 110.765625 "/>
<path style=" stroke:none;fill-rule:nonzero;fill:rgb(0%,0%,0%);fill-opacity:1;" d="M 7.007812 104.085938 L -0.148438 105.976562 L -0.148438 105.007812 L 4.539062 103.914062 C 5.03125 103.800781 5.519531 103.703125 6.007812 103.617188 C 5.238281 103.429688 4.796875 103.320312 4.679688 103.289062 L -0.148438 101.929688 L -0.148438 100.789062 L 3.476562 99.757812 C 4.375 99.507812 5.21875 99.328125 6.007812 99.210938 C 5.550781 99.117188 5.03125 99 4.445312 98.851562 L -0.148438 97.726562 L -0.148438 96.773438 L 7.007812 98.742188 L 7.007812 99.648438 L 1.554688 101.164062 C 1.097656 101.289062 0.816406 101.363281 0.710938 101.382812 C 1.046875 101.457031 1.328125 101.53125 1.554688 101.601562 L 7.007812 103.117188 Z M 7.007812 104.085938 "/>
<path style=" stroke:none;fill-rule:nonzero;fill:rgb(0%,0%,0%);fill-opacity:1;" d="M 7.007812 96.332031 L -0.148438 96.332031 L -0.148438 94.910156 L 4.914062 93.222656 C 5.394531 93.066406 5.75 92.953125 5.976562 92.878906 C 5.71875 92.796875 5.335938 92.671875 4.835938 92.503906 L -0.148438 90.785156 L -0.148438 89.503906 L 7.007812 89.503906 L 7.007812 90.425781 L 1.023438 90.425781 L 7.007812 92.503906 L 7.007812 93.363281 L 0.914062 95.425781 L 7.007812 95.425781 Z M 7.007812 96.332031 "/>
<path style=" stroke:none;fill-rule:nonzero;fill:rgb(0%,0%,0%);fill-opacity:1;" d="M 3.523438 85.972656 C 2.335938 85.972656 1.410156 85.65625 0.742188 85.019531 C 0.0664062 84.386719 -0.273438 83.5625 -0.273438 82.550781 C -0.273438 81.886719 -0.117188 81.285156 0.195312 80.753906 C 0.507812 80.222656 0.953125 79.824219 1.523438 79.550781 C 2.085938 79.269531 2.726562 79.128906 3.445312 79.128906 C 4.164062 79.128906 4.8125 79.277344 5.382812 79.566406 C 5.957031 79.859375 6.394531 80.277344 6.695312 80.816406 C 6.988281 81.347656 7.132812 81.925781 7.132812 82.550781 C 7.132812 83.230469 6.972656 83.832031 6.648438 84.363281 C 6.316406 84.894531 5.867188 85.296875 5.304688 85.566406 C 4.742188 85.839844 4.148438 85.972656 3.523438 85.972656 Z M 3.539062 85.003906 C 4.40625 85.003906 5.085938 84.769531 5.585938 84.300781 C 6.078125 83.832031 6.320312 83.25 6.320312 82.550781 C 6.320312 81.84375 6.070312 81.261719 5.570312 80.800781 C 5.070312 80.332031 4.359375 80.097656 3.429688 80.097656 C 2.847656 80.097656 2.34375 80.199219 1.914062 80.394531 C 1.476562 80.59375 1.140625 80.886719 0.898438 81.269531 C 0.660156 81.644531 0.539062 82.066406 0.539062 82.535156 C 0.539062 83.214844 0.769531 83.796875 1.226562 84.285156 C 1.6875 84.765625 2.457031 85.003906 3.539062 85.003906 Z M 3.539062 85.003906 "/>
<path style=" stroke:none;fill-rule:nonzero;fill:rgb(0%,0%,0%);fill-opacity:1;" d="M -0.148438 73.558594 L -0.148438 72.605469 L 3.992188 72.605469 C 4.710938 72.605469 5.285156 72.691406 5.710938 72.855469 C 6.128906 73.023438 6.472656 73.320312 6.742188 73.746094 C 7.003906 74.164062 7.132812 74.714844 7.132812 75.402344 C 7.132812 76.082031 7.015625 76.632812 6.789062 77.058594 C 6.550781 77.488281 6.210938 77.792969 5.773438 77.980469 C 5.335938 78.160156 4.742188 78.246094 3.992188 78.246094 L -0.148438 78.246094 L -0.148438 77.292969 L 3.976562 77.292969 C 4.601562 77.292969 5.0625 77.238281 5.351562 77.121094 C 5.644531 77.007812 5.875 76.808594 6.039062 76.527344 C 6.195312 76.246094 6.273438 75.902344 6.273438 75.496094 C 6.273438 74.800781 6.117188 74.304688 5.804688 74.011719 C 5.484375 73.710938 4.875 73.558594 3.976562 73.558594 Z M -0.148438 73.558594 "/>
<path style=" stroke:none;fill-rule:nonzero;fill:rgb(0%,0%,0%);fill-opacity:1;" d="M 7.007812 69.523438 L 0.695312 69.523438 L 0.695312 71.882812 L -0.148438 71.882812 L -0.148438 66.210938 L 0.695312 66.210938 L 0.695312 68.570312 L 7.007812 68.570312 Z M 7.007812 69.523438 "/>
<path style=" stroke:none;fill-rule:nonzero;fill:rgb(0%,0%,0%);fill-opacity:1;" d="M 7.15625 44.734375 L 0 44.734375 L 0 42.03125 C 0 41.554688 0.0234375 41.1875 0.0625 40.9375 C 0.125 40.585938 0.242188 40.292969 0.40625 40.0625 C 0.5625 39.824219 0.792969 39.632812 1.09375 39.484375 C 1.386719 39.339844 1.710938 39.265625 2.0625 39.265625 C 2.679688 39.265625 3.199219 39.460938 3.625 39.84375 C 4.042969 40.230469 4.25 40.929688 4.25 41.9375 L 4.25 43.78125 L 7.15625 43.78125 Z M 3.40625 43.78125 L 3.40625 41.9375 C 3.40625 41.324219 3.292969 40.886719 3.0625 40.625 C 2.835938 40.367188 2.511719 40.234375 2.09375 40.234375 C 1.792969 40.234375 1.539062 40.3125 1.328125 40.46875 C 1.121094 40.617188 0.980469 40.8125 0.90625 41.0625 C 0.867188 41.230469 0.84375 41.527344 0.84375 41.953125 L 0.84375 43.78125 Z M 3.40625 43.78125 "/>
<path style=" stroke:none;fill-rule:nonzero;fill:rgb(0%,0%,0%);fill-opacity:1;" d="M 7.15625 37.097656 L 0 38.988281 L 0 38.019531 L 4.6875 36.925781 C 5.179688 36.8125 5.667969 36.714844 6.15625 36.628906 C 5.386719 36.441406 4.945312 36.332031 4.828125 36.300781 L 0 34.941406 L 0 33.800781 L 3.625 32.769531 C 4.523438 32.519531 5.367188 32.339844 6.15625 32.222656 C 5.699219 32.128906 5.179688 32.011719 4.59375 31.863281 L 0 30.738281 L 0 29.785156 L 7.15625 31.753906 L 7.15625 32.660156 L 1.703125 34.175781 C 1.246094 34.300781 0.964844 34.375 0.859375 34.394531 C 1.195312 34.46875 1.476562 34.542969 1.703125 34.613281 L 7.15625 36.128906 Z M 7.15625 37.097656 "/>
<path style=" stroke:none;fill-rule:nonzero;fill:rgb(0%,0%,0%);fill-opacity:1;" d="M 7.15625 29.347656 L 0 29.347656 L 0 27.925781 L 5.0625 26.238281 C 5.542969 26.082031 5.898438 25.96875 6.125 25.894531 C 5.867188 25.8125 5.484375 25.6875 4.984375 25.519531 L 0 23.800781 L 0 22.519531 L 7.15625 22.519531 L 7.15625 23.441406 L 1.171875 23.441406 L 7.15625 25.519531 L 7.15625 26.378906 L 1.0625 28.441406 L 7.15625 28.441406 Z M 7.15625 29.347656 "/>
<path style=" stroke:none;fill-rule:nonzero;fill:rgb(0%,0%,0%);fill-opacity:1;" d="M 0 17.597656 L 7.15625 17.597656 L 7.15625 18.535156 L 0 18.535156 Z M 0 17.597656 "/>
<path style=" stroke:none;fill-rule:nonzero;fill:rgb(0%,0%,0%);fill-opacity:1;" d="M 7.15625 16.054688 L 0 16.054688 L 0 15.085938 L 5.625 11.320312 L 0 11.320312 L 0 10.414062 L 7.15625 10.414062 L 7.15625 11.382812 L 1.53125 15.148438 L 7.15625 15.148438 Z M 7.15625 16.054688 "/>
<path style=" stroke:none;fill-rule:nonzero;fill:rgb(0%,0%,0%);fill-opacity:1;" d="M -0.195312 161.382812 L -0.195312 160.429688 L 3.945312 160.429688 C 4.664062 160.429688 5.238281 160.515625 5.664062 160.679688 C 6.082031 160.847656 6.425781 161.144531 6.695312 161.570312 C 6.957031 161.988281 7.085938 162.539062 7.085938 163.226562 C 7.085938 163.90625 6.96875 164.457031 6.742188 164.882812 C 6.503906 165.3125 6.164062 165.617188 5.726562 165.804688 C 5.289062 165.984375 4.695312 166.070312 3.945312 166.070312 L -0.195312 166.070312 L -0.195312 165.117188 L 3.929688 165.117188 C 4.554688 165.117188 5.015625 165.0625 5.304688 164.945312 C 5.597656 164.832031 5.828125 164.632812 5.992188 164.351562 C 6.148438 164.070312 6.226562 163.726562 6.226562 163.320312 C 6.226562 162.625 6.070312 162.128906 5.757812 161.835938 C 5.4375 161.535156 4.828125 161.382812 3.929688 161.382812 Z M -0.195312 161.382812 "/>
<path style=" stroke:none;fill-rule:nonzero;fill:rgb(0%,0%,0%);fill-opacity:1;" d="M 6.960938 159.175781 L -0.195312 159.175781 L -0.195312 156.472656 C -0.195312 155.996094 -0.171875 155.628906 -0.132812 155.378906 C -0.0703125 155.027344 0.046875 154.734375 0.210938 154.503906 C 0.367188 154.265625 0.597656 154.074219 0.898438 153.925781 C 1.191406 153.78125 1.515625 153.707031 1.867188 153.707031 C 2.484375 153.707031 3.003906 153.902344 3.429688 154.285156 C 3.847656 154.671875 4.054688 155.371094 4.054688 156.378906 L 4.054688 158.222656 L 6.960938 158.222656 Z M 3.210938 158.222656 L 3.210938 156.378906 C 3.210938 155.765625 3.097656 155.328125 2.867188 155.066406 C 2.640625 154.808594 2.316406 154.675781 1.898438 154.675781 C 1.597656 154.675781 1.34375 154.753906 1.132812 154.910156 C 0.925781 155.058594 0.785156 155.253906 0.710938 155.503906 C 0.671875 155.671875 0.648438 155.96875 0.648438 156.394531 L 0.648438 158.222656 Z M 3.210938 158.222656 "/>
<path style=" stroke:none;fill-rule:nonzero;fill:rgb(0%,0%,0%);fill-opacity:1;" d="M 7.085938 153.558594 L -0.320312 151.480469 L -0.320312 150.777344 L 7.085938 152.855469 Z M 7.085938 153.558594 "/>
<path style=" stroke:none;fill-rule:nonzero;fill:rgb(0%,0%,0%);fill-opacity:1;" d="M 6.960938 150.140625 L -0.195312 150.140625 L -0.195312 147.671875 C -0.195312 147.109375 -0.164062 146.683594 -0.101562 146.390625 C -0.0078125 145.984375 0.164062 145.636719 0.414062 145.34375 C 0.738281 144.96875 1.148438 144.6875 1.648438 144.5 C 2.140625 144.3125 2.703125 144.21875 3.335938 144.21875 C 3.890625 144.21875 4.375 144.28125 4.789062 144.40625 C 5.207031 144.53125 5.554688 144.695312 5.835938 144.890625 C 6.109375 145.089844 6.320312 145.308594 6.476562 145.546875 C 6.632812 145.789062 6.753906 146.074219 6.835938 146.40625 C 6.921875 146.742188 6.960938 147.121094 6.960938 147.546875 Z M 6.117188 149.1875 L 6.117188 147.65625 C 6.117188 147.1875 6.078125 146.820312 5.992188 146.546875 C 5.898438 146.277344 5.773438 146.0625 5.617188 145.90625 C 5.390625 145.679688 5.085938 145.5 4.710938 145.375 C 4.328125 145.25 3.863281 145.1875 3.320312 145.1875 C 2.582031 145.1875 2.007812 145.3125 1.601562 145.5625 C 1.195312 145.8125 0.925781 146.109375 0.789062 146.453125 C 0.695312 146.714844 0.648438 147.125 0.648438 147.6875 L 0.648438 149.1875 Z M 6.117188 149.1875 "/>
<path style=" stroke:none;fill-rule:nonzero;fill:rgb(0%,0%,0%);fill-opacity:1;" d="M 6.960938 143.230469 L -0.195312 143.230469 L -0.195312 142.261719 L 5.429688 138.496094 L -0.195312 138.496094 L -0.195312 137.589844 L 6.960938 137.589844 L 6.960938 138.558594 L 1.335938 142.324219 L 6.960938 142.324219 Z M 6.960938 143.230469 "/>
</g>
</svg>
