<svg class="railroad-diagram" height="92" viewBox="0 0 231.0 92" width="231.0" xmlns="http://www.w3.org/2000/svg" xmlns:xlink="http://www.w3.org/1999/xlink">
<g transform="translate(.5 .5)">
<style>/* <![CDATA[ */
	svg.railroad-diagram {
		background-color:none;
	}
	svg.railroad-diagram path {
		stroke-width:1.5;
		stroke:white;
		fill:rgba(0,0,0,0);
	}
	svg.railroad-diagram text {
		font:bold 14px monospace;
		fill: white;
		text-anchor:middle;
	}
	svg.railroad-diagram text.label{
		text-anchor:start;
	}
	svg.railroad-diagram text.comment{
		font:italic 12px monospace;
	}
	svg.railroad-diagram rect{
		stroke-width:1.5;
		stroke:white;
		fill:none;
	}
	svg.railroad-diagram rect.group-box {
		stroke: gray;
		stroke-dasharray: 10 5;
		fill: none;
	}

/* ]]> */
</style><g>
<path d="M20 21v20m10 -20v20m-10 -10h20"></path></g><path d="M40 31h10"></path><g class="terminal ">
<path d="M50 31h0.0"></path><path d="M95.5 31h0.0"></path><rect height="22" rx="10" ry="10" width="45.5" x="50.0" y="20"></rect><text x="72.75" y="35">foo</text></g><path d="M95.5 31h10"></path><g>
<path d="M105.5 31h0.0"></path><path d="M191.0 31h0.0"></path><path d="M105.5 31h20"></path><g class="terminal ">
<path d="M125.5 31h0.0"></path><path d="M171.0 31h0.0"></path><rect height="22" rx="10" ry="10" width="45.5" x="125.5" y="20"></rect><text x="148.25" y="35">bar</text></g><path d="M171.0 31h20"></path><path d="M105.5 31a10 10 0 0 1 10 10v10a10 10 0 0 0 10 10"></path><g class="terminal ">
<path d="M125.5 61h0.0"></path><path d="M171.0 61h0.0"></path><rect height="22" rx="10" ry="10" width="45.5" x="125.5" y="50"></rect><text x="148.25" y="65">baz</text></g><path d="M171.0 61a10 10 0 0 0 10 -10v-10a10 10 0 0 1 10 -10"></path></g><path d="M 191.0 31 h 20 m -10 -10 v 20 m 10 -20 v 20"></path></g></svg>