<?xml version="1.0" encoding="UTF-8" standalone="no"?>
<svg
   width="161.197113pt"
   height="79.35527pt"
   viewBox="0 0 161.197113 79.35527"
   version="1.1"
   id="svg376"
   sodipodi:docname="concept.svg"
   inkscape:version="1.2 (dc2aedaf03, 2022-05-15)"
   xmlns:inkscape="http://www.inkscape.org/namespaces/inkscape"
   xmlns:sodipodi="http://sodipodi.sourceforge.net/DTD/sodipodi-0.dtd"
   xmlns="http://www.w3.org/2000/svg"
   xmlns:svg="http://www.w3.org/2000/svg">
  <sodipodi:namedview
     id="namedview378"
     pagecolor="#505050"
     bordercolor="#eeeeee"
     borderopacity="1"
     inkscape:showpageshadow="0"
     inkscape:pageopacity="0"
     inkscape:pagecheckerboard="0"
     inkscape:deskcolor="#505050"
     inkscape:document-units="pt"
     showgrid="false"
     inkscape:zoom="5.7135018"
     inkscape:cx="113.24053"
     inkscape:cy="34.304706"
     inkscape:window-width="1920"
     inkscape:window-height="1027"
     inkscape:window-x="-8"
     inkscape:window-y="-8"
     inkscape:window-maximized="1"
     inkscape:current-layer="svg376" />
  <defs
     id="defs17">
    <clipPath
       id="clip1">
      <path
         d="M 51 76 L 54 76 L 54 79.355469 L 51 79.355469 Z M 51 76 "
         id="path2" />
    </clipPath>
    <clipPath
       id="clip2">
      <path
         d="M 55 76 L 58 76 L 58 79.355469 L 55 79.355469 Z M 55 76 "
         id="path5" />
    </clipPath>
    <clipPath
       id="clip3">
      <path
         d="M 59 76 L 62 76 L 62 79.355469 L 59 79.355469 Z M 59 76 "
         id="path8" />
    </clipPath>
    <clipPath
       id="clip4">
      <path
         d="M 63 76 L 66 76 L 66 79.355469 L 63 79.355469 Z M 63 76 "
         id="path11" />
    </clipPath>
    <clipPath
       id="clip5">
      <path
         d="M 158 25 L 161.195312 25 L 161.195312 30 L 158 30 Z M 158 25 "
         id="path14" />
    </clipPath>
  </defs>
  <path
     style="fill:none;stroke:#ffffff;stroke-width:0.8;stroke-linecap:butt;stroke-linejoin:miter;stroke-miterlimit:4;stroke-opacity:1"
     d="m 85.628906,8.730469 h 10.0625 v 16.070312"
     id="path19" />
  <path
     style="fill:none;stroke:#ffffff;stroke-width:1.2;stroke-linecap:butt;stroke-linejoin:miter;stroke-miterlimit:4;stroke-opacity:1"
     d="m 108.78125,64.015625 h 7.23047"
     id="path21" />
  <path
     style="fill:none;stroke:#ffffff;stroke-width:0.8;stroke-linecap:butt;stroke-linejoin:miter;stroke-miterlimit:4;stroke-opacity:1"
     d="M 38.8125,34.132812 H 49.33661"
     id="path25" />
  <path
     style="fill:none;stroke:#ffffff;stroke-width:0.8;stroke-linecap:butt;stroke-linejoin:miter;stroke-miterlimit:4;stroke-opacity:1"
     d="m 66.869715,34.129682 h 4.748317"
     id="path25-6" />
  <path
     style="fill:none;stroke:#ffffff;stroke-width:0.8;stroke-linecap:butt;stroke-linejoin:miter;stroke-miterlimit:4;stroke-opacity:1"
     d="M 76.984375,23.160156 V 16.570538"
     id="path27" />
  <path
     style="fill:#ffffff;fill-opacity:1;fill-rule:nonzero;stroke:none"
     d="M 77.023438,24.558594 77.855469,23.480469 78.6875,22.40625 h -3.332031 l 0.835937,1.074219 z m 0,0"
     id="path31" />
  <path
     style="fill:none;stroke:#ffffff;stroke-width:0.8;stroke-linecap:butt;stroke-linejoin:miter;stroke-miterlimit:4;stroke-opacity:1"
     d="M 83.09375,23.160156 V 16.570538"
     id="path33" />
  <path
     style="fill:#ffffff;fill-opacity:1;fill-rule:nonzero;stroke:none"
     d="m 83.132812,24.558594 0.832032,-1.078125 0.832031,-1.074219 h -3.332031 l 0.835937,1.074219 z m 0,0"
     id="path37" />
  <path
     style="fill:none;fill-opacity:1;fill-rule:nonzero;stroke:#ffffff;stroke-width:1.2;stroke-linecap:butt;stroke-linejoin:miter;stroke-miterlimit:4;stroke-opacity:1"
     d="M 71.875,9.332031 C 71.589844,4.800781 75.027344,0.902344 79.558594,0.617188 84.089844,0.332031 88,3.773438 88.28125,8.300781 c 0.289062,4.527344 -3.152344,8.429688 -7.683594,8.714844 -4.535156,0.285156 -8.4375,-3.15625 -8.722656,-7.683594"
     id="path39" />
  <path
     style="fill:none;stroke:#ffffff;stroke-width:0.4;stroke-linecap:butt;stroke-linejoin:round;stroke-miterlimit:10;stroke-opacity:1"
     d="m 73.367188,8.933594 c 0.273437,0 0.496093,-0.371094 0.738281,-0.113282 0.08594,0.105469 0.335937,0.332032 0.480469,0.121094 C 74.722656,8.84375 74.730469,8.578125 74.984375,8.585938 75.25,8.769531 75.160156,9.117188 75.476562,9.25 c 0.3125,-0.289062 0.175782,-0.71875 0.503907,-0.988281 0.339843,0.441406 0.179687,0.996093 0.503906,1.441406 0.304687,-0.511719 0.21875,-1.113281 0.371094,-1.65625 0.05859,-0.105469 0.0039,-0.382813 0.171875,-0.40625 C 77.34375,8.605469 77.1875,9.625 77.515625,10.582031 77.800781,9.53125 77.742188,8.441406 77.878906,7.375 c 0.05859,-0.289062 -0.0039,-0.699219 0.167969,-0.925781 0.324219,1.882812 0.179687,3.789062 0.492187,5.671875 0.238282,-1.152344 0.175782,-2.363282 0.261719,-3.539063 0.08984,-1.34375 0.04297,-2.707031 0.261719,-4.039062 0.257812,2.136719 0.203125,4.292969 0.316406,6.4375 0.06641,1.105469 0.01953,2.246093 0.199219,3.324219 0.253906,-2.78125 0.203125,-5.574219 0.328125,-8.363282 0.05469,-0.871094 0.0078,-1.761718 0.164062,-2.617187 0.253907,2.605469 0.210938,5.226562 0.34375,7.835937 0.0625,0.722656 -0.0039,1.585938 0.179688,2.222656 0.292969,-2.707031 0.167969,-5.433593 0.480469,-8.140624 0.121093,0.0625 0.07031,0.40625 0.109375,0.558593 0.179687,1.945313 0.113281,3.898438 0.40625,5.835938 0.207031,-0.625 0.148437,-1.351563 0.230468,-2.011719 0.101563,-0.953125 0.04297,-1.929688 0.292969,-2.867188 0.316407,1.1875 0.167969,2.417969 0.492188,3.605469 0.199219,-0.195312 0.125,-0.570312 0.203125,-0.824219 0.125,-0.585937 0.04687,-1.21875 0.328125,-1.78125 0.320312,0.589844 0.15625,1.269532 0.496093,1.855469 0.273438,-0.28125 0.207032,-0.683593 0.355469,-1.007812 0,-0.089844 0.144531,-0.433594 0.265625,-0.195313 0.179688,0.253906 0.113282,0.601563 0.421875,0.804688 0.292969,-0.148438 0.171875,-0.519532 0.527344,-0.613282 0.25,0.089844 0.210937,0.421876 0.542969,0.40625 0.1875,-0.085937 0.355468,-0.398437 0.636718,-0.214843 0.105469,0.054687 0.214844,0.152343 0.378907,0.128906"
     id="path41" />
  <path
     style="fill:none;stroke:#ffffff;stroke-width:0.799998;stroke-linecap:butt;stroke-linejoin:miter;stroke-miterlimit:4;stroke-opacity:1"
     d="m 87.012267,38.597656 h 6.042051"
     id="path43" />
  <path
     style="fill:none;stroke:#ffffff;stroke-width:0.799998;stroke-linecap:butt;stroke-linejoin:miter;stroke-miterlimit:4;stroke-opacity:1"
     d="m 86.874678,29.71875 h 6.042644"
     id="path45" />
  <path
     style="fill:none;stroke:#ffffff;stroke-width:0.799998;stroke-linecap:butt;stroke-linejoin:miter;stroke-miterlimit:4;stroke-opacity:1"
     d="m 111.59811,38.569135 h 6.87629"
     id="path43-9" />
  <path
     style="fill:none;stroke:#ffffff;stroke-width:0.799998;stroke-linecap:butt;stroke-linejoin:miter;stroke-miterlimit:4;stroke-opacity:1"
     d="m 111.44152,29.690229 h 6.87698"
     id="path45-3" />
  <path
     style="fill:none;fill-opacity:1;fill-rule:nonzero;stroke:#ffffff;stroke-width:1.2;stroke-linecap:butt;stroke-linejoin:miter;stroke-miterlimit:4;stroke-opacity:1"
     d="m 71.726562,33.617188 c -0.285156,4.527343 3.152344,8.429687 7.683594,8.714843 4.53125,0.285157 8.4375,-3.15625 8.722656,-7.683593 0.289063,-4.527344 -3.152343,-8.429688 -7.683593,-8.714844 -4.535157,-0.285156 -8.4375,3.15625 -8.722657,7.683594"
     id="path47" />
  <path
     style="fill:none;stroke:#ffffff;stroke-width:1.2;stroke-linecap:round;stroke-linejoin:miter;stroke-miterlimit:4;stroke-opacity:1"
     d="m 76.253906,37.808594 7.351563,-7.351563"
     id="path49" />
  <path
     style="fill:none;stroke:#ffffff;stroke-width:1.2;stroke-linecap:round;stroke-linejoin:miter;stroke-miterlimit:4;stroke-opacity:1"
     d="M 83.605469,37.808594 76.253906,30.457031"
     id="path51" />
  <path
     style="fill:none;fill-opacity:1;fill-rule:nonzero;stroke:#ffffff;stroke-width:0.8;stroke-linecap:butt;stroke-linejoin:miter;stroke-miterlimit:4;stroke-opacity:1"
     d="m 67.554687,34.171875 -18.289062,10.3125 0.02344,-10.351562 0.02344,-10.347657 9.121094,5.191407 z m 0,0"
     id="path53" />
  <path
     style="fill:none;fill-opacity:1;fill-rule:evenodd;stroke:#ffffff;stroke-width:1.2;stroke-linecap:butt;stroke-linejoin:miter;stroke-miterlimit:4;stroke-opacity:1"
     d="m 114.88672,34.132812 6.37891,8.3125 h 12.89843 v -16.625 h -12.89843 z m 0,0"
     id="path61" />
  <path
     style="fill:none;stroke:#a30000;stroke-width:0.783069;stroke-linecap:butt;stroke-linejoin:miter;stroke-miterlimit:4;stroke-opacity:1"
     d="m 27.90625,71.785156 c -6.5,0 -12.902344,-11.277344 -17.152344,-11.277344"
     id="path71" />
  <path
     style="fill:none;stroke:#ffffff;stroke-width:0.8;stroke-linecap:butt;stroke-linejoin:miter;stroke-miterlimit:4;stroke-opacity:1"
     d="M 10.8125,71.96875 V 57.042969"
     id="path73" />
  <path
     style="fill:none;stroke:#ffffff;stroke-width:0.8;stroke-linecap:butt;stroke-linejoin:miter;stroke-miterlimit:4;stroke-opacity:1"
     d="M 28.09375,71.90625 H 9.875"
     id="path75" />
  <path
     style="fill:#4c9905;fill-opacity:1;fill-rule:nonzero;stroke:none"
     d="m 126.32422,53.605469 -0.79688,2.1875 h 1.60938 z m -0.32813,-0.578125 h 0.67188 l 1.67187,4.375 h -0.625 l -0.39062,-1.125 h -1.98438 l -0.39062,1.125 h -0.625 z m 0,0"
     id="path87" />
  <path
     style="fill:#4c9905;fill-opacity:1;fill-rule:nonzero;stroke:none"
     d="m 128.57422,58.183594 h 0.64062 v -2.234375 l -0.70312,0.140625 v -0.359375 l 0.70312,-0.140625 h 0.39063 v 2.59375 h 0.64062 v 0.328125 h -1.67187 z m 0,0"
     id="path89" />
  <path
     style="fill:#4c9905;fill-opacity:1;fill-rule:nonzero;stroke:none"
     d="m 132.23047,52.855469 c -0.26172,0.449219 -0.45313,0.890625 -0.57813,1.328125 -0.125,0.4375 -0.1875,0.882812 -0.1875,1.328125 0,0.460937 0.0625,0.914062 0.1875,1.359375 0.125,0.4375 0.31641,0.878906 0.57813,1.328125 h -0.46875 c -0.29297,-0.460938 -0.51172,-0.910157 -0.65625,-1.359375 -0.14844,-0.445313 -0.21875,-0.890625 -0.21875,-1.328125 0,-0.425781 0.0703,-0.859375 0.21875,-1.296875 0.14453,-0.445313 0.36328,-0.898438 0.65625,-1.359375 z m 0,0"
     id="path91" />
  <path
     style="fill:#4c9905;fill-opacity:1;fill-rule:nonzero;stroke:none"
     d="m 133.63281,53.183594 v 0.9375 h 1.10938 v 0.421875 h -1.10938 v 1.78125 c 0,0.261719 0.0352,0.433593 0.10938,0.515625 0.0703,0.07422 0.22265,0.109375 0.45312,0.109375 h 0.54688 v 0.453125 h -0.54688 c -0.41797,0 -0.70312,-0.07813 -0.85937,-0.234375 -0.15625,-0.15625 -0.23438,-0.4375 -0.23438,-0.84375 v -1.78125 h -0.40625 v -0.421875 h 0.40625 v -0.9375 z m 0,0"
     id="path93" />
  <path
     style="fill:#4c9905;fill-opacity:1;fill-rule:nonzero;stroke:none"
     d="m 135.20312,52.855469 h 0.46875 c 0.28907,0.460937 0.50782,0.914062 0.65625,1.359375 0.14454,0.4375 0.21875,0.871094 0.21875,1.296875 0,0.4375 -0.0742,0.882812 -0.21875,1.328125 -0.14843,0.449218 -0.36718,0.898437 -0.65625,1.359375 h -0.46875 c 0.25782,-0.449219 0.45313,-0.890625 0.57813,-1.328125 0.125,-0.445313 0.1875,-0.898438 0.1875,-1.359375 0,-0.445313 -0.0625,-0.890625 -0.1875,-1.328125 -0.125,-0.4375 -0.32031,-0.878906 -0.57813,-1.328125 z m 0,0"
     id="path95" />
  <path
     style="fill:#cc5c00;fill-opacity:1;fill-rule:nonzero;stroke:none"
     d="m 126.32422,59.449219 -0.79688,2.1875 h 1.60938 z m -0.32813,-0.578125 h 0.67188 l 1.67187,4.375 h -0.625 l -0.39062,-1.125 h -1.98438 l -0.39062,1.125 h -0.625 z m 0,0"
     id="path97" />
  <path
     style="fill:#cc5c00;fill-opacity:1;fill-rule:nonzero;stroke:none"
     d="m 128.83984,64.03125 h 1.375 v 0.328125 h -1.84375 V 64.03125 c 0.14453,-0.15625 0.34766,-0.363281 0.60938,-0.625 0.25781,-0.257812 0.42187,-0.429688 0.48437,-0.515625 0.125,-0.132813 0.21094,-0.25 0.26563,-0.34375 0.0508,-0.101563 0.0781,-0.203125 0.0781,-0.296875 0,-0.15625 -0.0586,-0.28125 -0.17187,-0.375 -0.10547,-0.101562 -0.2461,-0.15625 -0.42188,-0.15625 -0.125,0 -0.25781,0.02344 -0.39062,0.0625 -0.13672,0.04297 -0.28125,0.109375 -0.4375,0.203125 v -0.40625 c 0.15625,-0.0625 0.30078,-0.109375 0.4375,-0.140625 0.14453,-0.03125 0.27344,-0.04687 0.39062,-0.04687 0.30078,0 0.53907,0.07813 0.71875,0.234375 0.17578,0.148438 0.26563,0.34375 0.26563,0.59375 0,0.125 -0.0234,0.242188 -0.0625,0.34375 -0.043,0.105469 -0.125,0.230469 -0.25,0.375 -0.0312,0.04297 -0.13672,0.15625 -0.3125,0.34375 -0.16797,0.179688 -0.41406,0.429688 -0.73438,0.75 z m 0,0"
     id="path99" />
  <path
     style="fill:#cc5c00;fill-opacity:1;fill-rule:nonzero;stroke:none"
     d="m 132.23047,58.699219 c -0.26172,0.449219 -0.45313,0.890625 -0.57813,1.328125 -0.125,0.4375 -0.1875,0.882812 -0.1875,1.328125 0,0.460937 0.0625,0.914062 0.1875,1.359375 0.125,0.4375 0.31641,0.878906 0.57813,1.328125 h -0.46875 c -0.29297,-0.460938 -0.51172,-0.910157 -0.65625,-1.359375 -0.14844,-0.445313 -0.21875,-0.890625 -0.21875,-1.328125 0,-0.425781 0.0703,-0.859375 0.21875,-1.296875 0.14453,-0.445313 0.36328,-0.898438 0.65625,-1.359375 z m 0,0"
     id="path101" />
  <path
     style="fill:#cc5c00;fill-opacity:1;fill-rule:nonzero;stroke:none"
     d="m 133.63281,59.027344 v 0.9375 h 1.10938 v 0.421875 h -1.10938 v 1.78125 c 0,0.261719 0.0352,0.433593 0.10938,0.515625 0.0703,0.07422 0.22265,0.109375 0.45312,0.109375 h 0.54688 v 0.453125 h -0.54688 c -0.41797,0 -0.70312,-0.07813 -0.85937,-0.234375 -0.15625,-0.15625 -0.23438,-0.4375 -0.23438,-0.84375 v -1.78125 h -0.40625 v -0.421875 h 0.40625 v -0.9375 z m 0,0"
     id="path103" />
  <path
     style="fill:#cc5c00;fill-opacity:1;fill-rule:nonzero;stroke:none"
     d="m 135.20312,58.699219 h 0.46875 c 0.28907,0.460937 0.50782,0.914062 0.65625,1.359375 0.14454,0.4375 0.21875,0.871094 0.21875,1.296875 0,0.4375 -0.0742,0.882812 -0.21875,1.328125 -0.14843,0.449218 -0.36718,0.898437 -0.65625,1.359375 h -0.46875 c 0.25782,-0.449219 0.45313,-0.890625 0.57813,-1.328125 0.125,-0.445313 0.1875,-0.898438 0.1875,-1.359375 0,-0.445313 -0.0625,-0.890625 -0.1875,-1.328125 -0.125,-0.4375 -0.32031,-0.878906 -0.57813,-1.328125 z m 0,0"
     id="path105" />
  <path
     style="fill:#1e4a85;fill-opacity:1;fill-rule:nonzero;stroke:none"
     d="m 126.32422,65.292969 -0.79688,2.1875 h 1.60938 z m -0.32813,-0.578125 h 0.67188 l 1.67187,4.375 h -0.625 l -0.39062,-1.125 h -1.98438 l -0.39062,1.125 h -0.625 z m 0,0"
     id="path107" />
  <path
     style="fill:#1e4a85;fill-opacity:1;fill-rule:nonzero;stroke:none"
     d="m 129.69922,68.625 c 0.1875,0.04297 0.33203,0.132812 0.4375,0.265625 0.10156,0.125 0.15625,0.28125 0.15625,0.46875 0,0.28125 -0.10156,0.507813 -0.29688,0.671875 -0.19922,0.15625 -0.48047,0.234375 -0.84375,0.234375 -0.11718,0 -0.24218,-0.01563 -0.375,-0.04687 -0.125,-0.01953 -0.25781,-0.05469 -0.39062,-0.109375 v -0.375 c 0.10156,0.0625 0.21875,0.109375 0.34375,0.140625 0.13281,0.03125 0.27344,0.04687 0.42187,0.04687 0.23828,0 0.42188,-0.04687 0.54688,-0.140625 0.13281,-0.09375 0.20312,-0.234375 0.20312,-0.421875 0,-0.175781 -0.0625,-0.3125 -0.1875,-0.40625 -0.11718,-0.09375 -0.27734,-0.140625 -0.48437,-0.140625 h -0.34375 v -0.328125 h 0.35937 c 0.1875,0 0.33203,-0.03516 0.4375,-0.109375 0.10157,-0.08203 0.15625,-0.195312 0.15625,-0.34375 0,-0.144531 -0.0547,-0.257812 -0.15625,-0.34375 -0.10547,-0.08203 -0.25781,-0.125 -0.45312,-0.125 -0.11719,0 -0.23438,0.01563 -0.35938,0.04687 -0.125,0.02344 -0.26172,0.05469 -0.40625,0.09375 v -0.34375 c 0.15625,-0.03906 0.29688,-0.07031 0.42188,-0.09375 0.13281,-0.01953 0.25781,-0.03125 0.375,-0.03125 0.30078,0 0.53515,0.07031 0.70312,0.203125 0.17578,0.136719 0.26563,0.320312 0.26563,0.546875 0,0.167969 -0.0469,0.308594 -0.14063,0.421875 -0.0937,0.105469 -0.22656,0.179688 -0.39062,0.21875 z m 0,0"
     id="path109" />
  <path
     style="fill:#1e4a85;fill-opacity:1;fill-rule:nonzero;stroke:none"
     d="m 132.23047,64.542969 c -0.26172,0.449219 -0.45313,0.890625 -0.57813,1.328125 -0.125,0.4375 -0.1875,0.882812 -0.1875,1.328125 0,0.460937 0.0625,0.914062 0.1875,1.359375 0.125,0.4375 0.31641,0.878906 0.57813,1.328125 h -0.46875 c -0.29297,-0.460938 -0.51172,-0.910157 -0.65625,-1.359375 -0.14844,-0.445313 -0.21875,-0.890625 -0.21875,-1.328125 0,-0.425781 0.0703,-0.859375 0.21875,-1.296875 0.14453,-0.445313 0.36328,-0.898438 0.65625,-1.359375 z m 0,0"
     id="path111" />
  <path
     style="fill:#1e4a85;fill-opacity:1;fill-rule:nonzero;stroke:none"
     d="m 133.63281,64.871094 v 0.9375 h 1.10938 v 0.421875 h -1.10938 v 1.78125 c 0,0.261719 0.0352,0.433593 0.10938,0.515625 0.0703,0.07422 0.22265,0.109375 0.45312,0.109375 h 0.54688 v 0.453125 h -0.54688 c -0.41797,0 -0.70312,-0.07813 -0.85937,-0.234375 -0.15625,-0.15625 -0.23438,-0.4375 -0.23438,-0.84375 v -1.78125 h -0.40625 v -0.421875 h 0.40625 v -0.9375 z m 0,0"
     id="path113" />
  <path
     style="fill:#1e4a85;fill-opacity:1;fill-rule:nonzero;stroke:none"
     d="m 135.20312,64.542969 h 0.46875 c 0.28907,0.460937 0.50782,0.914062 0.65625,1.359375 0.14454,0.4375 0.21875,0.871094 0.21875,1.296875 0,0.4375 -0.0742,0.882812 -0.21875,1.328125 -0.14843,0.449218 -0.36718,0.898437 -0.65625,1.359375 h -0.46875 c 0.25782,-0.449219 0.45313,-0.890625 0.57813,-1.328125 0.125,-0.445313 0.1875,-0.898438 0.1875,-1.359375 0,-0.445313 -0.0625,-0.890625 -0.1875,-1.328125 -0.125,-0.4375 -0.32031,-0.878906 -0.57813,-1.328125 z m 0,0"
     id="path115" />
  <path
     style="fill:#5c3363;fill-opacity:1;fill-rule:nonzero;stroke:none"
     d="m 126.32422,71.136719 -0.79688,2.1875 h 1.60938 z m -0.32813,-0.578125 h 0.67188 l 1.67187,4.375 h -0.625 l -0.39062,-1.125 h -1.98438 l -0.39062,1.125 h -0.625 z m 0,0"
     id="path117" />
  <path
     style="fill:#5c3363;fill-opacity:1;fill-rule:nonzero;stroke:none"
     d="m 129.58984,73.46875 -1,1.5625 h 1 z M 129.48047,73.125 h 0.5 v 1.90625 h 0.42187 v 0.328125 h -0.42187 v 0.6875 h -0.39063 v -0.6875 h -1.3125 v -0.375 z m 0,0"
     id="path119" />
  <path
     style="fill:#5c3363;fill-opacity:1;fill-rule:nonzero;stroke:none"
     d="m 132.23047,70.386719 c -0.26172,0.449219 -0.45313,0.890625 -0.57813,1.328125 -0.125,0.4375 -0.1875,0.882812 -0.1875,1.328125 0,0.460937 0.0625,0.914062 0.1875,1.359375 0.125,0.4375 0.31641,0.878906 0.57813,1.328125 h -0.46875 c -0.29297,-0.460938 -0.51172,-0.910157 -0.65625,-1.359375 -0.14844,-0.445313 -0.21875,-0.890625 -0.21875,-1.328125 0,-0.425781 0.0703,-0.859375 0.21875,-1.296875 0.14453,-0.445313 0.36328,-0.898438 0.65625,-1.359375 z m 0,0"
     id="path121" />
  <path
     style="fill:#5c3363;fill-opacity:1;fill-rule:nonzero;stroke:none"
     d="m 133.63281,70.714844 v 0.9375 h 1.10938 v 0.421875 h -1.10938 v 1.78125 c 0,0.261719 0.0352,0.433593 0.10938,0.515625 0.0703,0.07422 0.22265,0.109375 0.45312,0.109375 h 0.54688 v 0.453125 h -0.54688 c -0.41797,0 -0.70312,-0.07813 -0.85937,-0.234375 -0.15625,-0.15625 -0.23438,-0.4375 -0.23438,-0.84375 v -1.78125 h -0.40625 v -0.421875 h 0.40625 v -0.9375 z m 0,0"
     id="path123" />
  <path
     style="fill:#5c3363;fill-opacity:1;fill-rule:nonzero;stroke:none"
     d="m 135.20312,70.386719 h 0.46875 c 0.28907,0.460937 0.50782,0.914062 0.65625,1.359375 0.14454,0.4375 0.21875,0.871094 0.21875,1.296875 0,0.4375 -0.0742,0.882812 -0.21875,1.328125 -0.14843,0.449218 -0.36718,0.898437 -0.65625,1.359375 h -0.46875 c 0.25782,-0.449219 0.45313,-0.890625 0.57813,-1.328125 0.125,-0.445313 0.1875,-0.898438 0.1875,-1.359375 0,-0.445313 -0.0625,-0.890625 -0.1875,-1.328125 -0.125,-0.4375 -0.32031,-0.878906 -0.57813,-1.328125 z m 0,0"
     id="path125" />
  <path
     style="fill:#4c9905;fill-opacity:1;fill-rule:nonzero;stroke:none"
     d="m 146.49219,53.867188 c -0.29297,0.04297 -0.53125,0.152343 -0.71875,0.328124 -0.25,0.21875 -0.375,0.523438 -0.375,0.90625 0,0.386719 0.125,0.695313 0.375,0.921876 0.1875,0.167968 0.42578,0.273437 0.71875,0.3125 z m 0.59375,2.46875 c 0.28906,-0.03906 0.53515,-0.144532 0.73437,-0.3125 0.25,-0.226563 0.375,-0.535157 0.375,-0.921876 0,-0.382812 -0.125,-0.6875 -0.375,-0.90625 -0.19922,-0.175781 -0.44531,-0.285156 -0.73437,-0.328124 z m -0.59375,0.484374 c -0.46875,-0.03906 -0.85938,-0.191406 -1.17188,-0.453124 -0.36719,-0.3125 -0.54687,-0.734376 -0.54687,-1.265626 0,-0.53125 0.17968,-0.953124 0.54687,-1.265624 0.30078,-0.257813 0.69141,-0.410157 1.17188,-0.453126 v -0.46875 h 0.59375 v 0.46875 c 0.47656,0.04297 0.86718,0.195313 1.17187,0.453126 0.375,0.3125 0.5625,0.734374 0.5625,1.265624 0,0.53125 -0.1875,0.953126 -0.5625,1.265626 -0.30469,0.261718 -0.69531,0.417968 -1.17187,0.46875 v 0.453124 h -0.59375 z m 0,0"
     id="path127" />
  <path
     style="fill:#4c9905;fill-opacity:1;fill-rule:nonzero;stroke:none"
     d="m 149.30078,58.070312 h 0.64063 v -2.234374 l -0.70313,0.140624 v -0.359374 l 0.70313,-0.140626 h 0.39062 v 2.59375 h 0.64063 v 0.328126 h -1.67188 z m 0,0"
     id="path129" />
  <path
     style="fill:#4c9905;fill-opacity:1;fill-rule:nonzero;stroke:none"
     d="m 152.95703,52.742188 c -0.26172,0.449218 -0.45312,0.890624 -0.57812,1.328124 -0.125,0.4375 -0.1875,0.882813 -0.1875,1.328126 0,0.460937 0.0625,0.914062 0.1875,1.359374 0.125,0.4375 0.3164,0.878907 0.57812,1.328126 h -0.46875 c -0.29297,-0.460938 -0.51172,-0.910157 -0.65625,-1.359376 -0.14844,-0.445312 -0.21875,-0.890624 -0.21875,-1.328124 0,-0.425782 0.0703,-0.859376 0.21875,-1.296876 0.14453,-0.445312 0.36328,-0.898437 0.65625,-1.359374 z m 0,0"
     id="path131" />
  <path
     style="fill:#4c9905;fill-opacity:1;fill-rule:nonzero;stroke:none"
     d="m 154.35937,53.070312 v 0.9375 h 1.10938 v 0.421876 h -1.10938 v 1.78125 c 0,0.261718 0.0352,0.433593 0.10938,0.515624 0.0703,0.07422 0.22266,0.109376 0.45312,0.109376 h 0.54688 v 0.453124 h -0.54688 c -0.41796,0 -0.70312,-0.07812 -0.85937,-0.234374 -0.15625,-0.15625 -0.23438,-0.4375 -0.23438,-0.84375 v -1.78125 h -0.40625 v -0.421876 h 0.40625 v -0.9375 z m 0,0"
     id="path133" />
  <path
     style="fill:#4c9905;fill-opacity:1;fill-rule:nonzero;stroke:none"
     d="m 155.92969,52.742188 h 0.46875 c 0.28906,0.460937 0.50781,0.914062 0.65625,1.359374 0.14453,0.4375 0.21875,0.871094 0.21875,1.296876 0,0.4375 -0.0742,0.882812 -0.21875,1.328124 -0.14844,0.449219 -0.36719,0.898438 -0.65625,1.359376 h -0.46875 c 0.25781,-0.449219 0.45312,-0.890626 0.57812,-1.328126 0.125,-0.445312 0.1875,-0.898437 0.1875,-1.359374 0,-0.445313 -0.0625,-0.890626 -0.1875,-1.328126 -0.125,-0.4375 -0.32031,-0.878906 -0.57812,-1.328124 z m 0,0"
     id="path135" />
  <path
     style="fill:#cc5c00;fill-opacity:1;fill-rule:nonzero;stroke:none"
     d="m 146.49219,59.710938 c -0.29297,0.04297 -0.53125,0.152343 -0.71875,0.328124 -0.25,0.21875 -0.375,0.523438 -0.375,0.90625 0,0.386719 0.125,0.695313 0.375,0.921876 0.1875,0.167968 0.42578,0.273437 0.71875,0.3125 z m 0.59375,2.46875 c 0.28906,-0.03906 0.53515,-0.144532 0.73437,-0.3125 0.25,-0.226563 0.375,-0.535157 0.375,-0.921876 0,-0.382812 -0.125,-0.6875 -0.375,-0.90625 -0.19922,-0.175781 -0.44531,-0.285156 -0.73437,-0.328124 z m -0.59375,0.484374 c -0.46875,-0.03906 -0.85938,-0.191406 -1.17188,-0.453124 -0.36719,-0.3125 -0.54687,-0.734376 -0.54687,-1.265626 0,-0.53125 0.17968,-0.953124 0.54687,-1.265624 0.30078,-0.257813 0.69141,-0.410157 1.17188,-0.453126 v -0.46875 h 0.59375 v 0.46875 c 0.47656,0.04297 0.86718,0.195313 1.17187,0.453126 0.375,0.3125 0.5625,0.734374 0.5625,1.265624 0,0.53125 -0.1875,0.953126 -0.5625,1.265626 -0.30469,0.261718 -0.69531,0.417968 -1.17187,0.46875 v 0.453124 h -0.59375 z m 0,0"
     id="path137" />
  <path
     style="fill:#cc5c00;fill-opacity:1;fill-rule:nonzero;stroke:none"
     d="m 149.56641,63.914062 h 1.375 v 0.328126 h -1.84375 v -0.328126 c 0.14453,-0.15625 0.34765,-0.363281 0.60937,-0.625 0.25781,-0.257812 0.42188,-0.429687 0.48438,-0.515624 0.125,-0.132813 0.21093,-0.25 0.26562,-0.34375 0.0508,-0.101563 0.0781,-0.203126 0.0781,-0.296876 0,-0.15625 -0.0586,-0.28125 -0.17188,-0.375 -0.10547,-0.101562 -0.24609,-0.15625 -0.42187,-0.15625 -0.125,0 -0.25782,0.02344 -0.39063,0.0625 -0.13672,0.04297 -0.28125,0.109376 -0.4375,0.203126 v -0.40625 c 0.15625,-0.0625 0.30078,-0.109376 0.4375,-0.140626 0.14453,-0.03125 0.27344,-0.04687 0.39063,-0.04687 0.30078,0 0.53906,0.07812 0.71875,0.234374 0.17578,0.148438 0.26562,0.34375 0.26562,0.59375 0,0.125 -0.0234,0.242188 -0.0625,0.34375 -0.043,0.105469 -0.125,0.230469 -0.25,0.375 -0.0312,0.04297 -0.13672,0.15625 -0.3125,0.34375 -0.16797,0.179688 -0.41406,0.429688 -0.73437,0.75 z m 0,0"
     id="path139" />
  <path
     style="fill:#cc5c00;fill-opacity:1;fill-rule:nonzero;stroke:none"
     d="m 152.95703,58.585938 c -0.26172,0.449218 -0.45312,0.890624 -0.57812,1.328124 -0.125,0.4375 -0.1875,0.882813 -0.1875,1.328126 0,0.460937 0.0625,0.914062 0.1875,1.359374 0.125,0.4375 0.3164,0.878907 0.57812,1.328126 h -0.46875 c -0.29297,-0.460938 -0.51172,-0.910157 -0.65625,-1.359376 -0.14844,-0.445312 -0.21875,-0.890624 -0.21875,-1.328124 0,-0.425782 0.0703,-0.859376 0.21875,-1.296876 0.14453,-0.445312 0.36328,-0.898437 0.65625,-1.359374 z m 0,0"
     id="path141" />
  <path
     style="fill:#cc5c00;fill-opacity:1;fill-rule:nonzero;stroke:none"
     d="m 154.35937,58.914062 v 0.9375 h 1.10938 v 0.421876 h -1.10938 v 1.78125 c 0,0.261718 0.0352,0.433593 0.10938,0.515624 0.0703,0.07422 0.22266,0.109376 0.45312,0.109376 h 0.54688 v 0.453124 h -0.54688 c -0.41796,0 -0.70312,-0.07812 -0.85937,-0.234374 -0.15625,-0.15625 -0.23438,-0.4375 -0.23438,-0.84375 v -1.78125 h -0.40625 v -0.421876 h 0.40625 v -0.9375 z m 0,0"
     id="path143" />
  <path
     style="fill:#cc5c00;fill-opacity:1;fill-rule:nonzero;stroke:none"
     d="m 155.92969,58.585938 h 0.46875 c 0.28906,0.460937 0.50781,0.914062 0.65625,1.359374 0.14453,0.4375 0.21875,0.871094 0.21875,1.296876 0,0.4375 -0.0742,0.882812 -0.21875,1.328124 -0.14844,0.449219 -0.36719,0.898438 -0.65625,1.359376 h -0.46875 c 0.25781,-0.449219 0.45312,-0.890626 0.57812,-1.328126 0.125,-0.445312 0.1875,-0.898437 0.1875,-1.359374 0,-0.445313 -0.0625,-0.890626 -0.1875,-1.328126 -0.125,-0.4375 -0.32031,-0.878906 -0.57812,-1.328124 z m 0,0"
     id="path145" />
  <path
     style="fill:#1e4a85;fill-opacity:1;fill-rule:nonzero;stroke:none"
     d="m 146.49219,65.554688 c -0.29297,0.04297 -0.53125,0.152343 -0.71875,0.328124 -0.25,0.21875 -0.375,0.523438 -0.375,0.90625 0,0.386719 0.125,0.695313 0.375,0.921876 0.1875,0.167968 0.42578,0.273437 0.71875,0.3125 z m 0.59375,2.46875 c 0.28906,-0.03906 0.53515,-0.144532 0.73437,-0.3125 0.25,-0.226563 0.375,-0.535157 0.375,-0.921876 0,-0.382812 -0.125,-0.6875 -0.375,-0.90625 -0.19922,-0.175781 -0.44531,-0.285156 -0.73437,-0.328124 z m -0.59375,0.484374 c -0.46875,-0.03906 -0.85938,-0.191406 -1.17188,-0.453124 -0.36719,-0.3125 -0.54687,-0.734376 -0.54687,-1.265626 0,-0.53125 0.17968,-0.953124 0.54687,-1.265624 0.30078,-0.257813 0.69141,-0.410157 1.17188,-0.453126 v -0.46875 h 0.59375 v 0.46875 c 0.47656,0.04297 0.86718,0.195313 1.17187,0.453126 0.375,0.3125 0.5625,0.734374 0.5625,1.265624 0,0.53125 -0.1875,0.953126 -0.5625,1.265626 -0.30469,0.261718 -0.69531,0.417968 -1.17187,0.46875 v 0.453124 h -0.59375 z m 0,0"
     id="path147" />
  <path
     style="fill:#1e4a85;fill-opacity:1;fill-rule:nonzero;stroke:none"
     d="m 150.42578,68.507812 c 0.1875,0.04297 0.33203,0.132813 0.4375,0.265626 0.10156,0.125 0.15625,0.28125 0.15625,0.46875 0,0.28125 -0.10156,0.507812 -0.29687,0.671874 -0.19922,0.15625 -0.48047,0.234376 -0.84375,0.234376 -0.11719,0 -0.24219,-0.01563 -0.375,-0.04688 -0.125,-0.01953 -0.25782,-0.05469 -0.39063,-0.109374 v -0.375 c 0.10156,0.0625 0.21875,0.109374 0.34375,0.140624 0.13281,0.03125 0.27344,0.04688 0.42188,0.04688 0.23828,0 0.42187,-0.04688 0.54687,-0.140626 0.13281,-0.09375 0.20313,-0.234374 0.20313,-0.421874 0,-0.175782 -0.0625,-0.3125 -0.1875,-0.40625 -0.11719,-0.09375 -0.27735,-0.140626 -0.48438,-0.140626 h -0.34375 v -0.328124 h 0.35938 c 0.1875,0 0.33203,-0.03516 0.4375,-0.109376 0.10156,-0.08203 0.15625,-0.195312 0.15625,-0.34375 0,-0.144531 -0.0547,-0.257812 -0.15625,-0.34375 -0.10547,-0.08203 -0.25782,-0.125 -0.45313,-0.125 -0.11719,0 -0.23437,0.01563 -0.35937,0.04688 -0.125,0.02344 -0.26172,0.05469 -0.40625,0.09375 v -0.34375 c 0.15625,-0.03906 0.29687,-0.07031 0.42187,-0.09375 0.13281,-0.01953 0.25781,-0.03125 0.375,-0.03125 0.30078,0 0.53516,0.07031 0.70313,0.203124 0.17578,0.136719 0.26562,0.320313 0.26562,0.546876 0,0.167968 -0.0469,0.308593 -0.14062,0.421874 -0.0937,0.105469 -0.22657,0.179688 -0.39063,0.21875 z m 0,0"
     id="path149" />
  <path
     style="fill:#1e4a85;fill-opacity:1;fill-rule:nonzero;stroke:none"
     d="m 152.95703,64.429688 c -0.26172,0.449218 -0.45312,0.890624 -0.57812,1.328124 -0.125,0.4375 -0.1875,0.882813 -0.1875,1.328126 0,0.460937 0.0625,0.914062 0.1875,1.359374 0.125,0.4375 0.3164,0.878907 0.57812,1.328126 h -0.46875 c -0.29297,-0.460938 -0.51172,-0.910157 -0.65625,-1.359376 -0.14844,-0.445312 -0.21875,-0.890624 -0.21875,-1.328124 0,-0.425782 0.0703,-0.859376 0.21875,-1.296876 0.14453,-0.445312 0.36328,-0.898437 0.65625,-1.359374 z m 0,0"
     id="path151" />
  <path
     style="fill:#1e4a85;fill-opacity:1;fill-rule:nonzero;stroke:none"
     d="m 154.35937,64.757812 v 0.9375 h 1.10938 v 0.421876 h -1.10938 v 1.78125 c 0,0.261718 0.0352,0.433593 0.10938,0.515624 0.0703,0.07422 0.22266,0.109376 0.45312,0.109376 h 0.54688 v 0.453124 h -0.54688 c -0.41796,0 -0.70312,-0.07812 -0.85937,-0.234374 -0.15625,-0.15625 -0.23438,-0.4375 -0.23438,-0.84375 v -1.78125 h -0.40625 v -0.421876 h 0.40625 v -0.9375 z m 0,0"
     id="path153" />
  <path
     style="fill:#1e4a85;fill-opacity:1;fill-rule:nonzero;stroke:none"
     d="m 155.92969,64.429688 h 0.46875 c 0.28906,0.460937 0.50781,0.914062 0.65625,1.359374 0.14453,0.4375 0.21875,0.871094 0.21875,1.296876 0,0.4375 -0.0742,0.882812 -0.21875,1.328124 -0.14844,0.449219 -0.36719,0.898438 -0.65625,1.359376 h -0.46875 c 0.25781,-0.449219 0.45312,-0.890626 0.57812,-1.328126 0.125,-0.445312 0.1875,-0.898437 0.1875,-1.359374 0,-0.445313 -0.0625,-0.890626 -0.1875,-1.328126 -0.125,-0.4375 -0.32031,-0.878906 -0.57812,-1.328124 z m 0,0"
     id="path155" />
  <path
     style="fill:#5c3363;fill-opacity:1;fill-rule:nonzero;stroke:none"
     d="m 146.49219,71.398438 c -0.29297,0.04297 -0.53125,0.152343 -0.71875,0.328124 -0.25,0.21875 -0.375,0.523438 -0.375,0.90625 0,0.386719 0.125,0.695313 0.375,0.921876 0.1875,0.167968 0.42578,0.273437 0.71875,0.3125 z m 0.59375,2.46875 c 0.28906,-0.03906 0.53515,-0.144532 0.73437,-0.3125 0.25,-0.226563 0.375,-0.535157 0.375,-0.921876 0,-0.382812 -0.125,-0.6875 -0.375,-0.90625 -0.19922,-0.175781 -0.44531,-0.285156 -0.73437,-0.328124 z m -0.59375,0.484374 c -0.46875,-0.03906 -0.85938,-0.191406 -1.17188,-0.453124 -0.36719,-0.3125 -0.54687,-0.734376 -0.54687,-1.265626 0,-0.53125 0.17968,-0.953124 0.54687,-1.265624 0.30078,-0.257813 0.69141,-0.410157 1.17188,-0.453126 v -0.46875 h 0.59375 v 0.46875 c 0.47656,0.04297 0.86718,0.195313 1.17187,0.453126 0.375,0.3125 0.5625,0.734374 0.5625,1.265624 0,0.53125 -0.1875,0.953126 -0.5625,1.265626 -0.30469,0.261718 -0.69531,0.417968 -1.17187,0.46875 v 0.453124 h -0.59375 z m 0,0"
     id="path157" />
  <path
     style="fill:#5c3363;fill-opacity:1;fill-rule:nonzero;stroke:none"
     d="m 150.31641,73.355469 -1,1.5625 h 1 z m -0.10938,-0.34375 h 0.5 v 1.90625 h 0.42188 v 0.328125 h -0.42188 v 0.6875 h -0.39062 v -0.6875 h -1.3125 v -0.375 z m 0,0"
     id="path159" />
  <path
     style="fill:#5c3363;fill-opacity:1;fill-rule:nonzero;stroke:none"
     d="m 152.95703,70.273438 c -0.26172,0.449218 -0.45312,0.890624 -0.57812,1.328124 -0.125,0.4375 -0.1875,0.882813 -0.1875,1.328126 0,0.460937 0.0625,0.914062 0.1875,1.359374 0.125,0.4375 0.3164,0.878907 0.57812,1.328126 h -0.46875 c -0.29297,-0.460938 -0.51172,-0.910157 -0.65625,-1.359376 -0.14844,-0.445312 -0.21875,-0.890624 -0.21875,-1.328124 0,-0.425782 0.0703,-0.859376 0.21875,-1.296876 0.14453,-0.445312 0.36328,-0.898437 0.65625,-1.359374 z m 0,0"
     id="path161" />
  <path
     style="fill:#5c3363;fill-opacity:1;fill-rule:nonzero;stroke:none"
     d="m 154.35937,70.601562 v 0.9375 h 1.10938 v 0.421876 h -1.10938 v 1.78125 c 0,0.261718 0.0352,0.433593 0.10938,0.515624 0.0703,0.07422 0.22266,0.109376 0.45312,0.109376 h 0.54688 v 0.453124 h -0.54688 c -0.41796,0 -0.70312,-0.07812 -0.85937,-0.234374 -0.15625,-0.15625 -0.23438,-0.4375 -0.23438,-0.84375 v -1.78125 h -0.40625 v -0.421876 h 0.40625 v -0.9375 z m 0,0"
     id="path163" />
  <path
     style="fill:#5c3363;fill-opacity:1;fill-rule:nonzero;stroke:none"
     d="m 155.92969,70.273438 h 0.46875 c 0.28906,0.460937 0.50781,0.914062 0.65625,1.359374 0.14453,0.4375 0.21875,0.871094 0.21875,1.296876 0,0.4375 -0.0742,0.882812 -0.21875,1.328124 -0.14844,0.449219 -0.36719,0.898438 -0.65625,1.359376 h -0.46875 c 0.25781,-0.449219 0.45312,-0.890626 0.57812,-1.328126 0.125,-0.445312 0.1875,-0.898437 0.1875,-1.359374 0,-0.445313 -0.0625,-0.890626 -0.1875,-1.328126 -0.125,-0.4375 -0.32031,-0.878906 -0.57812,-1.328124 z m 0,0"
     id="path165" />
  <path
     style="fill:none;stroke:#ffffff;stroke-width:0.799999;stroke-linecap:round;stroke-linejoin:miter;stroke-miterlimit:4;stroke-opacity:1"
     d="M 140.83203,66.792969 V 61.597652"
     id="path167" />
  <path
     style="fill:none;stroke:#ffffff;stroke-width:0.799999;stroke-linecap:round;stroke-linejoin:miter;stroke-miterlimit:4;stroke-opacity:1"
     d="m 143.42969,64.195312 -5.19532,-3e-6"
     id="path169" />
  <path
     style="fill:none;stroke:#4c9905;stroke-width:0.783069;stroke-linecap:butt;stroke-linejoin:miter;stroke-miterlimit:4;stroke-opacity:1"
     d="m 48.417969,71.910156 h 0.3125 c 1.984375,0 2.316406,-9.734375 2.316406,-11.347656 0,-1.632812 1.527344,-1.585938 1.550781,0 0.02344,1.582031 0.675782,11.320312 2.910156,11.320312 h 7.660157"
     id="path171" />
  <path
     style="fill:none;stroke:#cc5c00;stroke-width:0.783069;stroke-linecap:butt;stroke-linejoin:miter;stroke-miterlimit:4;stroke-opacity:1"
     d="m 50.03125,71.910156 h 2.082031 c 1.984375,0 2.316407,-9.734375 2.316407,-11.347656 0,-1.632812 1.523437,-1.585938 1.546874,0 C 56,62.144531 56.65625,71.882812 58.890625,71.882812 h 5.65625"
     id="path173" />
  <path
     style="fill:none;stroke:#1e4a85;stroke-width:0.783069;stroke-linecap:butt;stroke-linejoin:miter;stroke-miterlimit:4;stroke-opacity:1"
     d="m 53.394531,71.910156 h 2.082031 c 1.984376,0 2.316407,-9.734375 2.316407,-11.347656 0,-1.632812 1.523437,-1.585938 1.546875,0 0.02344,1.582031 0.679687,11.320312 2.914062,11.320312 h 3.507813"
     id="path175" />
  <path
     style="fill:none;stroke:#5c3363;stroke-width:0.783069;stroke-linecap:butt;stroke-linejoin:miter;stroke-miterlimit:4;stroke-opacity:1"
     d="M 66.792969,71.910156 H 65.066406 C 63.078125,71.910156 62.75,62.175781 62.75,60.5625 c 0,-1.632812 -1.527344,-1.585938 -1.550781,0 -0.02344,1.582031 -0.679688,11.320312 -2.914063,11.320312 h -8.15625"
     id="path177" />
  <path
     style="fill:none;stroke:#ffffff;stroke-width:0.8;stroke-linecap:butt;stroke-linejoin:miter;stroke-miterlimit:4;stroke-opacity:1"
     d="M 48.457031,71.96875 V 57.042969"
     id="path181" />
  <path
     style="fill:none;stroke:#ffffff;stroke-width:0.8;stroke-linecap:butt;stroke-linejoin:miter;stroke-miterlimit:4;stroke-opacity:1"
     d="M 65.738281,71.90625 H 47.519531"
     id="path183" />
  <path
     style="fill:#4c9905;fill-opacity:1;fill-rule:nonzero;stroke:none"
     d="m 51.199219,73.632812 v 0.453126 h -0.515625 c -0.199219,0 -0.335938,0.04297 -0.40625,0.125 -0.07422,0.07422 -0.109375,0.210937 -0.109375,0.40625 v 0.296874 h 0.875 v 0.421876 h -0.875 v 2.859374 h -0.546875 v -2.859374 h -0.515625 v -0.421876 h 0.515625 v -0.234374 c 0,-0.363282 0.08203,-0.628907 0.25,-0.796876 0.164062,-0.164062 0.4375,-0.25 0.8125,-0.25 z m 0,0"
     id="path187" />
  <g
     clip-path="url(#clip1)"
     clip-rule="nonzero"
     id="g191">
    <path
       style="fill:#4c9905;fill-opacity:1;fill-rule:nonzero;stroke:none"
       d="m 51.417969,78.976562 h 0.640625 v -2.234374 l -0.703125,0.140624 v -0.359374 l 0.703125,-0.140626 h 0.390625 v 2.59375 h 0.640625 v 0.328126 h -1.671875 z m 0,0"
       id="path189" />
  </g>
  <path
     style="fill:none;stroke:#ffffff;stroke-width:0.8;stroke-linecap:butt;stroke-linejoin:miter;stroke-miterlimit:4;stroke-opacity:1"
     d="M 51.808594,73.085938 V 70.859375"
     id="path193" />
  <path
     style="fill:#cc5c00;fill-opacity:1;fill-rule:nonzero;stroke:none"
     d="m 55.429688,73.632812 v 0.453126 h -0.515626 c -0.199218,0 -0.335937,0.04297 -0.40625,0.125 -0.07422,0.07422 -0.109374,0.210937 -0.109374,0.40625 v 0.296874 h 0.875 v 0.421876 h -0.875 v 2.859374 h -0.546876 v -2.859374 h -0.515624 v -0.421876 h 0.515624 v -0.234374 c 0,-0.363282 0.08203,-0.628907 0.25,-0.796876 0.164063,-0.164062 0.4375,-0.25 0.8125,-0.25 z m 0,0"
     id="path195" />
  <g
     clip-path="url(#clip2)"
     clip-rule="nonzero"
     id="g199">
    <path
       style="fill:#cc5c00;fill-opacity:1;fill-rule:nonzero;stroke:none"
       d="m 55.914062,78.976562 h 1.375 v 0.328126 h -1.84375 v -0.328126 c 0.144532,-0.15625 0.347657,-0.363281 0.609376,-0.625 0.257812,-0.257812 0.421874,-0.429687 0.484374,-0.515624 0.125,-0.132813 0.210938,-0.25 0.265626,-0.34375 0.05078,-0.101563 0.07812,-0.203126 0.07812,-0.296876 0,-0.15625 -0.05859,-0.28125 -0.171874,-0.375 -0.105469,-0.101562 -0.246094,-0.15625 -0.421876,-0.15625 -0.125,0 -0.257812,0.02344 -0.390624,0.0625 -0.136719,0.04297 -0.28125,0.109376 -0.4375,0.203126 v -0.40625 c 0.15625,-0.0625 0.300781,-0.109376 0.4375,-0.140626 0.144531,-0.03125 0.273437,-0.04687 0.390624,-0.04687 0.300782,0 0.539063,0.07812 0.71875,0.234374 0.175782,0.148438 0.265626,0.34375 0.265626,0.59375 0,0.125 -0.02344,0.242188 -0.0625,0.34375 -0.04297,0.105469 -0.125,0.230469 -0.25,0.375 -0.03125,0.04297 -0.136719,0.15625 -0.3125,0.34375 -0.167969,0.179688 -0.414063,0.429688 -0.734376,0.75 z m 0,0"
       id="path197" />
  </g>
  <path
     style="fill:none;stroke:#ffffff;stroke-width:0.8;stroke-linecap:butt;stroke-linejoin:miter;stroke-miterlimit:4;stroke-opacity:1"
     d="M 55.140625,73.085938 V 70.859375"
     id="path201" />
  <path
     style="fill:#1e4a85;fill-opacity:1;fill-rule:nonzero;stroke:none"
     d="m 59.613281,73.632812 v 0.453126 h -0.515625 c -0.199218,0 -0.335937,0.04297 -0.40625,0.125 -0.07422,0.07422 -0.109375,0.210937 -0.109375,0.40625 v 0.296874 h 0.875 v 0.421876 h -0.875 v 2.859374 h -0.546875 v -2.859374 h -0.515625 v -0.421876 h 0.515625 v -0.234374 c 0,-0.363282 0.08203,-0.628907 0.25,-0.796876 0.164063,-0.164062 0.4375,-0.25 0.8125,-0.25 z m 0,0"
     id="path203" />
  <g
     clip-path="url(#clip3)"
     clip-rule="nonzero"
     id="g207">
    <path
       style="fill:#1e4a85;fill-opacity:1;fill-rule:nonzero;stroke:none"
       d="m 60.953125,77.726562 c 0.1875,0.04297 0.332031,0.132813 0.4375,0.265626 0.101563,0.125 0.15625,0.28125 0.15625,0.46875 0,0.28125 -0.101563,0.507812 -0.296875,0.671874 -0.199219,0.15625 -0.480469,0.234376 -0.84375,0.234376 -0.117188,0 -0.242188,-0.01563 -0.375,-0.04688 -0.125,-0.01953 -0.257812,-0.05469 -0.390625,-0.109374 v -0.375 c 0.101563,0.0625 0.21875,0.109374 0.34375,0.140624 0.132813,0.03125 0.273437,0.04688 0.421875,0.04688 0.238281,0 0.421875,-0.04688 0.546875,-0.140626 0.132813,-0.09375 0.203125,-0.234374 0.203125,-0.421874 0,-0.175782 -0.0625,-0.3125 -0.1875,-0.40625 -0.117188,-0.09375 -0.277344,-0.140626 -0.484375,-0.140626 h -0.34375 V 77.585938 H 60.5 c 0.1875,0 0.332031,-0.03516 0.4375,-0.109376 0.101562,-0.08203 0.15625,-0.195312 0.15625,-0.34375 0,-0.144531 -0.05469,-0.257812 -0.15625,-0.34375 -0.105469,-0.08203 -0.257812,-0.125 -0.453125,-0.125 -0.117187,0 -0.234375,0.01563 -0.359375,0.04688 -0.125,0.02344 -0.261719,0.05469 -0.40625,0.09375 v -0.34375 c 0.15625,-0.03906 0.296875,-0.07031 0.421875,-0.09375 0.132813,-0.01953 0.257813,-0.03125 0.375,-0.03125 0.300781,0 0.535156,0.07031 0.703125,0.203124 0.175781,0.136719 0.265625,0.320313 0.265625,0.546876 0,0.167968 -0.04687,0.308593 -0.140625,0.421874 -0.09375,0.105469 -0.226562,0.179688 -0.390625,0.21875 z m 0,0"
       id="path205" />
  </g>
  <path
     style="fill:none;stroke:#ffffff;stroke-width:0.8;stroke-linecap:butt;stroke-linejoin:miter;stroke-miterlimit:4;stroke-opacity:1"
     d="M 58.425781,73.085938 V 70.859375"
     id="path209" />
  <path
     style="fill:#5c3363;fill-opacity:1;fill-rule:nonzero;stroke:none"
     d="m 63.785156,73.632812 v 0.453126 h -0.515625 c -0.199219,0 -0.335937,0.04297 -0.40625,0.125 -0.07422,0.07422 -0.109375,0.210937 -0.109375,0.40625 v 0.296874 h 0.875 v 0.421876 h -0.875 v 2.859374 h -0.546875 v -2.859374 h -0.515625 v -0.421876 h 0.515625 v -0.234374 c 0,-0.363282 0.08203,-0.628907 0.25,-0.796876 0.164063,-0.164062 0.4375,-0.25 0.8125,-0.25 z m 0,0"
     id="path211" />
  <g
     clip-path="url(#clip4)"
     clip-rule="nonzero"
     id="g215">
    <path
       style="fill:#5c3363;fill-opacity:1;fill-rule:nonzero;stroke:none"
       d="m 65.015625,76.726562 -1,1.5625 h 1 z m -0.109375,-0.34375 h 0.5 v 1.90625 h 0.421875 v 0.328126 H 65.40625 v 0.6875 h -0.390625 v -0.6875 h -1.3125 v -0.375 z m 0,0"
       id="path213" />
  </g>
  <path
     style="fill:none;stroke:#ffffff;stroke-width:0.8;stroke-linecap:butt;stroke-linejoin:miter;stroke-miterlimit:4;stroke-opacity:1"
     d="M 62.007812,73.085938 V 70.859375"
     id="path217" />
  <path
     style="fill:none;fill-opacity:1;fill-rule:nonzero;stroke:#ffffff;stroke-width:0.6;stroke-linecap:butt;stroke-linejoin:miter;stroke-miterlimit:4;stroke-opacity:1"
     d="m 36.679688,64.386719 c -0.140626,2.214843 1.542968,4.121093 3.757812,4.261719 2.214844,0.140624 4.128906,-1.542969 4.265625,-3.757813 0.140625,-2.214844 -1.542969,-4.121094 -3.757813,-4.261719 -2.21875,-0.136718 -4.128906,1.542969 -4.265624,3.757813"
     id="path221" />
  <path
     style="fill:none;stroke:#ffffff;stroke-width:0.6;stroke-linecap:round;stroke-linejoin:miter;stroke-miterlimit:4;stroke-opacity:1"
     d="m 38.855469,66.476562 3.671875,-3.675781"
     id="path223" />
  <path
     style="fill:none;stroke:#ffffff;stroke-width:0.6;stroke-linecap:round;stroke-linejoin:miter;stroke-miterlimit:4;stroke-opacity:1"
     d="M 42.527344,66.476562 38.855469,62.800781"
     id="path225" />
  <path
     style="fill:none;stroke:#ffffff;stroke-width:0.6;stroke-linecap:round;stroke-linejoin:miter;stroke-miterlimit:4;stroke-opacity:1"
     d="M 40.691406,67.238281 V 62.042969"
     id="path227" />
  <path
     style="fill:none;stroke:#ffffff;stroke-width:0.6;stroke-linecap:round;stroke-linejoin:miter;stroke-miterlimit:4;stroke-opacity:1"
     d="M 43.289062,64.640625 H 38.09375"
     id="path229" />
  <path
     style="fill:none;stroke:#ffffff;stroke-width:0.8;stroke-linecap:round;stroke-linejoin:miter;stroke-miterlimit:4;stroke-opacity:1"
     d="m 77.671875,65.617188 4.242187,-4.238282"
     id="path231" />
  <path
     style="fill:none;stroke:#ffffff;stroke-width:0.8;stroke-linecap:round;stroke-linejoin:miter;stroke-miterlimit:4;stroke-opacity:1"
     d="M 81.914062,65.617188 77.671875,61.378906"
     id="path233" />
  <path
     style="fill:none;stroke:#ffffff;stroke-width:2.25;stroke-linecap:butt;stroke-linejoin:miter;stroke-miterlimit:4;stroke-opacity:1"
     d="M 39.050781,26.28125 V 42.132812"
     id="path235" />
  <path
     style="fill:none;stroke:#ffffff;stroke-width:0.708661;stroke-linecap:butt;stroke-linejoin:miter;stroke-miterlimit:4;stroke-opacity:1"
     d="m 33.042969,27.066406 4.03125,1.679688"
     id="path237" />
  <path
     style="fill:none;stroke:#ffffff;stroke-width:0.708661;stroke-linecap:butt;stroke-linejoin:miter;stroke-miterlimit:4;stroke-opacity:1"
     d="m 33.042969,29.414062 4.03125,1.675782"
     id="path239" />
  <path
     style="fill:none;stroke:#ffffff;stroke-width:0.708661;stroke-linecap:butt;stroke-linejoin:miter;stroke-miterlimit:4;stroke-opacity:1"
     d="m 33.042969,31.757812 4.03125,1.679688"
     id="path241" />
  <path
     style="fill:none;stroke:#ffffff;stroke-width:0.708661;stroke-linecap:butt;stroke-linejoin:miter;stroke-miterlimit:4;stroke-opacity:1"
     d="m 33.042969,34.101562 4.03125,1.679688"
     id="path243" />
  <path
     style="fill:none;stroke:#ffffff;stroke-width:0.708661;stroke-linecap:butt;stroke-linejoin:miter;stroke-miterlimit:4;stroke-opacity:1"
     d="M 33.042969,36.449219 37.074219,38.125"
     id="path245" />
  <path
     style="fill:none;stroke:#ffffff;stroke-width:0.708661;stroke-linecap:butt;stroke-linejoin:miter;stroke-miterlimit:4;stroke-opacity:1"
     d="m 33.042969,38.792969 4.03125,1.679687"
     id="path247" />
  <path
     style="fill:none;fill-opacity:1;fill-rule:evenodd;stroke:#ffffff;stroke-width:0.8;stroke-linecap:butt;stroke-linejoin:miter;stroke-miterlimit:10;stroke-opacity:1"
     d="m 92.667969,41.109375 18.734371,-0.05469 V 27.113281 l -18.734371,0.05469 z m 0,0"
     id="path267" />
  <path
     style="fill:none;stroke:#878a85;stroke-width:0.6;stroke-linecap:butt;stroke-linejoin:miter;stroke-miterlimit:4;stroke-opacity:1"
     d="m 95.699219,38.53125 v -8.75"
     id="path269" />
  <path
     style="fill:none;stroke:#878a85;stroke-width:0.6;stroke-linecap:butt;stroke-linejoin:miter;stroke-miterlimit:4;stroke-opacity:1"
     d="M 104.28906,38.65625 H 94.851562"
     id="path271" />
  <path
     style="fill:#878a85;fill-opacity:1;fill-rule:nonzero;stroke:none"
     d="m 95.699219,28.582031 -0.570313,0.847657 -0.566406,0.847656 h 2.28125 l -0.570312,-0.847656 z m 0,0"
     id="path273" />
  <path
     style="fill:#878a85;fill-opacity:1;fill-rule:nonzero;stroke:none"
     d="m 105.42578,38.65625 -1.69531,-1.140625 v 2.285156 l 0.84766,-0.574219 z m 0,0"
     id="path275" />
  <path
     style="fill:#ffffff;fill-opacity:1;fill-rule:nonzero;stroke:none"
     d="M 100.45313,34.097656 H 101.25 v -2.78125 l -0.875,0.1875 v -0.453125 l 0.875,-0.171875 h 0.5 v 3.21875 h 0.79688 v 0.421875 h -2.09375 z m 0,0"
     id="path277" />
  <path
     style="fill:#ffffff;fill-opacity:1;fill-rule:nonzero;stroke:none"
     d="m 104.27734,30.878906 h 0.42188 l -1.26563,4.109375 h -0.42187 z m 0,0"
     id="path279" />
  <path
     style="fill:#ffffff;fill-opacity:1;fill-rule:nonzero;stroke:none"
     d="m 106.92188,31.863281 v 0.421875 c -0.125,-0.0625 -0.26172,-0.109375 -0.40625,-0.140625 -0.13672,-0.03125 -0.27735,-0.04687 -0.42188,-0.04687 -0.21875,0 -0.38672,0.03906 -0.5,0.109375 -0.11719,0.0625 -0.17187,0.164063 -0.17187,0.296875 0,0.105469 0.0391,0.1875 0.125,0.25 0.082,0.05469 0.24218,0.109375 0.48437,0.171875 l 0.15625,0.03125 c 0.3125,0.0625 0.53516,0.15625 0.67188,0.28125 0.13281,0.125 0.20312,0.304688 0.20312,0.53125 0,0.25 -0.10156,0.453125 -0.29687,0.609375 -0.19922,0.144532 -0.47657,0.21875 -0.82813,0.21875 -0.14844,0 -0.30469,-0.01563 -0.46875,-0.04687 -0.15625,-0.03125 -0.32422,-0.07031 -0.5,-0.125 v -0.46875 c 0.16406,0.08594 0.32813,0.148438 0.48438,0.1875 0.16406,0.04297 0.32812,0.0625 0.48437,0.0625 0.21875,0 0.38281,-0.03125 0.5,-0.09375 0.11328,-0.07031 0.17188,-0.175781 0.17188,-0.3125 0,-0.125 -0.043,-0.21875 -0.125,-0.28125 -0.0859,-0.0625 -0.26563,-0.125 -0.54688,-0.1875 l -0.15625,-0.03125 C 105.5,33.238281 105.29688,33.152344 105.17188,33.035156 105.05469,32.910156 105,32.738281 105,32.519531 c 0,-0.25 0.0859,-0.441406 0.26563,-0.578125 0.1875,-0.144531 0.44531,-0.21875 0.78125,-0.21875 0.16406,0 0.32031,0.01172 0.46875,0.03125 0.14453,0.02344 0.28125,0.05859 0.40625,0.109375 z m 0,0"
     id="path281" />
  <path
     style="fill:none;stroke:#ffffff;stroke-width:0.8;stroke-linecap:butt;stroke-linejoin:miter;stroke-miterlimit:4;stroke-opacity:1"
     d="m 94.628906,31.007812 7.800784,8.5"
     id="path299" />
  <path
     style="fill:none;stroke:#ffffff;stroke-width:1.2;stroke-linecap:butt;stroke-linejoin:miter;stroke-miterlimit:4;stroke-opacity:1"
     d="M 13.238281,34.207031 H 26.945312"
     id="path351" />
  <path
     style="fill:none;stroke:#ffffff;stroke-width:1.2;stroke-linecap:butt;stroke-linejoin:miter;stroke-miterlimit:4;stroke-opacity:1"
     d="m 136.67187,34.15625 h 13.70704"
     id="path371" />
  <g
     id="g6697"
     style="fill:#ffffff">
    <path
       style="fill:#ffffff;fill-opacity:1;fill-rule:nonzero;stroke:none"
       d="m 119.52344,64.0625 -5.5625,-2.59375 v 5.191406 l 2.78125,-1.300781 z m 0,0"
       id="path23" />
    <path
       style="fill:#ffffff;fill-opacity:1;fill-rule:nonzero;stroke:none"
       d="m 51.132812,31.945312 h 0.59375 v 3.875 h 2.125 v 0.5 h -2.71875 z m 0,0"
       id="path55" />
    <path
       style="fill:#ffffff;fill-opacity:1;fill-rule:nonzero;stroke:none"
       d="m 54.472656,31.945312 h 0.796875 l 1.9375,3.65625 v -3.65625 h 0.578125 v 4.375 h -0.796875 l -1.953125,-3.65625 v 3.65625 h -0.5625 z m 0,0"
       id="path57" />
    <path
       style="fill:#ffffff;fill-opacity:1;fill-rule:nonzero;stroke:none"
       d="m 60.414062,32.523438 -0.796874,2.1875 h 1.609374 z m -0.328124,-0.578126 h 0.671874 l 1.671876,4.375 h -0.625 l -0.390626,-1.125 h -1.984374 l -0.390626,1.125 h -0.625 z m 0,0"
       id="path59" />
    <path
       style="fill:#ffffff;fill-opacity:1;fill-rule:nonzero;stroke:none"
       d="m 121.25391,32.519531 -0.79688,2.1875 h 1.60938 z m -0.32813,-0.578125 h 0.67188 l 1.67187,4.375 h -0.625 l -0.39062,-1.125 h -1.98438 l -0.39062,1.125 h -0.625 z m 0,0"
       id="path63" />
    <path
       style="fill:#ffffff;fill-opacity:1;fill-rule:nonzero;stroke:none"
       d="m 124.49609,32.425781 v 3.40625 h 0.70313 c 0.60156,0 1.04687,-0.132812 1.32812,-0.40625 0.28125,-0.28125 0.42188,-0.710937 0.42188,-1.296875 0,-0.59375 -0.14063,-1.023437 -0.42188,-1.296875 -0.28125,-0.269531 -0.72656,-0.40625 -1.32812,-0.40625 z m -0.59375,-0.484375 h 1.21875 c 0.84375,0 1.46094,0.179688 1.85938,0.53125 0.39453,0.355469 0.59375,0.90625 0.59375,1.65625 0,0.75 -0.19922,1.304688 -0.59375,1.65625 -0.39844,0.355469 -1.01563,0.53125 -1.85938,0.53125 h -1.21875 z m 0,0"
       id="path65" />
    <path
       style="fill:#ffffff;fill-opacity:1;fill-rule:nonzero;stroke:none"
       d="m 131.78516,32.285156 v 0.625 c -0.19922,-0.1875 -0.41407,-0.328125 -0.64063,-0.421875 -0.21875,-0.09375 -0.45312,-0.140625 -0.70312,-0.140625 -0.5,0 -0.88672,0.15625 -1.15625,0.46875 -0.26172,0.304688 -0.39063,0.742188 -0.39063,1.3125 0,0.585938 0.12891,1.027344 0.39063,1.328125 0.26953,0.304688 0.65625,0.453125 1.15625,0.453125 0.25,0 0.48437,-0.03906 0.70312,-0.125 0.22656,-0.09375 0.44141,-0.234375 0.64063,-0.421875 v 0.609375 c -0.21094,0.148438 -0.42969,0.257813 -0.65625,0.328125 -0.23047,0.0625 -0.47657,0.09375 -0.73438,0.09375 -0.65625,0 -1.17969,-0.195312 -1.5625,-0.59375 -0.375,-0.40625 -0.5625,-0.960937 -0.5625,-1.671875 0,-0.695312 0.1875,-1.25 0.5625,-1.65625 0.38281,-0.40625 0.90625,-0.609375 1.5625,-0.609375 0.25781,0 0.50391,0.03906 0.73438,0.109375 0.23828,0.0625 0.45703,0.167969 0.65625,0.3125 z m 0,0"
       id="path67" />
    <path
       style="fill:#ffffff;fill-opacity:1;fill-rule:nonzero;stroke:none"
       d="m 10.8125,55.582031 -0.628906,0.9375 -0.628906,0.933594 h 2.519531 l -0.628907,-0.933594 z m 0,0"
       id="path69" />
    <path
       style="fill:#ffffff;fill-opacity:1;fill-rule:nonzero;stroke:none"
       d="m 29.351562,71.90625 -0.9375,-0.632812 -0.933593,-0.628907 v 2.523438 l 0.933593,-0.632813 z m 0,0"
       id="path77" />
    <path
       style="fill:#ffffff;fill-opacity:1;fill-rule:nonzero;stroke:none"
       d="m 3.621094,60.101562 c 0,0.574219 -0.199219,1.015626 -0.59375,1.328126 -0.398438,0.3125 -0.960938,0.46875 -1.6875,0.46875 H 0.667969 v 2.25 h -0.67187525 v -5.71875 H 1.480469 c 1.425781,0 2.140625,0.558593 2.140625,1.671874 z m -2.953125,1.234376 h 0.59375 c 0.59375,0 1.019531,-0.09375 1.28125,-0.28125 0.257812,-0.195313 0.390625,-0.503907 0.390625,-0.921876 0,-0.375 -0.125,-0.65625 -0.375,-0.84375 -0.242188,-0.1875 -0.625,-0.28125 -1.15625,-0.28125 H 0.667969 Z m 0,0"
       id="path79" />
    <path
       style="fill:#ffffff;fill-opacity:1;fill-rule:nonzero;stroke:none"
       d="m 4.511719,62.183594 h 0.421875 v 3.5625 H 4.511719 Z m 0,0"
       id="path81" />
    <path
       style="fill:#ffffff;fill-opacity:1;fill-rule:nonzero;stroke:none"
       d="m 8.761719,65.746094 h -0.46875 l -1.953125,-3 h -0.03125 c 0.03125,0.355468 0.046875,0.679687 0.046875,0.96875 v 2.03125 H 5.964844 v -3.5625 h 0.46875 l 1.953125,2.96875 h 0.015625 c 0,-0.03906 -0.00781,-0.179688 -0.015625,-0.421875 -0.011719,-0.238281 -0.015625,-0.40625 -0.015625,-0.5 v -2.046875 h 0.390625 z m 0,0"
       id="path83" />
    <path
       style="fill:#ffffff;fill-opacity:1;fill-rule:nonzero;stroke:none"
       d="m 31.820312,74.195312 c -1.085937,0 -1.625,-0.769531 -1.625,-2.3125 0,-0.613281 0.203126,-1.335937 0.609376,-2.171874 h 0.765624 c -0.375,0.835937 -0.5625,1.5625 -0.5625,2.1875 0,1.125 0.289063,1.6875 0.875,1.6875 0.53125,0 0.796876,-0.695313 0.796876,-2.09375 h 0.65625 c 0,1.398437 0.265624,2.09375 0.796874,2.09375 0.570313,0 0.859376,-0.5625 0.859376,-1.6875 0,-0.625 -0.183594,-1.351563 -0.546876,-2.1875 h 0.765626 c 0.40625,0.835937 0.609374,1.558593 0.609374,2.171874 0,1.542969 -0.542968,2.3125 -1.625,2.3125 -0.710937,0 -1.105468,-0.390624 -1.1875,-1.171874 -0.105468,0.78125 -0.5,1.171874 -1.1875,1.171874 z m 0,0"
       id="path85" />
    <path
       style="fill:#ffffff;fill-opacity:1;fill-rule:nonzero;stroke:none"
       d="m 48.457031,55.582031 -0.628906,0.9375 -0.628906,0.933594 h 2.519531 l -0.628906,-0.933594 z m 0,0"
       id="path179" />
    <path
       style="fill:#ffffff;fill-opacity:1;fill-rule:nonzero;stroke:none"
       d="M 66.996094,71.90625 66.054688,71.273438 65.125,70.644531 v 2.523438 l 0.929688,-0.632813 z m 0,0"
       id="path185" />
    <path
       style="fill:#ffffff;fill-opacity:1;fill-rule:nonzero;stroke:none"
       d="m 69.183594,74.285156 c -1.085938,0 -1.625,-0.769531 -1.625,-2.3125 0,-0.613281 0.203125,-1.335937 0.609375,-2.171875 h 0.765625 c -0.375,0.835938 -0.5625,1.5625 -0.5625,2.1875 0,1.125 0.289062,1.6875 0.875,1.6875 0.53125,0 0.796875,-0.695312 0.796875,-2.09375 h 0.65625 c 0,1.398438 0.265625,2.09375 0.796875,2.09375 0.570312,0 0.859375,-0.5625 0.859375,-1.6875 0,-0.625 -0.183594,-1.351562 -0.546875,-2.1875 h 0.765625 c 0.40625,0.835938 0.609375,1.558594 0.609375,2.171875 0,1.542969 -0.542969,2.3125 -1.625,2.3125 -0.710938,0 -1.105469,-0.390625 -1.1875,-1.171875 -0.105469,0.78125 -0.5,1.171875 -1.1875,1.171875 z m 0,0"
       id="path219" />
    <path
       style="fill:#ffffff;fill-opacity:1;fill-rule:nonzero;stroke:none"
       d="m 23.792969,43.53125 h 2.3125 v 0.40625 h -1.8125 v 1.078125 h 1.734375 V 45.4375 H 24.292969 V 46.75 h 1.859375 v 0.421875 h -2.359375 z m 0,0"
       id="path249" />
    <path
       style="fill:#ffffff;fill-opacity:1;fill-rule:nonzero;stroke:none"
       d="m 26.941406,43.375 h 0.453125 v 3.796875 h -0.453125 z m 0,0"
       id="path251" />
    <path
       style="fill:#ffffff;fill-opacity:1;fill-rule:nonzero;stroke:none"
       d="m 30.671875,45.6875 v 0.21875 h -2.0625 c 0.01953,0.3125 0.113281,0.554688 0.28125,0.71875 0.164063,0.15625 0.394531,0.234375 0.6875,0.234375 0.175781,0 0.34375,-0.01953 0.5,-0.0625 0.164063,-0.03906 0.328125,-0.101563 0.484375,-0.1875 v 0.421875 c -0.15625,0.07422 -0.324219,0.125 -0.5,0.15625 -0.167969,0.03906 -0.339844,0.0625 -0.515625,0.0625 -0.429687,0 -0.773437,-0.125 -1.03125,-0.375 -0.25,-0.257812 -0.375,-0.609375 -0.375,-1.046875 0,-0.445313 0.117187,-0.800781 0.359375,-1.0625 0.238281,-0.257813 0.5625,-0.390625 0.96875,-0.390625 0.375,0 0.664062,0.121094 0.875,0.359375 0.21875,0.230469 0.328125,0.546875 0.328125,0.953125 z m -0.453125,-0.125 c 0,-0.25 -0.07031,-0.445312 -0.203125,-0.59375 -0.136719,-0.144531 -0.3125,-0.21875 -0.53125,-0.21875 -0.25,0 -0.453125,0.07422 -0.609375,0.21875 -0.148438,0.136719 -0.230469,0.335938 -0.25,0.59375 z m 0,0"
       id="path253" />
    <path
       style="fill:#ffffff;fill-opacity:1;fill-rule:nonzero;stroke:none"
       d="m 33.371094,44.546875 v 0.421875 c -0.125,-0.07031 -0.257813,-0.125 -0.390625,-0.15625 -0.125,-0.03906 -0.25,-0.0625 -0.375,-0.0625 -0.292969,0 -0.523438,0.09375 -0.6875,0.28125 -0.15625,0.1875 -0.234375,0.449219 -0.234375,0.78125 0,0.335938 0.07813,0.59375 0.234375,0.78125 0.164062,0.179688 0.394531,0.265625 0.6875,0.265625 0.125,0 0.25,-0.01563 0.375,-0.04687 0.132812,-0.03906 0.265625,-0.09375 0.390625,-0.15625 v 0.40625 c -0.125,0.0625 -0.257813,0.109375 -0.390625,0.140625 C 32.84375,47.234375 32.703125,47.25 32.558594,47.25 32.140625,47.25 31.8125,47.121094 31.574219,46.859375 31.332031,46.601562 31.214844,46.25 31.214844,45.8125 c 0,-0.445312 0.117187,-0.796875 0.359375,-1.046875 0.25,-0.257813 0.585937,-0.390625 1.015625,-0.390625 0.132812,0 0.265625,0.01563 0.390625,0.04687 0.132812,0.02344 0.265625,0.0625 0.390625,0.125 z m 0,0"
       id="path255" />
    <path
       style="fill:#ffffff;fill-opacity:1;fill-rule:nonzero;stroke:none"
       d="m 34.609375,43.65625 v 0.78125 h 0.921875 v 0.34375 h -0.921875 v 1.484375 c 0,0.230469 0.02344,0.375 0.07813,0.4375 0.0625,0.0625 0.1875,0.09375 0.375,0.09375 h 0.46875 v 0.375 H 35.0625 c -0.34375,0 -0.585938,-0.0625 -0.71875,-0.1875 -0.125,-0.132813 -0.1875,-0.375 -0.1875,-0.71875 V 44.78125 H 33.828125 V 44.4375 h 0.328125 v -0.78125 z m 0,0"
       id="path257" />
    <path
       style="fill:#ffffff;fill-opacity:1;fill-rule:nonzero;stroke:none"
       d="m 37.714844,44.859375 c -0.05469,-0.03125 -0.109375,-0.05078 -0.171875,-0.0625 -0.0625,-0.01953 -0.132813,-0.03125 -0.203125,-0.03125 -0.25,0 -0.445313,0.08594 -0.578125,0.25 -0.136719,0.167969 -0.203125,0.40625 -0.203125,0.71875 v 1.4375 H 36.105469 V 44.4375 h 0.453125 v 0.421875 c 0.09375,-0.164063 0.210937,-0.285156 0.359375,-0.359375 0.15625,-0.08203 0.34375,-0.125 0.5625,-0.125 0.03125,0 0.0625,0.0078 0.09375,0.01563 0.03906,0 0.08203,0 0.125,0 z m 0,0"
       id="path259" />
    <path
       style="fill:#ffffff;fill-opacity:1;fill-rule:nonzero;stroke:none"
       d="m 39.136719,44.75 c -0.242188,0 -0.433594,0.09375 -0.578125,0.28125 -0.136719,0.1875 -0.203125,0.449219 -0.203125,0.78125 0,0.324219 0.06641,0.578125 0.203125,0.765625 0.144531,0.1875 0.335937,0.28125 0.578125,0.28125 0.238281,0 0.425781,-0.09375 0.5625,-0.28125 0.144531,-0.1875 0.21875,-0.441406 0.21875,-0.765625 0,-0.320312 -0.07422,-0.578125 -0.21875,-0.765625 C 39.5625,44.851562 39.375,44.75 39.136719,44.75 Z m 0,-0.375 c 0.382812,0 0.6875,0.132812 0.90625,0.390625 0.226562,0.25 0.34375,0.601563 0.34375,1.046875 0,0.449219 -0.117188,0.804688 -0.34375,1.0625 -0.21875,0.25 -0.523438,0.375 -0.90625,0.375 -0.398438,0 -0.703125,-0.125 -0.921875,-0.375 -0.21875,-0.257812 -0.328125,-0.613281 -0.328125,-1.0625 0,-0.445312 0.109375,-0.796875 0.328125,-1.046875 0.21875,-0.257813 0.523437,-0.390625 0.921875,-0.390625 z m 0,0"
       id="path261" />
    <path
       style="fill:#ffffff;fill-opacity:1;fill-rule:nonzero;stroke:none"
       d="M 42.925781,44.859375 V 43.375 h 0.453125 v 3.796875 h -0.453125 v -0.40625 c -0.09375,0.15625 -0.214843,0.277344 -0.359375,0.359375 -0.136718,0.08203 -0.308594,0.125 -0.515625,0.125 -0.324219,0 -0.589843,-0.128906 -0.796875,-0.390625 -0.210937,-0.269531 -0.3125,-0.617187 -0.3125,-1.046875 0,-0.4375 0.101563,-0.785156 0.3125,-1.046875 0.207032,-0.257813 0.472656,-0.390625 0.796875,-0.390625 0.207031,0 0.378907,0.04297 0.515625,0.125 0.144532,0.07422 0.265625,0.195312 0.359375,0.359375 z m -1.53125,0.953125 c 0,0.324219 0.06641,0.578125 0.203125,0.765625 0.132813,0.1875 0.320313,0.28125 0.5625,0.28125 0.238282,0 0.425782,-0.09375 0.5625,-0.28125 0.132813,-0.1875 0.203125,-0.441406 0.203125,-0.765625 0,-0.332031 -0.07031,-0.59375 -0.203125,-0.78125 -0.136718,-0.1875 -0.324218,-0.28125 -0.5625,-0.28125 -0.242187,0 -0.429687,0.09375 -0.5625,0.28125 -0.136718,0.1875 -0.203125,0.449219 -0.203125,0.78125 z m 0,0"
       id="path263" />
    <path
       style="fill:#ffffff;fill-opacity:1;fill-rule:nonzero;stroke:none"
       d="m 46.648438,45.6875 v 0.21875 h -2.0625 c 0.01953,0.3125 0.113281,0.554688 0.28125,0.71875 0.164062,0.15625 0.394531,0.234375 0.6875,0.234375 0.175781,0 0.34375,-0.01953 0.5,-0.0625 0.164062,-0.03906 0.328124,-0.101563 0.484374,-0.1875 v 0.421875 c -0.15625,0.07422 -0.324218,0.125 -0.5,0.15625 -0.167968,0.03906 -0.339843,0.0625 -0.515624,0.0625 -0.429688,0 -0.773438,-0.125 -1.03125,-0.375 -0.25,-0.257812 -0.375,-0.609375 -0.375,-1.046875 0,-0.445313 0.117187,-0.800781 0.359374,-1.0625 0.238282,-0.257813 0.5625,-0.390625 0.96875,-0.390625 0.375,0 0.664063,0.121094 0.875,0.359375 0.21875,0.230469 0.328126,0.546875 0.328126,0.953125 z m -0.453126,-0.125 c 0,-0.25 -0.07031,-0.445312 -0.203124,-0.59375 -0.136719,-0.144531 -0.3125,-0.21875 -0.53125,-0.21875 -0.25,0 -0.453126,0.07422 -0.609376,0.21875 -0.148437,0.136719 -0.230468,0.335938 -0.25,0.59375 z m 0,0"
       id="path265" />
    <path
       style="fill:#ffffff;fill-opacity:1;fill-rule:nonzero;stroke:none"
       d="m 88.523438,60.515625 h 0.796874 v 2.390625 h 2.859376 v -2.390625 h 0.796874 V 66.34375 H 92.179688 V 63.5625 h -2.859376 v 2.78125 h -0.796874 z m 0,0"
       id="path283" />
    <path
       style="fill:#ffffff;fill-opacity:1;fill-rule:nonzero;stroke:none"
       d="m 96.242188,60.265625 c -0.355469,0.605469 -0.617188,1.199219 -0.78125,1.78125 -0.167969,0.585937 -0.25,1.179687 -0.25,1.78125 0,0.605469 0.08203,1.203125 0.25,1.796875 0.175781,0.585938 0.4375,1.175781 0.78125,1.78125 h -0.625 C 95.21875,66.789062 94.921875,66.1875 94.726562,65.59375 94.539062,65 94.445312,64.414062 94.445312,63.828125 c 0,-0.582031 0.09375,-1.164063 0.28125,-1.75 0.195313,-0.59375 0.492188,-1.195313 0.890626,-1.8125 z m 0,0"
       id="path285" />
    <path
       style="fill:#ffffff;fill-opacity:1;fill-rule:nonzero;stroke:none"
       d="m 99.039062,66.453125 c -1.085937,0 -1.625,-0.769531 -1.625,-2.3125 0,-0.613281 0.203126,-1.335937 0.609376,-2.171875 h 0.765624 c -0.375,0.835938 -0.5625,1.5625 -0.5625,2.1875 0,1.125 0.289063,1.6875 0.875,1.6875 0.53125,0 0.796876,-0.695312 0.796876,-2.09375 h 0.656252 c 0,1.398438 0.26562,2.09375 0.79687,2.09375 0.57032,0 0.85938,-0.5625 0.85938,-1.6875 0,-0.625 -0.1836,-1.351562 -0.54688,-2.1875 h 0.76563 c 0.40625,0.835938 0.60937,1.558594 0.60937,2.171875 0,1.542969 -0.54297,2.3125 -1.625,2.3125 -0.71093,0 -1.10547,-0.390625 -1.1875,-1.171875 -0.10547,0.78125 -0.499998,1.171875 -1.187498,1.171875 z m 0,0"
       id="path287" />
    <path
       style="fill:#ffffff;fill-opacity:1;fill-rule:nonzero;stroke:none"
       d="m 104.21094,60.265625 h 0.625 c 0.39453,0.617187 0.6875,1.21875 0.875,1.8125 0.19531,0.585937 0.29687,1.167969 0.29687,1.75 0,0.585937 -0.10156,1.171875 -0.29687,1.765625 -0.1875,0.59375 -0.48047,1.195312 -0.875,1.8125 h -0.625 c 0.34375,-0.605469 0.59765,-1.195312 0.76562,-1.78125 0.17578,-0.59375 0.26563,-1.191406 0.26563,-1.796875 0,-0.601563 -0.0898,-1.195313 -0.26563,-1.78125 -0.16797,-0.582031 -0.42187,-1.175781 -0.76562,-1.78125 z m 0,0"
       id="path289" />
    <path
       style="fill:#ffffff;fill-opacity:1;fill-rule:nonzero;stroke:none"
       d="m 44.289062,5.394531 v 4.53125 h 0.953126 c 0.800781,0 1.390624,-0.179687 1.765624,-0.546875 0.375,-0.363281 0.5625,-0.9375 0.5625,-1.71875 0,-0.78125 -0.1875,-1.351562 -0.5625,-1.71875 -0.375,-0.363281 -0.964843,-0.546875 -1.765624,-0.546875 z M 43.492188,4.753906 h 1.625 c 1.132812,0 1.960937,0.234375 2.484374,0.703125 0.53125,0.46875 0.796876,1.203125 0.796876,2.203125 0,1 -0.265626,1.742188 -0.796876,2.21875 -0.53125,0.46875 -1.359374,0.703125 -2.484374,0.703125 h -1.625 z m 0,0"
       id="path291" />
    <path
       style="fill:#ffffff;fill-opacity:1;fill-rule:nonzero;stroke:none"
       d="m 50.445312,5.394531 v 4.53125 h 0.953126 c 0.800781,0 1.390624,-0.179687 1.765624,-0.546875 0.375,-0.363281 0.5625,-0.9375 0.5625,-1.71875 0,-0.78125 -0.1875,-1.351562 -0.5625,-1.71875 -0.375,-0.363281 -0.964843,-0.546875 -1.765624,-0.546875 z M 49.648438,4.753906 h 1.625 c 1.132812,0 1.960937,0.234375 2.484374,0.703125 0.53125,0.46875 0.796876,1.203125 0.796876,2.203125 0,1 -0.265626,1.742188 -0.796876,2.21875 -0.53125,0.46875 -1.359374,0.703125 -2.484374,0.703125 h -1.625 z m 0,0"
       id="path293" />
    <path
       style="fill:#ffffff;fill-opacity:1;fill-rule:nonzero;stroke:none"
       d="m 55.289062,4.753906 h 0.796876 l 1.234374,4.921875 1.21875,-4.921875 h 0.890626 l 1.21875,4.921875 1.21875,-4.921875 h 0.8125 l -1.46875,5.828125 h -1 l -1.21875,-5.0625 -1.25,5.0625 h -0.984376 z m 0,0"
       id="path295" />
    <path
       style="fill:#ffffff;fill-opacity:1;fill-rule:nonzero;stroke:none"
       d="m 67.210938,4.941406 v 0.765625 c -0.304688,-0.144531 -0.589844,-0.25 -0.859376,-0.3125 -0.261718,-0.070312 -0.511718,-0.109375 -0.75,-0.109375 -0.4375,0 -0.773437,0.085938 -1,0.25 -0.230468,0.167969 -0.34375,0.402344 -0.34375,0.703125 0,0.261719 0.07031,0.460938 0.21875,0.59375 0.15625,0.125 0.453126,0.230469 0.890626,0.3125 l 0.46875,0.09375 c 0.59375,0.117188 1.03125,0.3125 1.3125,0.59375 0.28125,0.28125 0.421874,0.664063 0.421874,1.140625 0,0.5625 -0.195312,0.992188 -0.578124,1.28125 -0.375,0.292969 -0.929688,0.4375 -1.65625,0.4375 -0.28125,0 -0.578126,-0.03125 -0.890626,-0.09375 -0.3125,-0.0625 -0.636718,-0.15625 -0.96875,-0.28125 v -0.8125 c 0.320313,0.1875 0.632813,0.328125 0.9375,0.421875 0.3125,0.085938 0.617188,0.125 0.921876,0.125 0.445312,0 0.789062,-0.085937 1.03125,-0.265625 0.25,-0.175781 0.375,-0.425781 0.375,-0.75 0,-0.289062 -0.08984,-0.515625 -0.265626,-0.671875 -0.179687,-0.164062 -0.464843,-0.289062 -0.859374,-0.375 L 65.132812,7.894531 C 64.539062,7.78125 64.109375,7.597656 63.851562,7.347656 63.589844,7.097656 63.460938,6.75 63.460938,6.300781 c 0,-0.507812 0.179687,-0.910156 0.546874,-1.203125 0.363282,-0.300781 0.863282,-0.453125 1.5,-0.453125 0.269532,0 0.546876,0.027344 0.828126,0.078125 0.289062,0.042969 0.582031,0.117188 0.875,0.21875 z m 0,0"
       id="path297" />
    <path
       style="fill:#ffffff;fill-opacity:1;fill-rule:nonzero;stroke:none"
       d="m 95.734375,26.246094 0.832031,-1.078125 0.832032,-1.074219 h -3.332032 l 0.832032,1.074219 z m 0,0"
       id="path301" />
    <path
       style="fill:#ffffff;fill-opacity:1;fill-rule:nonzero;stroke:none"
       d="m 99.03125,21.265625 c 0.101562,0.03125 0.203125,0.109375 0.296875,0.234375 0.101563,0.117188 0.207031,0.273438 0.3125,0.46875 l 0.500005,1 h -0.531255 l -0.46875,-0.9375 c -0.117187,-0.238281 -0.230469,-0.398438 -0.34375,-0.484375 -0.117187,-0.08203 -0.273437,-0.125 -0.46875,-0.125 h -0.53125 v 1.546875 h -0.5 v -3.640625 h 1.125 c 0.414063,0 0.722656,0.08984 0.921875,0.265625 0.207031,0.167969 0.3125,0.429688 0.3125,0.78125 0,0.230469 -0.05469,0.421875 -0.15625,0.578125 -0.105469,0.148437 -0.261719,0.25 -0.46875,0.3125 z m -1.234375,-1.53125 v 1.28125 h 0.625 c 0.226563,0 0.40625,-0.05078 0.53125,-0.15625 0.125,-0.113281 0.1875,-0.273437 0.1875,-0.484375 0,-0.21875 -0.0625,-0.378906 -0.1875,-0.484375 -0.125,-0.101563 -0.304687,-0.15625 -0.53125,-0.15625 z m 0,0"
       id="path303" />
    <path
       style="fill:#ffffff;fill-opacity:1;fill-rule:nonzero;stroke:none"
       d="m 102.96094,19.4375 v 0.484375 c -0.1875,-0.08203 -0.36719,-0.144531 -0.53125,-0.1875 -0.16797,-0.05078 -0.32422,-0.07813 -0.46875,-0.07813 -0.27344,0 -0.48047,0.05469 -0.625,0.15625 -0.14844,0.105469 -0.21875,0.257812 -0.21875,0.453125 0,0.15625 0.0469,0.277344 0.14062,0.359375 0.0937,0.08594 0.27344,0.152344 0.54688,0.203125 l 0.29687,0.0625 c 0.375,0.0625 0.64453,0.183594 0.8125,0.359375 0.17578,0.179688 0.26563,0.417969 0.26563,0.71875 0,0.355469 -0.1211,0.625 -0.35938,0.8125 -0.23047,0.179688 -0.57422,0.265625 -1.03125,0.265625 -0.17968,0 -0.36718,-0.02344 -0.5625,-0.0625 -0.1875,-0.03906 -0.38672,-0.09766 -0.59375,-0.171875 V 22.29687 c 0.19532,0.117187 0.39063,0.203125 0.57813,0.265625 0.19531,0.05469 0.39062,0.07813 0.57812,0.07813 0.28125,0 0.49219,-0.05078 0.64063,-0.15625 0.15625,-0.113281 0.23437,-0.273437 0.23437,-0.484375 0,-0.175781 -0.0586,-0.316406 -0.17187,-0.421875 -0.10547,-0.101563 -0.28125,-0.175781 -0.53125,-0.21875 l -0.29688,-0.0625 c -0.36718,-0.07031 -0.63281,-0.1875 -0.79687,-0.34375 -0.16797,-0.15625 -0.25,-0.375 -0.25,-0.65625 0,-0.320313 0.11328,-0.578125 0.34375,-0.765625 0.22656,-0.1875 0.53906,-0.28125 0.9375,-0.28125 0.16406,0 0.33594,0.01563 0.51562,0.04687 0.17578,0.03125 0.35938,0.07813 0.54688,0.140625 z m 0,0"
       id="path305" />
    <path
       style="fill:#ffffff;fill-opacity:1;fill-rule:nonzero;stroke:none"
       d="m 103.44531,19.328125 h 3.07813 v 0.40625 h -1.28125 v 3.234375 h -0.5 v -3.234375 h -1.29688 z m 0,0"
       id="path307" />
    <path
       style="fill:#ffffff;fill-opacity:1;fill-rule:nonzero;stroke:none"
       d="m 96.894531,42.628906 h 0.5 v 1.484375 h 1.796875 v -1.484375 h 0.484375 v 3.640625 h -0.484375 v -1.734375 h -1.796875 v 1.734375 h -0.5 z m 0,0"
       id="path309" />
    <path
       style="fill:#ffffff;fill-opacity:1;fill-rule:nonzero;stroke:none"
       d="m 101.71875,42.472656 c -0.21875,0.375 -0.38281,0.746094 -0.48437,1.109375 -0.10547,0.367188 -0.15625,0.742188 -0.15625,1.125 0,0.375 0.0508,0.746094 0.15625,1.109375 0.10156,0.367188 0.26562,0.734375 0.48437,1.109375 h -0.39062 c -0.24219,-0.386719 -0.42188,-0.757812 -0.54688,-1.125 -0.11719,-0.363281 -0.17187,-0.726562 -0.17187,-1.09375 0,-0.363281 0.0547,-0.726562 0.17187,-1.09375 0.125,-0.375 0.30469,-0.753906 0.54688,-1.140625 z m 0,0"
       id="path311" />
    <path
       style="fill:#ffffff;fill-opacity:1;fill-rule:nonzero;stroke:none"
       d="m 103.46875,46.347656 c -0.67969,0 -1.01562,-0.484375 -1.01562,-1.453125 0,-0.382812 0.125,-0.835937 0.375,-1.359375 h 0.48437 c -0.23047,0.523438 -0.34375,0.976563 -0.34375,1.359375 0,0.710938 0.17969,1.0625 0.54688,1.0625 0.32031,0 0.48437,-0.4375 0.48437,-1.3125 h 0.42188 c 0,0.875 0.16406,1.3125 0.5,1.3125 0.35156,0 0.53125,-0.351562 0.53125,-1.0625 0,-0.382812 -0.11719,-0.835937 -0.34375,-1.359375 h 0.48437 c 0.25,0.523438 0.375,0.976563 0.375,1.359375 0,0.96875 -0.33984,1.453125 -1.01562,1.453125 -0.4375,0 -0.6836,-0.242187 -0.73438,-0.734375 -0.0742,0.492188 -0.32422,0.734375 -0.75,0.734375 z m 0,0"
       id="path313" />
    <path
       style="fill:#ffffff;fill-opacity:1;fill-rule:nonzero;stroke:none"
       d="m 106.71094,42.472656 h 0.39062 c 0.23828,0.386719 0.41407,0.765625 0.53125,1.140625 0.125,0.367188 0.1875,0.730469 0.1875,1.09375 0,0.367188 -0.0625,0.730469 -0.1875,1.09375 -0.11718,0.367188 -0.29297,0.738281 -0.53125,1.125 h -0.39062 c 0.20703,-0.375 0.36328,-0.742187 0.46875,-1.109375 0.11328,-0.363281 0.17187,-0.734375 0.17187,-1.109375 0,-0.382812 -0.0586,-0.757812 -0.17187,-1.125 -0.10547,-0.363281 -0.26172,-0.734375 -0.46875,-1.109375 z m 0,0"
       id="path315" />
    <path
       style="fill:#ffffff;fill-opacity:1;fill-rule:nonzero;stroke:none"
       d="m 6.269531,19.558594 v 0.515625 c -0.167969,-0.15625 -0.34375,-0.269531 -0.53125,-0.34375 -0.1875,-0.08203 -0.386719,-0.125 -0.59375,-0.125 -0.417969,0 -0.742187,0.132812 -0.96875,0.390625 -0.21875,0.25 -0.328125,0.621094 -0.328125,1.109375 0,0.480469 0.109375,0.851562 0.328125,1.109375 0.226563,0.25 0.550781,0.375 0.96875,0.375 0.207031,0 0.40625,-0.03516 0.59375,-0.109375 0.1875,-0.08203 0.363281,-0.203125 0.53125,-0.359375 v 0.515625 c -0.167969,0.117187 -0.351562,0.203125 -0.546875,0.265625 -0.1875,0.0625 -0.390625,0.09375 -0.609375,0.09375 -0.554687,0 -0.992187,-0.164063 -1.3125,-0.5 -0.3125,-0.34375 -0.46875,-0.804688 -0.46875,-1.390625 0,-0.59375 0.15625,-1.054688 0.46875,-1.390625 0.320313,-0.34375 0.757813,-0.515625 1.3125,-0.515625 0.21875,0 0.421875,0.03125 0.609375,0.09375 0.195313,0.0625 0.378906,0.152343 0.546875,0.265625 z m 0,0"
       id="path317" />
    <path
       style="fill:#ffffff;fill-opacity:1;fill-rule:nonzero;stroke:none"
       d="m 8.515625,19.605469 c -0.355469,0 -0.640625,0.136719 -0.859375,0.40625 -0.210938,0.261719 -0.3125,0.625 -0.3125,1.09375 0,0.460937 0.101562,0.824219 0.3125,1.09375 0.21875,0.261719 0.503906,0.390625 0.859375,0.390625 0.351563,0 0.632813,-0.128906 0.84375,-0.390625 0.21875,-0.269531 0.328125,-0.632813 0.328125,-1.09375 0,-0.46875 -0.109375,-0.832031 -0.328125,-1.09375 -0.210937,-0.269531 -0.492187,-0.40625 -0.84375,-0.40625 z m 0,-0.40625 c 0.507813,0 0.914063,0.171875 1.21875,0.515625 0.3125,0.34375 0.46875,0.808594 0.46875,1.390625 0,0.574219 -0.15625,1.03125 -0.46875,1.375 -0.304687,0.34375 -0.710937,0.515625 -1.21875,0.515625 -0.511719,0 -0.921875,-0.171875 -1.234375,-0.515625 -0.304688,-0.34375 -0.453125,-0.800781 -0.453125,-1.375 0,-0.582031 0.148437,-1.046875 0.453125,-1.390625 0.3125,-0.34375 0.722656,-0.515625 1.234375,-0.515625 z m 0,0"
       id="path319" />
    <path
       style="fill:#ffffff;fill-opacity:1;fill-rule:nonzero;stroke:none"
       d="m 12.703125,21.214844 c 0.101563,0.03125 0.203125,0.109375 0.296875,0.234375 0.101562,0.117187 0.207031,0.273437 0.3125,0.46875 l 0.5,1 h -0.53125 l -0.46875,-0.9375 c -0.117188,-0.238281 -0.230469,-0.398438 -0.34375,-0.484375 -0.117188,-0.08203 -0.273438,-0.125 -0.46875,-0.125 h -0.53125 v 1.546875 h -0.5 v -3.640625 h 1.125 c 0.414062,0 0.722656,0.08984 0.921875,0.265625 0.207031,0.167969 0.3125,0.429687 0.3125,0.78125 0,0.230469 -0.05469,0.421875 -0.15625,0.578125 -0.105469,0.148437 -0.261719,0.25 -0.46875,0.3125 z m -1.234375,-1.53125 v 1.28125 h 0.625 c 0.226562,0 0.40625,-0.05078 0.53125,-0.15625 0.125,-0.113282 0.1875,-0.273438 0.1875,-0.484375 0,-0.21875 -0.0625,-0.378907 -0.1875,-0.484375 -0.125,-0.101563 -0.304688,-0.15625 -0.53125,-0.15625 z m 0,0"
       id="path321" />
    <path
       style="fill:#ffffff;fill-opacity:1;fill-rule:nonzero;stroke:none"
       d="m 13.582031,19.277344 h 3.078125 v 0.40625 h -1.28125 v 3.234375 h -0.5 v -3.234375 h -1.296875 z m 0,0"
       id="path323" />
    <path
       style="fill:#ffffff;fill-opacity:1;fill-rule:nonzero;stroke:none"
       d="m 17.140625,19.277344 h 0.5 v 3.640625 h -0.5 z m 0,0"
       id="path325" />
    <path
       style="fill:#ffffff;fill-opacity:1;fill-rule:nonzero;stroke:none"
       d="m 21.347656,19.558594 v 0.515625 c -0.167968,-0.15625 -0.34375,-0.269531 -0.53125,-0.34375 -0.1875,-0.08203 -0.386718,-0.125 -0.59375,-0.125 -0.417968,0 -0.742187,0.132812 -0.96875,0.390625 -0.21875,0.25 -0.328125,0.621094 -0.328125,1.109375 0,0.480469 0.109375,0.851562 0.328125,1.109375 0.226563,0.25 0.550782,0.375 0.96875,0.375 0.207032,0 0.40625,-0.03516 0.59375,-0.109375 0.1875,-0.08203 0.363282,-0.203125 0.53125,-0.359375 v 0.515625 c -0.167968,0.117187 -0.351562,0.203125 -0.546875,0.265625 -0.1875,0.0625 -0.390625,0.09375 -0.609375,0.09375 -0.554687,0 -0.992187,-0.164063 -1.3125,-0.5 -0.3125,-0.34375 -0.46875,-0.804688 -0.46875,-1.390625 0,-0.59375 0.15625,-1.054688 0.46875,-1.390625 0.320313,-0.34375 0.757813,-0.515625 1.3125,-0.515625 0.21875,0 0.421875,0.03125 0.609375,0.09375 0.195313,0.0625 0.378907,0.152343 0.546875,0.265625 z m 0,0"
       id="path327" />
    <path
       style="fill:#ffffff;fill-opacity:1;fill-rule:nonzero;stroke:none"
       d="m 23.328125,19.761719 -0.65625,1.8125 H 24 Z M 23.0625,19.277344 h 0.546875 L 25,22.917969 h -0.515625 l -0.328125,-0.9375 h -1.640625 l -0.328125,0.9375 h -0.515625 z m 0,0"
       id="path329" />
    <path
       style="fill:#ffffff;fill-opacity:1;fill-rule:nonzero;stroke:none"
       d="m 25.527344,19.277344 h 0.5 v 3.21875 h 1.78125 v 0.421875 h -2.28125 z m 0,0"
       id="path331" />
    <path
       style="fill:#ffffff;fill-opacity:1;fill-rule:nonzero;stroke:none"
       d="m 1.449219,25.03125 h 0.5 V 28.25 h 1.78125 v 0.421875 h -2.28125 z m 0,0"
       id="path333" />
    <path
       style="fill:#ffffff;fill-opacity:1;fill-rule:nonzero;stroke:none"
       d="m 4.230469,25.03125 h 2.09375 v 0.40625 h -1.59375 v 1.078125 h 1.4375 V 26.9375 h -1.4375 v 1.734375 h -0.5 z m 0,0"
       id="path335" />
    <path
       style="fill:#ffffff;fill-opacity:1;fill-rule:nonzero;stroke:none"
       d="m 7.613281,25.4375 v 1.359375 h 0.625 c 0.226563,0 0.40625,-0.05469 0.53125,-0.171875 0.125,-0.125 0.1875,-0.296875 0.1875,-0.515625 0,-0.21875 -0.0625,-0.382813 -0.1875,-0.5 C 8.644531,25.496094 8.464844,25.4375 8.238281,25.4375 Z m -0.5,-0.40625 h 1.125 c 0.40625,0 0.710938,0.09375 0.921875,0.28125 0.207032,0.179688 0.3125,0.445312 0.3125,0.796875 0,0.367187 -0.105468,0.640625 -0.3125,0.828125 -0.210937,0.179688 -0.515625,0.265625 -0.921875,0.265625 h -0.625 v 1.46875 h -0.5 z m 0,0"
       id="path337" />
    <path
       style="fill:#ffffff;fill-opacity:1;fill-rule:nonzero;stroke:none"
       d="M 13.910156,25.140625 V 25.625 c -0.1875,-0.08203 -0.367187,-0.144531 -0.53125,-0.1875 -0.167968,-0.05078 -0.324218,-0.07813 -0.46875,-0.07813 -0.273437,0 -0.480468,0.05469 -0.625,0.15625 -0.148437,0.105469 -0.21875,0.257813 -0.21875,0.453125 0,0.15625 0.04687,0.277344 0.140625,0.359375 0.09375,0.08594 0.273438,0.152344 0.546875,0.203125 l 0.296875,0.0625 c 0.375,0.0625 0.644531,0.183594 0.8125,0.359375 0.175781,0.179687 0.265625,0.417969 0.265625,0.71875 0,0.355469 -0.121094,0.625 -0.359375,0.8125 -0.230469,0.179687 -0.574219,0.265625 -1.03125,0.265625 -0.179687,0 -0.367187,-0.02344 -0.5625,-0.0625 -0.1875,-0.03906 -0.386719,-0.09766 -0.59375,-0.171875 V 28 c 0.195313,0.117188 0.390625,0.203125 0.578125,0.265625 0.195313,0.05469 0.390625,0.07813 0.578125,0.07813 0.28125,0 0.492188,-0.05078 0.640625,-0.15625 0.15625,-0.113281 0.234375,-0.273438 0.234375,-0.484375 0,-0.175781 -0.05859,-0.316406 -0.171875,-0.421875 -0.105468,-0.101562 -0.28125,-0.175781 -0.53125,-0.21875 L 12.613281,27 c -0.367187,-0.07031 -0.632812,-0.1875 -0.796875,-0.34375 -0.167968,-0.15625 -0.25,-0.375 -0.25,-0.65625 0,-0.320312 0.113282,-0.578125 0.34375,-0.765625 0.226563,-0.1875 0.539063,-0.28125 0.9375,-0.28125 0.164063,0 0.335938,0.01563 0.515625,0.04687 0.175781,0.03125 0.359375,0.07813 0.546875,0.140625 z m 0,0"
       id="path339" />
    <path
       style="fill:#ffffff;fill-opacity:1;fill-rule:nonzero;stroke:none"
       d="m 14.894531,25.03125 h 0.5 v 3.640625 h -0.5 z m 0,0"
       id="path341" />
    <path
       style="fill:#ffffff;fill-opacity:1;fill-rule:nonzero;stroke:none"
       d="m 18.855469,28.15625 v -0.984375 h -0.796875 v -0.40625 h 1.296875 v 1.5625 c -0.199219,0.136719 -0.414063,0.242187 -0.640625,0.3125 -0.230469,0.07031 -0.476563,0.109375 -0.734375,0.109375 -0.5625,0 -1.007813,-0.164062 -1.328125,-0.5 -0.324219,-0.332031 -0.484375,-0.796875 -0.484375,-1.390625 0,-0.601563 0.160156,-1.070313 0.484375,-1.40625 0.320312,-0.332031 0.765625,-0.5 1.328125,-0.5 0.238281,0 0.460937,0.03125 0.671875,0.09375 0.21875,0.0625 0.421875,0.152344 0.609375,0.265625 v 0.515625 c -0.1875,-0.15625 -0.386719,-0.269531 -0.59375,-0.34375 -0.199219,-0.08203 -0.414063,-0.125 -0.640625,-0.125 -0.449219,0 -0.789063,0.125 -1.015625,0.375 -0.21875,0.25 -0.328125,0.625 -0.328125,1.125 0,0.492187 0.109375,0.859375 0.328125,1.109375 0.226562,0.25 0.566406,0.375 1.015625,0.375 0.175781,0 0.332031,-0.01563 0.46875,-0.04687 0.132812,-0.03125 0.253906,-0.07813 0.359375,-0.140625 z m 0,0"
       id="path343" />
    <path
       style="fill:#ffffff;fill-opacity:1;fill-rule:nonzero;stroke:none"
       d="m 20.246094,25.03125 h 0.671875 l 1.609375,3.046875 V 25.03125 h 0.484375 v 3.640625 H 22.339844 L 20.730469,25.625 v 3.046875 h -0.484375 z m 0,0"
       id="path345" />
    <path
       style="fill:#ffffff;fill-opacity:1;fill-rule:nonzero;stroke:none"
       d="m 25.207031,25.515625 -0.65625,1.8125 h 1.328125 z M 24.941406,25.03125 h 0.546875 l 1.390625,3.640625 h -0.515625 l -0.328125,-0.9375 h -1.640625 l -0.328125,0.9375 h -0.515625 z m 0,0"
       id="path347" />
    <path
       style="fill:#ffffff;fill-opacity:1;fill-rule:nonzero;stroke:none"
       d="m 27.40625,25.03125 h 0.5 V 28.25 h 1.78125 v 0.421875 h -2.28125 z m 0,0"
       id="path349" />
    <path
       style="fill:#ffffff;fill-opacity:1;fill-rule:nonzero;stroke:none"
       d="m 30.460938,34.253906 -2.785157,-1.296875 -2.78125,-1.296875 v 5.191406 l 2.78125,-1.300781 z m 0,0"
       id="path353" />
    <path
       style="fill:#ffffff;fill-opacity:1;fill-rule:nonzero;stroke:none"
       d="m 137.39453,25.902344 v 2.828125 h 0.59375 c 0.5,0 0.86328,-0.113281 1.09375,-0.34375 0.23828,-0.226563 0.35938,-0.585938 0.35938,-1.078125 0,-0.488282 -0.1211,-0.84375 -0.35938,-1.0625 -0.23047,-0.226563 -0.59375,-0.34375 -1.09375,-0.34375 z m -0.5,-0.40625 h 1.01563 c 0.70703,0 1.22656,0.148437 1.5625,0.4375 0.33203,0.292968 0.5,0.75 0.5,1.375 0,0.625 -0.16797,1.089844 -0.5,1.390625 -0.33594,0.292969 -0.85547,0.4375 -1.5625,0.4375 h -1.01563 z m 0,0"
       id="path355" />
    <path
       style="fill:#ffffff;fill-opacity:1;fill-rule:nonzero;stroke:none"
       d="m 140.74219,25.496094 h 2.3125 v 0.40625 h -1.8125 v 1.078125 h 1.73437 v 0.421875 h -1.73437 v 1.3125 h 1.85937 v 0.421875 h -2.35937 z m 0,0"
       id="path357" />
    <path
       style="fill:#ffffff;fill-opacity:1;fill-rule:nonzero;stroke:none"
       d="m 146.64062,25.777344 v 0.515625 c -0.16796,-0.15625 -0.34375,-0.269531 -0.53125,-0.34375 -0.1875,-0.08203 -0.38671,-0.125 -0.59375,-0.125 -0.41796,0 -0.74218,0.132812 -0.96875,0.390625 -0.21875,0.25 -0.32812,0.621094 -0.32812,1.109375 0,0.480469 0.10937,0.851562 0.32812,1.109375 0.22657,0.25 0.55079,0.375 0.96875,0.375 0.20704,0 0.40625,-0.03516 0.59375,-0.109375 0.1875,-0.08203 0.36329,-0.203125 0.53125,-0.359375 v 0.515625 c -0.16796,0.117187 -0.35156,0.203125 -0.54687,0.265625 -0.1875,0.0625 -0.39063,0.09375 -0.60938,0.09375 -0.55468,0 -0.99218,-0.164063 -1.3125,-0.5 -0.3125,-0.34375 -0.46875,-0.804688 -0.46875,-1.390625 0,-0.59375 0.15625,-1.054688 0.46875,-1.390625 0.32032,-0.34375 0.75782,-0.515625 1.3125,-0.515625 0.21875,0 0.42188,0.03125 0.60938,0.09375 0.19531,0.0625 0.37891,0.152343 0.54687,0.265625 z m 0,0"
       id="path359" />
    <path
       style="fill:#ffffff;fill-opacity:1;fill-rule:nonzero;stroke:none"
       d="m 148.88672,25.824219 c -0.35547,0 -0.64063,0.136719 -0.85938,0.40625 -0.21093,0.261719 -0.3125,0.625 -0.3125,1.09375 0,0.460937 0.10157,0.824219 0.3125,1.09375 0.21875,0.261719 0.50391,0.390625 0.85938,0.390625 0.35156,0 0.63281,-0.128906 0.84375,-0.390625 0.21875,-0.269531 0.32812,-0.632813 0.32812,-1.09375 0,-0.46875 -0.10937,-0.832031 -0.32812,-1.09375 -0.21094,-0.269531 -0.49219,-0.40625 -0.84375,-0.40625 z m 0,-0.40625 c 0.50781,0 0.91406,0.171875 1.21875,0.515625 0.3125,0.34375 0.46875,0.808594 0.46875,1.390625 0,0.574219 -0.15625,1.03125 -0.46875,1.375 -0.30469,0.34375 -0.71094,0.515625 -1.21875,0.515625 -0.51172,0 -0.92188,-0.171875 -1.23438,-0.515625 -0.30468,-0.34375 -0.45312,-0.800781 -0.45312,-1.375 0,-0.582031 0.14844,-1.046875 0.45312,-1.390625 0.3125,-0.34375 0.72266,-0.515625 1.23438,-0.515625 z m 0,0"
       id="path361" />
    <path
       style="fill:#ffffff;fill-opacity:1;fill-rule:nonzero;stroke:none"
       d="m 151.83984,25.902344 v 2.828125 h 0.59375 c 0.5,0 0.86328,-0.113281 1.09375,-0.34375 0.23828,-0.226563 0.35938,-0.585938 0.35938,-1.078125 0,-0.488282 -0.1211,-0.84375 -0.35938,-1.0625 -0.23047,-0.226563 -0.59375,-0.34375 -1.09375,-0.34375 z m -0.5,-0.40625 h 1.01563 c 0.70703,0 1.22656,0.148437 1.5625,0.4375 0.33203,0.292968 0.5,0.75 0.5,1.375 0,0.625 -0.16797,1.089844 -0.5,1.390625 -0.33594,0.292969 -0.85547,0.4375 -1.5625,0.4375 h -1.01563 z m 0,0"
       id="path363" />
    <path
       style="fill:#ffffff;fill-opacity:1;fill-rule:nonzero;stroke:none"
       d="M 155.1875,25.496094 H 157.5 v 0.40625 h -1.8125 v 1.078125 h 1.73437 v 0.421875 h -1.73437 v 1.3125 h 1.85937 v 0.421875 h -2.35937 z m 0,0"
       id="path365" />
    <g
       clip-path="url(#clip5)"
       clip-rule="nonzero"
       id="g369"
       style="fill:#ffffff">
      <path
         style="fill:#ffffff;fill-opacity:1;fill-rule:nonzero;stroke:none"
         d="m 160.08594,27.433594 c 0.10156,0.03125 0.20312,0.109375 0.29687,0.234375 0.10156,0.117187 0.20703,0.273437 0.3125,0.46875 l 0.5,1 h -0.53125 l -0.46875,-0.9375 c -0.11719,-0.238281 -0.23047,-0.398438 -0.34375,-0.484375 -0.11719,-0.08203 -0.27344,-0.125 -0.46875,-0.125 h -0.53125 v 1.546875 h -0.5 v -3.640625 h 1.125 c 0.41406,0 0.72266,0.08984 0.92188,0.265625 0.20703,0.167969 0.3125,0.429687 0.3125,0.78125 0,0.230469 -0.0547,0.421875 -0.15625,0.578125 -0.10547,0.148437 -0.26172,0.25 -0.46875,0.3125 z m -1.23438,-1.53125 v 1.28125 h 0.625 c 0.22656,0 0.40625,-0.05078 0.53125,-0.15625 0.125,-0.113282 0.1875,-0.273438 0.1875,-0.484375 0,-0.21875 -0.0625,-0.378907 -0.1875,-0.484375 -0.125,-0.101563 -0.30469,-0.15625 -0.53125,-0.15625 z m 0,0"
         id="path367" />
    </g>
    <path
       style="fill:#ffffff;fill-opacity:1;fill-rule:nonzero;stroke:none"
       d="m 153.89453,34.203125 -2.78516,-1.296875 -2.78125,-1.296875 v 5.191406 L 151.10937,35.5 Z m 0,0"
       id="path373" />
  </g>
</svg>
