<?xml version="1.0" encoding="UTF-8"?>
<svg xmlns="http://www.w3.org/2000/svg" xmlns:xlink="http://www.w3.org/1999/xlink" width="185.669113pt" height="102.56218pt" viewBox="0 0 185.669113 102.56218" version="1.1">
<defs>
<clipPath id="clip1">
  <path d="M 29 82 L 52 82 L 52 102.5625 L 29 102.5625 Z M 29 82 "/>
</clipPath>
<clipPath id="clip2">
  <path d="M 162 47 L 185.667969 47 L 185.667969 73 L 162 73 Z M 162 47 "/>
</clipPath>
<clipPath id="clip3">
  <path d="M 162 29 L 185.667969 29 L 185.667969 55 L 162 55 Z M 162 29 "/>
</clipPath>
<clipPath id="clip4">
  <path d="M 163 49 L 185.667969 49 L 185.667969 74 L 163 74 Z M 163 49 "/>
</clipPath>
<clipPath id="clip5">
  <path d="M 163 28 L 185.667969 28 L 185.667969 53 L 163 53 Z M 163 28 "/>
</clipPath>
<clipPath id="clip6">
  <path d="M 166 51 L 185.667969 51 L 185.667969 76 L 166 76 Z M 166 51 "/>
</clipPath>
<clipPath id="clip7">
  <path d="M 166 26 L 185.667969 26 L 185.667969 51 L 166 51 Z M 166 26 "/>
</clipPath>
<clipPath id="clip8">
  <path d="M 169 51 L 185.667969 51 L 185.667969 76 L 169 76 Z M 169 51 "/>
</clipPath>
<clipPath id="clip9">
  <path d="M 169 26 L 185.667969 26 L 185.667969 51 L 169 51 Z M 169 26 "/>
</clipPath>
<clipPath id="clip10">
  <path d="M 172 49 L 185.667969 49 L 185.667969 74 L 172 74 Z M 172 49 "/>
</clipPath>
<clipPath id="clip11">
  <path d="M 172 28 L 185.667969 28 L 185.667969 53 L 172 53 Z M 172 28 "/>
</clipPath>
<clipPath id="clip12">
  <path d="M 168 38 L 185.667969 38 L 185.667969 64 L 168 64 Z M 168 38 "/>
</clipPath>
<clipPath id="clip13">
  <path d="M 126 98 L 129 98 L 129 102.5625 L 126 102.5625 Z M 126 98 "/>
</clipPath>
<clipPath id="clip14">
  <path d="M 167 30 L 185.667969 30 L 185.667969 45 L 167 45 Z M 167 30 "/>
</clipPath>
<clipPath id="clip15">
  <path d="M 167 57 L 185.667969 57 L 185.667969 72 L 167 72 Z M 167 57 "/>
</clipPath>
<clipPath id="clip16">
  <path d="M 181 26 L 185.667969 26 L 185.667969 34 L 181 34 Z M 181 26 "/>
</clipPath>
</defs>
<g id="surface1">
<path style="fill:none;stroke-width:0.8;stroke-linecap:butt;stroke-linejoin:miter;stroke:rgb(0%,0%,0%);stroke-opacity:1;stroke-miterlimit:4;" d="M 20.386719 16.257812 L 84.921875 16.257812 C 86.03125 16.257812 86.921875 17.148438 86.921875 18.257812 L 86.921875 91.84375 C 86.921875 92.953125 86.03125 93.84375 84.921875 93.84375 L 20.386719 93.84375 C 19.277344 93.84375 18.386719 92.953125 18.386719 91.84375 L 18.386719 18.257812 C 18.386719 17.148438 19.277344 16.257812 20.386719 16.257812 Z M 20.386719 16.257812 "/>
<path style="fill:none;stroke-width:0.8;stroke-linecap:butt;stroke-linejoin:miter;stroke:rgb(0%,0%,0%);stroke-opacity:1;stroke-miterlimit:4;" d="M 6.699219 38.550781 L 85.566406 38.550781 "/>
<path style=" stroke:none;fill-rule:nonzero;fill:rgb(100%,100%,100%);fill-opacity:1;" d="M 80.679688 37.453125 L 82.410156 37.453125 L 82.410156 39.632812 L 80.679688 39.632812 Z M 80.679688 37.453125 "/>
<path style=" stroke:none;fill-rule:nonzero;fill:rgb(0%,0%,0%);fill-opacity:1;" d="M 82.410156 38.554688 L 80.253906 40.21875 L 80.253906 36.886719 L 81.332031 37.722656 Z M 82.410156 38.554688 "/>
<path style=" stroke:none;fill-rule:nonzero;fill:rgb(100%,100%,100%);fill-opacity:1;" d="M 45.277344 37.453125 L 47.007812 37.453125 L 47.007812 39.632812 L 45.277344 39.632812 Z M 45.277344 37.453125 "/>
<path style=" stroke:none;fill-rule:nonzero;fill:rgb(0%,0%,0%);fill-opacity:1;" d="M 47.003906 38.554688 L 45.929688 39.386719 L 44.851562 40.21875 L 44.851562 36.886719 L 45.929688 37.722656 Z M 47.003906 38.554688 "/>
<path style=" stroke:none;fill-rule:nonzero;fill:rgb(100%,100%,100%);fill-opacity:1;" d="M 86.011719 32.230469 L 88.1875 32.230469 L 88.1875 33.964844 L 86.011719 33.964844 Z M 86.011719 32.230469 "/>
<path style=" stroke:none;fill-rule:nonzero;fill:rgb(0%,0%,0%);fill-opacity:1;" d="M 87.109375 33.960938 L 87.945312 32.882812 L 88.777344 31.804688 L 85.445312 31.804688 Z M 87.109375 33.960938 "/>
<path style="fill-rule:nonzero;fill:rgb(100%,100%,100%);fill-opacity:1;stroke-width:0.947984;stroke-linecap:butt;stroke-linejoin:miter;stroke:rgb(0%,0%,0%);stroke-opacity:1;stroke-miterlimit:4;" d="M 91.496973 38.554688 C 91.496973 40.929688 89.573848 42.855469 87.205121 42.855469 C 84.836394 42.855469 82.917177 40.929688 82.917177 38.554688 C 82.917177 36.179688 84.836394 34.25 87.205121 34.25 C 89.573848 34.25 91.496973 36.179688 91.496973 38.554688 Z M 91.496973 38.554688 " transform="matrix(0.99935,0,0,1,0,0)"/>
<path style=" stroke:none;fill-rule:nonzero;fill:rgb(0%,0%,0%);fill-opacity:1;" d="M 87.644531 35.597656 L 87.644531 38.050781 L 90.097656 38.050781 L 90.097656 38.785156 L 87.644531 38.785156 L 87.644531 41.238281 L 86.910156 41.238281 L 86.910156 38.785156 L 84.457031 38.785156 L 84.457031 38.050781 L 86.910156 38.050781 L 86.910156 35.597656 Z M 87.644531 35.597656 "/>
<path style="fill-rule:evenodd;fill:rgb(100%,100%,100%);fill-opacity:1;stroke-width:0.80026;stroke-linecap:butt;stroke-linejoin:miter;stroke:rgb(0%,0%,0%);stroke-opacity:1;stroke-miterlimit:10;" d="M 47.292412 50.929688 L 74.235679 50.835938 L 74.235679 26.175781 L 47.292412 26.273438 Z M 47.292412 50.929688 " transform="matrix(0.999351,0,0,1,0,0)"/>
<path style="fill:none;stroke-width:0.80026;stroke-linecap:butt;stroke-linejoin:bevel;stroke:rgb(0%,0%,0%);stroke-opacity:1;stroke-miterlimit:10;" d="M 70.960116 38.554688 L 50.567975 38.554688 " transform="matrix(0.999351,0,0,1,0,0)"/>
<path style=" stroke:none;fill-rule:nonzero;fill:rgb(0%,0%,0%);fill-opacity:1;" d="M 54.992188 31.808594 L 58.835938 31.808594 L 58.835938 32.542969 L 55.789062 36.089844 L 58.835938 36.089844 L 58.835938 36.730469 L 54.882812 36.730469 L 54.882812 35.996094 L 57.914062 32.449219 L 54.992188 32.449219 Z M 54.992188 31.808594 "/>
<path style=" stroke:none;fill-rule:nonzero;fill:rgb(0%,0%,0%);fill-opacity:1;" d="M 61.484375 31.183594 L 63.0625 31.183594 L 63.0625 31.667969 L 61.484375 31.667969 Z M 61.484375 31.183594 "/>
<path style=" stroke:none;fill-rule:nonzero;fill:rgb(0%,0%,0%);fill-opacity:1;" d="M 64.082031 32.574219 L 65.050781 32.574219 L 65.050781 29.246094 L 63.988281 29.449219 L 63.988281 28.917969 L 65.035156 28.699219 L 65.628906 28.699219 L 65.628906 32.574219 L 66.597656 32.574219 L 66.597656 33.074219 L 64.082031 33.074219 Z M 64.082031 32.574219 "/>
<path style=" stroke:none;fill-rule:nonzero;fill:rgb(0%,0%,0%);fill-opacity:1;" d="M 50.734375 47.074219 L 52.1875 47.074219 L 52.1875 42.074219 L 50.609375 42.386719 L 50.609375 41.574219 L 52.1875 41.261719 L 53.078125 41.261719 L 53.078125 47.074219 L 54.515625 47.074219 L 54.515625 47.824219 L 50.734375 47.824219 Z M 50.734375 47.074219 "/>
<path style=" stroke:none;fill-rule:nonzero;fill:rgb(0%,0%,0%);fill-opacity:1;" d="M 55.882812 44.996094 L 58.257812 44.996094 L 58.257812 45.714844 L 55.882812 45.714844 Z M 55.882812 44.996094 "/>
<path style=" stroke:none;fill-rule:nonzero;fill:rgb(0%,0%,0%);fill-opacity:1;" d="M 59.246094 42.902344 L 63.089844 42.902344 L 63.089844 43.636719 L 60.042969 47.183594 L 63.089844 47.183594 L 63.089844 47.824219 L 59.136719 47.824219 L 59.136719 47.089844 L 62.167969 43.542969 L 59.246094 43.542969 Z M 59.246094 42.902344 "/>
<path style=" stroke:none;fill-rule:nonzero;fill:rgb(0%,0%,0%);fill-opacity:1;" d="M 65.738281 42.273438 L 67.316406 42.273438 L 67.316406 42.757812 L 65.738281 42.757812 Z M 65.738281 42.273438 "/>
<path style=" stroke:none;fill-rule:nonzero;fill:rgb(0%,0%,0%);fill-opacity:1;" d="M 68.339844 43.664062 L 69.308594 43.664062 L 69.308594 40.335938 L 68.246094 40.539062 L 68.246094 40.007812 L 69.292969 39.789062 L 69.886719 39.789062 L 69.886719 43.664062 L 70.855469 43.664062 L 70.855469 44.164062 L 68.339844 44.164062 Z M 68.339844 43.664062 "/>
<path style="fill-rule:nonzero;fill:rgb(100%,100%,100%);fill-opacity:1;stroke-width:0.806038;stroke-linecap:butt;stroke-linejoin:miter;stroke:rgb(0%,0%,0%);stroke-opacity:1;stroke-miterlimit:4;" d="M 41.04153 39.079604 L 34.654968 42.765192 L 28.268415 46.454746 L 28.268092 39.078994 L 28.267777 31.707208 Z M 41.04153 39.079604 " transform="matrix(1,0.0020936,-0.00216223,0.985069,0,0)"/>
<path style="fill-rule:nonzero;fill:rgb(100%,100%,100%);fill-opacity:1;stroke-width:0.806038;stroke-linecap:butt;stroke-linejoin:miter;stroke:rgb(0%,0%,0%);stroke-opacity:1;stroke-miterlimit:4;" d="M 71.78073 16.018581 L 65.394167 19.704169 L 59.01152 23.393714 L 59.011197 16.017962 L 59.010883 8.646176 L 65.393853 12.332382 Z M 71.78073 16.018581 " transform="matrix(1,0.0020936,-0.00216223,0.985069,0,0)"/>
<path style=" stroke:none;fill-rule:nonzero;fill:rgb(64.312744%,0%,0%);fill-opacity:1;" d="M 33.0625 35.183594 L 33.0625 35.855469 L 32.28125 35.855469 C 31.988281 35.855469 31.785156 35.917969 31.671875 36.042969 C 31.566406 36.160156 31.515625 36.367188 31.515625 36.667969 L 31.515625 37.105469 L 32.84375 37.105469 L 32.84375 37.730469 L 31.515625 37.730469 L 31.515625 42.027344 L 30.703125 42.027344 L 30.703125 37.730469 L 29.921875 37.730469 L 29.921875 37.105469 L 30.703125 37.105469 L 30.703125 36.761719 C 30.703125 36.210938 30.828125 35.808594 31.078125 35.558594 C 31.335938 35.308594 31.742188 35.183594 32.296875 35.183594 Z M 33.0625 35.183594 "/>
<path style=" stroke:none;fill-rule:nonzero;fill:rgb(64.312744%,0%,0%);fill-opacity:1;" d="M 60.898438 12.890625 L 61.523438 12.890625 L 61.523438 16.03125 L 63.398438 14.375 L 64.210938 14.375 L 62.179688 16.171875 L 64.289062 18.203125 L 63.476562 18.203125 L 61.523438 16.328125 L 61.523438 18.203125 L 60.898438 18.203125 Z M 60.898438 12.890625 "/>
<path style="fill:none;stroke-width:0.8;stroke-linecap:butt;stroke-linejoin:miter;stroke:rgb(0%,0%,0%);stroke-opacity:1;stroke-miterlimit:4;" d="M 101.785156 71.195312 L 20.085938 71.195312 "/>
<path style=" stroke:none;fill-rule:nonzero;fill:rgb(100%,100%,100%);fill-opacity:1;" d="M 22.960938 70.117188 L 24.691406 70.117188 L 24.691406 72.292969 L 22.960938 72.292969 Z M 22.960938 70.117188 "/>
<path style=" stroke:none;fill-rule:nonzero;fill:rgb(0%,0%,0%);fill-opacity:1;" d="M 22.960938 71.191406 L 25.117188 69.527344 L 25.117188 72.859375 L 24.039062 72.027344 Z M 22.960938 71.191406 "/>
<path style=" stroke:none;fill-rule:nonzero;fill:rgb(100%,100%,100%);fill-opacity:1;" d="M 59.777344 70.117188 L 61.507812 70.117188 L 61.507812 72.292969 L 59.777344 72.292969 Z M 59.777344 70.117188 "/>
<path style=" stroke:none;fill-rule:nonzero;fill:rgb(0%,0%,0%);fill-opacity:1;" d="M 59.78125 71.191406 L 60.855469 70.359375 L 61.933594 69.527344 L 61.933594 72.859375 L 60.855469 72.027344 Z M 59.78125 71.191406 "/>
<path style=" stroke:none;fill-rule:nonzero;fill:rgb(100%,100%,100%);fill-opacity:1;" d="M 17.183594 75.785156 L 19.359375 75.785156 L 19.359375 77.515625 L 17.183594 77.515625 Z M 17.183594 75.785156 "/>
<path style=" stroke:none;fill-rule:nonzero;fill:rgb(0%,0%,0%);fill-opacity:1;" d="M 18.261719 75.785156 L 17.425781 76.863281 L 16.59375 77.941406 L 19.925781 77.941406 Z M 18.261719 75.785156 "/>
<path style="fill-rule:nonzero;fill:rgb(100%,100%,100%);fill-opacity:1;stroke-width:0.947984;stroke-linecap:butt;stroke-linejoin:miter;stroke:rgb(0%,0%,0%);stroke-opacity:1;stroke-miterlimit:4;" d="M -13.942656 -71.191406 C -13.942656 -68.816406 -15.865782 -66.890625 -18.234509 -66.890625 C -20.603236 -66.890625 -22.522452 -68.816406 -22.522452 -71.191406 C -22.522452 -73.570312 -20.603236 -75.496094 -18.234509 -75.496094 C -15.865782 -75.496094 -13.942656 -73.570312 -13.942656 -71.191406 Z M -13.942656 -71.191406 " transform="matrix(-0.99935,0,0,-1,0,0)"/>
<path style=" stroke:none;fill-rule:nonzero;fill:rgb(0%,0%,0%);fill-opacity:1;" d="M 17.726562 74.148438 L 17.726562 71.695312 L 15.273438 71.695312 L 15.273438 70.960938 L 17.726562 70.960938 L 17.726562 68.507812 L 18.460938 68.507812 L 18.460938 70.960938 L 20.914062 70.960938 L 20.914062 71.695312 L 18.460938 71.695312 L 18.460938 74.148438 Z M 17.726562 74.148438 "/>
<path style="fill-rule:evenodd;fill:rgb(100%,100%,100%);fill-opacity:1;stroke-width:0.80026;stroke-linecap:butt;stroke-linejoin:miter;stroke:rgb(0%,0%,0%);stroke-opacity:1;stroke-miterlimit:10;" d="M 32.775177 83.664062 L 59.718445 83.570312 L 59.718445 58.910156 L 32.775177 59.007812 Z M 32.775177 83.664062 " transform="matrix(0.999351,0,0,1,0,0)"/>
<path style="fill:none;stroke-width:0.80026;stroke-linecap:butt;stroke-linejoin:bevel;stroke:rgb(0%,0%,0%);stroke-opacity:1;stroke-miterlimit:10;" d="M 56.442881 71.289062 L 36.050741 71.289062 " transform="matrix(0.999351,0,0,1,0,0)"/>
<path style=" stroke:none;fill-rule:nonzero;fill:rgb(0%,0%,0%);fill-opacity:1;" d="M 40.484375 64.542969 L 44.328125 64.542969 L 44.328125 65.277344 L 41.28125 68.824219 L 44.328125 68.824219 L 44.328125 69.464844 L 40.375 69.464844 L 40.375 68.730469 L 43.40625 65.183594 L 40.484375 65.183594 Z M 40.484375 64.542969 "/>
<path style=" stroke:none;fill-rule:nonzero;fill:rgb(0%,0%,0%);fill-opacity:1;" d="M 46.972656 63.917969 L 48.550781 63.917969 L 48.550781 64.402344 L 46.972656 64.402344 Z M 46.972656 63.917969 "/>
<path style=" stroke:none;fill-rule:nonzero;fill:rgb(0%,0%,0%);fill-opacity:1;" d="M 49.574219 65.308594 L 50.542969 65.308594 L 50.542969 61.980469 L 49.480469 62.183594 L 49.480469 61.652344 L 50.527344 61.433594 L 51.121094 61.433594 L 51.121094 65.308594 L 52.089844 65.308594 L 52.089844 65.808594 L 49.574219 65.808594 Z M 49.574219 65.308594 "/>
<path style=" stroke:none;fill-rule:nonzero;fill:rgb(0%,0%,0%);fill-opacity:1;" d="M 36.222656 79.808594 L 37.675781 79.808594 L 37.675781 74.808594 L 36.097656 75.121094 L 36.097656 74.308594 L 37.675781 73.996094 L 38.566406 73.996094 L 38.566406 79.808594 L 40.003906 79.808594 L 40.003906 80.558594 L 36.222656 80.558594 Z M 36.222656 79.808594 "/>
<path style=" stroke:none;fill-rule:nonzero;fill:rgb(0%,0%,0%);fill-opacity:1;" d="M 41.371094 77.730469 L 43.746094 77.730469 L 43.746094 78.449219 L 41.371094 78.449219 Z M 41.371094 77.730469 "/>
<path style=" stroke:none;fill-rule:nonzero;fill:rgb(0%,0%,0%);fill-opacity:1;" d="M 44.738281 75.636719 L 48.582031 75.636719 L 48.582031 76.371094 L 45.535156 79.917969 L 48.582031 79.917969 L 48.582031 80.558594 L 44.628906 80.558594 L 44.628906 79.824219 L 47.660156 76.277344 L 44.738281 76.277344 Z M 44.738281 75.636719 "/>
<path style=" stroke:none;fill-rule:nonzero;fill:rgb(0%,0%,0%);fill-opacity:1;" d="M 51.230469 75.007812 L 52.808594 75.007812 L 52.808594 75.492188 L 51.230469 75.492188 Z M 51.230469 75.007812 "/>
<path style=" stroke:none;fill-rule:nonzero;fill:rgb(0%,0%,0%);fill-opacity:1;" d="M 53.832031 76.398438 L 54.800781 76.398438 L 54.800781 73.070312 L 53.738281 73.273438 L 53.738281 72.742188 L 54.785156 72.523438 L 55.378906 72.523438 L 55.378906 76.398438 L 56.347656 76.398438 L 56.347656 76.898438 L 53.832031 76.898438 Z M 53.832031 76.398438 "/>
<path style="fill-rule:nonzero;fill:rgb(100%,100%,100%);fill-opacity:1;stroke-width:0.806038;stroke-linecap:butt;stroke-linejoin:miter;stroke:rgb(0%,0%,0%);stroke-opacity:1;stroke-miterlimit:4;" d="M -65.031236 72.269899 L -71.417798 75.955487 L -77.804352 79.64504 L -77.800768 72.26928 L -77.801083 64.897494 L -71.418113 68.5837 Z M -65.031236 72.269899 " transform="matrix(-1,0.0020936,0.00216223,0.985069,0,0)"/>
<path style=" stroke:none;fill-rule:nonzero;fill:rgb(100%,100%,100%);fill-opacity:1;" d="M 34.082031 94.167969 L 40.476562 97.789062 L 46.867188 101.40625 L 46.851562 94.140625 L 46.835938 86.878906 L 40.460938 90.523438 Z M 34.082031 94.167969 "/>
<g clip-path="url(#clip1)" clip-rule="nonzero">
<path style="fill:none;stroke-width:0.806038;stroke-linecap:butt;stroke-linejoin:miter;stroke:rgb(0%,0%,0%);stroke-opacity:1;stroke-miterlimit:4;" d="M -33.875177 95.667298 L -40.26173 99.356852 L -46.644386 103.042431 L -46.644709 95.66668 L -46.645024 88.294893 L -40.262053 91.9811 Z M -33.875177 95.667298 " transform="matrix(-1,0.0020936,0.00216223,0.985069,0,0)"/>
</g>
<path style=" stroke:none;fill-rule:nonzero;fill:rgb(64.312744%,0%,0%);fill-opacity:1;" d="M 76.246094 67.660156 L 76.246094 68.332031 L 75.464844 68.332031 C 75.171875 68.332031 74.96875 68.394531 74.855469 68.519531 C 74.75 68.636719 74.699219 68.84375 74.699219 69.144531 L 74.699219 69.582031 L 76.027344 69.582031 L 76.027344 70.207031 L 74.699219 70.207031 L 74.699219 74.503906 L 73.886719 74.503906 L 73.886719 70.207031 L 73.105469 70.207031 L 73.105469 69.582031 L 73.886719 69.582031 L 73.886719 69.238281 C 73.886719 68.6875 74.011719 68.285156 74.261719 68.035156 C 74.519531 67.785156 74.925781 67.660156 75.480469 67.660156 Z M 76.246094 67.660156 "/>
<path style=" stroke:none;fill-rule:nonzero;fill:rgb(64.312744%,0%,0%);fill-opacity:1;" d="M 41.617188 91.101562 L 42.242188 91.101562 L 42.242188 94.242188 L 44.117188 92.585938 L 44.929688 92.585938 L 42.898438 94.382812 L 45.007812 96.414062 L 44.195312 96.414062 L 42.242188 94.539062 L 42.242188 96.414062 L 41.617188 96.414062 Z M 41.617188 91.101562 "/>
<path style="fill-rule:evenodd;fill:rgb(100%,100%,100%);fill-opacity:1;stroke-width:0.8;stroke-linecap:butt;stroke-linejoin:miter;stroke:rgb(0%,0%,0%);stroke-opacity:1;stroke-miterlimit:4;" d="M 12.527344 35.609375 L 12.527344 41.507812 L 3.492188 41.507812 L 0.570312 38.632812 L 3.570312 35.683594 Z M 12.527344 35.609375 "/>
<path style="fill-rule:evenodd;fill:rgb(100%,100%,100%);fill-opacity:1;stroke-width:0.8;stroke-linecap:butt;stroke-linejoin:miter;stroke:rgb(0%,0%,0%);stroke-opacity:1;stroke-miterlimit:4;" d="M 93.132812 74.070312 L 93.132812 68.171875 L 102.167969 68.171875 L 105.089844 71.046875 L 102.089844 73.996094 Z M 93.132812 74.070312 "/>
<path style=" stroke:none;fill-rule:nonzero;fill:rgb(0%,0%,0%);fill-opacity:1;" d="M 86.726562 72.425781 C 86.011719 72.425781 85.433594 71.847656 85.433594 71.132812 C 85.433594 70.421875 86.011719 69.84375 86.726562 69.84375 C 87.4375 69.84375 88.015625 70.421875 88.015625 71.132812 C 88.015625 71.847656 87.4375 72.425781 86.726562 72.425781 Z M 86.726562 72.425781 "/>
<path style=" stroke:none;fill-rule:nonzero;fill:rgb(0%,0%,0%);fill-opacity:1;" d="M 18.359375 39.816406 C 17.644531 39.816406 17.070312 39.238281 17.070312 38.527344 C 17.070312 37.8125 17.644531 37.234375 18.359375 37.234375 C 19.070312 37.234375 19.648438 37.8125 19.648438 38.527344 C 19.648438 39.238281 19.070312 39.816406 18.359375 39.816406 Z M 18.359375 39.816406 "/>
<path style=" stroke:none;fill-rule:nonzero;fill:rgb(64.312744%,0%,0%);fill-opacity:1;" d="M 98.097656 58.078125 C 97.449219 58.078125 96.933594 58.320312 96.550781 58.796875 C 96.175781 59.277344 95.988281 59.929688 95.988281 60.75 C 95.988281 61.585938 96.175781 62.242188 96.550781 62.71875 C 96.933594 63.199219 97.449219 63.4375 98.097656 63.4375 C 98.742188 63.4375 99.253906 63.199219 99.628906 62.71875 C 100.003906 62.242188 100.191406 61.585938 100.191406 60.75 C 100.191406 59.929688 100.003906 59.277344 99.628906 58.796875 C 99.253906 58.320312 98.742188 58.078125 98.097656 58.078125 Z M 99.347656 63.90625 L 100.503906 65.1875 L 99.441406 65.1875 L 98.472656 64.140625 C 98.367188 64.148438 98.289062 64.15625 98.238281 64.15625 C 98.183594 64.15625 98.136719 64.15625 98.097656 64.15625 C 97.167969 64.15625 96.429688 63.851562 95.878906 63.234375 C 95.324219 62.621094 95.050781 61.792969 95.050781 60.75 C 95.050781 59.71875 95.324219 58.898438 95.878906 58.28125 C 96.429688 57.65625 97.167969 57.34375 98.097656 57.34375 C 99.011719 57.34375 99.746094 57.65625 100.300781 58.28125 C 100.851562 58.898438 101.128906 59.71875 101.128906 60.75 C 101.128906 61.523438 100.972656 62.179688 100.660156 62.71875 C 100.355469 63.261719 99.917969 63.65625 99.347656 63.90625 Z M 99.347656 63.90625 "/>
<path style=" stroke:none;fill-rule:nonzero;fill:rgb(64.312744%,0%,0%);fill-opacity:1;" d="M 7.355469 24.988281 L 8.230469 24.988281 L 8.230469 31.550781 L 7.355469 31.550781 Z M 7.355469 24.988281 "/>
<path style="fill-rule:nonzero;fill:rgb(100%,100%,100%);fill-opacity:1;stroke-width:0.806562;stroke-linecap:butt;stroke-linejoin:miter;stroke:rgb(0%,0%,0%);stroke-opacity:1;stroke-miterlimit:4;" d="M -45.310608 18.940852 L -51.701066 22.631226 L -58.091533 26.317629 L -58.091859 18.940222 L -58.08828 11.562807 L -51.701393 15.253819 Z M -45.310608 18.940852 " transform="matrix(0.00209088,-1,0.983789,0.00216223,0,0)"/>
<path style=" stroke:none;fill-rule:nonzero;fill:rgb(0%,0%,0%);fill-opacity:1;" d="M 15.585938 54.320312 L 17.429688 54.320312 L 17.429688 54.882812 L 15.585938 54.882812 Z M 15.585938 54.320312 "/>
<path style=" stroke:none;fill-rule:nonzero;fill:rgb(0%,0%,0%);fill-opacity:1;" d="M 18.59375 55.945312 L 19.71875 55.945312 L 19.71875 52.054688 L 18.484375 52.289062 L 18.484375 51.664062 L 19.703125 51.414062 L 20.40625 51.414062 L 20.40625 55.945312 L 21.53125 55.945312 L 21.53125 56.523438 L 18.59375 56.523438 Z M 18.59375 55.945312 "/>
<path style=" stroke:none;fill-rule:nonzero;fill:rgb(0%,0%,0%);fill-opacity:1;" d="M 3.390625 5.808594 C 2.523438 5.808594 1.921875 5.910156 1.578125 6.105469 C 1.242188 6.304688 1.078125 6.644531 1.078125 7.121094 C 1.078125 7.507812 1.203125 7.816406 1.453125 8.042969 C 1.710938 8.261719 2.054688 8.371094 2.484375 8.371094 C 3.085938 8.371094 3.566406 8.164062 3.921875 7.746094 C 4.285156 7.320312 4.46875 6.753906 4.46875 6.042969 L 4.46875 5.808594 Z M 5.546875 5.355469 L 5.546875 9.105469 L 4.46875 9.105469 L 4.46875 8.105469 C 4.21875 8.503906 3.910156 8.800781 3.546875 8.996094 C 3.179688 9.183594 2.734375 9.277344 2.203125 9.277344 C 1.523438 9.277344 0.988281 9.089844 0.59375 8.714844 C 0.195312 8.332031 0 7.824219 0 7.199219 C 0 6.460938 0.242188 5.902344 0.734375 5.527344 C 1.234375 5.152344 1.972656 4.964844 2.953125 4.964844 L 4.46875 4.964844 L 4.46875 4.855469 C 4.46875 4.355469 4.300781 3.972656 3.96875 3.699219 C 3.644531 3.429688 3.191406 3.292969 2.609375 3.292969 C 2.234375 3.292969 1.863281 3.339844 1.5 3.433594 C 1.144531 3.527344 0.804688 3.664062 0.484375 3.839844 L 0.484375 2.839844 C 0.878906 2.683594 1.257812 2.570312 1.625 2.496094 C 2 2.425781 2.363281 2.386719 2.71875 2.386719 C 3.664062 2.386719 4.375 2.632812 4.84375 3.121094 C 5.3125 3.613281 5.546875 4.355469 5.546875 5.355469 Z M 5.546875 5.355469 "/>
<path style=" stroke:none;fill-rule:nonzero;fill:rgb(0%,0%,0%);fill-opacity:1;" d="M 7.609375 -0.00390625 L 8.546875 -0.00390625 C 9.128906 0.925781 9.566406 1.832031 9.859375 2.714844 C 10.148438 3.589844 10.296875 4.464844 10.296875 5.339844 C 10.296875 6.214844 10.148438 7.097656 9.859375 7.980469 C 9.566406 8.867188 9.128906 9.765625 8.546875 10.683594 L 7.609375 10.683594 C 8.117188 9.785156 8.503906 8.898438 8.765625 8.011719 C 9.023438 7.128906 9.15625 6.238281 9.15625 5.339844 C 9.15625 4.433594 9.023438 3.542969 8.765625 2.667969 C 8.503906 1.785156 8.117188 0.894531 7.609375 -0.00390625 Z M 7.609375 -0.00390625 "/>
<g clip-path="url(#clip2)" clip-rule="nonzero">
<path style="fill:none;stroke-width:0.8;stroke-linecap:square;stroke-linejoin:miter;stroke:rgb(64.312744%,0%,0%);stroke-opacity:1;stroke-miterlimit:10;" d="M 173.816406 59.054688 L 175.488281 60.722656 M 175.488281 59.054688 L 173.816406 60.722656 "/>
</g>
<g clip-path="url(#clip3)" clip-rule="nonzero">
<path style="fill:none;stroke-width:0.8;stroke-linecap:square;stroke-linejoin:miter;stroke:rgb(64.312744%,0%,0%);stroke-opacity:1;stroke-miterlimit:10;" d="M 173.816406 41.285156 L 175.488281 42.957031 M 175.488281 41.285156 L 173.816406 42.957031 "/>
</g>
<path style="fill:none;stroke-width:0.4;stroke-linecap:butt;stroke-linejoin:round;stroke:rgb(0%,0%,0%);stroke-opacity:1;stroke-miterlimit:10;" d="M 180.414062 51.214844 L 180.386719 49.582031 L 180.320312 48.164062 L 180.195312 46.570312 L 180.019531 44.972656 L 179.792969 43.386719 L 179.535156 41.925781 L 179.222656 40.421875 L 178.851562 38.878906 L 178.429688 37.351562 L 177.945312 35.792969 L 177.480469 34.4375 L 176.90625 32.929688 L 176.28125 31.429688 L 175.632812 30.007812 L 175.003906 28.734375 L 174.210938 27.246094 L 173.5 26.003906 L 172.628906 24.589844 L 171.816406 23.359375 L 170.882812 22.042969 L 169.957031 20.816406 L 168.949219 19.566406 L 167.988281 18.449219 L 166.914062 17.273438 L 165.761719 16.09375 L 164.726562 15.097656 L 163.574219 14.054688 L 162.351562 13.019531 L 161.121094 12.042969 L 159.90625 11.136719 L 158.519531 10.171875 L 157.25 9.347656 L 155.867188 8.511719 L 154.589844 7.792969 L 153.167969 7.050781 L 151.8125 6.394531 L 150.371094 5.753906 L 148.945312 5.171875 L 147.433594 4.609375 L 145.960938 4.117188 L 144.4375 3.660156 L 142.914062 3.253906 L 141.503906 2.925781 L 139.878906 2.601562 L 138.414062 2.355469 L 136.847656 2.144531 L 135.339844 1.988281 L 133.664062 1.867188 L 132.207031 1.808594 L 130.554688 1.796875 M 130.652344 100.632812 L 132.105469 100.621094 L 133.757812 100.554688 L 135.261719 100.449219 L 136.902344 100.277344 L 138.308594 100.085938 L 139.90625 99.820312 L 141.441406 99.515625 L 142.960938 99.160156 L 144.46875 98.761719 L 145.898438 98.332031 L 147.433594 97.816406 L 148.878906 97.28125 L 150.382812 96.671875 L 151.722656 96.074219 L 153.183594 95.367188 L 154.5625 94.648438 L 155.914062 93.886719 L 157.300781 93.050781 L 158.550781 92.234375 L 159.804688 91.363281 L 161.160156 90.359375 L 162.355469 89.40625 L 163.546875 88.398438 L 164.722656 87.332031 L 165.777344 86.320312 L 166.863281 85.207031 L 167.910156 84.070312 L 168.988281 82.816406 L 169.902344 81.683594 L 170.917969 80.339844 L 171.792969 79.101562 L 172.621094 77.847656 L 173.46875 76.472656 L 174.277344 75.066406 L 174.96875 73.765625 L 175.660156 72.359375 L 176.292969 70.96875 L 176.933594 69.4375 L 177.441406 68.097656 L 177.976562 66.539062 L 178.433594 65.058594 L 178.839844 63.582031 L 179.203125 62.089844 L 179.523438 60.558594 L 179.808594 58.921875 L 180.023438 57.417969 L 180.191406 55.925781 L 180.316406 54.324219 L 180.390625 52.722656 L 180.414062 51.214844 "/>
<g clip-path="url(#clip4)" clip-rule="nonzero">
<path style="fill:none;stroke-width:0.8;stroke-linecap:square;stroke-linejoin:miter;stroke:rgb(64.312744%,0%,0%);stroke-opacity:1;stroke-miterlimit:10;" d="M 175.308594 61 L 176.976562 62.671875 M 176.976562 61 L 175.308594 62.671875 "/>
</g>
<g clip-path="url(#clip5)" clip-rule="nonzero">
<path style="fill:none;stroke-width:0.8;stroke-linecap:square;stroke-linejoin:miter;stroke:rgb(64.312744%,0%,0%);stroke-opacity:1;stroke-miterlimit:10;" d="M 175.308594 39.339844 L 176.976562 41.007812 M 176.976562 39.339844 L 175.308594 41.007812 "/>
</g>
<g clip-path="url(#clip6)" clip-rule="nonzero">
<path style="fill:none;stroke-width:0.8;stroke-linecap:square;stroke-linejoin:miter;stroke:rgb(64.312744%,0%,0%);stroke-opacity:1;stroke-miterlimit:10;" d="M 177.851562 62.335938 L 179.519531 64.003906 M 179.519531 62.335938 L 177.851562 64.003906 "/>
</g>
<g clip-path="url(#clip7)" clip-rule="nonzero">
<path style="fill:none;stroke-width:0.8;stroke-linecap:square;stroke-linejoin:miter;stroke:rgb(64.312744%,0%,0%);stroke-opacity:1;stroke-miterlimit:10;" d="M 177.851562 38.003906 L 179.519531 39.675781 M 179.519531 38.003906 L 177.851562 39.675781 "/>
</g>
<g clip-path="url(#clip8)" clip-rule="nonzero">
<path style="fill:none;stroke-width:0.8;stroke-linecap:square;stroke-linejoin:miter;stroke:rgb(64.312744%,0%,0%);stroke-opacity:1;stroke-miterlimit:10;" d="M 180.890625 62.335938 L 182.5625 64.003906 M 182.5625 62.335938 L 180.890625 64.003906 "/>
</g>
<g clip-path="url(#clip9)" clip-rule="nonzero">
<path style="fill:none;stroke-width:0.8;stroke-linecap:square;stroke-linejoin:miter;stroke:rgb(64.312744%,0%,0%);stroke-opacity:1;stroke-miterlimit:10;" d="M 180.890625 38.003906 L 182.5625 39.675781 M 182.5625 38.003906 L 180.890625 39.675781 "/>
</g>
<g clip-path="url(#clip10)" clip-rule="nonzero">
<path style="fill:none;stroke-width:0.8;stroke-linecap:square;stroke-linejoin:miter;stroke:rgb(64.312744%,0%,0%);stroke-opacity:1;stroke-miterlimit:10;" d="M 183.433594 61 L 185.101562 62.671875 M 185.101562 61 L 183.433594 62.671875 "/>
</g>
<g clip-path="url(#clip11)" clip-rule="nonzero">
<path style="fill:none;stroke-width:0.8;stroke-linecap:square;stroke-linejoin:miter;stroke:rgb(64.312744%,0%,0%);stroke-opacity:1;stroke-miterlimit:10;" d="M 183.433594 39.339844 L 185.101562 41.007812 M 185.101562 39.339844 L 183.433594 41.007812 "/>
</g>
<path style="fill:none;stroke-width:1.2;stroke-linecap:butt;stroke-linejoin:round;stroke:rgb(0%,0%,0%);stroke-opacity:1;stroke-miterlimit:10;" d="M 130.242188 51.214844 L 180.605469 51.214844 "/>
<path style="fill:none;stroke-width:1.2;stroke-linecap:square;stroke-linejoin:miter;stroke:rgb(0%,0%,0%);stroke-opacity:1;stroke-miterlimit:10;" d="M 155.699219 51.214844 L 155.699219 52.359375 "/>
<path style="fill:none;stroke-width:1.2;stroke-linecap:square;stroke-linejoin:miter;stroke:rgb(0%,0%,0%);stroke-opacity:1;stroke-miterlimit:10;" d="M 180.414062 51.214844 L 180.414062 52.359375 "/>
<g clip-path="url(#clip12)" clip-rule="nonzero">
<path style="fill:none;stroke-width:0.8;stroke-linecap:square;stroke-linejoin:miter;stroke:rgb(64.312744%,0%,0%);stroke-opacity:1;stroke-miterlimit:10;" d="M 181.042969 51.003906 C 181.042969 51.464844 180.667969 51.839844 180.207031 51.839844 C 179.746094 51.839844 179.371094 51.464844 179.371094 51.003906 C 179.371094 50.542969 179.746094 50.171875 180.207031 50.171875 C 180.667969 50.171875 181.042969 50.542969 181.042969 51.003906 Z M 181.042969 51.003906 "/>
</g>
<path style="fill:none;stroke-width:1.2;stroke-linecap:square;stroke-linejoin:miter;stroke:rgb(0%,0%,0%);stroke-opacity:1;stroke-miterlimit:10;" d="M 135.929688 51.214844 L 135.929688 51.785156 "/>
<path style="fill:none;stroke-width:1.2;stroke-linecap:square;stroke-linejoin:miter;stroke:rgb(0%,0%,0%);stroke-opacity:1;stroke-miterlimit:10;" d="M 140.871094 51.214844 L 140.871094 51.785156 "/>
<path style="fill:none;stroke-width:1.2;stroke-linecap:square;stroke-linejoin:miter;stroke:rgb(0%,0%,0%);stroke-opacity:1;stroke-miterlimit:10;" d="M 145.816406 51.214844 L 145.816406 51.785156 "/>
<path style="fill:none;stroke-width:1.2;stroke-linecap:square;stroke-linejoin:miter;stroke:rgb(0%,0%,0%);stroke-opacity:1;stroke-miterlimit:10;" d="M 150.757812 51.214844 L 150.757812 51.785156 "/>
<path style="fill:none;stroke-width:1.2;stroke-linecap:square;stroke-linejoin:miter;stroke:rgb(0%,0%,0%);stroke-opacity:1;stroke-miterlimit:10;" d="M 160.644531 51.214844 L 160.644531 51.785156 "/>
<path style="fill:none;stroke-width:1.2;stroke-linecap:square;stroke-linejoin:miter;stroke:rgb(0%,0%,0%);stroke-opacity:1;stroke-miterlimit:10;" d="M 165.585938 51.214844 L 165.585938 51.785156 "/>
<path style="fill:none;stroke-width:1.2;stroke-linecap:square;stroke-linejoin:miter;stroke:rgb(0%,0%,0%);stroke-opacity:1;stroke-miterlimit:10;" d="M 170.527344 51.214844 L 170.527344 51.785156 "/>
<path style="fill:none;stroke-width:1.2;stroke-linecap:square;stroke-linejoin:miter;stroke:rgb(0%,0%,0%);stroke-opacity:1;stroke-miterlimit:10;" d="M 175.472656 51.214844 L 175.472656 51.785156 "/>
<path style="fill:none;stroke-width:1.2;stroke-linecap:butt;stroke-linejoin:round;stroke:rgb(0%,0%,0%);stroke-opacity:1;stroke-miterlimit:10;" d="M 130.988281 100.632812 L 130.988281 1.796875 "/>
<path style="fill:none;stroke-width:1.2;stroke-linecap:square;stroke-linejoin:miter;stroke:rgb(0%,0%,0%);stroke-opacity:1;stroke-miterlimit:10;" d="M 130.988281 100.632812 L 129.84375 100.632812 "/>
<path style="fill:none;stroke-width:1.2;stroke-linecap:square;stroke-linejoin:miter;stroke:rgb(0%,0%,0%);stroke-opacity:1;stroke-miterlimit:10;" d="M 130.988281 75.921875 L 129.84375 75.921875 "/>
<path style="fill:none;stroke-width:1.2;stroke-linecap:square;stroke-linejoin:miter;stroke:rgb(0%,0%,0%);stroke-opacity:1;stroke-miterlimit:10;" d="M 130.988281 51.214844 L 129.84375 51.214844 "/>
<path style="fill:none;stroke-width:1.2;stroke-linecap:square;stroke-linejoin:miter;stroke:rgb(0%,0%,0%);stroke-opacity:1;stroke-miterlimit:10;" d="M 130.988281 26.503906 L 129.84375 26.503906 "/>
<path style="fill:none;stroke-width:1.2;stroke-linecap:square;stroke-linejoin:miter;stroke:rgb(0%,0%,0%);stroke-opacity:1;stroke-miterlimit:10;" d="M 130.988281 1.792969 L 129.84375 1.792969 "/>
<path style="fill:none;stroke-width:1.2;stroke-linecap:square;stroke-linejoin:miter;stroke:rgb(0%,0%,0%);stroke-opacity:1;stroke-miterlimit:10;" d="M 130.988281 95.691406 L 130.414062 95.691406 "/>
<path style="fill:none;stroke-width:1.2;stroke-linecap:square;stroke-linejoin:miter;stroke:rgb(0%,0%,0%);stroke-opacity:1;stroke-miterlimit:10;" d="M 130.988281 90.75 L 130.414062 90.75 "/>
<path style="fill:none;stroke-width:1.2;stroke-linecap:square;stroke-linejoin:miter;stroke:rgb(0%,0%,0%);stroke-opacity:1;stroke-miterlimit:10;" d="M 130.988281 85.808594 L 130.414062 85.808594 "/>
<path style="fill:none;stroke-width:1.2;stroke-linecap:square;stroke-linejoin:miter;stroke:rgb(0%,0%,0%);stroke-opacity:1;stroke-miterlimit:10;" d="M 130.988281 80.867188 L 130.414062 80.867188 "/>
<path style="fill:none;stroke-width:1.2;stroke-linecap:square;stroke-linejoin:miter;stroke:rgb(0%,0%,0%);stroke-opacity:1;stroke-miterlimit:10;" d="M 130.988281 70.980469 L 130.414062 70.980469 "/>
<path style="fill:none;stroke-width:1.2;stroke-linecap:square;stroke-linejoin:miter;stroke:rgb(0%,0%,0%);stroke-opacity:1;stroke-miterlimit:10;" d="M 130.988281 66.039062 L 130.414062 66.039062 "/>
<path style="fill:none;stroke-width:1.2;stroke-linecap:square;stroke-linejoin:miter;stroke:rgb(0%,0%,0%);stroke-opacity:1;stroke-miterlimit:10;" d="M 130.988281 61.097656 L 130.414062 61.097656 "/>
<path style="fill:none;stroke-width:1.2;stroke-linecap:square;stroke-linejoin:miter;stroke:rgb(0%,0%,0%);stroke-opacity:1;stroke-miterlimit:10;" d="M 130.988281 56.15625 L 130.414062 56.15625 "/>
<path style="fill:none;stroke-width:1.2;stroke-linecap:square;stroke-linejoin:miter;stroke:rgb(0%,0%,0%);stroke-opacity:1;stroke-miterlimit:10;" d="M 130.988281 46.273438 L 130.414062 46.273438 "/>
<path style="fill:none;stroke-width:1.2;stroke-linecap:square;stroke-linejoin:miter;stroke:rgb(0%,0%,0%);stroke-opacity:1;stroke-miterlimit:10;" d="M 130.988281 41.328125 L 130.414062 41.328125 "/>
<path style="fill:none;stroke-width:1.2;stroke-linecap:square;stroke-linejoin:miter;stroke:rgb(0%,0%,0%);stroke-opacity:1;stroke-miterlimit:10;" d="M 130.988281 36.386719 L 130.414062 36.386719 "/>
<path style="fill:none;stroke-width:1.2;stroke-linecap:square;stroke-linejoin:miter;stroke:rgb(0%,0%,0%);stroke-opacity:1;stroke-miterlimit:10;" d="M 130.988281 31.445312 L 130.414062 31.445312 "/>
<path style="fill:none;stroke-width:1.2;stroke-linecap:square;stroke-linejoin:miter;stroke:rgb(0%,0%,0%);stroke-opacity:1;stroke-miterlimit:10;" d="M 130.988281 21.5625 L 130.414062 21.5625 "/>
<path style="fill:none;stroke-width:1.2;stroke-linecap:square;stroke-linejoin:miter;stroke:rgb(0%,0%,0%);stroke-opacity:1;stroke-miterlimit:10;" d="M 130.988281 16.621094 L 130.414062 16.621094 "/>
<path style="fill:none;stroke-width:1.2;stroke-linecap:square;stroke-linejoin:miter;stroke:rgb(0%,0%,0%);stroke-opacity:1;stroke-miterlimit:10;" d="M 130.988281 11.679688 L 130.414062 11.679688 "/>
<path style="fill:none;stroke-width:1.2;stroke-linecap:square;stroke-linejoin:miter;stroke:rgb(0%,0%,0%);stroke-opacity:1;stroke-miterlimit:10;" d="M 130.988281 6.738281 L 130.414062 6.738281 "/>
<path style=" stroke:none;fill-rule:nonzero;fill:rgb(0%,0%,0%);fill-opacity:1;" d="M 125.84375 3.207031 L 126.640625 3.207031 L 126.640625 0.425781 L 125.765625 0.613281 L 125.765625 0.160156 L 126.640625 -0.0117188 L 127.140625 -0.0117188 L 127.140625 3.207031 L 127.9375 3.207031 L 127.9375 3.628906 L 125.84375 3.628906 Z M 125.84375 3.207031 "/>
<path style=" stroke:none;fill-rule:nonzero;fill:rgb(0%,0%,0%);fill-opacity:1;" d="M 121.484375 24.988281 C 121.222656 24.988281 121.03125 25.113281 120.90625 25.363281 C 120.78125 25.613281 120.71875 25.996094 120.71875 26.503906 C 120.71875 27.003906 120.78125 27.378906 120.90625 27.628906 C 121.03125 27.878906 121.222656 28.003906 121.484375 28.003906 C 121.734375 28.003906 121.921875 27.878906 122.046875 27.628906 C 122.179688 27.378906 122.25 27.003906 122.25 26.503906 C 122.25 25.996094 122.179688 25.613281 122.046875 25.363281 C 121.921875 25.113281 121.734375 24.988281 121.484375 24.988281 Z M 121.484375 24.597656 C 121.890625 24.597656 122.195312 24.765625 122.40625 25.097656 C 122.625 25.421875 122.734375 25.890625 122.734375 26.503906 C 122.734375 27.109375 122.625 27.578125 122.40625 27.910156 C 122.195312 28.234375 121.890625 28.394531 121.484375 28.394531 C 121.078125 28.394531 120.765625 28.234375 120.546875 27.910156 C 120.328125 27.578125 120.21875 27.109375 120.21875 26.503906 C 120.21875 25.890625 120.328125 25.421875 120.546875 25.097656 C 120.765625 24.765625 121.078125 24.597656 121.484375 24.597656 Z M 121.484375 24.597656 "/>
<path style=" stroke:none;fill-rule:nonzero;fill:rgb(0%,0%,0%);fill-opacity:1;" d="M 123.589844 27.691406 L 124.105469 27.691406 L 124.105469 28.316406 L 123.589844 28.316406 Z M 123.589844 27.691406 "/>
<path style=" stroke:none;fill-rule:nonzero;fill:rgb(0%,0%,0%);fill-opacity:1;" d="M 125.191406 24.675781 L 127.113281 24.675781 L 127.113281 25.082031 L 125.628906 25.082031 L 125.628906 25.972656 C 125.699219 25.953125 125.773438 25.9375 125.847656 25.925781 C 125.917969 25.917969 125.992188 25.910156 126.066406 25.910156 C 126.472656 25.910156 126.792969 26.027344 127.035156 26.253906 C 127.273438 26.472656 127.394531 26.769531 127.394531 27.144531 C 127.394531 27.542969 127.269531 27.847656 127.019531 28.066406 C 126.777344 28.285156 126.433594 28.394531 125.988281 28.394531 C 125.832031 28.394531 125.675781 28.378906 125.519531 28.347656 C 125.363281 28.324219 125.199219 28.292969 125.035156 28.238281 L 125.035156 27.738281 C 125.179688 27.8125 125.332031 27.871094 125.488281 27.910156 C 125.644531 27.953125 125.804688 27.972656 125.972656 27.972656 C 126.261719 27.972656 126.488281 27.902344 126.644531 27.753906 C 126.808594 27.609375 126.894531 27.40625 126.894531 27.144531 C 126.894531 26.894531 126.808594 26.699219 126.644531 26.550781 C 126.488281 26.394531 126.261719 26.316406 125.972656 26.316406 C 125.847656 26.316406 125.714844 26.332031 125.582031 26.363281 C 125.457031 26.394531 125.324219 26.441406 125.191406 26.503906 Z M 125.191406 24.675781 "/>
<path style=" stroke:none;fill-rule:nonzero;fill:rgb(0%,0%,0%);fill-opacity:1;" d="M 153.160156 54.664062 C 152.898438 54.664062 152.707031 54.789062 152.582031 55.039062 C 152.457031 55.289062 152.394531 55.671875 152.394531 56.179688 C 152.394531 56.679688 152.457031 57.054688 152.582031 57.304688 C 152.707031 57.554688 152.898438 57.679688 153.160156 57.679688 C 153.410156 57.679688 153.597656 57.554688 153.722656 57.304688 C 153.855469 57.054688 153.925781 56.679688 153.925781 56.179688 C 153.925781 55.671875 153.855469 55.289062 153.722656 55.039062 C 153.597656 54.789062 153.410156 54.664062 153.160156 54.664062 Z M 153.160156 54.273438 C 153.566406 54.273438 153.871094 54.441406 154.082031 54.773438 C 154.300781 55.097656 154.410156 55.566406 154.410156 56.179688 C 154.410156 56.785156 154.300781 57.253906 154.082031 57.585938 C 153.871094 57.910156 153.566406 58.070312 153.160156 58.070312 C 152.753906 58.070312 152.441406 57.910156 152.222656 57.585938 C 152.003906 57.253906 151.894531 56.785156 151.894531 56.179688 C 151.894531 55.566406 152.003906 55.097656 152.222656 54.773438 C 152.441406 54.441406 152.753906 54.273438 153.160156 54.273438 Z M 153.160156 54.273438 "/>
<path style=" stroke:none;fill-rule:nonzero;fill:rgb(0%,0%,0%);fill-opacity:1;" d="M 155.265625 57.367188 L 155.78125 57.367188 L 155.78125 57.992188 L 155.265625 57.992188 Z M 155.265625 57.367188 "/>
<path style=" stroke:none;fill-rule:nonzero;fill:rgb(0%,0%,0%);fill-opacity:1;" d="M 156.867188 54.351562 L 158.789062 54.351562 L 158.789062 54.757812 L 157.304688 54.757812 L 157.304688 55.648438 C 157.375 55.628906 157.449219 55.613281 157.523438 55.601562 C 157.59375 55.59375 157.667969 55.585938 157.742188 55.585938 C 158.148438 55.585938 158.46875 55.703125 158.710938 55.929688 C 158.949219 56.148438 159.070312 56.445312 159.070312 56.820312 C 159.070312 57.21875 158.945312 57.523438 158.695312 57.742188 C 158.453125 57.960938 158.109375 58.070312 157.664062 58.070312 C 157.507812 58.070312 157.351562 58.054688 157.195312 58.023438 C 157.039062 58 156.875 57.96875 156.710938 57.914062 L 156.710938 57.414062 C 156.855469 57.488281 157.007812 57.546875 157.164062 57.585938 C 157.320312 57.628906 157.480469 57.648438 157.648438 57.648438 C 157.9375 57.648438 158.164062 57.578125 158.320312 57.429688 C 158.484375 57.285156 158.570312 57.082031 158.570312 56.820312 C 158.570312 56.570312 158.484375 56.375 158.320312 56.226562 C 158.164062 56.070312 157.9375 55.992188 157.648438 55.992188 C 157.523438 55.992188 157.390625 56.007812 157.257812 56.039062 C 157.132812 56.070312 157 56.117188 156.867188 56.179688 Z M 156.867188 54.351562 "/>
<path style=" stroke:none;fill-rule:nonzero;fill:rgb(0%,0%,0%);fill-opacity:1;" d="M 124.296875 101 L 125.609375 101 L 125.609375 101.390625 L 124.296875 101.390625 Z M 124.296875 101 "/>
<g clip-path="url(#clip13)" clip-rule="nonzero">
<path style=" stroke:none;fill-rule:nonzero;fill:rgb(0%,0%,0%);fill-opacity:1;" d="M 126.472656 102.140625 L 127.269531 102.140625 L 127.269531 99.359375 L 126.394531 99.546875 L 126.394531 99.09375 L 127.269531 98.921875 L 127.769531 98.921875 L 127.769531 102.140625 L 128.566406 102.140625 L 128.566406 102.5625 L 126.472656 102.5625 Z M 126.472656 102.140625 "/>
</g>
<path style=" stroke:none;fill-rule:nonzero;fill:rgb(0%,0%,0%);fill-opacity:1;" d="M 119.550781 76.167969 L 120.863281 76.167969 L 120.863281 76.558594 L 119.550781 76.558594 Z M 119.550781 76.167969 "/>
<path style=" stroke:none;fill-rule:nonzero;fill:rgb(0%,0%,0%);fill-opacity:1;" d="M 122.695312 74.402344 C 122.433594 74.402344 122.242188 74.527344 122.117188 74.777344 C 121.992188 75.027344 121.929688 75.410156 121.929688 75.917969 C 121.929688 76.417969 121.992188 76.792969 122.117188 77.042969 C 122.242188 77.292969 122.433594 77.417969 122.695312 77.417969 C 122.945312 77.417969 123.132812 77.292969 123.257812 77.042969 C 123.390625 76.792969 123.460938 76.417969 123.460938 75.917969 C 123.460938 75.410156 123.390625 75.027344 123.257812 74.777344 C 123.132812 74.527344 122.945312 74.402344 122.695312 74.402344 Z M 122.695312 74.011719 C 123.101562 74.011719 123.40625 74.179688 123.617188 74.511719 C 123.835938 74.835938 123.945312 75.304688 123.945312 75.917969 C 123.945312 76.523438 123.835938 76.992188 123.617188 77.324219 C 123.40625 77.648438 123.101562 77.808594 122.695312 77.808594 C 122.289062 77.808594 121.976562 77.648438 121.757812 77.324219 C 121.539062 76.992188 121.429688 76.523438 121.429688 75.917969 C 121.429688 75.304688 121.539062 74.835938 121.757812 74.511719 C 121.976562 74.179688 122.289062 74.011719 122.695312 74.011719 Z M 122.695312 74.011719 "/>
<path style=" stroke:none;fill-rule:nonzero;fill:rgb(0%,0%,0%);fill-opacity:1;" d="M 124.800781 77.105469 L 125.316406 77.105469 L 125.316406 77.730469 L 124.800781 77.730469 Z M 124.800781 77.105469 "/>
<path style=" stroke:none;fill-rule:nonzero;fill:rgb(0%,0%,0%);fill-opacity:1;" d="M 126.402344 74.089844 L 128.324219 74.089844 L 128.324219 74.496094 L 126.839844 74.496094 L 126.839844 75.386719 C 126.910156 75.367188 126.984375 75.351562 127.058594 75.339844 C 127.128906 75.332031 127.203125 75.324219 127.277344 75.324219 C 127.683594 75.324219 128.003906 75.441406 128.246094 75.667969 C 128.484375 75.886719 128.605469 76.183594 128.605469 76.558594 C 128.605469 76.957031 128.480469 77.261719 128.230469 77.480469 C 127.988281 77.699219 127.644531 77.808594 127.199219 77.808594 C 127.042969 77.808594 126.886719 77.792969 126.730469 77.761719 C 126.574219 77.738281 126.410156 77.707031 126.246094 77.652344 L 126.246094 77.152344 C 126.390625 77.226562 126.542969 77.285156 126.699219 77.324219 C 126.855469 77.367188 127.015625 77.386719 127.183594 77.386719 C 127.472656 77.386719 127.699219 77.316406 127.855469 77.167969 C 128.019531 77.023438 128.105469 76.820312 128.105469 76.558594 C 128.105469 76.308594 128.019531 76.113281 127.855469 75.964844 C 127.699219 75.808594 127.472656 75.730469 127.183594 75.730469 C 127.058594 75.730469 126.925781 75.746094 126.792969 75.777344 C 126.667969 75.808594 126.535156 75.855469 126.402344 75.917969 Z M 126.402344 74.089844 "/>
<path style=" stroke:none;fill-rule:nonzero;fill:rgb(0%,0%,0%);fill-opacity:1;" d="M 179.578125 56.824219 L 180.375 56.824219 L 180.375 54.042969 L 179.5 54.230469 L 179.5 53.777344 L 180.375 53.605469 L 180.875 53.605469 L 180.875 56.824219 L 181.671875 56.824219 L 181.671875 57.246094 L 179.578125 57.246094 Z M 179.578125 56.824219 "/>
<g clip-path="url(#clip14)" clip-rule="nonzero">
<path style="fill:none;stroke-width:0.8;stroke-linecap:butt;stroke-linejoin:miter;stroke:rgb(93.72406%,16.078186%,16.078186%);stroke-opacity:1;stroke-miterlimit:4;" d="M 172.269531 40.105469 C 174.519531 36.210938 179.238281 34.492188 183.464844 36.03125 "/>
</g>
<path style=" stroke:none;fill-rule:nonzero;fill:rgb(93.72406%,16.078186%,16.078186%);fill-opacity:1;" d="M 184.835938 36.660156 L 183.785156 36.957031 L 182.734375 37.257812 L 183.230469 36.019531 L 183.726562 34.777344 Z M 184.835938 36.660156 "/>
<g clip-path="url(#clip15)" clip-rule="nonzero">
<path style="fill:none;stroke-width:0.8;stroke-linecap:butt;stroke-linejoin:miter;stroke:rgb(93.72406%,16.078186%,16.078186%);stroke-opacity:1;stroke-miterlimit:4;" d="M 172.265625 -62.121094 C 174.515625 -66.015625 179.234375 -67.734375 183.460938 -66.195312 " transform="matrix(1,0,0,-1,0,0)"/>
</g>
<path style=" stroke:none;fill-rule:nonzero;fill:rgb(93.72406%,16.078186%,16.078186%);fill-opacity:1;" d="M 184.902344 65.5 L 183.773438 65.175781 L 182.648438 64.855469 L 183.710938 67.519531 L 184.308594 66.507812 Z M 184.902344 65.5 "/>
<g clip-path="url(#clip16)" clip-rule="nonzero">
<path style=" stroke:none;fill-rule:nonzero;fill:rgb(93.72406%,16.078186%,16.078186%);fill-opacity:1;" d="M 181.230469 26.605469 L 182.042969 26.605469 L 182.042969 30.652344 L 184.464844 28.527344 L 185.496094 28.527344 L 182.886719 30.824219 L 185.605469 33.449219 L 184.542969 33.449219 L 182.042969 31.042969 L 182.042969 33.449219 L 181.230469 33.449219 Z M 181.230469 26.605469 "/>
</g>
<path style="fill:none;stroke-width:0.8;stroke-linecap:butt;stroke-linejoin:miter;stroke:rgb(93.72406%,16.078186%,16.078186%);stroke-opacity:1;stroke-miterlimit:4;" d="M 178.882812 27.851562 L 178.882812 32.035156 "/>
<path style=" stroke:none;fill-rule:nonzero;fill:rgb(93.72406%,16.078186%,16.078186%);fill-opacity:1;" d="M 178.863281 33.152344 L 179.515625 32.3125 L 180.164062 31.472656 L 177.566406 31.472656 Z M 178.863281 33.152344 "/>
<path style=" stroke:none;fill-rule:nonzero;fill:rgb(0%,0%,0%);fill-opacity:1;" d="M 112.738281 5.835938 C 112.738281 5.046875 112.570312 4.425781 112.238281 3.976562 C 111.914062 3.53125 111.472656 3.304688 110.910156 3.304688 C 110.335938 3.304688 109.882812 3.53125 109.550781 3.976562 C 109.226562 4.425781 109.066406 5.046875 109.066406 5.835938 C 109.066406 6.628906 109.226562 7.253906 109.550781 7.710938 C 109.882812 8.160156 110.335938 8.382812 110.910156 8.382812 C 111.472656 8.382812 111.914062 8.160156 112.238281 7.710938 C 112.570312 7.253906 112.738281 6.628906 112.738281 5.835938 Z M 109.066406 3.554688 C 109.292969 3.160156 109.582031 2.867188 109.925781 2.679688 C 110.269531 2.492188 110.679688 2.398438 111.160156 2.398438 C 111.960938 2.398438 112.613281 2.71875 113.113281 3.351562 C 113.613281 3.976562 113.863281 4.804688 113.863281 5.835938 C 113.863281 6.867188 113.613281 7.703125 113.113281 8.335938 C 112.613281 8.972656 111.960938 9.289062 111.160156 9.289062 C 110.679688 9.289062 110.269531 9.195312 109.925781 9.007812 C 109.582031 8.8125 109.292969 8.519531 109.066406 8.132812 L 109.066406 9.117188 L 107.988281 9.117188 L 107.988281 -0.0078125 L 109.066406 -0.0078125 Z M 109.066406 3.554688 "/>
<path style=" stroke:none;fill-rule:nonzero;fill:rgb(0%,0%,0%);fill-opacity:1;" d="M 115.480469 0.0078125 L 116.417969 0.0078125 C 117 0.9375 117.4375 1.84375 117.730469 2.726562 C 118.019531 3.601562 118.167969 4.476562 118.167969 5.351562 C 118.167969 6.226562 118.019531 7.109375 117.730469 7.992188 C 117.4375 8.878906 117 9.777344 116.417969 10.695312 L 115.480469 10.695312 C 115.988281 9.796875 116.375 8.910156 116.636719 8.023438 C 116.894531 7.140625 117.027344 6.25 117.027344 5.351562 C 117.027344 4.445312 116.894531 3.554688 116.636719 2.679688 C 116.375 1.796875 115.988281 0.90625 115.480469 0.0078125 Z M 115.480469 0.0078125 "/>
<path style=" stroke:none;fill-rule:nonzero;fill:rgb(0%,0%,0%);fill-opacity:1;" d="M 166.957031 39.949219 L 166.957031 41.308594 L 167.582031 41.308594 C 167.808594 41.308594 167.988281 41.253906 168.113281 41.136719 C 168.238281 41.011719 168.300781 40.839844 168.300781 40.621094 C 168.300781 40.402344 168.238281 40.238281 168.113281 40.121094 C 167.988281 40.007812 167.808594 39.949219 167.582031 39.949219 Z M 166.457031 39.542969 L 167.582031 39.542969 C 167.988281 39.542969 168.292969 39.636719 168.503906 39.824219 C 168.710938 40.003906 168.816406 40.269531 168.816406 40.621094 C 168.816406 40.988281 168.710938 41.261719 168.503906 41.449219 C 168.292969 41.628906 167.988281 41.714844 167.582031 41.714844 L 166.957031 41.714844 L 166.957031 43.183594 L 166.457031 43.183594 Z M 166.457031 39.542969 "/>
<path style=" stroke:none;fill-rule:nonzero;fill:rgb(0%,0%,0%);fill-opacity:1;" d="M 170.167969 42.195312 C 169.949219 42.195312 169.777344 42.28125 169.652344 42.445312 C 169.527344 42.601562 169.464844 42.816406 169.464844 43.085938 C 169.464844 43.367188 169.527344 43.585938 169.652344 43.742188 C 169.777344 43.898438 169.949219 43.976562 170.167969 43.976562 C 170.375 43.976562 170.542969 43.898438 170.667969 43.742188 C 170.792969 43.585938 170.855469 43.367188 170.855469 43.085938 C 170.855469 42.816406 170.792969 42.601562 170.667969 42.445312 C 170.542969 42.28125 170.375 42.195312 170.167969 42.195312 Z M 170.574219 44.132812 L 170.964844 44.570312 L 170.605469 44.570312 L 170.292969 44.210938 C 170.25 44.21875 170.21875 44.226562 170.199219 44.226562 C 170.1875 44.226562 170.175781 44.226562 170.167969 44.226562 C 169.855469 44.226562 169.605469 44.125 169.417969 43.914062 C 169.238281 43.707031 169.152344 43.429688 169.152344 43.085938 C 169.152344 42.742188 169.238281 42.46875 169.417969 42.257812 C 169.605469 42.050781 169.855469 41.945312 170.167969 41.945312 C 170.46875 41.945312 170.707031 42.050781 170.886719 42.257812 C 171.074219 42.46875 171.167969 42.742188 171.167969 43.085938 C 171.167969 43.347656 171.113281 43.566406 171.011719 43.742188 C 170.917969 43.921875 170.769531 44.050781 170.574219 44.132812 Z M 170.574219 44.132812 "/>
<path style=" stroke:none;fill-rule:nonzero;fill:rgb(0%,0%,0%);fill-opacity:1;" d="M 167.824219 56.640625 L 167.824219 58 L 168.449219 58 C 168.675781 58 168.855469 57.945312 168.980469 57.828125 C 169.105469 57.703125 169.167969 57.53125 169.167969 57.3125 C 169.167969 57.09375 169.105469 56.929688 168.980469 56.8125 C 168.855469 56.699219 168.675781 56.640625 168.449219 56.640625 Z M 167.324219 56.234375 L 168.449219 56.234375 C 168.855469 56.234375 169.160156 56.328125 169.371094 56.515625 C 169.578125 56.695312 169.683594 56.960938 169.683594 57.3125 C 169.683594 57.679688 169.578125 57.953125 169.371094 58.140625 C 169.160156 58.320312 168.855469 58.40625 168.449219 58.40625 L 167.824219 58.40625 L 167.824219 59.875 L 167.324219 59.875 Z M 167.324219 56.234375 "/>
<path style=" stroke:none;fill-rule:nonzero;fill:rgb(0%,0%,0%);fill-opacity:1;" d="M 170.140625 58.683594 L 170.4375 58.683594 L 170.4375 60.871094 L 170.140625 60.871094 Z M 170.140625 58.683594 "/>
</g>
</svg>
