<?xml version="1.0" encoding="UTF-8" standalone="no"?>
<svg
   width="185.669113pt"
   height="102.56218pt"
   viewBox="0 0 185.669113 102.56218"
   version="1.1"
   id="svg725"
   sodipodi:docname="core.svg"
   inkscape:version="1.2 (dc2aedaf03, 2022-05-15)"
   xmlns:inkscape="http://www.inkscape.org/namespaces/inkscape"
   xmlns:sodipodi="http://sodipodi.sourceforge.net/DTD/sodipodi-0.dtd"
   xmlns="http://www.w3.org/2000/svg"
   xmlns:svg="http://www.w3.org/2000/svg">
  <sodipodi:namedview
     id="namedview727"
     pagecolor="#505050"
     bordercolor="#eeeeee"
     borderopacity="1"
     inkscape:showpageshadow="0"
     inkscape:pageopacity="0"
     inkscape:pagecheckerboard="0"
     inkscape:deskcolor="#505050"
     inkscape:document-units="pt"
     showgrid="false"
     inkscape:zoom="4.9604373"
     inkscape:cx="129.42407"
     inkscape:cy="89.306642"
     inkscape:window-width="1920"
     inkscape:window-height="1027"
     inkscape:window-x="-8"
     inkscape:window-y="-8"
     inkscape:window-maximized="1"
     inkscape:current-layer="svg725" />
  <defs
     id="defs428">
    <clipPath
       id="clip1">
      <path
         d="M 29 82 L 52 82 L 52 102.5625 L 29 102.5625 Z M 29 82 "
         id="path380" />
    </clipPath>
    <clipPath
       id="clip2">
      <path
         d="M 162 47 L 185.667969 47 L 185.667969 73 L 162 73 Z M 162 47 "
         id="path383" />
    </clipPath>
    <clipPath
       id="clip3">
      <path
         d="M 162 29 L 185.667969 29 L 185.667969 55 L 162 55 Z M 162 29 "
         id="path386" />
    </clipPath>
    <clipPath
       id="clip4">
      <path
         d="M 163 49 L 185.667969 49 L 185.667969 74 L 163 74 Z M 163 49 "
         id="path389" />
    </clipPath>
    <clipPath
       id="clip5">
      <path
         d="M 163 28 L 185.667969 28 L 185.667969 53 L 163 53 Z M 163 28 "
         id="path392" />
    </clipPath>
    <clipPath
       id="clip6">
      <path
         d="M 166 51 L 185.667969 51 L 185.667969 76 L 166 76 Z M 166 51 "
         id="path395" />
    </clipPath>
    <clipPath
       id="clip7">
      <path
         d="M 166 26 L 185.667969 26 L 185.667969 51 L 166 51 Z M 166 26 "
         id="path398" />
    </clipPath>
    <clipPath
       id="clip8">
      <path
         d="M 169 51 L 185.667969 51 L 185.667969 76 L 169 76 Z M 169 51 "
         id="path401" />
    </clipPath>
    <clipPath
       id="clip9">
      <path
         d="M 169 26 L 185.667969 26 L 185.667969 51 L 169 51 Z M 169 26 "
         id="path404" />
    </clipPath>
    <clipPath
       id="clip10">
      <path
         d="M 172 49 L 185.667969 49 L 185.667969 74 L 172 74 Z M 172 49 "
         id="path407" />
    </clipPath>
    <clipPath
       id="clip11">
      <path
         d="M 172 28 L 185.667969 28 L 185.667969 53 L 172 53 Z M 172 28 "
         id="path410" />
    </clipPath>
    <clipPath
       id="clip12">
      <path
         d="M 168 38 L 185.667969 38 L 185.667969 64 L 168 64 Z M 168 38 "
         id="path413" />
    </clipPath>
    <clipPath
       id="clip13">
      <path
         d="M 126 98 L 129 98 L 129 102.5625 L 126 102.5625 Z M 126 98 "
         id="path416" />
    </clipPath>
    <clipPath
       id="clip14">
      <path
         d="M 167 30 L 185.667969 30 L 185.667969 45 L 167 45 Z M 167 30 "
         id="path419" />
    </clipPath>
    <clipPath
       id="clip15">
      <path
         d="M 167 57 L 185.667969 57 L 185.667969 72 L 167 72 Z M 167 57 "
         id="path422" />
    </clipPath>
    <clipPath
       id="clip16">
      <path
         d="M 181 26 L 185.667969 26 L 185.667969 34 L 181 34 Z M 181 26 "
         id="path425" />
    </clipPath>
  </defs>
  <path
     style="fill:none;stroke:#ffffff;stroke-width:0.8;stroke-linecap:butt;stroke-linejoin:miter;stroke-miterlimit:4;stroke-opacity:1"
     d="m 71.046581,16.257812 13.875294,0 c 1.109375,0 2,0.890626 2,2 v 9.198242 l 0,5.191539 m 0,10.14322 0,12.259968 v 9.198242 9.198242 9.198243 9.198242 c 0,1.109375 -0.890625,2 -2,2 H 68.788086 l -21.954848,0 m -12.108187,0 -14.338332,0 c -1.109375,0 -2,-0.890625 -2,-2 v -9.198242 l 0,-5.493932 m 0,-10.256617 V 57.99911 m 0,-12.146571 v -9.198243 -9.198242 -9.198242 c 0,-1.109374 0.890625,-2 2,-2 h 16.133789 22.370638"
     id="path430"
     sodipodi:nodetypes="csscccccccsscccsscccccccsscc" />
  <path
     style="fill:none;stroke:#ffffff;stroke-width:0.8;stroke-linecap:butt;stroke-linejoin:miter;stroke-miterlimit:4;stroke-opacity:1"
     d="m 12.595876,38.550781 h 15.363512 m 12.786802,0 4.848589,0 m 28.780963,0 6.730372,0"
     id="path432"
     sodipodi:nodetypes="cccccc" />
  <path
     style="fill:#ffffff;fill-opacity:1;fill-rule:nonzero;stroke:none"
     d="m 82.410156,38.554688 -2.15625,1.664062 v -3.332031 l 1.078125,0.835937 z m 0,0"
     id="path436" />
  <path
     style="fill:#ffffff;fill-opacity:1;fill-rule:nonzero;stroke:none"
     d="m 47.003906,38.554688 -1.074218,0.832031 -1.078126,0.832031 v -3.332031 l 1.078126,0.835937 z m 0,0"
     id="path440" />
  <path
     style="fill:#ffffff;fill-opacity:1;fill-rule:nonzero;stroke:none"
     d="m 87.109375,33.960938 0.835937,-1.078126 0.832032,-1.078124 h -3.332032 z m 0,0"
     id="path444" />
  <path
     style="fill:none;fill-opacity:1;fill-rule:nonzero;stroke:#ffffff;stroke-width:0.947676;stroke-linecap:butt;stroke-linejoin:miter;stroke-miterlimit:4;stroke-opacity:1"
     d="m 91.4375,38.554688 c 0,2.375 -1.921875,4.300781 -4.289062,4.300781 -2.367188,0 -4.285157,-1.925781 -4.285157,-4.300781 0,-2.375 1.917969,-4.304688 4.285157,-4.304688 2.367187,0 4.289062,1.929688 4.289062,4.304688 z m 0,0"
     id="path446" />
  <path
     style="fill:#ffffff;fill-opacity:1;fill-rule:nonzero;stroke:none"
     d="m 87.644531,35.597656 v 2.453125 h 2.453125 v 0.734375 h -2.453125 v 2.453125 h -0.734375 v -2.453125 h -2.453125 v -0.734375 h 2.453125 v -2.453125 z m 0,0"
     id="path448" />
  <path
     style="fill:none;fill-opacity:1;fill-rule:evenodd;stroke:#ffffff;stroke-width:0.8;stroke-linecap:butt;stroke-linejoin:miter;stroke-miterlimit:10;stroke-opacity:1"
     d="M 47.261719,50.929688 74.1875,50.835938 V 26.175781 l -26.925781,0.09766 z m 0,0"
     id="path450" />
  <path
     style="fill:#ffffff;stroke:#ffffff;stroke-width:0.8;stroke-linecap:butt;stroke-linejoin:bevel;stroke-miterlimit:10;stroke-opacity:1"
     d="M 70.914063,38.554688 H 50.535156"
     id="path452" />
  <path
     style="fill:#ffffff;fill-opacity:1;fill-rule:nonzero;stroke:none"
     d="m 54.992188,31.808594 h 3.84375 v 0.734375 l -3.046876,3.546875 h 3.046876 v 0.640625 h -3.953126 v -0.734375 l 3.03125,-3.546875 h -2.921874 z m 0,0"
     id="path454" />
  <path
     style="fill:#ffffff;fill-opacity:1;fill-rule:nonzero;stroke:none"
     d="M 61.484375,31.183594 H 63.0625 v 0.484375 h -1.578125 z m 0,0"
     id="path456" />
  <path
     style="fill:#ffffff;fill-opacity:1;fill-rule:nonzero;stroke:none"
     d="m 64.082031,32.574219 h 0.96875 v -3.328125 l -1.0625,0.203125 v -0.53125 l 1.046875,-0.21875 h 0.59375 v 3.875 h 0.96875 v 0.5 h -2.515625 z m 0,0"
     id="path458" />
  <path
     style="fill:#ffffff;fill-opacity:1;fill-rule:nonzero;stroke:none"
     d="M 50.734375,47.074219 H 52.1875 v -5 l -1.578125,0.3125 v -0.8125 l 1.578125,-0.3125 h 0.890625 v 5.8125 h 1.4375 v 0.75 h -3.78125 z m 0,0"
     id="path460" />
  <path
     style="fill:#ffffff;fill-opacity:1;fill-rule:nonzero;stroke:none"
     d="m 55.882812,44.996094 h 2.375 v 0.71875 h -2.375 z m 0,0"
     id="path462" />
  <path
     style="fill:#ffffff;fill-opacity:1;fill-rule:nonzero;stroke:none"
     d="m 59.246094,42.902344 h 3.84375 v 0.734375 l -3.046875,3.546875 h 3.046875 v 0.640625 h -3.953125 v -0.734375 l 3.03125,-3.546875 h -2.921875 z m 0,0"
     id="path464" />
  <path
     style="fill:#ffffff;fill-opacity:1;fill-rule:nonzero;stroke:none"
     d="m 65.738281,42.273438 h 1.578125 v 0.484374 h -1.578125 z m 0,0"
     id="path466" />
  <path
     style="fill:#ffffff;fill-opacity:1;fill-rule:nonzero;stroke:none"
     d="m 68.339844,43.664062 h 0.96875 v -3.328124 l -1.0625,0.203124 v -0.53125 l 1.046875,-0.21875 h 0.59375 v 3.875 h 0.96875 v 0.5 h -2.515625 z m 0,0"
     id="path468" />
  <path
     style="fill:none;fill-opacity:1;fill-rule:nonzero;stroke:#ffffff;stroke-width:0.8;stroke-linecap:butt;stroke-linejoin:miter;stroke-miterlimit:4;stroke-opacity:1"
     d="m 40.957031,38.582031 -6.394531,3.617188 -6.394531,3.621094 0.01563,-7.265625 0.01563,-7.261719 z m 0,0"
     id="path470" />
  <path
     style="fill:none;fill-opacity:1;fill-rule:nonzero;stroke:#ffffff;stroke-width:0.8;stroke-linecap:butt;stroke-linejoin:miter;stroke-miterlimit:4;stroke-opacity:1"
     d="m 71.746094,15.929688 -6.394532,3.617187 -6.390625,3.621094 0.01563,-7.265625 0.01563,-7.2617189 6.375,3.6445309 z m 0,0"
     id="path472" />
  <path
     style="fill:#a30000;fill-opacity:1;fill-rule:nonzero;stroke:none"
     d="m 33.0625,35.183594 v 0.671875 h -0.78125 c -0.292969,0 -0.496094,0.0625 -0.609375,0.1875 -0.105469,0.117187 -0.15625,0.324219 -0.15625,0.625 v 0.4375 h 1.328125 v 0.625 h -1.328125 v 4.296875 h -0.8125 v -4.296875 h -0.78125 v -0.625 h 0.78125 v -0.34375 c 0,-0.550781 0.125,-0.953125 0.375,-1.203125 0.257813,-0.25 0.664063,-0.375 1.21875,-0.375 z m 0,0"
     id="path474" />
  <path
     style="fill:#a30000;fill-opacity:1;fill-rule:nonzero;stroke:none"
     d="m 60.898438,12.890625 h 0.625 v 3.140625 l 1.875,-1.65625 h 0.8125 l -2.03125,1.796875 2.109374,2.03125 h -0.8125 l -1.953124,-1.875 v 1.875 h -0.625 z m 0,0"
     id="path476" />
  <path
     style="fill:none;stroke:#ffffff;stroke-width:0.8;stroke-linecap:butt;stroke-linejoin:miter;stroke-miterlimit:4;stroke-opacity:1"
     d="m 93.242566,71.195312 -15.238876,0 m -12.445278,0 h -4.156725 m -28.629599,0 -8.717246,0"
     id="path478"
     sodipodi:nodetypes="cccccc" />
  <path
     style="fill:#ffffff;fill-opacity:1;fill-rule:nonzero;stroke:none"
     d="m 22.960938,71.191406 2.15625,-1.664062 v 3.332031 l -1.078126,-0.832031 z m 0,0"
     id="path482" />
  <path
     style="fill:#ffffff;fill-opacity:1;fill-rule:nonzero;stroke:none"
     d="m 59.78125,71.191406 1.074219,-0.832031 1.078125,-0.832031 v 3.332031 l -1.078125,-0.832031 z m 0,0"
     id="path486" />
  <path
     style="fill:#ffffff;fill-opacity:1;fill-rule:nonzero;stroke:none"
     d="m 18.261719,75.785156 -0.835938,1.078125 -0.832031,1.078125 h 3.332031 z m 0,0"
     id="path490" />
  <path
     style="fill:none;fill-opacity:1;fill-rule:nonzero;stroke:#ffffff;stroke-width:0.947676;stroke-linecap:butt;stroke-linejoin:miter;stroke-miterlimit:4;stroke-opacity:1"
     d="m 13.933593,71.191406 c 0,-2.375 1.921876,-4.300781 4.289064,-4.300781 2.367187,0 4.285155,1.925781 4.285155,4.300781 0,2.378906 -1.917968,4.304688 -4.285155,4.304688 -2.367188,0 -4.289064,-1.925782 -4.289064,-4.304688 z m 0,0"
     id="path492" />
  <path
     style="fill:#ffffff;fill-opacity:1;fill-rule:nonzero;stroke:none"
     d="m 17.726562,74.148438 v -2.453126 h -2.453124 v -0.734374 h 2.453124 v -2.453126 h 0.734376 v 2.453126 h 2.453124 v 0.734374 h -2.453124 v 2.453126 z m 0,0"
     id="path494" />
  <path
     style="fill:none;fill-opacity:1;fill-rule:evenodd;stroke:#ffffff;stroke-width:0.8;stroke-linecap:butt;stroke-linejoin:miter;stroke-miterlimit:10;stroke-opacity:1"
     d="m 32.753906,83.664062 26.925782,-0.09375 V 58.910156 l -26.925782,0.09766 z m 0,0"
     id="path496" />
  <path
     style="fill:none;stroke:#ffffff;stroke-width:0.8;stroke-linecap:butt;stroke-linejoin:bevel;stroke-miterlimit:10;stroke-opacity:1"
     d="M 56.40625,71.289062 H 36.027344"
     id="path498" />
  <path
     style="fill:#ffffff;fill-opacity:1;fill-rule:nonzero;stroke:none"
     d="m 40.484375,64.542969 h 3.84375 v 0.734375 l -3.046875,3.546875 h 3.046875 v 0.640625 H 40.375 v -0.734375 l 3.03125,-3.546875 h -2.921875 z m 0,0"
     id="path500" />
  <path
     style="fill:#ffffff;fill-opacity:1;fill-rule:nonzero;stroke:none"
     d="m 46.972656,63.917969 h 1.578125 v 0.484375 h -1.578125 z m 0,0"
     id="path502" />
  <path
     style="fill:#ffffff;fill-opacity:1;fill-rule:nonzero;stroke:none"
     d="m 49.574219,65.308594 h 0.96875 v -3.328125 l -1.0625,0.203125 v -0.53125 l 1.046875,-0.21875 h 0.59375 v 3.875 h 0.96875 v 0.5 h -2.515625 z m 0,0"
     id="path504" />
  <path
     style="fill:#ffffff;fill-opacity:1;fill-rule:nonzero;stroke:none"
     d="m 36.222656,79.808594 h 1.453125 v -5 l -1.578125,0.3125 v -0.8125 l 1.578125,-0.3125 h 0.890625 v 5.8125 h 1.4375 v 0.75 h -3.78125 z m 0,0"
     id="path506" />
  <path
     style="fill:#ffffff;fill-opacity:1;fill-rule:nonzero;stroke:none"
     d="m 41.371094,77.730469 h 2.375 v 0.71875 h -2.375 z m 0,0"
     id="path508" />
  <path
     style="fill:#ffffff;fill-opacity:1;fill-rule:nonzero;stroke:none"
     d="m 44.738281,75.636719 h 3.84375 v 0.734375 l -3.046875,3.546875 h 3.046875 v 0.640625 h -3.953125 v -0.734375 l 3.03125,-3.546875 h -2.921875 z m 0,0"
     id="path510" />
  <path
     style="fill:#ffffff;fill-opacity:1;fill-rule:nonzero;stroke:none"
     d="m 51.230469,75.007812 h 1.578125 v 0.484376 h -1.578125 z m 0,0"
     id="path512" />
  <path
     style="fill:#ffffff;fill-opacity:1;fill-rule:nonzero;stroke:none"
     d="m 53.832031,76.398438 h 0.96875 v -3.328126 l -1.0625,0.203126 v -0.53125 l 1.046875,-0.21875 h 0.59375 v 3.875 h 0.96875 v 0.5 h -2.515625 z m 0,0"
     id="path514" />
  <path
     style="fill:none;fill-opacity:1;fill-rule:nonzero;stroke:#ffffff;stroke-width:0.8;stroke-linecap:butt;stroke-linejoin:miter;stroke-miterlimit:4;stroke-opacity:1"
     d="m 65.1875,71.054688 6.394531,3.617187 6.394532,3.621094 -0.01955,-7.265625 -0.01563,-7.261719 -6.374999,3.644531 z m 0,0"
     id="path516" />
  <g
     clip-path="url(#clip1)"
     clip-rule="nonzero"
     id="g522"
     style="fill:none;stroke:#ffffff">
    <path
       style="fill:none;stroke:#ffffff;stroke-width:0.806038;stroke-linecap:butt;stroke-linejoin:miter;stroke-miterlimit:4;stroke-opacity:1"
       d="m -33.875177,95.667298 -6.386553,3.689554 -6.382656,3.685578 -3.23e-4,-7.37575 -3.15e-4,-7.371787 6.382971,3.686207 z m 0,0"
       transform="matrix(-1,0.0020936,0.00216223,0.985069,0,0)"
       id="path520" />
  </g>
  <path
     style="fill:#a30000;fill-opacity:1;fill-rule:nonzero;stroke:none"
     d="m 76.246094,67.660156 v 0.671875 h -0.78125 c -0.292969,0 -0.496094,0.0625 -0.609375,0.1875 -0.105469,0.117188 -0.15625,0.324219 -0.15625,0.625 v 0.4375 h 1.328125 v 0.625 h -1.328125 v 4.296875 h -0.8125 v -4.296875 h -0.78125 v -0.625 h 0.78125 v -0.34375 c 0,-0.550781 0.125,-0.953125 0.375,-1.203125 0.257812,-0.25 0.664062,-0.375 1.21875,-0.375 z m 0,0"
     id="path524" />
  <path
     style="fill:#a30000;fill-opacity:1;fill-rule:nonzero;stroke:none"
     d="m 41.617188,91.101562 h 0.625 v 3.140626 l 1.875,-1.65625 h 0.8125 l -2.03125,1.796874 2.109374,2.03125 h -0.8125 l -1.953124,-1.875 v 1.875 h -0.625 z m 0,0"
     id="path526" />
  <path
     style="fill:none;fill-opacity:1;fill-rule:evenodd;stroke:#ffffff;stroke-width:0.8;stroke-linecap:butt;stroke-linejoin:miter;stroke-miterlimit:4;stroke-opacity:1"
     d="m 12.527344,35.609375 v 5.898437 H 3.492188 l -2.921876,-2.875 3,-2.949218 z m 0,0"
     id="path528" />
  <path
     style="fill:none;fill-opacity:1;fill-rule:evenodd;stroke:#ffffff;stroke-width:0.8;stroke-linecap:butt;stroke-linejoin:miter;stroke-miterlimit:4;stroke-opacity:1"
     d="m 93.132812,74.070312 v -5.898437 h 9.035158 l 2.92187,2.875 -3,2.949219 z m 0,0"
     id="path530" />
  <path
     style="fill:#ffffff;fill-opacity:1;fill-rule:nonzero;stroke:none"
     d="m 86.726562,72.425781 c -0.714843,0 -1.292968,-0.578125 -1.292968,-1.292969 0,-0.710937 0.578125,-1.289062 1.292968,-1.289062 0.710938,0 1.289063,0.578125 1.289063,1.289062 0,0.714844 -0.578125,1.292969 -1.289063,1.292969 z m 0,0"
     id="path532" />
  <path
     style="fill:#ffffff;fill-opacity:1;fill-rule:nonzero;stroke:none"
     d="m 18.359375,39.816406 c -0.714844,0 -1.289063,-0.578125 -1.289063,-1.289062 0,-0.714844 0.574219,-1.292969 1.289063,-1.292969 0.710937,0 1.289063,0.578125 1.289063,1.292969 0,0.710937 -0.578126,1.289062 -1.289063,1.289062 z m 0,0"
     id="path534" />
  <path
     style="fill:#a30000;fill-opacity:1;fill-rule:nonzero;stroke:none"
     d="m 98.097656,58.078125 c -0.648437,0 -1.164062,0.242187 -1.546875,0.71875 -0.375,0.480469 -0.5625,1.132813 -0.5625,1.953125 0,0.835938 0.1875,1.492188 0.5625,1.96875 0.382813,0.480469 0.898438,0.71875 1.546875,0.71875 0.644532,0 1.15625,-0.238281 1.53125,-0.71875 0.375004,-0.476562 0.562504,-1.132812 0.562504,-1.96875 0,-0.820312 -0.1875,-1.472656 -0.562504,-1.953125 -0.375,-0.476563 -0.886718,-0.71875 -1.53125,-0.71875 z m 1.25,5.828125 1.156254,1.28125 h -1.062504 l -0.96875,-1.046875 c -0.105468,0.0078 -0.183594,0.01563 -0.234375,0.01563 -0.05469,0 -0.101562,0 -0.140625,0 -0.929687,0 -1.667968,-0.304688 -2.21875,-0.921875 -0.554687,-0.613281 -0.828125,-1.441406 -0.828125,-2.484375 0,-1.03125 0.273438,-1.851562 0.828125,-2.46875 0.550782,-0.625 1.289063,-0.9375 2.21875,-0.9375 0.914063,0 1.648438,0.3125 2.203124,0.9375 0.55078,0.617188 0.82813,1.4375 0.82813,2.46875 0,0.773438 -0.15625,1.429688 -0.46875,1.96875 -0.30469,0.542969 -0.742191,0.9375 -1.312504,1.1875 z m 0,0"
     id="path536" />
  <path
     style="fill:#a30000;fill-opacity:1;fill-rule:nonzero;stroke:none"
     d="m 7.355469,24.988281 h 0.875 v 6.5625 h -0.875 z m 0,0"
     id="path538" />
  <path
     style="fill:none;fill-opacity:1;fill-rule:nonzero;stroke:#ffffff;stroke-width:0.8;stroke-linecap:butt;stroke-linejoin:miter;stroke-miterlimit:4;stroke-opacity:1"
     d="M 18.539063,45.351562 22.15625,51.75 l 3.613281,6.398438 -7.257812,-0.01563 -7.257812,-0.01955 3.644531,-6.378906 z m 0,0"
     id="path540" />
  <path
     style="fill:#ffffff;fill-opacity:1;fill-rule:nonzero;stroke:none"
     d="m 15.585938,54.320312 h 1.84375 v 0.5625 h -1.84375 z m 0,0"
     id="path542" />
  <path
     style="fill:#ffffff;fill-opacity:1;fill-rule:nonzero;stroke:none"
     d="m 18.59375,55.945312 h 1.125 v -3.890624 l -1.234375,0.234374 v -0.625 l 1.21875,-0.25 h 0.703125 v 4.53125 h 1.125 v 0.578126 h -2.9375 z m 0,0"
     id="path544" />
  <path
     style="fill:#ffffff;fill-opacity:1;fill-rule:nonzero;stroke:none"
     d="m 3.390625,5.808594 c -0.867187,0 -1.46875,0.101562 -1.8125,0.296875 -0.335937,0.199219 -0.5,0.539062 -0.5,1.015625 0,0.386718 0.125,0.695312 0.375,0.921875 0.257813,0.21875 0.601563,0.328125 1.03125,0.328125 0.601563,0 1.082031,-0.207032 1.4375,-0.625 C 4.285156,7.320312 4.46875,6.753906 4.46875,6.042969 V 5.808594 Z m 2.15625,-0.453125 v 3.75 H 4.46875 v -1 c -0.25,0.398437 -0.558594,0.695312 -0.921875,0.890625 -0.367187,0.1875 -0.8125,0.28125 -1.34375,0.28125 -0.679687,0 -1.214844,-0.1875 -1.609375,-0.5625 C 0.195312,8.332031 0,7.824219 0,7.199219 0,6.460938 0.242188,5.902344 0.734375,5.527344 c 0.5,-0.375 1.238281,-0.5625 2.21875,-0.5625 H 4.46875 V 4.855469 c 0,-0.5 -0.167969,-0.882813 -0.5,-1.15625 C 3.644531,3.429688 3.191406,3.292969 2.609375,3.292969 2.234375,3.292969 1.863281,3.339844 1.5,3.433594 1.144531,3.527344 0.804688,3.664062 0.484375,3.839844 v -1 C 0.878906,2.683594 1.257812,2.570312 1.625,2.496094 2,2.425781 2.363281,2.386719 2.71875,2.386719 c 0.945312,0 1.65625,0.246093 2.125,0.734375 0.46875,0.492187 0.703125,1.234375 0.703125,2.234375 z m 0,0"
     id="path546" />
  <path
     style="fill:#ffffff;fill-opacity:1;fill-rule:nonzero;stroke:none"
     d="m 7.609375,-0.00390625 h 0.9375 C 9.128906,0.925781 9.566406,1.832031 9.859375,2.714844 c 0.289063,0.875 0.4375,1.75 0.4375,2.625 0,0.875 -0.148437,1.757812 -0.4375,2.640625 -0.292969,0.886719 -0.730469,1.785156 -1.3125,2.703125 h -0.9375 C 8.117188,9.785156 8.503906,8.898438 8.765625,8.011719 9.023438,7.128906 9.15625,6.238281 9.15625,5.339844 9.15625,4.433594 9.023438,3.542969 8.765625,2.667969 8.503906,1.785156 8.117188,0.894531 7.609375,-0.00390625 Z m 0,0"
     id="path548" />
  <g
     clip-path="url(#clip2)"
     clip-rule="nonzero"
     id="g552">
    <path
       style="fill:none;stroke:#a30000;stroke-width:0.8;stroke-linecap:square;stroke-linejoin:miter;stroke-miterlimit:10;stroke-opacity:1"
       d="m 173.81641,59.054688 1.67187,1.667968 m 0,-1.667968 -1.67187,1.667968"
       id="path550" />
  </g>
  <g
     clip-path="url(#clip3)"
     clip-rule="nonzero"
     id="g556">
    <path
       style="fill:none;stroke:#a30000;stroke-width:0.8;stroke-linecap:square;stroke-linejoin:miter;stroke-miterlimit:10;stroke-opacity:1"
       d="m 173.81641,41.285156 1.67187,1.671875 m 0,-1.671875 -1.67187,1.671875"
       id="path554" />
  </g>
  <path
     style="fill:none;stroke:#ffffff;stroke-width:0.4;stroke-linecap:butt;stroke-linejoin:round;stroke-miterlimit:10;stroke-opacity:1"
     d="m 180.41406,51.214844 -0.0273,-1.632813 -0.0664,-1.417969 -0.125,-1.59375 -0.17578,-1.597656 -0.22656,-1.585937 -0.25781,-1.460938 -0.3125,-1.503906 -0.3711,-1.542969 -0.42187,-1.527344 -0.48438,-1.558593 -0.46484,-1.355469 -0.57422,-1.507812 -0.625,-1.5 -0.64844,-1.421876 -0.6289,-1.273437 -0.79297,-1.488281 -0.71094,-1.242188 -0.87109,-1.414062 -0.8125,-1.230469 -0.9336,-1.316406 -0.92578,-1.226563 -1.00781,-1.25 -0.96094,-1.117187 -1.07422,-1.175781 -1.15234,-1.179688 -1.03516,-0.996094 -1.15234,-1.042968 -1.22266,-1.035157 -1.23047,-0.976562 -1.21484,-0.90625 -1.38672,-0.964844 -1.26953,-0.824219 -1.38281,-0.835937 -1.27735,-0.71875 -1.42187,-0.742188 -1.35547,-0.65625 -1.44141,-0.640625 -1.42578,-0.582031 -1.51172,-0.5625 -1.47265,-0.492187 -1.52344,-0.457032 -1.52344,-0.40625 -1.41015,-0.328125 -1.625,-0.324219 -1.46485,-0.246093 -1.5664,-0.210938 -1.50782,-0.15625 -1.67578,-0.121093 -1.45703,-0.058594 -1.65234,-0.011719 m 0.0977,98.835935 1.45313,-0.0117 1.65234,-0.0664 1.50391,-0.10547 1.64062,-0.17188 1.40625,-0.1914 1.59766,-0.265628 1.53516,-0.304687 1.51953,-0.355469 1.50781,-0.398437 1.42969,-0.429688 1.53515,-0.515625 1.44532,-0.535156 1.5039,-0.609375 1.33985,-0.597656 1.46093,-0.707031 1.37891,-0.71875 1.35156,-0.761719 1.38672,-0.835938 1.25,-0.816406 1.25391,-0.871094 1.35547,-1.003906 1.19531,-0.953125 1.1914,-1.007812 1.17579,-1.066407 1.05468,-1.011719 1.08594,-1.113281 1.04688,-1.136719 1.07812,-1.253906 0.91406,-1.132812 1.01563,-1.34375 0.875,-1.238282 0.82812,-1.253906 0.84766,-1.375 0.80859,-1.40625 0.69141,-1.300781 0.69141,-1.40625 0.63281,-1.390625 0.64062,-1.53125 0.50782,-1.339844 0.53515,-1.558594 0.45703,-1.480468 0.40625,-1.476563 0.36328,-1.492187 0.32032,-1.53125 0.28515,-1.636719 0.21485,-1.503906 0.16797,-1.492188 0.125,-1.601562 0.0742,-1.601563 0.0234,-1.507812"
     id="path558" />
  <g
     clip-path="url(#clip4)"
     clip-rule="nonzero"
     id="g562">
    <path
       style="fill:none;stroke:#a30000;stroke-width:0.8;stroke-linecap:square;stroke-linejoin:miter;stroke-miterlimit:10;stroke-opacity:1"
       d="m 175.30859,61 1.66797,1.671875 m 0,-1.671875 -1.66797,1.671875"
       id="path560" />
  </g>
  <g
     clip-path="url(#clip5)"
     clip-rule="nonzero"
     id="g566">
    <path
       style="fill:none;stroke:#a30000;stroke-width:0.8;stroke-linecap:square;stroke-linejoin:miter;stroke-miterlimit:10;stroke-opacity:1"
       d="m 175.30859,39.339844 1.66797,1.667968 m 0,-1.667968 -1.66797,1.667968"
       id="path564" />
  </g>
  <g
     clip-path="url(#clip6)"
     clip-rule="nonzero"
     id="g570">
    <path
       style="fill:none;stroke:#a30000;stroke-width:0.8;stroke-linecap:square;stroke-linejoin:miter;stroke-miterlimit:10;stroke-opacity:1"
       d="m 177.85156,62.335938 1.66797,1.667968 m 0,-1.667968 -1.66797,1.667968"
       id="path568" />
  </g>
  <g
     clip-path="url(#clip7)"
     clip-rule="nonzero"
     id="g574">
    <path
       style="fill:none;stroke:#a30000;stroke-width:0.8;stroke-linecap:square;stroke-linejoin:miter;stroke-miterlimit:10;stroke-opacity:1"
       d="m 177.85156,38.003906 1.66797,1.671875 m 0,-1.671875 -1.66797,1.671875"
       id="path572" />
  </g>
  <g
     clip-path="url(#clip8)"
     clip-rule="nonzero"
     id="g578">
    <path
       style="fill:none;stroke:#a30000;stroke-width:0.8;stroke-linecap:square;stroke-linejoin:miter;stroke-miterlimit:10;stroke-opacity:1"
       d="m 180.89062,62.335938 1.67188,1.667968 m 0,-1.667968 -1.67188,1.667968"
       id="path576" />
  </g>
  <g
     clip-path="url(#clip9)"
     clip-rule="nonzero"
     id="g582">
    <path
       style="fill:none;stroke:#a30000;stroke-width:0.8;stroke-linecap:square;stroke-linejoin:miter;stroke-miterlimit:10;stroke-opacity:1"
       d="m 180.89062,38.003906 1.67188,1.671875 m 0,-1.671875 -1.67188,1.671875"
       id="path580" />
  </g>
  <g
     clip-path="url(#clip10)"
     clip-rule="nonzero"
     id="g586">
    <path
       style="fill:none;stroke:#a30000;stroke-width:0.8;stroke-linecap:square;stroke-linejoin:miter;stroke-miterlimit:10;stroke-opacity:1"
       d="m 183.43359,61 1.66797,1.671875 m 0,-1.671875 -1.66797,1.671875"
       id="path584" />
  </g>
  <g
     clip-path="url(#clip11)"
     clip-rule="nonzero"
     id="g590">
    <path
       style="fill:none;stroke:#a30000;stroke-width:0.8;stroke-linecap:square;stroke-linejoin:miter;stroke-miterlimit:10;stroke-opacity:1"
       d="m 183.43359,39.339844 1.66797,1.667968 m 0,-1.667968 -1.66797,1.667968"
       id="path588" />
  </g>
  <path
     style="fill:none;stroke:#ffffff;stroke-width:1.2;stroke-linecap:butt;stroke-linejoin:round;stroke-miterlimit:10;stroke-opacity:1"
     d="m 130.24219,51.214844 h 50.36328"
     id="path592" />
  <path
     style="fill:none;stroke:#ffffff;stroke-width:1.2;stroke-linecap:square;stroke-linejoin:miter;stroke-miterlimit:10;stroke-opacity:1"
     d="m 155.69922,51.214844 v 1.144531"
     id="path594" />
  <path
     style="fill:none;stroke:#ffffff;stroke-width:1.2;stroke-linecap:square;stroke-linejoin:miter;stroke-miterlimit:10;stroke-opacity:1"
     d="m 180.41406,51.214844 v 1.144531"
     id="path596" />
  <g
     clip-path="url(#clip12)"
     clip-rule="nonzero"
     id="g600">
    <path
       style="fill:none;stroke:#a30000;stroke-width:0.8;stroke-linecap:square;stroke-linejoin:miter;stroke-miterlimit:10;stroke-opacity:1"
       d="m 181.04297,51.003906 c 0,0.460938 -0.375,0.835938 -0.83594,0.835938 -0.46094,0 -0.83594,-0.375 -0.83594,-0.835938 0,-0.460937 0.375,-0.832031 0.83594,-0.832031 0.46094,0 0.83594,0.371094 0.83594,0.832031 z m 0,0"
       id="path598" />
  </g>
  <path
     style="fill:none;stroke:#ffffff;stroke-width:1.2;stroke-linecap:square;stroke-linejoin:miter;stroke-miterlimit:10;stroke-opacity:1"
     d="m 135.92969,51.214844 v 0.570312"
     id="path602" />
  <path
     style="fill:none;stroke:#ffffff;stroke-width:1.2;stroke-linecap:square;stroke-linejoin:miter;stroke-miterlimit:10;stroke-opacity:1"
     d="m 140.87109,51.214844 v 0.570312"
     id="path604" />
  <path
     style="fill:none;stroke:#ffffff;stroke-width:1.2;stroke-linecap:square;stroke-linejoin:miter;stroke-miterlimit:10;stroke-opacity:1"
     d="m 145.81641,51.214844 v 0.570312"
     id="path606" />
  <path
     style="fill:none;stroke:#ffffff;stroke-width:1.2;stroke-linecap:square;stroke-linejoin:miter;stroke-miterlimit:10;stroke-opacity:1"
     d="m 150.75781,51.214844 v 0.570312"
     id="path608" />
  <path
     style="fill:none;stroke:#ffffff;stroke-width:1.2;stroke-linecap:square;stroke-linejoin:miter;stroke-miterlimit:10;stroke-opacity:1"
     d="m 160.64453,51.214844 v 0.570312"
     id="path610" />
  <path
     style="fill:none;stroke:#ffffff;stroke-width:1.2;stroke-linecap:square;stroke-linejoin:miter;stroke-miterlimit:10;stroke-opacity:1"
     d="m 165.58594,51.214844 v 0.570312"
     id="path612" />
  <path
     style="fill:none;stroke:#ffffff;stroke-width:1.2;stroke-linecap:square;stroke-linejoin:miter;stroke-miterlimit:10;stroke-opacity:1"
     d="m 170.52734,51.214844 v 0.570312"
     id="path614" />
  <path
     style="fill:none;stroke:#ffffff;stroke-width:1.2;stroke-linecap:square;stroke-linejoin:miter;stroke-miterlimit:10;stroke-opacity:1"
     d="m 175.47266,51.214844 v 0.570312"
     id="path616" />
  <path
     style="fill:none;stroke:#ffffff;stroke-width:1.2;stroke-linecap:butt;stroke-linejoin:round;stroke-miterlimit:10;stroke-opacity:1"
     d="M 130.98828,100.63281 V 1.796875"
     id="path618" />
  <path
     style="fill:none;stroke:#ffffff;stroke-width:1.2;stroke-linecap:square;stroke-linejoin:miter;stroke-miterlimit:10;stroke-opacity:1"
     d="m 130.98828,100.63281 h -1.14453"
     id="path620" />
  <path
     style="fill:none;stroke:#ffffff;stroke-width:1.2;stroke-linecap:square;stroke-linejoin:miter;stroke-miterlimit:10;stroke-opacity:1"
     d="m 130.98828,75.921875 h -1.14453"
     id="path622" />
  <path
     style="fill:none;stroke:#ffffff;stroke-width:1.2;stroke-linecap:square;stroke-linejoin:miter;stroke-miterlimit:10;stroke-opacity:1"
     d="m 130.98828,51.214844 h -1.14453"
     id="path624" />
  <path
     style="fill:none;stroke:#ffffff;stroke-width:1.2;stroke-linecap:square;stroke-linejoin:miter;stroke-miterlimit:10;stroke-opacity:1"
     d="m 130.98828,26.503906 h -1.14453"
     id="path626" />
  <path
     style="fill:none;stroke:#ffffff;stroke-width:1.2;stroke-linecap:square;stroke-linejoin:miter;stroke-miterlimit:10;stroke-opacity:1"
     d="m 130.98828,1.792969 h -1.14453"
     id="path628" />
  <path
     style="fill:none;stroke:#ffffff;stroke-width:1.2;stroke-linecap:square;stroke-linejoin:miter;stroke-miterlimit:10;stroke-opacity:1"
     d="m 130.98828,95.691406 h -0.57422"
     id="path630" />
  <path
     style="fill:none;stroke:#ffffff;stroke-width:1.2;stroke-linecap:square;stroke-linejoin:miter;stroke-miterlimit:10;stroke-opacity:1"
     d="m 130.98828,90.75 h -0.57422"
     id="path632" />
  <path
     style="fill:none;stroke:#ffffff;stroke-width:1.2;stroke-linecap:square;stroke-linejoin:miter;stroke-miterlimit:10;stroke-opacity:1"
     d="m 130.98828,85.808594 h -0.57422"
     id="path634" />
  <path
     style="fill:none;stroke:#ffffff;stroke-width:1.2;stroke-linecap:square;stroke-linejoin:miter;stroke-miterlimit:10;stroke-opacity:1"
     d="m 130.98828,80.867188 h -0.57422"
     id="path636" />
  <path
     style="fill:none;stroke:#ffffff;stroke-width:1.2;stroke-linecap:square;stroke-linejoin:miter;stroke-miterlimit:10;stroke-opacity:1"
     d="m 130.98828,70.980469 h -0.57422"
     id="path638" />
  <path
     style="fill:none;stroke:#ffffff;stroke-width:1.2;stroke-linecap:square;stroke-linejoin:miter;stroke-miterlimit:10;stroke-opacity:1"
     d="m 130.98828,66.039062 h -0.57422"
     id="path640" />
  <path
     style="fill:none;stroke:#ffffff;stroke-width:1.2;stroke-linecap:square;stroke-linejoin:miter;stroke-miterlimit:10;stroke-opacity:1"
     d="m 130.98828,61.097656 h -0.57422"
     id="path642" />
  <path
     style="fill:none;stroke:#ffffff;stroke-width:1.2;stroke-linecap:square;stroke-linejoin:miter;stroke-miterlimit:10;stroke-opacity:1"
     d="m 130.98828,56.15625 h -0.57422"
     id="path644" />
  <path
     style="fill:none;stroke:#ffffff;stroke-width:1.2;stroke-linecap:square;stroke-linejoin:miter;stroke-miterlimit:10;stroke-opacity:1"
     d="m 130.98828,46.273438 h -0.57422"
     id="path646" />
  <path
     style="fill:none;stroke:#ffffff;stroke-width:1.2;stroke-linecap:square;stroke-linejoin:miter;stroke-miterlimit:10;stroke-opacity:1"
     d="m 130.98828,41.328125 h -0.57422"
     id="path648" />
  <path
     style="fill:none;stroke:#ffffff;stroke-width:1.2;stroke-linecap:square;stroke-linejoin:miter;stroke-miterlimit:10;stroke-opacity:1"
     d="m 130.98828,36.386719 h -0.57422"
     id="path650" />
  <path
     style="fill:none;stroke:#ffffff;stroke-width:1.2;stroke-linecap:square;stroke-linejoin:miter;stroke-miterlimit:10;stroke-opacity:1"
     d="m 130.98828,31.445312 h -0.57422"
     id="path652" />
  <path
     style="fill:none;stroke:#ffffff;stroke-width:1.2;stroke-linecap:square;stroke-linejoin:miter;stroke-miterlimit:10;stroke-opacity:1"
     d="m 130.98828,21.5625 h -0.57422"
     id="path654" />
  <path
     style="fill:none;stroke:#ffffff;stroke-width:1.2;stroke-linecap:square;stroke-linejoin:miter;stroke-miterlimit:10;stroke-opacity:1"
     d="m 130.98828,16.621094 h -0.57422"
     id="path656" />
  <path
     style="fill:none;stroke:#ffffff;stroke-width:1.2;stroke-linecap:square;stroke-linejoin:miter;stroke-miterlimit:10;stroke-opacity:1"
     d="m 130.98828,11.679688 h -0.57422"
     id="path658" />
  <path
     style="fill:none;stroke:#ffffff;stroke-width:1.2;stroke-linecap:square;stroke-linejoin:miter;stroke-miterlimit:10;stroke-opacity:1"
     d="m 130.98828,6.738281 h -0.57422"
     id="path660" />
  <path
     style="fill:#ffffff;fill-opacity:1;fill-rule:nonzero;stroke:none"
     d="m 125.84375,3.207031 h 0.79688 v -2.78125 l -0.875,0.1875 V 0.160156 l 0.875,-0.1718748 h 0.5 V 3.207031 h 0.79687 v 0.421875 h -2.09375 z m 0,0"
     id="path662" />
  <path
     style="fill:#ffffff;fill-opacity:1;fill-rule:nonzero;stroke:none"
     d="m 121.48438,24.988281 c -0.26172,0 -0.45313,0.125 -0.57813,0.375 -0.125,0.25 -0.1875,0.632813 -0.1875,1.140625 0,0.5 0.0625,0.875 0.1875,1.125 0.125,0.25 0.31641,0.375 0.57813,0.375 0.25,0 0.4375,-0.125 0.5625,-0.375 0.13281,-0.25 0.20312,-0.625 0.20312,-1.125 0,-0.507812 -0.0703,-0.890625 -0.20312,-1.140625 -0.125,-0.25 -0.3125,-0.375 -0.5625,-0.375 z m 0,-0.390625 c 0.40625,0 0.71093,0.167969 0.92187,0.5 0.21875,0.324219 0.32813,0.792969 0.32813,1.40625 0,0.605469 -0.10938,1.074219 -0.32813,1.40625 -0.21094,0.324219 -0.51562,0.484375 -0.92187,0.484375 -0.40625,0 -0.71875,-0.160156 -0.9375,-0.484375 -0.21875,-0.332031 -0.32813,-0.800781 -0.32813,-1.40625 0,-0.613281 0.10938,-1.082031 0.32813,-1.40625 0.21875,-0.332031 0.53125,-0.5 0.9375,-0.5 z m 0,0"
     id="path664" />
  <path
     style="fill:#ffffff;fill-opacity:1;fill-rule:nonzero;stroke:none"
     d="m 123.58984,27.691406 h 0.51563 v 0.625 h -0.51563 z m 0,0"
     id="path666" />
  <path
     style="fill:#ffffff;fill-opacity:1;fill-rule:nonzero;stroke:none"
     d="m 125.19141,24.675781 h 1.92187 v 0.40625 h -1.48437 v 0.890625 c 0.0703,-0.01953 0.14453,-0.03516 0.21875,-0.04687 0.0703,-0.0078 0.14453,-0.01563 0.21875,-0.01563 0.40625,0 0.72656,0.117188 0.96875,0.34375 0.23828,0.21875 0.35937,0.515625 0.35937,0.890625 0,0.398438 -0.125,0.703125 -0.375,0.921875 -0.24219,0.21875 -0.58594,0.328125 -1.03125,0.328125 -0.15625,0 -0.3125,-0.01563 -0.46875,-0.04687 -0.15625,-0.02344 -0.32031,-0.05469 -0.48437,-0.109375 v -0.5 c 0.14453,0.07422 0.29687,0.132813 0.45312,0.171875 0.15625,0.04297 0.31641,0.0625 0.48438,0.0625 0.28906,0 0.51562,-0.07031 0.67187,-0.21875 0.16406,-0.144531 0.25,-0.347656 0.25,-0.609375 0,-0.25 -0.0859,-0.445312 -0.25,-0.59375 -0.15625,-0.15625 -0.38281,-0.234375 -0.67187,-0.234375 -0.125,0 -0.25782,0.01563 -0.39063,0.04687 -0.125,0.03125 -0.25781,0.07813 -0.39062,0.140625 z m 0,0"
     id="path668" />
  <path
     style="fill:#ffffff;fill-opacity:1;fill-rule:nonzero;stroke:none"
     d="m 153.16016,54.664062 c -0.26172,0 -0.45313,0.125 -0.57813,0.375 -0.125,0.25 -0.1875,0.632813 -0.1875,1.140626 0,0.5 0.0625,0.875 0.1875,1.125 0.125,0.25 0.31641,0.375 0.57813,0.375 0.25,0 0.4375,-0.125 0.5625,-0.375 0.13281,-0.25 0.20312,-0.625 0.20312,-1.125 0,-0.507813 -0.0703,-0.890626 -0.20312,-1.140626 -0.125,-0.25 -0.3125,-0.375 -0.5625,-0.375 z m 0,-0.390624 c 0.40625,0 0.71093,0.167968 0.92187,0.5 0.21875,0.324218 0.32813,0.792968 0.32813,1.40625 0,0.605468 -0.10938,1.074218 -0.32813,1.40625 -0.21094,0.324218 -0.51562,0.484374 -0.92187,0.484374 -0.40625,0 -0.71875,-0.160156 -0.9375,-0.484374 -0.21875,-0.332032 -0.32813,-0.800782 -0.32813,-1.40625 0,-0.613282 0.10938,-1.082032 0.32813,-1.40625 0.21875,-0.332032 0.53125,-0.5 0.9375,-0.5 z m 0,0"
     id="path670" />
  <path
     style="fill:#ffffff;fill-opacity:1;fill-rule:nonzero;stroke:none"
     d="m 155.26562,57.367188 h 0.51563 v 0.625 h -0.51563 z m 0,0"
     id="path672" />
  <path
     style="fill:#ffffff;fill-opacity:1;fill-rule:nonzero;stroke:none"
     d="m 156.86719,54.351562 h 1.92187 v 0.40625 h -1.48437 v 0.890626 c 0.0703,-0.01953 0.14453,-0.03516 0.21875,-0.04688 0.0703,-0.0078 0.14453,-0.01562 0.21875,-0.01562 0.40625,0 0.72656,0.117187 0.96875,0.34375 0.23828,0.21875 0.35937,0.515624 0.35937,0.890624 0,0.398438 -0.125,0.703126 -0.375,0.921876 -0.24219,0.21875 -0.58594,0.328124 -1.03125,0.328124 -0.15625,0 -0.3125,-0.01562 -0.46875,-0.04687 C 157.03906,58 156.875,57.96875 156.71094,57.914062 v -0.5 c 0.14453,0.07422 0.29687,0.132813 0.45312,0.171876 0.15625,0.04297 0.31641,0.0625 0.48438,0.0625 0.28906,0 0.51562,-0.07031 0.67187,-0.21875 0.16406,-0.144532 0.25,-0.347657 0.25,-0.609376 0,-0.25 -0.0859,-0.445312 -0.25,-0.59375 -0.15625,-0.15625 -0.38281,-0.234374 -0.67187,-0.234374 -0.125,0 -0.25782,0.01562 -0.39063,0.04687 -0.125,0.03125 -0.25781,0.07813 -0.39062,0.140626 z m 0,0"
     id="path674" />
  <path
     style="fill:#ffffff;fill-opacity:1;fill-rule:nonzero;stroke:none"
     d="m 124.29688,101 h 1.3125 v 0.39063 h -1.3125 z m 0,0"
     id="path676" />
  <g
     clip-path="url(#clip13)"
     clip-rule="nonzero"
     id="g680"
     style="fill:#ffffff">
    <path
       style="fill:#ffffff;fill-opacity:1;fill-rule:nonzero;stroke:none"
       d="m 126.47266,102.14063 h 0.79687 v -2.781255 l -0.875,0.1875 V 99.09375 l 0.875,-0.171875 h 0.5 v 3.218755 h 0.79688 v 0.42187 h -2.09375 z m 0,0"
       id="path678" />
  </g>
  <path
     style="fill:#ffffff;fill-opacity:1;fill-rule:nonzero;stroke:none"
     d="m 119.55078,76.167969 h 1.3125 v 0.390625 h -1.3125 z m 0,0"
     id="path682" />
  <path
     style="fill:#ffffff;fill-opacity:1;fill-rule:nonzero;stroke:none"
     d="m 122.69531,74.402344 c -0.26172,0 -0.45312,0.125 -0.57812,0.375 -0.125,0.25 -0.1875,0.632812 -0.1875,1.140625 0,0.5 0.0625,0.875 0.1875,1.125 0.125,0.25 0.3164,0.375 0.57812,0.375 0.25,0 0.4375,-0.125 0.5625,-0.375 0.13282,-0.25 0.20313,-0.625 0.20313,-1.125 0,-0.507813 -0.0703,-0.890625 -0.20313,-1.140625 -0.125,-0.25 -0.3125,-0.375 -0.5625,-0.375 z m 0,-0.390625 c 0.40625,0 0.71094,0.167969 0.92188,0.5 0.21875,0.324219 0.32812,0.792969 0.32812,1.40625 0,0.605469 -0.10937,1.074219 -0.32812,1.40625 -0.21094,0.324219 -0.51563,0.484375 -0.92188,0.484375 -0.40625,0 -0.71875,-0.160156 -0.9375,-0.484375 -0.21875,-0.332031 -0.32812,-0.800781 -0.32812,-1.40625 0,-0.613281 0.10937,-1.082031 0.32812,-1.40625 0.21875,-0.332031 0.53125,-0.5 0.9375,-0.5 z m 0,0"
     id="path684" />
  <path
     style="fill:#ffffff;fill-opacity:1;fill-rule:nonzero;stroke:none"
     d="m 124.80078,77.105469 h 0.51563 v 0.625 h -0.51563 z m 0,0"
     id="path686" />
  <path
     style="fill:#ffffff;fill-opacity:1;fill-rule:nonzero;stroke:none"
     d="m 126.40234,74.089844 h 1.92188 v 0.40625 h -1.48438 v 0.890625 c 0.0703,-0.01953 0.14454,-0.03516 0.21875,-0.04687 0.0703,-0.0078 0.14454,-0.01563 0.21875,-0.01563 0.40625,0 0.72657,0.117187 0.96875,0.34375 0.23828,0.21875 0.35938,0.515625 0.35938,0.890625 0,0.398437 -0.125,0.703125 -0.375,0.921875 -0.24219,0.21875 -0.58594,0.328125 -1.03125,0.328125 -0.15625,0 -0.3125,-0.01563 -0.46875,-0.04687 -0.15625,-0.02344 -0.32031,-0.05469 -0.48438,-0.109375 v -0.5 c 0.14454,0.07422 0.29688,0.132812 0.45313,0.171875 0.15625,0.04297 0.31641,0.0625 0.48437,0.0625 0.28907,0 0.51563,-0.07031 0.67188,-0.21875 0.16406,-0.144531 0.25,-0.347657 0.25,-0.609375 0,-0.25 -0.0859,-0.445313 -0.25,-0.59375 -0.15625,-0.15625 -0.38281,-0.234375 -0.67188,-0.234375 -0.125,0 -0.25781,0.01563 -0.39062,0.04687 -0.125,0.03125 -0.25781,0.07813 -0.39063,0.140625 z m 0,0"
     id="path688" />
  <path
     style="fill:#ffffff;fill-opacity:1;fill-rule:nonzero;stroke:none"
     d="m 181.09008,56.824219 h 0.79688 v -2.78125 l -0.875,0.1875 v -0.453125 l 0.875,-0.171875 h 0.5 v 3.21875 h 0.79687 v 0.421875 h -2.09375 z m 0,0"
     id="path690" />
  <g
     clip-path="url(#clip14)"
     clip-rule="nonzero"
     id="g694">
    <path
       style="fill:none;stroke:#ee2828;stroke-width:0.8;stroke-linecap:butt;stroke-linejoin:miter;stroke-miterlimit:4;stroke-opacity:1"
       d="m 172.26953,40.105469 c 2.25,-3.894531 6.96875,-5.613281 11.19531,-4.074219"
       id="path692" />
  </g>
  <path
     style="fill:#ee2828;fill-opacity:1;fill-rule:nonzero;stroke:none"
     d="m 184.83594,36.660156 -1.05078,0.296875 -1.05079,0.300781 0.4961,-1.238281 0.49609,-1.242187 z m 0,0"
     id="path696" />
  <g
     clip-path="url(#clip15)"
     clip-rule="nonzero"
     id="g700">
    <path
       style="fill:none;stroke:#ee2828;stroke-width:0.8;stroke-linecap:butt;stroke-linejoin:miter;stroke-miterlimit:4;stroke-opacity:1"
       d="m 172.26562,-62.121094 c 2.25,-3.894531 6.96875,-5.613281 11.19532,-4.074218"
       transform="scale(1,-1)"
       id="path698" />
  </g>
  <path
     style="fill:#ee2828;fill-opacity:1;fill-rule:nonzero;stroke:none"
     d="m 184.90234,65.5 -1.1289,-0.324219 -1.125,-0.320312 1.0625,2.664062 0.59765,-1.011719 z m 0,0"
     id="path702" />
  <g
     clip-path="url(#clip16)"
     clip-rule="nonzero"
     id="g706">
    <path
       style="fill:#ee2828;fill-opacity:1;fill-rule:nonzero;stroke:none"
       d="m 181.23047,26.605469 h 0.8125 v 4.046875 l 2.42187,-2.125 h 1.03125 l -2.60937,2.296875 2.71875,2.625 h -1.0625 l -2.5,-2.40625 v 2.40625 h -0.8125 z m 0,0"
       id="path704" />
  </g>
  <path
     style="fill:none;stroke:#ee2828;stroke-width:0.8;stroke-linecap:butt;stroke-linejoin:miter;stroke-miterlimit:4;stroke-opacity:1"
     d="m 178.88281,27.851562 v 4.183594"
     id="path708" />
  <path
     style="fill:#ee2828;fill-opacity:1;fill-rule:nonzero;stroke:none"
     d="m 178.86328,33.152344 0.65234,-0.839844 0.64844,-0.839844 h -2.59765 z m 0,0"
     id="path710" />
  <path
     style="fill:#ffffff;fill-opacity:1;fill-rule:nonzero;stroke:none"
     d="m 112.73828,5.835938 c 0,-0.789063 -0.16797,-1.410157 -0.5,-1.859376 -0.32422,-0.445312 -0.76562,-0.671874 -1.32812,-0.671874 -0.57422,0 -1.02735,0.226562 -1.35938,0.671874 -0.32422,0.449219 -0.48437,1.070313 -0.48437,1.859376 0,0.792968 0.16015,1.417968 0.48437,1.875 0.33203,0.449218 0.78516,0.671874 1.35938,0.671874 0.5625,0 1.0039,-0.222656 1.32812,-0.671874 0.33203,-0.457032 0.5,-1.082032 0.5,-1.875 z m -3.67187,-2.28125 c 0.22656,-0.394532 0.51562,-0.6875 0.85937,-0.875 0.34375,-0.1875 0.75391,-0.28125 1.23438,-0.28125 0.80078,0 1.45312,0.320312 1.95312,0.953124 0.5,0.625 0.75,1.453126 0.75,2.484376 0,1.03125 -0.25,1.867187 -0.75,2.5 -0.5,0.636718 -1.15234,0.953124 -1.95312,0.953124 -0.48047,0 -0.89063,-0.09375 -1.23438,-0.28125 -0.34375,-0.195312 -0.63281,-0.488281 -0.85937,-0.875 v 0.984376 h -1.07813 v -9.1250005 h 1.07813 z m 0,0"
     id="path712" />
  <path
     style="fill:#ffffff;fill-opacity:1;fill-rule:nonzero;stroke:none"
     d="m 115.48047,0.0078125 h 0.9375 C 117,0.9375 117.4375,1.84375 117.73047,2.726562 c 0.28906,0.875 0.4375,1.75 0.4375,2.625 0,0.875 -0.14844,1.757813 -0.4375,2.640626 -0.29297,0.886718 -0.73047,1.785156 -1.3125,2.703124 h -0.9375 c 0.50781,-0.898437 0.89453,-1.785156 1.15625,-2.671874 0.25781,-0.882813 0.39062,-1.773438 0.39062,-2.671876 0,-0.90625 -0.13281,-1.796874 -0.39062,-2.671874 C 116.375,1.796875 115.98828,0.90625 115.48047,0.0078125 Z m 0,0"
     id="path714" />
  <path
     style="fill:#ffffff;fill-opacity:1;fill-rule:nonzero;stroke:none"
     d="m 166.95703,39.949219 v 1.359375 h 0.625 c 0.22656,0 0.40625,-0.05469 0.53125,-0.171875 0.125,-0.125 0.1875,-0.296875 0.1875,-0.515625 0,-0.21875 -0.0625,-0.382813 -0.1875,-0.5 -0.125,-0.113282 -0.30469,-0.171875 -0.53125,-0.171875 z m -0.5,-0.40625 h 1.125 c 0.40625,0 0.71094,0.09375 0.92188,0.28125 0.20703,0.179687 0.3125,0.445312 0.3125,0.796875 0,0.367187 -0.10547,0.640625 -0.3125,0.828125 -0.21094,0.179687 -0.51563,0.265625 -0.92188,0.265625 h -0.625 v 1.46875 h -0.5 z m 0,0"
     id="path716" />
  <path
     style="fill:#ffffff;fill-opacity:1;fill-rule:nonzero;stroke:none"
     d="m 170.16797,42.195312 c -0.21875,0 -0.39063,0.08594 -0.51563,0.25 -0.125,0.15625 -0.1875,0.371094 -0.1875,0.640626 0,0.28125 0.0625,0.5 0.1875,0.65625 0.125,0.15625 0.29688,0.234374 0.51563,0.234374 0.20703,0 0.375,-0.07812 0.5,-0.234374 0.125,-0.15625 0.1875,-0.375 0.1875,-0.65625 0,-0.269532 -0.0625,-0.484376 -0.1875,-0.640626 -0.125,-0.164062 -0.29297,-0.25 -0.5,-0.25 z m 0.40625,1.9375 0.39062,0.4375 h -0.35937 l -0.3125,-0.359374 c -0.043,0.0078 -0.0742,0.01562 -0.0937,0.01562 -0.0117,0 -0.0234,0 -0.0312,0 -0.3125,0 -0.5625,-0.101562 -0.75,-0.3125 -0.17969,-0.207031 -0.26563,-0.484374 -0.26563,-0.828124 0,-0.34375 0.0859,-0.617188 0.26563,-0.828126 0.1875,-0.207031 0.4375,-0.3125 0.75,-0.3125 0.30078,0 0.53906,0.105469 0.71875,0.3125 0.1875,0.210938 0.28125,0.484376 0.28125,0.828126 0,0.261718 -0.0547,0.480468 -0.15625,0.65625 -0.0937,0.179687 -0.24219,0.308593 -0.4375,0.390624 z m 0,0"
     id="path718" />
  <path
     style="fill:#ffffff;fill-opacity:1;fill-rule:nonzero;stroke:none"
     d="M 167.82422,56.640625 V 58 h 0.625 c 0.22656,0 0.40625,-0.05469 0.53125,-0.171875 0.125,-0.125 0.1875,-0.296875 0.1875,-0.515625 0,-0.21875 -0.0625,-0.382812 -0.1875,-0.5 -0.125,-0.113281 -0.30469,-0.171875 -0.53125,-0.171875 z m -0.5,-0.40625 h 1.125 c 0.40625,0 0.71094,0.09375 0.92187,0.28125 0.20703,0.179687 0.3125,0.445313 0.3125,0.796875 0,0.367188 -0.10547,0.640625 -0.3125,0.828125 -0.21093,0.179687 -0.51562,0.265625 -0.92187,0.265625 h -0.625 V 59.875 h -0.5 z m 0,0"
     id="path720" />
  <path
     style="fill:#ffffff;fill-opacity:1;fill-rule:nonzero;stroke:none"
     d="m 170.14062,58.683594 h 0.29688 v 2.1875 h -0.29688 z m 0,0"
     id="path722" />
</svg>
