<?xml version="1.0" encoding="UTF-8" standalone="no"?>
<svg
   width="103.129791pt"
   height="90.92627pt"
   viewBox="0 0 103.129791 90.92627"
   version="1.1"
   id="svg2373"
   sodipodi:docname="resource.svg"
   inkscape:version="1.2 (dc2aedaf03, 2022-05-15)"
   xmlns:inkscape="http://www.inkscape.org/namespaces/inkscape"
   xmlns:sodipodi="http://sodipodi.sourceforge.net/DTD/sodipodi-0.dtd"
   xmlns="http://www.w3.org/2000/svg"
   xmlns:svg="http://www.w3.org/2000/svg">
  <sodipodi:namedview
     id="namedview2375"
     pagecolor="#505050"
     bordercolor="#eeeeee"
     borderopacity="1"
     inkscape:showpageshadow="0"
     inkscape:pageopacity="0"
     inkscape:pagecheckerboard="0"
     inkscape:deskcolor="#505050"
     inkscape:document-units="pt"
     showgrid="false"
     inkscape:zoom="5.0917976"
     inkscape:cx="71.094734"
     inkscape:cy="69.916368"
     inkscape:window-width="1920"
     inkscape:window-height="1027"
     inkscape:window-x="-8"
     inkscape:window-y="-8"
     inkscape:window-maximized="1"
     inkscape:current-layer="svg2373" />
  <defs
     id="defs2250">
    <clipPath
       clipPathUnits="userSpaceOnUse"
       id="clipPath13208">
      <path
         d="m 102,43 h 1.12891 v 5 H 102 Z m 0,0"
         id="path13210"
         style="stroke-width:0.999998" />
    </clipPath>
    <clipPath
       clipPathUnits="userSpaceOnUse"
       id="clipPath13214">
      <path
         d="m 60,84 h 5 v 6.925778 h -5 z m 0,0"
         id="path13216"
         style="stroke-width:0.999998" />
    </clipPath>
    <clipPath
       clipPathUnits="userSpaceOnUse"
       id="clipPath13220">
      <path
         d="M 0,41 H 50 V 90.925778 H 0 Z m 0,0"
         id="path13222"
         style="stroke-width:0.999998" />
    </clipPath>
    <clipPath
       clipPathUnits="userSpaceOnUse"
       id="clipPath13226">
      <path
         d="M 36,41 H 69 V 90.925778 H 36 Z m 0,0"
         id="path13228"
         style="stroke-width:0.999998" />
    </clipPath>
    <clipPath
       clipPathUnits="userSpaceOnUse"
       id="clipPath13232">
      <path
         d="m 65,84 h 5 v 6.925778 h -5 z m 0,0"
         id="path13234"
         style="stroke-width:0.999998" />
    </clipPath>
    <clipPath
       clipPathUnits="userSpaceOnUse"
       id="clipPath13238">
      <path
         d="m 70,84 h 5.999998 v 6.925778 H 70 Z m 0,0"
         id="path13240"
         style="stroke-width:0.999998" />
    </clipPath>
  </defs>
  <path
     style="fill:#ca0000;fill-opacity:1;fill-rule:nonzero;stroke:#ffffff"
     d="m 41.359375,45.972656 3.332031,40.824219 1.25,-0.121094 1.246094,-0.160156 1.242188,-0.199219 1.234374,-0.234375 1.226563,-0.273437 1.214844,-0.3125 1.207031,-0.347656 1.199219,-0.382813 1.179687,-0.421875 1.171875,-0.457031 1.15625,-0.496094 1.140625,-0.527344 1.121094,-0.5625 1.105469,-0.597656 1.085937,-0.632813 1.066406,-0.664062 -22.179687,-34.433594"
     id="path2252" />
  <path
     style="fill:#ebd400;fill-opacity:1;fill-rule:nonzero;stroke:#ffffff"
     d="M 41.359375,45.972656 0.75,51.304688 0.933594,52.5625 l 0.222656,1.253906 0.265625,1.242188 0.300781,1.234375 0.339844,1.226562 0.375,1.214844 0.417969,1.203125 0.449219,1.1875 0.492187,1.175781 0.523437,1.160157 0.558594,1.140624 0.597656,1.121094 0.628907,1.105469 0.667969,1.085937 0.695312,1.0625 0.730469,1.042969 0.761719,1.015625 0.796874,0.996094 0.824219,0.96875 0.851563,0.941406 0.882812,0.914063 0.910156,0.890625 0.941407,0.859375 0.960937,0.828125 0.992188,0.800781 L 17.132812,79 l 1.039063,0.738281 1.058594,0.703125 1.082031,0.671875 1.101562,0.636719 1.117188,0.601562 1.140625,0.566407 1.15625,0.53125 L 26,83.945312 l 1.183594,0.457032 1.203125,0.421875 1.210937,0.382812 1.222656,0.347657 1.234376,0.308593 1.246093,0.269531 1.25,0.230469 1.257813,0.191407 1.261718,0.152343 1.265626,0.113281 1.269531,0.07422 1.273437,0.03516 1.269532,-0.0039 1.273437,-0.04297 1.269531,-0.08594 -3.332031,-40.824219"
     id="path2258" />
  <path
     style="fill:#73d114;fill-opacity:1;fill-rule:nonzero;stroke:#ffffff;stroke-width:0.8;stroke-linecap:butt;stroke-linejoin:miter;stroke-miterlimit:4;stroke-opacity:1"
     d="m 41.359375,45.972656 -7.316406,-40.300781 -1.25,0.25 -1.238281,0.285156 -1.230469,0.320313 -1.21875,0.363281 -1.207031,0.398437 -1.195313,0.4375 -1.179687,0.472657 -1.164063,0.511719 -1.152344,0.546874 -1.128906,0.578126 -1.113281,0.617187 -1.09375,0.652344 -1.074219,0.679687 -1.050781,0.71875 -1.027344,0.75 -1.003906,0.78125 -0.976563,0.808594 -0.957031,0.84375 -0.925781,0.871094 -0.898438,0.898437 -0.871093,0.925781 -0.84375,0.953126 -0.8125,0.980468 -0.78125,1.003906 -0.75,1.027344 -0.714844,1.050782 -0.6875,1.070312 -0.648438,1.09375 -0.617187,1.113281 -0.582031,1.128907 -0.546876,1.148437 -0.511718,1.167969 -0.472656,1.179687 -0.4375,1.191407 L 2.28125,33.703125 1.917969,34.921875 1.59375,36.152344 1.308594,37.390625 1.0625,38.636719 0.851562,39.894531 0.683594,41.152344 0.554688,42.417969 0.464844,43.6875 0.410156,44.957031 0.398438,46.230469 0.429688,47.5 l 0.066406,1.273438 0.105468,1.265624 0.144532,1.261719 40.613281,-5.328125"
     id="path2264" />
  <path
     style="fill:#f57800;fill-opacity:1;fill-rule:nonzero;stroke:#ffffff;stroke-width:0.8;stroke-linecap:butt;stroke-linejoin:miter;stroke-miterlimit:4;stroke-opacity:1"
     d="M 41.359375,45.972656 61.269531,10.179688 60.140625,9.574219 58.996094,9.007812 57.832031,8.472656 56.652344,7.976562 55.460938,7.519531 54.25,7.097656 53.03125,6.714844 51.800781,6.367188 50.558594,6.0625 49.304688,5.792969 48.046875,5.566406 46.78125,5.375 45.511719,5.226562 44.238281,5.117188 l -1.28125,-0.070313 -1.277343,-0.03125 -1.277344,0.011719 -1.28125,0.046875 -1.273438,0.089843 -1.273437,0.132813 -1.269531,0.167969 -1.261719,0.207031 7.316406,40.300781"
     id="path2266" />
  <path
     style="fill:#3363a3;fill-opacity:1;fill-rule:nonzero;stroke:#ffffff;stroke-width:0.8;stroke-linecap:butt;stroke-linejoin:miter;stroke-miterlimit:4;stroke-opacity:1"
     d="M 41.359375,45.972656 79.457031,30.9375 78.96875,29.753906 78.445312,28.585938 77.882812,27.4375 77.285156,26.304688 76.65625,25.191406 75.988281,24.101562 75.289062,23.03125 74.554688,21.980469 73.789062,20.957031 72.992188,19.953125 72.164062,18.980469 71.304688,18.03125 70.417969,17.109375 69.503906,16.214844 68.558594,15.351562 67.589844,14.515625 66.59375,13.710938 65.574219,12.941406 64.53125,12.199219 63.464844,11.492188 62.378906,10.820312 61.269531,10.179688 41.359375,45.972656"
     id="path2268" />
  <path
     style="fill:#734f7a;fill-opacity:1;fill-rule:nonzero;stroke:#ffffff;stroke-width:0.8;stroke-linecap:butt;stroke-linejoin:miter;stroke-miterlimit:4;stroke-opacity:1"
     d="m 41.359375,45.972656 38.992187,12.546875 0.371094,-1.226562 0.335938,-1.234375 0.292968,-1.242188 0.257813,-1.253906 0.21875,-1.261719 0.175781,-1.265625 0.140625,-1.273437 0.09766,-1.273438 0.05859,-1.28125 0.01563,-1.277343 -0.01953,-1.28125 -0.0625,-1.277344 -0.101563,-1.273438 -0.140624,-1.273437 -0.179688,-1.265625 -0.21875,-1.261719 -0.261719,-1.25 L 81.035156,35.800781 80.699219,34.566406 80.320312,33.34375 79.910156,32.132812 79.457031,30.9375 41.359375,45.972656"
     id="path2270" />
  <path
     style="fill:#bf7d0f;fill-opacity:1;fill-rule:nonzero;stroke:#ffffff;stroke-width:0.8;stroke-linecap:butt;stroke-linejoin:miter;stroke-miterlimit:4;stroke-opacity:1"
     d="m 41.359375,45.972656 22.183594,34.433594 1.0625,-0.710938 1.042969,-0.742187 1.015624,-0.773437 0.996094,-0.804688 0.96875,-0.835938 0.941406,-0.867187 0.910157,-0.898437 0.886719,-0.921876 0.855468,-0.949218 0.828125,-0.980469 0.792969,-1 0.765625,-1.027344 0.730469,-1.050781 0.695312,-1.070312 0.664063,-1.09375 0.628906,-1.117188 0.597656,-1.132812 0.558594,-1.148438 0.519531,-1.167969 0.488282,-1.183593 0.445312,-1.199219 0.414062,-1.210938 -38.992187,-12.546875"
     id="path2272" />
  <path
     style="fill:#ffffff;fill-opacity:1;fill-rule:nonzero;stroke:none"
     d="m 14.175781,25.6875 v 4.53125 h 0.953125 c 0.800782,0 1.390625,-0.179688 1.765625,-0.546875 0.375,-0.363281 0.5625,-0.9375 0.5625,-1.71875 0,-0.78125 -0.1875,-1.351563 -0.5625,-1.71875 -0.375,-0.363281 -0.964843,-0.546875 -1.765625,-0.546875 z m -0.796875,-0.640625 h 1.625 c 1.132813,0 1.960938,0.234375 2.484375,0.703125 0.53125,0.46875 0.796875,1.203125 0.796875,2.203125 0,1 -0.265625,1.742187 -0.796875,2.21875 -0.53125,0.46875 -1.359375,0.703125 -2.484375,0.703125 h -1.625 z m 0,0"
     id="path2274" />
  <path
     style="fill:#ffffff;fill-opacity:1;fill-rule:nonzero;stroke:none"
     d="m 19.253906,25.046875 h 0.859375 l 1.4375,2.15625 1.46875,-2.15625 h 0.84375 l -1.875,2.796875 2,3.03125 h -0.84375 L 21.503906,28.390625 19.847656,30.875 h -0.859375 l 2.09375,-3.109375 z m 0,0"
     id="path2276" />
  <path
     style="fill:#ffffff;fill-opacity:1;fill-rule:nonzero;stroke:none"
     d="m 25.238281,30.203125 h 1.28125 v -4.4375 l -1.40625,0.28125 v -0.71875 l 1.40625,-0.28125 h 0.78125 v 5.15625 h 1.296875 V 30.875 h -3.359375 z m 0,0"
     id="path2278" />
  <path
     style="fill:#ffffff;fill-opacity:1;fill-rule:nonzero;stroke:none"
     d="m 17.320312,58.859375 v 4.53125 h 0.953126 c 0.800781,0 1.390624,-0.179687 1.765624,-0.546875 0.375,-0.363281 0.5625,-0.9375 0.5625,-1.71875 0,-0.78125 -0.1875,-1.351562 -0.5625,-1.71875 -0.375,-0.363281 -0.964843,-0.546875 -1.765624,-0.546875 z M 16.523438,58.21875 h 1.625 c 1.132812,0 1.960937,0.234375 2.484374,0.703125 0.53125,0.46875 0.796876,1.203125 0.796876,2.203125 0,1 -0.265626,1.742188 -0.796876,2.21875 -0.53125,0.46875 -1.359374,0.703125 -2.484374,0.703125 h -1.625 z m 0,0"
     id="path2280" />
  <path
     style="fill:#ffffff;fill-opacity:1;fill-rule:nonzero;stroke:none"
     d="m 22.398438,58.21875 h 0.859374 l 1.4375,2.15625 1.46875,-2.15625 h 0.84375 l -1.875,2.796875 2,3.03125 h -0.84375 l -1.640624,-2.484375 -1.65625,2.484375 h -0.859376 l 2.09375,-3.109375 z m 0,0"
     id="path2282" />
  <path
     style="fill:#ffffff;fill-opacity:1;fill-rule:nonzero;stroke:none"
     d="m 28.914062,63.375 h 2.765626 v 0.671875 H 27.976562 V 63.375 c 0.289063,-0.300781 0.695313,-0.710938 1.21875,-1.234375 0.519532,-0.53125 0.84375,-0.867187 0.96875,-1.015625 0.257813,-0.28125 0.4375,-0.519531 0.53125,-0.71875 0.101563,-0.195312 0.15625,-0.390625 0.15625,-0.578125 0,-0.3125 -0.109374,-0.566406 -0.328124,-0.765625 -0.21875,-0.195312 -0.5,-0.296875 -0.84375,-0.296875 -0.25,0 -0.515626,0.04687 -0.796876,0.140625 -0.273437,0.08594 -0.5625,0.214844 -0.875,0.390625 V 58.5 c 0.320313,-0.132812 0.617188,-0.234375 0.890626,-0.296875 0.28125,-0.0625 0.535156,-0.09375 0.765624,-0.09375 0.601563,0 1.082032,0.152344 1.4375,0.453125 0.363282,0.304688 0.546876,0.703125 0.546876,1.203125 0,0.242187 -0.04688,0.46875 -0.140626,0.6875 -0.09375,0.21875 -0.257812,0.476563 -0.484374,0.765625 -0.07422,0.07422 -0.289063,0.292969 -0.640626,0.65625 -0.34375,0.355469 -0.835937,0.855469 -1.46875,1.5 z m 0,0"
     id="path2284" />
  <path
     style="clip-rule:nonzero;fill:#ffffff;fill-opacity:1;fill-rule:nonzero;stroke:none"
     d="m 60.816406,84.984375 h 3.359375 v 0.65625 h -2.5625 v 1.71875 h 2.3125 v 0.671875 h -2.3125 v 2.78125 h -0.796875 z m 0,0"
     id="path2286"
     clip-path="url(#clipPath13214)" />
  <path
     style="clip-rule:nonzero;fill:#ffffff;fill-opacity:1;fill-rule:nonzero;stroke:none"
     d="M 68.785156,85.171875 V 85.9375 c -0.304687,-0.144531 -0.589844,-0.25 -0.859375,-0.3125 -0.261719,-0.07031 -0.511719,-0.109375 -0.75,-0.109375 -0.4375,0 -0.773437,0.08594 -1,0.25 -0.230469,0.167969 -0.34375,0.402344 -0.34375,0.703125 0,0.261719 0.07031,0.460938 0.21875,0.59375 0.15625,0.125 0.453125,0.230469 0.890625,0.3125 l 0.46875,0.09375 c 0.59375,0.117188 1.03125,0.3125 1.3125,0.59375 0.28125,0.28125 0.421875,0.664062 0.421875,1.140625 0,0.5625 -0.195312,0.992187 -0.578125,1.28125 -0.375,0.292969 -0.929687,0.4375 -1.65625,0.4375 -0.28125,0 -0.578125,-0.03125 -0.890625,-0.09375 -0.3125,-0.0625 -0.636719,-0.15625 -0.96875,-0.28125 v -0.8125 c 0.320313,0.1875 0.632813,0.328125 0.9375,0.421875 0.3125,0.08594 0.617188,0.125 0.921875,0.125 0.445313,0 0.789063,-0.08594 1.03125,-0.265625 0.25,-0.175781 0.375,-0.425781 0.375,-0.75 0,-0.289063 -0.08984,-0.515625 -0.265625,-0.671875 -0.179687,-0.164062 -0.464843,-0.289062 -0.859375,-0.375 L 66.707031,88.125 c -0.59375,-0.113281 -1.023437,-0.296875 -1.28125,-0.546875 -0.261719,-0.25 -0.390625,-0.597656 -0.390625,-1.046875 0,-0.507812 0.179688,-0.910156 0.546875,-1.203125 0.363281,-0.300781 0.863281,-0.453125 1.5,-0.453125 0.269531,0 0.546875,0.02734 0.828125,0.07813 0.289063,0.04297 0.582032,0.117187 0.875,0.21875 z m 0,0"
     id="path2290"
     clip-path="url(#clipPath13232)" />
  <path
     style="clip-rule:nonzero;fill:#ffffff;fill-opacity:1;fill-rule:nonzero;stroke:none"
     d="m 70.363281,84.984375 h 1.1875 l 1.484375,3.96875 1.5,-3.96875 h 1.171875 V 90.8125 h -0.765625 v -5.125 l -1.515625,4 h -0.78125 l -1.515625,-4 v 5.125 h -0.765625 z m 0,0"
     id="path2294"
     clip-path="url(#clipPath13238)" />
  <path
     style="fill:#ffffff;fill-opacity:1;fill-rule:nonzero;stroke:none"
     d="m 82.210938,66.941406 -1.59375,4.40625 h 3.203124 z m -2.671876,5.0625 2.234376,-5.828125 h 0.890624 l 2.21875,5.828125 z m 0,0"
     id="path2298" />
  <path
     style="fill:#ffffff;fill-opacity:1;fill-rule:nonzero;stroke:none"
     d="m 86.632812,71.332031 h 2.859376 v 0.671875 h -3.765626 v -0.671875 l 1.875,-2.4375 -1.875,-2.0625 v -0.65625 h 3.6875 v 0.65625 h -2.78125 l 1.875,2.046875 z m 0,0"
     id="path2300" />
  <path
     style="fill:#ffffff;fill-opacity:1;fill-rule:nonzero;stroke:none"
     d="m 90.992188,71.332031 h 1.28125 v -4.4375 l -1.40625,0.28125 v -0.71875 l 1.40625,-0.28125 h 0.78125 v 5.15625 h 1.296874 v 0.671875 h -3.359374 z m 0,0"
     id="path2302" />
  <path
     style="fill:#ffffff;fill-opacity:1;fill-rule:nonzero;stroke:none"
     d="m 97.054688,70.292969 c -0.355469,0 -0.640626,0.136719 -0.859376,0.40625 -0.210937,0.261719 -0.3125,0.625 -0.3125,1.09375 0,0.460937 0.101563,0.824219 0.3125,1.09375 0.21875,0.261719 0.503907,0.390625 0.859376,0.390625 0.351562,0 0.632812,-0.128906 0.84375,-0.390625 0.21875,-0.269531 0.328124,-0.632813 0.328124,-1.09375 0,-0.46875 -0.109374,-0.832031 -0.328124,-1.09375 -0.210938,-0.269531 -0.492188,-0.40625 -0.84375,-0.40625 z m 0.6875,3.25 0.65625,0.703125 h -0.59375 l -0.546876,-0.578125 c -0.05469,0 -0.09375,0 -0.125,0 -0.02344,0.0078 -0.04687,0.01563 -0.07812,0.01563 -0.511719,0 -0.921876,-0.171875 -1.234376,-0.515625 -0.304687,-0.34375 -0.453124,-0.800781 -0.453124,-1.375 0,-0.582031 0.148437,-1.046875 0.453124,-1.390625 0.3125,-0.34375 0.722657,-0.515625 1.234376,-0.515625 0.507812,0 0.914062,0.171875 1.21875,0.515625 0.3125,0.34375 0.46875,0.808594 0.46875,1.390625 0,0.417969 -0.08984,0.777343 -0.265626,1.078125 -0.167968,0.304687 -0.414062,0.527344 -0.734374,0.671875 z m 0,0"
     id="path2304" />
  <path
     style="fill:#ffffff;fill-opacity:1;fill-rule:nonzero;stroke:none"
     d="m 89.230469,40.859375 -1.59375,4.40625 h 3.203125 z m -2.671875,5.0625 2.234375,-5.828125 h 0.890625 l 2.21875,5.828125 z m 0,0"
     id="path2306" />
  <path
     style="fill:#ffffff;fill-opacity:1;fill-rule:nonzero;stroke:none"
     d="m 93.652344,45.25 h 2.859375 v 0.671875 H 92.746094 V 45.25 l 1.875,-2.4375 -1.875,-2.0625 v -0.65625 h 3.6875 V 40.75 h -2.78125 l 1.875,2.046875 z m 0,0"
     id="path2308" />
  <path
     style="fill:#ffffff;fill-opacity:1;fill-rule:nonzero;stroke:none"
     d="m 98.011719,45.25 h 1.28125 v -4.4375 l -1.40625,0.28125 V 40.375 l 1.40625,-0.28125 h 0.781251 V 45.25 h 1.29687 v 0.671875 h -3.359371 z m 0,0"
     id="path2310" />
  <path
     style="clip-rule:nonzero;fill:#ffffff;fill-opacity:1;fill-rule:nonzero;stroke:none"
     d="m 102.58984,43.882812 h 0.5 v 3.640626 h -0.5 z m 0,0"
     id="path2312"
     clip-path="url(#clipPath13208)" />
  <path
     style="fill:#ffffff;fill-opacity:1;fill-rule:nonzero;stroke:none"
     d="m 80.476562,17.195312 -1.59375,4.40625 h 3.203126 z m -2.671874,5.0625 2.234374,-5.828124 h 0.890626 l 2.21875,5.828124 z m 0,0"
     id="path2316" />
  <path
     style="fill:#ffffff;fill-opacity:1;fill-rule:nonzero;stroke:none"
     d="m 84.898438,21.585938 h 2.859374 v 0.671874 h -3.765624 v -0.671874 l 1.875,-2.4375 -1.875,-2.0625 v -0.65625 h 3.6875 v 0.65625 h -2.78125 l 1.875,2.046874 z m 0,0"
     id="path2318" />
  <path
     style="fill:#ffffff;fill-opacity:1;fill-rule:nonzero;stroke:none"
     d="m 89.789062,21.585938 h 2.765626 v 0.671874 h -3.703126 v -0.671874 c 0.289063,-0.300782 0.695313,-0.710938 1.21875,-1.234376 0.519532,-0.53125 0.84375,-0.867187 0.96875,-1.015624 0.257813,-0.28125 0.4375,-0.519532 0.53125,-0.71875 0.101563,-0.195313 0.15625,-0.390626 0.15625,-0.578126 0,-0.3125 -0.109374,-0.566406 -0.328124,-0.765624 -0.21875,-0.195313 -0.5,-0.296876 -0.84375,-0.296876 -0.25,0 -0.515626,0.04688 -0.796876,0.140626 -0.273437,0.08594 -0.5625,0.214843 -0.875,0.390624 v -0.796874 c 0.320313,-0.132813 0.617188,-0.234376 0.890626,-0.296876 0.28125,-0.0625 0.535156,-0.09375 0.765624,-0.09375 0.601563,0 1.082032,0.152344 1.4375,0.453126 0.363282,0.304687 0.546876,0.703124 0.546876,1.203124 0,0.242188 -0.04688,0.46875 -0.140626,0.6875 -0.09375,0.21875 -0.257812,0.476563 -0.484374,0.765626 -0.07422,0.07422 -0.289063,0.292968 -0.640626,0.65625 -0.34375,0.355468 -0.835937,0.855468 -1.46875,1.5 z m 0,0"
     id="path2320" />
  <path
     style="fill:#ffffff;fill-opacity:1;fill-rule:nonzero;stroke:none"
     d="m 93.835938,20.21875 h 0.5 v 3.640625 h -0.5 z m 0,0"
     id="path2322" />
  <path
     style="fill:#ffffff;fill-opacity:1;fill-rule:nonzero;stroke:none"
     d="m 61.3125,0.875 -1.59375,4.40625 h 3.203125 z M 58.640625,5.9375 60.875,0.109375 h 0.890625 l 2.21875,5.828125 z m 0,0"
     id="path2324" />
  <path
     style="fill:#ffffff;fill-opacity:1;fill-rule:nonzero;stroke:none"
     d="M 65.734375,5.265625 H 68.59375 V 5.9375 H 64.828125 V 5.265625 l 1.875,-2.4375 -1.875,-2.0625 v -0.65625 h 3.6875 v 0.65625 h -2.78125 l 1.875,2.046875 z m 0,0"
     id="path2326" />
  <path
     style="fill:#ffffff;fill-opacity:1;fill-rule:nonzero;stroke:none"
     d="m 70.625,5.265625 h 2.765625 V 5.9375 H 69.6875 V 5.265625 C 69.976562,4.964844 70.382812,4.554688 70.90625,4.03125 71.425781,3.5 71.75,3.164062 71.875,3.015625 72.132812,2.734375 72.3125,2.496094 72.40625,2.296875 72.507812,2.101562 72.5625,1.90625 72.5625,1.71875 c 0,-0.3125 -0.109375,-0.566406 -0.328125,-0.765625 -0.21875,-0.195313 -0.5,-0.296875 -0.84375,-0.296875 -0.25,0 -0.515625,0.046875 -0.796875,0.140625 -0.273438,0.085937 -0.5625,0.214844 -0.875,0.390625 V 0.390625 C 70.039062,0.257812 70.335938,0.15625 70.609375,0.09375 70.890625,0.03125 71.144531,0 71.375,0 c 0.601562,0 1.082031,0.152344 1.4375,0.453125 0.363281,0.304687 0.546875,0.703125 0.546875,1.203125 0,0.242188 -0.04687,0.46875 -0.140625,0.6875 -0.09375,0.21875 -0.257812,0.476562 -0.484375,0.765625 -0.07422,0.074219 -0.289063,0.292969 -0.640625,0.65625 -0.34375,0.355469 -0.835938,0.855469 -1.46875,1.5 z m 0,0"
     id="path2328" />
  <path
     style="fill:#ffffff;fill-opacity:1;fill-rule:nonzero;stroke:none"
     d="m 76.15625,4.226562 c -0.355469,0 -0.640625,0.136719 -0.859375,0.40625 -0.210937,0.261719 -0.3125,0.625 -0.3125,1.09375 0,0.460938 0.101563,0.824219 0.3125,1.09375 0.21875,0.261719 0.503906,0.390626 0.859375,0.390626 0.351562,0 0.632812,-0.128907 0.84375,-0.390626 C 77.21875,6.550781 77.328125,6.1875 77.328125,5.726562 77.328125,5.257812 77.21875,4.894531 77,4.632812 76.789062,4.363281 76.507812,4.226562 76.15625,4.226562 Z m 0.6875,3.25 L 77.5,8.179688 H 76.90625 L 76.359375,7.601562 c -0.05469,0 -0.09375,0 -0.125,0 -0.02344,0.00781 -0.04687,0.015626 -0.07813,0.015626 -0.511719,0 -0.921875,-0.171876 -1.234375,-0.515626 -0.304687,-0.34375 -0.453125,-0.800781 -0.453125,-1.375 0,-0.582031 0.148438,-1.046874 0.453125,-1.390624 0.3125,-0.34375 0.722656,-0.515626 1.234375,-0.515626 0.507812,0 0.914062,0.171876 1.21875,0.515626 0.3125,0.34375 0.46875,0.808593 0.46875,1.390624 0,0.417969 -0.08984,0.777344 -0.265625,1.078126 -0.167969,0.304687 -0.414063,0.527343 -0.734375,0.671874 z m 0,0"
     id="path2330" />
  <path
     style="fill:#ffffff;fill-opacity:1;fill-rule:nonzero;stroke:none"
     d="m 18.53125,71.160156 h 2.0625 v 0.5 H 17.8125 v -0.5 c 0.226562,-0.226562 0.535156,-0.535156 0.921875,-0.921875 0.382813,-0.394531 0.628906,-0.648437 0.734375,-0.765625 0.1875,-0.21875 0.316406,-0.398437 0.390625,-0.546875 0.07031,-0.144531 0.109375,-0.289062 0.109375,-0.4375 0,-0.226562 -0.08594,-0.414062 -0.25,-0.5625 -0.15625,-0.144531 -0.367188,-0.21875 -0.625,-0.21875 -0.1875,0 -0.386719,0.03125 -0.59375,0.09375 -0.199219,0.0625 -0.417969,0.164063 -0.65625,0.296875 v -0.59375 c 0.238281,-0.101562 0.460938,-0.175781 0.671875,-0.21875 0.207031,-0.05078 0.394531,-0.07813 0.5625,-0.07813 0.457031,0 0.816406,0.117188 1.078125,0.34375 0.269531,0.21875 0.40625,0.523438 0.40625,0.90625 0,0.179688 -0.03906,0.351563 -0.109375,0.515625 -0.0625,0.15625 -0.183594,0.34375 -0.359375,0.5625 -0.04297,0.05469 -0.199219,0.214844 -0.46875,0.484375 -0.261719,0.273438 -0.625,0.652344 -1.09375,1.140625 z m 0,0"
     id="path2332" />
  <path
     style="fill:#ffffff;fill-opacity:1;fill-rule:nonzero;stroke:none"
     d="m 23.460938,67.800781 -1.484376,2.328125 h 1.484376 z m -0.15625,-0.515625 h 0.75 v 2.84375 h 0.625 v 0.5 h -0.625 v 1.03125 h -0.59375 v -1.03125 h -1.96875 v -0.578125 z m 0,0"
     id="path2334" />
  <path
     style="fill:#ffffff;fill-opacity:1;fill-rule:nonzero;stroke:none"
     d="m 29.375,69.738281 c -0.167969,0 -0.304688,0.07422 -0.40625,0.21875 -0.09375,0.148438 -0.140625,0.34375 -0.140625,0.59375 0,0.261719 0.04687,0.464844 0.140625,0.609375 0.101562,0.148438 0.238281,0.21875 0.40625,0.21875 0.164062,0 0.296875,-0.07031 0.390625,-0.21875 0.101563,-0.144531 0.15625,-0.347656 0.15625,-0.609375 0,-0.25 -0.05469,-0.445312 -0.15625,-0.59375 -0.09375,-0.144531 -0.226563,-0.21875 -0.390625,-0.21875 z m 0,-0.375 c 0.3125,0 0.554688,0.109375 0.734375,0.328125 0.1875,0.210938 0.28125,0.496094 0.28125,0.859375 0,0.367188 -0.09375,0.65625 -0.28125,0.875 -0.179687,0.210938 -0.421875,0.3125 -0.734375,0.3125 -0.3125,0 -0.5625,-0.101562 -0.75,-0.3125 -0.179688,-0.21875 -0.265625,-0.507812 -0.265625,-0.875 0,-0.363281 0.08594,-0.648437 0.265625,-0.859375 0.1875,-0.21875 0.4375,-0.328125 0.75,-0.328125 z m -3.015625,-1.78125 c -0.167969,0 -0.304687,0.07422 -0.40625,0.21875 -0.09375,0.148438 -0.140625,0.34375 -0.140625,0.59375 0,0.261719 0.04687,0.464844 0.140625,0.609375 0.09375,0.148438 0.226563,0.21875 0.40625,0.21875 0.164063,0 0.296875,-0.07031 0.390625,-0.21875 0.101562,-0.144531 0.15625,-0.347656 0.15625,-0.609375 0,-0.25 -0.05469,-0.445312 -0.15625,-0.59375 -0.09375,-0.144531 -0.226562,-0.21875 -0.390625,-0.21875 z M 29,67.207031 h 0.46875 l -2.734375,4.53125 h -0.46875 z m -2.640625,0 c 0.300781,0 0.546875,0.109375 0.734375,0.328125 0.1875,0.210938 0.28125,0.496094 0.28125,0.859375 0,0.375 -0.09375,0.667969 -0.28125,0.875 -0.179688,0.210938 -0.421875,0.3125 -0.734375,0.3125 -0.3125,0 -0.5625,-0.101562 -0.75,-0.3125 -0.179687,-0.21875 -0.265625,-0.507812 -0.265625,-0.875 0,-0.363281 0.08594,-0.648437 0.265625,-0.859375 0.1875,-0.21875 0.4375,-0.328125 0.75,-0.328125 z m 0,0"
     id="path2336" />
  <path
     style="fill:#ffffff;fill-opacity:1;fill-rule:nonzero;stroke:none"
     d="m 49.816406,78.449219 c -0.28125,0 -0.507812,0.07813 -0.671875,0.234375 -0.15625,0.148437 -0.234375,0.351562 -0.234375,0.609375 0,0.273437 0.07813,0.480469 0.234375,0.625 0.164063,0.148437 0.390625,0.21875 0.671875,0.21875 0.28125,0 0.5,-0.07031 0.65625,-0.21875 0.164063,-0.15625 0.25,-0.363281 0.25,-0.625 0,-0.257813 -0.08594,-0.460938 -0.25,-0.609375 -0.15625,-0.15625 -0.375,-0.234375 -0.65625,-0.234375 z m -0.59375,-0.25 c -0.25,-0.0625 -0.449218,-0.175781 -0.59375,-0.34375 -0.136718,-0.175781 -0.203125,-0.390625 -0.203125,-0.640625 0,-0.351563 0.117188,-0.628906 0.359375,-0.828125 0.25,-0.207031 0.59375,-0.3125 1.03125,-0.3125 0.4375,0 0.78125,0.105469 1.03125,0.3125 0.25,0.199219 0.375,0.476562 0.375,0.828125 0,0.25 -0.07422,0.464844 -0.21875,0.640625 -0.148437,0.167969 -0.34375,0.28125 -0.59375,0.34375 0.289063,0.0625 0.515625,0.195312 0.671875,0.390625 0.15625,0.1875 0.234375,0.421875 0.234375,0.703125 0,0.429687 -0.132812,0.757812 -0.390625,0.984375 -0.261719,0.21875 -0.632812,0.328125 -1.109375,0.328125 -0.480468,0 -0.851562,-0.109375 -1.109375,-0.328125 -0.261719,-0.226563 -0.390625,-0.554688 -0.390625,-0.984375 0,-0.28125 0.07813,-0.515625 0.234375,-0.703125 0.164063,-0.195313 0.390625,-0.328125 0.671875,-0.390625 z m -0.21875,-0.9375 c 0,0.230469 0.07031,0.40625 0.21875,0.53125 0.144532,0.125 0.34375,0.1875 0.59375,0.1875 0.25,0 0.445313,-0.0625 0.59375,-0.1875 0.144532,-0.125 0.21875,-0.300781 0.21875,-0.53125 0,-0.226563 -0.07422,-0.40625 -0.21875,-0.53125 -0.148437,-0.125 -0.34375,-0.1875 -0.59375,-0.1875 -0.25,0 -0.449218,0.0625 -0.59375,0.1875 -0.148437,0.125 -0.21875,0.304687 -0.21875,0.53125 z m 0,0"
     id="path2338" />
  <path
     style="fill:#ffffff;fill-opacity:1;fill-rule:nonzero;stroke:none"
     d="m 56.089844,78.605469 c -0.167969,0 -0.304688,0.07422 -0.40625,0.21875 -0.09375,0.148437 -0.140625,0.34375 -0.140625,0.59375 0,0.261719 0.04687,0.464843 0.140625,0.609375 0.101562,0.148437 0.238281,0.21875 0.40625,0.21875 0.164062,0 0.296875,-0.07031 0.390625,-0.21875 0.101562,-0.144532 0.15625,-0.347656 0.15625,-0.609375 0,-0.25 -0.05469,-0.445313 -0.15625,-0.59375 -0.09375,-0.144531 -0.226563,-0.21875 -0.390625,-0.21875 z m 0,-0.375 c 0.3125,0 0.554687,0.109375 0.734375,0.328125 0.1875,0.210937 0.28125,0.496094 0.28125,0.859375 0,0.367187 -0.09375,0.65625 -0.28125,0.875 -0.179688,0.210937 -0.421875,0.3125 -0.734375,0.3125 -0.3125,0 -0.5625,-0.101563 -0.75,-0.3125 -0.179688,-0.21875 -0.265625,-0.507813 -0.265625,-0.875 0,-0.363281 0.08594,-0.648438 0.265625,-0.859375 0.1875,-0.21875 0.4375,-0.328125 0.75,-0.328125 z m -3.015625,-1.78125 c -0.167969,0 -0.304688,0.07422 -0.40625,0.21875 -0.09375,0.148437 -0.140625,0.34375 -0.140625,0.59375 0,0.261719 0.04687,0.464843 0.140625,0.609375 0.09375,0.148437 0.226562,0.21875 0.40625,0.21875 0.164062,0 0.296875,-0.07031 0.390625,-0.21875 0.101562,-0.144532 0.15625,-0.347656 0.15625,-0.609375 0,-0.25 -0.05469,-0.445313 -0.15625,-0.59375 -0.09375,-0.144531 -0.226563,-0.21875 -0.390625,-0.21875 z m 2.640625,-0.375 h 0.46875 l -2.734375,4.53125 h -0.46875 z m -2.640625,0 c 0.300781,0 0.546875,0.109375 0.734375,0.328125 0.1875,0.210937 0.28125,0.496094 0.28125,0.859375 0,0.375 -0.09375,0.667969 -0.28125,0.875 -0.179688,0.210937 -0.421875,0.3125 -0.734375,0.3125 -0.3125,0 -0.5625,-0.101563 -0.75,-0.3125 -0.179688,-0.21875 -0.265625,-0.507813 -0.265625,-0.875 0,-0.363281 0.08594,-0.648438 0.265625,-0.859375 0.1875,-0.21875 0.4375,-0.328125 0.75,-0.328125 z m 0,0"
     id="path2340" />
  <path
     style="fill:#ffffff;fill-opacity:1;fill-rule:nonzero;stroke:none"
     d="m 60.75,66.425781 h 0.96875 v -3.328125 l -1.0625,0.203125 v -0.53125 l 1.046875,-0.21875 h 0.59375 v 3.875 h 0.96875 v 0.5 H 60.75 Z m 0,0"
     id="path2342" />
  <path
     style="fill:#ffffff;fill-opacity:1;fill-rule:nonzero;stroke:none"
     d="m 64.570312,66.425781 h 0.96875 v -3.328125 l -1.0625,0.203125 v -0.53125 l 1.046876,-0.21875 h 0.59375 v 3.875 h 0.96875 v 0.5 h -2.515626 z m 0,0"
     id="path2344" />
  <path
     style="fill:#ffffff;fill-opacity:1;fill-rule:nonzero;stroke:none"
     d="m 72,65.003906 c -0.167969,0 -0.304688,0.07422 -0.40625,0.21875 -0.09375,0.148438 -0.140625,0.34375 -0.140625,0.59375 0,0.261719 0.04687,0.464844 0.140625,0.609375 0.101562,0.148438 0.238281,0.21875 0.40625,0.21875 0.164062,0 0.296875,-0.07031 0.390625,-0.21875 0.101563,-0.144531 0.15625,-0.347656 0.15625,-0.609375 0,-0.25 -0.05469,-0.445312 -0.15625,-0.59375 C 72.296875,65.078125 72.164062,65.003906 72,65.003906 Z m 0,-0.375 c 0.3125,0 0.554688,0.109375 0.734375,0.328125 0.1875,0.210938 0.28125,0.496094 0.28125,0.859375 0,0.367188 -0.09375,0.65625 -0.28125,0.875 -0.179687,0.210938 -0.421875,0.3125 -0.734375,0.3125 -0.3125,0 -0.5625,-0.101562 -0.75,-0.3125 -0.179688,-0.21875 -0.265625,-0.507812 -0.265625,-0.875 0,-0.363281 0.08594,-0.648437 0.265625,-0.859375 0.1875,-0.21875 0.4375,-0.328125 0.75,-0.328125 z m -3.015625,-1.78125 c -0.167969,0 -0.304687,0.07422 -0.40625,0.21875 -0.09375,0.148438 -0.140625,0.34375 -0.140625,0.59375 0,0.261719 0.04687,0.464844 0.140625,0.609375 0.09375,0.148438 0.226563,0.21875 0.40625,0.21875 0.164063,0 0.296875,-0.07031 0.390625,-0.21875 0.101562,-0.144531 0.15625,-0.347656 0.15625,-0.609375 0,-0.25 -0.05469,-0.445312 -0.15625,-0.59375 -0.09375,-0.144531 -0.226562,-0.21875 -0.390625,-0.21875 z m 2.640625,-0.375 h 0.46875 l -2.734375,4.53125 h -0.46875 z m -2.640625,0 c 0.300781,0 0.546875,0.109375 0.734375,0.328125 C 69.90625,63.011719 70,63.296875 70,63.660156 c 0,0.375 -0.09375,0.667969 -0.28125,0.875 -0.179688,0.210938 -0.421875,0.3125 -0.734375,0.3125 -0.3125,0 -0.5625,-0.101562 -0.75,-0.3125 -0.179687,-0.21875 -0.265625,-0.507812 -0.265625,-0.875 0,-0.363281 0.08594,-0.648437 0.265625,-0.859375 0.1875,-0.21875 0.4375,-0.328125 0.75,-0.328125 z m 0,0"
     id="path2346" />
  <path
     style="fill:#ffffff;fill-opacity:1;fill-rule:nonzero;stroke:none"
     d="m 66.183594,46.425781 h 0.96875 v -3.328125 l -1.0625,0.203125 v -0.53125 l 1.046875,-0.21875 h 0.59375 v 3.875 h 0.96875 v 0.5 h -2.515625 z m 0,0"
     id="path2348" />
  <path
     style="fill:#ffffff;fill-opacity:1;fill-rule:nonzero;stroke:none"
     d="m 70.003906,46.425781 h 0.96875 v -3.328125 l -1.0625,0.203125 v -0.53125 l 1.046875,-0.21875 h 0.59375 v 3.875 h 0.96875 v 0.5 h -2.515625 z m 0,0"
     id="path2350" />
  <path
     style="fill:#ffffff;fill-opacity:1;fill-rule:nonzero;stroke:none"
     d="m 77.433594,45.003906 c -0.167969,0 -0.304688,0.07422 -0.40625,0.21875 -0.09375,0.148438 -0.140625,0.34375 -0.140625,0.59375 0,0.261719 0.04687,0.464844 0.140625,0.609375 0.101562,0.148438 0.238281,0.21875 0.40625,0.21875 0.164062,0 0.296875,-0.07031 0.390625,-0.21875 0.101562,-0.144531 0.15625,-0.347656 0.15625,-0.609375 0,-0.25 -0.05469,-0.445312 -0.15625,-0.59375 -0.09375,-0.144531 -0.226563,-0.21875 -0.390625,-0.21875 z m 0,-0.375 c 0.3125,0 0.554687,0.109375 0.734375,0.328125 0.1875,0.210938 0.28125,0.496094 0.28125,0.859375 0,0.367188 -0.09375,0.65625 -0.28125,0.875 -0.179688,0.210938 -0.421875,0.3125 -0.734375,0.3125 -0.3125,0 -0.5625,-0.101562 -0.75,-0.3125 -0.179688,-0.21875 -0.265625,-0.507812 -0.265625,-0.875 0,-0.363281 0.08594,-0.648437 0.265625,-0.859375 0.1875,-0.21875 0.4375,-0.328125 0.75,-0.328125 z m -3.015625,-1.78125 c -0.167969,0 -0.304688,0.07422 -0.40625,0.21875 -0.09375,0.148438 -0.140625,0.34375 -0.140625,0.59375 0,0.261719 0.04687,0.464844 0.140625,0.609375 0.09375,0.148438 0.226562,0.21875 0.40625,0.21875 0.164062,0 0.296875,-0.07031 0.390625,-0.21875 0.101562,-0.144531 0.15625,-0.347656 0.15625,-0.609375 0,-0.25 -0.05469,-0.445312 -0.15625,-0.59375 -0.09375,-0.144531 -0.226563,-0.21875 -0.390625,-0.21875 z m 2.640625,-0.375 h 0.46875 l -2.734375,4.53125 h -0.46875 z m -2.640625,0 c 0.300781,0 0.546875,0.109375 0.734375,0.328125 0.1875,0.210938 0.28125,0.496094 0.28125,0.859375 0,0.375 -0.09375,0.667969 -0.28125,0.875 -0.179688,0.210938 -0.421875,0.3125 -0.734375,0.3125 -0.3125,0 -0.5625,-0.101562 -0.75,-0.3125 -0.179688,-0.21875 -0.265625,-0.507812 -0.265625,-0.875 0,-0.363281 0.08594,-0.648437 0.265625,-0.859375 0.1875,-0.21875 0.4375,-0.328125 0.75,-0.328125 z m 0,0"
     id="path2352" />
  <path
     style="fill:#ffffff;fill-opacity:1;fill-rule:nonzero;stroke:none"
     d="m 59.183594,27.828125 h 0.96875 V 24.5 l -1.0625,0.203125 v -0.53125 l 1.046875,-0.21875 h 0.59375 v 3.875 h 0.96875 v 0.5 h -2.515625 z m 0,0"
     id="path2354" />
  <path
     style="fill:#ffffff;fill-opacity:1;fill-rule:nonzero;stroke:none"
     d="m 63.003906,27.828125 h 0.96875 V 24.5 l -1.0625,0.203125 v -0.53125 l 1.046875,-0.21875 h 0.59375 v 3.875 h 0.96875 v 0.5 h -2.515625 z m 0,0"
     id="path2356" />
  <path
     style="fill:#ffffff;fill-opacity:1;fill-rule:nonzero;stroke:none"
     d="m 70.433594,26.40625 c -0.167969,0 -0.304688,0.07422 -0.40625,0.21875 -0.09375,0.148438 -0.140625,0.34375 -0.140625,0.59375 0,0.261719 0.04687,0.464844 0.140625,0.609375 0.101562,0.148437 0.238281,0.21875 0.40625,0.21875 0.164062,0 0.296875,-0.07031 0.390625,-0.21875 0.101562,-0.144531 0.15625,-0.347656 0.15625,-0.609375 0,-0.25 -0.05469,-0.445312 -0.15625,-0.59375 -0.09375,-0.144531 -0.226563,-0.21875 -0.390625,-0.21875 z m 0,-0.375 c 0.3125,0 0.554687,0.109375 0.734375,0.328125 0.1875,0.210937 0.28125,0.496094 0.28125,0.859375 0,0.367188 -0.09375,0.65625 -0.28125,0.875 -0.179688,0.210938 -0.421875,0.3125 -0.734375,0.3125 -0.3125,0 -0.5625,-0.101562 -0.75,-0.3125 -0.179688,-0.21875 -0.265625,-0.507812 -0.265625,-0.875 0,-0.363281 0.08594,-0.648438 0.265625,-0.859375 0.1875,-0.21875 0.4375,-0.328125 0.75,-0.328125 z M 67.417969,24.25 c -0.167969,0 -0.304688,0.07422 -0.40625,0.21875 -0.09375,0.148438 -0.140625,0.34375 -0.140625,0.59375 0,0.261719 0.04687,0.464844 0.140625,0.609375 0.09375,0.148437 0.226562,0.21875 0.40625,0.21875 0.164062,0 0.296875,-0.07031 0.390625,-0.21875 0.101562,-0.144531 0.15625,-0.347656 0.15625,-0.609375 0,-0.25 -0.05469,-0.445312 -0.15625,-0.59375 C 67.714844,24.324219 67.582031,24.25 67.417969,24.25 Z m 2.640625,-0.375 h 0.46875 l -2.734375,4.53125 h -0.46875 z m -2.640625,0 c 0.300781,0 0.546875,0.109375 0.734375,0.328125 0.1875,0.210937 0.28125,0.496094 0.28125,0.859375 0,0.375 -0.09375,0.667969 -0.28125,0.875 -0.179688,0.210938 -0.421875,0.3125 -0.734375,0.3125 -0.3125,0 -0.5625,-0.101562 -0.75,-0.3125 -0.179688,-0.21875 -0.265625,-0.507812 -0.265625,-0.875 0,-0.363281 0.08594,-0.648438 0.265625,-0.859375 0.1875,-0.21875 0.4375,-0.328125 0.75,-0.328125 z m 0,0"
     id="path2358" />
  <path
     style="fill:#ffffff;fill-opacity:1;fill-rule:nonzero;stroke:none"
     d="m 40.984375,13.828125 h 0.96875 V 10.5 l -1.0625,0.203125 v -0.53125 L 41.9375,9.953125 h 0.59375 v 3.875 H 43.5 v 0.5 h -2.515625 z m 0,0"
     id="path2360" />
  <path
     style="fill:#ffffff;fill-opacity:1;fill-rule:nonzero;stroke:none"
     d="m 44.804688,13.828125 h 0.96875 V 10.5 l -1.0625,0.203125 v -0.53125 l 1.046874,-0.21875 h 0.59375 v 3.875 h 0.96875 v 0.5 h -2.515624 z m 0,0"
     id="path2362" />
  <path
     style="fill:#ffffff;fill-opacity:1;fill-rule:nonzero;stroke:none"
     d="m 52.234375,12.40625 c -0.167969,0 -0.304687,0.07422 -0.40625,0.21875 -0.09375,0.148438 -0.140625,0.34375 -0.140625,0.59375 0,0.261719 0.04687,0.464844 0.140625,0.609375 0.101563,0.148437 0.238281,0.21875 0.40625,0.21875 0.164063,0 0.296875,-0.07031 0.390625,-0.21875 0.101562,-0.144531 0.15625,-0.347656 0.15625,-0.609375 0,-0.25 -0.05469,-0.445312 -0.15625,-0.59375 -0.09375,-0.144531 -0.226562,-0.21875 -0.390625,-0.21875 z m 0,-0.375 c 0.3125,0 0.554687,0.109375 0.734375,0.328125 0.1875,0.210937 0.28125,0.496094 0.28125,0.859375 0,0.367188 -0.09375,0.65625 -0.28125,0.875 -0.179688,0.210938 -0.421875,0.3125 -0.734375,0.3125 -0.3125,0 -0.5625,-0.101562 -0.75,-0.3125 -0.179687,-0.21875 -0.265625,-0.507812 -0.265625,-0.875 0,-0.363281 0.08594,-0.648438 0.265625,-0.859375 0.1875,-0.21875 0.4375,-0.328125 0.75,-0.328125 z M 49.21875,10.25 c -0.167969,0 -0.304688,0.07422 -0.40625,0.21875 -0.09375,0.148438 -0.140625,0.34375 -0.140625,0.59375 0,0.261719 0.04687,0.464844 0.140625,0.609375 0.09375,0.148437 0.226562,0.21875 0.40625,0.21875 0.164062,0 0.296875,-0.07031 0.390625,-0.21875 0.101563,-0.144531 0.15625,-0.347656 0.15625,-0.609375 0,-0.25 -0.05469,-0.445312 -0.15625,-0.59375 C 49.515625,10.324219 49.382812,10.25 49.21875,10.25 Z m 2.640625,-0.375 h 0.46875 L 49.59375,14.40625 H 49.125 Z m -2.640625,0 c 0.300781,0 0.546875,0.109375 0.734375,0.328125 0.1875,0.210937 0.28125,0.496094 0.28125,0.859375 0,0.375 -0.09375,0.667969 -0.28125,0.875 -0.179687,0.210938 -0.421875,0.3125 -0.734375,0.3125 -0.3125,0 -0.5625,-0.101562 -0.75,-0.3125 -0.179688,-0.21875 -0.265625,-0.507812 -0.265625,-0.875 0,-0.363281 0.08594,-0.648438 0.265625,-0.859375 0.1875,-0.21875 0.4375,-0.328125 0.75,-0.328125 z m 0,0"
     id="path2364" />
  <path
     style="fill:#ffffff;fill-opacity:1;fill-rule:nonzero;stroke:none"
     d="m 15.417969,38.929688 h 2.0625 v 0.5 h -2.78125 v -0.5 c 0.226562,-0.226563 0.535156,-0.535157 0.921875,-0.921876 0.382812,-0.394531 0.628906,-0.648437 0.734375,-0.765624 0.1875,-0.21875 0.316406,-0.398438 0.390625,-0.546876 0.07031,-0.144531 0.109375,-0.289062 0.109375,-0.4375 0,-0.226562 -0.08594,-0.414062 -0.25,-0.5625 -0.15625,-0.144531 -0.367188,-0.21875 -0.625,-0.21875 -0.1875,0 -0.386719,0.03125 -0.59375,0.09375 -0.199219,0.0625 -0.417969,0.164063 -0.65625,0.296876 v -0.59375 c 0.238281,-0.101563 0.460937,-0.175782 0.671875,-0.21875 0.207031,-0.05078 0.394531,-0.07813 0.5625,-0.07813 0.457031,0 0.816406,0.117188 1.078125,0.34375 0.269531,0.21875 0.40625,0.523438 0.40625,0.90625 0,0.179688 -0.03906,0.351563 -0.109375,0.515626 -0.0625,0.15625 -0.183594,0.34375 -0.359375,0.5625 -0.04297,0.05469 -0.199219,0.214843 -0.46875,0.484374 -0.261719,0.273438 -0.625,0.652344 -1.09375,1.140626 z m 0,0"
     id="path2366" />
  <path
     style="fill:#ffffff;fill-opacity:1;fill-rule:nonzero;stroke:none"
     d="m 20.347656,35.570312 -1.484375,2.328126 h 1.484375 z m -0.15625,-0.515624 h 0.75 v 2.84375 h 0.625 v 0.5 h -0.625 v 1.03125 h -0.59375 v -1.03125 h -1.96875 v -0.578126 z m 0,0"
     id="path2368" />
  <path
     style="fill:#ffffff;fill-opacity:1;fill-rule:nonzero;stroke:none"
     d="m 26.261719,37.507812 c -0.167969,0 -0.304688,0.07422 -0.40625,0.21875 -0.09375,0.148438 -0.140625,0.34375 -0.140625,0.59375 0,0.261719 0.04687,0.464844 0.140625,0.609376 0.101562,0.148437 0.238281,0.21875 0.40625,0.21875 0.164062,0 0.296875,-0.07031 0.390625,-0.21875 0.101562,-0.144532 0.15625,-0.347657 0.15625,-0.609376 0,-0.25 -0.05469,-0.445312 -0.15625,-0.59375 -0.09375,-0.144531 -0.226563,-0.21875 -0.390625,-0.21875 z m 0,-0.375 c 0.3125,0 0.554687,0.109376 0.734375,0.328126 0.1875,0.210937 0.28125,0.496093 0.28125,0.859374 0,0.367188 -0.09375,0.65625 -0.28125,0.875 -0.179688,0.210938 -0.421875,0.3125 -0.734375,0.3125 -0.3125,0 -0.5625,-0.101562 -0.75,-0.3125 -0.179688,-0.21875 -0.265625,-0.507812 -0.265625,-0.875 0,-0.363281 0.08594,-0.648437 0.265625,-0.859374 0.1875,-0.21875 0.4375,-0.328126 0.75,-0.328126 z m -3.015625,-1.78125 c -0.167969,0 -0.304688,0.07422 -0.40625,0.21875 -0.09375,0.148438 -0.140625,0.34375 -0.140625,0.59375 0,0.261719 0.04687,0.464844 0.140625,0.609376 0.09375,0.148437 0.226562,0.21875 0.40625,0.21875 0.164062,0 0.296875,-0.07031 0.390625,-0.21875 0.101562,-0.144532 0.15625,-0.347657 0.15625,-0.609376 0,-0.25 -0.05469,-0.445312 -0.15625,-0.59375 -0.09375,-0.144531 -0.226563,-0.21875 -0.390625,-0.21875 z m 2.640625,-0.375 h 0.46875 l -2.734375,4.53125 h -0.46875 z m -2.640625,0 c 0.300781,0 0.546875,0.109376 0.734375,0.328126 0.1875,0.210937 0.28125,0.496093 0.28125,0.859374 0,0.375 -0.09375,0.667969 -0.28125,0.875 -0.179688,0.210938 -0.421875,0.3125 -0.734375,0.3125 -0.3125,0 -0.5625,-0.101562 -0.75,-0.3125 -0.179688,-0.21875 -0.265625,-0.507812 -0.265625,-0.875 0,-0.363281 0.08594,-0.648437 0.265625,-0.859374 0.1875,-0.21875 0.4375,-0.328126 0.75,-0.328126 z m 0,0"
     id="path2370" />
</svg>
