<?xml version="1.0" encoding="UTF-8"?>
<svg xmlns="http://www.w3.org/2000/svg" xmlns:xlink="http://www.w3.org/1999/xlink" width="103.129791pt" height="90.92627pt" viewBox="0 0 103.129791 90.92627" version="1.1">
<defs>
<clipPath id="clip1">
  <path d="M 36 41 L 69 41 L 69 90.925781 L 36 90.925781 Z M 36 41 "/>
</clipPath>
<clipPath id="clip2">
  <path d="M 0 41 L 50 41 L 50 90.925781 L 0 90.925781 Z M 0 41 "/>
</clipPath>
<clipPath id="clip3">
  <path d="M 60 84 L 65 84 L 65 90.925781 L 60 90.925781 Z M 60 84 "/>
</clipPath>
<clipPath id="clip4">
  <path d="M 65 84 L 70 84 L 70 90.925781 L 65 90.925781 Z M 65 84 "/>
</clipPath>
<clipPath id="clip5">
  <path d="M 70 84 L 76 84 L 76 90.925781 L 70 90.925781 Z M 70 84 "/>
</clipPath>
<clipPath id="clip6">
  <path d="M 102 43 L 103.128906 43 L 103.128906 48 L 102 48 Z M 102 43 "/>
</clipPath>
</defs>
<g id="surface1">
<path style=" stroke:none;fill-rule:nonzero;fill:rgb(79.998779%,0%,0%);fill-opacity:1;" d="M 41.359375 45.972656 L 44.691406 86.796875 L 45.941406 86.675781 L 47.1875 86.515625 L 48.429688 86.316406 L 49.664062 86.082031 L 50.890625 85.808594 L 52.105469 85.496094 L 53.3125 85.148438 L 54.511719 84.765625 L 55.691406 84.34375 L 56.863281 83.886719 L 58.019531 83.390625 L 59.160156 82.863281 L 60.28125 82.300781 L 61.386719 81.703125 L 62.472656 81.070312 L 63.539062 80.40625 L 41.359375 45.972656 "/>
<g clip-path="url(#clip1)" clip-rule="nonzero">
<path style="fill:none;stroke-width:0.8;stroke-linecap:butt;stroke-linejoin:miter;stroke:rgb(0%,0%,0%);stroke-opacity:1;stroke-miterlimit:4;" d="M 41.359375 45.972656 L 44.691406 86.796875 L 45.941406 86.675781 L 47.1875 86.515625 L 48.429688 86.316406 L 49.664062 86.082031 L 50.890625 85.808594 L 52.105469 85.496094 L 53.3125 85.148438 L 54.511719 84.765625 L 55.691406 84.34375 L 56.863281 83.886719 L 58.019531 83.390625 L 59.160156 82.863281 L 60.28125 82.300781 L 61.386719 81.703125 L 62.472656 81.070312 L 63.539062 80.40625 L 41.359375 45.972656 "/>
</g>
<path style=" stroke:none;fill-rule:nonzero;fill:rgb(92.939758%,83.135986%,0%);fill-opacity:1;" d="M 41.359375 45.972656 L 0.75 51.304688 L 0.933594 52.5625 L 1.15625 53.816406 L 1.421875 55.058594 L 1.722656 56.292969 L 2.0625 57.519531 L 2.4375 58.734375 L 2.855469 59.9375 L 3.304688 61.125 L 3.796875 62.300781 L 4.320312 63.460938 L 4.878906 64.601562 L 5.476562 65.722656 L 6.105469 66.828125 L 6.773438 67.914062 L 7.46875 68.976562 L 8.199219 70.019531 L 8.960938 71.035156 L 9.757812 72.03125 L 10.582031 73 L 11.433594 73.941406 L 12.316406 74.855469 L 13.226562 75.746094 L 14.167969 76.605469 L 15.128906 77.433594 L 16.121094 78.234375 L 17.132812 79 L 18.171875 79.738281 L 19.230469 80.441406 L 20.3125 81.113281 L 21.414062 81.75 L 22.53125 82.351562 L 23.671875 82.917969 L 24.828125 83.449219 L 26 83.945312 L 27.183594 84.402344 L 28.386719 84.824219 L 29.597656 85.207031 L 30.820312 85.554688 L 32.054688 85.863281 L 33.300781 86.132812 L 34.550781 86.363281 L 35.808594 86.554688 L 37.070312 86.707031 L 38.335938 86.820312 L 39.605469 86.894531 L 40.878906 86.929688 L 42.148438 86.925781 L 43.421875 86.882812 L 44.691406 86.796875 L 41.359375 45.972656 "/>
<g clip-path="url(#clip2)" clip-rule="nonzero">
<path style="fill:none;stroke-width:0.8;stroke-linecap:butt;stroke-linejoin:miter;stroke:rgb(0%,0%,0%);stroke-opacity:1;stroke-miterlimit:4;" d="M 41.359375 45.972656 L 0.75 51.304688 L 0.933594 52.5625 L 1.15625 53.816406 L 1.421875 55.058594 L 1.722656 56.292969 L 2.0625 57.519531 L 2.4375 58.734375 L 2.855469 59.9375 L 3.304688 61.125 L 3.796875 62.300781 L 4.320312 63.460938 L 4.878906 64.601562 L 5.476562 65.722656 L 6.105469 66.828125 L 6.773438 67.914062 L 7.46875 68.976562 L 8.199219 70.019531 L 8.960938 71.035156 L 9.757812 72.03125 L 10.582031 73 L 11.433594 73.941406 L 12.316406 74.855469 L 13.226562 75.746094 L 14.167969 76.605469 L 15.128906 77.433594 L 16.121094 78.234375 L 17.132812 79 L 18.171875 79.738281 L 19.230469 80.441406 L 20.3125 81.113281 L 21.414062 81.75 L 22.53125 82.351562 L 23.671875 82.917969 L 24.828125 83.449219 L 26 83.945312 L 27.183594 84.402344 L 28.386719 84.824219 L 29.597656 85.207031 L 30.820312 85.554688 L 32.054688 85.863281 L 33.300781 86.132812 L 34.550781 86.363281 L 35.808594 86.554688 L 37.070312 86.707031 L 38.335938 86.820312 L 39.605469 86.894531 L 40.878906 86.929688 L 42.148438 86.925781 L 43.421875 86.882812 L 44.691406 86.796875 L 41.359375 45.972656 "/>
</g>
<path style="fill-rule:nonzero;fill:rgb(45.097351%,82.351685%,8.627319%);fill-opacity:1;stroke-width:0.8;stroke-linecap:butt;stroke-linejoin:miter;stroke:rgb(0%,0%,0%);stroke-opacity:1;stroke-miterlimit:4;" d="M 41.359375 45.972656 L 34.042969 5.671875 L 32.792969 5.921875 L 31.554688 6.207031 L 30.324219 6.527344 L 29.105469 6.890625 L 27.898438 7.289062 L 26.703125 7.726562 L 25.523438 8.199219 L 24.359375 8.710938 L 23.207031 9.257812 L 22.078125 9.835938 L 20.964844 10.453125 L 19.871094 11.105469 L 18.796875 11.785156 L 17.746094 12.503906 L 16.71875 13.253906 L 15.714844 14.035156 L 14.738281 14.84375 L 13.78125 15.6875 L 12.855469 16.558594 L 11.957031 17.457031 L 11.085938 18.382812 L 10.242188 19.335938 L 9.429688 20.316406 L 8.648438 21.320312 L 7.898438 22.347656 L 7.183594 23.398438 L 6.496094 24.46875 L 5.847656 25.5625 L 5.230469 26.675781 L 4.648438 27.804688 L 4.101562 28.953125 L 3.589844 30.121094 L 3.117188 31.300781 L 2.679688 32.492188 L 2.28125 33.703125 L 1.917969 34.921875 L 1.59375 36.152344 L 1.308594 37.390625 L 1.0625 38.636719 L 0.851562 39.894531 L 0.683594 41.152344 L 0.554688 42.417969 L 0.464844 43.6875 L 0.410156 44.957031 L 0.398438 46.230469 L 0.429688 47.5 L 0.496094 48.773438 L 0.601562 50.039062 L 0.746094 51.300781 L 41.359375 45.972656 "/>
<path style="fill-rule:nonzero;fill:rgb(96.076965%,47.450256%,0%);fill-opacity:1;stroke-width:0.8;stroke-linecap:butt;stroke-linejoin:miter;stroke:rgb(0%,0%,0%);stroke-opacity:1;stroke-miterlimit:4;" d="M 41.359375 45.972656 L 61.269531 10.179688 L 60.140625 9.574219 L 58.996094 9.007812 L 57.832031 8.472656 L 56.652344 7.976562 L 55.460938 7.519531 L 54.25 7.097656 L 53.03125 6.714844 L 51.800781 6.367188 L 50.558594 6.0625 L 49.304688 5.792969 L 48.046875 5.566406 L 46.78125 5.375 L 45.511719 5.226562 L 44.238281 5.117188 L 42.957031 5.046875 L 41.679688 5.015625 L 40.402344 5.027344 L 39.121094 5.074219 L 37.847656 5.164062 L 36.574219 5.296875 L 35.304688 5.464844 L 34.042969 5.671875 L 41.359375 45.972656 "/>
<path style="fill-rule:nonzero;fill:rgb(20.391846%,39.607239%,64.312744%);fill-opacity:1;stroke-width:0.8;stroke-linecap:butt;stroke-linejoin:miter;stroke:rgb(0%,0%,0%);stroke-opacity:1;stroke-miterlimit:4;" d="M 41.359375 45.972656 L 79.457031 30.9375 L 78.96875 29.753906 L 78.445312 28.585938 L 77.882812 27.4375 L 77.285156 26.304688 L 76.65625 25.191406 L 75.988281 24.101562 L 75.289062 23.03125 L 74.554688 21.980469 L 73.789062 20.957031 L 72.992188 19.953125 L 72.164062 18.980469 L 71.304688 18.03125 L 70.417969 17.109375 L 69.503906 16.214844 L 68.558594 15.351562 L 67.589844 14.515625 L 66.59375 13.710938 L 65.574219 12.941406 L 64.53125 12.199219 L 63.464844 11.492188 L 62.378906 10.820312 L 61.269531 10.179688 L 41.359375 45.972656 "/>
<path style="fill-rule:nonzero;fill:rgb(45.881653%,31.37207%,48.234558%);fill-opacity:1;stroke-width:0.8;stroke-linecap:butt;stroke-linejoin:miter;stroke:rgb(0%,0%,0%);stroke-opacity:1;stroke-miterlimit:4;" d="M 41.359375 45.972656 L 80.351562 58.519531 L 80.722656 57.292969 L 81.058594 56.058594 L 81.351562 54.816406 L 81.609375 53.5625 L 81.828125 52.300781 L 82.003906 51.035156 L 82.144531 49.761719 L 82.242188 48.488281 L 82.300781 47.207031 L 82.316406 45.929688 L 82.296875 44.648438 L 82.234375 43.371094 L 82.132812 42.097656 L 81.992188 40.824219 L 81.8125 39.558594 L 81.59375 38.296875 L 81.332031 37.046875 L 81.035156 35.800781 L 80.699219 34.566406 L 80.320312 33.34375 L 79.910156 32.132812 L 79.457031 30.9375 L 41.359375 45.972656 "/>
<path style="fill-rule:nonzero;fill:rgb(75.68512%,49.01886%,6.666565%);fill-opacity:1;stroke-width:0.8;stroke-linecap:butt;stroke-linejoin:miter;stroke:rgb(0%,0%,0%);stroke-opacity:1;stroke-miterlimit:4;" d="M 41.359375 45.972656 L 63.542969 80.40625 L 64.605469 79.695312 L 65.648438 78.953125 L 66.664062 78.179688 L 67.660156 77.375 L 68.628906 76.539062 L 69.570312 75.671875 L 70.480469 74.773438 L 71.367188 73.851562 L 72.222656 72.902344 L 73.050781 71.921875 L 73.84375 70.921875 L 74.609375 69.894531 L 75.339844 68.84375 L 76.035156 67.773438 L 76.699219 66.679688 L 77.328125 65.5625 L 77.925781 64.429688 L 78.484375 63.28125 L 79.003906 62.113281 L 79.492188 60.929688 L 79.9375 59.730469 L 80.351562 58.519531 L 41.359375 45.972656 "/>
<path style=" stroke:none;fill-rule:nonzero;fill:rgb(0%,0%,0%);fill-opacity:1;" d="M 14.175781 25.6875 L 14.175781 30.21875 L 15.128906 30.21875 C 15.929688 30.21875 16.519531 30.039062 16.894531 29.671875 C 17.269531 29.308594 17.457031 28.734375 17.457031 27.953125 C 17.457031 27.171875 17.269531 26.601562 16.894531 26.234375 C 16.519531 25.871094 15.929688 25.6875 15.128906 25.6875 Z M 13.378906 25.046875 L 15.003906 25.046875 C 16.136719 25.046875 16.964844 25.28125 17.488281 25.75 C 18.019531 26.21875 18.285156 26.953125 18.285156 27.953125 C 18.285156 28.953125 18.019531 29.695312 17.488281 30.171875 C 16.957031 30.640625 16.128906 30.875 15.003906 30.875 L 13.378906 30.875 Z M 13.378906 25.046875 "/>
<path style=" stroke:none;fill-rule:nonzero;fill:rgb(0%,0%,0%);fill-opacity:1;" d="M 19.253906 25.046875 L 20.113281 25.046875 L 21.550781 27.203125 L 23.019531 25.046875 L 23.863281 25.046875 L 21.988281 27.84375 L 23.988281 30.875 L 23.144531 30.875 L 21.503906 28.390625 L 19.847656 30.875 L 18.988281 30.875 L 21.082031 27.765625 Z M 19.253906 25.046875 "/>
<path style=" stroke:none;fill-rule:nonzero;fill:rgb(0%,0%,0%);fill-opacity:1;" d="M 25.238281 30.203125 L 26.519531 30.203125 L 26.519531 25.765625 L 25.113281 26.046875 L 25.113281 25.328125 L 26.519531 25.046875 L 27.300781 25.046875 L 27.300781 30.203125 L 28.597656 30.203125 L 28.597656 30.875 L 25.238281 30.875 Z M 25.238281 30.203125 "/>
<path style=" stroke:none;fill-rule:nonzero;fill:rgb(0%,0%,0%);fill-opacity:1;" d="M 17.320312 58.859375 L 17.320312 63.390625 L 18.273438 63.390625 C 19.074219 63.390625 19.664062 63.210938 20.039062 62.84375 C 20.414062 62.480469 20.601562 61.90625 20.601562 61.125 C 20.601562 60.34375 20.414062 59.773438 20.039062 59.40625 C 19.664062 59.042969 19.074219 58.859375 18.273438 58.859375 Z M 16.523438 58.21875 L 18.148438 58.21875 C 19.28125 58.21875 20.109375 58.453125 20.632812 58.921875 C 21.164062 59.390625 21.429688 60.125 21.429688 61.125 C 21.429688 62.125 21.164062 62.867188 20.632812 63.34375 C 20.101562 63.8125 19.273438 64.046875 18.148438 64.046875 L 16.523438 64.046875 Z M 16.523438 58.21875 "/>
<path style=" stroke:none;fill-rule:nonzero;fill:rgb(0%,0%,0%);fill-opacity:1;" d="M 22.398438 58.21875 L 23.257812 58.21875 L 24.695312 60.375 L 26.164062 58.21875 L 27.007812 58.21875 L 25.132812 61.015625 L 27.132812 64.046875 L 26.289062 64.046875 L 24.648438 61.5625 L 22.992188 64.046875 L 22.132812 64.046875 L 24.226562 60.9375 Z M 22.398438 58.21875 "/>
<path style=" stroke:none;fill-rule:nonzero;fill:rgb(0%,0%,0%);fill-opacity:1;" d="M 28.914062 63.375 L 31.679688 63.375 L 31.679688 64.046875 L 27.976562 64.046875 L 27.976562 63.375 C 28.265625 63.074219 28.671875 62.664062 29.195312 62.140625 C 29.714844 61.609375 30.039062 61.273438 30.164062 61.125 C 30.421875 60.84375 30.601562 60.605469 30.695312 60.40625 C 30.796875 60.210938 30.851562 60.015625 30.851562 59.828125 C 30.851562 59.515625 30.742188 59.261719 30.523438 59.0625 C 30.304688 58.867188 30.023438 58.765625 29.679688 58.765625 C 29.429688 58.765625 29.164062 58.8125 28.882812 58.90625 C 28.609375 58.992188 28.320312 59.121094 28.007812 59.296875 L 28.007812 58.5 C 28.328125 58.367188 28.625 58.265625 28.898438 58.203125 C 29.179688 58.140625 29.433594 58.109375 29.664062 58.109375 C 30.265625 58.109375 30.746094 58.261719 31.101562 58.5625 C 31.464844 58.867188 31.648438 59.265625 31.648438 59.765625 C 31.648438 60.007812 31.601562 60.234375 31.507812 60.453125 C 31.414062 60.671875 31.25 60.929688 31.023438 61.21875 C 30.949219 61.292969 30.734375 61.511719 30.382812 61.875 C 30.039062 62.230469 29.546875 62.730469 28.914062 63.375 Z M 28.914062 63.375 "/>
<g clip-path="url(#clip3)" clip-rule="nonzero">
<path style=" stroke:none;fill-rule:nonzero;fill:rgb(0%,0%,0%);fill-opacity:1;" d="M 60.816406 84.984375 L 64.175781 84.984375 L 64.175781 85.640625 L 61.613281 85.640625 L 61.613281 87.359375 L 63.925781 87.359375 L 63.925781 88.03125 L 61.613281 88.03125 L 61.613281 90.8125 L 60.816406 90.8125 Z M 60.816406 84.984375 "/>
</g>
<g clip-path="url(#clip4)" clip-rule="nonzero">
<path style=" stroke:none;fill-rule:nonzero;fill:rgb(0%,0%,0%);fill-opacity:1;" d="M 68.785156 85.171875 L 68.785156 85.9375 C 68.480469 85.792969 68.195312 85.6875 67.925781 85.625 C 67.664062 85.554688 67.414062 85.515625 67.175781 85.515625 C 66.738281 85.515625 66.402344 85.601562 66.175781 85.765625 C 65.945312 85.933594 65.832031 86.167969 65.832031 86.46875 C 65.832031 86.730469 65.902344 86.929688 66.050781 87.0625 C 66.207031 87.1875 66.503906 87.292969 66.941406 87.375 L 67.410156 87.46875 C 68.003906 87.585938 68.441406 87.78125 68.722656 88.0625 C 69.003906 88.34375 69.144531 88.726562 69.144531 89.203125 C 69.144531 89.765625 68.949219 90.195312 68.566406 90.484375 C 68.191406 90.777344 67.636719 90.921875 66.910156 90.921875 C 66.628906 90.921875 66.332031 90.890625 66.019531 90.828125 C 65.707031 90.765625 65.382812 90.671875 65.050781 90.546875 L 65.050781 89.734375 C 65.371094 89.921875 65.683594 90.0625 65.988281 90.15625 C 66.300781 90.242188 66.605469 90.28125 66.910156 90.28125 C 67.355469 90.28125 67.699219 90.195312 67.941406 90.015625 C 68.191406 89.839844 68.316406 89.589844 68.316406 89.265625 C 68.316406 88.976562 68.226562 88.75 68.050781 88.59375 C 67.871094 88.429688 67.585938 88.304688 67.191406 88.21875 L 66.707031 88.125 C 66.113281 88.011719 65.683594 87.828125 65.425781 87.578125 C 65.164062 87.328125 65.035156 86.980469 65.035156 86.53125 C 65.035156 86.023438 65.214844 85.621094 65.582031 85.328125 C 65.945312 85.027344 66.445312 84.875 67.082031 84.875 C 67.351562 84.875 67.628906 84.902344 67.910156 84.953125 C 68.199219 84.996094 68.492188 85.070312 68.785156 85.171875 Z M 68.785156 85.171875 "/>
</g>
<g clip-path="url(#clip5)" clip-rule="nonzero">
<path style=" stroke:none;fill-rule:nonzero;fill:rgb(0%,0%,0%);fill-opacity:1;" d="M 70.363281 84.984375 L 71.550781 84.984375 L 73.035156 88.953125 L 74.535156 84.984375 L 75.707031 84.984375 L 75.707031 90.8125 L 74.941406 90.8125 L 74.941406 85.6875 L 73.425781 89.6875 L 72.644531 89.6875 L 71.128906 85.6875 L 71.128906 90.8125 L 70.363281 90.8125 Z M 70.363281 84.984375 "/>
</g>
<path style=" stroke:none;fill-rule:nonzero;fill:rgb(0%,0%,0%);fill-opacity:1;" d="M 82.210938 66.941406 L 80.617188 71.347656 L 83.820312 71.347656 Z M 79.539062 72.003906 L 81.773438 66.175781 L 82.664062 66.175781 L 84.882812 72.003906 Z M 79.539062 72.003906 "/>
<path style=" stroke:none;fill-rule:nonzero;fill:rgb(0%,0%,0%);fill-opacity:1;" d="M 86.632812 71.332031 L 89.492188 71.332031 L 89.492188 72.003906 L 85.726562 72.003906 L 85.726562 71.332031 L 87.601562 68.894531 L 85.726562 66.832031 L 85.726562 66.175781 L 89.414062 66.175781 L 89.414062 66.832031 L 86.632812 66.832031 L 88.507812 68.878906 Z M 86.632812 71.332031 "/>
<path style=" stroke:none;fill-rule:nonzero;fill:rgb(0%,0%,0%);fill-opacity:1;" d="M 90.992188 71.332031 L 92.273438 71.332031 L 92.273438 66.894531 L 90.867188 67.175781 L 90.867188 66.457031 L 92.273438 66.175781 L 93.054688 66.175781 L 93.054688 71.332031 L 94.351562 71.332031 L 94.351562 72.003906 L 90.992188 72.003906 Z M 90.992188 71.332031 "/>
<path style=" stroke:none;fill-rule:nonzero;fill:rgb(0%,0%,0%);fill-opacity:1;" d="M 97.054688 70.292969 C 96.699219 70.292969 96.414062 70.429688 96.195312 70.699219 C 95.984375 70.960938 95.882812 71.324219 95.882812 71.792969 C 95.882812 72.253906 95.984375 72.617188 96.195312 72.886719 C 96.414062 73.148438 96.699219 73.277344 97.054688 73.277344 C 97.40625 73.277344 97.6875 73.148438 97.898438 72.886719 C 98.117188 72.617188 98.226562 72.253906 98.226562 71.792969 C 98.226562 71.324219 98.117188 70.960938 97.898438 70.699219 C 97.6875 70.429688 97.40625 70.292969 97.054688 70.292969 Z M 97.742188 73.542969 L 98.398438 74.246094 L 97.804688 74.246094 L 97.257812 73.667969 C 97.203125 73.667969 97.164062 73.667969 97.132812 73.667969 C 97.109375 73.675781 97.085938 73.683594 97.054688 73.683594 C 96.542969 73.683594 96.132812 73.511719 95.820312 73.167969 C 95.515625 72.824219 95.367188 72.367188 95.367188 71.792969 C 95.367188 71.210938 95.515625 70.746094 95.820312 70.402344 C 96.132812 70.058594 96.542969 69.886719 97.054688 69.886719 C 97.5625 69.886719 97.96875 70.058594 98.273438 70.402344 C 98.585938 70.746094 98.742188 71.210938 98.742188 71.792969 C 98.742188 72.210938 98.652344 72.570312 98.476562 72.871094 C 98.308594 73.175781 98.0625 73.398438 97.742188 73.542969 Z M 97.742188 73.542969 "/>
<path style=" stroke:none;fill-rule:nonzero;fill:rgb(0%,0%,0%);fill-opacity:1;" d="M 89.230469 40.859375 L 87.636719 45.265625 L 90.839844 45.265625 Z M 86.558594 45.921875 L 88.792969 40.09375 L 89.683594 40.09375 L 91.902344 45.921875 Z M 86.558594 45.921875 "/>
<path style=" stroke:none;fill-rule:nonzero;fill:rgb(0%,0%,0%);fill-opacity:1;" d="M 93.652344 45.25 L 96.511719 45.25 L 96.511719 45.921875 L 92.746094 45.921875 L 92.746094 45.25 L 94.621094 42.8125 L 92.746094 40.75 L 92.746094 40.09375 L 96.433594 40.09375 L 96.433594 40.75 L 93.652344 40.75 L 95.527344 42.796875 Z M 93.652344 45.25 "/>
<path style=" stroke:none;fill-rule:nonzero;fill:rgb(0%,0%,0%);fill-opacity:1;" d="M 98.011719 45.25 L 99.292969 45.25 L 99.292969 40.8125 L 97.886719 41.09375 L 97.886719 40.375 L 99.292969 40.09375 L 100.074219 40.09375 L 100.074219 45.25 L 101.371094 45.25 L 101.371094 45.921875 L 98.011719 45.921875 Z M 98.011719 45.25 "/>
<g clip-path="url(#clip6)" clip-rule="nonzero">
<path style=" stroke:none;fill-rule:nonzero;fill:rgb(0%,0%,0%);fill-opacity:1;" d="M 102.589844 43.882812 L 103.089844 43.882812 L 103.089844 47.523438 L 102.589844 47.523438 Z M 102.589844 43.882812 "/>
</g>
<path style=" stroke:none;fill-rule:nonzero;fill:rgb(0%,0%,0%);fill-opacity:1;" d="M 80.476562 17.195312 L 78.882812 21.601562 L 82.085938 21.601562 Z M 77.804688 22.257812 L 80.039062 16.429688 L 80.929688 16.429688 L 83.148438 22.257812 Z M 77.804688 22.257812 "/>
<path style=" stroke:none;fill-rule:nonzero;fill:rgb(0%,0%,0%);fill-opacity:1;" d="M 84.898438 21.585938 L 87.757812 21.585938 L 87.757812 22.257812 L 83.992188 22.257812 L 83.992188 21.585938 L 85.867188 19.148438 L 83.992188 17.085938 L 83.992188 16.429688 L 87.679688 16.429688 L 87.679688 17.085938 L 84.898438 17.085938 L 86.773438 19.132812 Z M 84.898438 21.585938 "/>
<path style=" stroke:none;fill-rule:nonzero;fill:rgb(0%,0%,0%);fill-opacity:1;" d="M 89.789062 21.585938 L 92.554688 21.585938 L 92.554688 22.257812 L 88.851562 22.257812 L 88.851562 21.585938 C 89.140625 21.285156 89.546875 20.875 90.070312 20.351562 C 90.589844 19.820312 90.914062 19.484375 91.039062 19.335938 C 91.296875 19.054688 91.476562 18.816406 91.570312 18.617188 C 91.671875 18.421875 91.726562 18.226562 91.726562 18.039062 C 91.726562 17.726562 91.617188 17.472656 91.398438 17.273438 C 91.179688 17.078125 90.898438 16.976562 90.554688 16.976562 C 90.304688 16.976562 90.039062 17.023438 89.757812 17.117188 C 89.484375 17.203125 89.195312 17.332031 88.882812 17.507812 L 88.882812 16.710938 C 89.203125 16.578125 89.5 16.476562 89.773438 16.414062 C 90.054688 16.351562 90.308594 16.320312 90.539062 16.320312 C 91.140625 16.320312 91.621094 16.472656 91.976562 16.773438 C 92.339844 17.078125 92.523438 17.476562 92.523438 17.976562 C 92.523438 18.21875 92.476562 18.445312 92.382812 18.664062 C 92.289062 18.882812 92.125 19.140625 91.898438 19.429688 C 91.824219 19.503906 91.609375 19.722656 91.257812 20.085938 C 90.914062 20.441406 90.421875 20.941406 89.789062 21.585938 Z M 89.789062 21.585938 "/>
<path style=" stroke:none;fill-rule:nonzero;fill:rgb(0%,0%,0%);fill-opacity:1;" d="M 93.835938 20.21875 L 94.335938 20.21875 L 94.335938 23.859375 L 93.835938 23.859375 Z M 93.835938 20.21875 "/>
<path style=" stroke:none;fill-rule:nonzero;fill:rgb(0%,0%,0%);fill-opacity:1;" d="M 61.3125 0.875 L 59.71875 5.28125 L 62.921875 5.28125 Z M 58.640625 5.9375 L 60.875 0.109375 L 61.765625 0.109375 L 63.984375 5.9375 Z M 58.640625 5.9375 "/>
<path style=" stroke:none;fill-rule:nonzero;fill:rgb(0%,0%,0%);fill-opacity:1;" d="M 65.734375 5.265625 L 68.59375 5.265625 L 68.59375 5.9375 L 64.828125 5.9375 L 64.828125 5.265625 L 66.703125 2.828125 L 64.828125 0.765625 L 64.828125 0.109375 L 68.515625 0.109375 L 68.515625 0.765625 L 65.734375 0.765625 L 67.609375 2.8125 Z M 65.734375 5.265625 "/>
<path style=" stroke:none;fill-rule:nonzero;fill:rgb(0%,0%,0%);fill-opacity:1;" d="M 70.625 5.265625 L 73.390625 5.265625 L 73.390625 5.9375 L 69.6875 5.9375 L 69.6875 5.265625 C 69.976562 4.964844 70.382812 4.554688 70.90625 4.03125 C 71.425781 3.5 71.75 3.164062 71.875 3.015625 C 72.132812 2.734375 72.3125 2.496094 72.40625 2.296875 C 72.507812 2.101562 72.5625 1.90625 72.5625 1.71875 C 72.5625 1.40625 72.453125 1.152344 72.234375 0.953125 C 72.015625 0.757812 71.734375 0.65625 71.390625 0.65625 C 71.140625 0.65625 70.875 0.703125 70.59375 0.796875 C 70.320312 0.882812 70.03125 1.011719 69.71875 1.1875 L 69.71875 0.390625 C 70.039062 0.257812 70.335938 0.15625 70.609375 0.09375 C 70.890625 0.03125 71.144531 0 71.375 0 C 71.976562 0 72.457031 0.152344 72.8125 0.453125 C 73.175781 0.757812 73.359375 1.15625 73.359375 1.65625 C 73.359375 1.898438 73.3125 2.125 73.21875 2.34375 C 73.125 2.5625 72.960938 2.820312 72.734375 3.109375 C 72.660156 3.183594 72.445312 3.402344 72.09375 3.765625 C 71.75 4.121094 71.257812 4.621094 70.625 5.265625 Z M 70.625 5.265625 "/>
<path style=" stroke:none;fill-rule:nonzero;fill:rgb(0%,0%,0%);fill-opacity:1;" d="M 76.15625 4.226562 C 75.800781 4.226562 75.515625 4.363281 75.296875 4.632812 C 75.085938 4.894531 74.984375 5.257812 74.984375 5.726562 C 74.984375 6.1875 75.085938 6.550781 75.296875 6.820312 C 75.515625 7.082031 75.800781 7.210938 76.15625 7.210938 C 76.507812 7.210938 76.789062 7.082031 77 6.820312 C 77.21875 6.550781 77.328125 6.1875 77.328125 5.726562 C 77.328125 5.257812 77.21875 4.894531 77 4.632812 C 76.789062 4.363281 76.507812 4.226562 76.15625 4.226562 Z M 76.84375 7.476562 L 77.5 8.179688 L 76.90625 8.179688 L 76.359375 7.601562 C 76.304688 7.601562 76.265625 7.601562 76.234375 7.601562 C 76.210938 7.609375 76.1875 7.617188 76.15625 7.617188 C 75.644531 7.617188 75.234375 7.445312 74.921875 7.101562 C 74.617188 6.757812 74.46875 6.300781 74.46875 5.726562 C 74.46875 5.144531 74.617188 4.679688 74.921875 4.335938 C 75.234375 3.992188 75.644531 3.820312 76.15625 3.820312 C 76.664062 3.820312 77.070312 3.992188 77.375 4.335938 C 77.6875 4.679688 77.84375 5.144531 77.84375 5.726562 C 77.84375 6.144531 77.753906 6.503906 77.578125 6.804688 C 77.410156 7.109375 77.164062 7.332031 76.84375 7.476562 Z M 76.84375 7.476562 "/>
<path style=" stroke:none;fill-rule:nonzero;fill:rgb(0%,0%,0%);fill-opacity:1;" d="M 18.53125 71.160156 L 20.59375 71.160156 L 20.59375 71.660156 L 17.8125 71.660156 L 17.8125 71.160156 C 18.039062 70.933594 18.347656 70.625 18.734375 70.238281 C 19.117188 69.84375 19.363281 69.589844 19.46875 69.472656 C 19.65625 69.253906 19.785156 69.074219 19.859375 68.925781 C 19.929688 68.78125 19.96875 68.636719 19.96875 68.488281 C 19.96875 68.261719 19.882812 68.074219 19.71875 67.925781 C 19.5625 67.78125 19.351562 67.707031 19.09375 67.707031 C 18.90625 67.707031 18.707031 67.738281 18.5 67.800781 C 18.300781 67.863281 18.082031 67.964844 17.84375 68.097656 L 17.84375 67.503906 C 18.082031 67.402344 18.304688 67.328125 18.515625 67.285156 C 18.722656 67.234375 18.910156 67.207031 19.078125 67.207031 C 19.535156 67.207031 19.894531 67.324219 20.15625 67.550781 C 20.425781 67.769531 20.5625 68.074219 20.5625 68.457031 C 20.5625 68.636719 20.523438 68.808594 20.453125 68.972656 C 20.390625 69.128906 20.269531 69.316406 20.09375 69.535156 C 20.050781 69.589844 19.894531 69.75 19.625 70.019531 C 19.363281 70.292969 19 70.671875 18.53125 71.160156 Z M 18.53125 71.160156 "/>
<path style=" stroke:none;fill-rule:nonzero;fill:rgb(0%,0%,0%);fill-opacity:1;" d="M 23.460938 67.800781 L 21.976562 70.128906 L 23.460938 70.128906 Z M 23.304688 67.285156 L 24.054688 67.285156 L 24.054688 70.128906 L 24.679688 70.128906 L 24.679688 70.628906 L 24.054688 70.628906 L 24.054688 71.660156 L 23.460938 71.660156 L 23.460938 70.628906 L 21.492188 70.628906 L 21.492188 70.050781 Z M 23.304688 67.285156 "/>
<path style=" stroke:none;fill-rule:nonzero;fill:rgb(0%,0%,0%);fill-opacity:1;" d="M 29.375 69.738281 C 29.207031 69.738281 29.070312 69.8125 28.96875 69.957031 C 28.875 70.105469 28.828125 70.300781 28.828125 70.550781 C 28.828125 70.8125 28.875 71.015625 28.96875 71.160156 C 29.070312 71.308594 29.207031 71.378906 29.375 71.378906 C 29.539062 71.378906 29.671875 71.308594 29.765625 71.160156 C 29.867188 71.015625 29.921875 70.8125 29.921875 70.550781 C 29.921875 70.300781 29.867188 70.105469 29.765625 69.957031 C 29.671875 69.8125 29.539062 69.738281 29.375 69.738281 Z M 29.375 69.363281 C 29.6875 69.363281 29.929688 69.472656 30.109375 69.691406 C 30.296875 69.902344 30.390625 70.1875 30.390625 70.550781 C 30.390625 70.917969 30.296875 71.207031 30.109375 71.425781 C 29.929688 71.636719 29.6875 71.738281 29.375 71.738281 C 29.0625 71.738281 28.8125 71.636719 28.625 71.425781 C 28.445312 71.207031 28.359375 70.917969 28.359375 70.550781 C 28.359375 70.1875 28.445312 69.902344 28.625 69.691406 C 28.8125 69.472656 29.0625 69.363281 29.375 69.363281 Z M 26.359375 67.582031 C 26.191406 67.582031 26.054688 67.65625 25.953125 67.800781 C 25.859375 67.949219 25.8125 68.144531 25.8125 68.394531 C 25.8125 68.65625 25.859375 68.859375 25.953125 69.003906 C 26.046875 69.152344 26.179688 69.222656 26.359375 69.222656 C 26.523438 69.222656 26.65625 69.152344 26.75 69.003906 C 26.851562 68.859375 26.90625 68.65625 26.90625 68.394531 C 26.90625 68.144531 26.851562 67.949219 26.75 67.800781 C 26.65625 67.65625 26.523438 67.582031 26.359375 67.582031 Z M 29 67.207031 L 29.46875 67.207031 L 26.734375 71.738281 L 26.265625 71.738281 Z M 26.359375 67.207031 C 26.660156 67.207031 26.90625 67.316406 27.09375 67.535156 C 27.28125 67.746094 27.375 68.03125 27.375 68.394531 C 27.375 68.769531 27.28125 69.0625 27.09375 69.269531 C 26.914062 69.480469 26.671875 69.582031 26.359375 69.582031 C 26.046875 69.582031 25.796875 69.480469 25.609375 69.269531 C 25.429688 69.050781 25.34375 68.761719 25.34375 68.394531 C 25.34375 68.03125 25.429688 67.746094 25.609375 67.535156 C 25.796875 67.316406 26.046875 67.207031 26.359375 67.207031 Z M 26.359375 67.207031 "/>
<path style=" stroke:none;fill-rule:nonzero;fill:rgb(0%,0%,0%);fill-opacity:1;" d="M 49.816406 78.449219 C 49.535156 78.449219 49.308594 78.527344 49.144531 78.683594 C 48.988281 78.832031 48.910156 79.035156 48.910156 79.292969 C 48.910156 79.566406 48.988281 79.773438 49.144531 79.917969 C 49.308594 80.066406 49.535156 80.136719 49.816406 80.136719 C 50.097656 80.136719 50.316406 80.066406 50.472656 79.917969 C 50.636719 79.761719 50.722656 79.554688 50.722656 79.292969 C 50.722656 79.035156 50.636719 78.832031 50.472656 78.683594 C 50.316406 78.527344 50.097656 78.449219 49.816406 78.449219 Z M 49.222656 78.199219 C 48.972656 78.136719 48.773438 78.023438 48.628906 77.855469 C 48.492188 77.679688 48.425781 77.464844 48.425781 77.214844 C 48.425781 76.863281 48.542969 76.585938 48.785156 76.386719 C 49.035156 76.179688 49.378906 76.074219 49.816406 76.074219 C 50.253906 76.074219 50.597656 76.179688 50.847656 76.386719 C 51.097656 76.585938 51.222656 76.863281 51.222656 77.214844 C 51.222656 77.464844 51.148438 77.679688 51.003906 77.855469 C 50.855469 78.023438 50.660156 78.136719 50.410156 78.199219 C 50.699219 78.261719 50.925781 78.394531 51.082031 78.589844 C 51.238281 78.777344 51.316406 79.011719 51.316406 79.292969 C 51.316406 79.722656 51.183594 80.050781 50.925781 80.277344 C 50.664062 80.496094 50.292969 80.605469 49.816406 80.605469 C 49.335938 80.605469 48.964844 80.496094 48.707031 80.277344 C 48.445312 80.050781 48.316406 79.722656 48.316406 79.292969 C 48.316406 79.011719 48.394531 78.777344 48.550781 78.589844 C 48.714844 78.394531 48.941406 78.261719 49.222656 78.199219 Z M 49.003906 77.261719 C 49.003906 77.492188 49.074219 77.667969 49.222656 77.792969 C 49.367188 77.917969 49.566406 77.980469 49.816406 77.980469 C 50.066406 77.980469 50.261719 77.917969 50.410156 77.792969 C 50.554688 77.667969 50.628906 77.492188 50.628906 77.261719 C 50.628906 77.035156 50.554688 76.855469 50.410156 76.730469 C 50.261719 76.605469 50.066406 76.542969 49.816406 76.542969 C 49.566406 76.542969 49.367188 76.605469 49.222656 76.730469 C 49.074219 76.855469 49.003906 77.035156 49.003906 77.261719 Z M 49.003906 77.261719 "/>
<path style=" stroke:none;fill-rule:nonzero;fill:rgb(0%,0%,0%);fill-opacity:1;" d="M 56.089844 78.605469 C 55.921875 78.605469 55.785156 78.679688 55.683594 78.824219 C 55.589844 78.972656 55.542969 79.167969 55.542969 79.417969 C 55.542969 79.679688 55.589844 79.882812 55.683594 80.027344 C 55.785156 80.175781 55.921875 80.246094 56.089844 80.246094 C 56.253906 80.246094 56.386719 80.175781 56.480469 80.027344 C 56.582031 79.882812 56.636719 79.679688 56.636719 79.417969 C 56.636719 79.167969 56.582031 78.972656 56.480469 78.824219 C 56.386719 78.679688 56.253906 78.605469 56.089844 78.605469 Z M 56.089844 78.230469 C 56.402344 78.230469 56.644531 78.339844 56.824219 78.558594 C 57.011719 78.769531 57.105469 79.054688 57.105469 79.417969 C 57.105469 79.785156 57.011719 80.074219 56.824219 80.292969 C 56.644531 80.503906 56.402344 80.605469 56.089844 80.605469 C 55.777344 80.605469 55.527344 80.503906 55.339844 80.292969 C 55.160156 80.074219 55.074219 79.785156 55.074219 79.417969 C 55.074219 79.054688 55.160156 78.769531 55.339844 78.558594 C 55.527344 78.339844 55.777344 78.230469 56.089844 78.230469 Z M 53.074219 76.449219 C 52.90625 76.449219 52.769531 76.523438 52.667969 76.667969 C 52.574219 76.816406 52.527344 77.011719 52.527344 77.261719 C 52.527344 77.523438 52.574219 77.726562 52.667969 77.871094 C 52.761719 78.019531 52.894531 78.089844 53.074219 78.089844 C 53.238281 78.089844 53.371094 78.019531 53.464844 77.871094 C 53.566406 77.726562 53.621094 77.523438 53.621094 77.261719 C 53.621094 77.011719 53.566406 76.816406 53.464844 76.667969 C 53.371094 76.523438 53.238281 76.449219 53.074219 76.449219 Z M 55.714844 76.074219 L 56.183594 76.074219 L 53.449219 80.605469 L 52.980469 80.605469 Z M 53.074219 76.074219 C 53.375 76.074219 53.621094 76.183594 53.808594 76.402344 C 53.996094 76.613281 54.089844 76.898438 54.089844 77.261719 C 54.089844 77.636719 53.996094 77.929688 53.808594 78.136719 C 53.628906 78.347656 53.386719 78.449219 53.074219 78.449219 C 52.761719 78.449219 52.511719 78.347656 52.324219 78.136719 C 52.144531 77.917969 52.058594 77.628906 52.058594 77.261719 C 52.058594 76.898438 52.144531 76.613281 52.324219 76.402344 C 52.511719 76.183594 52.761719 76.074219 53.074219 76.074219 Z M 53.074219 76.074219 "/>
<path style=" stroke:none;fill-rule:nonzero;fill:rgb(0%,0%,0%);fill-opacity:1;" d="M 60.75 66.425781 L 61.71875 66.425781 L 61.71875 63.097656 L 60.65625 63.300781 L 60.65625 62.769531 L 61.703125 62.550781 L 62.296875 62.550781 L 62.296875 66.425781 L 63.265625 66.425781 L 63.265625 66.925781 L 60.75 66.925781 Z M 60.75 66.425781 "/>
<path style=" stroke:none;fill-rule:nonzero;fill:rgb(0%,0%,0%);fill-opacity:1;" d="M 64.570312 66.425781 L 65.539062 66.425781 L 65.539062 63.097656 L 64.476562 63.300781 L 64.476562 62.769531 L 65.523438 62.550781 L 66.117188 62.550781 L 66.117188 66.425781 L 67.085938 66.425781 L 67.085938 66.925781 L 64.570312 66.925781 Z M 64.570312 66.425781 "/>
<path style=" stroke:none;fill-rule:nonzero;fill:rgb(0%,0%,0%);fill-opacity:1;" d="M 72 65.003906 C 71.832031 65.003906 71.695312 65.078125 71.59375 65.222656 C 71.5 65.371094 71.453125 65.566406 71.453125 65.816406 C 71.453125 66.078125 71.5 66.28125 71.59375 66.425781 C 71.695312 66.574219 71.832031 66.644531 72 66.644531 C 72.164062 66.644531 72.296875 66.574219 72.390625 66.425781 C 72.492188 66.28125 72.546875 66.078125 72.546875 65.816406 C 72.546875 65.566406 72.492188 65.371094 72.390625 65.222656 C 72.296875 65.078125 72.164062 65.003906 72 65.003906 Z M 72 64.628906 C 72.3125 64.628906 72.554688 64.738281 72.734375 64.957031 C 72.921875 65.167969 73.015625 65.453125 73.015625 65.816406 C 73.015625 66.183594 72.921875 66.472656 72.734375 66.691406 C 72.554688 66.902344 72.3125 67.003906 72 67.003906 C 71.6875 67.003906 71.4375 66.902344 71.25 66.691406 C 71.070312 66.472656 70.984375 66.183594 70.984375 65.816406 C 70.984375 65.453125 71.070312 65.167969 71.25 64.957031 C 71.4375 64.738281 71.6875 64.628906 72 64.628906 Z M 68.984375 62.847656 C 68.816406 62.847656 68.679688 62.921875 68.578125 63.066406 C 68.484375 63.214844 68.4375 63.410156 68.4375 63.660156 C 68.4375 63.921875 68.484375 64.125 68.578125 64.269531 C 68.671875 64.417969 68.804688 64.488281 68.984375 64.488281 C 69.148438 64.488281 69.28125 64.417969 69.375 64.269531 C 69.476562 64.125 69.53125 63.921875 69.53125 63.660156 C 69.53125 63.410156 69.476562 63.214844 69.375 63.066406 C 69.28125 62.921875 69.148438 62.847656 68.984375 62.847656 Z M 71.625 62.472656 L 72.09375 62.472656 L 69.359375 67.003906 L 68.890625 67.003906 Z M 68.984375 62.472656 C 69.285156 62.472656 69.53125 62.582031 69.71875 62.800781 C 69.90625 63.011719 70 63.296875 70 63.660156 C 70 64.035156 69.90625 64.328125 69.71875 64.535156 C 69.539062 64.746094 69.296875 64.847656 68.984375 64.847656 C 68.671875 64.847656 68.421875 64.746094 68.234375 64.535156 C 68.054688 64.316406 67.96875 64.027344 67.96875 63.660156 C 67.96875 63.296875 68.054688 63.011719 68.234375 62.800781 C 68.421875 62.582031 68.671875 62.472656 68.984375 62.472656 Z M 68.984375 62.472656 "/>
<path style=" stroke:none;fill-rule:nonzero;fill:rgb(0%,0%,0%);fill-opacity:1;" d="M 66.183594 46.425781 L 67.152344 46.425781 L 67.152344 43.097656 L 66.089844 43.300781 L 66.089844 42.769531 L 67.136719 42.550781 L 67.730469 42.550781 L 67.730469 46.425781 L 68.699219 46.425781 L 68.699219 46.925781 L 66.183594 46.925781 Z M 66.183594 46.425781 "/>
<path style=" stroke:none;fill-rule:nonzero;fill:rgb(0%,0%,0%);fill-opacity:1;" d="M 70.003906 46.425781 L 70.972656 46.425781 L 70.972656 43.097656 L 69.910156 43.300781 L 69.910156 42.769531 L 70.957031 42.550781 L 71.550781 42.550781 L 71.550781 46.425781 L 72.519531 46.425781 L 72.519531 46.925781 L 70.003906 46.925781 Z M 70.003906 46.425781 "/>
<path style=" stroke:none;fill-rule:nonzero;fill:rgb(0%,0%,0%);fill-opacity:1;" d="M 77.433594 45.003906 C 77.265625 45.003906 77.128906 45.078125 77.027344 45.222656 C 76.933594 45.371094 76.886719 45.566406 76.886719 45.816406 C 76.886719 46.078125 76.933594 46.28125 77.027344 46.425781 C 77.128906 46.574219 77.265625 46.644531 77.433594 46.644531 C 77.597656 46.644531 77.730469 46.574219 77.824219 46.425781 C 77.925781 46.28125 77.980469 46.078125 77.980469 45.816406 C 77.980469 45.566406 77.925781 45.371094 77.824219 45.222656 C 77.730469 45.078125 77.597656 45.003906 77.433594 45.003906 Z M 77.433594 44.628906 C 77.746094 44.628906 77.988281 44.738281 78.167969 44.957031 C 78.355469 45.167969 78.449219 45.453125 78.449219 45.816406 C 78.449219 46.183594 78.355469 46.472656 78.167969 46.691406 C 77.988281 46.902344 77.746094 47.003906 77.433594 47.003906 C 77.121094 47.003906 76.871094 46.902344 76.683594 46.691406 C 76.503906 46.472656 76.417969 46.183594 76.417969 45.816406 C 76.417969 45.453125 76.503906 45.167969 76.683594 44.957031 C 76.871094 44.738281 77.121094 44.628906 77.433594 44.628906 Z M 74.417969 42.847656 C 74.25 42.847656 74.113281 42.921875 74.011719 43.066406 C 73.917969 43.214844 73.871094 43.410156 73.871094 43.660156 C 73.871094 43.921875 73.917969 44.125 74.011719 44.269531 C 74.105469 44.417969 74.238281 44.488281 74.417969 44.488281 C 74.582031 44.488281 74.714844 44.417969 74.808594 44.269531 C 74.910156 44.125 74.964844 43.921875 74.964844 43.660156 C 74.964844 43.410156 74.910156 43.214844 74.808594 43.066406 C 74.714844 42.921875 74.582031 42.847656 74.417969 42.847656 Z M 77.058594 42.472656 L 77.527344 42.472656 L 74.792969 47.003906 L 74.324219 47.003906 Z M 74.417969 42.472656 C 74.71875 42.472656 74.964844 42.582031 75.152344 42.800781 C 75.339844 43.011719 75.433594 43.296875 75.433594 43.660156 C 75.433594 44.035156 75.339844 44.328125 75.152344 44.535156 C 74.972656 44.746094 74.730469 44.847656 74.417969 44.847656 C 74.105469 44.847656 73.855469 44.746094 73.667969 44.535156 C 73.488281 44.316406 73.402344 44.027344 73.402344 43.660156 C 73.402344 43.296875 73.488281 43.011719 73.667969 42.800781 C 73.855469 42.582031 74.105469 42.472656 74.417969 42.472656 Z M 74.417969 42.472656 "/>
<path style=" stroke:none;fill-rule:nonzero;fill:rgb(0%,0%,0%);fill-opacity:1;" d="M 59.183594 27.828125 L 60.152344 27.828125 L 60.152344 24.5 L 59.089844 24.703125 L 59.089844 24.171875 L 60.136719 23.953125 L 60.730469 23.953125 L 60.730469 27.828125 L 61.699219 27.828125 L 61.699219 28.328125 L 59.183594 28.328125 Z M 59.183594 27.828125 "/>
<path style=" stroke:none;fill-rule:nonzero;fill:rgb(0%,0%,0%);fill-opacity:1;" d="M 63.003906 27.828125 L 63.972656 27.828125 L 63.972656 24.5 L 62.910156 24.703125 L 62.910156 24.171875 L 63.957031 23.953125 L 64.550781 23.953125 L 64.550781 27.828125 L 65.519531 27.828125 L 65.519531 28.328125 L 63.003906 28.328125 Z M 63.003906 27.828125 "/>
<path style=" stroke:none;fill-rule:nonzero;fill:rgb(0%,0%,0%);fill-opacity:1;" d="M 70.433594 26.40625 C 70.265625 26.40625 70.128906 26.480469 70.027344 26.625 C 69.933594 26.773438 69.886719 26.96875 69.886719 27.21875 C 69.886719 27.480469 69.933594 27.683594 70.027344 27.828125 C 70.128906 27.976562 70.265625 28.046875 70.433594 28.046875 C 70.597656 28.046875 70.730469 27.976562 70.824219 27.828125 C 70.925781 27.683594 70.980469 27.480469 70.980469 27.21875 C 70.980469 26.96875 70.925781 26.773438 70.824219 26.625 C 70.730469 26.480469 70.597656 26.40625 70.433594 26.40625 Z M 70.433594 26.03125 C 70.746094 26.03125 70.988281 26.140625 71.167969 26.359375 C 71.355469 26.570312 71.449219 26.855469 71.449219 27.21875 C 71.449219 27.585938 71.355469 27.875 71.167969 28.09375 C 70.988281 28.304688 70.746094 28.40625 70.433594 28.40625 C 70.121094 28.40625 69.871094 28.304688 69.683594 28.09375 C 69.503906 27.875 69.417969 27.585938 69.417969 27.21875 C 69.417969 26.855469 69.503906 26.570312 69.683594 26.359375 C 69.871094 26.140625 70.121094 26.03125 70.433594 26.03125 Z M 67.417969 24.25 C 67.25 24.25 67.113281 24.324219 67.011719 24.46875 C 66.917969 24.617188 66.871094 24.8125 66.871094 25.0625 C 66.871094 25.324219 66.917969 25.527344 67.011719 25.671875 C 67.105469 25.820312 67.238281 25.890625 67.417969 25.890625 C 67.582031 25.890625 67.714844 25.820312 67.808594 25.671875 C 67.910156 25.527344 67.964844 25.324219 67.964844 25.0625 C 67.964844 24.8125 67.910156 24.617188 67.808594 24.46875 C 67.714844 24.324219 67.582031 24.25 67.417969 24.25 Z M 70.058594 23.875 L 70.527344 23.875 L 67.792969 28.40625 L 67.324219 28.40625 Z M 67.417969 23.875 C 67.71875 23.875 67.964844 23.984375 68.152344 24.203125 C 68.339844 24.414062 68.433594 24.699219 68.433594 25.0625 C 68.433594 25.4375 68.339844 25.730469 68.152344 25.9375 C 67.972656 26.148438 67.730469 26.25 67.417969 26.25 C 67.105469 26.25 66.855469 26.148438 66.667969 25.9375 C 66.488281 25.71875 66.402344 25.429688 66.402344 25.0625 C 66.402344 24.699219 66.488281 24.414062 66.667969 24.203125 C 66.855469 23.984375 67.105469 23.875 67.417969 23.875 Z M 67.417969 23.875 "/>
<path style=" stroke:none;fill-rule:nonzero;fill:rgb(0%,0%,0%);fill-opacity:1;" d="M 40.984375 13.828125 L 41.953125 13.828125 L 41.953125 10.5 L 40.890625 10.703125 L 40.890625 10.171875 L 41.9375 9.953125 L 42.53125 9.953125 L 42.53125 13.828125 L 43.5 13.828125 L 43.5 14.328125 L 40.984375 14.328125 Z M 40.984375 13.828125 "/>
<path style=" stroke:none;fill-rule:nonzero;fill:rgb(0%,0%,0%);fill-opacity:1;" d="M 44.804688 13.828125 L 45.773438 13.828125 L 45.773438 10.5 L 44.710938 10.703125 L 44.710938 10.171875 L 45.757812 9.953125 L 46.351562 9.953125 L 46.351562 13.828125 L 47.320312 13.828125 L 47.320312 14.328125 L 44.804688 14.328125 Z M 44.804688 13.828125 "/>
<path style=" stroke:none;fill-rule:nonzero;fill:rgb(0%,0%,0%);fill-opacity:1;" d="M 52.234375 12.40625 C 52.066406 12.40625 51.929688 12.480469 51.828125 12.625 C 51.734375 12.773438 51.6875 12.96875 51.6875 13.21875 C 51.6875 13.480469 51.734375 13.683594 51.828125 13.828125 C 51.929688 13.976562 52.066406 14.046875 52.234375 14.046875 C 52.398438 14.046875 52.53125 13.976562 52.625 13.828125 C 52.726562 13.683594 52.78125 13.480469 52.78125 13.21875 C 52.78125 12.96875 52.726562 12.773438 52.625 12.625 C 52.53125 12.480469 52.398438 12.40625 52.234375 12.40625 Z M 52.234375 12.03125 C 52.546875 12.03125 52.789062 12.140625 52.96875 12.359375 C 53.15625 12.570312 53.25 12.855469 53.25 13.21875 C 53.25 13.585938 53.15625 13.875 52.96875 14.09375 C 52.789062 14.304688 52.546875 14.40625 52.234375 14.40625 C 51.921875 14.40625 51.671875 14.304688 51.484375 14.09375 C 51.304688 13.875 51.21875 13.585938 51.21875 13.21875 C 51.21875 12.855469 51.304688 12.570312 51.484375 12.359375 C 51.671875 12.140625 51.921875 12.03125 52.234375 12.03125 Z M 49.21875 10.25 C 49.050781 10.25 48.914062 10.324219 48.8125 10.46875 C 48.71875 10.617188 48.671875 10.8125 48.671875 11.0625 C 48.671875 11.324219 48.71875 11.527344 48.8125 11.671875 C 48.90625 11.820312 49.039062 11.890625 49.21875 11.890625 C 49.382812 11.890625 49.515625 11.820312 49.609375 11.671875 C 49.710938 11.527344 49.765625 11.324219 49.765625 11.0625 C 49.765625 10.8125 49.710938 10.617188 49.609375 10.46875 C 49.515625 10.324219 49.382812 10.25 49.21875 10.25 Z M 51.859375 9.875 L 52.328125 9.875 L 49.59375 14.40625 L 49.125 14.40625 Z M 49.21875 9.875 C 49.519531 9.875 49.765625 9.984375 49.953125 10.203125 C 50.140625 10.414062 50.234375 10.699219 50.234375 11.0625 C 50.234375 11.4375 50.140625 11.730469 49.953125 11.9375 C 49.773438 12.148438 49.53125 12.25 49.21875 12.25 C 48.90625 12.25 48.65625 12.148438 48.46875 11.9375 C 48.289062 11.71875 48.203125 11.429688 48.203125 11.0625 C 48.203125 10.699219 48.289062 10.414062 48.46875 10.203125 C 48.65625 9.984375 48.90625 9.875 49.21875 9.875 Z M 49.21875 9.875 "/>
<path style=" stroke:none;fill-rule:nonzero;fill:rgb(0%,0%,0%);fill-opacity:1;" d="M 15.417969 38.929688 L 17.480469 38.929688 L 17.480469 39.429688 L 14.699219 39.429688 L 14.699219 38.929688 C 14.925781 38.703125 15.234375 38.394531 15.621094 38.007812 C 16.003906 37.613281 16.25 37.359375 16.355469 37.242188 C 16.542969 37.023438 16.671875 36.84375 16.746094 36.695312 C 16.816406 36.550781 16.855469 36.40625 16.855469 36.257812 C 16.855469 36.03125 16.769531 35.84375 16.605469 35.695312 C 16.449219 35.550781 16.238281 35.476562 15.980469 35.476562 C 15.792969 35.476562 15.59375 35.507812 15.386719 35.570312 C 15.1875 35.632812 14.96875 35.734375 14.730469 35.867188 L 14.730469 35.273438 C 14.96875 35.171875 15.191406 35.097656 15.402344 35.054688 C 15.609375 35.003906 15.796875 34.976562 15.964844 34.976562 C 16.421875 34.976562 16.78125 35.09375 17.042969 35.320312 C 17.3125 35.539062 17.449219 35.84375 17.449219 36.226562 C 17.449219 36.40625 17.410156 36.578125 17.339844 36.742188 C 17.277344 36.898438 17.15625 37.085938 16.980469 37.304688 C 16.9375 37.359375 16.78125 37.519531 16.511719 37.789062 C 16.25 38.0625 15.886719 38.441406 15.417969 38.929688 Z M 15.417969 38.929688 "/>
<path style=" stroke:none;fill-rule:nonzero;fill:rgb(0%,0%,0%);fill-opacity:1;" d="M 20.347656 35.570312 L 18.863281 37.898438 L 20.347656 37.898438 Z M 20.191406 35.054688 L 20.941406 35.054688 L 20.941406 37.898438 L 21.566406 37.898438 L 21.566406 38.398438 L 20.941406 38.398438 L 20.941406 39.429688 L 20.347656 39.429688 L 20.347656 38.398438 L 18.378906 38.398438 L 18.378906 37.820312 Z M 20.191406 35.054688 "/>
<path style=" stroke:none;fill-rule:nonzero;fill:rgb(0%,0%,0%);fill-opacity:1;" d="M 26.261719 37.507812 C 26.09375 37.507812 25.957031 37.582031 25.855469 37.726562 C 25.761719 37.875 25.714844 38.070312 25.714844 38.320312 C 25.714844 38.582031 25.761719 38.785156 25.855469 38.929688 C 25.957031 39.078125 26.09375 39.148438 26.261719 39.148438 C 26.425781 39.148438 26.558594 39.078125 26.652344 38.929688 C 26.753906 38.785156 26.808594 38.582031 26.808594 38.320312 C 26.808594 38.070312 26.753906 37.875 26.652344 37.726562 C 26.558594 37.582031 26.425781 37.507812 26.261719 37.507812 Z M 26.261719 37.132812 C 26.574219 37.132812 26.816406 37.242188 26.996094 37.460938 C 27.183594 37.671875 27.277344 37.957031 27.277344 38.320312 C 27.277344 38.6875 27.183594 38.976562 26.996094 39.195312 C 26.816406 39.40625 26.574219 39.507812 26.261719 39.507812 C 25.949219 39.507812 25.699219 39.40625 25.511719 39.195312 C 25.332031 38.976562 25.246094 38.6875 25.246094 38.320312 C 25.246094 37.957031 25.332031 37.671875 25.511719 37.460938 C 25.699219 37.242188 25.949219 37.132812 26.261719 37.132812 Z M 23.246094 35.351562 C 23.078125 35.351562 22.941406 35.425781 22.839844 35.570312 C 22.746094 35.71875 22.699219 35.914062 22.699219 36.164062 C 22.699219 36.425781 22.746094 36.628906 22.839844 36.773438 C 22.933594 36.921875 23.066406 36.992188 23.246094 36.992188 C 23.410156 36.992188 23.542969 36.921875 23.636719 36.773438 C 23.738281 36.628906 23.792969 36.425781 23.792969 36.164062 C 23.792969 35.914062 23.738281 35.71875 23.636719 35.570312 C 23.542969 35.425781 23.410156 35.351562 23.246094 35.351562 Z M 25.886719 34.976562 L 26.355469 34.976562 L 23.621094 39.507812 L 23.152344 39.507812 Z M 23.246094 34.976562 C 23.546875 34.976562 23.792969 35.085938 23.980469 35.304688 C 24.167969 35.515625 24.261719 35.800781 24.261719 36.164062 C 24.261719 36.539062 24.167969 36.832031 23.980469 37.039062 C 23.800781 37.25 23.558594 37.351562 23.246094 37.351562 C 22.933594 37.351562 22.683594 37.25 22.496094 37.039062 C 22.316406 36.820312 22.230469 36.53125 22.230469 36.164062 C 22.230469 35.800781 22.316406 35.515625 22.496094 35.304688 C 22.683594 35.085938 22.933594 34.976562 23.246094 34.976562 Z M 23.246094 34.976562 "/>
</g>
</svg>
