<?xml version="1.0" encoding="UTF-8"?>
<svg xmlns="http://www.w3.org/2000/svg" xmlns:xlink="http://www.w3.org/1999/xlink" width="271.029755pt" height="86.087425pt" viewBox="0 0 271.029755 86.087425" version="1.1">
<defs>
<clipPath id="clip1">
  <path d="M 50 81 L 54 81 L 54 86.085938 L 50 86.085938 Z M 50 81 "/>
</clipPath>
<clipPath id="clip2">
  <path d="M 246 15 L 271.03125 15 L 271.03125 39 L 246 39 Z M 246 15 "/>
</clipPath>
</defs>
<g id="surface1">
<path style="fill:none;stroke-width:1.2;stroke-linecap:butt;stroke-linejoin:miter;stroke:rgb(0%,0%,0%);stroke-opacity:1;stroke-miterlimit:4;" d="M 262.75 27.023438 L 231.507812 27.023438 "/>
<path style="fill:none;stroke-width:2.4;stroke-linecap:butt;stroke-linejoin:miter;stroke:rgb(0%,0%,0%);stroke-opacity:1;stroke-miterlimit:4;" d="M 221.558594 27.023438 L 139.472656 27.023438 "/>
<path style="fill:none;stroke-width:2.4;stroke-linecap:butt;stroke-linejoin:miter;stroke:rgb(0%,0%,0%);stroke-opacity:1;stroke-miterlimit:4;" d="M 154.589844 55.675781 L 127.582031 55.675781 "/>
<path style="fill:none;stroke-width:2.4;stroke-linecap:butt;stroke-linejoin:miter;stroke:rgb(0%,0%,0%);stroke-opacity:1;stroke-miterlimit:4;" d="M 195.691406 59.820312 L 235.289062 59.820312 "/>
<path style=" stroke:none;fill-rule:nonzero;fill:rgb(0%,0%,0%);fill-opacity:1;" d="M 96.648438 7.554688 L 96.648438 3.054688 L 95.867188 3.054688 L 95.867188 2.367188 L 96.648438 2.367188 L 96.648438 1.820312 C 96.648438 1.46875 96.679688 1.207031 96.742188 1.039062 C 96.824219 0.8125 96.96875 0.628906 97.179688 0.492188 C 97.398438 0.347656 97.699219 0.273438 98.085938 0.273438 C 98.324219 0.273438 98.59375 0.304688 98.898438 0.367188 L 98.773438 1.132812 C 98.585938 1.101562 98.40625 1.085938 98.242188 1.085938 C 97.980469 1.085938 97.792969 1.144531 97.679688 1.257812 C 97.574219 1.363281 97.523438 1.570312 97.523438 1.882812 L 97.523438 2.367188 L 98.523438 2.367188 L 98.523438 3.054688 L 97.523438 3.054688 L 97.523438 7.554688 Z M 96.648438 7.554688 "/>
<path style=" stroke:none;fill-rule:nonzero;fill:rgb(0%,0%,0%);fill-opacity:1;" d="M 101.480469 8.300781 L 102.089844 8.378906 C 102.027344 8.796875 101.855469 9.125 101.574219 9.363281 C 101.300781 9.59375 100.96875 9.707031 100.574219 9.707031 C 100.074219 9.707031 99.671875 9.546875 99.371094 9.222656 C 99.078125 8.902344 98.933594 8.4375 98.933594 7.832031 C 98.933594 7.4375 98.996094 7.09375 99.121094 6.800781 C 99.246094 6.511719 99.4375 6.292969 99.699219 6.144531 C 99.96875 5.988281 100.261719 5.910156 100.574219 5.910156 C 100.96875 5.910156 101.292969 6.015625 101.542969 6.222656 C 101.792969 6.421875 101.953125 6.703125 102.027344 7.066406 L 101.433594 7.160156 C 101.371094 6.910156 101.265625 6.730469 101.121094 6.613281 C 100.984375 6.488281 100.8125 6.425781 100.605469 6.425781 C 100.292969 6.425781 100.035156 6.535156 99.839844 6.753906 C 99.652344 6.972656 99.558594 7.328125 99.558594 7.816406 C 99.558594 8.296875 99.652344 8.652344 99.839844 8.878906 C 100.027344 9.097656 100.269531 9.207031 100.574219 9.207031 C 100.8125 9.207031 101.011719 9.136719 101.167969 8.988281 C 101.332031 8.832031 101.4375 8.605469 101.480469 8.300781 Z M 101.480469 8.300781 "/>
<path style=" stroke:none;fill-rule:nonzero;fill:rgb(0%,0%,0%);fill-opacity:1;" d="M 102.492188 9.628906 L 102.492188 4.613281 L 103.101562 4.613281 L 103.101562 6.410156 C 103.382812 6.078125 103.742188 5.910156 104.179688 5.910156 C 104.449219 5.910156 104.683594 5.96875 104.882812 6.082031 C 105.078125 6.1875 105.21875 6.332031 105.304688 6.519531 C 105.398438 6.707031 105.445312 6.980469 105.445312 7.332031 L 105.445312 9.628906 L 104.820312 9.628906 L 104.820312 7.332031 C 104.820312 7.019531 104.75 6.796875 104.617188 6.660156 C 104.492188 6.515625 104.304688 6.441406 104.054688 6.441406 C 103.875 6.441406 103.703125 6.488281 103.539062 6.582031 C 103.382812 6.675781 103.265625 6.808594 103.195312 6.972656 C 103.132812 7.140625 103.101562 7.363281 103.101562 7.644531 L 103.101562 9.628906 Z M 102.492188 9.628906 "/>
<path style=" stroke:none;fill-rule:nonzero;fill:rgb(0%,0%,0%);fill-opacity:1;" d="M 106.246094 11.019531 L 106.246094 6.003906 L 106.792969 6.003906 L 106.792969 6.472656 C 106.925781 6.285156 107.078125 6.144531 107.246094 6.050781 C 107.410156 5.957031 107.613281 5.910156 107.855469 5.910156 C 108.167969 5.910156 108.4375 5.996094 108.667969 6.160156 C 108.90625 6.316406 109.082031 6.542969 109.199219 6.832031 C 109.324219 7.125 109.386719 7.441406 109.386719 7.785156 C 109.386719 8.160156 109.316406 8.5 109.183594 8.800781 C 109.058594 9.09375 108.863281 9.316406 108.605469 9.472656 C 108.355469 9.628906 108.089844 9.707031 107.808594 9.707031 C 107.597656 9.707031 107.410156 9.664062 107.246094 9.582031 C 107.089844 9.5 106.957031 9.390625 106.855469 9.253906 L 106.855469 11.019531 Z M 106.792969 7.832031 C 106.792969 8.300781 106.886719 8.652344 107.074219 8.878906 C 107.269531 9.097656 107.5 9.207031 107.761719 9.207031 C 108.042969 9.207031 108.277344 9.09375 108.464844 8.863281 C 108.660156 8.625 108.761719 8.265625 108.761719 7.785156 C 108.761719 7.316406 108.660156 6.96875 108.464844 6.738281 C 108.277344 6.511719 108.050781 6.394531 107.792969 6.394531 C 107.53125 6.394531 107.296875 6.519531 107.089844 6.769531 C 106.890625 7.011719 106.792969 7.363281 106.792969 7.832031 Z M 106.792969 7.832031 "/>
<path style="fill:none;stroke-width:1.2;stroke-linecap:butt;stroke-linejoin:miter;stroke:rgb(0%,0%,0%);stroke-opacity:1;stroke-miterlimit:4;" d="M 49.089844 62.933594 L 32.351562 62.933594 "/>
<path style="fill:none;stroke-width:1.2;stroke-linecap:butt;stroke-linejoin:miter;stroke:rgb(0%,0%,0%);stroke-opacity:1;stroke-miterlimit:4;" d="M 127.523438 55.875 L 49.460938 55.875 "/>
<path style="fill-rule:nonzero;fill:rgb(100%,100%,100%);fill-opacity:1;stroke-width:0.8;stroke-linecap:round;stroke-linejoin:miter;stroke:rgb(100%,100%,100%);stroke-opacity:1;stroke-miterlimit:4;" d="M 49.667969 -64.488281 L 61.914062 -64.488281 L 61.914062 -67.371094 L 49.667969 -67.371094 Z M 49.667969 -64.488281 " transform="matrix(0,1,-1,0,0,0)"/>
<path style="fill:none;stroke-width:1.6;stroke-linecap:butt;stroke-linejoin:miter;stroke:rgb(0%,0%,0%);stroke-opacity:1;stroke-miterlimit:4;" d="M 48.074219 -67.386719 L 63.242188 -67.386719 " transform="matrix(0,1,-1,0,0,0)"/>
<path style="fill:none;stroke-width:1.2;stroke-linecap:butt;stroke-linejoin:miter;stroke:rgb(0%,0%,0%);stroke-opacity:1;stroke-miterlimit:4;" d="M 61.933594 -62.269531 C 59.171875 -64.714844 52.328125 -64.679688 49.636719 -62.261719 " transform="matrix(0,1,-1,0,0,0)"/>
<path style="fill-rule:nonzero;fill:rgb(100%,100%,100%);fill-opacity:1;stroke-width:0.8;stroke-linecap:round;stroke-linejoin:miter;stroke:rgb(100%,100%,100%);stroke-opacity:1;stroke-miterlimit:4;" d="M 49.570312 88.867188 L 61.816406 88.867188 L 61.816406 91.800781 L 49.570312 91.800781 Z M 49.570312 88.867188 " transform="matrix(0,1,1,0,0,0)"/>
<path style="fill:none;stroke-width:1.6;stroke-linecap:butt;stroke-linejoin:miter;stroke:rgb(0%,0%,0%);stroke-opacity:1;stroke-miterlimit:4;" d="M 47.972656 88.851562 L 63.144531 88.851562 " transform="matrix(0,1,1,0,0,0)"/>
<path style="fill:none;stroke-width:1.2;stroke-linecap:butt;stroke-linejoin:miter;stroke:rgb(0%,0%,0%);stroke-opacity:1;stroke-miterlimit:4;" d="M 61.835938 93.96875 C 59.070312 91.523438 52.230469 91.558594 49.539062 93.976562 " transform="matrix(0,1,1,0,0,0)"/>
<path style="fill-rule:nonzero;fill:rgb(100%,100%,100%);fill-opacity:1;stroke-width:0.8;stroke-linecap:round;stroke-linejoin:miter;stroke:rgb(100%,100%,100%);stroke-opacity:1;stroke-miterlimit:4;" d="M 49.570312 126.464844 L 61.816406 126.464844 L 61.816406 129.347656 L 49.570312 129.347656 Z M 49.570312 126.464844 " transform="matrix(0,1,1,0,0,0)"/>
<path style="fill:none;stroke-width:1.6;stroke-linecap:butt;stroke-linejoin:miter;stroke:rgb(0%,0%,0%);stroke-opacity:1;stroke-miterlimit:4;" d="M 47.972656 126.449219 L 63.144531 126.449219 " transform="matrix(0,1,1,0,0,0)"/>
<path style="fill:none;stroke-width:1.2;stroke-linecap:butt;stroke-linejoin:miter;stroke:rgb(0%,0%,0%);stroke-opacity:1;stroke-miterlimit:4;" d="M 61.835938 131.566406 C 59.070312 129.121094 52.230469 129.15625 49.539062 131.574219 " transform="matrix(0,1,1,0,0,0)"/>
<path style="fill-rule:evenodd;fill:rgb(100%,100%,100%);fill-opacity:1;stroke-width:1.282038;stroke-linecap:butt;stroke-linejoin:miter;stroke:rgb(0%,0%,0%);stroke-opacity:1;stroke-miterlimit:4;" d="M -184.987699 -62.464844 C -172.659644 -62.925781 -170.36346 -55.847656 -170.36346 -55.847656 C -170.36346 -55.847656 -172.289579 -48.910156 -185.001074 -49.339844 C -182.169857 -52.640625 -182.178775 -58.972656 -184.987699 -62.464844 Z M -184.987699 -62.464844 " transform="matrix(-0.876114,0,0,-1,0,0)"/>
<path style="fill:none;stroke-width:1.233196;stroke-linecap:butt;stroke-linejoin:miter;stroke:rgb(0%,0%,0%);stroke-opacity:1;stroke-miterlimit:4;" d="M -52.169306 165.066406 C -55.659361 162.585938 -62.34657 162.589844 -66.030516 165.054688 " transform="matrix(0,-0.946887,1,0,0,0)"/>
<path style="fill:none;stroke-width:1.2;stroke-linecap:butt;stroke-linejoin:miter;stroke:rgb(0%,0%,0%);stroke-opacity:1;stroke-miterlimit:4;" d="M 131.03125 27.023438 L 77.882812 27.023438 L 77.882812 56.074219 "/>
<path style=" stroke:none;fill-rule:nonzero;fill:rgb(0%,0%,0%);fill-opacity:1;" d="M 75.410156 55.816406 C 75.410156 57.183594 76.519531 58.289062 77.886719 58.289062 C 79.253906 58.289062 80.359375 57.183594 80.359375 55.816406 C 80.359375 54.449219 79.253906 53.339844 77.886719 53.339844 C 76.519531 53.339844 75.410156 54.449219 75.410156 55.816406 Z M 75.410156 55.816406 "/>
<path style="fill-rule:evenodd;fill:rgb(100%,100%,100%);fill-opacity:1;stroke-width:1.2;stroke-linecap:butt;stroke-linejoin:miter;stroke:rgb(0%,0%,0%);stroke-opacity:1;stroke-miterlimit:4;" d="M 101.40625 16.140625 L 101.40625 38.207031 L 85.0625 42.097656 L 85.019531 12.265625 Z M 101.40625 16.140625 "/>
<path style="fill-rule:nonzero;fill:rgb(100%,100%,100%);fill-opacity:1;stroke-width:1.201451;stroke-linecap:butt;stroke-linejoin:miter;stroke:rgb(0%,0%,0%);stroke-opacity:1;stroke-miterlimit:4;" d="M 147.959399 20.828586 C 147.959068 27.469226 142.576205 32.853983 135.937009 32.854312 C 129.297812 32.854642 123.913539 27.469931 123.913871 20.829291 C 123.914203 14.188651 129.297245 8.807792 135.936441 8.807463 C 142.575638 8.807133 147.959731 14.187946 147.959399 20.828586 Z M 147.959399 20.828586 " transform="matrix(0.995506,0.0453535,-0.0458325,1,0,0)"/>
<path style="fill-rule:nonzero;fill:rgb(100%,100%,100%);fill-opacity:1;stroke-width:1.182809;stroke-linecap:round;stroke-linejoin:miter;stroke:rgb(0%,0%,0%);stroke-opacity:1;stroke-miterlimit:4;" d="M 118.69967 55.977847 L 109.966194 55.979371 L 112.150534 52.197919 L 114.335567 48.412688 L 116.517272 52.197157 Z M 118.69967 55.977847 " transform="matrix(0.995662,-0.184102,0.182599,1,0,0)"/>
<path style="fill-rule:nonzero;fill:rgb(100%,100%,100%);fill-opacity:1;stroke-width:1.182809;stroke-linecap:butt;stroke-linejoin:miter;stroke:rgb(0%,0%,0%);stroke-opacity:1;stroke-miterlimit:4;" d="M 115.986356 49.294726 C 115.987388 50.208979 115.247015 50.951581 114.332951 50.951269 C 113.418886 50.950956 112.676189 50.208756 112.678953 49.295202 C 112.677921 48.380949 113.417601 47.642126 114.331665 47.642438 C 115.24573 47.642751 115.985324 48.380474 115.986356 49.294726 Z M 115.986356 49.294726 " transform="matrix(0.995662,-0.184102,0.182599,1,0,0)"/>
<path style="fill-rule:nonzero;fill:rgb(100%,100%,100%);fill-opacity:1;stroke-width:1.003305;stroke-linecap:round;stroke-linejoin:miter;stroke:rgb(0%,0%,0%);stroke-opacity:1;stroke-miterlimit:4;" d="M 74.901931 -77.791672 L 67.4964 -77.792759 L 69.346578 -80.999509 L 71.198561 -84.208988 L 73.051148 -81.001696 Z M 74.901931 -77.791672 " transform="matrix(0.657383,1,-0.995987,0.661015,0,0)"/>
<path style="fill-rule:nonzero;fill:rgb(100%,100%,100%);fill-opacity:1;stroke-width:1.003305;stroke-linecap:butt;stroke-linejoin:miter;stroke:rgb(0%,0%,0%);stroke-opacity:1;stroke-miterlimit:4;" d="M 72.59883 -83.461256 C 72.599524 -82.688166 71.972534 -82.05875 71.197583 -82.056462 C 70.421718 -82.058699 69.793033 -82.685438 69.794144 -83.461259 C 69.793449 -84.234349 70.42044 -84.863764 71.19811 -84.864258 C 71.971255 -84.863816 72.59994 -84.237077 72.59883 -83.461256 Z M 72.59883 -83.461256 " transform="matrix(0.657383,1,-0.995987,0.661015,0,0)"/>
<path style="fill-rule:nonzero;fill:rgb(100%,100%,100%);fill-opacity:1;stroke-width:0.91887;stroke-linecap:round;stroke-linejoin:miter;stroke:rgb(0%,0%,0%);stroke-opacity:1;stroke-miterlimit:4;" d="M -56.093929 -88.844116 L -59.488122 -88.843715 L -62.880036 -88.845242 L -61.184759 -91.78254 L -59.487203 -94.721764 Z M -56.093929 -88.844116 " transform="matrix(-0.841398,1,-0.994961,-0.844485,0,0)"/>
<path style="fill-rule:nonzero;fill:rgb(100%,100%,100%);fill-opacity:1;stroke-width:0.91887;stroke-linecap:butt;stroke-linejoin:miter;stroke:rgb(0%,0%,0%);stroke-opacity:1;stroke-miterlimit:4;" d="M -58.204696 -94.035687 C -58.20327 -93.326281 -58.778625 -92.749428 -59.489303 -92.74912 C -60.197702 -92.750739 -60.774279 -93.327106 -60.773771 -94.034222 C -60.772918 -94.745555 -60.199842 -95.320481 -59.489164 -95.320789 C -58.778487 -95.321097 -58.206122 -94.745093 -58.204696 -94.035687 Z M -58.204696 -94.035687 " transform="matrix(-0.841398,1,-0.994961,-0.844485,0,0)"/>
<path style="fill-rule:nonzero;fill:rgb(100%,100%,100%);fill-opacity:1;stroke-width:1.158198;stroke-linecap:round;stroke-linejoin:miter;stroke:rgb(0%,0%,0%);stroke-opacity:1;stroke-miterlimit:4;" d="M -138.886678 13.085787 L -143.16134 13.082701 L -147.438625 13.084254 L -145.299003 9.380078 L -143.16302 5.676921 L -141.025357 9.379543 Z M -138.886678 13.085787 " transform="matrix(-0.995346,-0.279819,0.279252,-1,0,0)"/>
<path style="fill-rule:nonzero;fill:rgb(100%,100%,100%);fill-opacity:1;stroke-width:1.158198;stroke-linecap:butt;stroke-linejoin:miter;stroke:rgb(0%,0%,0%);stroke-opacity:1;stroke-miterlimit:4;" d="M -141.543341 6.54011 C -141.543528 7.434693 -142.26977 8.161347 -143.16446 8.161699 C -144.059151 8.16205 -144.784963 7.435458 -144.784776 6.540875 C -144.784589 5.646291 -144.058348 4.919638 -143.163657 4.919286 C -142.268966 4.918935 -141.543155 5.645527 -141.543341 6.54011 Z M -141.543341 6.54011 " transform="matrix(-0.995346,-0.279819,0.279252,-1,0,0)"/>
<path style="fill-rule:nonzero;fill:rgb(100%,100%,100%);fill-opacity:1;stroke-width:1.195429;stroke-linecap:round;stroke-linejoin:miter;stroke:rgb(0%,0%,0%);stroke-opacity:1;stroke-miterlimit:4;" d="M -48.493161 134.369007 L -57.320959 134.366051 L -52.906899 126.720711 Z M -48.493161 134.369007 " transform="matrix(-0.109187,-1,0.995612,-0.110361,0,0)"/>
<path style="fill-rule:nonzero;fill:rgb(100%,100%,100%);fill-opacity:1;stroke-width:1.195429;stroke-linecap:butt;stroke-linejoin:miter;stroke:rgb(0%,0%,0%);stroke-opacity:1;stroke-miterlimit:4;" d="M -51.239824 127.613684 C -51.240013 128.535677 -51.986833 129.28555 -52.912666 129.286026 C -53.834213 129.283048 -54.583993 128.537755 -54.583375 127.611885 C -54.583186 126.689891 -53.832507 125.940442 -52.910533 125.939543 C -51.988986 125.942521 -51.239206 126.687813 -51.239824 127.613684 Z M -51.239824 127.613684 " transform="matrix(-0.109187,-1,0.995612,-0.110361,0,0)"/>
<path style="fill:none;stroke-width:1.2;stroke-linecap:butt;stroke-linejoin:miter;stroke:rgb(79.998779%,0%,0%);stroke-opacity:1;stroke-miterlimit:4;" d="M 167.078125 -15.195312 L 158.628906 -15.195312 " transform="matrix(1,0,0,-1,0,0)"/>
<path style="fill-rule:evenodd;fill:rgb(100%,100%,100%);fill-opacity:1;stroke-width:1.2;stroke-linecap:butt;stroke-linejoin:miter;stroke:rgb(79.998779%,0%,0%);stroke-opacity:1;stroke-miterlimit:10;" d="M 165.867188 -7.972656 L 184.503906 -7.972656 L 184.503906 -34.074219 L 165.867188 -34.074219 Z M 165.867188 -7.972656 " transform="matrix(1,0,0,-1,0,0)"/>
<path style="fill-rule:evenodd;fill:rgb(100%,100%,100%);fill-opacity:1;stroke-width:0.8;stroke-linecap:butt;stroke-linejoin:miter;stroke:rgb(79.998779%,0%,0%);stroke-opacity:1;stroke-miterlimit:10;" d="M 166.199219 -17.746094 L 171.054688 -14.984375 L 166.199219 -12.222656 Z M 166.199219 -17.746094 " transform="matrix(1,0,0,-1,0,0)"/>
<path style=" stroke:none;fill-rule:nonzero;fill:rgb(79.998779%,0%,0%);fill-opacity:1;" d="M 167.898438 30.503906 L 167.898438 23.347656 L 170.367188 23.347656 C 170.929688 23.347656 171.355469 23.378906 171.648438 23.441406 C 172.054688 23.535156 172.402344 23.707031 172.695312 23.957031 C 173.070312 24.28125 173.351562 24.691406 173.539062 25.191406 C 173.726562 25.683594 173.820312 26.246094 173.820312 26.878906 C 173.820312 27.433594 173.757812 27.917969 173.632812 28.332031 C 173.507812 28.75 173.34375 29.097656 173.148438 29.378906 C 172.949219 29.652344 172.730469 29.863281 172.492188 30.019531 C 172.25 30.175781 171.964844 30.296875 171.632812 30.378906 C 171.296875 30.464844 170.917969 30.503906 170.492188 30.503906 Z M 168.851562 29.660156 L 170.382812 29.660156 C 170.851562 29.660156 171.21875 29.621094 171.492188 29.535156 C 171.761719 29.441406 171.976562 29.316406 172.132812 29.160156 C 172.359375 28.933594 172.539062 28.628906 172.664062 28.253906 C 172.789062 27.871094 172.851562 27.40625 172.851562 26.863281 C 172.851562 26.125 172.726562 25.550781 172.476562 25.144531 C 172.226562 24.738281 171.929688 24.46875 171.585938 24.332031 C 171.324219 24.238281 170.914062 24.191406 170.351562 24.191406 L 168.851562 24.191406 Z M 168.851562 29.660156 "/>
<path style=" stroke:none;fill-rule:nonzero;fill:rgb(79.998779%,0%,0%);fill-opacity:1;" d="M 181.378906 29.632812 C 181.816406 29.9375 182.214844 30.15625 182.582031 30.289062 L 182.316406 30.960938 C 181.792969 30.773438 181.277344 30.476562 180.769531 30.070312 C 180.238281 30.375 179.652344 30.523438 179.019531 30.523438 C 178.363281 30.523438 177.769531 30.367188 177.238281 30.054688 C 176.714844 29.742188 176.316406 29.304688 176.035156 28.742188 C 175.753906 28.171875 175.613281 27.53125 175.613281 26.820312 C 175.613281 26.113281 175.753906 25.472656 176.035156 24.898438 C 176.324219 24.316406 176.730469 23.875 177.253906 23.570312 C 177.785156 23.269531 178.378906 23.117188 179.035156 23.117188 C 179.691406 23.117188 180.285156 23.273438 180.816406 23.585938 C 181.347656 23.898438 181.753906 24.335938 182.035156 24.898438 C 182.316406 25.460938 182.457031 26.101562 182.457031 26.820312 C 182.457031 27.40625 182.363281 27.929688 182.175781 28.398438 C 181.996094 28.867188 181.730469 29.28125 181.378906 29.632812 Z M 179.285156 28.414062 C 179.835938 28.570312 180.289062 28.800781 180.644531 29.101562 C 181.195312 28.59375 181.472656 27.832031 181.472656 26.820312 C 181.472656 26.238281 181.371094 25.734375 181.175781 25.304688 C 180.976562 24.867188 180.691406 24.53125 180.316406 24.289062 C 179.941406 24.050781 179.511719 23.929688 179.035156 23.929688 C 178.324219 23.929688 177.738281 24.175781 177.269531 24.664062 C 176.808594 25.144531 176.582031 25.863281 176.582031 26.820312 C 176.582031 27.75 176.808594 28.460938 177.269531 28.960938 C 177.726562 29.460938 178.316406 29.710938 179.035156 29.710938 C 179.378906 29.710938 179.695312 29.648438 179.988281 29.523438 C 179.695312 29.328125 179.382812 29.1875 179.050781 29.101562 Z M 179.285156 28.414062 "/>
<path style="fill-rule:nonzero;fill:rgb(100%,100%,100%);fill-opacity:1;stroke-width:0.8;stroke-linecap:butt;stroke-linejoin:miter;stroke:rgb(0%,0%,0%);stroke-opacity:1;stroke-miterlimit:4;" d="M 106.597656 15.894531 L 115.019531 15.894531 L 115.019531 38.464844 L 106.597656 38.464844 Z M 106.597656 15.894531 "/>
<path style="fill:none;stroke-width:0.8;stroke-linecap:butt;stroke-linejoin:miter;stroke:rgb(0%,0%,0%);stroke-opacity:1;stroke-miterlimit:4;" d="M 115.019531 38.472656 L 106.597656 15.890625 "/>
<path style="fill:none;stroke-width:0.8;stroke-linecap:butt;stroke-linejoin:miter;stroke:rgb(0%,0%,0%);stroke-opacity:1;stroke-miterlimit:4;" d="M 106.597656 38.472656 L 115.019531 15.890625 "/>
<path style="fill:none;stroke-width:1.2;stroke-linecap:butt;stroke-linejoin:miter;stroke:rgb(0%,0%,0%);stroke-opacity:1;stroke-miterlimit:4;" d="M 171.742188 52.101562 L 163.292969 52.101562 "/>
<path style=" stroke:none;fill-rule:nonzero;fill:rgb(0%,0%,0%);fill-opacity:1;" d="M 175.527344 54.328125 L 175.527344 49.828125 L 174.746094 49.828125 L 174.746094 49.140625 L 175.527344 49.140625 L 175.527344 48.59375 C 175.527344 48.242188 175.558594 47.980469 175.621094 47.8125 C 175.703125 47.585938 175.847656 47.402344 176.058594 47.265625 C 176.277344 47.121094 176.578125 47.046875 176.964844 47.046875 C 177.203125 47.046875 177.472656 47.078125 177.777344 47.140625 L 177.652344 47.90625 C 177.464844 47.875 177.285156 47.859375 177.121094 47.859375 C 176.859375 47.859375 176.671875 47.917969 176.558594 48.03125 C 176.453125 48.136719 176.402344 48.34375 176.402344 48.65625 L 176.402344 49.140625 L 177.402344 49.140625 L 177.402344 49.828125 L 176.402344 49.828125 L 176.402344 54.328125 Z M 175.527344 54.328125 "/>
<path style=" stroke:none;fill-rule:nonzero;fill:rgb(0%,0%,0%);fill-opacity:1;" d="M 180.355469 55.074219 L 180.964844 55.152344 C 180.902344 55.570312 180.730469 55.898438 180.449219 56.136719 C 180.175781 56.367188 179.84375 56.480469 179.449219 56.480469 C 178.949219 56.480469 178.546875 56.320312 178.246094 55.996094 C 177.953125 55.675781 177.808594 55.210938 177.808594 54.605469 C 177.808594 54.210938 177.871094 53.867188 177.996094 53.574219 C 178.121094 53.285156 178.3125 53.066406 178.574219 52.917969 C 178.84375 52.761719 179.136719 52.683594 179.449219 52.683594 C 179.84375 52.683594 180.167969 52.789062 180.417969 52.996094 C 180.667969 53.195312 180.828125 53.476562 180.902344 53.839844 L 180.308594 53.933594 C 180.246094 53.683594 180.140625 53.503906 179.996094 53.386719 C 179.859375 53.261719 179.6875 53.199219 179.480469 53.199219 C 179.167969 53.199219 178.910156 53.308594 178.714844 53.527344 C 178.527344 53.746094 178.433594 54.101562 178.433594 54.589844 C 178.433594 55.070312 178.527344 55.425781 178.714844 55.652344 C 178.902344 55.871094 179.144531 55.980469 179.449219 55.980469 C 179.6875 55.980469 179.886719 55.910156 180.042969 55.761719 C 180.207031 55.605469 180.3125 55.378906 180.355469 55.074219 Z M 180.355469 55.074219 "/>
<path style=" stroke:none;fill-rule:nonzero;fill:rgb(0%,0%,0%);fill-opacity:1;" d="M 181.371094 56.402344 L 181.371094 51.386719 L 181.980469 51.386719 L 181.980469 53.183594 C 182.261719 52.851562 182.621094 52.683594 183.058594 52.683594 C 183.328125 52.683594 183.5625 52.742188 183.761719 52.855469 C 183.957031 52.960938 184.097656 53.105469 184.183594 53.292969 C 184.277344 53.480469 184.324219 53.753906 184.324219 54.105469 L 184.324219 56.402344 L 183.699219 56.402344 L 183.699219 54.105469 C 183.699219 53.792969 183.628906 53.570312 183.496094 53.433594 C 183.371094 53.289062 183.183594 53.214844 182.933594 53.214844 C 182.753906 53.214844 182.582031 53.261719 182.417969 53.355469 C 182.261719 53.449219 182.144531 53.582031 182.074219 53.746094 C 182.011719 53.914062 181.980469 54.136719 181.980469 54.417969 L 181.980469 56.402344 Z M 181.371094 56.402344 "/>
<path style=" stroke:none;fill-rule:nonzero;fill:rgb(0%,0%,0%);fill-opacity:1;" d="M 185.125 57.792969 L 185.125 52.777344 L 185.671875 52.777344 L 185.671875 53.246094 C 185.804688 53.058594 185.957031 52.917969 186.125 52.824219 C 186.289062 52.730469 186.492188 52.683594 186.734375 52.683594 C 187.046875 52.683594 187.316406 52.769531 187.546875 52.933594 C 187.785156 53.089844 187.960938 53.316406 188.078125 53.605469 C 188.203125 53.898438 188.265625 54.214844 188.265625 54.558594 C 188.265625 54.933594 188.195312 55.273438 188.0625 55.574219 C 187.9375 55.867188 187.742188 56.089844 187.484375 56.246094 C 187.234375 56.402344 186.96875 56.480469 186.6875 56.480469 C 186.476562 56.480469 186.289062 56.4375 186.125 56.355469 C 185.96875 56.273438 185.835938 56.164062 185.734375 56.027344 L 185.734375 57.792969 Z M 185.671875 54.605469 C 185.671875 55.074219 185.765625 55.425781 185.953125 55.652344 C 186.148438 55.871094 186.378906 55.980469 186.640625 55.980469 C 186.921875 55.980469 187.15625 55.867188 187.34375 55.636719 C 187.539062 55.398438 187.640625 55.039062 187.640625 54.558594 C 187.640625 54.089844 187.539062 53.742188 187.34375 53.511719 C 187.15625 53.285156 186.929688 53.167969 186.671875 53.167969 C 186.410156 53.167969 186.175781 53.292969 185.96875 53.542969 C 185.769531 53.785156 185.671875 54.136719 185.671875 54.605469 Z M 185.671875 54.605469 "/>
<path style=" stroke:none;fill-rule:nonzero;fill:rgb(79.998779%,0%,0%);fill-opacity:1;" d="M 152.878906 10.527344 L 152.878906 6.027344 L 152.097656 6.027344 L 152.097656 5.339844 L 152.878906 5.339844 L 152.878906 4.792969 C 152.878906 4.441406 152.910156 4.179688 152.972656 4.011719 C 153.054688 3.785156 153.199219 3.601562 153.410156 3.464844 C 153.628906 3.320312 153.929688 3.246094 154.316406 3.246094 C 154.554688 3.246094 154.824219 3.277344 155.128906 3.339844 L 155.003906 4.105469 C 154.816406 4.074219 154.636719 4.058594 154.472656 4.058594 C 154.210938 4.058594 154.023438 4.117188 153.910156 4.230469 C 153.804688 4.335938 153.753906 4.542969 153.753906 4.855469 L 153.753906 5.339844 L 154.753906 5.339844 L 154.753906 6.027344 L 153.753906 6.027344 L 153.753906 10.527344 Z M 152.878906 10.527344 "/>
<path style=" stroke:none;fill-rule:nonzero;fill:rgb(79.998779%,0%,0%);fill-opacity:1;" d="M 154.882812 12.605469 L 156.804688 7.589844 L 157.507812 7.589844 L 159.570312 12.605469 Z M 155.789062 12.011719 L 158.585938 12.011719 L 157.492188 9.152344 C 157.335938 8.726562 157.21875 8.382812 157.148438 8.121094 C 157.085938 8.433594 156.992188 8.753906 156.867188 9.074219 Z M 155.789062 12.011719 "/>
<path style=" stroke:none;fill-rule:nonzero;fill:rgb(79.998779%,0%,0%);fill-opacity:1;" d="M 163.296875 7.589844 L 163.296875 8.183594 L 160.609375 8.183594 L 162.328125 10.011719 L 160.609375 12.011719 L 163.4375 12.011719 L 163.4375 12.605469 L 159.890625 12.605469 L 159.890625 11.917969 L 161.53125 10.011719 L 159.890625 8.261719 L 159.890625 7.589844 Z M 163.296875 7.589844 "/>
<path style="fill:none;stroke-width:2.4;stroke-linecap:butt;stroke-linejoin:miter;stroke:rgb(0%,0%,0%);stroke-opacity:1;stroke-miterlimit:4;" d="M 163.851562 59.824219 L 196.152344 59.824219 L 196.152344 26.582031 "/>
<path style="fill:none;stroke-width:1.2;stroke-linecap:butt;stroke-linejoin:miter;stroke:rgb(0%,0%,0%);stroke-opacity:1;stroke-miterlimit:4;" d="M 110.882812 6.628906 L 110.882812 12.949219 "/>
<path style="fill-rule:nonzero;fill:rgb(0%,0%,0%);fill-opacity:1;stroke-width:1.2;stroke-linecap:butt;stroke-linejoin:miter;stroke:rgb(0%,0%,0%);stroke-opacity:1;stroke-miterlimit:4;" d="M 110.882812 13.859375 L 110.285156 12.820312 L 109.683594 11.777344 L 112.085938 11.777344 L 111.484375 12.820312 Z M 110.882812 13.859375 "/>
<path style="fill:none;stroke-width:1.2;stroke-linecap:butt;stroke-linejoin:miter;stroke:rgb(0%,0%,0%);stroke-opacity:1;stroke-miterlimit:4;" d="M 49.109375 50.65625 L 32.375 50.65625 "/>
<path style=" stroke:none;fill-rule:nonzero;fill:rgb(0%,0%,0%);fill-opacity:1;" d="M 2.894531 53.152344 L 0.128906 45.996094 L 1.144531 45.996094 L 3.019531 51.199219 C 3.164062 51.617188 3.289062 52.007812 3.394531 52.371094 C 3.496094 51.976562 3.621094 51.585938 3.769531 51.199219 L 5.707031 45.996094 L 6.675781 45.996094 L 3.878906 53.152344 Z M 2.894531 53.152344 "/>
<path style=" stroke:none;fill-rule:nonzero;fill:rgb(0%,0%,0%);fill-opacity:1;" d="M 7.5625 55.226562 L 7.5625 50.210938 L 9.78125 50.210938 C 10.226562 50.210938 10.566406 50.257812 10.796875 50.351562 C 11.035156 50.445312 11.222656 50.609375 11.359375 50.835938 C 11.503906 51.054688 11.578125 51.304688 11.578125 51.585938 C 11.578125 51.941406 11.457031 52.242188 11.21875 52.492188 C 10.988281 52.734375 10.632812 52.882812 10.15625 52.945312 C 10.332031 53.03125 10.46875 53.113281 10.5625 53.195312 C 10.75 53.375 10.929688 53.597656 11.109375 53.867188 L 11.984375 55.226562 L 11.140625 55.226562 L 10.484375 54.179688 C 10.285156 53.878906 10.125 53.648438 10 53.492188 C 9.875 53.335938 9.757812 53.226562 9.65625 53.164062 C 9.5625 53.101562 9.46875 53.054688 9.375 53.023438 C 9.289062 53.015625 9.164062 53.007812 9 53.007812 L 8.234375 53.007812 L 8.234375 55.226562 Z M 8.234375 52.429688 L 9.65625 52.429688 C 9.957031 52.429688 10.191406 52.398438 10.359375 52.335938 C 10.535156 52.273438 10.664062 52.175781 10.75 52.039062 C 10.84375 51.894531 10.890625 51.742188 10.890625 51.585938 C 10.890625 51.347656 10.800781 51.15625 10.625 51.007812 C 10.457031 50.851562 10.1875 50.773438 9.8125 50.773438 L 8.234375 50.773438 Z M 8.234375 52.429688 "/>
<path style=" stroke:none;fill-rule:nonzero;fill:rgb(0%,0%,0%);fill-opacity:1;" d="M 2.765625 65.710938 L 0 58.554688 L 1.015625 58.554688 L 2.890625 63.757812 C 3.035156 64.175781 3.160156 64.566406 3.265625 64.929688 C 3.367188 64.535156 3.492188 64.144531 3.640625 63.757812 L 5.578125 58.554688 L 6.546875 58.554688 L 3.75 65.710938 Z M 2.765625 65.710938 "/>
<path style=" stroke:none;fill-rule:nonzero;fill:rgb(0%,0%,0%);fill-opacity:1;" d="M 7.542969 62.769531 L 8.199219 62.769531 L 8.199219 67.785156 L 7.542969 67.785156 Z M 7.542969 62.769531 "/>
<path style=" stroke:none;fill-rule:nonzero;fill:rgb(0%,0%,0%);fill-opacity:1;" d="M 9.289062 67.785156 L 9.289062 62.769531 L 9.976562 62.769531 L 12.601562 66.707031 L 12.601562 62.769531 L 13.242188 62.769531 L 13.242188 67.785156 L 12.554688 67.785156 L 9.929688 63.847656 L 9.929688 67.785156 Z M 9.289062 67.785156 "/>
<path style="fill-rule:nonzero;fill:rgb(100%,100%,100%);fill-opacity:1;stroke-width:0.8;stroke-linecap:butt;stroke-linejoin:miter;stroke:rgb(0%,0%,0%);stroke-opacity:1;stroke-miterlimit:4;" d="M 42.886719 44.875 L 51.308594 44.875 L 51.308594 67.445312 L 42.886719 67.445312 Z M 42.886719 44.875 "/>
<path style="fill:none;stroke-width:0.8;stroke-linecap:butt;stroke-linejoin:miter;stroke:rgb(0%,0%,0%);stroke-opacity:1;stroke-miterlimit:4;" d="M 51.308594 67.449219 L 42.886719 44.871094 "/>
<path style="fill:none;stroke-width:0.8;stroke-linecap:butt;stroke-linejoin:miter;stroke:rgb(0%,0%,0%);stroke-opacity:1;stroke-miterlimit:4;" d="M 42.886719 67.449219 L 51.308594 44.871094 "/>
<path style=" stroke:none;fill-rule:nonzero;fill:rgb(0%,0%,0%);fill-opacity:1;" d="M 40.882812 82.671875 L 40.882812 78.171875 L 40.101562 78.171875 L 40.101562 77.484375 L 40.882812 77.484375 L 40.882812 76.9375 C 40.882812 76.585938 40.914062 76.324219 40.976562 76.15625 C 41.058594 75.929688 41.203125 75.746094 41.414062 75.609375 C 41.632812 75.464844 41.933594 75.390625 42.320312 75.390625 C 42.558594 75.390625 42.828125 75.421875 43.132812 75.484375 L 43.007812 76.25 C 42.820312 76.21875 42.640625 76.203125 42.476562 76.203125 C 42.214844 76.203125 42.027344 76.261719 41.914062 76.375 C 41.808594 76.480469 41.757812 76.6875 41.757812 77 L 41.757812 77.484375 L 42.757812 77.484375 L 42.757812 78.171875 L 41.757812 78.171875 L 41.757812 82.671875 Z M 40.882812 82.671875 "/>
<path style=" stroke:none;fill-rule:nonzero;fill:rgb(0%,0%,0%);fill-opacity:1;" d="M 45.714844 83.417969 L 46.324219 83.496094 C 46.261719 83.914062 46.089844 84.242188 45.808594 84.480469 C 45.535156 84.710938 45.203125 84.824219 44.808594 84.824219 C 44.308594 84.824219 43.90625 84.664062 43.605469 84.339844 C 43.3125 84.019531 43.167969 83.554688 43.167969 82.949219 C 43.167969 82.554688 43.230469 82.210938 43.355469 81.917969 C 43.480469 81.628906 43.671875 81.410156 43.933594 81.261719 C 44.203125 81.105469 44.496094 81.027344 44.808594 81.027344 C 45.203125 81.027344 45.527344 81.132812 45.777344 81.339844 C 46.027344 81.539062 46.1875 81.820312 46.261719 82.183594 L 45.667969 82.277344 C 45.605469 82.027344 45.5 81.847656 45.355469 81.730469 C 45.21875 81.605469 45.046875 81.542969 44.839844 81.542969 C 44.527344 81.542969 44.269531 81.652344 44.074219 81.871094 C 43.886719 82.089844 43.792969 82.445312 43.792969 82.933594 C 43.792969 83.414062 43.886719 83.769531 44.074219 83.996094 C 44.261719 84.214844 44.503906 84.324219 44.808594 84.324219 C 45.046875 84.324219 45.246094 84.253906 45.402344 84.105469 C 45.566406 83.949219 45.671875 83.722656 45.714844 83.417969 Z M 45.714844 83.417969 "/>
<path style=" stroke:none;fill-rule:nonzero;fill:rgb(0%,0%,0%);fill-opacity:1;" d="M 46.726562 84.746094 L 46.726562 79.730469 L 47.335938 79.730469 L 47.335938 81.527344 C 47.617188 81.195312 47.976562 81.027344 48.414062 81.027344 C 48.683594 81.027344 48.917969 81.085938 49.117188 81.199219 C 49.3125 81.304688 49.453125 81.449219 49.539062 81.636719 C 49.632812 81.824219 49.679688 82.097656 49.679688 82.449219 L 49.679688 84.746094 L 49.054688 84.746094 L 49.054688 82.449219 C 49.054688 82.136719 48.984375 81.914062 48.851562 81.777344 C 48.726562 81.632812 48.539062 81.558594 48.289062 81.558594 C 48.109375 81.558594 47.9375 81.605469 47.773438 81.699219 C 47.617188 81.792969 47.5 81.925781 47.429688 82.089844 C 47.367188 82.257812 47.335938 82.480469 47.335938 82.761719 L 47.335938 84.746094 Z M 46.726562 84.746094 "/>
<g clip-path="url(#clip1)" clip-rule="nonzero">
<path style=" stroke:none;fill-rule:nonzero;fill:rgb(0%,0%,0%);fill-opacity:1;" d="M 50.484375 86.136719 L 50.484375 81.121094 L 51.03125 81.121094 L 51.03125 81.589844 C 51.164062 81.402344 51.316406 81.261719 51.484375 81.167969 C 51.648438 81.074219 51.851562 81.027344 52.09375 81.027344 C 52.40625 81.027344 52.675781 81.113281 52.90625 81.277344 C 53.144531 81.433594 53.320312 81.660156 53.4375 81.949219 C 53.5625 82.242188 53.625 82.558594 53.625 82.902344 C 53.625 83.277344 53.554688 83.617188 53.421875 83.917969 C 53.296875 84.210938 53.101562 84.433594 52.84375 84.589844 C 52.59375 84.746094 52.328125 84.824219 52.046875 84.824219 C 51.835938 84.824219 51.648438 84.78125 51.484375 84.699219 C 51.328125 84.617188 51.195312 84.507812 51.09375 84.371094 L 51.09375 86.136719 Z M 51.03125 82.949219 C 51.03125 83.417969 51.125 83.769531 51.3125 83.996094 C 51.507812 84.214844 51.738281 84.324219 52 84.324219 C 52.28125 84.324219 52.515625 84.210938 52.703125 83.980469 C 52.898438 83.742188 53 83.382812 53 82.902344 C 53 82.433594 52.898438 82.085938 52.703125 81.855469 C 52.515625 81.628906 52.289062 81.511719 52.03125 81.511719 C 51.769531 81.511719 51.535156 81.636719 51.328125 81.886719 C 51.128906 82.128906 51.03125 82.480469 51.03125 82.949219 Z M 51.03125 82.949219 "/>
</g>
<path style="fill:none;stroke-width:1.2;stroke-linecap:butt;stroke-linejoin:miter;stroke:rgb(0%,0%,0%);stroke-opacity:1;stroke-miterlimit:4;" d="M 47.199219 -77.65625 L 47.199219 -71.339844 " transform="matrix(1,0,0,-1,0,0)"/>
<path style="fill-rule:nonzero;fill:rgb(0%,0%,0%);fill-opacity:1;stroke-width:1.2;stroke-linecap:butt;stroke-linejoin:miter;stroke:rgb(0%,0%,0%);stroke-opacity:1;stroke-miterlimit:4;" d="M 47.199219 -70.429688 L 46.597656 -71.46875 L 46 -72.511719 L 48.402344 -72.511719 L 47.800781 -71.46875 Z M 47.199219 -70.429688 " transform="matrix(1,0,0,-1,0,0)"/>
<path style="fill:none;stroke-width:1.2;stroke-linecap:butt;stroke-linejoin:miter;stroke:rgb(0%,0%,0%);stroke-opacity:1;stroke-miterlimit:4;" d="M 76.652344 27.023438 L 69.65625 27.023438 L 68.8125 28.722656 L 67.273438 25.105469 L 65.683594 28.847656 L 64.179688 25.304688 L 62.726562 28.722656 L 61.292969 25.351562 L 59.851562 28.75 L 58.347656 25.210938 L 57.574219 27.027344 L 49.132812 27.027344 "/>
<path style=" stroke:none;fill-rule:nonzero;fill:rgb(0%,0%,0%);fill-opacity:1;" d="M 77.933594 24.519531 C 76.566406 24.519531 75.457031 25.625 75.457031 26.992188 C 75.457031 28.359375 76.566406 29.46875 77.933594 29.46875 C 79.296875 29.46875 80.40625 28.359375 80.40625 26.992188 C 80.40625 25.625 79.296875 24.519531 77.933594 24.519531 Z M 77.933594 24.519531 "/>
<path style=" stroke:none;fill-rule:nonzero;fill:rgb(0%,0%,0%);fill-opacity:1;" d="M 47.21875 24.550781 C 45.855469 24.550781 44.746094 25.65625 44.746094 27.023438 C 44.746094 28.390625 45.855469 29.5 47.21875 29.5 C 48.585938 29.5 49.695312 28.390625 49.695312 27.023438 C 49.695312 25.65625 48.585938 24.550781 47.21875 24.550781 Z M 47.21875 24.550781 "/>
<path style=" stroke:none;fill-rule:nonzero;fill:rgb(0%,0%,0%);fill-opacity:1;" d="M 198.597656 21.839844 C 198.949219 22.089844 199.335938 22.292969 199.753906 22.449219 L 199.222656 23.464844 C 199.003906 23.402344 198.789062 23.3125 198.582031 23.199219 C 198.539062 23.175781 198.222656 22.964844 197.628906 22.558594 C 197.160156 22.765625 196.636719 22.871094 196.066406 22.871094 C 194.972656 22.871094 194.113281 22.550781 193.488281 21.902344 C 192.863281 21.246094 192.550781 20.335938 192.550781 19.167969 C 192.550781 18.003906 192.863281 17.097656 193.488281 16.449219 C 194.113281 15.792969 194.960938 15.464844 196.035156 15.464844 C 197.097656 15.464844 197.933594 15.792969 198.550781 16.449219 C 199.175781 17.097656 199.488281 18.003906 199.488281 19.167969 C 199.488281 19.785156 199.398438 20.324219 199.222656 20.792969 C 199.097656 21.160156 198.886719 21.507812 198.597656 21.839844 Z M 197.441406 21.027344 C 197.628906 20.808594 197.769531 20.542969 197.863281 20.230469 C 197.957031 19.917969 198.003906 19.566406 198.003906 19.167969 C 198.003906 18.347656 197.820312 17.730469 197.457031 17.324219 C 197.089844 16.910156 196.613281 16.699219 196.019531 16.699219 C 195.425781 16.699219 194.945312 16.910156 194.582031 17.324219 C 194.214844 17.730469 194.035156 18.347656 194.035156 19.167969 C 194.035156 20.003906 194.214844 20.628906 194.582031 21.042969 C 194.945312 21.460938 195.410156 21.667969 195.972656 21.667969 C 196.179688 21.667969 196.378906 21.632812 196.566406 21.558594 C 196.273438 21.371094 195.976562 21.226562 195.675781 21.121094 L 196.082031 20.292969 C 196.550781 20.449219 197.003906 20.695312 197.441406 21.027344 Z M 197.441406 21.027344 "/>
<path style=" stroke:none;fill-rule:nonzero;fill:rgb(0%,0%,0%);fill-opacity:1;" d="M 196.085938 24.46875 C 194.71875 24.46875 193.609375 25.574219 193.609375 26.941406 C 193.609375 28.308594 194.71875 29.417969 196.085938 29.417969 C 197.449219 29.417969 198.558594 28.308594 198.558594 26.941406 C 198.558594 25.574219 197.449219 24.46875 196.085938 24.46875 Z M 196.085938 24.46875 "/>
<path style="fill-rule:evenodd;fill:rgb(100%,100%,100%);fill-opacity:1;stroke-width:1.2;stroke-linecap:butt;stroke-linejoin:miter;stroke:rgb(79.998779%,0%,0%);stroke-opacity:1;stroke-miterlimit:10;" d="M 206.902344 14.316406 L 242.566406 14.316406 L 242.566406 40.417969 L 206.902344 40.417969 Z M 206.902344 14.316406 "/>
<path style="fill-rule:evenodd;fill:rgb(100%,100%,100%);fill-opacity:1;stroke-width:1.2;stroke-linecap:butt;stroke-linejoin:miter;stroke:rgb(0%,0%,0%);stroke-opacity:1;stroke-miterlimit:4;" d="M 15.4375 46.273438 L 15.4375 54.929688 L 28.480469 54.929688 L 32.699219 50.710938 L 28.371094 46.382812 Z M 15.4375 46.273438 "/>
<path style="fill-rule:evenodd;fill:rgb(100%,100%,100%);fill-opacity:1;stroke-width:1.2;stroke-linecap:butt;stroke-linejoin:miter;stroke:rgb(0%,0%,0%);stroke-opacity:1;stroke-miterlimit:4;" d="M 15.4375 58.640625 L 15.4375 67.296875 L 28.480469 67.296875 L 32.699219 63.078125 L 28.371094 58.75 Z M 15.4375 58.640625 "/>
<path style=" stroke:none;fill-rule:nonzero;fill:rgb(79.998779%,0%,0%);fill-opacity:1;" d="M 221.515625 21.808594 L 222.46875 22.058594 C 222.269531 22.832031 221.910156 23.425781 221.390625 23.839844 C 220.878906 24.246094 220.25 24.449219 219.5 24.449219 C 218.726562 24.449219 218.097656 24.292969 217.609375 23.980469 C 217.128906 23.660156 216.765625 23.199219 216.515625 22.605469 C 216.265625 22.011719 216.140625 21.371094 216.140625 20.683594 C 216.140625 19.945312 216.28125 19.300781 216.5625 18.746094 C 216.851562 18.183594 217.257812 17.761719 217.78125 17.480469 C 218.3125 17.191406 218.890625 17.042969 219.515625 17.042969 C 220.234375 17.042969 220.835938 17.226562 221.328125 17.589844 C 221.816406 17.957031 222.15625 18.464844 222.34375 19.121094 L 221.40625 19.355469 C 221.238281 18.835938 221 18.457031 220.6875 18.214844 C 220.375 17.976562 219.976562 17.855469 219.5 17.855469 C 218.945312 17.855469 218.484375 17.992188 218.109375 18.261719 C 217.742188 18.523438 217.484375 18.878906 217.328125 19.324219 C 217.179688 19.761719 217.109375 20.214844 217.109375 20.683594 C 217.109375 21.300781 217.195312 21.835938 217.375 22.292969 C 217.550781 22.742188 217.828125 23.082031 218.203125 23.308594 C 218.578125 23.527344 218.984375 23.636719 219.421875 23.636719 C 219.953125 23.636719 220.398438 23.488281 220.765625 23.183594 C 221.140625 22.871094 221.390625 22.414062 221.515625 21.808594 Z M 221.515625 21.808594 "/>
<path style=" stroke:none;fill-rule:nonzero;fill:rgb(79.998779%,0%,0%);fill-opacity:1;" d="M 224.074219 17.167969 L 225.011719 17.167969 L 225.011719 24.324219 L 224.074219 24.324219 Z M 224.074219 17.167969 "/>
<path style=" stroke:none;fill-rule:nonzero;fill:rgb(79.998779%,0%,0%);fill-opacity:1;" d="M 231.890625 21.808594 L 232.84375 22.058594 C 232.644531 22.832031 232.285156 23.425781 231.765625 23.839844 C 231.253906 24.246094 230.625 24.449219 229.875 24.449219 C 229.101562 24.449219 228.472656 24.292969 227.984375 23.980469 C 227.503906 23.660156 227.140625 23.199219 226.890625 22.605469 C 226.640625 22.011719 226.515625 21.371094 226.515625 20.683594 C 226.515625 19.945312 226.65625 19.300781 226.9375 18.746094 C 227.226562 18.183594 227.632812 17.761719 228.15625 17.480469 C 228.6875 17.191406 229.265625 17.042969 229.890625 17.042969 C 230.609375 17.042969 231.210938 17.226562 231.703125 17.589844 C 232.191406 17.957031 232.53125 18.464844 232.71875 19.121094 L 231.78125 19.355469 C 231.613281 18.835938 231.375 18.457031 231.0625 18.214844 C 230.75 17.976562 230.351562 17.855469 229.875 17.855469 C 229.320312 17.855469 228.859375 17.992188 228.484375 18.261719 C 228.117188 18.523438 227.859375 18.878906 227.703125 19.324219 C 227.554688 19.761719 227.484375 20.214844 227.484375 20.683594 C 227.484375 21.300781 227.570312 21.835938 227.75 22.292969 C 227.925781 22.742188 228.203125 23.082031 228.578125 23.308594 C 228.953125 23.527344 229.359375 23.636719 229.796875 23.636719 C 230.328125 23.636719 230.773438 23.488281 231.140625 23.183594 C 231.515625 22.871094 231.765625 22.414062 231.890625 21.808594 Z M 231.890625 21.808594 "/>
<path style=" stroke:none;fill-rule:nonzero;fill:rgb(79.998779%,0%,0%);fill-opacity:1;" d="M 213.863281 37.292969 L 213.863281 30.136719 L 218.691406 30.136719 L 218.691406 30.980469 L 214.800781 30.980469 L 214.800781 33.199219 L 218.160156 33.199219 L 218.160156 34.042969 L 214.800781 34.042969 L 214.800781 37.292969 Z M 213.863281 37.292969 "/>
<path style=" stroke:none;fill-rule:nonzero;fill:rgb(79.998779%,0%,0%);fill-opacity:1;" d="M 220.050781 31.152344 L 220.050781 30.136719 L 220.925781 30.136719 L 220.925781 31.152344 Z M 220.050781 37.292969 L 220.050781 32.105469 L 220.925781 32.105469 L 220.925781 37.292969 Z M 220.050781 37.292969 "/>
<path style=" stroke:none;fill-rule:nonzero;fill:rgb(79.998779%,0%,0%);fill-opacity:1;" d="M 222.328125 30.136719 L 223.203125 30.136719 L 223.203125 37.292969 L 222.328125 37.292969 Z M 222.328125 30.136719 "/>
<path style=" stroke:none;fill-rule:nonzero;fill:rgb(79.998779%,0%,0%);fill-opacity:1;" d="M 226.578125 36.511719 L 226.703125 37.277344 C 226.453125 37.328125 226.234375 37.355469 226.046875 37.355469 C 225.722656 37.355469 225.472656 37.308594 225.296875 37.214844 C 225.117188 37.113281 224.992188 36.976562 224.921875 36.808594 C 224.859375 36.644531 224.828125 36.300781 224.828125 35.777344 L 224.828125 32.792969 L 224.171875 32.792969 L 224.171875 32.105469 L 224.828125 32.105469 L 224.828125 30.824219 L 225.6875 30.292969 L 225.6875 32.105469 L 226.578125 32.105469 L 226.578125 32.792969 L 225.6875 32.792969 L 225.6875 35.824219 C 225.6875 36.074219 225.703125 36.238281 225.734375 36.308594 C 225.765625 36.382812 225.816406 36.441406 225.890625 36.480469 C 225.960938 36.523438 226.0625 36.542969 226.1875 36.542969 C 226.289062 36.542969 226.421875 36.535156 226.578125 36.511719 Z M 226.578125 36.511719 "/>
<path style=" stroke:none;fill-rule:nonzero;fill:rgb(79.998779%,0%,0%);fill-opacity:1;" d="M 231.082031 35.621094 L 232.003906 35.730469 C 231.855469 36.261719 231.585938 36.679688 231.191406 36.980469 C 230.804688 37.273438 230.316406 37.417969 229.722656 37.417969 C 228.960938 37.417969 228.355469 37.183594 227.910156 36.714844 C 227.460938 36.246094 227.238281 35.589844 227.238281 34.746094 C 227.238281 33.871094 227.460938 33.195312 227.910156 32.714844 C 228.367188 32.238281 228.949219 31.996094 229.660156 31.996094 C 230.355469 31.996094 230.925781 32.230469 231.363281 32.699219 C 231.800781 33.167969 232.019531 33.832031 232.019531 34.683594 C 232.019531 34.738281 232.019531 34.816406 232.019531 34.917969 L 228.160156 34.917969 C 228.191406 35.492188 228.347656 35.929688 228.628906 36.230469 C 228.917969 36.535156 229.285156 36.683594 229.722656 36.683594 C 230.042969 36.683594 230.320312 36.601562 230.550781 36.433594 C 230.777344 36.269531 230.957031 35.996094 231.082031 35.621094 Z M 228.207031 34.199219 L 231.097656 34.199219 C 231.054688 33.761719 230.945312 33.433594 230.769531 33.214844 C 230.488281 32.882812 230.121094 32.714844 229.675781 32.714844 C 229.269531 32.714844 228.929688 32.851562 228.660156 33.121094 C 228.386719 33.394531 228.238281 33.753906 228.207031 34.199219 Z M 228.207031 34.199219 "/>
<path style=" stroke:none;fill-rule:nonzero;fill:rgb(79.998779%,0%,0%);fill-opacity:1;" d="M 233.308594 37.292969 L 233.308594 32.105469 L 234.089844 32.105469 L 234.089844 32.886719 C 234.296875 32.523438 234.484375 32.285156 234.652344 32.167969 C 234.816406 32.054688 235.003906 31.996094 235.214844 31.996094 C 235.515625 31.996094 235.816406 32.089844 236.121094 32.277344 L 235.824219 33.089844 C 235.605469 32.964844 235.386719 32.902344 235.167969 32.902344 C 234.980469 32.902344 234.808594 32.960938 234.652344 33.074219 C 234.496094 33.191406 234.386719 33.351562 234.324219 33.558594 C 234.230469 33.871094 234.183594 34.210938 234.183594 34.574219 L 234.183594 37.292969 Z M 233.308594 37.292969 "/>
<path style=" stroke:none;fill-rule:evenodd;fill:rgb(100%,100%,100%);fill-opacity:1;" d="M 252.917969 22.582031 L 252.917969 31.242188 L 265.960938 31.242188 L 270.179688 27.019531 L 265.851562 22.691406 Z M 252.917969 22.582031 "/>
<g clip-path="url(#clip2)" clip-rule="nonzero">
<path style="fill:none;stroke-width:1.2;stroke-linecap:butt;stroke-linejoin:miter;stroke:rgb(79.998779%,0%,0%);stroke-opacity:1;stroke-miterlimit:4;" d="M 252.917969 22.582031 L 252.917969 31.242188 L 265.960938 31.242188 L 270.179688 27.019531 L 265.851562 22.691406 Z M 252.917969 22.582031 "/>
</g>
<path style=" stroke:none;fill-rule:nonzero;fill:rgb(79.998779%,0%,0%);fill-opacity:1;" d="M 245.585938 15.785156 C 245.585938 14.597656 245.902344 13.671875 246.539062 13.003906 C 247.171875 12.328125 247.996094 11.988281 249.007812 11.988281 C 249.671875 11.988281 250.273438 12.144531 250.804688 12.457031 C 251.335938 12.769531 251.734375 13.214844 252.007812 13.785156 C 252.289062 14.347656 252.429688 14.988281 252.429688 15.707031 C 252.429688 16.425781 252.28125 17.074219 251.992188 17.644531 C 251.699219 18.21875 251.28125 18.65625 250.742188 18.957031 C 250.210938 19.25 249.632812 19.394531 249.007812 19.394531 C 248.328125 19.394531 247.726562 19.234375 247.195312 18.910156 C 246.664062 18.578125 246.261719 18.128906 245.992188 17.566406 C 245.71875 17.003906 245.585938 16.410156 245.585938 15.785156 Z M 246.554688 15.800781 C 246.554688 16.667969 246.789062 17.347656 247.257812 17.847656 C 247.726562 18.339844 248.308594 18.582031 249.007812 18.582031 C 249.714844 18.582031 250.296875 18.332031 250.757812 17.832031 C 251.226562 17.332031 251.460938 16.621094 251.460938 15.691406 C 251.460938 15.109375 251.359375 14.605469 251.164062 14.175781 C 250.964844 13.738281 250.671875 13.402344 250.289062 13.160156 C 249.914062 12.921875 249.492188 12.800781 249.023438 12.800781 C 248.34375 12.800781 247.761719 13.03125 247.273438 13.488281 C 246.792969 13.949219 246.554688 14.71875 246.554688 15.800781 Z M 246.554688 15.800781 "/>
<path style=" stroke:none;fill-rule:nonzero;fill:rgb(79.998779%,0%,0%);fill-opacity:1;" d="M 257.230469 19.269531 L 257.230469 18.503906 C 256.824219 19.097656 256.269531 19.394531 255.574219 19.394531 C 255.269531 19.394531 254.984375 19.335938 254.714844 19.222656 C 254.453125 19.097656 254.253906 18.949219 254.121094 18.769531 C 253.996094 18.59375 253.90625 18.375 253.855469 18.113281 C 253.824219 17.949219 253.808594 17.675781 253.808594 17.300781 L 253.808594 14.082031 L 254.683594 14.082031 L 254.683594 16.957031 C 254.683594 17.417969 254.703125 17.730469 254.746094 17.894531 C 254.796875 18.125 254.910156 18.308594 255.089844 18.441406 C 255.265625 18.566406 255.488281 18.628906 255.761719 18.628906 C 256.019531 18.628906 256.265625 18.5625 256.496094 18.425781 C 256.722656 18.292969 256.886719 18.109375 256.980469 17.878906 C 257.082031 17.640625 257.136719 17.300781 257.136719 16.863281 L 257.136719 14.082031 L 258.011719 14.082031 L 258.011719 19.269531 Z M 257.230469 19.269531 "/>
<path style=" stroke:none;fill-rule:nonzero;fill:rgb(79.998779%,0%,0%);fill-opacity:1;" d="M 261.519531 18.488281 L 261.644531 19.253906 C 261.394531 19.304688 261.175781 19.332031 260.988281 19.332031 C 260.664062 19.332031 260.414062 19.285156 260.238281 19.191406 C 260.058594 19.089844 259.933594 18.953125 259.863281 18.785156 C 259.800781 18.621094 259.769531 18.277344 259.769531 17.753906 L 259.769531 14.769531 L 259.113281 14.769531 L 259.113281 14.082031 L 259.769531 14.082031 L 259.769531 12.800781 L 260.628906 12.269531 L 260.628906 14.082031 L 261.519531 14.082031 L 261.519531 14.769531 L 260.628906 14.769531 L 260.628906 17.800781 C 260.628906 18.050781 260.644531 18.214844 260.675781 18.285156 C 260.707031 18.359375 260.757812 18.417969 260.832031 18.457031 C 260.902344 18.5 261.003906 18.519531 261.128906 18.519531 C 261.230469 18.519531 261.363281 18.511719 261.519531 18.488281 Z M 261.519531 18.488281 "/>
<path style=" stroke:none;fill-rule:nonzero;fill:rgb(79.998779%,0%,0%);fill-opacity:1;" d="M 264.648438 20.015625 L 265.257812 20.09375 C 265.195312 20.511719 265.023438 20.839844 264.742188 21.078125 C 264.46875 21.308594 264.136719 21.421875 263.742188 21.421875 C 263.242188 21.421875 262.839844 21.261719 262.539062 20.9375 C 262.246094 20.617188 262.101562 20.152344 262.101562 19.546875 C 262.101562 19.152344 262.164062 18.808594 262.289062 18.515625 C 262.414062 18.226562 262.605469 18.007812 262.867188 17.859375 C 263.136719 17.703125 263.429688 17.625 263.742188 17.625 C 264.136719 17.625 264.460938 17.730469 264.710938 17.9375 C 264.960938 18.136719 265.121094 18.417969 265.195312 18.78125 L 264.601562 18.875 C 264.539062 18.625 264.433594 18.445312 264.289062 18.328125 C 264.152344 18.203125 263.980469 18.140625 263.773438 18.140625 C 263.460938 18.140625 263.203125 18.25 263.007812 18.46875 C 262.820312 18.6875 262.726562 19.042969 262.726562 19.53125 C 262.726562 20.011719 262.820312 20.367188 263.007812 20.59375 C 263.195312 20.8125 263.4375 20.921875 263.742188 20.921875 C 263.980469 20.921875 264.179688 20.851562 264.335938 20.703125 C 264.5 20.546875 264.605469 20.320312 264.648438 20.015625 Z M 264.648438 20.015625 "/>
<path style=" stroke:none;fill-rule:nonzero;fill:rgb(79.998779%,0%,0%);fill-opacity:1;" d="M 265.648438 16.328125 L 266.257812 16.328125 L 266.257812 21.34375 L 265.648438 21.34375 Z M 265.648438 16.328125 "/>
<path style=" stroke:none;fill-rule:nonzero;fill:rgb(79.998779%,0%,0%);fill-opacity:1;" d="M 267.164062 21.34375 L 267.164062 16.328125 L 267.773438 16.328125 L 267.773438 19.1875 L 269.226562 17.71875 L 270.023438 17.71875 L 268.632812 19.0625 L 270.164062 21.34375 L 269.414062 21.34375 L 268.210938 19.484375 L 267.773438 19.90625 L 267.773438 21.34375 Z M 267.164062 21.34375 "/>
<path style=" stroke:none;fill-rule:nonzero;fill:rgb(0%,0%,0%);fill-opacity:1;" d="M 157.070312 33.65625 C 157.070312 32.203125 155.835938 30.875 154.570312 30.6875 L 154.570312 28.671875 L 153.414062 28.671875 L 153.414062 30.6875 C 152.164062 30.875 150.914062 32.203125 150.914062 33.65625 C 150.914062 35.109375 152.164062 36.4375 153.414062 36.625 L 153.414062 38.90625 L 154.570312 38.90625 L 154.570312 36.625 C 155.835938 36.4375 157.070312 35.109375 157.070312 33.65625 Z M 155.929688 33.65625 C 155.929688 34.640625 155.351562 35.3125 154.570312 35.46875 L 154.570312 31.84375 C 155.351562 32 155.929688 32.671875 155.929688 33.65625 Z M 153.414062 31.6875 L 153.414062 35.46875 C 152.632812 35.3125 152.070312 34.640625 152.070312 33.65625 C 152.070312 32.671875 152.632812 32 153.414062 31.84375 Z M 153.414062 31.6875 "/>
<path style=" stroke:none;fill-rule:nonzero;fill:rgb(0%,0%,0%);fill-opacity:1;" d="M 157.628906 38.589844 L 159.550781 33.574219 L 160.253906 33.574219 L 162.316406 38.589844 Z M 158.535156 37.996094 L 161.332031 37.996094 L 160.238281 35.136719 C 160.082031 34.710938 159.964844 34.367188 159.894531 34.105469 C 159.832031 34.417969 159.738281 34.738281 159.613281 35.058594 Z M 158.535156 37.996094 "/>
<path style=" stroke:none;fill-rule:nonzero;fill:rgb(0%,0%,0%);fill-opacity:1;" d="M 89.574219 27.46875 L 89.574219 26.796875 L 91.996094 26.796875 L 91.996094 28.921875 C 91.628906 29.214844 91.25 29.4375 90.855469 29.59375 C 90.457031 29.738281 90.050781 29.8125 89.636719 29.8125 C 89.074219 29.8125 88.558594 29.695312 88.089844 29.453125 C 87.628906 29.214844 87.28125 28.867188 87.042969 28.40625 C 86.8125 27.949219 86.699219 27.4375 86.699219 26.875 C 86.699219 26.324219 86.8125 25.808594 87.042969 25.328125 C 87.28125 24.839844 87.621094 24.480469 88.058594 24.25 C 88.496094 24.011719 89 23.890625 89.574219 23.890625 C 89.988281 23.890625 90.363281 23.960938 90.699219 24.09375 C 91.03125 24.230469 91.292969 24.417969 91.480469 24.65625 C 91.667969 24.898438 91.8125 25.210938 91.917969 25.59375 L 91.230469 25.78125 C 91.144531 25.492188 91.035156 25.261719 90.902344 25.09375 C 90.777344 24.929688 90.59375 24.796875 90.355469 24.703125 C 90.125 24.601562 89.863281 24.546875 89.574219 24.546875 C 89.230469 24.546875 88.925781 24.601562 88.667969 24.703125 C 88.417969 24.808594 88.214844 24.949219 88.058594 25.125 C 87.910156 25.292969 87.792969 25.480469 87.699219 25.6875 C 87.550781 26.042969 87.480469 26.421875 87.480469 26.828125 C 87.480469 27.339844 87.566406 27.765625 87.746094 28.109375 C 87.921875 28.453125 88.175781 28.710938 88.511719 28.875 C 88.855469 29.042969 89.214844 29.125 89.589844 29.125 C 89.910156 29.125 90.230469 29.0625 90.542969 28.9375 C 90.855469 28.8125 91.09375 28.679688 91.261719 28.53125 L 91.261719 27.46875 Z M 89.574219 27.46875 "/>
<path style=" stroke:none;fill-rule:nonzero;fill:rgb(0%,0%,0%);fill-opacity:1;" d="M 93.296875 29.71875 L 93.296875 25.5625 L 93.921875 25.5625 L 93.921875 26.15625 C 94.054688 25.949219 94.226562 25.78125 94.4375 25.65625 C 94.65625 25.53125 94.90625 25.46875 95.1875 25.46875 C 95.488281 25.46875 95.738281 25.539062 95.9375 25.671875 C 96.132812 25.796875 96.273438 25.976562 96.359375 26.203125 C 96.679688 25.714844 97.109375 25.46875 97.640625 25.46875 C 98.046875 25.46875 98.359375 25.585938 98.578125 25.8125 C 98.804688 26.042969 98.921875 26.398438 98.921875 26.875 L 98.921875 29.71875 L 98.21875 29.71875 L 98.21875 27.109375 C 98.21875 26.828125 98.191406 26.625 98.140625 26.5 C 98.097656 26.375 98.015625 26.277344 97.890625 26.203125 C 97.773438 26.121094 97.640625 26.078125 97.484375 26.078125 C 97.191406 26.078125 96.945312 26.179688 96.75 26.375 C 96.5625 26.574219 96.46875 26.886719 96.46875 27.3125 L 96.46875 29.71875 L 95.765625 29.71875 L 95.765625 27.015625 C 95.765625 26.703125 95.707031 26.46875 95.59375 26.3125 C 95.476562 26.15625 95.289062 26.078125 95.03125 26.078125 C 94.832031 26.078125 94.644531 26.132812 94.46875 26.234375 C 94.300781 26.339844 94.179688 26.496094 94.109375 26.703125 C 94.035156 26.902344 94 27.1875 94 27.5625 L 94 29.71875 Z M 93.296875 29.71875 "/>
<path style=" stroke:none;fill-rule:nonzero;fill:rgb(0%,0%,0%);fill-opacity:1;" d="M 138.011719 67.105469 L 140.464844 63.371094 L 138.246094 59.949219 L 139.933594 59.949219 L 141.371094 62.246094 L 142.777344 59.949219 L 144.449219 59.949219 L 142.214844 63.417969 L 144.667969 67.105469 L 142.917969 67.105469 L 141.339844 64.636719 L 139.746094 67.105469 Z M 138.011719 67.105469 "/>
<path style="fill-rule:evenodd;fill:rgb(100%,100%,100%);fill-opacity:1;stroke-width:1.2;stroke-linecap:butt;stroke-linejoin:miter;stroke:rgb(0%,0%,0%);stroke-opacity:1;stroke-miterlimit:4;" d="M 234.015625 55.519531 L 234.015625 64.175781 L 247.058594 64.175781 L 251.277344 59.957031 L 246.949219 55.628906 Z M 234.015625 55.519531 "/>
<path style=" stroke:none;fill-rule:nonzero;fill:rgb(0%,0%,0%);fill-opacity:1;" d="M 228.988281 48.863281 C 228.988281 47.675781 229.304688 46.75 229.941406 46.082031 C 230.574219 45.40625 231.398438 45.066406 232.410156 45.066406 C 233.074219 45.066406 233.675781 45.222656 234.207031 45.535156 C 234.738281 45.847656 235.136719 46.292969 235.410156 46.863281 C 235.691406 47.425781 235.832031 48.066406 235.832031 48.785156 C 235.832031 49.503906 235.683594 50.152344 235.394531 50.722656 C 235.101562 51.296875 234.683594 51.734375 234.144531 52.035156 C 233.613281 52.328125 233.035156 52.472656 232.410156 52.472656 C 231.730469 52.472656 231.128906 52.3125 230.597656 51.988281 C 230.066406 51.65625 229.664062 51.207031 229.394531 50.644531 C 229.121094 50.082031 228.988281 49.488281 228.988281 48.863281 Z M 229.957031 48.878906 C 229.957031 49.746094 230.191406 50.425781 230.660156 50.925781 C 231.128906 51.417969 231.710938 51.660156 232.410156 51.660156 C 233.117188 51.660156 233.699219 51.410156 234.160156 50.910156 C 234.628906 50.410156 234.863281 49.699219 234.863281 48.769531 C 234.863281 48.1875 234.761719 47.683594 234.566406 47.253906 C 234.367188 46.816406 234.074219 46.480469 233.691406 46.238281 C 233.316406 46 232.894531 45.878906 232.425781 45.878906 C 231.746094 45.878906 231.164062 46.109375 230.675781 46.566406 C 230.195312 47.027344 229.957031 47.796875 229.957031 48.878906 Z M 229.957031 48.878906 "/>
<path style=" stroke:none;fill-rule:nonzero;fill:rgb(0%,0%,0%);fill-opacity:1;" d="M 240.632812 52.347656 L 240.632812 51.582031 C 240.226562 52.175781 239.671875 52.472656 238.976562 52.472656 C 238.671875 52.472656 238.386719 52.414062 238.117188 52.300781 C 237.855469 52.175781 237.65625 52.027344 237.523438 51.847656 C 237.398438 51.671875 237.308594 51.453125 237.257812 51.191406 C 237.226562 51.027344 237.210938 50.753906 237.210938 50.378906 L 237.210938 47.160156 L 238.085938 47.160156 L 238.085938 50.035156 C 238.085938 50.496094 238.105469 50.808594 238.148438 50.972656 C 238.199219 51.203125 238.3125 51.386719 238.492188 51.519531 C 238.667969 51.644531 238.890625 51.707031 239.164062 51.707031 C 239.421875 51.707031 239.667969 51.640625 239.898438 51.503906 C 240.125 51.371094 240.289062 51.1875 240.382812 50.957031 C 240.484375 50.71875 240.539062 50.378906 240.539062 49.941406 L 240.539062 47.160156 L 241.414062 47.160156 L 241.414062 52.347656 Z M 240.632812 52.347656 "/>
<path style=" stroke:none;fill-rule:nonzero;fill:rgb(0%,0%,0%);fill-opacity:1;" d="M 244.921875 51.566406 L 245.046875 52.332031 C 244.796875 52.382812 244.578125 52.410156 244.390625 52.410156 C 244.066406 52.410156 243.816406 52.363281 243.640625 52.269531 C 243.460938 52.167969 243.335938 52.03125 243.265625 51.863281 C 243.203125 51.699219 243.171875 51.355469 243.171875 50.832031 L 243.171875 47.847656 L 242.515625 47.847656 L 242.515625 47.160156 L 243.171875 47.160156 L 243.171875 45.878906 L 244.03125 45.347656 L 244.03125 47.160156 L 244.921875 47.160156 L 244.921875 47.847656 L 244.03125 47.847656 L 244.03125 50.878906 C 244.03125 51.128906 244.046875 51.292969 244.078125 51.363281 C 244.109375 51.4375 244.160156 51.496094 244.234375 51.535156 C 244.304688 51.578125 244.40625 51.597656 244.53125 51.597656 C 244.632812 51.597656 244.765625 51.589844 244.921875 51.566406 Z M 244.921875 51.566406 "/>
<path style=" stroke:none;fill-rule:nonzero;fill:rgb(0%,0%,0%);fill-opacity:1;" d="M 245.441406 53.347656 L 246.050781 53.253906 C 246.082031 53.496094 246.175781 53.683594 246.332031 53.816406 C 246.488281 53.941406 246.707031 54.003906 246.988281 54.003906 C 247.269531 54.003906 247.476562 53.949219 247.613281 53.832031 C 247.746094 53.71875 247.816406 53.582031 247.816406 53.425781 C 247.816406 53.292969 247.757812 53.183594 247.644531 53.097656 C 247.558594 53.046875 247.347656 52.980469 247.003906 52.894531 C 246.554688 52.78125 246.242188 52.683594 246.066406 52.597656 C 245.898438 52.515625 245.769531 52.402344 245.675781 52.253906 C 245.582031 52.097656 245.535156 51.933594 245.535156 51.753906 C 245.535156 51.597656 245.570312 51.453125 245.644531 51.316406 C 245.726562 51.171875 245.832031 51.058594 245.957031 50.972656 C 246.050781 50.902344 246.179688 50.839844 246.347656 50.785156 C 246.511719 50.734375 246.691406 50.707031 246.878906 50.707031 C 247.160156 50.707031 247.410156 50.75 247.628906 50.832031 C 247.847656 50.917969 248.003906 51.03125 248.097656 51.175781 C 248.199219 51.3125 248.273438 51.5 248.316406 51.738281 L 247.707031 51.816406 C 247.683594 51.628906 247.605469 51.484375 247.472656 51.378906 C 247.347656 51.277344 247.164062 51.222656 246.925781 51.222656 C 246.644531 51.222656 246.441406 51.269531 246.316406 51.363281 C 246.191406 51.457031 246.128906 51.566406 246.128906 51.691406 C 246.128906 51.765625 246.152344 51.839844 246.207031 51.910156 C 246.257812 51.972656 246.335938 52.027344 246.441406 52.066406 C 246.503906 52.089844 246.683594 52.140625 246.988281 52.222656 C 247.425781 52.339844 247.726562 52.433594 247.894531 52.503906 C 248.070312 52.578125 248.207031 52.6875 248.300781 52.832031 C 248.402344 52.980469 248.457031 53.15625 248.457031 53.363281 C 248.457031 53.5625 248.394531 53.753906 248.269531 53.941406 C 248.152344 54.121094 247.980469 54.261719 247.753906 54.363281 C 247.523438 54.457031 247.269531 54.503906 246.988281 54.503906 C 246.519531 54.503906 246.160156 54.410156 245.910156 54.222656 C 245.660156 54.027344 245.503906 53.734375 245.441406 53.347656 Z M 245.441406 53.347656 "/>
<path style=" stroke:none;fill-rule:nonzero;fill:rgb(0%,0%,0%);fill-opacity:1;" d="M 251.546875 53.253906 L 252.171875 53.332031 C 252.078125 53.707031 251.894531 54 251.625 54.207031 C 251.351562 54.40625 251.003906 54.503906 250.578125 54.503906 C 250.046875 54.503906 249.625 54.34375 249.3125 54.019531 C 249 53.6875 248.84375 53.230469 248.84375 52.644531 C 248.84375 52.03125 249 51.558594 249.3125 51.222656 C 249.632812 50.878906 250.046875 50.707031 250.546875 50.707031 C 251.035156 50.707031 251.429688 50.875 251.734375 51.207031 C 252.046875 51.542969 252.203125 52.003906 252.203125 52.597656 C 252.203125 52.640625 252.195312 52.699219 252.1875 52.769531 L 249.484375 52.769531 C 249.503906 53.167969 249.613281 53.472656 249.8125 53.691406 C 250.019531 53.902344 250.273438 54.003906 250.578125 54.003906 C 250.804688 54.003906 251 53.949219 251.15625 53.832031 C 251.320312 53.707031 251.453125 53.515625 251.546875 53.253906 Z M 249.515625 52.269531 L 251.546875 52.269531 C 251.515625 51.957031 251.4375 51.730469 251.3125 51.582031 C 251.113281 51.34375 250.859375 51.222656 250.546875 51.222656 C 250.265625 51.222656 250.023438 51.316406 249.828125 51.503906 C 249.640625 51.691406 249.535156 51.949219 249.515625 52.269531 Z M 249.515625 52.269531 "/>
<path style=" stroke:none;fill-rule:nonzero;fill:rgb(0%,0%,0%);fill-opacity:1;" d="M 252.804688 49.410156 L 253.414062 49.410156 L 253.414062 54.425781 L 252.804688 54.425781 Z M 252.804688 49.410156 "/>
<path style=" stroke:none;fill-rule:nonzero;fill:rgb(0%,0%,0%);fill-opacity:1;" d="M 254.460938 54.425781 L 254.460938 51.269531 L 253.914062 51.269531 L 253.914062 50.800781 L 254.460938 50.800781 L 254.460938 50.410156 C 254.460938 50.171875 254.480469 49.988281 254.523438 49.863281 C 254.585938 49.707031 254.6875 49.582031 254.835938 49.488281 C 254.980469 49.386719 255.1875 49.332031 255.460938 49.332031 C 255.636719 49.332031 255.828125 49.355469 256.039062 49.394531 L 255.945312 49.925781 C 255.820312 49.90625 255.699219 49.894531 255.585938 49.894531 C 255.398438 49.894531 255.261719 49.9375 255.179688 50.019531 C 255.105469 50.09375 255.070312 50.238281 255.070312 50.457031 L 255.070312 50.800781 L 255.773438 50.800781 L 255.773438 51.269531 L 255.070312 51.269531 L 255.070312 54.425781 Z M 254.460938 54.425781 "/>
<path style=" stroke:none;fill-rule:nonzero;fill:rgb(0%,0%,0%);fill-opacity:1;" d="M 196.238281 57.304688 C 194.871094 57.304688 193.761719 58.410156 193.761719 59.777344 C 193.761719 61.144531 194.871094 62.253906 196.238281 62.253906 C 197.605469 62.253906 198.710938 61.144531 198.710938 59.777344 C 198.710938 58.410156 197.605469 57.304688 196.238281 57.304688 Z M 196.238281 57.304688 "/>
<path style="fill-rule:nonzero;fill:rgb(100%,100%,100%);fill-opacity:1;stroke-width:1.202182;stroke-linecap:butt;stroke-linejoin:miter;stroke:rgb(0%,0%,0%);stroke-opacity:1;stroke-miterlimit:4;" d="M 226.550781 59.877391 L 219.453125 63.974286 L 212.359375 68.075101 L 212.359375 51.683602 L 219.453125 55.780497 Z M 226.550781 59.877391 " transform="matrix(1,0,0,0.996372,0,0)"/>
<path style=" stroke:none;fill-rule:nonzero;fill:rgb(0%,0%,0%);fill-opacity:1;" d="M 37.101562 30.839844 L 39.867188 27.105469 L 37.429688 23.683594 L 38.554688 23.683594 L 39.851562 25.511719 C 40.121094 25.898438 40.3125 26.195312 40.429688 26.402344 C 40.585938 26.144531 40.773438 25.867188 40.992188 25.574219 L 42.429688 23.683594 L 43.460938 23.683594 L 40.945312 27.058594 L 43.664062 30.839844 L 42.492188 30.839844 L 40.695312 28.292969 C 40.589844 28.136719 40.484375 27.976562 40.382812 27.808594 C 40.214844 28.070312 40.101562 28.246094 40.039062 28.339844 L 38.242188 30.839844 Z M 37.101562 30.839844 "/>
<path style=" stroke:none;fill-rule:nonzero;fill:rgb(0%,0%,0%);fill-opacity:1;" d="M 73.046875 21.125 L 70.28125 13.96875 L 71.296875 13.96875 L 73.171875 19.171875 C 73.316406 19.589844 73.441406 19.980469 73.546875 20.34375 C 73.648438 19.949219 73.773438 19.558594 73.921875 19.171875 L 75.859375 13.96875 L 76.828125 13.96875 L 74.03125 21.125 Z M 73.046875 21.125 "/>
<path style=" stroke:none;fill-rule:nonzero;fill:rgb(0%,0%,0%);fill-opacity:1;" d="M 80.058594 21.230469 L 80.058594 20.652344 L 82.167969 20.636719 L 82.167969 22.496094 C 81.84375 22.757812 81.511719 22.957031 81.167969 23.089844 C 80.824219 23.214844 80.46875 23.277344 80.105469 23.277344 C 79.605469 23.277344 79.152344 23.175781 78.746094 22.964844 C 78.347656 22.757812 78.046875 22.457031 77.839844 22.058594 C 77.640625 21.652344 77.542969 21.207031 77.542969 20.714844 C 77.542969 20.226562 77.640625 19.773438 77.839844 19.355469 C 78.046875 18.929688 78.34375 18.617188 78.730469 18.417969 C 79.113281 18.210938 79.550781 18.105469 80.042969 18.105469 C 80.40625 18.105469 80.734375 18.164062 81.027344 18.277344 C 81.316406 18.394531 81.546875 18.558594 81.714844 18.777344 C 81.878906 18.988281 82.011719 19.257812 82.105469 19.589844 L 81.496094 19.746094 C 81.421875 19.496094 81.328125 19.300781 81.214844 19.152344 C 81.109375 19.007812 80.953125 18.894531 80.746094 18.808594 C 80.535156 18.714844 80.308594 18.667969 80.058594 18.667969 C 79.753906 18.667969 79.488281 18.714844 79.261719 18.808594 C 79.042969 18.902344 78.863281 19.027344 78.730469 19.183594 C 78.59375 19.332031 78.488281 19.492188 78.417969 19.667969 C 78.292969 19.980469 78.230469 20.320312 78.230469 20.683594 C 78.230469 21.121094 78.300781 21.492188 78.449219 21.792969 C 78.605469 22.097656 78.828125 22.320312 79.121094 22.464844 C 79.421875 22.613281 79.734375 22.683594 80.058594 22.683594 C 80.347656 22.683594 80.628906 22.632812 80.902344 22.527344 C 81.171875 22.414062 81.378906 22.292969 81.527344 22.167969 L 81.527344 21.230469 Z M 80.058594 21.230469 "/>
<path style=" stroke:none;fill-rule:nonzero;fill:rgb(0%,0%,0%);fill-opacity:1;" d="M 64.894531 69.429688 L 65.847656 69.679688 C 65.648438 70.453125 65.289062 71.046875 64.769531 71.460938 C 64.257812 71.867188 63.628906 72.070312 62.878906 72.070312 C 62.105469 72.070312 61.476562 71.914062 60.988281 71.601562 C 60.507812 71.28125 60.144531 70.820312 59.894531 70.226562 C 59.644531 69.632812 59.519531 68.992188 59.519531 68.304688 C 59.519531 67.566406 59.660156 66.921875 59.941406 66.367188 C 60.230469 65.804688 60.636719 65.382812 61.160156 65.101562 C 61.691406 64.8125 62.269531 64.664062 62.894531 64.664062 C 63.613281 64.664062 64.214844 64.847656 64.707031 65.210938 C 65.195312 65.578125 65.535156 66.085938 65.722656 66.742188 L 64.785156 66.976562 C 64.617188 66.457031 64.378906 66.078125 64.066406 65.835938 C 63.753906 65.597656 63.355469 65.476562 62.878906 65.476562 C 62.324219 65.476562 61.863281 65.613281 61.488281 65.882812 C 61.121094 66.144531 60.863281 66.5 60.707031 66.945312 C 60.558594 67.382812 60.488281 67.835938 60.488281 68.304688 C 60.488281 68.921875 60.574219 69.457031 60.753906 69.914062 C 60.929688 70.363281 61.207031 70.703125 61.582031 70.929688 C 61.957031 71.148438 62.363281 71.257812 62.800781 71.257812 C 63.332031 71.257812 63.777344 71.109375 64.144531 70.804688 C 64.519531 70.492188 64.769531 70.035156 64.894531 69.429688 Z M 64.894531 69.429688 "/>
<path style=" stroke:none;fill-rule:nonzero;fill:rgb(0%,0%,0%);fill-opacity:1;" d="M 67.175781 69.007812 L 67.832031 69.007812 L 67.832031 74.023438 L 67.175781 74.023438 Z M 67.175781 69.007812 "/>
<path style=" stroke:none;fill-rule:nonzero;fill:rgb(0%,0%,0%);fill-opacity:1;" d="M 68.921875 74.023438 L 68.921875 69.007812 L 69.609375 69.007812 L 72.234375 72.945312 L 72.234375 69.007812 L 72.875 69.007812 L 72.875 74.023438 L 72.1875 74.023438 L 69.5625 70.085938 L 69.5625 74.023438 Z M 68.921875 74.023438 "/>
<path style=" stroke:none;fill-rule:nonzero;fill:rgb(0%,0%,0%);fill-opacity:1;" d="M 89.789062 69.835938 L 90.742188 70.085938 C 90.542969 70.859375 90.183594 71.453125 89.664062 71.867188 C 89.152344 72.273438 88.523438 72.476562 87.773438 72.476562 C 87 72.476562 86.371094 72.320312 85.882812 72.007812 C 85.402344 71.6875 85.039062 71.226562 84.789062 70.632812 C 84.539062 70.039062 84.414062 69.398438 84.414062 68.710938 C 84.414062 67.972656 84.554688 67.328125 84.835938 66.773438 C 85.125 66.210938 85.53125 65.789062 86.054688 65.507812 C 86.585938 65.21875 87.164062 65.070312 87.789062 65.070312 C 88.507812 65.070312 89.109375 65.253906 89.601562 65.617188 C 90.089844 65.984375 90.429688 66.492188 90.617188 67.148438 L 89.679688 67.382812 C 89.511719 66.863281 89.273438 66.484375 88.960938 66.242188 C 88.648438 66.003906 88.25 65.882812 87.773438 65.882812 C 87.21875 65.882812 86.757812 66.019531 86.382812 66.289062 C 86.015625 66.550781 85.757812 66.90625 85.601562 67.351562 C 85.453125 67.789062 85.382812 68.242188 85.382812 68.710938 C 85.382812 69.328125 85.46875 69.863281 85.648438 70.320312 C 85.824219 70.769531 86.101562 71.109375 86.476562 71.335938 C 86.851562 71.554688 87.257812 71.664062 87.695312 71.664062 C 88.226562 71.664062 88.671875 71.515625 89.039062 71.210938 C 89.414062 70.898438 89.664062 70.441406 89.789062 69.835938 Z M 89.789062 69.835938 "/>
<path style=" stroke:none;fill-rule:nonzero;fill:rgb(0%,0%,0%);fill-opacity:1;" d="M 91.988281 74.425781 L 91.988281 69.410156 L 95.363281 69.410156 L 95.363281 70.003906 L 92.644531 70.003906 L 92.644531 71.550781 L 95.003906 71.550781 L 95.003906 72.144531 L 92.644531 72.144531 L 92.644531 74.425781 Z M 91.988281 74.425781 "/>
<path style=" stroke:none;fill-rule:nonzero;fill:rgb(0%,0%,0%);fill-opacity:1;" d="M 96.050781 74.425781 L 96.050781 69.410156 L 97.925781 69.410156 C 98.308594 69.410156 98.617188 69.464844 98.847656 69.566406 C 99.074219 69.671875 99.253906 69.828125 99.378906 70.035156 C 99.511719 70.246094 99.582031 70.464844 99.582031 70.691406 C 99.582031 70.910156 99.523438 71.113281 99.410156 71.300781 C 99.292969 71.488281 99.121094 71.640625 98.894531 71.753906 C 99.195312 71.847656 99.425781 72.003906 99.582031 72.222656 C 99.746094 72.433594 99.832031 72.683594 99.832031 72.972656 C 99.832031 73.214844 99.777344 73.433594 99.675781 73.628906 C 99.582031 73.828125 99.460938 73.984375 99.316406 74.097656 C 99.167969 74.203125 98.988281 74.285156 98.769531 74.347656 C 98.550781 74.402344 98.277344 74.425781 97.957031 74.425781 Z M 96.707031 71.519531 L 97.800781 71.519531 C 98.089844 71.519531 98.300781 71.5 98.425781 71.457031 C 98.589844 71.417969 98.714844 71.339844 98.800781 71.222656 C 98.894531 71.097656 98.941406 70.949219 98.941406 70.769531 C 98.941406 70.605469 98.898438 70.457031 98.816406 70.332031 C 98.730469 70.207031 98.617188 70.125 98.472656 70.082031 C 98.324219 70.03125 98.070312 70.003906 97.707031 70.003906 L 96.707031 70.003906 Z M 96.707031 73.832031 L 97.957031 73.832031 C 98.175781 73.832031 98.324219 73.828125 98.410156 73.816406 C 98.566406 73.785156 98.691406 73.738281 98.785156 73.675781 C 98.886719 73.613281 98.972656 73.519531 99.035156 73.394531 C 99.105469 73.269531 99.144531 73.128906 99.144531 72.972656 C 99.144531 72.785156 99.097656 72.625 99.003906 72.488281 C 98.910156 72.355469 98.773438 72.261719 98.597656 72.207031 C 98.429688 72.144531 98.183594 72.113281 97.863281 72.113281 L 96.707031 72.113281 Z M 96.707031 73.832031 "/>
<path style="fill:none;stroke-width:1.2;stroke-linecap:butt;stroke-linejoin:miter;stroke:rgb(0%,0%,0%);stroke-opacity:1;stroke-miterlimit:4;" d="M 115.773438 55.707031 L 115.773438 75.246094 "/>
<path style="fill:none;stroke-width:1.2;stroke-linecap:round;stroke-linejoin:miter;stroke:rgb(0%,0%,0%);stroke-opacity:1;stroke-miterlimit:4;" d="M -121.628906 75.78125 L -109.816406 75.78125 " transform="matrix(-1,0,0,1,0,0)"/>
<path style="fill:none;stroke-width:1.2;stroke-linecap:round;stroke-linejoin:miter;stroke:rgb(0%,0%,0%);stroke-opacity:1;stroke-miterlimit:4;" d="M -118.957031 79.417969 L -112.488281 79.417969 " transform="matrix(-1,0,0,1,0,0)"/>
<path style="fill:none;stroke-width:1.2;stroke-linecap:round;stroke-linejoin:miter;stroke:rgb(0%,0%,0%);stroke-opacity:1;stroke-miterlimit:4;" d="M -116.90625 83.054688 L -114.539062 83.054688 " transform="matrix(-1,0,0,1,0,0)"/>
<path style="fill-rule:nonzero;fill:rgb(100%,100%,100%);fill-opacity:1;stroke-width:0.8;stroke-linecap:round;stroke-linejoin:miter;stroke:rgb(100%,100%,100%);stroke-opacity:1;stroke-miterlimit:4;" d="M -109.507812 65.152344 L -121.757812 65.152344 L -121.757812 67.835938 L -109.507812 67.835938 Z M -109.507812 65.152344 " transform="matrix(-1,0,0,1,0,0)"/>
<path style="fill:none;stroke-width:1.6;stroke-linecap:butt;stroke-linejoin:miter;stroke:rgb(0%,0%,0%);stroke-opacity:1;stroke-miterlimit:4;" d="M -123.351562 65.136719 L -108.179688 65.136719 " transform="matrix(-1,0,0,1,0,0)"/>
<path style="fill:none;stroke-width:1.2;stroke-linecap:butt;stroke-linejoin:miter;stroke:rgb(0%,0%,0%);stroke-opacity:1;stroke-miterlimit:4;" d="M -109.488281 70.253906 C -112.253906 67.808594 -119.09375 67.84375 -121.785156 70.261719 " transform="matrix(-1,0,0,1,0,0)"/>
<path style=" stroke:none;fill-rule:nonzero;fill:rgb(0%,0%,0%);fill-opacity:1;" d="M 115.804688 53.375 C 117.171875 53.375 118.28125 54.480469 118.28125 55.847656 C 118.28125 57.214844 117.171875 58.324219 115.804688 58.324219 C 114.4375 58.324219 113.332031 57.214844 113.332031 55.847656 C 113.332031 54.480469 114.4375 53.375 115.804688 53.375 Z M 115.804688 53.375 "/>
<path style=" stroke:none;fill-rule:nonzero;fill:rgb(0%,0%,0%);fill-opacity:1;" d="M 122.046875 58.988281 L 121.554688 61.179688 L 121.058594 63.367188 L 119.542969 62.199219 L 118.03125 61.03125 L 120.039062 60.007812 Z M 122.046875 58.988281 "/>
<path style="fill:none;stroke-width:1.2;stroke-linecap:butt;stroke-linejoin:miter;stroke:rgb(0%,0%,0%);stroke-opacity:1;stroke-miterlimit:4;" d="M 119.695312 62.035156 L 111.164062 73.320312 "/>
<path style=" stroke:none;fill-rule:nonzero;fill:rgb(0%,0%,0%);fill-opacity:1;" d="M 58.949219 38.941406 L 58.949219 31.785156 L 62.121094 31.785156 C 62.765625 31.785156 63.25 31.855469 63.574219 31.988281 C 63.90625 32.113281 64.171875 32.339844 64.371094 32.660156 C 64.578125 32.984375 64.683594 33.34375 64.683594 33.738281 C 64.683594 34.25 64.515625 34.675781 64.183594 35.019531 C 63.847656 35.363281 63.34375 35.589844 62.667969 35.691406 C 62.917969 35.808594 63.105469 35.921875 63.230469 36.035156 C 63.511719 36.296875 63.769531 36.613281 64.011719 36.988281 L 65.261719 38.941406 L 64.074219 38.941406 L 63.121094 37.457031 C 62.847656 37.019531 62.621094 36.691406 62.433594 36.472656 C 62.253906 36.246094 62.09375 36.082031 61.949219 35.988281 C 61.8125 35.894531 61.671875 35.832031 61.527344 35.800781 C 61.421875 35.78125 61.246094 35.769531 60.996094 35.769531 L 59.902344 35.769531 L 59.902344 38.941406 Z M 59.902344 34.941406 L 61.933594 34.941406 C 62.371094 34.941406 62.707031 34.902344 62.949219 34.816406 C 63.199219 34.722656 63.386719 34.578125 63.511719 34.378906 C 63.636719 34.183594 63.699219 33.96875 63.699219 33.738281 C 63.699219 33.394531 63.574219 33.113281 63.324219 32.894531 C 63.082031 32.675781 62.699219 32.566406 62.167969 32.566406 L 59.902344 32.566406 Z M 59.902344 34.941406 "/>
<path style=" stroke:none;fill-rule:nonzero;fill:rgb(0%,0%,0%);fill-opacity:1;" d="M 66.214844 41.015625 L 66.214844 36 L 68.105469 36 C 68.425781 36 68.675781 36.015625 68.855469 36.046875 C 69.105469 36.089844 69.3125 36.167969 69.480469 36.28125 C 69.644531 36.398438 69.777344 36.558594 69.871094 36.765625 C 69.972656 36.976562 70.027344 37.203125 70.027344 37.453125 C 70.027344 37.882812 69.890625 38.246094 69.621094 38.546875 C 69.347656 38.839844 68.859375 38.984375 68.152344 38.984375 L 66.871094 38.984375 L 66.871094 41.015625 Z M 66.871094 38.390625 L 68.167969 38.390625 C 68.59375 38.390625 68.894531 38.3125 69.074219 38.15625 C 69.261719 37.992188 69.355469 37.761719 69.355469 37.46875 C 69.355469 37.261719 69.296875 37.085938 69.183594 36.9375 C 69.078125 36.792969 68.941406 36.695312 68.777344 36.640625 C 68.660156 36.609375 68.453125 36.59375 68.152344 36.59375 L 66.871094 36.59375 Z M 66.871094 38.390625 "/>
</g>
</svg>
