<?xml version="1.0" encoding="UTF-8"?>
<svg xmlns="http://www.w3.org/2000/svg" xmlns:xlink="http://www.w3.org/1999/xlink" width="227.147095pt" height="103.987251pt" viewBox="0 0 227.147095 103.987251" version="1.1">
<defs>
<clipPath id="clip1">
  <path d="M 171 29 L 189 29 L 189 103.988281 L 171 103.988281 Z M 171 29 "/>
</clipPath>
<clipPath id="clip2">
  <path d="M 25 102 L 29 102 L 29 103.988281 L 25 103.988281 Z M 25 102 "/>
</clipPath>
<clipPath id="clip3">
  <path d="M 18 71 L 37 71 L 37 103.988281 L 18 103.988281 Z M 18 71 "/>
</clipPath>
<clipPath id="clip4">
  <path d="M 178 102 L 182 102 L 182 103.988281 L 178 103.988281 Z M 178 102 "/>
</clipPath>
<clipPath id="clip5">
  <path d="M 173 52 L 210 52 L 210 103.988281 L 173 103.988281 Z M 173 52 "/>
</clipPath>
<clipPath id="clip6">
  <path d="M 199 102 L 203 102 L 203 103.988281 L 199 103.988281 Z M 199 102 "/>
</clipPath>
<clipPath id="clip7">
  <path d="M 206 71 L 227.148438 71 L 227.148438 92 L 206 92 Z M 206 71 "/>
</clipPath>
</defs>
<g id="surface1">
<path style="fill:none;stroke-width:1.2;stroke-linecap:butt;stroke-linejoin:miter;stroke:rgb(0%,0%,0%);stroke-opacity:1;stroke-miterlimit:4;" d="M 180.152344 79.121094 L 145.25 79.121094 L 145.25 54.320312 L 153.25 54.320312 "/>
<g clip-path="url(#clip1)" clip-rule="nonzero">
<path style="fill:none;stroke-width:1.2;stroke-linecap:butt;stroke-linejoin:miter;stroke:rgb(0%,0%,0%);stroke-opacity:1;stroke-miterlimit:4;" d="M 180.089844 36.480469 L 180.089844 63.898438 L 181.785156 64.742188 L 178.167969 66.28125 L 181.910156 67.871094 L 178.367188 69.375 L 181.785156 70.828125 L 178.414062 72.261719 L 181.8125 73.703125 L 178.273438 75.207031 L 180.089844 75.980469 L 180.09375 79.019531 L 180.097656 82.34375 L 181.792969 83.191406 L 178.175781 84.726562 L 181.917969 86.316406 L 178.375 87.824219 L 181.792969 89.277344 L 178.421875 90.707031 L 181.820312 92.152344 L 178.28125 93.65625 L 180.097656 94.429688 L 180.097656 97.460938 "/>
</g>
<path style="fill:none;stroke-width:1.2;stroke-linecap:butt;stroke-linejoin:miter;stroke:rgb(0%,0%,0%);stroke-opacity:1;stroke-miterlimit:4;" d="M 170.339844 49.078125 L 158.390625 49.078125 "/>
<path style="fill:none;stroke-width:1.2;stroke-linecap:butt;stroke-linejoin:miter;stroke:rgb(0%,0%,0%);stroke-opacity:1;stroke-miterlimit:4;" d="M 125.441406 44.027344 L 153.117188 44.027344 "/>
<path style="fill:none;stroke-width:1.2;stroke-linecap:butt;stroke-linejoin:miter;stroke:rgb(0%,0%,0%);stroke-opacity:1;stroke-miterlimit:4;" d="M 151.601562 0.777344 L 151.601562 25.488281 L 175.347656 25.488281 "/>
<path style="fill:none;stroke-width:1.2;stroke-linecap:butt;stroke-linejoin:miter;stroke:rgb(0%,0%,0%);stroke-opacity:1;stroke-miterlimit:4;" d="M 27.460938 0.792969 L 27.460938 81.351562 M 73.363281 85.027344 L 73.363281 0.929688 "/>
<path style="fill:none;stroke-width:1.2;stroke-linecap:round;stroke-linejoin:miter;stroke:rgb(0%,0%,0%);stroke-opacity:1;stroke-miterlimit:4;" d="M -31.941406 97.019531 L -22.832031 97.019531 " transform="matrix(-1,0,0,1,0,0)"/>
<path style="fill:none;stroke-width:1.2;stroke-linecap:round;stroke-linejoin:miter;stroke:rgb(0%,0%,0%);stroke-opacity:1;stroke-miterlimit:4;" d="M -29.878906 99.824219 L -24.894531 99.824219 " transform="matrix(-1,0,0,1,0,0)"/>
<g clip-path="url(#clip2)" clip-rule="nonzero">
<path style="fill:none;stroke-width:1.2;stroke-linecap:round;stroke-linejoin:miter;stroke:rgb(0%,0%,0%);stroke-opacity:1;stroke-miterlimit:4;" d="M -28.300781 102.625 L -26.472656 102.625 " transform="matrix(-1,0,0,1,0,0)"/>
</g>
<path style="fill:none;stroke-width:1.6;stroke-linecap:round;stroke-linejoin:miter;stroke:rgb(0%,0%,0%);stroke-opacity:1;stroke-miterlimit:4;" d="M 32.003906 1.011719 L 22.898438 1.011719 "/>
<path style="fill:none;stroke-width:1.6;stroke-linecap:round;stroke-linejoin:miter;stroke:rgb(0%,0%,0%);stroke-opacity:1;stroke-miterlimit:4;" d="M 77.890625 1.011719 L 68.785156 1.011719 "/>
<path style=" stroke:none;fill-rule:nonzero;fill:rgb(100%,100%,100%);fill-opacity:1;" d="M 65.871094 6.84375 L 73.980469 6.84375 L 73.980469 19.199219 L 65.871094 19.199219 Z M 65.871094 6.84375 "/>
<path style="fill:none;stroke-width:1.2;stroke-linecap:butt;stroke-linejoin:miter;stroke:rgb(0%,0%,0%);stroke-opacity:1;stroke-miterlimit:4;" d="M -73.972656 19.113281 L -66.046875 19.113281 L -66.046875 7.15625 L -73.976562 7.15625 " transform="matrix(-1,0,0,1,0,0)"/>
<path style="fill:none;stroke-width:1.6;stroke-linecap:butt;stroke-linejoin:miter;stroke:rgb(0%,0%,0%);stroke-opacity:1;stroke-miterlimit:4;" d="M -63.585938 19.855469 L -63.585938 6.414062 " transform="matrix(-1,0,0,1,0,0)"/>
<path style=" stroke:none;fill-rule:nonzero;fill:rgb(0%,0%,0%);fill-opacity:1;" d="M 65.496094 7.148438 L 67.40625 8.1875 L 69.316406 9.222656 L 69.316406 5.078125 Z M 65.496094 7.148438 "/>
<path style=" stroke:none;fill-rule:nonzero;fill:rgb(100%,100%,100%);fill-opacity:1;" d="M 26.835938 6.90625 L 34.941406 6.90625 L 34.941406 19.261719 L 26.835938 19.261719 Z M 26.835938 6.90625 "/>
<path style="fill:none;stroke-width:1.2;stroke-linecap:butt;stroke-linejoin:miter;stroke:rgb(0%,0%,0%);stroke-opacity:1;stroke-miterlimit:4;" d="M 26.839844 19.175781 L 34.765625 19.175781 L 34.765625 7.21875 L 26.835938 7.21875 "/>
<path style="fill:none;stroke-width:1.6;stroke-linecap:butt;stroke-linejoin:miter;stroke:rgb(0%,0%,0%);stroke-opacity:1;stroke-miterlimit:4;" d="M 37.230469 19.917969 L 37.230469 6.476562 "/>
<path style=" stroke:none;fill-rule:nonzero;fill:rgb(0%,0%,0%);fill-opacity:1;" d="M 35.320312 7.085938 L 33.410156 8.121094 L 31.503906 9.160156 L 31.503906 5.011719 L 33.410156 6.050781 Z M 35.320312 7.085938 "/>
<path style=" stroke:none;fill-rule:nonzero;fill:rgb(100%,100%,100%);fill-opacity:1;" d="M 26.84375 51.425781 L 34.519531 51.425781 L 34.519531 63.128906 L 26.84375 63.128906 Z M 26.84375 51.425781 "/>
<path style="fill-rule:evenodd;fill:rgb(100%,100%,100%);fill-opacity:1;stroke-width:1.2;stroke-linecap:butt;stroke-linejoin:miter;stroke:rgb(0%,0%,0%);stroke-opacity:1;stroke-miterlimit:4;" d="M 26.847656 63.046875 L 34.351562 63.046875 L 34.351562 51.726562 L 26.84375 51.726562 "/>
<path style="fill:none;stroke-width:1.6;stroke-linecap:butt;stroke-linejoin:miter;stroke:rgb(0%,0%,0%);stroke-opacity:1;stroke-miterlimit:4;" d="M 36.683594 63.75 L 36.683594 51.019531 "/>
<path style=" stroke:none;fill-rule:nonzero;fill:rgb(0%,0%,0%);fill-opacity:1;" d="M 26.84375 63.046875 L 28.648438 64.027344 L 30.457031 65.011719 L 30.457031 61.085938 L 28.648438 62.066406 Z M 26.84375 63.046875 "/>
<path style=" stroke:none;fill-rule:nonzero;fill:rgb(100%,100%,100%);fill-opacity:1;" d="M 66.3125 51.433594 L 73.992188 51.433594 L 73.992188 63.136719 L 66.3125 63.136719 Z M 66.3125 51.433594 "/>
<path style="fill-rule:evenodd;fill:rgb(100%,100%,100%);fill-opacity:1;stroke-width:1.2;stroke-linecap:butt;stroke-linejoin:miter;stroke:rgb(0%,0%,0%);stroke-opacity:1;stroke-miterlimit:4;" d="M -73.984375 63.054688 L -66.480469 63.054688 L -66.480469 51.734375 L -73.988281 51.734375 " transform="matrix(-1,0,0,1,0,0)"/>
<path style="fill:none;stroke-width:1.6;stroke-linecap:butt;stroke-linejoin:miter;stroke:rgb(0%,0%,0%);stroke-opacity:1;stroke-miterlimit:4;" d="M -64.148438 63.757812 L -64.148438 51.027344 " transform="matrix(-1,0,0,1,0,0)"/>
<path style=" stroke:none;fill-rule:nonzero;fill:rgb(0%,0%,0%);fill-opacity:1;" d="M 73.992188 63.054688 L 72.183594 64.035156 L 70.378906 65.019531 L 70.378906 61.09375 L 72.183594 62.074219 Z M 73.992188 63.054688 "/>
<path style="fill:none;stroke-width:1.2;stroke-linecap:butt;stroke-linejoin:miter;stroke:rgb(0%,0%,0%);stroke-opacity:1;stroke-miterlimit:4;" d="M 36.277344 57.222656 L 111.410156 57.222656 L 111.410156 73.820312 L 104.851562 73.820312 "/>
<path style=" stroke:none;fill-rule:nonzero;fill:rgb(100%,100%,100%);fill-opacity:1;" d="M 65.871094 23.316406 L 73.980469 23.316406 L 73.980469 35.675781 L 65.871094 35.675781 Z M 65.871094 23.316406 "/>
<path style="fill:none;stroke-width:1.2;stroke-linecap:butt;stroke-linejoin:miter;stroke:rgb(0%,0%,0%);stroke-opacity:1;stroke-miterlimit:4;" d="M -73.972656 35.589844 L -66.046875 35.589844 L -66.046875 23.632812 L -73.976562 23.632812 " transform="matrix(-1,0,0,1,0,0)"/>
<path style="fill:none;stroke-width:1.6;stroke-linecap:butt;stroke-linejoin:miter;stroke:rgb(0%,0%,0%);stroke-opacity:1;stroke-miterlimit:4;" d="M -63.585938 36.332031 L -63.585938 22.890625 " transform="matrix(-1,0,0,1,0,0)"/>
<path style=" stroke:none;fill-rule:nonzero;fill:rgb(0%,0%,0%);fill-opacity:1;" d="M 65.496094 23.625 L 67.40625 24.660156 L 69.316406 25.699219 L 69.316406 21.550781 L 67.40625 22.589844 Z M 65.496094 23.625 "/>
<path style=" stroke:none;fill-rule:nonzero;fill:rgb(100%,100%,100%);fill-opacity:1;" d="M 26.835938 23.378906 L 34.941406 23.378906 L 34.941406 35.738281 L 26.835938 35.738281 Z M 26.835938 23.378906 "/>
<path style="fill:none;stroke-width:1.2;stroke-linecap:butt;stroke-linejoin:miter;stroke:rgb(0%,0%,0%);stroke-opacity:1;stroke-miterlimit:4;" d="M 26.839844 35.652344 L 34.765625 35.652344 L 34.765625 23.695312 L 26.835938 23.695312 "/>
<path style="fill:none;stroke-width:1.6;stroke-linecap:butt;stroke-linejoin:miter;stroke:rgb(0%,0%,0%);stroke-opacity:1;stroke-miterlimit:4;" d="M 37.230469 36.394531 L 37.230469 22.953125 "/>
<path style=" stroke:none;fill-rule:nonzero;fill:rgb(0%,0%,0%);fill-opacity:1;" d="M 35.320312 23.5625 L 33.410156 24.597656 L 31.503906 25.632812 L 31.503906 21.488281 L 33.410156 22.523438 Z M 35.320312 23.5625 "/>
<g clip-path="url(#clip3)" clip-rule="nonzero">
<path style="fill:none;stroke-width:1.2;stroke-linecap:butt;stroke-linejoin:miter;stroke:rgb(0%,0%,0%);stroke-opacity:1;stroke-miterlimit:4;" d="M 27.460938 78.566406 L 27.460938 81.886719 L 29.160156 82.730469 L 25.539062 84.265625 L 29.28125 85.859375 L 25.738281 87.363281 L 29.15625 88.816406 L 25.789062 90.246094 L 29.1875 91.691406 L 25.644531 93.195312 L 27.460938 93.96875 L 27.460938 97 "/>
</g>
<path style="fill:none;stroke-width:1.2;stroke-linecap:butt;stroke-linejoin:miter;stroke:rgb(0%,0%,0%);stroke-opacity:1;stroke-miterlimit:4;" d="M 51.476562 12.609375 L 51.476562 26.851562 C 51.476562 26.851562 51.203125 26.867188 51.070312 26.894531 C 50.941406 26.921875 50.816406 26.964844 50.695312 27.015625 C 50.574219 27.066406 50.460938 27.132812 50.355469 27.207031 C 50.246094 27.28125 50.148438 27.363281 50.058594 27.457031 C 49.96875 27.550781 49.886719 27.652344 49.8125 27.765625 C 49.742188 27.875 49.679688 27.992188 49.628906 28.113281 C 49.578125 28.238281 49.539062 28.367188 49.511719 28.503906 C 49.484375 28.636719 49.46875 28.777344 49.46875 28.917969 C 49.46875 29.0625 49.484375 29.199219 49.511719 29.335938 C 49.539062 29.46875 49.578125 29.601562 49.628906 29.722656 C 49.679688 29.847656 49.742188 29.964844 49.8125 30.074219 C 49.886719 30.183594 49.96875 30.285156 50.058594 30.378906 C 50.148438 30.472656 50.246094 30.558594 50.355469 30.632812 C 50.460938 30.707031 50.574219 30.769531 50.695312 30.824219 C 50.816406 30.875 50.941406 30.914062 51.070312 30.945312 C 51.203125 30.972656 51.335938 30.984375 51.476562 30.984375 L 51.476562 40.1875 L 27.324219 40.1875 "/>
<path style=" stroke:none;fill-rule:nonzero;fill:rgb(0%,0%,0%);fill-opacity:1;" d="M 51.453125 10.558594 C 52.507812 10.558594 53.359375 11.414062 53.359375 12.46875 C 53.359375 13.523438 52.507812 14.375 51.453125 14.375 C 50.398438 14.375 49.542969 13.523438 49.542969 12.46875 C 49.542969 11.414062 50.398438 10.558594 51.453125 10.558594 Z M 51.453125 10.558594 "/>
<path style=" stroke:none;fill-rule:nonzero;fill:rgb(0%,0%,0%);fill-opacity:1;" d="M 27.464844 38.296875 C 28.519531 38.296875 29.371094 39.152344 29.371094 40.203125 C 29.371094 41.257812 28.519531 42.113281 27.464844 42.113281 C 26.410156 42.113281 25.554688 41.257812 25.554688 40.203125 C 25.554688 39.152344 26.410156 38.296875 27.464844 38.296875 Z M 27.464844 38.296875 "/>
<path style=" stroke:none;fill-rule:nonzero;fill:rgb(100%,100%,100%);fill-opacity:1;" d="M 26.871094 67.550781 L 34.546875 67.550781 L 34.546875 79.253906 L 26.871094 79.253906 Z M 26.871094 67.550781 "/>
<path style="fill-rule:evenodd;fill:rgb(100%,100%,100%);fill-opacity:1;stroke-width:1.2;stroke-linecap:butt;stroke-linejoin:miter;stroke:rgb(0%,0%,0%);stroke-opacity:1;stroke-miterlimit:4;" d="M 26.875 79.171875 L 34.378906 79.171875 L 34.378906 67.851562 L 26.871094 67.851562 "/>
<path style="fill:none;stroke-width:1.6;stroke-linecap:butt;stroke-linejoin:miter;stroke:rgb(0%,0%,0%);stroke-opacity:1;stroke-miterlimit:4;" d="M 36.710938 79.875 L 36.710938 67.148438 "/>
<path style=" stroke:none;fill-rule:nonzero;fill:rgb(0%,0%,0%);fill-opacity:1;" d="M 26.871094 79.171875 L 28.675781 80.15625 L 30.484375 81.136719 L 30.484375 77.210938 L 28.675781 78.191406 Z M 26.871094 79.171875 "/>
<path style=" stroke:none;fill-rule:nonzero;fill:rgb(100%,100%,100%);fill-opacity:1;" d="M 66.34375 67.558594 L 74.019531 67.558594 L 74.019531 79.261719 L 66.34375 79.261719 Z M 66.34375 67.558594 "/>
<path style="fill-rule:evenodd;fill:rgb(100%,100%,100%);fill-opacity:1;stroke-width:1.2;stroke-linecap:butt;stroke-linejoin:miter;stroke:rgb(0%,0%,0%);stroke-opacity:1;stroke-miterlimit:4;" d="M -74.011719 79.179688 L -66.507812 79.179688 L -66.507812 67.859375 L -74.015625 67.859375 " transform="matrix(-1,0,0,1,0,0)"/>
<path style="fill:none;stroke-width:1.6;stroke-linecap:butt;stroke-linejoin:miter;stroke:rgb(0%,0%,0%);stroke-opacity:1;stroke-miterlimit:4;" d="M -64.175781 79.882812 L -64.175781 67.15625 " transform="matrix(-1,0,0,1,0,0)"/>
<path style=" stroke:none;fill-rule:nonzero;fill:rgb(0%,0%,0%);fill-opacity:1;" d="M 74.019531 79.179688 L 72.210938 80.164062 L 70.40625 81.144531 L 70.40625 77.21875 L 72.210938 78.199219 Z M 74.019531 79.179688 "/>
<path style="fill:none;stroke-width:1.2;stroke-linecap:butt;stroke-linejoin:miter;stroke:rgb(0%,0%,0%);stroke-opacity:1;stroke-miterlimit:4;" d="M 64.769531 73.347656 L 15.019531 73.347656 "/>
<path style="fill:none;stroke-width:1.2;stroke-linecap:butt;stroke-linejoin:miter;stroke:rgb(0%,0%,0%);stroke-opacity:1;stroke-miterlimit:4;" d="M -49.199219 -73.238281 L -49.199219 -58.996094 L -49.605469 -58.953125 C -49.605469 -58.953125 -49.863281 -58.886719 -49.980469 -58.832031 C -50.101562 -58.78125 -50.214844 -58.71875 -50.324219 -58.644531 C -50.429688 -58.570312 -50.527344 -58.484375 -50.621094 -58.390625 C -50.710938 -58.296875 -50.792969 -58.195312 -50.863281 -58.085938 C -50.9375 -57.976562 -51 -57.859375 -51.050781 -57.734375 C -51.101562 -57.609375 -51.140625 -57.480469 -51.167969 -57.347656 C -51.191406 -57.210938 -51.207031 -57.074219 -51.207031 -56.929688 C -51.207031 -56.789062 -51.191406 -56.648438 -51.167969 -56.511719 C -51.140625 -56.378906 -51.101562 -56.25 -51.050781 -56.125 C -51 -56.003906 -50.9375 -55.882812 -50.863281 -55.773438 C -50.792969 -55.664062 -50.710938 -55.5625 -50.621094 -55.46875 C -50.527344 -55.375 -50.429688 -55.289062 -50.324219 -55.214844 C -50.214844 -55.140625 -50.101562 -55.078125 -49.980469 -55.027344 C -49.863281 -54.972656 -49.734375 -54.933594 -49.605469 -54.90625 C -49.476562 -54.878906 -49.339844 -54.863281 -49.199219 -54.863281 L -49.199219 -45.664062 L -73.355469 -45.664062 " transform="matrix(-1,0,0,-1,0,0)"/>
<path style=" stroke:none;fill-rule:nonzero;fill:rgb(0%,0%,0%);fill-opacity:1;" d="M 49.222656 75.289062 C 48.171875 75.289062 47.316406 74.433594 47.316406 73.382812 C 47.316406 72.328125 48.171875 71.472656 49.222656 71.472656 C 50.277344 71.472656 51.132812 72.328125 51.132812 73.382812 C 51.132812 74.433594 50.277344 75.289062 49.222656 75.289062 Z M 49.222656 75.289062 "/>
<path style=" stroke:none;fill-rule:nonzero;fill:rgb(0%,0%,0%);fill-opacity:1;" d="M 73.214844 47.550781 C 72.160156 47.550781 71.304688 46.699219 71.304688 45.644531 C 71.304688 44.589844 72.160156 43.738281 73.214844 43.738281 C 74.265625 43.738281 75.121094 44.589844 75.121094 45.644531 C 75.121094 46.699219 74.265625 47.550781 73.214844 47.550781 Z M 73.214844 47.550781 "/>
<path style="fill:none;stroke-width:1.2;stroke-linecap:round;stroke-linejoin:miter;stroke:rgb(0%,0%,0%);stroke-opacity:1;stroke-miterlimit:4;" d="M -77.910156 85.09375 L -68.800781 85.09375 " transform="matrix(-1,0,0,1,0,0)"/>
<path style="fill:none;stroke-width:1.2;stroke-linecap:round;stroke-linejoin:miter;stroke:rgb(0%,0%,0%);stroke-opacity:1;stroke-miterlimit:4;" d="M -75.847656 87.898438 L -70.863281 87.898438 " transform="matrix(-1,0,0,1,0,0)"/>
<path style="fill:none;stroke-width:1.2;stroke-linecap:round;stroke-linejoin:miter;stroke:rgb(0%,0%,0%);stroke-opacity:1;stroke-miterlimit:4;" d="M -74.269531 90.703125 L -72.441406 90.703125 " transform="matrix(-1,0,0,1,0,0)"/>
<path style="fill:none;stroke-width:1.2;stroke-linecap:butt;stroke-linejoin:miter;stroke:rgb(0%,0%,0%);stroke-opacity:1;stroke-miterlimit:4;" d="M 95.191406 0.6875 L 95.191406 85.046875 M 5.398438 85.207031 L 5.398438 0.824219 "/>
<path style="fill:none;stroke-width:1.6;stroke-linecap:round;stroke-linejoin:miter;stroke:rgb(0%,0%,0%);stroke-opacity:1;stroke-miterlimit:4;" d="M 99.660156 0.90625 L 90.554688 0.90625 "/>
<path style=" stroke:none;fill-rule:nonzero;fill:rgb(100%,100%,100%);fill-opacity:1;" d="M 87.683594 6.753906 L 95.789062 6.753906 L 95.789062 19.113281 L 87.683594 19.113281 Z M 87.683594 6.753906 "/>
<path style="fill:none;stroke-width:1.2;stroke-linecap:butt;stroke-linejoin:miter;stroke:rgb(0%,0%,0%);stroke-opacity:1;stroke-miterlimit:4;" d="M -95.785156 19.027344 L -87.859375 19.027344 L -87.859375 7.070312 L -95.789062 7.070312 " transform="matrix(-1,0,0,1,0,0)"/>
<path style="fill:none;stroke-width:1.6;stroke-linecap:butt;stroke-linejoin:miter;stroke:rgb(0%,0%,0%);stroke-opacity:1;stroke-miterlimit:4;" d="M -85.398438 19.769531 L -85.398438 6.328125 " transform="matrix(-1,0,0,1,0,0)"/>
<path style=" stroke:none;fill-rule:nonzero;fill:rgb(0%,0%,0%);fill-opacity:1;" d="M 87.308594 7.0625 L 89.21875 8.097656 L 91.125 9.136719 L 91.125 4.988281 L 89.21875 6.027344 Z M 87.308594 7.0625 "/>
<path style=" stroke:none;fill-rule:nonzero;fill:rgb(100%,100%,100%);fill-opacity:1;" d="M 94.488281 67.292969 L 102.59375 67.292969 L 102.59375 79.652344 L 94.488281 79.652344 Z M 94.488281 67.292969 "/>
<path style="fill:none;stroke-width:1.2;stroke-linecap:butt;stroke-linejoin:miter;stroke:rgb(0%,0%,0%);stroke-opacity:1;stroke-miterlimit:4;" d="M 94.492188 79.5625 L 102.417969 79.5625 L 102.417969 67.609375 L 94.488281 67.609375 "/>
<path style="fill:none;stroke-width:1.6;stroke-linecap:butt;stroke-linejoin:miter;stroke:rgb(0%,0%,0%);stroke-opacity:1;stroke-miterlimit:4;" d="M 104.878906 80.304688 L 104.878906 66.863281 "/>
<path style=" stroke:none;fill-rule:nonzero;fill:rgb(0%,0%,0%);fill-opacity:1;" d="M 102.96875 67.601562 L 101.058594 68.636719 L 99.152344 69.671875 L 99.152344 65.527344 L 101.058594 66.5625 Z M 102.96875 67.601562 "/>
<path style="fill:none;stroke-width:1.2;stroke-linecap:round;stroke-linejoin:miter;stroke:rgb(0%,0%,0%);stroke-opacity:1;stroke-miterlimit:4;" d="M -99.6875 85.101562 L -90.582031 85.101562 " transform="matrix(-1,0,0,1,0,0)"/>
<path style="fill:none;stroke-width:1.2;stroke-linecap:round;stroke-linejoin:miter;stroke:rgb(0%,0%,0%);stroke-opacity:1;stroke-miterlimit:4;" d="M -97.628906 87.902344 L -92.640625 87.902344 " transform="matrix(-1,0,0,1,0,0)"/>
<path style="fill:none;stroke-width:1.2;stroke-linecap:round;stroke-linejoin:miter;stroke:rgb(0%,0%,0%);stroke-opacity:1;stroke-miterlimit:4;" d="M -96.046875 90.707031 L -94.222656 90.707031 " transform="matrix(-1,0,0,1,0,0)"/>
<path style=" stroke:none;fill-rule:nonzero;fill:rgb(0%,0%,0%);fill-opacity:1;" d="M 95.140625 59.1875 C 94.085938 59.1875 93.230469 58.335938 93.230469 57.28125 C 93.230469 56.226562 94.085938 55.375 95.140625 55.375 C 96.195312 55.375 97.046875 56.226562 97.046875 57.28125 C 97.046875 58.335938 96.195312 59.1875 95.140625 59.1875 Z M 95.140625 59.1875 "/>
<path style=" stroke:none;fill-rule:nonzero;fill:rgb(100%,100%,100%);fill-opacity:1;" d="M 4.765625 67.558594 L 12.445312 67.558594 L 12.445312 79.261719 L 4.765625 79.261719 Z M 4.765625 67.558594 "/>
<path style="fill-rule:evenodd;fill:rgb(100%,100%,100%);fill-opacity:1;stroke-width:1.2;stroke-linecap:butt;stroke-linejoin:miter;stroke:rgb(0%,0%,0%);stroke-opacity:1;stroke-miterlimit:4;" d="M 4.773438 79.179688 L 12.277344 79.179688 L 12.277344 67.859375 L 4.769531 67.859375 "/>
<path style="fill:none;stroke-width:1.6;stroke-linecap:butt;stroke-linejoin:miter;stroke:rgb(0%,0%,0%);stroke-opacity:1;stroke-miterlimit:4;" d="M 14.609375 79.882812 L 14.609375 67.152344 "/>
<path style=" stroke:none;fill-rule:nonzero;fill:rgb(0%,0%,0%);fill-opacity:1;" d="M 4.765625 79.179688 L 8.382812 81.140625 L 8.382812 77.214844 L 6.574219 78.199219 Z M 4.765625 79.179688 "/>
<path style="fill:none;stroke-width:1.2;stroke-linecap:round;stroke-linejoin:miter;stroke:rgb(0%,0%,0%);stroke-opacity:1;stroke-miterlimit:4;" d="M 0.878906 85.09375 L 9.984375 85.09375 "/>
<path style="fill:none;stroke-width:1.2;stroke-linecap:round;stroke-linejoin:miter;stroke:rgb(0%,0%,0%);stroke-opacity:1;stroke-miterlimit:4;" d="M 2.9375 87.898438 L 7.925781 87.898438 "/>
<path style="fill:none;stroke-width:1.2;stroke-linecap:round;stroke-linejoin:miter;stroke:rgb(0%,0%,0%);stroke-opacity:1;stroke-miterlimit:4;" d="M 4.519531 90.699219 L 6.34375 90.699219 "/>
<path style="fill:none;stroke-width:1.6;stroke-linecap:round;stroke-linejoin:miter;stroke:rgb(0%,0%,0%);stroke-opacity:1;stroke-miterlimit:4;" d="M 9.917969 1.0625 L 0.8125 1.0625 "/>
<path style=" stroke:none;fill-rule:nonzero;fill:rgb(100%,100%,100%);fill-opacity:1;" d="M 4.75 6.957031 L 12.855469 6.957031 L 12.855469 19.3125 L 4.75 19.3125 Z M 4.75 6.957031 "/>
<path style="fill:none;stroke-width:1.2;stroke-linecap:butt;stroke-linejoin:miter;stroke:rgb(0%,0%,0%);stroke-opacity:1;stroke-miterlimit:4;" d="M 4.753906 19.226562 L 12.679688 19.226562 L 12.679688 7.269531 L 4.75 7.269531 "/>
<path style="fill:none;stroke-width:1.6;stroke-linecap:butt;stroke-linejoin:miter;stroke:rgb(0%,0%,0%);stroke-opacity:1;stroke-miterlimit:4;" d="M 15.144531 19.96875 L 15.144531 6.527344 "/>
<path style=" stroke:none;fill-rule:nonzero;fill:rgb(0%,0%,0%);fill-opacity:1;" d="M 13.234375 7.136719 L 11.324219 8.171875 L 9.414062 9.210938 L 9.414062 5.0625 L 11.324219 6.101562 Z M 13.234375 7.136719 "/>
<path style=" stroke:none;fill-rule:nonzero;fill:rgb(0%,0%,0%);fill-opacity:1;" d="M 5.339844 27.039062 C 6.390625 27.039062 7.246094 27.894531 7.246094 28.945312 C 7.246094 30 6.390625 30.855469 5.339844 30.855469 C 4.285156 30.855469 3.429688 30 3.429688 28.945312 C 3.429688 27.894531 4.285156 27.039062 5.339844 27.039062 Z M 5.339844 27.039062 "/>
<path style="fill:none;stroke-width:1.2;stroke-linecap:butt;stroke-linejoin:miter;stroke:rgb(0%,0%,0%);stroke-opacity:1;stroke-miterlimit:4;" d="M 15.078125 13.335938 L 20.914062 13.335938 L 20.914062 28.996094 "/>
<path style=" stroke:none;fill-rule:nonzero;fill:rgb(0%,0%,0%);fill-opacity:1;" d="M 20.859375 27.050781 C 21.910156 27.050781 22.765625 27.90625 22.765625 28.960938 C 22.765625 30.011719 21.910156 30.867188 20.859375 30.867188 C 19.804688 30.867188 18.949219 30.011719 18.949219 28.960938 C 18.949219 27.90625 19.804688 27.050781 20.859375 27.050781 Z M 20.859375 27.050781 "/>
<path style="fill:none;stroke-width:1.2;stroke-linecap:butt;stroke-linejoin:miter;stroke:rgb(0%,0%,0%);stroke-opacity:1;stroke-miterlimit:4;" d="M 132.023438 65.796875 L 137.859375 65.796875 L 137.859375 78.925781 L 125.875 78.925781 "/>
<path style="fill:none;stroke-width:1.2;stroke-linecap:butt;stroke-linejoin:miter;stroke:rgb(0%,0%,0%);stroke-opacity:1;stroke-miterlimit:4;" d="M 125.859375 0.296875 L 125.859375 85.113281 "/>
<path style="fill:none;stroke-width:1.2;stroke-linecap:round;stroke-linejoin:miter;stroke:rgb(0%,0%,0%);stroke-opacity:1;stroke-miterlimit:4;" d="M 121.214844 85.101562 L 130.324219 85.101562 "/>
<path style="fill:none;stroke-width:1.2;stroke-linecap:round;stroke-linejoin:miter;stroke:rgb(0%,0%,0%);stroke-opacity:1;stroke-miterlimit:4;" d="M 123.277344 87.902344 L 128.261719 87.902344 "/>
<path style="fill:none;stroke-width:1.2;stroke-linecap:round;stroke-linejoin:miter;stroke:rgb(0%,0%,0%);stroke-opacity:1;stroke-miterlimit:4;" d="M 124.855469 90.707031 L 126.683594 90.707031 "/>
<path style=" stroke:none;fill-rule:nonzero;fill:rgb(0%,0%,0%);fill-opacity:1;" d="M 125.839844 76.953125 C 124.789062 76.953125 123.933594 77.808594 123.933594 78.859375 C 123.933594 79.914062 124.789062 80.769531 125.839844 80.769531 C 126.894531 80.769531 127.75 79.914062 127.75 78.859375 C 127.75 77.808594 126.894531 76.953125 125.839844 76.953125 Z M 125.839844 76.953125 "/>
<path style="fill:none;stroke-width:1.6;stroke-linecap:round;stroke-linejoin:miter;stroke:rgb(0%,0%,0%);stroke-opacity:1;stroke-miterlimit:4;" d="M 130.421875 0.839844 L 121.316406 0.839844 "/>
<path style=" stroke:none;fill-rule:nonzero;fill:rgb(100%,100%,100%);fill-opacity:1;" d="M 118.402344 6.667969 L 126.511719 6.667969 L 126.511719 19.027344 L 118.402344 19.027344 Z M 118.402344 6.667969 "/>
<path style="fill:none;stroke-width:1.2;stroke-linecap:butt;stroke-linejoin:miter;stroke:rgb(0%,0%,0%);stroke-opacity:1;stroke-miterlimit:4;" d="M -126.503906 18.9375 L -118.578125 18.9375 L -118.578125 6.984375 L -126.507812 6.984375 " transform="matrix(-1,0,0,1,0,0)"/>
<path style="fill:none;stroke-width:1.6;stroke-linecap:butt;stroke-linejoin:miter;stroke:rgb(0%,0%,0%);stroke-opacity:1;stroke-miterlimit:4;" d="M -116.117188 19.683594 L -116.117188 6.238281 " transform="matrix(-1,0,0,1,0,0)"/>
<path style=" stroke:none;fill-rule:nonzero;fill:rgb(0%,0%,0%);fill-opacity:1;" d="M 118.03125 6.976562 L 119.9375 8.011719 L 121.847656 9.046875 L 121.847656 4.902344 L 119.9375 5.9375 Z M 118.03125 6.976562 "/>
<path style=" stroke:none;fill-rule:nonzero;fill:rgb(100%,100%,100%);fill-opacity:1;" d="M 118.402344 23.144531 L 126.511719 23.144531 L 126.511719 35.5 L 118.402344 35.5 Z M 118.402344 23.144531 "/>
<path style="fill:none;stroke-width:1.2;stroke-linecap:butt;stroke-linejoin:miter;stroke:rgb(0%,0%,0%);stroke-opacity:1;stroke-miterlimit:4;" d="M -126.503906 35.414062 L -118.578125 35.414062 L -118.578125 23.457031 L -126.507812 23.457031 " transform="matrix(-1,0,0,1,0,0)"/>
<path style="fill:none;stroke-width:1.6;stroke-linecap:butt;stroke-linejoin:miter;stroke:rgb(0%,0%,0%);stroke-opacity:1;stroke-miterlimit:4;" d="M -116.117188 36.15625 L -116.117188 22.714844 " transform="matrix(-1,0,0,1,0,0)"/>
<path style=" stroke:none;fill-rule:nonzero;fill:rgb(0%,0%,0%);fill-opacity:1;" d="M 118.03125 23.449219 L 119.9375 24.488281 L 121.847656 25.523438 L 121.847656 21.378906 L 119.9375 22.414062 Z M 118.03125 23.449219 "/>
<path style=" stroke:none;fill-rule:evenodd;fill:rgb(100%,100%,100%);fill-opacity:1;" d="M 125.121094 59.316406 L 131.601562 62.96875 L 131.601562 68.289062 L 125.171875 71.820312 Z M 125.121094 59.316406 "/>
<path style="fill:none;stroke-width:1.6;stroke-linecap:butt;stroke-linejoin:miter;stroke:rgb(0%,0%,0%);stroke-opacity:1;stroke-miterlimit:4;" d="M 131.957031 72.464844 L 131.957031 59.023438 "/>
<path style="fill:none;stroke-width:1.151511;stroke-linecap:butt;stroke-linejoin:miter;stroke:rgb(0%,0%,0%);stroke-opacity:1;stroke-miterlimit:4;" d="M -102.556988 91.64032 L -99.799064 88.843302 L -100.167179 87.587968 " transform="matrix(-1,0.293241,0.293241,1,0,0)"/>
<path style=" stroke:none;fill-rule:nonzero;fill:rgb(0%,0%,0%);fill-opacity:1;" d="M 131.511719 62.542969 L 129.574219 59.542969 L 127.941406 62.535156 Z M 131.511719 62.542969 "/>
<path style="fill:none;stroke-width:1.2;stroke-linecap:butt;stroke-linejoin:miter;stroke:rgb(0%,0%,0%);stroke-opacity:1;stroke-miterlimit:4;" d="M 131.738281 68.597656 L 125.855469 71.929688 L 125.855469 73.195312 "/>
<path style="fill:none;stroke-width:1.2;stroke-linecap:butt;stroke-linejoin:miter;stroke:rgb(0%,0%,0%);stroke-opacity:1;stroke-miterlimit:4;" d="M 116.214844 28.910156 L 97.269531 28.910156 C 97.269531 28.910156 97.257812 28.636719 97.226562 28.507812 C 97.199219 28.375 97.160156 28.25 97.109375 28.132812 C 97.054688 28.011719 96.992188 27.898438 96.917969 27.789062 C 96.84375 27.683594 96.757812 27.585938 96.664062 27.492188 C 96.570312 27.402344 96.46875 27.320312 96.359375 27.25 C 96.25 27.175781 96.132812 27.113281 96.007812 27.0625 C 95.882812 27.011719 95.753906 26.972656 95.621094 26.945312 C 95.484375 26.921875 95.347656 26.90625 95.203125 26.90625 C 95.0625 26.90625 94.921875 26.921875 94.789062 26.945312 C 94.652344 26.972656 94.523438 27.011719 94.398438 27.0625 C 94.277344 27.113281 94.160156 27.175781 94.046875 27.25 C 93.9375 27.320312 93.835938 27.402344 93.742188 27.492188 C 93.648438 27.585938 93.566406 27.683594 93.492188 27.789062 C 93.417969 27.898438 93.351562 28.011719 93.300781 28.132812 C 93.246094 28.25 93.207031 28.375 93.179688 28.507812 C 93.152344 28.636719 93.136719 28.773438 93.136719 28.910156 L 5.191406 28.910156 "/>
<path style="fill:none;stroke-width:1.6;stroke-linecap:round;stroke-linejoin:miter;stroke:rgb(0%,0%,0%);stroke-opacity:1;stroke-miterlimit:4;" d="M 156.199219 0.800781 L 147.089844 0.800781 "/>
<path style=" stroke:none;fill-rule:nonzero;fill:rgb(100%,100%,100%);fill-opacity:1;" d="M 144.179688 6.628906 L 152.285156 6.628906 L 152.285156 18.988281 L 144.179688 18.988281 Z M 144.179688 6.628906 "/>
<path style="fill:none;stroke-width:1.2;stroke-linecap:butt;stroke-linejoin:miter;stroke:rgb(0%,0%,0%);stroke-opacity:1;stroke-miterlimit:4;" d="M -152.28125 18.898438 L -144.355469 18.898438 L -144.355469 6.945312 L -152.285156 6.945312 " transform="matrix(-1,0,0,1,0,0)"/>
<path style="fill:none;stroke-width:1.6;stroke-linecap:butt;stroke-linejoin:miter;stroke:rgb(0%,0%,0%);stroke-opacity:1;stroke-miterlimit:4;" d="M -141.890625 19.644531 L -141.890625 6.199219 " transform="matrix(-1,0,0,1,0,0)"/>
<path style=" stroke:none;fill-rule:nonzero;fill:rgb(0%,0%,0%);fill-opacity:1;" d="M 143.804688 6.9375 L 145.710938 7.972656 L 147.621094 9.007812 L 147.621094 4.863281 L 145.710938 5.898438 Z M 143.804688 6.9375 "/>
<path style="fill:none;stroke-width:1.2;stroke-linecap:butt;stroke-linejoin:miter;stroke:rgb(0%,0%,0%);stroke-opacity:1;stroke-miterlimit:4;" d="M 37.011719 12.464844 L 142.226562 12.464844 "/>
<path style="fill-rule:nonzero;fill:rgb(100%,100%,100%);fill-opacity:1;stroke-width:1.284713;stroke-linecap:butt;stroke-linejoin:miter;stroke:rgb(0%,0%,0%);stroke-opacity:1;stroke-miterlimit:4;" d="M 188.331631 -49.560423 L 171.965301 -40.111577 L 171.967264 -49.556893 L 171.969219 -59.006116 L 180.150429 -54.281317 Z M 188.331631 -49.560423 " transform="matrix(0.872465,-0.00212533,-0.00188646,-1,0,0)"/>
<path style=" stroke:none;fill-rule:nonzero;fill:rgb(0%,0%,0%);fill-opacity:1;" d="M 152.125 44.886719 L 154.828125 44.886719 L 154.828125 45.761719 L 152.125 45.761719 Z M 152.125 44.886719 "/>
<path style="fill:none;stroke-width:1.2;stroke-linecap:round;stroke-linejoin:miter;stroke:rgb(0%,0%,0%);stroke-opacity:1;stroke-miterlimit:4;" d="M -184.636719 97.78125 L -175.53125 97.78125 " transform="matrix(-1,0,0,1,0,0)"/>
<path style="fill:none;stroke-width:1.2;stroke-linecap:round;stroke-linejoin:miter;stroke:rgb(0%,0%,0%);stroke-opacity:1;stroke-miterlimit:4;" d="M -182.578125 100.585938 L -177.589844 100.585938 " transform="matrix(-1,0,0,1,0,0)"/>
<g clip-path="url(#clip4)" clip-rule="nonzero">
<path style="fill:none;stroke-width:1.2;stroke-linecap:round;stroke-linejoin:miter;stroke:rgb(0%,0%,0%);stroke-opacity:1;stroke-miterlimit:4;" d="M -180.996094 103.386719 L -179.171875 103.386719 " transform="matrix(-1,0,0,1,0,0)"/>
</g>
<path style="fill:none;stroke-width:1.6;stroke-linecap:round;stroke-linejoin:miter;stroke:rgb(0%,0%,0%);stroke-opacity:1;stroke-miterlimit:4;" d="M 184.628906 36.699219 L 175.523438 36.699219 "/>
<path style=" stroke:none;fill-rule:nonzero;fill:rgb(100%,100%,100%);fill-opacity:1;" d="M 172.609375 42.527344 L 180.71875 42.527344 L 180.71875 54.882812 L 172.609375 54.882812 Z M 172.609375 42.527344 "/>
<path style="fill:none;stroke-width:1.2;stroke-linecap:butt;stroke-linejoin:miter;stroke:rgb(0%,0%,0%);stroke-opacity:1;stroke-miterlimit:4;" d="M -180.710938 54.796875 L -172.785156 54.796875 L -172.785156 42.839844 L -180.714844 42.839844 " transform="matrix(-1,0,0,1,0,0)"/>
<path style="fill:none;stroke-width:1.6;stroke-linecap:butt;stroke-linejoin:miter;stroke:rgb(0%,0%,0%);stroke-opacity:1;stroke-miterlimit:4;" d="M -170.324219 55.539062 L -170.324219 42.097656 " transform="matrix(-1,0,0,1,0,0)"/>
<path style=" stroke:none;fill-rule:nonzero;fill:rgb(0%,0%,0%);fill-opacity:1;" d="M 172.234375 42.832031 L 174.144531 43.871094 L 176.054688 44.90625 L 176.054688 40.761719 Z M 172.234375 42.832031 "/>
<path style=" stroke:none;fill-rule:nonzero;fill:rgb(0%,0%,0%);fill-opacity:1;" d="M 153.332031 53.589844 L 153.332031 52.011719 L 151.785156 52.011719 L 151.785156 51.355469 L 153.332031 51.355469 L 153.332031 49.792969 L 154.003906 49.792969 L 154.003906 51.355469 L 155.566406 51.355469 L 155.566406 52.011719 L 154.003906 52.011719 L 154.003906 53.589844 Z M 153.332031 53.589844 "/>
<path style=" stroke:none;fill-rule:nonzero;fill:rgb(0%,0%,0%);fill-opacity:1;" d="M 180.074219 77.265625 C 179.023438 77.265625 178.167969 78.117188 178.167969 79.171875 C 178.167969 80.226562 179.023438 81.078125 180.074219 81.078125 C 181.128906 81.078125 181.984375 80.226562 181.984375 79.171875 C 181.984375 78.117188 181.128906 77.265625 180.074219 77.265625 Z M 180.074219 77.265625 "/>
<path style="fill-rule:evenodd;fill:rgb(100%,100%,100%);fill-opacity:1;stroke-width:1.2;stroke-linecap:butt;stroke-linejoin:miter;stroke:rgb(0%,0%,0%);stroke-opacity:1;stroke-miterlimit:4;" d="M 171.164062 22.164062 L 171.164062 28.839844 L 181.21875 28.839844 L 184.472656 25.585938 L 181.136719 22.25 Z M 171.164062 22.164062 "/>
<path style=" stroke:none;fill-rule:nonzero;fill:rgb(0%,0%,0%);fill-opacity:1;" d="M 168.523438 10.507812 L 169.460938 10.507812 L 169.460938 17.664062 L 168.523438 17.664062 Z M 168.523438 10.507812 "/>
<path style=" stroke:none;fill-rule:nonzero;fill:rgb(0%,0%,0%);fill-opacity:1;" d="M 170.671875 19.578125 L 170.671875 15.28125 L 172.28125 15.28125 C 172.613281 15.28125 172.878906 15.328125 173.078125 15.421875 C 173.273438 15.507812 173.425781 15.636719 173.53125 15.8125 C 173.644531 15.992188 173.703125 16.179688 173.703125 16.375 C 173.703125 16.5625 173.648438 16.742188 173.546875 16.90625 C 173.453125 17.0625 173.304688 17.195312 173.109375 17.296875 C 173.367188 17.371094 173.566406 17.5 173.703125 17.6875 C 173.847656 17.867188 173.921875 18.078125 173.921875 18.328125 C 173.921875 18.539062 173.875 18.730469 173.78125 18.90625 C 173.695312 19.074219 173.59375 19.203125 173.46875 19.296875 C 173.34375 19.390625 173.1875 19.464844 173 19.515625 C 172.8125 19.558594 172.582031 19.578125 172.3125 19.578125 Z M 171.25 17.09375 L 172.171875 17.09375 C 172.421875 17.09375 172.601562 17.074219 172.71875 17.03125 C 172.863281 16.992188 172.972656 16.921875 173.046875 16.828125 C 173.117188 16.726562 173.15625 16.601562 173.15625 16.453125 C 173.15625 16.308594 173.117188 16.183594 173.046875 16.078125 C 172.972656 15.964844 172.875 15.890625 172.75 15.859375 C 172.625 15.820312 172.40625 15.796875 172.09375 15.796875 L 171.25 15.796875 Z M 171.25 19.078125 L 172.3125 19.078125 C 172.5 19.078125 172.628906 19.070312 172.703125 19.046875 C 172.828125 19.027344 172.929688 18.992188 173.015625 18.9375 C 173.109375 18.875 173.179688 18.792969 173.234375 18.6875 C 173.296875 18.585938 173.328125 18.464844 173.328125 18.328125 C 173.328125 18.171875 173.285156 18.039062 173.203125 17.921875 C 173.117188 17.796875 173.003906 17.714844 172.859375 17.671875 C 172.710938 17.621094 172.503906 17.59375 172.234375 17.59375 L 171.25 17.59375 Z M 171.25 19.078125 "/>
<path style=" stroke:none;fill-rule:nonzero;fill:rgb(0%,0%,0%);fill-opacity:1;" d="M 174.949219 15.28125 L 175.511719 15.28125 L 175.511719 19.578125 L 174.949219 19.578125 Z M 174.949219 15.28125 "/>
<path style=" stroke:none;fill-rule:nonzero;fill:rgb(0%,0%,0%);fill-opacity:1;" d="M 176.09375 19.578125 L 177.75 15.28125 L 178.359375 15.28125 L 180.125 19.578125 L 179.46875 19.578125 L 178.96875 18.28125 L 177.171875 18.28125 L 176.703125 19.578125 Z M 177.34375 17.8125 L 178.796875 17.8125 L 178.34375 16.625 C 178.207031 16.261719 178.109375 15.964844 178.046875 15.734375 C 177.992188 16.007812 177.914062 16.277344 177.8125 16.546875 Z M 177.34375 17.8125 "/>
<path style=" stroke:none;fill-rule:nonzero;fill:rgb(0%,0%,0%);fill-opacity:1;" d="M 180.527344 18.203125 L 181.074219 18.15625 C 181.09375 18.367188 181.152344 18.542969 181.246094 18.6875 C 181.339844 18.824219 181.480469 18.933594 181.667969 19.015625 C 181.863281 19.101562 182.089844 19.140625 182.339844 19.140625 C 182.558594 19.140625 182.746094 19.109375 182.902344 19.046875 C 183.066406 18.984375 183.191406 18.898438 183.277344 18.78125 C 183.359375 18.667969 183.402344 18.542969 183.402344 18.40625 C 183.402344 18.273438 183.359375 18.15625 183.277344 18.0625 C 183.203125 17.960938 183.078125 17.875 182.902344 17.8125 C 182.785156 17.761719 182.53125 17.6875 182.136719 17.59375 C 181.738281 17.5 181.464844 17.414062 181.308594 17.328125 C 181.097656 17.226562 180.941406 17.09375 180.839844 16.9375 C 180.746094 16.773438 180.699219 16.589844 180.699219 16.390625 C 180.699219 16.171875 180.753906 15.96875 180.871094 15.78125 C 180.996094 15.59375 181.175781 15.453125 181.417969 15.359375 C 181.65625 15.257812 181.921875 15.203125 182.214844 15.203125 C 182.527344 15.203125 182.800781 15.257812 183.042969 15.359375 C 183.292969 15.464844 183.480469 15.617188 183.605469 15.8125 C 183.738281 16.011719 183.8125 16.242188 183.824219 16.5 L 183.277344 16.53125 C 183.246094 16.261719 183.144531 16.058594 182.980469 15.921875 C 182.8125 15.777344 182.5625 15.703125 182.230469 15.703125 C 181.886719 15.703125 181.636719 15.773438 181.480469 15.90625 C 181.324219 16.03125 181.246094 16.183594 181.246094 16.359375 C 181.246094 16.515625 181.300781 16.640625 181.417969 16.734375 C 181.519531 16.839844 181.800781 16.945312 182.261719 17.046875 C 182.730469 17.152344 183.046875 17.242188 183.214844 17.3125 C 183.464844 17.429688 183.644531 17.574219 183.761719 17.75 C 183.886719 17.929688 183.949219 18.132812 183.949219 18.359375 C 183.949219 18.589844 183.878906 18.808594 183.746094 19.015625 C 183.621094 19.214844 183.433594 19.371094 183.183594 19.484375 C 182.941406 19.597656 182.667969 19.65625 182.355469 19.65625 C 181.96875 19.65625 181.644531 19.597656 181.386719 19.484375 C 181.125 19.371094 180.917969 19.199219 180.761719 18.96875 C 180.613281 18.742188 180.535156 18.484375 180.527344 18.203125 Z M 180.527344 18.203125 "/>
<g clip-path="url(#clip5)" clip-rule="nonzero">
<path style="fill:none;stroke-width:1.2;stroke-linecap:butt;stroke-linejoin:miter;stroke:rgb(0%,0%,0%);stroke-opacity:1;stroke-miterlimit:4;" d="M 200.757812 97.988281 L 200.753906 77.449219 L 198.9375 76.675781 L 202.480469 75.171875 L 199.082031 73.726562 L 202.449219 72.296875 L 199.03125 70.84375 L 202.574219 69.335938 L 198.832031 67.746094 L 202.453125 66.210938 L 200.753906 65.367188 L 200.753906 59.304688 L 180.175781 59.304688 "/>
</g>
<path style=" stroke:none;fill-rule:nonzero;fill:rgb(0%,0%,0%);fill-opacity:1;" d="M 180.027344 57.515625 C 178.972656 57.515625 178.117188 58.367188 178.117188 59.421875 C 178.117188 60.476562 178.972656 61.328125 180.027344 61.328125 C 181.078125 61.328125 181.933594 60.476562 181.933594 59.421875 C 181.933594 58.367188 181.078125 57.515625 180.027344 57.515625 Z M 180.027344 57.515625 "/>
<path style="fill-rule:nonzero;fill:rgb(100%,100%,100%);fill-opacity:1;stroke-width:0.8;stroke-linecap:round;stroke-linejoin:miter;stroke:rgb(100%,100%,100%);stroke-opacity:1;stroke-miterlimit:4;" d="M 196.296875 85.941406 L 205.339844 85.941406 L 205.339844 88.554688 L 196.296875 88.554688 Z M 196.296875 85.941406 "/>
<path style="fill:none;stroke-width:1.6;stroke-linecap:butt;stroke-linejoin:miter;stroke:rgb(0%,0%,0%);stroke-opacity:1;stroke-miterlimit:4;" d="M 195.121094 85.929688 L 206.320312 85.929688 "/>
<path style="fill:none;stroke-width:1.2;stroke-linecap:butt;stroke-linejoin:miter;stroke:rgb(0%,0%,0%);stroke-opacity:1;stroke-miterlimit:4;" d="M 205.355469 89.707031 C 203.3125 87.902344 198.261719 87.929688 196.277344 89.714844 "/>
<path style="fill:none;stroke-width:1.2;stroke-linecap:round;stroke-linejoin:miter;stroke:rgb(0%,0%,0%);stroke-opacity:1;stroke-miterlimit:4;" d="M -205.324219 97.769531 L -196.21875 97.769531 " transform="matrix(-1,0,0,1,0,0)"/>
<path style="fill:none;stroke-width:1.2;stroke-linecap:round;stroke-linejoin:miter;stroke:rgb(0%,0%,0%);stroke-opacity:1;stroke-miterlimit:4;" d="M -203.265625 100.570312 L -198.277344 100.570312 " transform="matrix(-1,0,0,1,0,0)"/>
<g clip-path="url(#clip6)" clip-rule="nonzero">
<path style="fill:none;stroke-width:1.2;stroke-linecap:round;stroke-linejoin:miter;stroke:rgb(0%,0%,0%);stroke-opacity:1;stroke-miterlimit:4;" d="M -201.6875 103.375 L -199.859375 103.375 " transform="matrix(-1,0,0,1,0,0)"/>
</g>
<path style="fill:none;stroke-width:1.2;stroke-linecap:butt;stroke-linejoin:miter;stroke:rgb(0%,0%,0%);stroke-opacity:1;stroke-miterlimit:4;" d="M 216.921875 81.332031 L 200.546875 81.332031 "/>
<path style=" stroke:none;fill-rule:nonzero;fill:rgb(0%,0%,0%);fill-opacity:1;" d="M 200.695312 79.542969 C 199.640625 79.542969 198.785156 80.398438 198.785156 81.449219 C 198.785156 82.503906 199.640625 83.359375 200.695312 83.359375 C 201.75 83.359375 202.601562 82.503906 202.601562 81.449219 C 202.601562 80.398438 201.75 79.542969 200.695312 79.542969 Z M 200.695312 79.542969 "/>
<path style=" stroke:none;fill-rule:evenodd;fill:rgb(100%,100%,100%);fill-opacity:1;" d="M 212.992188 77.839844 L 212.992188 84.515625 L 223.046875 84.515625 L 226.296875 81.261719 L 222.960938 77.925781 Z M 212.992188 77.839844 "/>
<g clip-path="url(#clip7)" clip-rule="nonzero">
<path style="fill:none;stroke-width:1.2;stroke-linecap:butt;stroke-linejoin:miter;stroke:rgb(0%,0%,0%);stroke-opacity:1;stroke-miterlimit:4;" d="M 212.992188 77.839844 L 212.992188 84.515625 L 223.046875 84.515625 L 226.296875 81.261719 L 222.960938 77.925781 Z M 212.992188 77.839844 "/>
</g>
<path style=" stroke:none;fill-rule:nonzero;fill:rgb(0%,0%,0%);fill-opacity:1;" d="M 210.628906 73.441406 L 207.863281 66.285156 L 208.878906 66.285156 L 210.753906 71.488281 C 210.898438 71.90625 211.023438 72.296875 211.128906 72.660156 C 211.230469 72.265625 211.355469 71.875 211.503906 71.488281 L 213.441406 66.285156 L 214.410156 66.285156 L 211.613281 73.441406 Z M 210.628906 73.441406 "/>
<path style=" stroke:none;fill-rule:nonzero;fill:rgb(0%,0%,0%);fill-opacity:1;" d="M 214.671875 75.355469 L 214.671875 71.058594 L 216.578125 71.058594 C 216.960938 71.058594 217.253906 71.101562 217.453125 71.183594 C 217.648438 71.257812 217.804688 71.394531 217.921875 71.589844 C 218.046875 71.777344 218.109375 71.992188 218.109375 72.230469 C 218.109375 72.535156 218.007812 72.789062 217.8125 72.996094 C 217.613281 73.207031 217.3125 73.339844 216.90625 73.402344 C 217.050781 73.476562 217.160156 73.550781 217.234375 73.621094 C 217.398438 73.769531 217.5625 73.957031 217.71875 74.183594 L 218.453125 75.355469 L 217.75 75.355469 L 217.171875 74.464844 C 217.003906 74.207031 216.867188 74.007812 216.765625 73.871094 C 216.660156 73.738281 216.5625 73.644531 216.46875 73.589844 C 216.382812 73.527344 216.300781 73.488281 216.21875 73.464844 C 216.15625 73.457031 216.050781 73.449219 215.90625 73.449219 L 215.25 73.449219 L 215.25 75.355469 Z M 215.25 72.949219 L 216.46875 72.949219 C 216.726562 72.949219 216.929688 72.925781 217.078125 72.871094 C 217.222656 72.820312 217.332031 72.738281 217.40625 72.621094 C 217.476562 72.496094 217.515625 72.367188 217.515625 72.230469 C 217.515625 72.035156 217.441406 71.867188 217.296875 71.730469 C 217.148438 71.597656 216.921875 71.527344 216.609375 71.527344 L 215.25 71.527344 Z M 215.25 72.949219 "/>
<path style=" stroke:none;fill-rule:nonzero;fill:rgb(0%,0%,0%);fill-opacity:1;" d="M 219.160156 75.355469 L 219.160156 71.058594 L 222.269531 71.058594 L 222.269531 71.574219 L 219.738281 71.574219 L 219.738281 72.886719 L 222.113281 72.886719 L 222.113281 73.386719 L 219.738281 73.386719 L 219.738281 74.855469 L 222.378906 74.855469 L 222.378906 75.355469 Z M 219.160156 75.355469 "/>
<path style=" stroke:none;fill-rule:nonzero;fill:rgb(0%,0%,0%);fill-opacity:1;" d="M 223.34375 75.355469 L 223.34375 71.058594 L 226.234375 71.058594 L 226.234375 71.574219 L 223.90625 71.574219 L 223.90625 72.902344 L 225.921875 72.902344 L 225.921875 73.402344 L 223.90625 73.402344 L 223.90625 75.355469 Z M 223.34375 75.355469 "/>
<path style=" stroke:none;fill-rule:nonzero;fill:rgb(0%,0%,0%);fill-opacity:1;" d="M 32.507812 91.328125 L 32.507812 85.59375 L 35.054688 85.59375 C 35.5625 85.59375 35.949219 85.648438 36.210938 85.75 C 36.480469 85.855469 36.695312 86.039062 36.851562 86.296875 C 37.007812 86.558594 37.085938 86.84375 37.085938 87.15625 C 37.085938 87.5625 36.953125 87.90625 36.695312 88.1875 C 36.433594 88.46875 36.027344 88.648438 35.476562 88.71875 C 35.671875 88.8125 35.824219 88.90625 35.929688 89 C 36.15625 89.210938 36.371094 89.464844 36.570312 89.765625 L 37.554688 91.328125 L 36.601562 91.328125 L 35.851562 90.140625 C 35.632812 89.796875 35.449219 89.539062 35.304688 89.359375 C 35.15625 89.171875 35.027344 89.042969 34.914062 88.96875 C 34.796875 88.898438 34.683594 88.84375 34.570312 88.8125 C 34.484375 88.792969 34.34375 88.78125 34.148438 88.78125 L 33.273438 88.78125 L 33.273438 91.328125 Z M 33.273438 88.125 L 34.898438 88.125 C 35.242188 88.125 35.511719 88.089844 35.710938 88.015625 C 35.90625 87.945312 36.054688 87.828125 36.148438 87.671875 C 36.25 87.515625 36.304688 87.34375 36.304688 87.15625 C 36.304688 86.886719 36.203125 86.667969 36.007812 86.5 C 35.820312 86.324219 35.511719 86.234375 35.085938 86.234375 L 33.273438 86.234375 Z M 33.273438 88.125 "/>
<path style=" stroke:none;fill-rule:nonzero;fill:rgb(0%,0%,0%);fill-opacity:1;" d="M 39.523438 92.929688 L 39.085938 92.929688 L 39.085938 90.132812 C 38.980469 90.226562 38.839844 90.328125 38.664062 90.429688 C 38.496094 90.535156 38.34375 90.613281 38.210938 90.664062 L 38.210938 90.226562 C 38.449219 90.113281 38.664062 89.976562 38.851562 89.820312 C 39.039062 89.65625 39.167969 89.492188 39.242188 89.335938 L 39.523438 89.335938 Z M 39.523438 92.929688 "/>
<path style=" stroke:none;fill-rule:nonzero;fill:rgb(0%,0%,0%);fill-opacity:1;" d="M 167.03125 71.527344 L 167.03125 65.792969 L 169.578125 65.792969 C 170.085938 65.792969 170.472656 65.847656 170.734375 65.949219 C 171.003906 66.054688 171.21875 66.238281 171.375 66.496094 C 171.53125 66.757812 171.609375 67.042969 171.609375 67.355469 C 171.609375 67.761719 171.476562 68.105469 171.21875 68.386719 C 170.957031 68.667969 170.550781 68.847656 170 68.917969 C 170.195312 69.011719 170.347656 69.105469 170.453125 69.199219 C 170.679688 69.410156 170.894531 69.664062 171.09375 69.964844 L 172.078125 71.527344 L 171.125 71.527344 L 170.375 70.339844 C 170.15625 69.996094 169.972656 69.738281 169.828125 69.558594 C 169.679688 69.371094 169.550781 69.242188 169.4375 69.167969 C 169.320312 69.097656 169.207031 69.042969 169.09375 69.011719 C 169.007812 68.992188 168.867188 68.980469 168.671875 68.980469 L 167.796875 68.980469 L 167.796875 71.527344 Z M 167.796875 68.324219 L 169.421875 68.324219 C 169.765625 68.324219 170.035156 68.289062 170.234375 68.214844 C 170.429688 68.144531 170.578125 68.027344 170.671875 67.871094 C 170.773438 67.714844 170.828125 67.542969 170.828125 67.355469 C 170.828125 67.085938 170.726562 66.867188 170.53125 66.699219 C 170.34375 66.523438 170.035156 66.433594 169.609375 66.433594 L 167.796875 66.433594 Z M 167.796875 68.324219 "/>
<path style=" stroke:none;fill-rule:nonzero;fill:rgb(0%,0%,0%);fill-opacity:1;" d="M 174.703125 72.707031 L 174.703125 73.128906 L 172.34375 73.128906 C 172.332031 73.027344 172.347656 72.921875 172.390625 72.816406 C 172.453125 72.660156 172.546875 72.503906 172.671875 72.347656 C 172.804688 72.191406 173 72.011719 173.25 71.800781 C 173.644531 71.488281 173.910156 71.238281 174.046875 71.050781 C 174.179688 70.863281 174.25 70.6875 174.25 70.519531 C 174.25 70.34375 174.1875 70.199219 174.0625 70.082031 C 173.9375 69.957031 173.773438 69.894531 173.578125 69.894531 C 173.359375 69.894531 173.1875 69.964844 173.0625 70.097656 C 172.9375 70.222656 172.875 70.394531 172.875 70.613281 L 172.421875 70.566406 C 172.453125 70.234375 172.566406 69.980469 172.765625 69.800781 C 172.972656 69.625 173.242188 69.535156 173.578125 69.535156 C 173.921875 69.535156 174.191406 69.636719 174.390625 69.832031 C 174.597656 70.019531 174.703125 70.253906 174.703125 70.535156 C 174.703125 70.671875 174.671875 70.8125 174.609375 70.957031 C 174.554688 71.09375 174.457031 71.238281 174.3125 71.394531 C 174.175781 71.542969 173.953125 71.75 173.640625 72.019531 C 173.378906 72.238281 173.207031 72.390625 173.125 72.472656 C 173.050781 72.546875 172.992188 72.625 172.953125 72.707031 Z M 174.703125 72.707031 "/>
<path style=" stroke:none;fill-rule:nonzero;fill:rgb(0%,0%,0%);fill-opacity:1;" d="M 166.476562 91.257812 L 166.476562 85.523438 L 169.023438 85.523438 C 169.53125 85.523438 169.917969 85.578125 170.179688 85.679688 C 170.449219 85.785156 170.664062 85.96875 170.820312 86.226562 C 170.976562 86.488281 171.054688 86.773438 171.054688 87.085938 C 171.054688 87.492188 170.921875 87.835938 170.664062 88.117188 C 170.402344 88.398438 169.996094 88.578125 169.445312 88.648438 C 169.640625 88.742188 169.792969 88.835938 169.898438 88.929688 C 170.125 89.140625 170.339844 89.394531 170.539062 89.695312 L 171.523438 91.257812 L 170.570312 91.257812 L 169.820312 90.070312 C 169.601562 89.726562 169.417969 89.46875 169.273438 89.289062 C 169.125 89.101562 168.996094 88.972656 168.882812 88.898438 C 168.765625 88.828125 168.652344 88.773438 168.539062 88.742188 C 168.453125 88.722656 168.3125 88.710938 168.117188 88.710938 L 167.242188 88.710938 L 167.242188 91.257812 Z M 167.242188 88.054688 L 168.867188 88.054688 C 169.210938 88.054688 169.480469 88.019531 169.679688 87.945312 C 169.875 87.875 170.023438 87.757812 170.117188 87.601562 C 170.21875 87.445312 170.273438 87.273438 170.273438 87.085938 C 170.273438 86.816406 170.171875 86.597656 169.976562 86.429688 C 169.789062 86.253906 169.480469 86.164062 169.054688 86.164062 L 167.242188 86.164062 Z M 167.242188 88.054688 "/>
<path style=" stroke:none;fill-rule:nonzero;fill:rgb(0%,0%,0%);fill-opacity:1;" d="M 171.835938 91.921875 L 172.289062 91.859375 C 172.328125 92.109375 172.414062 92.292969 172.539062 92.40625 C 172.664062 92.511719 172.808594 92.5625 172.976562 92.5625 C 173.183594 92.5625 173.359375 92.492188 173.507812 92.34375 C 173.652344 92.199219 173.726562 92.023438 173.726562 91.8125 C 173.726562 91.617188 173.65625 91.449219 173.523438 91.3125 C 173.386719 91.179688 173.21875 91.109375 173.023438 91.109375 C 172.9375 91.109375 172.835938 91.132812 172.710938 91.171875 L 172.757812 90.78125 C 172.789062 90.78125 172.8125 90.78125 172.835938 90.78125 C 173.023438 90.78125 173.1875 90.734375 173.335938 90.640625 C 173.480469 90.539062 173.554688 90.386719 173.554688 90.1875 C 173.554688 90.023438 173.496094 89.886719 173.382812 89.78125 C 173.277344 89.679688 173.140625 89.625 172.976562 89.625 C 172.796875 89.625 172.652344 89.683594 172.539062 89.796875 C 172.433594 89.902344 172.359375 90.058594 172.320312 90.265625 L 171.882812 90.1875 C 171.933594 89.898438 172.054688 89.671875 172.242188 89.515625 C 172.4375 89.351562 172.679688 89.265625 172.960938 89.265625 C 173.15625 89.265625 173.335938 89.308594 173.492188 89.390625 C 173.65625 89.476562 173.78125 89.589844 173.867188 89.734375 C 173.960938 89.882812 174.007812 90.039062 174.007812 90.203125 C 174.007812 90.351562 173.964844 90.492188 173.882812 90.625 C 173.796875 90.75 173.679688 90.851562 173.523438 90.921875 C 173.730469 90.976562 173.890625 91.078125 174.007812 91.234375 C 174.121094 91.382812 174.179688 91.570312 174.179688 91.796875 C 174.179688 92.109375 174.0625 92.375 173.835938 92.59375 C 173.617188 92.8125 173.328125 92.921875 172.976562 92.921875 C 172.664062 92.921875 172.402344 92.828125 172.195312 92.640625 C 171.984375 92.453125 171.867188 92.214844 171.835938 91.921875 Z M 171.835938 91.921875 "/>
<path style=" stroke:none;fill-rule:nonzero;fill:rgb(0%,0%,0%);fill-opacity:1;" d="M 186.859375 73.851562 L 186.859375 68.117188 L 189.40625 68.117188 C 189.914062 68.117188 190.300781 68.171875 190.5625 68.273438 C 190.832031 68.378906 191.046875 68.5625 191.203125 68.820312 C 191.359375 69.082031 191.4375 69.367188 191.4375 69.679688 C 191.4375 70.085938 191.304688 70.429688 191.046875 70.710938 C 190.785156 70.992188 190.378906 71.171875 189.828125 71.242188 C 190.023438 71.335938 190.175781 71.429688 190.28125 71.523438 C 190.507812 71.734375 190.722656 71.988281 190.921875 72.289062 L 191.90625 73.851562 L 190.953125 73.851562 L 190.203125 72.664062 C 189.984375 72.320312 189.800781 72.0625 189.65625 71.882812 C 189.507812 71.695312 189.378906 71.566406 189.265625 71.492188 C 189.148438 71.421875 189.035156 71.367188 188.921875 71.335938 C 188.835938 71.316406 188.695312 71.304688 188.5 71.304688 L 187.625 71.304688 L 187.625 73.851562 Z M 187.625 70.648438 L 189.25 70.648438 C 189.59375 70.648438 189.863281 70.613281 190.0625 70.539062 C 190.257812 70.46875 190.40625 70.351562 190.5 70.195312 C 190.601562 70.039062 190.65625 69.867188 190.65625 69.679688 C 190.65625 69.410156 190.554688 69.191406 190.359375 69.023438 C 190.171875 68.847656 189.863281 68.757812 189.4375 68.757812 L 187.625 68.757812 Z M 187.625 70.648438 "/>
<path style=" stroke:none;fill-rule:nonzero;fill:rgb(0%,0%,0%);fill-opacity:1;" d="M 192.109375 75.453125 L 192.109375 75.015625 L 193.953125 72.71875 C 194.078125 72.5625 194.203125 72.421875 194.328125 72.296875 L 192.328125 72.296875 L 192.328125 71.875 L 194.890625 71.875 L 194.890625 72.296875 L 192.875 74.78125 L 192.65625 75.03125 L 194.953125 75.03125 L 194.953125 75.453125 Z M 192.109375 75.453125 "/>
<path style=" stroke:none;fill-rule:nonzero;fill:rgb(0%,0%,0%);fill-opacity:1;" d="M 191.210938 90.769531 L 191.976562 90.972656 C 191.808594 91.589844 191.515625 92.0625 191.101562 92.394531 C 190.695312 92.71875 190.195312 92.878906 189.601562 92.878906 C 188.984375 92.878906 188.480469 92.753906 188.085938 92.503906 C 187.699219 92.253906 187.40625 91.890625 187.210938 91.410156 C 187.011719 90.933594 186.914062 90.421875 186.914062 89.878906 C 186.914062 89.285156 187.023438 88.765625 187.242188 88.316406 C 187.46875 87.871094 187.792969 87.53125 188.210938 87.300781 C 188.636719 87.074219 189.105469 86.957031 189.617188 86.957031 C 190.1875 86.957031 190.667969 87.105469 191.054688 87.394531 C 191.449219 87.6875 191.71875 88.097656 191.867188 88.628906 L 191.132812 88.800781 C 190.996094 88.386719 190.796875 88.082031 190.539062 87.894531 C 190.289062 87.707031 189.976562 87.613281 189.601562 87.613281 C 189.152344 87.613281 188.78125 87.71875 188.492188 87.925781 C 188.199219 88.136719 187.992188 88.417969 187.867188 88.769531 C 187.75 89.125 187.695312 89.496094 187.695312 89.878906 C 187.695312 90.359375 187.761719 90.78125 187.898438 91.144531 C 188.042969 91.511719 188.261719 91.785156 188.554688 91.972656 C 188.855469 92.152344 189.183594 92.238281 189.539062 92.238281 C 189.964844 92.238281 190.324219 92.121094 190.617188 91.878906 C 190.90625 91.628906 191.105469 91.261719 191.210938 90.769531 Z M 191.210938 90.769531 "/>
<path style=" stroke:none;fill-rule:nonzero;fill:rgb(0%,0%,0%);fill-opacity:1;" d="M 192.648438 94.386719 L 192.648438 90.808594 L 193.132812 90.808594 L 193.132812 93.964844 L 194.898438 93.964844 L 194.898438 94.386719 Z M 192.648438 94.386719 "/>
<path style=" stroke:none;fill-rule:nonzero;fill:rgb(0%,0%,0%);fill-opacity:1;" d="M 119.707031 67.570312 L 119.707031 61.835938 L 121.847656 61.835938 C 122.285156 61.835938 122.632812 61.898438 122.894531 62.023438 C 123.164062 62.140625 123.371094 62.316406 123.519531 62.554688 C 123.675781 62.796875 123.753906 63.046875 123.753906 63.304688 C 123.753906 63.554688 123.683594 63.789062 123.550781 64.007812 C 123.414062 64.21875 123.210938 64.390625 122.941406 64.523438 C 123.292969 64.628906 123.558594 64.804688 123.738281 65.054688 C 123.925781 65.296875 124.019531 65.582031 124.019531 65.914062 C 124.019531 66.175781 123.960938 66.425781 123.847656 66.664062 C 123.742188 66.894531 123.605469 67.070312 123.441406 67.195312 C 123.273438 67.320312 123.058594 67.414062 122.800781 67.476562 C 122.550781 67.539062 122.242188 67.570312 121.878906 67.570312 Z M 120.457031 64.242188 L 121.691406 64.242188 C 122.035156 64.242188 122.277344 64.222656 122.425781 64.179688 C 122.613281 64.128906 122.753906 64.035156 122.847656 63.898438 C 122.949219 63.765625 123.003906 63.597656 123.003906 63.398438 C 123.003906 63.210938 122.957031 63.046875 122.863281 62.898438 C 122.769531 62.753906 122.636719 62.65625 122.472656 62.601562 C 122.304688 62.550781 122.011719 62.523438 121.597656 62.523438 L 120.457031 62.523438 Z M 120.457031 66.898438 L 121.878906 66.898438 C 122.128906 66.898438 122.300781 66.890625 122.394531 66.867188 C 122.570312 66.835938 122.714844 66.785156 122.832031 66.710938 C 122.957031 66.640625 123.054688 66.535156 123.128906 66.398438 C 123.199219 66.253906 123.238281 66.09375 123.238281 65.914062 C 123.238281 65.695312 123.179688 65.507812 123.066406 65.351562 C 122.960938 65.195312 122.808594 65.085938 122.613281 65.023438 C 122.425781 64.960938 122.148438 64.929688 121.785156 64.929688 L 120.457031 64.929688 Z M 120.457031 66.898438 "/>
<path style=" stroke:none;fill-rule:nonzero;fill:rgb(0%,0%,0%);fill-opacity:1;" d="M 126.316406 69.167969 L 125.878906 69.167969 L 125.878906 66.371094 C 125.773438 66.464844 125.632812 66.566406 125.457031 66.667969 C 125.289062 66.773438 125.136719 66.851562 125.003906 66.902344 L 125.003906 66.464844 C 125.242188 66.351562 125.457031 66.214844 125.644531 66.058594 C 125.832031 65.894531 125.960938 65.730469 126.035156 65.574219 L 126.316406 65.574219 Z M 126.316406 69.167969 "/>
<path style=" stroke:none;fill-rule:nonzero;fill:rgb(0%,0%,0%);fill-opacity:1;" d="M 155.199219 40.132812 L 157.402344 34.398438 L 158.214844 34.398438 L 160.558594 40.132812 L 159.699219 40.132812 L 159.027344 38.398438 L 156.636719 38.398438 L 156.011719 40.132812 Z M 156.855469 37.773438 L 158.792969 37.773438 L 158.199219 36.195312 C 158.019531 35.71875 157.886719 35.320312 157.792969 35.007812 C 157.71875 35.375 157.613281 35.738281 157.480469 36.101562 Z M 156.855469 37.773438 "/>
<path style=" stroke:none;fill-rule:nonzero;fill:rgb(0%,0%,0%);fill-opacity:1;" d="M 162.417969 41.734375 L 161.980469 41.734375 L 161.980469 38.9375 C 161.875 39.03125 161.734375 39.132812 161.558594 39.234375 C 161.390625 39.339844 161.238281 39.417969 161.105469 39.46875 L 161.105469 39.03125 C 161.34375 38.917969 161.558594 38.78125 161.746094 38.625 C 161.933594 38.460938 162.0625 38.296875 162.136719 38.140625 L 162.417969 38.140625 Z M 162.417969 41.734375 "/>
</g>
</svg>
