<?xml version="1.0" encoding="UTF-8" standalone="no"?>
<svg
   width="208.052795pt"
   height="92.039009pt"
   viewBox="0 0 208.052795 92.039009"
   version="1.1"
   id="svg4035"
   sodipodi:docname="REG.svg"
   inkscape:version="1.2 (dc2aedaf03, 2022-05-15)"
   xmlns:inkscape="http://www.inkscape.org/namespaces/inkscape"
   xmlns:sodipodi="http://sodipodi.sourceforge.net/DTD/sodipodi-0.dtd"
   xmlns="http://www.w3.org/2000/svg"
   xmlns:svg="http://www.w3.org/2000/svg">
  <sodipodi:namedview
     id="namedview4037"
     pagecolor="#505050"
     bordercolor="#eeeeee"
     borderopacity="1"
     inkscape:showpageshadow="0"
     inkscape:pageopacity="0"
     inkscape:pagecheckerboard="0"
     inkscape:deskcolor="#505050"
     inkscape:document-units="pt"
     showgrid="false"
     inkscape:zoom="3.1301927"
     inkscape:cx="223.30893"
     inkscape:cy="34.183199"
     inkscape:window-width="960"
     inkscape:window-height="1027"
     inkscape:window-x="-8"
     inkscape:window-y="-8"
     inkscape:window-maximized="0"
     inkscape:current-layer="svg4035" />
  <defs
     id="defs3734">
    <clipPath
       id="clip1">
      <path
         d="M 72 90 L 76 90 L 76 92.039062 L 72 92.039062 Z M 72 90 "
         id="path3722" />
    </clipPath>
    <clipPath
       id="clip2">
      <path
         d="M 141 59 L 169 59 L 169 92.039062 L 141 92.039062 Z M 141 59 "
         id="path3725" />
    </clipPath>
    <clipPath
       id="clip3">
      <path
         d="M 169 58 L 197 58 L 197 92.039062 L 169 92.039062 Z M 169 58 "
         id="path3728" />
    </clipPath>
    <clipPath
       id="clip4">
      <path
         d="M 187 66 L 208.054688 66 L 208.054688 87 L 187 87 Z M 187 66 "
         id="path3731" />
    </clipPath>
  </defs>
  <path
     style="fill:none;stroke:#ffffff;stroke-width:1.2;stroke-linecap:butt;stroke-linejoin:miter;stroke-miterlimit:4;stroke-opacity:1"
     d="m 19.456729,73.46875 31.308896,0"
     id="path3736"
     sodipodi:nodetypes="cc" />
  <path
     style="fill:none;stroke:#ffffff;stroke-width:1.2;stroke-linecap:butt;stroke-linejoin:miter;stroke-miterlimit:4;stroke-opacity:1"
     d="M 50.339844,37.6875 H 37.613281 v 35.921875"
     id="path3738" />
  <path
     style="fill:none;stroke:#ffffff;stroke-width:1.2;stroke-linecap:butt;stroke-linejoin:miter;stroke-miterlimit:4;stroke-opacity:1"
     d="m 145.83984,32.820312 0,-9.112954 m 0,-2.254351 0,-3.39246 v -4.919922"
     id="path3740"
     sodipodi:nodetypes="ccccc" />
  <path
     style="fill:none;stroke:#ffffff;stroke-width:1.2;stroke-linecap:butt;stroke-linejoin:miter;stroke-miterlimit:4;stroke-opacity:1"
     d="m 167.43554,50.4375 -27.24413,0 v 9.744485"
     id="path3742"
     sodipodi:nodetypes="ccc" />
  <path
     style="fill:none;stroke:#ffffff;stroke-width:1.2;stroke-linecap:butt;stroke-linejoin:miter;stroke-miterlimit:4;stroke-opacity:1"
     d="m 161.55997,76.136719 h 8.12211 l 6.04666,0 m 13.58604,0 4.73363,0"
     id="path3744"
     sodipodi:nodetypes="ccccc" />
  <path
     style="fill:none;stroke:#ffffff;stroke-width:1.2;stroke-linecap:butt;stroke-linejoin:miter;stroke-miterlimit:4;stroke-opacity:1"
     d="m 140.28125,59.789062 v 11.914063 l 7.8619,0"
     id="path3746"
     sodipodi:nodetypes="ccc" />
  <path
     style="fill:none;stroke:#ffffff;stroke-width:1.2;stroke-linecap:butt;stroke-linejoin:miter;stroke-miterlimit:4;stroke-opacity:1"
     d="m 140.25,85.332031 v -4.859375 l 7.8416,0"
     id="path3748"
     sodipodi:nodetypes="ccc" />
  <path
     style="fill:none;stroke:#ffffff;stroke-width:1.2;stroke-linecap:butt;stroke-linejoin:miter;stroke-miterlimit:4;stroke-opacity:1"
     d="m 73.996094,86.074219 v -6.543945 -4.892061 m 0,-11.372532 0,-3.367244 v -6.543945 l 0,-2.477767 m 0,-11.28782 0,-5.866249 h 17.945313 17.945313 v 5.85509 m 0,11.276082 0,2.500664 v 6.543945 l 0,3.579024 m 0,11.584312 0,4.468501 v 6.543945"
     id="path3750"
     sodipodi:nodetypes="ccccccccccccccccccc" />
  <path
     style="fill:none;stroke:#ffffff;stroke-width:1.2;stroke-linecap:butt;stroke-linejoin:miter;stroke-miterlimit:4;stroke-opacity:1"
     d="m 73.316406,51.050781 h 7.503906 V 39.730469 H 73.3125"
     id="path3754" />
  <path
     style="fill:none;stroke:#ffffff;stroke-width:1.6;stroke-linecap:butt;stroke-linejoin:miter;stroke-miterlimit:4;stroke-opacity:1"
     d="M 83.152344,51.753906 V 39.023438"
     id="path3756" />
  <path
     style="fill:#ffffff;fill-opacity:1;fill-rule:nonzero;stroke:none"
     d="m 81.394531,39.710938 -1.804687,0.980468 -1.808594,0.980469 v -3.925781 l 1.808594,0.984375 z m 0,0"
     id="path3758" />
  <path
     style="fill:none;stroke:#ffffff;stroke-width:1.2;stroke-linecap:butt;stroke-linejoin:miter;stroke-miterlimit:4;stroke-opacity:1"
     d="m 86.089844,56.859375 3.964844,-5.265625 c 2.304687,1.332031 4.4375,-2.152344 2.96875,-3.617188 l 2.640624,-3.21875 4.835938,-0.01562"
     id="path3760" />
  <path
     style="fill:none;stroke:#ffffff;stroke-width:1.2;stroke-linecap:butt;stroke-linejoin:miter;stroke-miterlimit:4;stroke-opacity:1"
     d="M 110.50391,51.050781 H 103 V 39.730469 h 7.50781"
     id="path3764" />
  <path
     style="fill:none;stroke:#ffffff;stroke-width:1.6;stroke-linecap:butt;stroke-linejoin:miter;stroke-miterlimit:4;stroke-opacity:1"
     d="M 100.66797,51.753906 V 39.023438"
     id="path3766" />
  <path
     style="fill:#ffffff;fill-opacity:1;fill-rule:nonzero;stroke:none"
     d="m 102.42188,39.710938 1.80859,0.980468 1.80469,0.980469 v -3.925781 l -1.80469,0.984375 z m 0,0"
     id="path3768" />
  <path
     style="fill:none;stroke:#ffffff;stroke-width:1.2;stroke-linecap:butt;stroke-linejoin:miter;stroke-miterlimit:4;stroke-opacity:1"
     d="M 97.40625,56.863281 87.539062,44.820312 82.703125,44.808594"
     id="path3770" />
  <path
     style="fill:none;fill-opacity:1;fill-rule:evenodd;stroke:#ffffff;stroke-width:1.2;stroke-linecap:butt;stroke-linejoin:miter;stroke-miterlimit:4;stroke-opacity:1"
     d="m 110.54688,74.835938 h -7.50391 V 63.511719 h 7.50781"
     id="path3774" />
  <path
     style="fill:none;stroke:#ffffff;stroke-width:1.6;stroke-linecap:butt;stroke-linejoin:miter;stroke-miterlimit:4;stroke-opacity:1"
     d="M 100.71094,75.539062 V 62.808594"
     id="path3776" />
  <path
     style="fill:#ffffff;fill-opacity:1;fill-rule:nonzero;stroke:none"
     d="m 110.55078,74.835938 -1.80469,0.980468 -1.80859,0.980469 v -3.925781 l 1.80859,0.984375 z m 0,0"
     id="path3778" />
  <path
     style="fill:none;stroke:#ffffff;stroke-width:1.2;stroke-linecap:butt;stroke-linejoin:miter;stroke-miterlimit:4;stroke-opacity:1"
     d="m 73.28125,74.789062 h 7.503906 V 63.46875 h -7.507812"
     id="path3782" />
  <path
     style="fill:none;stroke:#ffffff;stroke-width:1.6;stroke-linecap:butt;stroke-linejoin:miter;stroke-miterlimit:4;stroke-opacity:1"
     d="M 83.117188,75.492188 V 62.761719"
     id="path3784" />
  <path
     style="fill:#ffffff;fill-opacity:1;fill-rule:nonzero;stroke:none"
     d="m 73.277344,74.789062 1.804687,0.980469 1.808594,0.984375 v -3.925781 l -1.808594,0.980469 z m 0,0"
     id="path3786" />
  <path
     style="fill:#ffffff;fill-opacity:1;fill-rule:nonzero;stroke:none"
     d="m 85.984375,55.09375 c 1,0 1.808594,0.808594 1.808594,1.804688 0,1 -0.808594,1.808593 -1.808594,1.808593 -0.996094,0 -1.804687,-0.808593 -1.804687,-1.808593 0,-0.996094 0.808593,-1.804688 1.804687,-1.804688 z m 0,0"
     id="path3788" />
  <path
     style="fill:#ffffff;fill-opacity:1;fill-rule:nonzero;stroke:none"
     d="m 97.398438,55.09375 c -0.996094,0 -1.804688,0.808594 -1.804688,1.804688 0,1 0.808594,1.808593 1.804688,1.808593 1,0 1.808593,-0.808593 1.808593,-1.808593 0,-0.996094 -0.808593,-1.804688 -1.808593,-1.804688 z m 0,0"
     id="path3790" />
  <path
     style="fill:none;stroke:#ffffff;stroke-width:1.2;stroke-linecap:butt;stroke-linejoin:miter;stroke-miterlimit:4;stroke-opacity:1"
     d="m 86.019531,57.300781 3.960938,5.265625 c 2.304687,-1.332031 4.4375,2.152344 2.972656,3.617188 l 2.636719,3.222656 4.835936,0.01563"
     id="path3792" />
  <path
     style="fill:none;stroke:#ffffff;stroke-width:1.2;stroke-linecap:butt;stroke-linejoin:miter;stroke-miterlimit:4;stroke-opacity:1"
     d="m 97.332031,57.296875 -9.863281,12.042969 -4.835938,0.01563"
     id="path3794" />
  <path
     style="fill:none;stroke:#ffffff;stroke-width:1.2;stroke-linecap:round;stroke-linejoin:miter;stroke-miterlimit:4;stroke-opacity:1"
     d="m 69.371094,85.832031 h 9.105468"
     id="path3796" />
  <path
     style="fill:none;stroke:#ffffff;stroke-width:1.2;stroke-linecap:round;stroke-linejoin:miter;stroke-miterlimit:4;stroke-opacity:1"
     d="m 71.429688,88.636719 h 4.988281"
     id="path3798" />
  <g
     clip-path="url(#clip1)"
     clip-rule="nonzero"
     id="g3802"
     style="stroke:#ffffff">
    <path
       style="fill:none;stroke:#ffffff;stroke-width:1.2;stroke-linecap:round;stroke-linejoin:miter;stroke-miterlimit:4;stroke-opacity:1"
       d="m 73.011719,91.4375 h 1.824219"
       id="path3800" />
  </g>
  <path
     style="fill:none;stroke:#ffffff;stroke-width:1.2;stroke-linecap:round;stroke-linejoin:miter;stroke-miterlimit:4;stroke-opacity:1"
     d="m 105.28125,85.78125 h 9.10938"
     id="path3804" />
  <path
     style="fill:none;stroke:#ffffff;stroke-width:1.2;stroke-linecap:round;stroke-linejoin:miter;stroke-miterlimit:4;stroke-opacity:1"
     d="m 107.34375,88.582031 h 4.98438"
     id="path3806" />
  <path
     style="fill:none;stroke:#ffffff;stroke-width:1.2;stroke-linecap:round;stroke-linejoin:miter;stroke-miterlimit:4;stroke-opacity:1"
     d="M 108.92188,91.386719 H 110.75"
     id="path3808" />
  <path
     style="fill:#ffffff;fill-opacity:1;fill-rule:nonzero;stroke:none"
     d="m 73.910156,55.136719 c -1,0 -1.808594,0.808593 -1.808594,1.804687 0,1 0.808594,1.808594 1.808594,1.808594 0.996094,0 1.804688,-0.808594 1.804688,-1.808594 0,-0.996094 -0.808594,-1.804687 -1.804688,-1.804687 z m 0,0"
     id="path3810" />
  <path
     style="fill:#ffffff;fill-opacity:1;fill-rule:nonzero;stroke:none"
     d="m 109.87891,55.214844 c -0.9961,0 -1.80469,0.808594 -1.80469,1.808594 0,0.996093 0.80859,1.804687 1.80469,1.804687 1,0 1.80859,-0.808594 1.80859,-1.804687 0,-1 -0.80859,-1.808594 -1.80859,-1.808594 z m 0,0"
     id="path3812" />
  <path
     style="fill:#ffffff;fill-opacity:1;fill-rule:nonzero;stroke:none"
     d="m 124.92715,31.951112 c -0.9961,0 -1.80469,0.808594 -1.80469,1.808594 0,0.996093 0.80859,1.804687 1.80469,1.804687 1,0 1.80859,-0.808594 1.80859,-1.804687 0,-1 -0.80859,-1.808594 -1.80859,-1.808594 z m 0,0"
     id="path3812-4" />
  <path
     style="fill:#ffffff;fill-opacity:1;fill-rule:nonzero;stroke:none"
     d="m 37.684636,71.808131 c -0.9961,0 -1.80469,0.808594 -1.80469,1.808594 0,0.996093 0.80859,1.804687 1.80469,1.804687 1,0 1.80859,-0.808594 1.80859,-1.804687 0,-1 -0.80859,-1.808594 -1.80859,-1.808594 z m 0,0"
     id="path3812-9" />
  <path
     style="fill:none;stroke:#ffffff;stroke-width:1.2;stroke-linecap:butt;stroke-linejoin:miter;stroke-miterlimit:4;stroke-opacity:1"
     d="m 87.363281,19.881206 0,11.704732 c 0,0 -0.273437,0.01172 -0.402343,0.04297 -0.132813,0.02734 -0.257813,0.06641 -0.378907,0.117188 -0.121093,0.05469 -0.234375,0.117187 -0.339843,0.191406 -0.105469,0.07422 -0.207032,0.160156 -0.296876,0.253906 -0.08984,0.09375 -0.171874,0.195313 -0.246093,0.304688 -0.07031,0.109375 -0.132813,0.226562 -0.183594,0.351562 -0.05078,0.121094 -0.08984,0.253906 -0.117187,0.386719 -0.02734,0.136719 -0.03906,0.273437 -0.03906,0.417969 0,0.140625 0.01172,0.28125 0.03906,0.414062 0.02734,0.136719 0.06641,0.265625 0.117187,0.390625 0.05078,0.121094 0.113281,0.238281 0.183594,0.347657 0.07422,0.113281 0.15625,0.214843 0.246093,0.308593 0.08984,0.09375 0.191407,0.175781 0.296876,0.25 0.105468,0.07422 0.21875,0.140625 0.339843,0.191407 0.121094,0.05469 0.246094,0.09375 0.378907,0.121093 0.128906,0.02734 0.265624,0.04297 0.402343,0.04297 v 9.199219"
     id="path3814"
     sodipodi:nodetypes="ccccsscccscccsscccc" />
  <path
     style="fill:none;stroke:#ffffff;stroke-width:1.2;stroke-linecap:butt;stroke-linejoin:miter;stroke-miterlimit:4;stroke-opacity:1"
     d="m 95.707031,19.97105 0,11.700825 c 0,0 0.273438,0.01563 0.402344,0.04297 0.132813,0.02734 0.257813,0.06641 0.378906,0.121094 0.117188,0.05078 0.234375,0.113281 0.339844,0.1875 0.105469,0.07422 0.207031,0.160156 0.296875,0.253906 0.08984,0.09375 0.171875,0.195312 0.246094,0.304687 0.07031,0.109375 0.132812,0.226563 0.183594,0.351563 0.05078,0.125 0.08984,0.253906 0.117187,0.386718 0.02734,0.136719 0.03906,0.273438 0.03906,0.417969 0,0.140625 -0.01172,0.28125 -0.03906,0.417969 -0.02734,0.132812 -0.06641,0.261719 -0.117187,0.386719 -0.05078,0.121093 -0.113282,0.242187 -0.183594,0.351562 -0.07422,0.109375 -0.15625,0.210938 -0.246094,0.304688 -0.08984,0.09375 -0.191406,0.179687 -0.296875,0.253906 -0.105469,0.07422 -0.222656,0.136719 -0.339844,0.1875 -0.121093,0.05469 -0.246093,0.09375 -0.378906,0.121094 -0.128906,0.02734 -0.265625,0.04297 -0.402344,0.04297 v 9.199218"
     id="path3816"
     sodipodi:nodetypes="ccccsscscscccsscccc" />
  <path
     style="fill:none;fill-opacity:1;fill-rule:nonzero;stroke:none"
     d="m 162.34375,76.480469 -14.29688,-9.414063 0.0195,9.449219 0.0195,9.445313 7.1289,-4.738282 z m 0,0"
     id="path3818" />
  <g
     clip-path="url(#clip2)"
     clip-rule="nonzero"
     id="g3822"
     transform="translate(0,-0.34943721)"
     style="stroke:#ffffff">
    <path
       style="fill:none;stroke:#ffffff;stroke-width:1.28471;stroke-linecap:butt;stroke-linejoin:miter;stroke-miterlimit:4;stroke-opacity:1"
       d="m 185.90858,-76.875586 -16.36633,9.448847 0.002,-9.449223 0.002,-9.445317 8.1812,4.720893 z m 0,0"
       transform="matrix(0.872465,-0.00212533,-0.00188646,-1,0,0)"
       id="path3820" />
  </g>
  <path
     style="fill:#ffffff;fill-opacity:1;fill-rule:nonzero;stroke:none"
     d="m 150.0625,71.857594 h 2.70312 v 0.875 h -2.70312 z m 0,0"
     id="path3824" />
  <path
     style="fill:#ffffff;fill-opacity:1;fill-rule:nonzero;stroke:none"
     d="m 151.26953,80.560719 v -1.578125 h -1.54687 v -0.65625 h 1.54687 v -1.5625 h 0.67188 v 1.5625 h 1.5625 v 0.65625 h -1.5625 v 1.578125 z m 0,0"
     id="path3826" />
  <path
     style="fill:#ffffff;fill-opacity:1;fill-rule:nonzero;stroke:none"
     d="m 154.13672,88.855469 2.20312,-5.734375 h 0.8125 l 2.34375,5.734375 h -0.85937 l -0.67188,-1.734375 h -2.39062 l -0.625,1.734375 z m 1.65625,-2.359375 h 1.9375 l -0.59375,-1.578125 c -0.17969,-0.476563 -0.3125,-0.875 -0.40625,-1.1875 -0.0742,0.367187 -0.17969,0.730469 -0.3125,1.09375 z m 0,0"
     id="path3828" />
  <path
     style="fill:#ffffff;fill-opacity:1;fill-rule:nonzero;stroke:none"
     d="m 162.01172,90.035156 v 0.421875 h -2.35938 c -0.0117,-0.101562 0.004,-0.207031 0.0469,-0.3125 0.0625,-0.15625 0.15625,-0.3125 0.28125,-0.46875 0.13281,-0.15625 0.32812,-0.335937 0.57812,-0.546875 0.39453,-0.3125 0.66016,-0.5625 0.79688,-0.75 0.13281,-0.1875 0.20312,-0.363281 0.20312,-0.53125 0,-0.175781 -0.0625,-0.320312 -0.1875,-0.4375 -0.125,-0.125 -0.28906,-0.1875 -0.48437,-0.1875 -0.21875,0 -0.39063,0.07031 -0.51563,0.203125 -0.125,0.125 -0.1875,0.296875 -0.1875,0.515625 l -0.45312,-0.04687 c 0.0312,-0.332031 0.14453,-0.585937 0.34375,-0.765625 0.20703,-0.175781 0.47656,-0.265625 0.8125,-0.265625 0.34375,0 0.61328,0.101563 0.8125,0.296875 0.20703,0.1875 0.3125,0.421875 0.3125,0.703125 0,0.136719 -0.0312,0.277344 -0.0937,0.421875 -0.0547,0.136719 -0.15235,0.28125 -0.29688,0.4375 -0.13672,0.148438 -0.35937,0.355469 -0.67187,0.625 -0.26172,0.21875 -0.4336,0.371094 -0.51563,0.453125 -0.0742,0.07422 -0.13281,0.152344 -0.17187,0.234375 z m 0,0"
     id="path3830" />
  <g
     clip-path="url(#clip3)"
     clip-rule="nonzero"
     id="g3836"
     transform="translate(0,0.56905442)"
     style="stroke:#ffffff">
    <path
       style="fill:none;stroke:#ffffff;stroke-width:1.28471;stroke-linecap:butt;stroke-linejoin:miter;stroke-miterlimit:4;stroke-opacity:1"
       d="m 217.4303,-76.028517 -16.36633,9.448846 0.002,-9.449223 0.002,-9.445317 8.1812,4.720894 z m 0,0"
       transform="matrix(0.872465,-0.00212533,-0.00188646,-1,0,0)"
       id="path3834" />
  </g>
  <path
     style="fill:none;stroke:#ffffff;stroke-width:0.8;stroke-linecap:butt;stroke-linejoin:miter;stroke-miterlimit:4;stroke-opacity:1"
     d="m 181.46094,72.701866 h -2 v 7.5 h -1.79688"
     id="path3838" />
  <path
     style="fill:#ffffff;fill-opacity:1;fill-rule:nonzero;stroke:none"
     d="m 177.76172,57.890625 v -4.5 h -0.78125 v -0.6875 h 0.78125 V 52.15625 c 0,-0.351562 0.0312,-0.613281 0.0937,-0.78125 0.082,-0.226562 0.22656,-0.410156 0.4375,-0.546875 0.21875,-0.144531 0.51953,-0.21875 0.90625,-0.21875 0.23828,0 0.50781,0.03125 0.8125,0.09375 l -0.125,0.765625 c -0.1875,-0.03125 -0.36719,-0.04687 -0.53125,-0.04687 -0.26172,0 -0.44922,0.05859 -0.5625,0.171875 -0.10547,0.105469 -0.15625,0.3125 -0.15625,0.625 v 0.484375 h 1 v 0.6875 h -1 v 4.5 z m 0,0"
     id="path3840" />
  <path
     style="fill:#ffffff;fill-opacity:1;fill-rule:nonzero;stroke:none"
     d="m 179.64453,59.890625 1.9375,-5.015625 h 0.70313 l 2.04687,5.015625 h -0.75 L 183.00391,58.375 h -2.09375 l -0.5625,1.515625 z m 1.45313,-2.0625 h 1.70312 L 182.26953,56.4375 c -0.15625,-0.414062 -0.27734,-0.757812 -0.35937,-1.03125 -0.0625,0.324219 -0.15235,0.640625 -0.26563,0.953125 z m 0,0"
     id="path3842" />
  <path
     style="fill:#ffffff;fill-opacity:1;fill-rule:nonzero;stroke:none"
     d="M 184.14453,59.890625 V 59.28125 l 2.5625,-3.21875 c 0.1875,-0.226562 0.36328,-0.425781 0.53125,-0.59375 h -2.79687 V 54.875 h 3.57812 v 0.59375 l -2.8125,3.484375 -0.29687,0.34375 h 3.20312 v 0.59375 z m 0,0"
     id="path3844" />
  <path
     style="fill:none;stroke:#ffffff;stroke-width:1.2;stroke-linecap:butt;stroke-linejoin:miter;stroke-miterlimit:4;stroke-opacity:1"
     d="M 168.58594,76.558594 V 61.438925 m -1.37771,-1.462363 h -11.53032 m -2.1559,0 -18.74833,0 m -2.42572,0 h -7.36749 V 33.75 H 88.234375"
     id="path3846"
     sodipodi:nodetypes="cccccccccc" />
  <path
     style="fill:none;stroke:#ffffff;stroke-width:1.2;stroke-linecap:round;stroke-linejoin:miter;stroke-miterlimit:4;stroke-opacity:1"
     d="m 135.69141,85.457031 h 9.10546"
     id="path3848" />
  <path
     style="fill:none;stroke:#ffffff;stroke-width:1.2;stroke-linecap:round;stroke-linejoin:miter;stroke-miterlimit:4;stroke-opacity:1"
     d="m 137.75,88.261719 h 4.98828"
     id="path3850" />
  <path
     style="fill:none;stroke:#ffffff;stroke-width:1.2;stroke-linecap:round;stroke-linejoin:miter;stroke-miterlimit:4;stroke-opacity:1"
     d="m 139.33203,91.0625 h 1.82813"
     id="path3852" />
  <path
     style="fill:none;stroke:#ffffff;stroke-width:1.6;stroke-linecap:butt;stroke-linejoin:miter;stroke-miterlimit:4;stroke-opacity:1"
     d="M 134.69531,54.304688 V 65.503906"
     id="path3856" />
  <path
     style="fill:none;stroke:#ffffff;stroke-width:1.2;stroke-linecap:butt;stroke-linejoin:miter;stroke-miterlimit:4;stroke-opacity:1"
     d="m 130.91797,64.539062 c 1.80859,-2.042968 1.78125,-7.089843 -0.004,-9.078124"
     id="path3858" />
  <path
     style="fill:#ffffff;fill-opacity:1;fill-rule:nonzero;stroke:none"
     d="m 140.30078,58.121094 c -1,0 -1.80859,0.808594 -1.80859,1.804687 0,1 0.80859,1.808594 1.80859,1.808594 0.99609,0 1.80469,-0.808594 1.80469,-1.808594 0,-0.996093 -0.8086,-1.804687 -1.80469,-1.804687 z m 0,0"
     id="path3860" />
  <path
     style="fill:none;stroke:#ffffff;stroke-width:1.6;stroke-linecap:butt;stroke-linejoin:miter;stroke-miterlimit:4;stroke-opacity:1"
     d="M 153.27344,65.785156 V 54.585938"
     id="path3864" />
  <path
     style="fill:none;stroke:#ffffff;stroke-width:1.2;stroke-linecap:butt;stroke-linejoin:miter;stroke-miterlimit:4;stroke-opacity:1"
     d="m 157.05078,55.554688 c -1.80469,2.039062 -1.77734,7.089843 0.008,9.074218"
     id="path3866" />
  <path
     style="fill:#ffffff;fill-opacity:1;fill-rule:nonzero;stroke:none"
     d="m 134.75,66.636719 v 0.9375 c -0.30469,-0.269531 -0.625,-0.472657 -0.96875,-0.609375 -0.33594,-0.144532 -0.6875,-0.21875 -1.0625,-0.21875 -0.75,0 -1.32813,0.230468 -1.73438,0.6875 -0.39843,0.460937 -0.59375,1.121094 -0.59375,1.984375 0,0.867187 0.19532,1.527343 0.59375,1.984375 0.40625,0.460937 0.98438,0.6875 1.73438,0.6875 0.375,0 0.72656,-0.06641 1.0625,-0.203125 0.34375,-0.132813 0.66406,-0.34375 0.96875,-0.625 v 0.9375 c -0.3125,0.210937 -0.64063,0.367187 -0.98438,0.46875 -0.34375,0.101562 -0.71484,0.15625 -1.10937,0.15625 -0.99219,0 -1.77344,-0.300781 -2.34375,-0.90625 -0.57422,-0.613281 -0.85938,-1.445313 -0.85938,-2.5 0,-1.050781 0.28516,-1.878907 0.85938,-2.484375 0.57031,-0.613282 1.35156,-0.921875 2.34375,-0.921875 0.39453,0 0.76562,0.05469 1.10937,0.15625 0.35157,0.105469 0.67969,0.261719 0.98438,0.46875 z m 0,0"
     id="path3868" />
  <path
     style="fill:#ffffff;fill-opacity:1;fill-rule:nonzero;stroke:none"
     d="m 135.49219,70.792969 h 0.5 v 3.640625 h -0.5 z m 0,0"
     id="path3870" />
  <path
     style="fill:#ffffff;fill-opacity:1;fill-rule:nonzero;stroke:none"
     d="m 163.98047,61.589844 v 0.9375 c -0.30469,-0.269532 -0.625,-0.472656 -0.96875,-0.609375 -0.33594,-0.144531 -0.6875,-0.21875 -1.0625,-0.21875 -0.75,0 -1.32813,0.230469 -1.73438,0.6875 -0.39843,0.460937 -0.59375,1.121093 -0.59375,1.984375 0,0.867187 0.19532,1.527344 0.59375,1.984375 0.40625,0.460937 0.98438,0.6875 1.73438,0.6875 0.375,0 0.72656,-0.06641 1.0625,-0.203125 0.34375,-0.132813 0.66406,-0.34375 0.96875,-0.625 v 0.9375 c -0.3125,0.210937 -0.64063,0.367187 -0.98438,0.46875 -0.34375,0.101562 -0.71484,0.15625 -1.10937,0.15625 -0.99219,0 -1.77344,-0.300782 -2.34375,-0.90625 -0.57422,-0.613282 -0.85938,-1.445313 -0.85938,-2.5 0,-1.050782 0.28516,-1.878906 0.85938,-2.484375 0.57031,-0.613281 1.35156,-0.921875 2.34375,-0.921875 0.39453,0 0.76562,0.05469 1.10937,0.15625 0.35157,0.105468 0.67969,0.261718 0.98438,0.46875 z m 0,0"
     id="path3872" />
  <path
     style="fill:#ffffff;fill-opacity:1;fill-rule:nonzero;stroke:none"
     d="m 164.72656,65.742188 h 2.09375 v 0.40625 h -1.59375 v 1.078124 h 1.4375 v 0.421876 h -1.4375 v 1.734374 h -0.5 z m 0,0"
     id="path3874" />
  <path
     style="fill:none;stroke:#ffffff;stroke-width:1.2;stroke-linecap:butt;stroke-linejoin:miter;stroke-miterlimit:4;stroke-opacity:1"
     d="m 174.56054,13.34375 -33.5332,0 -0.84375,-1.699219 -1.53906,3.621094 -1.58984,-3.742187 -1.50391,3.542968 -1.45312,-3.421875 -1.4336,3.371094 -1.4414,-3.398437 -1.50782,3.539062 -0.76953,-1.816406 h -3.89453 v 20.386718"
     id="path3876"
     sodipodi:nodetypes="ccccccccccccc" />
  <path
     style="fill:none;stroke:#ffffff;stroke-width:1.6;stroke-linecap:butt;stroke-linejoin:miter;stroke-miterlimit:4;stroke-opacity:1"
     d="m 140.26953,21.332031 h 11.19922"
     id="path3880" />
  <path
     style="fill:none;stroke:#ffffff;stroke-width:1.2;stroke-linecap:butt;stroke-linejoin:miter;stroke-miterlimit:4;stroke-opacity:1"
     d="m 150.5,25.109375 c -2.03906,-1.808594 -7.08984,-1.78125 -9.07813,0.0039"
     id="path3882" />
  <path
     style="fill:none;stroke:#ffffff;stroke-width:1.2;stroke-linecap:round;stroke-linejoin:miter;stroke-miterlimit:4;stroke-opacity:1"
     d="m 150.29687,32.742188 h -9.10546"
     id="path3884" />
  <path
     style="fill:none;stroke:#ffffff;stroke-width:1.2;stroke-linecap:round;stroke-linejoin:miter;stroke-miterlimit:4;stroke-opacity:1"
     d="M 148.23828,35.546875 H 143.25"
     id="path3886" />
  <path
     style="fill:none;stroke:#ffffff;stroke-width:1.2;stroke-linecap:round;stroke-linejoin:miter;stroke-miterlimit:4;stroke-opacity:1"
     d="m 146.65625,38.351562 h -1.82422"
     id="path3888" />
  <path
     style="fill:#ffffff;fill-opacity:1;fill-rule:nonzero;stroke:none"
     d="m 145.83984,11.265625 c -1.05468,0 -1.90625,0.855469 -1.90625,1.910156 0,1.050781 0.85157,1.90625 1.90625,1.90625 1.05469,0 1.90625,-0.855469 1.90625,-1.90625 0,-1.054687 -0.85156,-1.910156 -1.90625,-1.910156 z m 0,0"
     id="path3890" />
  <path
     style="fill:#ffffff;fill-opacity:1;fill-rule:nonzero;stroke:none"
     d="M 102.27344,13.226562 V 7.492188 h 2.54687 c 0.50782,0 0.89453,0.054687 1.15625,0.15625 0.26953,0.105468 0.48438,0.289062 0.64063,0.546874 0.15625,0.261719 0.23437,0.546876 0.23437,0.859376 0,0.40625 -0.13281,0.75 -0.39062,1.03125 -0.26172,0.28125 -0.66797,0.460937 -1.21875,0.53125 0.19531,0.09375 0.34765,0.1875 0.45312,0.28125 0.22657,0.210937 0.44141,0.464843 0.64063,0.765624 l 0.98437,1.5625 h -0.95312 l -0.75,-1.1875 c -0.21875,-0.34375 -0.40235,-0.601562 -0.54688,-0.78125 -0.14843,-0.1875 -0.27734,-0.316406 -0.39062,-0.390624 -0.11719,-0.07031 -0.23047,-0.125 -0.34375,-0.15625 -0.0859,-0.01953 -0.22656,-0.03125 -0.42188,-0.03125 h -0.875 v 2.546874 z m 0.76562,-3.203124 h 1.625 c 0.34375,0 0.61328,-0.035157 0.8125,-0.109376 0.19532,-0.070312 0.34375,-0.1875 0.4375,-0.34375 0.10157,-0.15625 0.15625,-0.328124 0.15625,-0.515624 0,-0.269532 -0.10156,-0.488282 -0.29687,-0.65625 -0.1875,-0.175782 -0.4961,-0.265626 -0.92188,-0.265626 h -1.8125 z m 0,0"
     id="path3892" />
  <path
     style="fill:#ffffff;fill-opacity:1;fill-rule:nonzero;stroke:none"
     d="M 108.08594,13.226562 V 7.492188 h 3.85937 v 0.6875 h -3.09375 v 1.765624 h 2.6875 v 0.671876 h -2.6875 v 2.609374 z m 0,0"
     id="path3894" />
  <path
     style="fill:#ffffff;fill-opacity:1;fill-rule:nonzero;stroke:none"
     d="m 113.57031,14.25 v -0.984375 h -0.96875 v -0.40625 h 0.96875 v -0.96875 h 0.42188 v 0.96875 h 0.96875 v 0.40625 h -0.96875 V 14.25 Z m 0,0"
     id="path3896" />
  <path
     style="fill:#ffffff;fill-opacity:1;fill-rule:nonzero;stroke:none"
     d="M 135.73437,23.152344 136.5,23.355469 c -0.16797,0.617187 -0.46094,1.089843 -0.875,1.421875 -0.40625,0.324218 -0.90625,0.484375 -1.5,0.484375 -0.61719,0 -1.12109,-0.125 -1.51563,-0.375 -0.38671,-0.25 -0.67968,-0.613281 -0.875,-1.09375 -0.19921,-0.476563 -0.29687,-0.988281 -0.29687,-1.53125 0,-0.59375 0.10937,-1.113281 0.32812,-1.5625 0.22657,-0.445313 0.55079,-0.785157 0.96875,-1.015625 0.42579,-0.226563 0.89454,-0.34375 1.40625,-0.34375 0.57032,0 1.05079,0.148437 1.4375,0.4375 0.39454,0.292968 0.66407,0.703125 0.8125,1.234375 l -0.73437,0.171875 c -0.13672,-0.414063 -0.33594,-0.71875 -0.59375,-0.90625 -0.25,-0.1875 -0.5625,-0.28125 -0.9375,-0.28125 -0.44922,0 -0.82031,0.105468 -1.10938,0.3125 -0.29296,0.210937 -0.5,0.492187 -0.625,0.84375 -0.11718,0.355468 -0.17187,0.726562 -0.17187,1.109375 0,0.480469 0.0664,0.902343 0.20312,1.265625 0.14454,0.367187 0.36329,0.640625 0.65625,0.828125 0.30079,0.179687 0.62891,0.265625 0.98438,0.265625 0.42578,0 0.78516,-0.117188 1.07812,-0.359375 0.28907,-0.25 0.48829,-0.617188 0.59375,-1.109375 z m 0,0"
     id="path3898" />
  <path
     style="fill:#ffffff;fill-opacity:1;fill-rule:nonzero;stroke:none"
     d="M 137.17187,26.765625 V 23.1875 h 0.48438 v 3.15625 h 1.76562 v 0.421875 z m 0,0"
     id="path3900" />
  <path
     style="fill:none;stroke:#ffffff;stroke-width:1.2;stroke-linecap:butt;stroke-linejoin:miter;stroke-miterlimit:4;stroke-opacity:1"
     d="m 163.23047,32.5 -0.004,-3.351562 -1.8164,-0.769532 3.53906,-1.507812 -3.39844,-1.441406 3.37109,-1.433594 -3.41796,-1.453125 3.54296,-1.503907 -3.74218,-1.589843 3.61718,-1.539063 -1.69531,-0.84375 v -2.171875"
     id="path3902" />
  <path
     style="fill:none;stroke:#ffffff;stroke-width:1.2;stroke-linecap:round;stroke-linejoin:miter;stroke-miterlimit:4;stroke-opacity:1"
     d="m 167.65625,32.75 h -9.10938"
     id="path3904" />
  <path
     style="fill:none;stroke:#ffffff;stroke-width:1.2;stroke-linecap:round;stroke-linejoin:miter;stroke-miterlimit:4;stroke-opacity:1"
     d="m 165.59375,35.550781 h -4.98438"
     id="path3906" />
  <path
     style="fill:none;stroke:#ffffff;stroke-width:1.2;stroke-linecap:round;stroke-linejoin:miter;stroke-miterlimit:4;stroke-opacity:1"
     d="M 164.01562,38.355469 H 162.1875"
     id="path3908" />
  <path
     style="fill:#ffffff;fill-opacity:1;fill-rule:nonzero;stroke:none"
     d="m 168.25,26.246094 v -5.734375 h 2.54687 c 0.50782,0 0.89454,0.05469 1.15625,0.15625 0.26954,0.105469 0.48438,0.289062 0.64063,0.546875 0.15625,0.261718 0.23437,0.546875 0.23437,0.859375 0,0.40625 -0.13281,0.75 -0.39062,1.03125 -0.26172,0.28125 -0.66797,0.460937 -1.21875,0.53125 0.19531,0.09375 0.34766,0.1875 0.45312,0.28125 0.22657,0.210937 0.44141,0.464843 0.64063,0.765625 l 0.98437,1.5625 h -0.95312 l -0.75,-1.1875 c -0.21875,-0.34375 -0.40234,-0.601563 -0.54688,-0.78125 -0.14843,-0.1875 -0.27734,-0.316406 -0.39062,-0.390625 -0.11719,-0.07031 -0.23047,-0.125 -0.34375,-0.15625 -0.0859,-0.01953 -0.22656,-0.03125 -0.42188,-0.03125 h -0.875 v 2.546875 z m 0.76562,-3.203125 h 1.625 c 0.34375,0 0.61329,-0.03516 0.8125,-0.109375 0.19532,-0.07031 0.34375,-0.1875 0.4375,-0.34375 0.10157,-0.15625 0.15625,-0.328125 0.15625,-0.515625 0,-0.269531 -0.10156,-0.488281 -0.29687,-0.65625 -0.1875,-0.175781 -0.49609,-0.265625 -0.92188,-0.265625 h -1.8125 z m 0,0"
     id="path3910" />
  <path
     style="fill:#ffffff;fill-opacity:1;fill-rule:nonzero;stroke:none"
     d="M 173.76562,27.847656 V 24.269531 H 174.25 v 3.15625 h 1.76562 v 0.421875 z m 0,0"
     id="path3912" />
  <path
     style="fill:#ffffff;fill-opacity:1;fill-rule:nonzero;stroke:none"
     d="m 175.38281,5.726562 -2.21875,-5.7343745 h 0.82813 l 1.48437,4.1718745 c 0.125,0.335938 0.22266,0.648438 0.29688,0.9375 0.0937,-0.3125 0.19531,-0.625 0.3125,-0.9375 l 1.54687,-4.1718745 h 0.78125 l -2.25,5.7343745 z m 0,0"
     id="path3914" />
  <path
     style="fill:#ffffff;fill-opacity:1;fill-rule:nonzero;stroke:none"
     d="M 178.86719,7.328125 V 3.75 h 1.23437 c 0.26953,0 0.47656,0.015625 0.625,0.046875 0.20703,0.054687 0.38281,0.140625 0.53125,0.265625 0.1875,0.15625 0.32813,0.359375 0.42188,0.609375 0.0937,0.25 0.14062,0.53125 0.14062,0.84375 0,0.273437 -0.0312,0.515625 -0.0937,0.734375 -0.0625,0.210938 -0.14844,0.382812 -0.25,0.515625 -0.0937,0.136719 -0.20312,0.246094 -0.32812,0.328125 -0.11719,0.074219 -0.25782,0.132812 -0.42188,0.171875 -0.16797,0.042969 -0.35937,0.0625 -0.57812,0.0625 z m 0.46875,-0.421875 h 0.76562 c 0.23828,0 0.42188,-0.019531 0.54688,-0.0625 0.13281,-0.039062 0.24218,-0.101562 0.32812,-0.1875 0.11328,-0.113281 0.20313,-0.265625 0.26563,-0.453125 0.0625,-0.1875 0.0937,-0.414063 0.0937,-0.6875 0,-0.375 -0.0625,-0.660156 -0.1875,-0.859375 -0.125,-0.207031 -0.27735,-0.34375 -0.45313,-0.40625 -0.125,-0.050781 -0.32812,-0.078125 -0.60937,-0.078125 h -0.75 z m 0,0"
     id="path3916" />
  <path
     style="fill:#ffffff;fill-opacity:1;fill-rule:nonzero;stroke:none"
     d="M 182.625,7.328125 V 3.75 h 1.23437 c 0.26954,0 0.47657,0.015625 0.625,0.046875 0.20704,0.054687 0.38282,0.140625 0.53125,0.265625 0.1875,0.15625 0.32813,0.359375 0.42188,0.609375 0.0937,0.25 0.14062,0.53125 0.14062,0.84375 0,0.273437 -0.0312,0.515625 -0.0937,0.734375 -0.0625,0.210938 -0.14843,0.382812 -0.25,0.515625 -0.0937,0.136719 -0.20312,0.246094 -0.32812,0.328125 -0.11719,0.074219 -0.25781,0.132812 -0.42188,0.171875 -0.16796,0.042969 -0.35937,0.0625 -0.57812,0.0625 z m 0.46875,-0.421875 h 0.76562 c 0.23829,0 0.42188,-0.019531 0.54688,-0.0625 0.13281,-0.039062 0.24219,-0.101562 0.32812,-0.1875 0.11329,-0.113281 0.20313,-0.265625 0.26563,-0.453125 0.0625,-0.1875 0.0937,-0.414063 0.0937,-0.6875 0,-0.375 -0.0625,-0.660156 -0.1875,-0.859375 -0.125,-0.207031 -0.27734,-0.34375 -0.45313,-0.40625 -0.125,-0.050781 -0.32812,-0.078125 -0.60937,-0.078125 h -0.75 z m 0,0"
     id="path3918" />
  <path
     style="fill:#ffffff;fill-opacity:1;fill-rule:nonzero;stroke:none"
     d="m 164.09114,52.781237 4.05078,5.574218 c 0.22265,0.308594 0.15234,0.738282 -0.15235,0.960938 -0.30859,0.222656 -0.73828,0.15625 -0.96093,-0.152344 l -4.05078,-5.574219 c -0.22266,-0.304687 -0.15235,-0.738281 0.15234,-0.960937 0.30859,-0.222656 0.73828,-0.15625 0.96094,0.152344"
     id="path3922" />
  <path
     style="fill:none;fill-opacity:1;fill-rule:nonzero;stroke:#ffffff;stroke-width:1.2;stroke-linecap:butt;stroke-linejoin:miter;stroke-miterlimit:4;stroke-opacity:1"
     d="m 168.46094,58.679688 c 0.73437,0 1.32812,0.59375 1.32812,1.328124 0,0.734376 -0.59375,1.328126 -1.32812,1.328126 -0.73438,0 -1.32813,-0.59375 -1.32813,-1.328126 0,-0.734374 0.59375,-1.328124 1.32813,-1.328124 z m 0,0"
     id="path3924" />
  <path
     style="fill:none;fill-opacity:1;fill-rule:nonzero;stroke:#ffffff;stroke-width:1.2;stroke-linecap:butt;stroke-linejoin:miter;stroke-miterlimit:4;stroke-opacity:1"
     d="m 168.47656,49.121094 c 0.73438,0 1.32813,0.597656 1.32813,1.328125 0,0.734375 -0.59375,1.328125 -1.32813,1.328125 -0.73437,0 -1.32812,-0.59375 -1.32812,-1.328125 0,-0.730469 0.59375,-1.328125 1.32812,-1.328125 z m 0,0"
     id="path3926" />
  <path
     style="fill:none;stroke:#ffffff;stroke-width:0.4;stroke-linecap:butt;stroke-linejoin:miter;stroke-miterlimit:4;stroke-opacity:1"
     d="m 171.28906,55.484375 h 4.3086"
     id="path3928" />
  <path
     style="fill:#ffffff;fill-opacity:1;fill-rule:nonzero;stroke:none"
     d="m 169.06641,55.464844 1.54687,-0.496094 1.54297,-0.496094 v 1.984375 l -1.54297,-0.496093 z m 0,0"
     id="path3930" />
  <path
     style="fill:#ffffff;fill-opacity:1;fill-rule:nonzero;stroke:none"
     d="m 115.37891,29.96875 -2.21875,-5.734375 h 0.82812 l 1.48438,4.171875 c 0.125,0.335938 0.22265,0.648438 0.29687,0.9375 0.0937,-0.3125 0.19531,-0.625 0.3125,-0.9375 l 1.54688,-4.171875 h 0.78125 l -2.25,5.734375 z m 0,0"
     id="path3932" />
  <path
     style="fill:#ffffff;fill-opacity:1;fill-rule:nonzero;stroke:none"
     d="m 118.48828,31.566406 1.39063,-1.859375 -1.21875,-1.71875 h 0.5625 l 0.65625,0.921875 c 0.13281,0.1875 0.22656,0.335938 0.28125,0.4375 0.082,-0.132812 0.17578,-0.269531 0.28125,-0.40625 l 0.71875,-0.953125 h 0.51562 l -1.25,1.6875 1.34375,1.890625 h -0.57812 l -0.90625,-1.28125 c -0.0547,-0.07031 -0.10547,-0.148437 -0.15625,-0.234375 -0.0742,0.125 -0.13282,0.214844 -0.17188,0.265625 l -0.89062,1.25 z m 0,0"
     id="path3934" />
  <path
     style="fill:none;fill-opacity:1;fill-rule:evenodd;stroke:#ffffff;stroke-width:1.2;stroke-linecap:butt;stroke-linejoin:miter;stroke-miterlimit:4;stroke-opacity:1"
     d="m 90.796875,7.015625 h -6.675781 v 10.054687 l 3.253906,3.253907 3.339844,-3.339844 z m 0,0"
     id="path3936" />
  <path
     style="fill:none;fill-opacity:1;fill-rule:evenodd;stroke:#ffffff;stroke-width:1.2;stroke-linecap:butt;stroke-linejoin:miter;stroke-miterlimit:4;stroke-opacity:1"
     d="m 99.21875,7.089844 h -6.675781 v 10.054687 l 3.253906,3.253907 3.339844,-3.339844 z m 0,0"
     id="path3938" />
  <path
     style="fill:#ffffff;fill-opacity:1;fill-rule:nonzero;stroke:none"
     d="M 69.816406,12.429688 V 6.695312 h 2.546875 c 0.507813,0 0.894531,0.054688 1.15625,0.15625 0.269531,0.105469 0.484375,0.289063 0.640625,0.546876 0.15625,0.261718 0.234375,0.546874 0.234375,0.859374 0,0.40625 -0.132812,0.75 -0.390625,1.03125 -0.261718,0.28125 -0.667968,0.460938 -1.21875,0.53125 0.195313,0.09375 0.347656,0.1875 0.453125,0.28125 0.226563,0.210938 0.441407,0.464844 0.640625,0.765626 l 0.984375,1.5625 h -0.953125 l -0.75,-1.1875 c -0.21875,-0.34375 -0.402344,-0.601563 -0.546875,-0.78125 -0.148437,-0.1875 -0.277343,-0.316407 -0.390625,-0.390626 C 72.105469,10 71.992188,9.945312 71.878906,9.914062 71.792969,9.894531 71.652344,9.882812 71.457031,9.882812 h -0.875 v 2.546876 z m 0.765625,-3.203126 h 1.625 c 0.34375,0 0.613281,-0.035156 0.8125,-0.109374 0.195313,-0.070313 0.34375,-0.1875 0.4375,-0.34375 0.101563,-0.15625 0.15625,-0.328126 0.15625,-0.515626 0,-0.269531 -0.101562,-0.488281 -0.296875,-0.65625 -0.1875,-0.175781 -0.496094,-0.265624 -0.921875,-0.265624 h -1.8125 z m 0,0"
     id="path3940" />
  <path
     style="fill:#ffffff;fill-opacity:1;fill-rule:nonzero;stroke:none"
     d="M 75.628906,12.429688 V 6.695312 h 3.859375 v 0.6875 h -3.09375 v 1.765626 h 2.6875 v 0.671874 h -2.6875 v 2.609376 z m 0,0"
     id="path3942" />
  <path
     style="fill:#ffffff;fill-opacity:1;fill-rule:nonzero;stroke:none"
     d="m 80.050781,12.21875 h 1.625 v 0.515625 h -1.625 z m 0,0"
     id="path3944" />
  <path
     style="fill:none;stroke:#ffffff;stroke-width:1.2;stroke-linecap:butt;stroke-linejoin:miter;stroke-miterlimit:4;stroke-opacity:1"
     d="M 54.683594,83.273438 V 80.10964 m 0,-11.879317 v -3.672952 m 0,-2.630157 v -4.966276 h 30.898437"
     id="path3946"
     sodipodi:nodetypes="ccccccc" />
  <path
     style="fill:none;stroke:#ffffff;stroke-width:1.6;stroke-linecap:butt;stroke-linejoin:miter;stroke-miterlimit:4;stroke-opacity:1"
     d="M 48.90625,62.078125 H 60.105469"
     id="path3950" />
  <path
     style="fill:none;stroke:#ffffff;stroke-width:1.2;stroke-linecap:butt;stroke-linejoin:miter;stroke-miterlimit:4;stroke-opacity:1"
     d="m 59.140625,65.855469 c -2.039063,-1.808594 -7.089844,-1.78125 -9.078125,0.0039"
     id="path3952" />
  <path
     style="fill:none;stroke:#ffffff;stroke-width:1.2;stroke-linecap:round;stroke-linejoin:miter;stroke-miterlimit:4;stroke-opacity:1"
     d="M 58.703125,83.058594 H 49.597656"
     id="path3954" />
  <path
     style="fill:none;stroke:#ffffff;stroke-width:1.2;stroke-linecap:round;stroke-linejoin:miter;stroke-miterlimit:4;stroke-opacity:1"
     d="M 56.644531,85.859375 H 51.65625"
     id="path3956" />
  <path
     style="fill:none;stroke:#ffffff;stroke-width:1.2;stroke-linecap:round;stroke-linejoin:miter;stroke-miterlimit:4;stroke-opacity:1"
     d="M 55.0625,88.664062 H 53.234375"
     id="path3958" />
  <path
     style="fill:none;stroke:#ffffff;stroke-width:1.2;stroke-linecap:butt;stroke-linejoin:miter;stroke-miterlimit:4;stroke-opacity:1"
     d="M 110.50781,56.617188 H 97.007812"
     id="path3960" />
  <path
     style="fill:none;stroke:#ffffff;stroke-width:1.2;stroke-linecap:round;stroke-linejoin:miter;stroke-miterlimit:4;stroke-opacity:1"
     d="M 59.121094,46.191406 H 50.015625"
     id="path3962" />
  <path
     style="fill:none;stroke:#ffffff;stroke-width:1.2;stroke-linecap:round;stroke-linejoin:miter;stroke-miterlimit:4;stroke-opacity:1"
     d="M 57.0625,48.996094 H 52.074219"
     id="path3964" />
  <path
     style="fill:none;stroke:#ffffff;stroke-width:1.2;stroke-linecap:round;stroke-linejoin:miter;stroke-miterlimit:4;stroke-opacity:1"
     d="M 55.480469,51.796875 H 53.652344"
     id="path3966" />
  <path
     style="fill:#ffffff;fill-opacity:1;fill-rule:nonzero;stroke:none"
     d="m 2.359375,87.078125 v -6.3125 H 0 v -0.84375 h 5.671875 v 0.84375 H 3.3125 v 6.3125 z m 0,0"
     id="path3968" />
  <path
     style="fill:#ffffff;fill-opacity:1;fill-rule:nonzero;stroke:none"
     d="m 11.347656,79.921875 h 0.953125 V 84.0625 c 0,0.71875 -0.08594,1.292969 -0.25,1.71875 -0.167969,0.417969 -0.464843,0.761719 -0.890625,1.03125 -0.417968,0.261719 -0.96875,0.390625 -1.65625,0.390625 -0.679687,0 -1.230468,-0.117187 -1.65625,-0.34375 C 7.417969,86.621094 7.113281,86.28125 6.925781,85.84375 6.746094,85.40625 6.660156,84.8125 6.660156,84.0625 v -4.140625 h 0.953125 v 4.125 c 0,0.625 0.054688,1.085937 0.171875,1.375 0.113282,0.292969 0.3125,0.523437 0.59375,0.6875 0.28125,0.15625 0.625,0.234375 1.03125,0.234375 0.695313,0 1.191406,-0.15625 1.484375,-0.46875 0.300781,-0.320312 0.453125,-0.929688 0.453125,-1.828125 z m 0,0"
     id="path3970" />
  <path
     style="fill:#ffffff;fill-opacity:1;fill-rule:nonzero;stroke:none"
     d="m 13.871094,87.078125 v -7.15625 h 0.96875 l 3.765625,5.625 v -5.625 h 0.90625 v 7.15625 h -0.96875 l -3.765625,-5.625 v 5.625 z m 0,0"
     id="path3972" />
  <path
     style="fill:#ffffff;fill-opacity:1;fill-rule:nonzero;stroke:none"
     d="m 21.128906,87.078125 v -7.15625 h 5.171875 v 0.84375 h -4.234375 v 2.1875 h 3.96875 v 0.84375 h -3.96875 v 2.4375 h 4.40625 v 0.84375 z m 0,0"
     id="path3974" />
  <path
     style="fill:none;fill-opacity:1;fill-rule:evenodd;stroke:#ffffff;stroke-width:1.2;stroke-linecap:butt;stroke-linejoin:miter;stroke-miterlimit:4;stroke-opacity:1"
     d="m 174.58594,9.796875 v 6.675781 h 10.05468 l 3.25,-3.253906 -3.33593,-3.335938 z m 0,0"
     id="path3976" />
  <path
     style="fill:#ffffff;fill-opacity:1;fill-rule:nonzero;stroke:none"
     d="m 163.26953,11.351562 c -1.05469,0 -1.91016,0.851563 -1.91016,1.90625 0,1.054688 0.85547,1.90625 1.91016,1.90625 1.05469,0 1.90625,-0.851562 1.90625,-1.90625 0,-1.054687 -0.85156,-1.90625 -1.90625,-1.90625 z m 0,0"
     id="path3978" />
  <g
     clip-path="url(#clip4)"
     clip-rule="nonzero"
     id="g3984"
     style="stroke:#ffffff">
    <path
       style="fill:none;stroke:#ffffff;stroke-width:1.2;stroke-linecap:butt;stroke-linejoin:miter;stroke-miterlimit:4;stroke-opacity:1"
       d="m 193.89453,72.832031 v 6.675781 h 10.05859 l 3.25,-3.253906 -3.33593,-3.335937 z m 0,0"
       id="path3982" />
  </g>
  <path
     style="fill:#ffffff;fill-opacity:1;fill-rule:nonzero;stroke:none"
     d="m 197.22266,69.628906 v -5.734375 h 4.14062 v 0.6875 h -3.39062 v 1.75 h 3.17187 v 0.671875 h -3.17187 v 1.953125 h 3.51562 v 0.671875 z m 0,0"
     id="path3986" />
  <path
     style="fill:#ffffff;fill-opacity:1;fill-rule:nonzero;stroke:none"
     d="m 66.230469,60.308594 v 0.9375 c -0.304688,-0.269532 -0.625,-0.472656 -0.96875,-0.609375 -0.335938,-0.144531 -0.6875,-0.21875 -1.0625,-0.21875 -0.75,0 -1.328125,0.230469 -1.734375,0.6875 -0.398438,0.460937 -0.59375,1.121093 -0.59375,1.984375 0,0.867187 0.195312,1.527344 0.59375,1.984375 0.40625,0.460937 0.984375,0.6875 1.734375,0.6875 0.375,0 0.726562,-0.06641 1.0625,-0.203125 0.34375,-0.132813 0.664062,-0.34375 0.96875,-0.625 v 0.9375 c -0.3125,0.210937 -0.640625,0.367187 -0.984375,0.46875 -0.34375,0.101562 -0.714844,0.15625 -1.109375,0.15625 -0.992188,0 -1.773438,-0.300782 -2.34375,-0.90625 -0.574219,-0.613282 -0.859375,-1.445313 -0.859375,-2.5 0,-1.050782 0.285156,-1.878906 0.859375,-2.484375 0.570312,-0.613281 1.351562,-0.921875 2.34375,-0.921875 0.394531,0 0.765625,0.05469 1.109375,0.15625 0.351562,0.105468 0.679687,0.261718 0.984375,0.46875 z m 0,0"
     id="path3988" />
  <path
     style="fill:#ffffff;fill-opacity:1;fill-rule:nonzero;stroke:none"
     d="m 66.476562,64.464844 h 3.078126 v 0.40625 h -1.28125 v 3.234375 h -0.5 v -3.234375 h -1.296876 z m 0,0"
     id="path3990" />
  <path
     style="fill:none;stroke:#ffffff;stroke-width:1.2;stroke-linecap:butt;stroke-linejoin:miter;stroke-miterlimit:4;stroke-opacity:1"
     d="m 54.683594,46.351562 0,-2.496035 m 0,-11.983784 v -2.834882 m 0,-2.49752 v -3.386997 h 32.480468"
     id="path3992"
     sodipodi:nodetypes="ccccccc" />
  <path
     style="fill:none;stroke:#ffffff;stroke-width:1.6;stroke-linecap:butt;stroke-linejoin:miter;stroke-miterlimit:4;stroke-opacity:1"
     d="M 48.882812,26.59375 H 60.082031"
     id="path3996" />
  <path
     style="fill:none;stroke:#ffffff;stroke-width:1.2;stroke-linecap:butt;stroke-linejoin:miter;stroke-miterlimit:4;stroke-opacity:1"
     d="M 59.117188,30.367188 C 57.078125,28.5625 52.027344,28.589844 50.039062,30.375"
     id="path3998" />
  <path
     style="fill:#ffffff;fill-opacity:1;fill-rule:nonzero;stroke:none"
     d="m 59.617073,35.5625 -4.046874,5.574219 c -0.222657,0.304687 -0.15625,0.738281 0.152343,0.960937 0.304688,0.222656 0.738281,0.152344 0.960938,-0.152344 l 4.046875,-5.574218 C 60.953011,36.0625 60.886605,35.632812 60.578011,35.410156 60.273323,35.1875 59.83973,35.253906 59.617073,35.5625"
     id="path4002" />
  <path
     style="fill:none;fill-opacity:1;fill-rule:nonzero;stroke:#ffffff;stroke-width:1.2;stroke-linecap:butt;stroke-linejoin:miter;stroke-miterlimit:4;stroke-opacity:1"
     d="m 54.699965,41.28125 c -0.730468,0 -1.328124,0.59375 -1.328124,1.328125 0,0.730469 0.597656,1.328125 1.328124,1.328125 0.734376,0 1.328126,-0.597656 1.328126,-1.328125 0,-0.734375 -0.59375,-1.328125 -1.328126,-1.328125 z m 0,0"
     id="path4004" />
  <path
     style="fill:none;fill-opacity:1;fill-rule:nonzero;stroke:#ffffff;stroke-width:1.2;stroke-linecap:butt;stroke-linejoin:miter;stroke-miterlimit:4;stroke-opacity:1"
     d="m 54.684341,31.722656 c -0.734376,0 -1.328126,0.59375 -1.328126,1.328125 0,0.734375 0.59375,1.328125 1.328126,1.328125 0.734374,0 1.328124,-0.59375 1.328124,-1.328125 0,-0.734375 -0.59375,-1.328125 -1.328124,-1.328125 z m 0,0"
     id="path4006" />
  <path
     style="fill:#ffffff;fill-opacity:1;fill-rule:nonzero;stroke:none"
     d="m 59.308622,71.835938 -4.050781,5.574218 c -0.222657,0.308594 -0.15625,0.738282 0.152343,0.960938 0.308594,0.222656 0.738281,0.15625 0.960938,-0.152344 l 4.046875,-5.574219 c 0.222656,-0.304687 0.15625,-0.738281 -0.152344,-0.960937 -0.304688,-0.222656 -0.734375,-0.15625 -0.957031,0.152344"
     id="path4010" />
  <path
     style="fill:none;fill-opacity:1;fill-rule:nonzero;stroke:#ffffff;stroke-width:1.2;stroke-linecap:butt;stroke-linejoin:miter;stroke-miterlimit:4;stroke-opacity:1"
     d="m 54.699219,77.554688 c -0.734375,0 -1.328125,0.59375 -1.328125,1.328124 0,0.734376 0.59375,1.328126 1.328125,1.328126 0.730469,0 1.328125,-0.59375 1.328125,-1.328126 0,-0.734374 -0.597656,-1.328124 -1.328125,-1.328124 z m 0,0"
     id="path4012" />
  <path
     style="fill:none;fill-opacity:1;fill-rule:nonzero;stroke:#ffffff;stroke-width:1.2;stroke-linecap:butt;stroke-linejoin:miter;stroke-miterlimit:4;stroke-opacity:1"
     d="m 54.683594,67.996094 c -0.734375,0 -1.328125,0.597656 -1.328125,1.328125 0,0.734375 0.59375,1.328125 1.328125,1.328125 0.730468,0 1.328125,-0.59375 1.328125,-1.328125 0,-0.730469 -0.597657,-1.328125 -1.328125,-1.328125 z m 0,0"
     id="path4014" />
  <path
     style="fill:#ffffff;fill-opacity:1;fill-rule:nonzero;stroke:none"
     d="m 65.644531,25.632812 v 0.9375 c -0.304687,-0.269531 -0.625,-0.472656 -0.96875,-0.609374 -0.335937,-0.144532 -0.6875,-0.21875 -1.0625,-0.21875 -0.75,0 -1.328125,0.230468 -1.734375,0.6875 -0.398437,0.460937 -0.59375,1.121093 -0.59375,1.984374 0,0.867188 0.195313,1.527344 0.59375,1.984376 0.40625,0.460937 0.984375,0.6875 1.734375,0.6875 0.375,0 0.726563,-0.06641 1.0625,-0.203126 0.34375,-0.132812 0.664063,-0.34375 0.96875,-0.625 v 0.9375 c -0.3125,0.210938 -0.640625,0.367188 -0.984375,0.46875 -0.34375,0.101563 -0.714844,0.15625 -1.109375,0.15625 -0.992187,0 -1.773437,-0.300781 -2.34375,-0.90625 -0.574219,-0.613281 -0.859375,-1.445312 -0.859375,-2.5 0,-1.050781 0.285156,-1.878906 0.859375,-2.484374 0.570313,-0.613282 1.351563,-0.921876 2.34375,-0.921876 0.394531,0 0.765625,0.05469 1.109375,0.15625 0.351563,0.105469 0.679688,0.261719 0.984375,0.46875 z m 0,0"
     id="path4016" />
  <path
     style="fill:#ffffff;fill-opacity:1;fill-rule:nonzero;stroke:none"
     d="m 65.890625,29.789062 h 3.078125 v 0.40625 H 67.6875 v 3.234376 h -0.5 v -3.234376 h -1.296875 z m 0,0"
     id="path4018" />
  <path
     style="fill:none;fill-opacity:1;fill-rule:evenodd;stroke:#ffffff;stroke-width:1.2;stroke-linecap:butt;stroke-linejoin:miter;stroke-miterlimit:4;stroke-opacity:1"
     d="m 6.597656,70.230469 v 6.675781 h 10.054688 l 3.25,-3.253906 -3.335938,-3.335938 z m 0,0"
     id="path4020" />
  <path
     style="fill:#ffffff;fill-opacity:1;fill-rule:nonzero;stroke:none"
     d="m 53.015625,37.71875 -3.617187,1.960938 v -3.925782 l 1.808593,0.980469 z m 0,0"
     id="path4022" />
  <path
     style="fill:#ffffff;fill-opacity:1;fill-rule:nonzero;stroke:none"
     d="m 52.3125,73.457031 -1.804688,0.980469 -1.808593,0.984375 v -3.925781 l 1.808593,0.980468 z m 0,0"
     id="path4024" />
  <path
     style="fill:#ffffff;fill-opacity:1;fill-rule:nonzero;stroke:none"
     d="m 27.894531,62.21875 h 0.875 V 65 l 2.953125,-2.78125 h 1.140625 l -3.25,3.0625 3.484375,3.5 H 31.925781 L 28.769531,65.625 v 3.15625 h -0.875 z m 0,0"
     id="path4026" />
  <path
     style="fill:#ffffff;fill-opacity:1;fill-rule:nonzero;stroke:none"
     d="m 32.019531,70.496094 -4.046875,5.574218 C 27.75,76.378906 27.816406,76.808594 28.125,77.03125 c 0.304688,0.222656 0.734375,0.15625 0.957031,-0.152344 l 4.050781,-5.574218 C 33.355469,71 33.289062,70.566406 32.980469,70.34375 32.671875,70.121094 32.242188,70.1875 32.019531,70.496094"
     id="path4028" />
  <path
     style="fill:#ffffff;fill-opacity:1;fill-rule:nonzero;stroke:none"
     d="M 129.95312,6.679688 V 0.945312 H 132.5 c 0.50781,0 0.89453,0.054688 1.15625,0.15625 0.26953,0.105469 0.48437,0.289063 0.64062,0.546876 0.15625,0.261718 0.23438,0.546874 0.23438,0.859374 0,0.40625 -0.13281,0.75 -0.39063,1.03125 -0.26171,0.28125 -0.66796,0.460938 -1.21875,0.53125 0.19532,0.09375 0.34766,0.1875 0.45313,0.28125 0.22656,0.210938 0.44141,0.464844 0.64062,0.765626 L 135,6.679688 h -0.95313 l -0.75,-1.1875 c -0.21875,-0.34375 -0.40234,-0.601563 -0.54687,-0.78125 -0.14844,-0.1875 -0.27734,-0.316407 -0.39063,-0.390626 -0.11718,-0.070312 -0.23046,-0.125 -0.34375,-0.15625 -0.0859,-0.019531 -0.22656,-0.03125 -0.42187,-0.03125 h -0.875 v 2.546876 z m 0.76563,-3.203126 h 1.625 c 0.34375,0 0.61328,-0.035156 0.8125,-0.109374 0.19531,-0.070313 0.34375,-0.1875 0.4375,-0.34375 0.10156,-0.15625 0.15625,-0.328126 0.15625,-0.515626 0,-0.269531 -0.10156,-0.488281 -0.29688,-0.65625 -0.1875,-0.175781 -0.49609,-0.265624 -0.92187,-0.265624 h -1.8125 z m 0,0"
     id="path4030" />
  <path
     style="fill:#ffffff;fill-opacity:1;fill-rule:nonzero;stroke:none"
     d="m 135.20312,8.277344 v -0.4375 l 1.84375,-2.296875 c 0.125,-0.15625 0.25,-0.296875 0.375,-0.421875 h -2 V 4.699219 h 2.5625 v 0.421875 l -2.01562,2.484375 -0.21875,0.25 h 2.29687 v 0.421875 z m 0,0"
     id="path4032" />
</svg>
