<?xml version="1.0" encoding="UTF-8" standalone="no"?>
<svg
   width="215.642899pt"
   height="95.027679pt"
   viewBox="0 0 215.642899 95.027679"
   version="1.1"
   id="svg1202"
   sodipodi:docname="SDM.svg"
   inkscape:version="1.2 (dc2aedaf03, 2022-05-15)"
   xmlns:inkscape="http://www.inkscape.org/namespaces/inkscape"
   xmlns:sodipodi="http://sodipodi.sourceforge.net/DTD/sodipodi-0.dtd"
   xmlns="http://www.w3.org/2000/svg"
   xmlns:svg="http://www.w3.org/2000/svg">
  <sodipodi:namedview
     id="namedview1204"
     pagecolor="#505050"
     bordercolor="#eeeeee"
     borderopacity="1"
     inkscape:showpageshadow="0"
     inkscape:pageopacity="0"
     inkscape:pagecheckerboard="0"
     inkscape:deskcolor="#505050"
     inkscape:document-units="pt"
     showgrid="false"
     inkscape:zoom="2.8284271"
     inkscape:cx="67.882251"
     inkscape:cy="42.072853"
     inkscape:window-width="1920"
     inkscape:window-height="1027"
     inkscape:window-x="-8"
     inkscape:window-y="-8"
     inkscape:window-maximized="1"
     inkscape:current-layer="svg1202" />
  <defs
     id="defs937">
    <clipPath
       id="clip1">
      <path
         d="M 0 0 L 206 0 L 206 95.027344 L 0 95.027344 Z M 0 0 "
         id="path922" />
    </clipPath>
    <clipPath
       id="clip2">
      <path
         d="M 0 0 L 206 0 L 206 95.027344 L 0 95.027344 Z M 0 0 "
         id="path925" />
    </clipPath>
    <clipPath
       id="clip3">
      <path
         d="M 0 0 L 215.644531 0 L 215.644531 95.027344 L 0 95.027344 Z M 0 0 "
         id="path928" />
    </clipPath>
    <clipPath
       id="clip4">
      <path
         d="M 194 8 L 215.644531 8 L 215.644531 29 L 194 29 Z M 194 8 "
         id="path931" />
    </clipPath>
    <clipPath
       id="clip5">
      <path
         d="M 131 91 L 136 91 L 136 95.027344 L 131 95.027344 Z M 131 91 "
         id="path934" />
    </clipPath>
  </defs>
  <path
     style="fill:none;stroke:#ffffff;stroke-width:1.2;stroke-linecap:butt;stroke-linejoin:miter;stroke-miterlimit:4;stroke-opacity:1"
     d="m 179.79297,70.121094 0,7.701172 m 0,2.591797 v 6.763671 5.685547"
     id="path939"
     sodipodi:nodetypes="ccccc" />
  <path
     style="fill:none;stroke:#ffffff;stroke-width:1.6;stroke-linecap:round;stroke-linejoin:miter;stroke-miterlimit:4;stroke-opacity:1"
     d="m 184.40625,70.472656 h -9.00391"
     id="path941" />
  <path
     style="fill:none;stroke:#ffffff;stroke-width:1.2;stroke-linecap:butt;stroke-linejoin:miter;stroke-miterlimit:4;stroke-opacity:1"
     d="m 196.94141,65.253906 v 6.927734 l 0,5.779298 m 0,2.802734 V 92.964844 H 33.757812 l 0,-26.152344"
     id="path943"
     sodipodi:nodetypes="ccccccc" />
  <path
     style="fill:none;stroke:#ffffff;stroke-width:1.2;stroke-linecap:butt;stroke-linejoin:miter;stroke-miterlimit:4;stroke-opacity:1"
     d="M 112.27734,42.074219 H 78.675781 V 28.222656 l -8.310099,0 m -16.434041,0 h -7.123047 v 27.695313"
     id="path945"
     sodipodi:nodetypes="ccccccc" />
  <path
     style="fill:none;stroke:#ffffff;stroke-width:1.2;stroke-linecap:butt;stroke-linejoin:miter;stroke-miterlimit:4;stroke-opacity:1"
     d="m 14.101563,55.917969 8.648438,0 m 17.132812,0 6.539063,0 7.054688,0 m 16.898438,0 21.351562,0 m 15.960936,0 4.71094,0 v -13.75 -6.53125 m 0,-28.609375 V 0.917969"
     id="path947"
     sodipodi:nodetypes="ccccccccccccc" />
  <path
     style="fill:none;stroke:#ffffff;stroke-width:1.2;stroke-linecap:butt;stroke-linejoin:miter;stroke-miterlimit:4;stroke-opacity:1"
     d="m 78.464844,55.960938 v 5.40039 6.891944 m 0,2.350993 V 77.5625"
     id="path949"
     sodipodi:nodetypes="ccccc" />
  <path
     style="fill:none;stroke:#ffffff;stroke-width:1.2;stroke-linecap:round;stroke-linejoin:miter;stroke-miterlimit:4;stroke-opacity:1"
     d="m 73.824219,77.550781 h 9.105469"
     id="path951" />
  <path
     style="fill:none;stroke:#ffffff;stroke-width:1.2;stroke-linecap:round;stroke-linejoin:miter;stroke-miterlimit:4;stroke-opacity:1"
     d="m 75.882812,80.351562 h 4.988282"
     id="path953" />
  <path
     style="fill:none;stroke:#ffffff;stroke-width:1.2;stroke-linecap:round;stroke-linejoin:miter;stroke-miterlimit:4;stroke-opacity:1"
     d="m 77.460938,83.15625 h 1.828124"
     id="path955" />
  <path
     style="fill:none;stroke:#ffffff;stroke-width:1.2;stroke-linecap:butt;stroke-linejoin:miter;stroke-miterlimit:4;stroke-opacity:1"
     d="m 160.91406,47.988281 v 4.950311 m 0,15.391185 0,6.586059 m 0,12.154525 v 5.558545"
     id="path957"
     sodipodi:nodetypes="cccccc" />
  <path
     style="fill:none;stroke:#ffffff;stroke-width:1.2;stroke-linecap:butt;stroke-linejoin:miter;stroke-miterlimit:4;stroke-opacity:1"
     d="m 133.76954,48.280466 v 4.950311 m 0,15.391185 v 6.586059 m 0,12.154525 v 5.558544"
     id="path957-7"
     sodipodi:nodetypes="cccccc" />
  <path
     style="fill:none;fill-opacity:1;fill-rule:nonzero;stroke:#ffffff;stroke-width:1.2;stroke-linecap:butt;stroke-linejoin:miter;stroke-miterlimit:4;stroke-opacity:1"
     d="m 168.76172,60.761719 c 0,4.273437 -3.46485,7.734375 -7.73438,7.734375 -4.27343,0 -7.73828,-3.460938 -7.73828,-7.734375 0,-4.269531 3.46485,-7.734375 7.73828,-7.734375 4.26953,0 7.73438,3.464844 7.73438,7.734375 z m 0,0"
     id="path959" />
  <path
     style="fill:#ffffff;fill-opacity:1;fill-rule:nonzero;stroke:none"
     d="m 161.02734,66.480469 1.28907,-2.640625 1.29296,-2.636719 h -5.16796 l 1.29296,2.636719 z m 0,0"
     id="path961" />
  <path
     style="fill:none;stroke:#ffffff;stroke-width:1.2;stroke-linecap:butt;stroke-linejoin:miter;stroke-miterlimit:4;stroke-opacity:1"
     d="M 160.98437,64.304688 V 56.070312"
     id="path963" />
  <path
     style="fill:none;stroke:#ffffff;stroke-width:1.6;stroke-linecap:round;stroke-linejoin:miter;stroke-miterlimit:4;stroke-opacity:1"
     d="m 165.52734,47.941406 h -9.0039"
     id="path965" />
  <path
     style="fill:#ffffff;fill-opacity:1;fill-rule:nonzero;stroke:none"
     d="m 165.15234,78.753906 -4.04687,5.574219 c -0.22266,0.308594 -0.15625,0.738281 0.15234,0.964844 0.30469,0.222656 0.73828,0.152343 0.96094,-0.15625 l 4.04687,-5.570313 c 0.22266,-0.308594 0.15625,-0.742187 -0.15234,-0.964844 -0.30469,-0.222656 -0.73828,-0.152343 -0.96094,0.152344"
     id="path969" />
  <path
     style="fill:none;fill-opacity:1;fill-rule:nonzero;stroke:#ffffff;stroke-width:1.2;stroke-linecap:butt;stroke-linejoin:miter;stroke-miterlimit:4;stroke-opacity:1"
     d="m 160.90234,84.472656 c -0.73437,0 -1.32812,0.59375 -1.32812,1.328125 0,0.734375 0.59375,1.328125 1.32812,1.328125 0.73438,0 1.32813,-0.59375 1.32813,-1.328125 0,-0.734375 -0.59375,-1.328125 -1.32813,-1.328125 z m 0,0"
     id="path971" />
  <path
     style="fill:none;fill-opacity:1;fill-rule:nonzero;stroke:#ffffff;stroke-width:1.2;stroke-linecap:butt;stroke-linejoin:miter;stroke-miterlimit:4;stroke-opacity:1"
     d="m 160.88672,74.917969 c -0.73438,0 -1.32813,0.59375 -1.32813,1.328125 0,0.730468 0.59375,1.328125 1.32813,1.328125 0.73437,0 1.32812,-0.597657 1.32812,-1.328125 0,-0.734375 -0.59375,-1.328125 -1.32812,-1.328125 z m 0,0"
     id="path973" />
  <path
     style="fill:none;stroke:#ffffff;stroke-width:0.4;stroke-linecap:butt;stroke-linejoin:miter;stroke-miterlimit:4;stroke-opacity:1"
     d="m 158.03516,80.929688 h -4.3086"
     id="path975" />
  <path
     style="fill:#ffffff;fill-opacity:1;fill-rule:nonzero;stroke:none"
     d="m 160.25781,80.949219 -1.54687,0.496093 -1.54297,0.5 v -1.988281 l 1.54297,0.496094 z m 0,0"
     id="path977" />
  <path
     style="fill:none;stroke:#ffffff;stroke-width:1.2;stroke-linecap:butt;stroke-linejoin:miter;stroke-miterlimit:4;stroke-opacity:1"
     d="m 162.55882,18.832031 7.79257,0 m 18.79692,0 2.95331,0 h 9.8476"
     id="path979"
     sodipodi:nodetypes="ccccc" />
  <path
     style="fill:none;fill-opacity:1;fill-rule:evenodd;stroke:#ffffff;stroke-width:1.2;stroke-linecap:butt;stroke-linejoin:miter;stroke-miterlimit:4;stroke-opacity:1"
     d="m 145.57031,10.820312 c 14.57813,-0.546874 17.29688,7.828126 17.29688,7.828126 0,0 -2.28125,8.203124 -17.31641,7.699218 3.34766,-3.910156 3.33984,-11.398437 0.0156,-15.527344 z m 0,0"
     id="path981" />
  <path
     style="fill:none;stroke:#ffffff;stroke-width:1.2;stroke-linecap:butt;stroke-linejoin:miter;stroke-miterlimit:4;stroke-opacity:1"
     d="m 141.80469,26.472656 c 3.34765,-3.90625 3.34375,-11.398437 0.0156,-15.527344"
     id="path983" />
  <path
     style="fill:none;stroke:#ffffff;stroke-width:1.2;stroke-linecap:butt;stroke-linejoin:miter;stroke-miterlimit:4;stroke-opacity:1"
     d="m 125.17969,23.35547 h 18.55469"
     id="path985"
     sodipodi:nodetypes="cc" />
  <path
     style="fill:none;stroke:#ffffff;stroke-width:1.2;stroke-linecap:butt;stroke-linejoin:miter;stroke-miterlimit:4;stroke-opacity:1"
     d="m 135.78906,14.359375 h 7.52344"
     id="path1009" />
  <path
     style="fill:#ffffff;fill-opacity:1;fill-rule:nonzero;stroke:none"
     d="m 135.46094,12.527344 c 1.04297,0 1.88672,0.84375 1.88672,1.886718 0,1.042969 -0.84375,1.886719 -1.88672,1.886719 -1.03907,0 -1.88672,-0.84375 -1.88672,-1.886719 0,-1.042968 0.84765,-1.886718 1.88672,-1.886718 z m 0,0"
     id="path1011" />
  <path
     style="fill:#ffffff;fill-opacity:1;fill-rule:nonzero;stroke:none"
     d="M 111.55469,15.671875 V 17.6875 c 0.64453,0 1.1875,0.25 1.625,0.75 0.4375,0.5 0.65625,1.199219 0.65625,2.09375 0,0.898438 -0.21875,1.601562 -0.65625,2.109375 -0.4375,0.5 -0.98047,0.75 -1.625,0.75 v 1.953125 h -0.89063 v -1.953125 c -0.65625,0 -1.19922,-0.25 -1.625,-0.75 -0.44922,-0.507813 -0.67187,-1.210937 -0.67187,-2.109375 0,-0.894531 0.22265,-1.59375 0.67187,-2.09375 0.42578,-0.5 0.96875,-0.75 1.625,-0.75 v -2.015625 z m 0,6.921875 c 0.36328,0 0.67187,-0.171875 0.92187,-0.515625 0.26953,-0.375 0.41016,-0.890625 0.42188,-1.546875 0,-0.644531 -0.14063,-1.160156 -0.42188,-1.546875 -0.25,-0.332031 -0.55859,-0.5 -0.92187,-0.5 z m -0.89063,0 v -4.109375 c -0.375,0 -0.68359,0.167969 -0.92187,0.5 -0.29297,0.386719 -0.4336,0.902344 -0.42188,1.546875 0,0.65625 0.14063,1.171875 0.42188,1.546875 0.23828,0.34375 0.54687,0.515625 0.92187,0.515625 z m 0,0"
     id="path1013" />
  <path
     style="fill:#ffffff;fill-opacity:1;fill-rule:nonzero;stroke:none"
     d="m 116.39844,21.449219 -1.20313,3.296875 h 2.40625 z m -2,3.796875 1.67187,-4.375 h 0.67188 l 1.67187,4.375 z m 0,0"
     id="path1015" />
  <path
     style="fill:#ffffff;fill-opacity:1;fill-rule:nonzero;stroke:none"
     d="m 134.20312,2.570312 v 1.828126 c 0.58204,0 1.06641,0.226562 1.45313,0.671874 0.40625,0.449219 0.60937,1.078126 0.60937,1.890626 0,0.804687 -0.20312,1.433593 -0.60937,1.890624 -0.38672,0.449219 -0.87109,0.671876 -1.45313,0.671876 v 1.765624 h -0.8125 V 9.523438 c -0.58593,0 -1.07031,-0.222657 -1.45312,-0.671876 -0.39844,-0.457031 -0.59375,-1.085937 -0.59375,-1.890624 0,-0.8125 0.19531,-1.441407 0.59375,-1.890626 0.38281,-0.445312 0.86719,-0.671874 1.45312,-0.671874 V 2.570312 Z m 0,6.234376 c 0.33204,0 0.60938,-0.148438 0.82813,-0.453126 0.25,-0.332031 0.375,-0.796874 0.375,-1.390624 0.008,-0.582032 -0.11719,-1.046876 -0.375,-1.390626 -0.21875,-0.300781 -0.49609,-0.453124 -0.82813,-0.453124 z m -0.8125,0 v -3.6875 c -0.32421,0 -0.60156,0.152343 -0.82812,0.453124 -0.25,0.34375 -0.375,0.808594 -0.375,1.390626 0,0.59375 0.125,1.058593 0.375,1.390624 0.22656,0.304688 0.50391,0.453126 0.82812,0.453126 z m 0,0"
     id="path1017" />
  <path
     style="fill:#ffffff;fill-opacity:1;fill-rule:nonzero;stroke:none"
     d="m 138.78125,9.445312 c 0.10156,0.03125 0.20312,0.109376 0.29687,0.234376 0.10157,0.117187 0.20704,0.273437 0.3125,0.46875 l 0.5,1 h -0.53125 l -0.46875,-0.9375 c -0.11718,-0.238282 -0.23046,-0.398438 -0.34375,-0.484376 -0.11718,-0.082031 -0.27343,-0.125 -0.46875,-0.125 h -0.53125 v 1.546876 h -0.5 V 7.507812 h 1.125 c 0.41407,0 0.72266,0.089844 0.92188,0.265626 0.20703,0.167968 0.3125,0.429687 0.3125,0.78125 0,0.230468 -0.0547,0.421874 -0.15625,0.578124 -0.10547,0.148438 -0.26172,0.25 -0.46875,0.3125 z m -1.23438,-1.53125 v 1.28125 h 0.625 c 0.22657,0 0.40625,-0.050781 0.53125,-0.15625 0.125,-0.113281 0.1875,-0.273437 0.1875,-0.484374 0,-0.21875 -0.0625,-0.378907 -0.1875,-0.484376 -0.125,-0.101562 -0.30468,-0.15625 -0.53125,-0.15625 z m 0,0"
     id="path1019" />
  <path
     style="fill:none;stroke:#ffffff;stroke-width:1.6;stroke-linecap:round;stroke-linejoin:miter;stroke-miterlimit:4;stroke-opacity:1"
     d="M 116.81641,0.800781 H 107.8125"
     id="path1021" />
  <path
     style="fill:none;stroke:#ffffff;stroke-width:1.6;stroke-linecap:butt;stroke-linejoin:miter;stroke-miterlimit:4;stroke-opacity:1"
     d="M 72.3125,68.246094 H 84.007812"
     id="path1025" />
  <path
     style="fill:none;stroke:#ffffff;stroke-width:1.2;stroke-linecap:butt;stroke-linejoin:miter;stroke-miterlimit:4;stroke-opacity:1"
     d="m 83,72.191406 c -2.128906,-1.886718 -7.40625,-1.859375 -9.480469,0.0039"
     id="path1027" />
  <path
     style="fill:#ffffff;fill-opacity:1;fill-rule:nonzero;stroke:none"
     d="m 85.984375,58.542969 v 0.9375 c -0.304687,-0.269531 -0.625,-0.472657 -0.96875,-0.609375 -0.335937,-0.144532 -0.6875,-0.21875 -1.0625,-0.21875 -0.75,0 -1.328125,0.230468 -1.734375,0.6875 -0.398438,0.460937 -0.59375,1.121094 -0.59375,1.984375 0,0.867187 0.195312,1.527343 0.59375,1.984375 0.40625,0.460937 0.984375,0.6875 1.734375,0.6875 0.375,0 0.726563,-0.06641 1.0625,-0.203125 0.34375,-0.132813 0.664063,-0.34375 0.96875,-0.625 v 0.9375 c -0.3125,0.210937 -0.640625,0.367187 -0.984375,0.46875 -0.34375,0.101562 -0.714844,0.15625 -1.109375,0.15625 -0.992187,0 -1.773437,-0.300781 -2.34375,-0.90625 -0.574219,-0.613281 -0.859375,-1.445313 -0.859375,-2.5 0,-1.050781 0.285156,-1.878907 0.859375,-2.484375 0.570313,-0.613282 1.351563,-0.921875 2.34375,-0.921875 0.394531,0 0.765625,0.05469 1.109375,0.15625 0.351562,0.105469 0.679688,0.261719 0.984375,0.46875 z m 0,0"
     id="path1029" />
  <path
     style="fill:#ffffff;fill-opacity:1;fill-rule:nonzero;stroke:none"
     d="m 86.871094,65.917969 h 0.796875 v -2.78125 l -0.875,0.1875 v -0.453125 l 0.875,-0.171875 h 0.5 v 3.21875 h 0.796875 v 0.421875 h -2.09375 z m 0,0"
     id="path1031" />
  <path
     style="fill:none;fill-opacity:1;fill-rule:evenodd;stroke:none"
     d="M 53.816406,40.40625 V 16.882812 l 16.417969,3.878907 v 15.652343 z m 0,0"
     id="path1033" />
  <g
     clip-path="url(#clip1)"
     clip-rule="nonzero"
     id="g1037"
     style="stroke:#ffffff">
    <path
       style="fill:none;stroke:#ffffff;stroke-width:1.2;stroke-linecap:butt;stroke-linejoin:miter;stroke-miterlimit:79.8403;stroke-opacity:1"
       d="M 53.816406,40.40625 V 16.882812 l 16.417969,3.878907 v 15.652343 z m 0,0"
       id="path1035" />
  </g>
  <path
     style="fill:#ffffff;fill-opacity:1;fill-rule:nonzero;stroke:none"
     d="m 55.628906,30.269531 0.671875,0.109375 c 0.03125,0.207032 0.113281,0.359375 0.25,0.453125 0.164063,0.132813 0.398438,0.203125 0.703125,0.203125 0.332032,0 0.585938,-0.07031 0.765625,-0.203125 0.175781,-0.125 0.296875,-0.308593 0.359375,-0.546875 0.03125,-0.148437 0.04687,-0.445312 0.04687,-0.90625 -0.3125,0.367188 -0.699219,0.546875 -1.15625,0.546875 -0.5625,0 -1,-0.203125 -1.3125,-0.609375 -0.3125,-0.414062 -0.46875,-0.910156 -0.46875,-1.484375 0,-0.394531 0.06641,-0.757812 0.203125,-1.09375 0.144532,-0.34375 0.351563,-0.601562 0.625,-0.78125 0.269532,-0.1875 0.59375,-0.28125 0.96875,-0.28125 0.488282,0 0.890625,0.199219 1.203125,0.59375 v -0.5 h 0.65625 v 3.59375 c 0,0.644531 -0.07031,1.101563 -0.203125,1.375 -0.136718,0.269531 -0.34375,0.484375 -0.625,0.640625 -0.28125,0.15625 -0.632812,0.234375 -1.046875,0.234375 -0.5,0 -0.902343,-0.117187 -1.203125,-0.34375 -0.304687,-0.21875 -0.449218,-0.554687 -0.4375,-1 z m 0.578125,-2.5 c 0,0.554688 0.101563,0.953125 0.3125,1.203125 0.21875,0.25 0.492188,0.375 0.828125,0.375 0.320313,0 0.59375,-0.125 0.8125,-0.375 0.21875,-0.25 0.328125,-0.640625 0.328125,-1.171875 0,-0.507812 -0.117187,-0.890625 -0.34375,-1.140625 -0.230469,-0.257812 -0.5,-0.390625 -0.8125,-0.390625 -0.3125,0 -0.578125,0.125 -0.796875,0.375 -0.21875,0.25 -0.328125,0.625 -0.328125,1.125 z m 0,0"
     id="path1039" />
  <path
     style="fill:#ffffff;fill-opacity:1;fill-rule:nonzero;stroke:none"
     d="m 60.207031,29.925781 v -4.15625 h 0.625 v 0.59375 c 0.132813,-0.207031 0.304688,-0.375 0.515625,-0.5 0.21875,-0.125 0.46875,-0.1875 0.75,-0.1875 0.300782,0 0.550782,0.07031 0.75,0.203125 0.195313,0.125 0.335938,0.304688 0.421875,0.53125 0.320313,-0.488281 0.75,-0.734375 1.28125,-0.734375 0.40625,0 0.71875,0.117188 0.9375,0.34375 0.226563,0.230469 0.34375,0.585938 0.34375,1.0625 v 2.84375 h -0.703125 v -2.609375 c 0,-0.28125 -0.02734,-0.484375 -0.07813,-0.609375 -0.04297,-0.125 -0.125,-0.222656 -0.25,-0.296875 -0.117187,-0.08203 -0.25,-0.125 -0.40625,-0.125 -0.292969,0 -0.539062,0.101563 -0.734375,0.296875 -0.1875,0.199219 -0.28125,0.511719 -0.28125,0.9375 v 2.40625 h -0.703125 v -2.703125 c 0,-0.3125 -0.05859,-0.546875 -0.171875,-0.703125 -0.117187,-0.15625 -0.304687,-0.234375 -0.5625,-0.234375 -0.199218,0 -0.386718,0.05469 -0.5625,0.15625 -0.167968,0.105469 -0.289062,0.261719 -0.359375,0.46875 -0.07422,0.199219 -0.109375,0.484375 -0.109375,0.859375 v 2.15625 z m 0,0"
     id="path1041" />
  <path
     style="fill:#ffffff;fill-opacity:1;fill-rule:nonzero;stroke:none"
     d="m 68.863281,31.105469 v 0.421875 h -2.359375 c -0.01172,-0.101563 0.0039,-0.207032 0.04687,-0.3125 0.0625,-0.15625 0.15625,-0.3125 0.28125,-0.46875 0.132813,-0.15625 0.328125,-0.335938 0.578125,-0.546875 0.394532,-0.3125 0.660156,-0.5625 0.796875,-0.75 0.132813,-0.1875 0.203125,-0.363281 0.203125,-0.53125 0,-0.175781 -0.0625,-0.320313 -0.1875,-0.4375 -0.125,-0.125 -0.289062,-0.1875 -0.484375,-0.1875 -0.21875,0 -0.390625,0.07031 -0.515625,0.203125 -0.125,0.125 -0.1875,0.296875 -0.1875,0.515625 l -0.453125,-0.04687 c 0.03125,-0.332032 0.144531,-0.585938 0.34375,-0.765625 0.207031,-0.175781 0.476563,-0.265625 0.8125,-0.265625 0.34375,0 0.613281,0.101562 0.8125,0.296875 0.207031,0.1875 0.3125,0.421875 0.3125,0.703125 0,0.136718 -0.03125,0.277344 -0.09375,0.421875 -0.05469,0.136719 -0.152343,0.28125 -0.296875,0.4375 -0.136718,0.148437 -0.359375,0.355469 -0.671875,0.625 -0.261719,0.21875 -0.433593,0.371093 -0.515625,0.453125 -0.07422,0.07422 -0.132812,0.152344 -0.171875,0.234375 z m 0,0"
     id="path1043" />
  <g
     clip-path="url(#clip2)"
     clip-rule="nonzero"
     id="g1049"
     style="stroke:#ffffff">
    <path
       style="fill:none;stroke:#ffffff;stroke-width:1.2;stroke-linecap:butt;stroke-linejoin:miter;stroke-miterlimit:79.8403;stroke-opacity:1"
       d="M 53.699219,67.527344 V 44.191406 l 16.417969,3.84375 v 15.535156 z m 0,0"
       id="path1047" />
  </g>
  <path
     style="fill:#ffffff;fill-opacity:1;fill-rule:nonzero;stroke:none"
     d="m 55.511719,57.476562 0.671875,0.109376 c 0.03125,0.207031 0.113281,0.359374 0.25,0.453124 0.164062,0.132813 0.398437,0.203126 0.703125,0.203126 0.332031,0 0.585937,-0.07031 0.765625,-0.203126 0.175781,-0.125 0.296875,-0.308593 0.359375,-0.546874 0.03125,-0.148438 0.04687,-0.445313 0.04687,-0.90625 -0.3125,0.367187 -0.699219,0.546874 -1.15625,0.546874 -0.5625,0 -1,-0.203124 -1.3125,-0.609374 -0.3125,-0.414063 -0.46875,-0.910157 -0.46875,-1.484376 0,-0.394531 0.06641,-0.757812 0.203125,-1.09375 0.144531,-0.34375 0.351562,-0.601562 0.625,-0.78125 0.269531,-0.1875 0.59375,-0.28125 0.96875,-0.28125 0.488281,0 0.890625,0.199219 1.203125,0.59375 v -0.5 h 0.65625 v 3.59375 c 0,0.644532 -0.07031,1.101563 -0.203125,1.375 -0.136719,0.269532 -0.34375,0.484376 -0.625,0.640626 -0.28125,0.15625 -0.632813,0.234374 -1.046875,0.234374 -0.5,0 -0.902344,-0.117187 -1.203125,-0.34375 -0.304688,-0.21875 -0.449219,-0.554687 -0.4375,-1 z m 0.578125,-2.5 c 0,0.554688 0.101562,0.953126 0.3125,1.203126 0.21875,0.25 0.492187,0.375 0.828125,0.375 0.320312,0 0.59375,-0.125 0.8125,-0.375 0.21875,-0.25 0.328125,-0.640626 0.328125,-1.171876 0,-0.507812 -0.117188,-0.890624 -0.34375,-1.140624 -0.230469,-0.257813 -0.5,-0.390626 -0.8125,-0.390626 -0.3125,0 -0.578125,0.125 -0.796875,0.375 -0.21875,0.25 -0.328125,0.625 -0.328125,1.125 z m 0,0"
     id="path1051" />
  <path
     style="fill:#ffffff;fill-opacity:1;fill-rule:nonzero;stroke:none"
     d="m 60.089844,57.132812 v -4.15625 h 0.625 v 0.59375 c 0.132812,-0.207031 0.304687,-0.375 0.515625,-0.5 0.21875,-0.125 0.46875,-0.1875 0.75,-0.1875 0.300781,0 0.550781,0.07031 0.75,0.203126 0.195312,0.125 0.335937,0.304687 0.421875,0.53125 0.320312,-0.488282 0.75,-0.734376 1.28125,-0.734376 0.40625,0 0.71875,0.117188 0.9375,0.34375 0.226562,0.230469 0.34375,0.585938 0.34375,1.0625 v 2.84375 h -0.703125 v -2.609374 c 0,-0.28125 -0.02734,-0.484376 -0.07813,-0.609376 -0.04297,-0.125 -0.125,-0.222656 -0.25,-0.296874 -0.117188,-0.08203 -0.25,-0.125 -0.40625,-0.125 -0.292969,0 -0.539063,0.101562 -0.734375,0.296874 -0.1875,0.199219 -0.28125,0.511719 -0.28125,0.9375 v 2.40625 h -0.703125 v -2.703124 c 0,-0.3125 -0.05859,-0.546876 -0.171875,-0.703126 -0.117188,-0.15625 -0.304688,-0.234374 -0.5625,-0.234374 -0.199219,0 -0.386719,0.05469 -0.5625,0.15625 -0.167969,0.105468 -0.289063,0.261718 -0.359375,0.46875 -0.07422,0.199218 -0.109375,0.484374 -0.109375,0.859374 v 2.15625 z m 0,0"
     id="path1053" />
  <path
     style="fill:#ffffff;fill-opacity:1;fill-rule:nonzero;stroke:none"
     d="m 68.089844,58.734375 h -0.4375 V 55.9375 c -0.105469,0.09375 -0.246094,0.195312 -0.421875,0.296875 -0.167969,0.105469 -0.320313,0.183594 -0.453125,0.234375 v -0.4375 c 0.238281,-0.113281 0.453125,-0.25 0.640625,-0.40625 0.1875,-0.164062 0.316406,-0.328125 0.390625,-0.484375 h 0.28125 z m 0,0"
     id="path1055" />
  <g
     clip-path="url(#clip3)"
     clip-rule="nonzero"
     id="g1061"
     style="stroke:#ffffff">
    <path
       style="fill:none;stroke:#ffffff;stroke-width:1.2;stroke-linecap:butt;stroke-linejoin:miter;stroke-miterlimit:79.8403;stroke-opacity:1"
       d="M 91.554688,67.625 V 44.285156 l 16.421872,3.847656 v 15.53125 z m 0,0"
       id="path1059" />
  </g>
  <path
     style="fill:#ffffff;fill-opacity:1;fill-rule:nonzero;stroke:none"
     d="m 93.367188,57.589844 0.671874,0.109375 c 0.03125,0.207031 0.113282,0.359375 0.25,0.453125 0.164063,0.132812 0.398438,0.203125 0.703126,0.203125 0.332031,0 0.585937,-0.07031 0.765624,-0.203125 0.175782,-0.125 0.296876,-0.308594 0.359376,-0.546875 0.03125,-0.148438 0.04687,-0.445313 0.04687,-0.90625 -0.3125,0.367187 -0.699218,0.546875 -1.15625,0.546875 -0.5625,0 -1,-0.203125 -1.3125,-0.609375 -0.3125,-0.414063 -0.46875,-0.910157 -0.46875,-1.484375 0,-0.394532 0.06641,-0.757813 0.203126,-1.09375 0.144531,-0.34375 0.351562,-0.601563 0.625,-0.78125 0.269531,-0.1875 0.59375,-0.28125 0.96875,-0.28125 0.488281,0 0.890624,0.199218 1.203124,0.59375 v -0.5 h 0.65625 v 3.59375 c 0,0.644531 -0.07031,1.101562 -0.203124,1.375 -0.136719,0.269531 -0.34375,0.484375 -0.625,0.640625 -0.28125,0.15625 -0.632813,0.234375 -1.046876,0.234375 -0.5,0 -0.902343,-0.117188 -1.203124,-0.34375 -0.304688,-0.21875 -0.449219,-0.554688 -0.4375,-1 z m 0.578124,-2.5 c 0,0.554687 0.101563,0.953125 0.3125,1.203125 0.21875,0.25 0.492188,0.375 0.828126,0.375 0.320312,0 0.59375,-0.125 0.8125,-0.375 0.21875,-0.25 0.328124,-0.640625 0.328124,-1.171875 0,-0.507813 -0.117187,-0.890625 -0.34375,-1.140625 -0.230468,-0.257813 -0.5,-0.390625 -0.8125,-0.390625 -0.3125,0 -0.578124,0.125 -0.796874,0.375 -0.21875,0.25 -0.328126,0.625 -0.328126,1.125 z m 0,0"
     id="path1063" />
  <path
     style="fill:#ffffff;fill-opacity:1;fill-rule:nonzero;stroke:none"
     d="m 97.945312,57.246094 v -4.15625 h 0.625 v 0.59375 c 0.132813,-0.207032 0.304688,-0.375 0.515626,-0.5 0.21875,-0.125 0.46875,-0.1875 0.75,-0.1875 0.300782,0 0.550782,0.07031 0.750002,0.203125 0.19531,0.125 0.33594,0.304687 0.42187,0.53125 0.32032,-0.488281 0.75,-0.734375 1.28125,-0.734375 0.40625,0 0.71875,0.117187 0.9375,0.34375 0.22657,0.230468 0.34375,0.585937 0.34375,1.0625 v 2.84375 h -0.70312 v -2.609375 c 0,-0.28125 -0.0273,-0.484375 -0.0781,-0.609375 -0.043,-0.125 -0.125,-0.222656 -0.25,-0.296875 -0.11718,-0.08203 -0.25,-0.125 -0.40625,-0.125 -0.29297,0 -0.53906,0.101562 -0.73437,0.296875 -0.1875,0.199218 -0.28125,0.511718 -0.28125,0.9375 v 2.40625 h -0.70313 v -2.703125 c 0,-0.3125 -0.0586,-0.546875 -0.17187,-0.703125 -0.11719,-0.15625 -0.30469,-0.234375 -0.562502,-0.234375 -0.199219,0 -0.386719,0.05469 -0.5625,0.15625 -0.167969,0.105469 -0.289063,0.261719 -0.359376,0.46875 -0.07422,0.199219 -0.109374,0.484375 -0.109374,0.859375 v 2.15625 z m 0,0"
     id="path1065" />
  <path
     style="fill:#ffffff;fill-opacity:1;fill-rule:nonzero;stroke:none"
     d="m 104.28906,57.910156 0.45313,-0.0625 c 0.0391,0.25 0.125,0.433594 0.25,0.546875 0.125,0.105469 0.26953,0.15625 0.4375,0.15625 0.20703,0 0.38281,-0.07031 0.53125,-0.21875 0.14453,-0.144531 0.21875,-0.320312 0.21875,-0.53125 0,-0.195312 -0.0703,-0.363281 -0.20313,-0.5 -0.13672,-0.132812 -0.30468,-0.203125 -0.5,-0.203125 -0.0859,0 -0.1875,0.02344 -0.3125,0.0625 l 0.0469,-0.390625 c 0.0312,0 0.0547,0 0.0781,0 0.1875,0 0.35157,-0.04687 0.5,-0.140625 0.14453,-0.101562 0.21875,-0.253906 0.21875,-0.453125 0,-0.164062 -0.0586,-0.300781 -0.17187,-0.40625 -0.10547,-0.101562 -0.24219,-0.15625 -0.40625,-0.15625 -0.17969,0 -0.32422,0.05859 -0.4375,0.171875 -0.10547,0.105469 -0.17969,0.261719 -0.21875,0.46875 l -0.4375,-0.07813 c 0.0508,-0.289062 0.17187,-0.515625 0.35937,-0.671875 0.19532,-0.164062 0.4375,-0.25 0.71875,-0.25 0.19532,0 0.375,0.04297 0.53125,0.125 0.16407,0.08594 0.28907,0.199219 0.375,0.34375 0.0937,0.148438 0.14063,0.304688 0.14063,0.46875 0,0.148438 -0.043,0.289063 -0.125,0.421875 -0.0859,0.125 -0.20313,0.226563 -0.35938,0.296875 0.20703,0.05469 0.36719,0.15625 0.48438,0.3125 0.11328,0.148438 0.17187,0.335938 0.17187,0.5625 0,0.3125 -0.11718,0.578125 -0.34375,0.796875 -0.21875,0.21875 -0.50781,0.328125 -0.85937,0.328125 -0.3125,0 -0.57422,-0.09375 -0.78125,-0.28125 -0.21094,-0.1875 -0.32813,-0.425781 -0.35938,-0.71875 z m 0,0"
     id="path1067" />
  <path
     style="fill:#ffffff;fill-opacity:1;fill-rule:nonzero;stroke:none"
     d="m 80.371094,56.089844 c 0,1.042968 -0.84375,1.886718 -1.886719,1.886718 -1.039063,0 -1.886719,-0.84375 -1.886719,-1.886718 0,-1.039063 0.847656,-1.882813 1.886719,-1.882813 1.042969,0 1.886719,0.84375 1.886719,1.882813 z m 0,0"
     id="path1069" />
  <path
     style="fill:#ffffff;fill-opacity:1;fill-rule:nonzero;stroke:none"
     d="m 114.26172,41.875 c 0,1.042969 -0.84375,1.886719 -1.88672,1.886719 -1.03906,0 -1.88672,-0.84375 -1.88672,-1.886719 0,-1.042969 0.84766,-1.886719 1.88672,-1.886719 1.04297,0 1.88672,0.84375 1.88672,1.886719 z m 0,0"
     id="path1071" />
  <path
     style="fill:none;stroke:#ffffff;stroke-width:1.2;stroke-linecap:butt;stroke-linejoin:miter;stroke-miterlimit:4;stroke-opacity:1"
     d="m 170.64062,32.308594 h -8.44531"
     id="path1073" />
  <path
     style="fill:none;fill-opacity:1;fill-rule:evenodd;stroke:#ffffff;stroke-width:1.2;stroke-linecap:butt;stroke-linejoin:miter;stroke-miterlimit:10;stroke-opacity:1"
     d="m 170.27344,12.296875 h 18.64062 v 26.101563 h -18.64062 z m 0,0"
     id="path1075" />
  <path
     style="fill:none;fill-opacity:1;fill-rule:evenodd;stroke:#ffffff;stroke-width:0.8;stroke-linecap:butt;stroke-linejoin:miter;stroke-miterlimit:10;stroke-opacity:1"
     d="m 170.60547,29.757812 4.85937,2.761719 -4.85937,2.761719 z m 0,0"
     id="path1077" />
  <path
     style="fill:#ffffff;fill-opacity:1;fill-rule:nonzero;stroke:none"
     d="m 172.30859,23.011719 v -7.15625 h 2.46875 c 0.5625,0 0.98828,0.03125 1.28125,0.09375 0.40625,0.09375 0.75391,0.265625 1.04688,0.515625 0.375,0.324218 0.65625,0.734375 0.84375,1.234375 0.1875,0.492187 0.28125,1.054687 0.28125,1.6875 0,0.554687 -0.0625,1.039062 -0.1875,1.453125 -0.125,0.417968 -0.28906,0.765625 -0.48438,1.046875 -0.19922,0.273437 -0.41797,0.484375 -0.65625,0.640625 -0.24218,0.15625 -0.52734,0.277344 -0.85937,0.359375 -0.33594,0.08594 -0.71485,0.125 -1.14063,0.125 z m 0.95313,-0.84375 h 1.53125 c 0.46875,0 0.83594,-0.03906 1.10937,-0.125 0.26953,-0.09375 0.48438,-0.21875 0.64063,-0.375 0.22656,-0.226563 0.40625,-0.53125 0.53125,-0.90625 0.125,-0.382813 0.1875,-0.847657 0.1875,-1.390625 0,-0.738282 -0.125,-1.3125 -0.375,-1.71875 -0.25,-0.40625 -0.54688,-0.675782 -0.89063,-0.8125 -0.26172,-0.09375 -0.67187,-0.140625 -1.23437,-0.140625 h -1.5 z m 0,0"
     id="path1079" />
  <path
     style="fill:#ffffff;fill-opacity:1;fill-rule:nonzero;stroke:none"
     d="m 185.78906,22.140625 c 0.4375,0.304687 0.83594,0.523437 1.20313,0.65625 l -0.26563,0.671875 c -0.52344,-0.1875 -1.03906,-0.484375 -1.54687,-0.890625 -0.53125,0.304687 -1.11719,0.453125 -1.75,0.453125 -0.65625,0 -1.25,-0.15625 -1.78125,-0.46875 -0.52344,-0.3125 -0.92188,-0.75 -1.20313,-1.3125 -0.28125,-0.570312 -0.42187,-1.210938 -0.42187,-1.921875 0,-0.707031 0.14062,-1.347656 0.42187,-1.921875 0.28906,-0.582031 0.69531,-1.023438 1.21875,-1.328125 0.53125,-0.300781 1.125,-0.453125 1.78125,-0.453125 0.65625,0 1.25,0.15625 1.78125,0.46875 0.53125,0.3125 0.9375,0.75 1.21875,1.3125 0.28125,0.5625 0.42188,1.203125 0.42188,1.921875 0,0.585937 -0.0937,1.109375 -0.28125,1.578125 -0.17969,0.46875 -0.44532,0.882812 -0.79688,1.234375 z m -2.09375,-1.21875 c 0.55078,0.15625 1.00391,0.386719 1.35938,0.6875 0.55078,-0.507813 0.82812,-1.269531 0.82812,-2.28125 0,-0.582031 -0.10156,-1.085937 -0.29687,-1.515625 -0.19922,-0.4375 -0.48438,-0.773438 -0.85938,-1.015625 -0.375,-0.238281 -0.80469,-0.359375 -1.28125,-0.359375 -0.71094,0 -1.29687,0.246094 -1.76562,0.734375 -0.46094,0.480469 -0.6875,1.199219 -0.6875,2.15625 0,0.929687 0.22656,1.640625 0.6875,2.140625 0.45703,0.5 1.04687,0.75 1.76562,0.75 0.34375,0 0.66016,-0.0625 0.95313,-0.1875 -0.29297,-0.195312 -0.60547,-0.335938 -0.9375,-0.421875 z m 0,0"
     id="path1081" />
  <path
     style="fill:#ffffff;fill-opacity:1;fill-rule:nonzero;stroke:none"
     d="m 156.58203,39.035156 v -4.5 h -0.78125 v -0.6875 h 0.78125 v -0.546875 c 0,-0.351562 0.0312,-0.613281 0.0937,-0.78125 0.082,-0.226562 0.22656,-0.410156 0.4375,-0.546875 0.21875,-0.144531 0.51953,-0.21875 0.90625,-0.21875 0.23828,0 0.50781,0.03125 0.8125,0.09375 l -0.125,0.765625 c -0.1875,-0.03125 -0.36719,-0.04687 -0.53125,-0.04687 -0.26172,0 -0.44922,0.05859 -0.5625,0.171875 -0.10547,0.105469 -0.15625,0.3125 -0.15625,0.625 v 0.484375 h 1 v 0.6875 h -1 v 4.5 z m 0,0"
     id="path1083" />
  <path
     style="fill:#ffffff;fill-opacity:1;fill-rule:nonzero;stroke:none"
     d="m 158.58594,41.113281 1.92187,-5.015625 h 0.70313 l 2.0625,5.015625 z m 0.90625,-0.59375 h 2.79687 l -1.09375,-2.859375 c -0.15625,-0.425781 -0.27344,-0.769531 -0.34375,-1.03125 -0.0625,0.3125 -0.15625,0.632813 -0.28125,0.953125 z m 0,0"
     id="path1085" />
  <path
     style="fill:#ffffff;fill-opacity:1;fill-rule:nonzero;stroke:none"
     d="m 166.99609,36.097656 v 0.59375 h -2.6875 l 1.71875,1.828125 -1.71875,2 h 2.82813 v 0.59375 h -3.54688 v -0.6875 l 1.64063,-1.90625 -1.64063,-1.75 v -0.671875 z m 0,0"
     id="path1087" />
  <path
     style="fill:#ffffff;fill-opacity:1;fill-rule:nonzero;stroke:none"
     d="m 134.6875,20.621094 4.05078,5.574218 c 0.22266,0.308594 0.15234,0.738282 -0.15234,0.960938 -0.3086,0.222656 -0.73828,0.15625 -0.96094,-0.152344 l -4.04688,-5.574218 c -0.22265,-0.304688 -0.15625,-0.738282 0.14844,-0.960938 0.3086,-0.222656 0.73828,-0.15625 0.96094,0.152344"
     id="path1089" />
  <path
     style="fill:#ffffff;fill-opacity:1;fill-rule:nonzero;stroke:none"
     d="m 134.44922,28.148438 h 0.875 v 2.78125 l 2.95312,-2.78125 h 1.14063 l -3.25,3.0625 3.48437,3.5 h -1.17187 l -3.15625,-3.15625 v 3.15625 h -0.875 z m 0,0"
     id="path1091" />
  <path
     style="fill:#ffffff;fill-opacity:1;fill-rule:nonzero;stroke:none"
     d="m 209.36328,11.714844 c 0.4375,0.304687 0.83594,0.523437 1.20313,0.65625 l -0.26563,0.671875 c -0.52344,-0.1875 -1.03906,-0.484375 -1.54687,-0.890625 -0.53125,0.304687 -1.11719,0.453125 -1.75,0.453125 -0.65625,0 -1.25,-0.15625 -1.78125,-0.46875 -0.52344,-0.3125 -0.92188,-0.75 -1.20313,-1.3125 -0.28125,-0.570313 -0.42187,-1.210938 -0.42187,-1.921875 0,-0.707032 0.14062,-1.347656 0.42187,-1.921875 0.28906,-0.582031 0.69531,-1.023438 1.21875,-1.328125 0.53125,-0.300782 1.125,-0.453125 1.78125,-0.453125 0.65625,0 1.25,0.15625 1.78125,0.46875 0.53125,0.3125 0.9375,0.75 1.21875,1.3125 0.28125,0.5625 0.42188,1.203125 0.42188,1.921875 0,0.585937 -0.0937,1.109375 -0.28125,1.578125 -0.17969,0.46875 -0.44532,0.882812 -0.79688,1.234375 z m -2.09375,-1.21875 c 0.55078,0.15625 1.00391,0.386718 1.35938,0.6875 0.55078,-0.507813 0.82812,-1.269532 0.82812,-2.28125 0,-0.582032 -0.10156,-1.085938 -0.29687,-1.515625 -0.19922,-0.4375 -0.48438,-0.773438 -0.85938,-1.015625 -0.375,-0.238282 -0.80469,-0.359375 -1.28125,-0.359375 -0.71094,0 -1.29687,0.246093 -1.76562,0.734375 -0.46094,0.480468 -0.6875,1.199218 -0.6875,2.15625 0,0.929687 0.22656,1.640625 0.6875,2.140625 0.45703,0.5 1.04687,0.75 1.76562,0.75 0.34375,0 0.66016,-0.0625 0.95313,-0.1875 -0.29297,-0.195313 -0.60547,-0.335938 -0.9375,-0.421875 z m 0,0"
     id="path1093" />
  <path
     style="fill:none;fill-opacity:1;fill-rule:evenodd;stroke:none"
     d="m 201.48828,15.226562 v 6.675782 h 10.05469 l 3.25,-3.253906 -3.33594,-3.335938 z m 0,0"
     id="path1095" />
  <g
     clip-path="url(#clip4)"
     clip-rule="nonzero"
     id="g1099">
    <path
       style="fill:none;stroke:#ffffff;stroke-width:1.2;stroke-linecap:butt;stroke-linejoin:miter;stroke-miterlimit:4;stroke-opacity:1"
       d="m 201.48828,15.226562 v 6.675782 h 10.05469 l 3.25,-3.253906 -3.33594,-3.335938 z m 0,0"
       id="path1097" />
  </g>
  <path
     style="fill:#ffffff;fill-opacity:1;fill-rule:nonzero;stroke:none"
     d="M 2.769531,48.203125 0.00390625,41.046875 H 1.019531 l 1.875,5.203125 c 0.144531,0.417969 0.269531,0.808594 0.375,1.171875 0.101563,-0.394531 0.226563,-0.785156 0.375,-1.171875 l 1.9375,-5.203125 h 0.96875 l -2.796875,7.15625 z m 0,0"
     id="path1101" />
  <path
     style="fill:#ffffff;fill-opacity:1;fill-rule:nonzero;stroke:none"
     d="m 7.292969,45.1875 h 0.65625 v 5.015625 h -0.65625 z m 0,0"
     id="path1103" />
  <path
     style="fill:#ffffff;fill-opacity:1;fill-rule:nonzero;stroke:none"
     d="M 8.96875,50.203125 V 45.1875 h 0.6875 l 2.625,3.9375 v -3.9375 h 0.640625 v 5.015625 h -0.6875 l -2.625,-3.9375 v 3.9375 z m 0,0"
     id="path1105" />
  <path
     style="fill:none;fill-opacity:1;fill-rule:evenodd;stroke:#ffffff;stroke-width:1.2;stroke-linecap:butt;stroke-linejoin:miter;stroke-miterlimit:4;stroke-opacity:1"
     d="m 1.011719,52.523438 v 6.675781 h 10.054687 l 3.253906,-3.253907 -3.335937,-3.335937 z m 0,0"
     id="path1107" />
  <path
     style="fill:#ffffff;fill-opacity:1;fill-rule:nonzero;stroke:none"
     d="m 36.550781,63.863281 h 3.25 v 1.0625 h -3.25 z m 0,0"
     id="path1109" />
  <path
     style="fill:none;fill-opacity:1;fill-rule:nonzero;stroke:#ffffff;stroke-width:1.2;stroke-linecap:butt;stroke-linejoin:miter;stroke-miterlimit:4;stroke-opacity:1"
     d="m 141.5,60.730469 c 0,4.273437 -3.46094,7.734375 -7.73438,7.734375 -4.27343,0 -7.73437,-3.460938 -7.73437,-7.734375 0,-4.273438 3.46094,-7.734375 7.73437,-7.734375 4.27344,0 7.73438,3.460937 7.73438,7.734375 z m 0,0"
     id="path1113" />
  <path
     style="fill:#ffffff;fill-opacity:1;fill-rule:nonzero;stroke:none"
     d="m 133.76562,56.039062 1.29297,2.636719 1.28907,2.640625 h -5.16407 l 1.28907,-2.640625 z m 0,0"
     id="path1115" />
  <path
     style="fill:none;stroke:#ffffff;stroke-width:1.2;stroke-linecap:butt;stroke-linejoin:miter;stroke-miterlimit:4;stroke-opacity:1"
     d="m 133.72266,58.210938 v 8.234374"
     id="path1117" />
  <path
     style="fill:none;stroke:#ffffff;stroke-width:1.6;stroke-linecap:round;stroke-linejoin:miter;stroke-miterlimit:4;stroke-opacity:1"
     d="m 138.26953,47.910156 h -9.00781"
     id="path1119" />
  <path
     style="fill:#ffffff;fill-opacity:1;fill-rule:nonzero;stroke:none"
     d="m 145.11328,57.28125 h 0.875 v 6.5625 h -0.875 z m 0,0"
     id="path1121" />
  <path
     style="fill:#ffffff;fill-opacity:1;fill-rule:nonzero;stroke:none"
     d="m 148.48047,62.421875 -1,2.75 h 2.01562 z m -1.65625,3.15625 1.39062,-3.640625 h 0.54688 l 1.39062,3.640625 z m 0,0"
     id="path1123" />
  <path
     style="fill:#ffffff;fill-opacity:1;fill-rule:nonzero;stroke:none"
     d="m 148.86719,83.472656 c 0.4375,0.304688 0.83593,0.523438 1.20312,0.65625 l -0.26562,0.671875 c -0.52344,-0.1875 -1.03907,-0.484375 -1.54688,-0.890625 -0.53125,0.304688 -1.11719,0.453125 -1.75,0.453125 -0.65625,0 -1.25,-0.15625 -1.78125,-0.46875 -0.52344,-0.3125 -0.92187,-0.75 -1.20312,-1.3125 -0.28125,-0.570312 -0.42188,-1.210937 -0.42188,-1.921875 0,-0.707031 0.14063,-1.347656 0.42188,-1.921875 0.28906,-0.582031 0.69531,-1.023437 1.21875,-1.328125 0.53125,-0.300781 1.125,-0.453125 1.78125,-0.453125 0.65625,0 1.25,0.15625 1.78125,0.46875 0.53125,0.3125 0.9375,0.75 1.21875,1.3125 0.28125,0.5625 0.42187,1.203125 0.42187,1.921875 0,0.585938 -0.0937,1.109375 -0.28125,1.578125 -0.17969,0.46875 -0.44531,0.882813 -0.79687,1.234375 z m -2.09375,-1.21875 c 0.55078,0.15625 1.0039,0.386719 1.35937,0.6875 0.55078,-0.507812 0.82813,-1.269531 0.82813,-2.28125 0,-0.582031 -0.10157,-1.085937 -0.29688,-1.515625 -0.19922,-0.4375 -0.48437,-0.773437 -0.85937,-1.015625 -0.375,-0.238281 -0.80469,-0.359375 -1.28125,-0.359375 -0.71094,0 -1.29688,0.246094 -1.76563,0.734375 -0.46094,0.480469 -0.6875,1.199219 -0.6875,2.15625 0,0.929688 0.22656,1.640625 0.6875,2.140625 0.45703,0.5 1.04688,0.75 1.76563,0.75 0.34375,0 0.66015,-0.0625 0.95312,-0.1875 -0.29297,-0.195312 -0.60547,-0.335937 -0.9375,-0.421875 z m 0,0"
     id="path1125" />
  <path
     style="fill:#ffffff;fill-opacity:1;fill-rule:nonzero;stroke:none"
     d="m 153.04687,86.238281 h -0.60937 v -3.921875 c -0.15625,0.148438 -0.35547,0.292969 -0.59375,0.4375 -0.24219,0.136719 -0.45313,0.242188 -0.64063,0.3125 v -0.609375 c 0.34375,-0.15625 0.64063,-0.347656 0.89063,-0.578125 0.25781,-0.226562 0.44531,-0.453125 0.5625,-0.671875 h 0.39062 z m 0,0"
     id="path1127" />
  <path
     style="fill:#ffffff;fill-opacity:1;fill-rule:nonzero;stroke:none"
     d="m 121.44531,83.9375 c 0.4375,0.304688 0.83594,0.523438 1.20313,0.65625 l -0.26563,0.671875 c -0.52343,-0.1875 -1.03906,-0.484375 -1.54687,-0.890625 -0.53125,0.304688 -1.11719,0.453125 -1.75,0.453125 -0.65625,0 -1.25,-0.15625 -1.78125,-0.46875 -0.52344,-0.3125 -0.92188,-0.75 -1.20313,-1.3125 -0.28125,-0.570313 -0.42187,-1.210937 -0.42187,-1.921875 0,-0.707031 0.14062,-1.347656 0.42187,-1.921875 0.28907,-0.582031 0.69532,-1.023437 1.21875,-1.328125 0.53125,-0.300781 1.125,-0.453125 1.78125,-0.453125 0.65625,0 1.25,0.15625 1.78125,0.46875 0.53125,0.3125 0.9375,0.75 1.21875,1.3125 0.28125,0.5625 0.42188,1.203125 0.42188,1.921875 0,0.585938 -0.0937,1.109375 -0.28125,1.578125 -0.17969,0.46875 -0.44531,0.882813 -0.79688,1.234375 z m -2.09375,-1.21875 c 0.55078,0.15625 1.00391,0.386719 1.35938,0.6875 0.55078,-0.507812 0.82812,-1.269531 0.82812,-2.28125 0,-0.582031 -0.10156,-1.085938 -0.29687,-1.515625 -0.19922,-0.4375 -0.48438,-0.773437 -0.85938,-1.015625 -0.375,-0.238281 -0.80468,-0.359375 -1.28125,-0.359375 -0.71093,0 -1.29687,0.246094 -1.76562,0.734375 -0.46094,0.480469 -0.6875,1.199219 -0.6875,2.15625 0,0.929688 0.22656,1.640625 0.6875,2.140625 0.45703,0.5 1.04687,0.75 1.76562,0.75 0.34375,0 0.66016,-0.0625 0.95313,-0.1875 -0.29297,-0.195313 -0.60547,-0.335937 -0.9375,-0.421875 z m 0,0"
     id="path1129" />
  <path
     style="fill:#ffffff;fill-opacity:1;fill-rule:nonzero;stroke:none"
     d="m 125.625,86.703125 h -0.60937 V 82.78125 c -0.15625,0.148438 -0.35547,0.292969 -0.59375,0.4375 -0.24219,0.136719 -0.45313,0.242188 -0.64063,0.3125 v -0.609375 c 0.34375,-0.15625 0.64063,-0.347656 0.89063,-0.578125 0.25781,-0.226562 0.44531,-0.453125 0.5625,-0.671875 h 0.39062 z m 0,0"
     id="path1131" />
  <path
     style="fill:none;stroke:#ffffff;stroke-width:0.8;stroke-linecap:butt;stroke-linejoin:miter;stroke-miterlimit:4;stroke-opacity:1"
     d="m 122.08203,76.160156 h -6.10937"
     id="path1133" />
  <path
     style="fill:#ffffff;fill-opacity:1;fill-rule:nonzero;stroke:none"
     d="m 160.82422,90.585938 c 1.03906,0 1.88672,0.847656 1.88672,1.886718 0,1.042969 -0.84766,1.886719 -1.88672,1.886719 -1.04297,0 -1.88672,-0.84375 -1.88672,-1.886719 0,-1.039062 0.84375,-1.886718 1.88672,-1.886718 z m 0,0"
     id="path1135" />
  <path
     style="fill:#ffffff;fill-opacity:1;fill-rule:nonzero;stroke:none"
     d="m 194.62109,15.546875 4.04688,5.574219 c 0.22265,0.304687 0.15625,0.734375 -0.15235,0.960937 -0.30468,0.222657 -0.73437,0.152344 -0.96093,-0.152343 l -4.04688,-5.574219 c -0.22265,-0.308594 -0.15625,-0.738281 0.15235,-0.960938 0.30468,-0.222656 0.73828,-0.15625 0.96093,0.152344"
     id="path1137" />
  <path
     style="fill:#ffffff;fill-opacity:1;fill-rule:nonzero;stroke:none"
     d="m 202.50391,66.277344 h 0.875 v 2.78125 l 2.95312,-2.78125 h 1.14063 l -3.25,3.0625 3.48437,3.5 h -1.17187 l -3.15625,-3.15625 v 3.15625 h -0.875 z m 0,0"
     id="path1139" />
  <path
     style="fill:none;stroke:#ffffff;stroke-width:1.6;stroke-linecap:butt;stroke-linejoin:miter;stroke-miterlimit:4;stroke-opacity:1"
     d="M 202.41797,80.367188 H 191.21875"
     id="path1143" />
  <path
     style="fill:none;stroke:#ffffff;stroke-width:1.2;stroke-linecap:butt;stroke-linejoin:miter;stroke-miterlimit:4;stroke-opacity:1"
     d="m 192.18359,76.589844 c 2.03907,1.808594 7.08985,1.78125 9.07813,-0.0039"
     id="path1145" />
  <path
     style="fill:#ffffff;fill-opacity:1;fill-rule:nonzero;stroke:none"
     d="m 196.83594,63.816406 c 1.04297,0 1.88672,0.84375 1.88672,1.886719 0,1.042969 -0.84375,1.886719 -1.88672,1.886719 -1.03907,0 -1.88672,-0.84375 -1.88672,-1.886719 0,-1.042969 0.84765,-1.886719 1.88672,-1.886719 z m 0,0"
     id="path1147" />
  <path
     style="fill:#ffffff;fill-opacity:1;fill-rule:nonzero;stroke:none"
     d="m 137.96875,78.773438 -4.05078,5.574218 c -0.22266,0.304688 -0.15625,0.734375 0.15234,0.960938 0.3086,0.222656 0.73828,0.152344 0.96094,-0.152344 l 4.04687,-5.574219 c 0.22266,-0.308593 0.15625,-0.738281 -0.15234,-0.960937 -0.30469,-0.222656 -0.73437,-0.15625 -0.95703,0.152344"
     id="path1151" />
  <path
     style="fill:none;fill-opacity:1;fill-rule:nonzero;stroke:#ffffff;stroke-width:1.2;stroke-linecap:butt;stroke-linejoin:miter;stroke-miterlimit:4;stroke-opacity:1"
     d="m 133.71875,84.488281 c -0.73438,0 -1.32813,0.597657 -1.32813,1.328125 0,0.734375 0.59375,1.328125 1.32813,1.328125 0.73437,0 1.32812,-0.59375 1.32812,-1.328125 0,-0.730468 -0.59375,-1.328125 -1.32812,-1.328125 z m 0,0"
     id="path1153" />
  <path
     style="fill:none;fill-opacity:1;fill-rule:nonzero;stroke:#ffffff;stroke-width:1.2;stroke-linecap:butt;stroke-linejoin:miter;stroke-miterlimit:4;stroke-opacity:1"
     d="m 133.70312,74.933594 c -0.73437,0 -1.32812,0.59375 -1.32812,1.328125 0,0.734375 0.59375,1.328125 1.32812,1.328125 0.73047,0 1.32813,-0.59375 1.32813,-1.328125 0,-0.734375 -0.59766,-1.328125 -1.32813,-1.328125 z m 0,0"
     id="path1155" />
  <path
     style="fill:none;stroke:#ffffff;stroke-width:0.4;stroke-linecap:butt;stroke-linejoin:miter;stroke-miterlimit:4;stroke-opacity:1"
     d="m 130.84766,80.945312 h -4.30469"
     id="path1157" />
  <path
     style="fill:#ffffff;fill-opacity:1;fill-rule:nonzero;stroke:none"
     d="m 133.07031,80.96875 -1.54297,0.496094 -1.54687,0.496094 v -1.988282 l 1.54687,0.496094 z m 0,0"
     id="path1159" />
  <path
     style="fill:#000000;fill-opacity:1;fill-rule:nonzero;stroke:#ffffff"
     d="m 200.07812,72.921875 -5.57421,-4.050781 c -0.3086,-0.222656 -0.73829,-0.152344 -0.96094,0.152344 -0.22266,0.308593 -0.15625,0.738281 0.15234,0.960937 l 5.57422,4.050781 c 0.30859,0.222656 0.73828,0.152344 0.96094,-0.152344 0.22265,-0.308593 0.15625,-0.738281 -0.15235,-0.960937"
     id="path1161" />
  <path
     style="fill:#ffffff;fill-opacity:1;fill-rule:nonzero;stroke:none"
     d="m 204.08594,82.9375 v 0.9375 c -0.30469,-0.269531 -0.625,-0.472656 -0.96875,-0.609375 -0.33594,-0.144531 -0.6875,-0.21875 -1.0625,-0.21875 -0.75,0 -1.32813,0.230469 -1.73438,0.6875 -0.39844,0.460937 -0.59375,1.121094 -0.59375,1.984375 0,0.867188 0.19531,1.527344 0.59375,1.984375 0.40625,0.460937 0.98438,0.6875 1.73438,0.6875 0.375,0 0.72656,-0.06641 1.0625,-0.203125 0.34375,-0.132812 0.66406,-0.34375 0.96875,-0.625 V 88.5 c -0.3125,0.210938 -0.64063,0.367188 -0.98438,0.46875 -0.34375,0.101562 -0.71484,0.15625 -1.10937,0.15625 -0.99219,0 -1.77344,-0.300781 -2.34375,-0.90625 -0.57422,-0.613281 -0.85938,-1.445312 -0.85938,-2.5 0,-1.050781 0.28516,-1.878906 0.85938,-2.484375 0.57031,-0.613281 1.35156,-0.921875 2.34375,-0.921875 0.39453,0 0.76562,0.05469 1.10937,0.15625 0.35156,0.105469 0.67969,0.261719 0.98438,0.46875 z m 0,0"
     id="path1163" />
  <path
     style="fill:#ffffff;fill-opacity:1;fill-rule:nonzero;stroke:none"
     d="m 207.56641,87.375 v 0.515625 c -0.16797,-0.15625 -0.34375,-0.269531 -0.53125,-0.34375 -0.1875,-0.08203 -0.38672,-0.125 -0.59375,-0.125 -0.41797,0 -0.74219,0.132813 -0.96875,0.390625 -0.21875,0.25 -0.32813,0.621094 -0.32813,1.109375 0,0.480469 0.10938,0.851563 0.32813,1.109375 0.22656,0.25 0.55078,0.375 0.96875,0.375 0.20703,0 0.40625,-0.03516 0.59375,-0.109375 0.1875,-0.08203 0.36328,-0.203125 0.53125,-0.359375 v 0.515625 c -0.16797,0.117187 -0.35157,0.203125 -0.54688,0.265625 -0.1875,0.0625 -0.39062,0.09375 -0.60937,0.09375 -0.55469,0 -0.99219,-0.164062 -1.3125,-0.5 -0.3125,-0.34375 -0.46875,-0.804688 -0.46875,-1.390625 0,-0.59375 0.15625,-1.054687 0.46875,-1.390625 0.32031,-0.34375 0.75781,-0.515625 1.3125,-0.515625 0.21875,0 0.42187,0.03125 0.60937,0.09375 0.19531,0.0625 0.37891,0.152344 0.54688,0.265625 z m 0,0"
     id="path1165" />
  <path
     style="fill:#ffffff;fill-opacity:1;fill-rule:nonzero;stroke:none"
     d="m 198.90625,60.800781 c 0.4375,0.304688 0.83594,0.523438 1.20312,0.65625 l -0.26562,0.671875 c -0.52344,-0.1875 -1.03906,-0.484375 -1.54688,-0.890625 -0.53125,0.304688 -1.11718,0.453125 -1.75,0.453125 -0.65625,0 -1.25,-0.15625 -1.78125,-0.46875 -0.52343,-0.3125 -0.92187,-0.75 -1.20312,-1.3125 -0.28125,-0.570312 -0.42188,-1.210937 -0.42188,-1.921875 0,-0.707031 0.14063,-1.347656 0.42188,-1.921875 0.28906,-0.582031 0.69531,-1.023437 1.21875,-1.328125 0.53125,-0.300781 1.125,-0.453125 1.78125,-0.453125 0.65625,0 1.25,0.15625 1.78125,0.46875 0.53125,0.3125 0.9375,0.75 1.21875,1.3125 0.28125,0.5625 0.42187,1.203125 0.42187,1.921875 0,0.585938 -0.0937,1.109375 -0.28125,1.578125 -0.17968,0.46875 -0.44531,0.882813 -0.79687,1.234375 z m -2.09375,-1.21875 c 0.55078,0.15625 1.00391,0.386719 1.35937,0.6875 C 198.72266,59.761719 199,59 199,57.988281 c 0,-0.582031 -0.10156,-1.085937 -0.29688,-1.515625 -0.19921,-0.4375 -0.48437,-0.773437 -0.85937,-1.015625 -0.375,-0.238281 -0.80469,-0.359375 -1.28125,-0.359375 -0.71094,0 -1.29688,0.246094 -1.76563,0.734375 -0.46093,0.480469 -0.6875,1.199219 -0.6875,2.15625 0,0.929688 0.22657,1.640625 0.6875,2.140625 0.45704,0.5 1.04688,0.75 1.76563,0.75 0.34375,0 0.66016,-0.0625 0.95312,-0.1875 -0.29296,-0.195312 -0.60546,-0.335937 -0.9375,-0.421875 z m 0,0"
     id="path1167" />
  <path
     style="fill:#ffffff;fill-opacity:1;fill-rule:nonzero;stroke:none"
     d="m 27.816406,55.914062 -3.367187,1.082032 -3.363281,1.082031 V 53.75 l 3.363281,1.082031 z m 0,0"
     id="path1171" />
  <path
     style="fill:#ffffff;fill-opacity:1;fill-rule:nonzero;stroke:none"
     d="m 33.765625,62.003906 -2.164063,6.726563 h 4.324219 L 34.84375,65.367188 Z m 0,0"
     id="path1175" />
  <path
     style="fill:none;fill-opacity:1;fill-rule:nonzero;stroke:#ffffff;stroke-width:0.8;stroke-linecap:butt;stroke-linejoin:miter;stroke-miterlimit:4;stroke-opacity:1"
     d="m 39.855469,55.949219 c 0,3.335937 -2.707031,6.039062 -6.039063,6.039062 -3.335937,0 -6.039062,-2.703125 -6.039062,-6.039062 0,-3.335938 2.703125,-6.039063 6.039062,-6.039063 3.332032,0 6.039063,2.703125 6.039063,6.039063 z m 0,0"
     id="path1177" />
  <path
     style="fill:#ffffff;fill-opacity:1;fill-rule:nonzero;stroke:none"
     d="M 39.984375,87.09375 37.21875,79.9375 h 1.015625 l 1.875,5.203125 c 0.144531,0.417969 0.269531,0.808594 0.375,1.171875 0.101563,-0.394531 0.226563,-0.785156 0.375,-1.171875 l 1.9375,-5.203125 h 0.96875 l -2.796875,7.15625 z m 0,0"
     id="path1179" />
  <path
     style="fill:#ffffff;fill-opacity:1;fill-rule:nonzero;stroke:none"
     d="m 44.195312,86.65625 c 0,-0.832031 0.21875,-1.484375 0.65625,-1.953125 C 45.296875,84.234375 45.875,84 46.585938,84 c 0.46875,0 0.882812,0.109375 1.25,0.328125 0.375,0.21875 0.65625,0.527344 0.84375,0.921875 0.195312,0.398438 0.296874,0.84375 0.296874,1.34375 0,0.511719 -0.105468,0.96875 -0.3125,1.375 -0.199218,0.398438 -0.484374,0.699219 -0.859374,0.90625 -0.375,0.199219 -0.78125,0.296875 -1.21875,0.296875 -0.46875,0 -0.890626,-0.109375 -1.265626,-0.328125 -0.375,-0.226562 -0.65625,-0.539062 -0.84375,-0.9375 -0.1875,-0.394531 -0.28125,-0.8125 -0.28125,-1.25 z m 0.671876,0 c 0,0.605469 0.160156,1.085938 0.484374,1.4375 0.332032,0.34375 0.742188,0.515625 1.234376,0.515625 0.5,0 0.910156,-0.171875 1.234374,-0.515625 0.320313,-0.351562 0.484376,-0.851562 0.484376,-1.5 0,-0.40625 -0.07422,-0.757812 -0.21875,-1.0625 -0.136719,-0.3125 -0.339844,-0.550781 -0.609376,-0.71875 -0.261718,-0.164062 -0.558593,-0.25 -0.890624,-0.25 -0.46875,0 -0.875,0.164062 -1.21875,0.484375 -0.335938,0.324219 -0.5,0.859375 -0.5,1.609375 z m 0,0"
     id="path1181" />
  <g
     clip-path="url(#clip5)"
     clip-rule="nonzero"
     id="g1185"
     style="fill:#ffffff">
    <path
       style="fill:#ffffff;fill-opacity:1;fill-rule:nonzero;stroke:none"
       d="m 133.62109,91.253906 c 1.04297,0 1.88672,0.84375 1.88672,1.886719 0,1.042969 -0.84375,1.886719 -1.88672,1.886719 -1.03906,0 -1.88672,-0.84375 -1.88672,-1.886719 0,-1.042969 0.84766,-1.886719 1.88672,-1.886719 z m 0,0"
       id="path1183" />
  </g>
  <path
     style="fill:none;stroke:#ffffff;stroke-width:1.6;stroke-linecap:butt;stroke-linejoin:miter;stroke-miterlimit:4;stroke-opacity:1"
     d="M 185.31641,80.367188 H 174.11719"
     id="path1189" />
  <path
     style="fill:none;stroke:#ffffff;stroke-width:1.2;stroke-linecap:butt;stroke-linejoin:miter;stroke-miterlimit:4;stroke-opacity:1"
     d="m 175.08203,76.589844 c 2.03906,1.808594 7.08984,1.78125 9.07813,-0.0039"
     id="path1191" />
  <path
     style="fill:#ffffff;fill-opacity:1;fill-rule:nonzero;stroke:none"
     d="m 179.85156,91.148438 c 1.04297,0 1.88672,0.84375 1.88672,1.886718 0,1.042969 -0.84375,1.886719 -1.88672,1.886719 -1.04297,0 -1.88672,-0.84375 -1.88672,-1.886719 0,-1.042968 0.84375,-1.886718 1.88672,-1.886718 z m 0,0"
     id="path1193" />
  <path
     style="fill:#ffffff;fill-opacity:1;fill-rule:nonzero;stroke:none"
     d="m 186.57422,82.6875 v 0.9375 c -0.30469,-0.269531 -0.625,-0.472656 -0.96875,-0.609375 -0.33594,-0.144531 -0.6875,-0.21875 -1.0625,-0.21875 -0.75,0 -1.32813,0.230469 -1.73438,0.6875 -0.39843,0.460937 -0.59375,1.121094 -0.59375,1.984375 0,0.867188 0.19532,1.527344 0.59375,1.984375 0.40625,0.460937 0.98438,0.6875 1.73438,0.6875 0.375,0 0.72656,-0.06641 1.0625,-0.203125 0.34375,-0.132812 0.66406,-0.34375 0.96875,-0.625 V 88.25 c -0.3125,0.210938 -0.64063,0.367188 -0.98438,0.46875 -0.34375,0.101562 -0.71484,0.15625 -1.10937,0.15625 -0.99219,0 -1.77344,-0.300781 -2.34375,-0.90625 -0.57422,-0.613281 -0.85938,-1.445312 -0.85938,-2.5 0,-1.050781 0.28516,-1.878906 0.85938,-2.484375 0.57031,-0.613281 1.35156,-0.921875 2.34375,-0.921875 0.39453,0 0.76562,0.05469 1.10937,0.15625 0.35157,0.105469 0.67969,0.261719 0.98438,0.46875 z m 0,0"
     id="path1195" />
  <path
     style="fill:#ffffff;fill-opacity:1;fill-rule:nonzero;stroke:none"
     d="m 188.80469,87.167969 c -0.35547,0 -0.64063,0.136719 -0.85938,0.40625 -0.21094,0.261719 -0.3125,0.625 -0.3125,1.09375 0,0.460937 0.10156,0.824219 0.3125,1.09375 0.21875,0.261719 0.50391,0.390625 0.85938,0.390625 0.35156,0 0.63281,-0.128906 0.84375,-0.390625 0.21875,-0.269531 0.32812,-0.632813 0.32812,-1.09375 0,-0.46875 -0.10937,-0.832031 -0.32812,-1.09375 -0.21094,-0.269531 -0.49219,-0.40625 -0.84375,-0.40625 z m 0,-0.40625 c 0.50781,0 0.91406,0.171875 1.21875,0.515625 0.3125,0.34375 0.46875,0.808594 0.46875,1.390625 0,0.574219 -0.15625,1.03125 -0.46875,1.375 -0.30469,0.34375 -0.71094,0.515625 -1.21875,0.515625 -0.51172,0 -0.92188,-0.171875 -1.23438,-0.515625 -0.30469,-0.34375 -0.45312,-0.800781 -0.45312,-1.375 0,-0.582031 0.14843,-1.046875 0.45312,-1.390625 0.3125,-0.34375 0.72266,-0.515625 1.23438,-0.515625 z m 0,0"
     id="path1197" />
  <path
     style="fill:#ffffff;fill-opacity:1;fill-rule:nonzero;stroke:none"
     d="m 33.296875,59.222656 v -2.75 h -2.71875 v -1.140625 h 2.71875 v -2.734375 h 1.171875 v 2.734375 h 2.71875 v 1.140625 h -2.71875 v 2.75 z m 0,0"
     id="path1199" />
  <g
     id="g5030-8-2"
     transform="matrix(1.3227159,0,0,1.323521,36.31043,-6.2007846)"
     style="stroke:#ffffff;stroke-width:0.75579">
    <path
       style="fill:none;fill-opacity:1;fill-rule:nonzero;stroke:#ffffff;stroke-width:0.5356;stroke-linecap:butt;stroke-linejoin:miter;stroke-miterlimit:4;stroke-opacity:1"
       d="m 51.442472,12.344814 c 0.273413,-0.169834 0.556788,-0.327068 0.849535,-0.4707 0.292748,-0.143631 0.594868,-0.273658 0.905772,-0.38908 0.310903,-0.115421 0.63059,-0.216236 0.958471,-0.301441 0.327881,-0.08521 0.656189,-0.152786 0.983924,-0.203333 0.327735,-0.05055 0.654897,-0.08406 0.980485,-0.101126 0.325588,-0.01707 0.649603,-0.01769 0.971043,-0.0025 m 6.257198,2.654907 c 0.236385,0.208336 0.23474,0.222057 0.450971,0.453264 0.216231,0.231207 0.421886,0.473554 0.615962,0.726454 0.194077,0.252899 0.376576,0.516349 0.546497,0.789762 0.169921,0.273413 0.327264,0.556788 0.471028,0.849535 0.143765,0.292748 0.409437,1.043015 0.525044,1.353919 m -0.370078,6.897887 c -0.13265,0.284916 -0.341331,0.782115 -0.500388,1.052866 -0.159058,0.270752 -0.331024,0.533921 -0.515311,0.788502 -0.184286,0.254582 -0.380891,0.500576 -0.589227,0.736981 -0.208336,0.236404 -0.428402,0.463218 -0.659609,0.679439 m -6.194563,2.627858 c -0.325638,0.01707 -0.649712,0.01769 -0.971218,0.0025 -0.321507,-0.01523 -0.640446,-0.04632 -0.955815,-0.09268 -0.315368,-0.04636 -0.627166,-0.107979 -0.934391,-0.184279 -0.307224,-0.0763 -0.609874,-0.167276 -0.906948,-0.27234 -0.297073,-0.105065 -0.588569,-0.224217 -0.873485,-0.356867 -0.284916,-0.132651 -0.563252,-0.278799 -0.834004,-0.437857 -0.270752,-0.159058 -0.253879,-0.139417 -0.508461,-0.323703 m -4.019859,-5.670438 c -0.08521,-0.327881 -0.152786,-0.656204 -0.203333,-0.983967 -0.05055,-0.327762 -0.08406,-0.654964 -0.101126,-0.980602 -0.01707,-0.325638 -0.01769,-0.649712 -0.0025,-0.971218 0.01523,-0.321507 0.04632,-0.640446 0.09268,-0.955815 0.04636,-0.315368 0.107978,-0.627166 0.184278,-0.934391 0.0763,-0.307224 0.167277,-0.609875 0.272341,-0.906948"
       id="path3971-1-1"
       sodipodi:nodetypes="csssssccssssccsssccssssssccsssssc" />
    <g
       id="g4852-9-0"
       style="stroke:#ffffff;stroke-width:0.75579">
      <path
         style="fill:none;fill-opacity:1;fill-rule:nonzero;stroke:#ffffff;stroke-width:0.5356;stroke-linecap:round;stroke-linejoin:miter;stroke-miterlimit:4;stroke-opacity:1"
         d="m 50.622283,14.636427 -0.243336,1.58618 -0.589885,3.574268 -5.601521,-4.593799 3.390624,-1.277344 1.488967,-0.570393"
         id="path3977-2-0"
         sodipodi:nodetypes="cccccc" />
      <path
         style="fill:none;fill-opacity:1;fill-rule:nonzero;stroke:#ffffff;stroke-width:0.5356;stroke-linecap:butt;stroke-linejoin:miter;stroke-miterlimit:4;stroke-opacity:1"
         d="m 51.5625,14.085938 c -0.480469,0.585936 -1.34375,0.667968 -1.929688,0.1875 -0.585937,-0.48047 -0.671875,-1.343751 -0.191406,-1.929687 0.480469,-0.585939 1.34375,-0.667969 1.929687,-0.187501 0.585951,0.476547 0.671876,1.343749 0.191407,1.929688 z m 0,0"
         id="path3979-9-6" />
    </g>
    <g
       id="g4852-8-9-4"
       transform="matrix(0.88248697,-0.47033684,-0.47033684,-0.88248697,23.959174,48.178988)"
       style="stroke:#ffffff;stroke-width:0.75579">
      <path
         style="fill:none;fill-opacity:1;fill-rule:nonzero;stroke:#ffffff;stroke-width:0.5356;stroke-linecap:round;stroke-linejoin:miter;stroke-miterlimit:4;stroke-opacity:1"
         d="m 50.622283,14.636427 -0.243336,1.58618 -0.589885,3.574268 -5.601521,-4.593799 3.390624,-1.277344 1.488967,-0.570393"
         id="path3977-4-0-4"
         sodipodi:nodetypes="cccccc" />
      <path
         style="fill:none;fill-opacity:1;fill-rule:nonzero;stroke:#ffffff;stroke-width:0.5356;stroke-linecap:butt;stroke-linejoin:miter;stroke-miterlimit:4;stroke-opacity:1"
         d="m 51.5625,14.085938 c -0.480469,0.585936 -1.34375,0.667968 -1.929688,0.1875 -0.585937,-0.48047 -0.671875,-1.343751 -0.191406,-1.929687 0.480469,-0.585939 1.34375,-0.667969 1.929687,-0.187501 0.585951,0.476547 0.671876,1.343749 0.191407,1.929688 z m 0,0"
         id="path3979-8-2-1" />
    </g>
    <g
       id="g4852-8-3-4-5"
       transform="matrix(0.76836212,0.64001535,0.64001535,-0.76836212,22.398736,-7.0144192)"
       style="stroke:#ffffff;stroke-width:0.75579">
      <g
         id="g4935-2-1"
         transform="translate(2.4534383,-8.4820159)"
         style="stroke:#ffffff;stroke-width:0.75579">
        <path
           style="fill:none;fill-opacity:1;fill-rule:nonzero;stroke:#ffffff;stroke-width:0.5356;stroke-linecap:round;stroke-linejoin:miter;stroke-miterlimit:4;stroke-opacity:1"
           d="m 50.622283,14.636427 -0.243336,1.58618 -0.589885,3.574268 -5.601521,-4.593799 3.390624,-1.277344 1.488967,-0.570393"
           id="path3977-4-7-3-2"
           sodipodi:nodetypes="cccccc" />
        <path
           style="fill:none;fill-opacity:1;fill-rule:nonzero;stroke:#ffffff;stroke-width:0.5356;stroke-linecap:butt;stroke-linejoin:miter;stroke-miterlimit:4;stroke-opacity:1"
           d="m 51.5625,14.085938 c -0.480469,0.585936 -1.34375,0.667968 -1.929688,0.1875 -0.585937,-0.48047 -0.671875,-1.343751 -0.191406,-1.929687 0.480469,-0.585939 1.34375,-0.667969 1.929687,-0.187501 0.585951,0.476547 0.671876,1.343749 0.191407,1.929688 z m 0,0"
           id="path3979-8-6-5-9" />
      </g>
    </g>
    <g
       id="g4852-8-3-2-4-0"
       transform="matrix(-0.24455851,0.96963454,0.96963454,0.24455851,66.644569,-22.126146)"
       style="stroke:#ffffff;stroke-width:0.75579">
      <g
         id="g4935-3-1-7"
         transform="translate(2.4534383,-8.4820159)"
         style="stroke:#ffffff;stroke-width:0.75579">
        <path
           style="fill:none;fill-opacity:1;fill-rule:nonzero;stroke:#ffffff;stroke-width:0.5356;stroke-linecap:round;stroke-linejoin:miter;stroke-miterlimit:4;stroke-opacity:1"
           d="m 50.622283,14.636427 -0.243336,1.58618 -0.589885,3.574268 -5.601521,-4.593799 3.390624,-1.277344 1.488967,-0.570393"
           id="path3977-4-7-7-2-5"
           sodipodi:nodetypes="cccccc" />
        <path
           style="fill:none;fill-opacity:1;fill-rule:nonzero;stroke:#ffffff;stroke-width:0.5356;stroke-linecap:butt;stroke-linejoin:miter;stroke-miterlimit:4;stroke-opacity:1"
           d="m 51.5625,14.085938 c -0.480469,0.585936 -1.34375,0.667968 -1.929688,0.1875 -0.585937,-0.48047 -0.671875,-1.343751 -0.191406,-1.929687 0.480469,-0.585939 1.34375,-0.667969 1.929687,-0.187501 0.585951,0.476547 0.671876,1.343749 0.191407,1.929688 z m 0,0"
           id="path3979-8-6-8-77-6" />
      </g>
    </g>
    <g
       id="g4852-8-3-2-1-2-6"
       transform="matrix(-0.98370977,-0.17976398,-0.17976398,0.98370977,100.64291,29.441995)"
       style="stroke:#ffffff;stroke-width:0.75579">
      <g
         id="g4935-3-5-3-7"
         transform="translate(2.4534383,-8.4820159)"
         style="stroke:#ffffff;stroke-width:0.75579">
        <path
           style="fill:none;fill-opacity:1;fill-rule:nonzero;stroke:#ffffff;stroke-width:0.5356;stroke-linecap:round;stroke-linejoin:miter;stroke-miterlimit:4;stroke-opacity:1"
           d="m 50.622283,14.636427 -0.243336,1.58618 -0.589885,3.574268 -5.601521,-4.593799 3.390624,-1.277344 1.488967,-0.570393"
           id="path3977-4-7-7-7-8-2"
           sodipodi:nodetypes="cccccc" />
        <path
           style="fill:none;fill-opacity:1;fill-rule:nonzero;stroke:#ffffff;stroke-width:0.5356;stroke-linecap:butt;stroke-linejoin:miter;stroke-miterlimit:4;stroke-opacity:1"
           d="m 51.5625,14.085938 c -0.480469,0.585936 -1.34375,0.667968 -1.929688,0.1875 -0.585937,-0.48047 -0.671875,-1.343751 -0.191406,-1.929687 0.480469,-0.585939 1.34375,-0.667969 1.929687,-0.187501 0.585951,0.476547 0.671876,1.343749 0.191407,1.929688 z m 0,0"
           id="path3979-8-6-8-7-4-2" />
      </g>
    </g>
  </g>
</svg>
