<?xml version="1.0" encoding="UTF-8" standalone="no"?>
<svg
   width="265.107513pt"
   height="127.702255pt"
   viewBox="0 0 265.107513 127.702255"
   version="1.1"
   id="svg5581"
   sodipodi:docname="SPEC.svg"
   inkscape:version="1.2 (dc2aedaf03, 2022-05-15)"
   xmlns:inkscape="http://www.inkscape.org/namespaces/inkscape"
   xmlns:sodipodi="http://sodipodi.sourceforge.net/DTD/sodipodi-0.dtd"
   xmlns="http://www.w3.org/2000/svg"
   xmlns:svg="http://www.w3.org/2000/svg">
  <g
     id="g8340"
     style="fill:#ffffff">
    <path
       style="fill:#ffffff;fill-opacity:1;fill-rule:nonzero;stroke:none"
       d="m 3.480469,96.605469 c -1.1875,0 -2.113281,-0.316407 -2.78125,-0.953125 -0.6757815,-0.632813 -1.015625,-1.457032 -1.015625,-2.46875 0,-0.664063 0.15625,-1.265625 0.46875,-1.796875 0.3125,-0.53125 0.757812,-0.929688 1.328125,-1.203125 0.5625,-0.28125 1.203125,-0.421875 1.921875,-0.421875 0.71875,0 1.367187,0.148437 1.9375,0.4375 0.574218,0.292969 1.011718,0.710937 1.3125,1.25 0.292968,0.53125 0.4375,1.109375 0.4375,1.734375 0,0.679687 -0.160156,1.28125 -0.484375,1.8125 -0.332031,0.53125 -0.78125,0.933594 -1.34375,1.203125 -0.5625,0.273437 -1.15625,0.40625 -1.78125,0.40625 z m 0.015625,-0.96875 c 0.867187,0 1.546875,-0.234375 2.046875,-0.703125 0.492187,-0.46875 0.734375,-1.050782 0.734375,-1.75 0,-0.707032 -0.25,-1.289063 -0.75,-1.75 -0.5,-0.46875 -1.210938,-0.703125 -2.140625,-0.703125 -0.582031,0 -1.085938,0.101562 -1.515625,0.296875 -0.4375,0.199218 -0.773438,0.492187 -1.015625,0.875 -0.238281,0.375 -0.359375,0.796875 -0.359375,1.265625 0,0.679687 0.230468,1.261719 0.6875,1.75 0.460937,0.480469 1.230468,0.71875 2.3125,0.71875 z m 0,0"
       id="path5418" />
    <path
       style="fill:#ffffff;fill-opacity:1;fill-rule:nonzero;stroke:none"
       d="M 6.964844,85.597656 H 6.199219 c 0.59375,0.40625 0.890625,0.960938 0.890625,1.65625 0,0.304688 -0.058594,0.589844 -0.171875,0.859375 -0.125,0.261719 -0.273438,0.460938 -0.453125,0.59375 -0.175782,0.125 -0.394532,0.214844 -0.65625,0.265625 -0.164063,0.03125 -0.4375,0.04687 -0.8125,0.04687 h -3.21875 v -0.875 h 2.875 c 0.460937,0 0.773437,-0.01953 0.9375,-0.0625 0.230468,-0.05078 0.414062,-0.164062 0.546875,-0.34375 0.125,-0.175781 0.1875,-0.398437 0.1875,-0.671875 0,-0.257812 -0.066407,-0.503906 -0.203125,-0.734375 -0.132813,-0.226557 -0.316406,-0.39062 -0.546875,-0.48437 -0.238281,-0.101562 -0.578125,-0.15625 -1.015625,-0.15625 h -2.78125 v -0.875 h 5.1875 z m 0,0"
       id="path5420" />
    <path
       style="fill:#ffffff;fill-opacity:1;fill-rule:nonzero;stroke:none"
       d="m 6.183594,81.761719 0.765625,-0.125 c 0.050781,0.25 0.078125,0.46875 0.078125,0.65625 0,0.324219 -0.046875,0.574219 -0.140625,0.75 -0.101563,0.179687 -0.238281,0.304687 -0.40625,0.375 -0.164063,0.0625 -0.507813,0.09375 -1.03125,0.09375 H 2.464844 v 0.65625 h -0.6875 v -0.65625 H 0.496094 L -0.0351562,82.652344 H 1.777344 v -0.890625 h 0.6875 v 0.890625 h 3.03125 c 0.25,0 0.414062,-0.01563 0.484375,-0.04687 0.074219,-0.03125 0.132812,-0.08203 0.171875,-0.15625 0.042968,-0.07031 0.0625,-0.171875 0.0625,-0.296875 0,-0.101563 -0.00781,-0.234375 -0.03125,-0.390625 z m 0,0"
       id="path5422" />
    <path
       style="fill:#ffffff;fill-opacity:1;fill-rule:nonzero;stroke:none"
       d="M 8.949219,81.03125 H 1.777344 V 80.234375 H 2.449219 C 2.191406,80.039062 1.996094,79.824219 1.871094,79.59375 1.738281,79.355469 1.667969,79.0625 1.667969,78.71875 c 0,-0.4375 0.117187,-0.820312 0.34375,-1.15625 0.21875,-0.34375 0.539062,-0.597656 0.953125,-0.765625 0.417968,-0.175781 0.875,-0.265625 1.375,-0.265625 0.523437,0 0.996094,0.09375 1.421875,0.28125 0.429687,0.1875 0.757812,0.464844 0.984375,0.828125 0.226562,0.367187 0.34375,0.746094 0.34375,1.140625 0,0.292969 -0.0625,0.558594 -0.1875,0.796875 C 6.777344,79.808594 6.621094,80 6.433594,80.15625 H 8.949219 Z M 4.402344,80.234375 c 0.667968,0 1.164062,-0.132813 1.484375,-0.40625 0.3125,-0.269531 0.46875,-0.597656 0.46875,-0.984375 0,-0.382812 -0.160157,-0.71875 -0.484375,-1 -0.332032,-0.28125 -0.847656,-0.421875 -1.546875,-0.421875 -0.65625,0 -1.144531,0.136719 -1.46875,0.40625 -0.332031,0.273437 -0.5,0.601563 -0.5,0.984375 0,0.375 0.179687,0.710938 0.53125,1 0.34375,0.28125 0.851562,0.421875 1.515625,0.421875 z m 0,0"
       id="path5424" />
    <path
       style="fill:#ffffff;fill-opacity:1;fill-rule:nonzero;stroke:none"
       d="M 6.964844,72.304688 H 6.199219 c 0.59375,0.40625 0.890625,0.960937 0.890625,1.65625 0,0.304687 -0.058594,0.589843 -0.171875,0.859374 -0.125,0.261719 -0.273438,0.460938 -0.453125,0.59375 -0.175782,0.125 -0.394532,0.214844 -0.65625,0.265626 -0.164063,0.03125 -0.4375,0.04687 -0.8125,0.04687 h -3.21875 v -0.875 h 2.875 c 0.460937,0 0.773437,-0.01953 0.9375,-0.0625 0.230468,-0.05078 0.414062,-0.164062 0.546875,-0.34375 0.125,-0.175781 0.1875,-0.398437 0.1875,-0.671874 0,-0.257813 -0.066407,-0.503907 -0.203125,-0.734376 C 5.988281,72.8125 5.804688,72.648438 5.574219,72.554688 5.335938,72.453125 4.996094,72.398438 4.558594,72.398438 h -2.78125 v -0.875 h 5.1875 z m 0,0"
       id="path5426" />
    <path
       style="fill:#ffffff;fill-opacity:1;fill-rule:nonzero;stroke:none"
       d="m 6.183594,68.46875 0.765625,-0.125 C 7,68.59375 7.027344,68.8125 7.027344,69 c 0,0.324219 -0.046875,0.574219 -0.140625,0.75 -0.101563,0.179688 -0.238281,0.304688 -0.40625,0.375 -0.164063,0.0625 -0.507813,0.09375 -1.03125,0.09375 H 2.464844 V 70.875 h -0.6875 V 70.21875 H 0.496094 L -0.0351562,69.359375 H 1.777344 V 68.46875 h 0.6875 v 0.890625 h 3.03125 c 0.25,0 0.414062,-0.01563 0.484375,-0.04687 0.074219,-0.03125 0.132812,-0.08203 0.171875,-0.15625 0.042968,-0.07031 0.0625,-0.171875 0.0625,-0.296875 0,-0.101563 -0.00781,-0.234375 -0.03125,-0.390625 z m 0,0"
       id="path5428" />
    <path
       style="fill:#ffffff;fill-opacity:1;fill-rule:nonzero;stroke:none"
       d="M 4.667969,65.289062 4.589844,64.398438 c 0.355468,-0.03906 0.648437,-0.140626 0.875,-0.296876 0.230468,-0.15625 0.417968,-0.394531 0.5625,-0.71875 0.136718,-0.320312 0.203125,-0.6875 0.203125,-1.09375 0,-0.363281 -0.050781,-0.679687 -0.15625,-0.953124 -0.101563,-0.28125 -0.25,-0.488282 -0.4375,-0.625 -0.1875,-0.132813 -0.390625,-0.203126 -0.609375,-0.203126 -0.226563,0 -0.425782,0.07031 -0.59375,0.203126 -0.164063,0.125 -0.304688,0.339843 -0.421875,0.640624 -0.070313,0.1875 -0.1875,0.609376 -0.34375,1.265626 -0.164063,0.65625 -0.316407,1.121093 -0.453125,1.390624 -0.175782,0.34375 -0.394532,0.601563 -0.65625,0.765626 -0.269532,0.167968 -0.570313,0.25 -0.90625,0.25 -0.351563,0 -0.6875,-0.101563 -1,-0.3125 C 0.332031,64.503906 0.0898438,64.207031 -0.0664062,63.820312 -0.230469,63.425781 -0.316406,62.984375 -0.316406,62.492188 c 0,-0.519532 0.089844,-0.984376 0.2656248,-1.390626 0.1679692,-0.40625 0.4179692,-0.71875 0.7500002,-0.9375 0.335937,-0.21875 0.710937,-0.335937 1.125,-0.359374 l 0.0625,0.90625 c -0.445313,0.05469 -0.785157,0.21875 -1.015625,0.5 -0.238282,0.28125 -0.359375,0.699218 -0.359375,1.25 0,0.574218 0.109375,0.992187 0.328125,1.25 0.210937,0.261718 0.460937,0.390624 0.75,0.390624 0.261718,0 0.476562,-0.09375 0.640625,-0.28125 0.167969,-0.175781 0.339843,-0.648437 0.515625,-1.421874 0.167968,-0.769532 0.320312,-1.296876 0.453125,-1.578126 0.1875,-0.414062 0.433593,-0.722656 0.734375,-0.921874 0.292968,-0.195313 0.632812,-0.296876 1.015625,-0.296876 0.375,0 0.734375,0.109376 1.078125,0.328126 0.335937,0.210937 0.59375,0.523437 0.78125,0.9375 0.1875,0.40625 0.28125,0.867187 0.28125,1.375 0,0.648437 -0.09375,1.1875 -0.28125,1.625 -0.1875,0.4375 -0.46875,0.78125 -0.84375,1.03125 -0.382813,0.25 -0.816406,0.382812 -1.296875,0.390624 z m 0,0"
       id="path5430" />
    <path
       style="fill:#ffffff;fill-opacity:1;fill-rule:nonzero;stroke:none"
       d="M 8.949219,58.699219 H 1.777344 V 57.902344 H 2.449219 C 2.191406,57.707031 1.996094,57.492188 1.871094,57.261719 c -0.132813,-0.238281 -0.203125,-0.53125 -0.203125,-0.875 0,-0.4375 0.117187,-0.820313 0.34375,-1.15625 0.21875,-0.34375 0.539062,-0.597657 0.953125,-0.765625 0.417968,-0.175782 0.875,-0.265625 1.375,-0.265625 0.523437,0 0.996094,0.09375 1.421875,0.28125 0.429687,0.1875 0.757812,0.464843 0.984375,0.828125 0.226562,0.367187 0.34375,0.746094 0.34375,1.140625 0,0.292969 -0.0625,0.558593 -0.1875,0.796875 -0.125,0.230468 -0.28125,0.421875 -0.46875,0.578125 H 8.949219 Z M 4.402344,57.902344 c 0.667968,0 1.164062,-0.132813 1.484375,-0.40625 0.3125,-0.269532 0.46875,-0.597656 0.46875,-0.984375 0,-0.382813 -0.160157,-0.71875 -0.484375,-1 -0.332032,-0.28125 -0.847656,-0.421875 -1.546875,-0.421875 -0.65625,0 -1.144531,0.136718 -1.46875,0.40625 -0.332031,0.273437 -0.5,0.601562 -0.5,0.984375 0,0.375 0.179687,0.710937 0.53125,1 0.34375,0.28125 0.851562,0.421875 1.515625,0.421875 z m 0,0"
       id="path5432" />
    <path
       style="fill:#ffffff;fill-opacity:1;fill-rule:nonzero;stroke:none"
       d="m 5.292969,49.832031 0.109375,-0.921875 c 0.53125,0.148438 0.949218,0.417969 1.25,0.8125 0.292968,0.386719 0.4375,0.875 0.4375,1.46875 0,0.761719 -0.234375,1.367188 -0.703125,1.8125 -0.46875,0.449219 -1.125,0.671875 -1.96875,0.671875 -0.875,0 -1.550781,-0.222656 -2.03125,-0.671875 -0.476563,-0.457031 -0.71875,-1.039062 -0.71875,-1.75 0,-0.695312 0.234375,-1.265625 0.703125,-1.703125 0.46875,-0.4375 1.132812,-0.65625 1.984375,-0.65625 0.054687,0 0.132812,0 0.234375,0 v 3.859375 c 0.574218,-0.03125 1.011718,-0.1875 1.3125,-0.46875 0.304687,-0.289062 0.453125,-0.65625 0.453125,-1.09375 0,-0.320312 -0.082031,-0.597656 -0.25,-0.828125 -0.164063,-0.226562 -0.4375,-0.40625 -0.8125,-0.53125 z m -1.421875,2.875 v -2.890625 c -0.4375,0.04297 -0.765625,0.152344 -0.984375,0.328125 -0.332031,0.28125 -0.5,0.648438 -0.5,1.09375 0,0.40625 0.136719,0.746094 0.40625,1.015625 0.273437,0.273438 0.632812,0.421875 1.078125,0.453125 z m 0,0"
       id="path5434" />
    <path
       style="fill:#ffffff;fill-opacity:1;fill-rule:nonzero;stroke:none"
       d="m 5.058594,44.667969 0.125,-0.859375 c 0.59375,0.09375 1.0625,0.339844 1.40625,0.734375 0.335937,0.386719 0.5,0.859375 0.5,1.421875 0,0.710937 -0.234375,1.28125 -0.703125,1.71875 -0.46875,0.429687 -1.132813,0.640625 -2,0.640625 -0.550781,0 -1.035157,-0.09375 -1.453125,-0.28125 -0.425782,-0.1875 -0.742188,-0.46875 -0.953125,-0.84375 -0.207031,-0.375 -0.3125,-0.785157 -0.3125,-1.234375 0,-0.5625 0.140625,-1.019532 0.421875,-1.375 0.28125,-0.363282 0.6875,-0.597656 1.21875,-0.703125 l 0.125,0.859375 c -0.34375,0.08594 -0.601563,0.230468 -0.78125,0.4375 -0.175782,0.199218 -0.265625,0.449218 -0.265625,0.75 0,0.4375 0.164062,0.796875 0.484375,1.078125 0.3125,0.273437 0.8125,0.40625 1.5,0.40625 0.699218,0 1.203125,-0.128907 1.515625,-0.390625 0.3125,-0.269532 0.46875,-0.617188 0.46875,-1.046875 0,-0.34375 -0.101563,-0.628907 -0.3125,-0.859375 C 5.835938,44.882812 5.507812,44.730469 5.058594,44.667969 Z m 0,0"
       id="path5436" />
    <path
       style="fill:#ffffff;fill-opacity:1;fill-rule:nonzero;stroke:none"
       d="m 6.183594,41.355469 0.765625,-0.125 c 0.050781,0.25 0.078125,0.46875 0.078125,0.65625 0,0.324219 -0.046875,0.574219 -0.140625,0.75 -0.101563,0.179687 -0.238281,0.304687 -0.40625,0.375 -0.164063,0.0625 -0.507813,0.09375 -1.03125,0.09375 H 2.464844 v 0.65625 h -0.6875 v -0.65625 H 0.496094 L -0.0351562,42.246094 H 1.777344 v -0.890625 h 0.6875 v 0.890625 h 3.03125 c 0.25,0 0.414062,-0.01563 0.484375,-0.04687 0.074219,-0.03125 0.132812,-0.08203 0.171875,-0.15625 0.042968,-0.07031 0.0625,-0.171875 0.0625,-0.296875 0,-0.101563 -0.00781,-0.234375 -0.03125,-0.390625 z m 0,0"
       id="path5438" />
    <path
       style="fill:#ffffff;fill-opacity:1;fill-rule:nonzero;stroke:none"
       d="m 6.964844,40.628906 h -5.1875 v -0.78125 h 0.78125 c -0.363282,-0.207031 -0.601563,-0.394531 -0.71875,-0.5625 -0.113282,-0.164062 -0.171875,-0.351562 -0.171875,-0.5625 0,-0.300781 0.09375,-0.601562 0.28125,-0.90625 l 0.8125,0.296875 c -0.125,0.21875 -0.1875,0.4375 -0.1875,0.65625 0,0.1875 0.058593,0.359375 0.171875,0.515625 0.117187,0.15625 0.277344,0.265625 0.484375,0.328125 0.3125,0.09375 0.652343,0.140625 1.015625,0.140625 h 2.71875 z m 0,0"
       id="path5440" />
    <path
       style="fill:#ffffff;fill-opacity:1;fill-rule:nonzero;stroke:none"
       d="M 6.964844,34.027344 H 6.199219 c 0.59375,0.40625 0.890625,0.960937 0.890625,1.65625 0,0.304687 -0.058594,0.589844 -0.171875,0.859375 -0.125,0.261719 -0.273438,0.460937 -0.453125,0.59375 -0.175782,0.125 -0.394532,0.214843 -0.65625,0.265625 -0.164063,0.03125 -0.4375,0.04687 -0.8125,0.04687 h -3.21875 v -0.875 h 2.875 c 0.460937,0 0.773437,-0.01953 0.9375,-0.0625 0.230468,-0.05078 0.414062,-0.164063 0.546875,-0.34375 0.125,-0.175781 0.1875,-0.398438 0.1875,-0.671875 0,-0.257813 -0.066407,-0.503906 -0.203125,-0.734375 -0.132813,-0.226558 -0.316406,-0.39062 -0.546875,-0.48437 -0.238281,-0.101563 -0.578125,-0.15625 -1.015625,-0.15625 h -2.78125 v -0.875 h 5.1875 z m 0,0"
       id="path5442" />
    <path
       style="fill:#ffffff;fill-opacity:1;fill-rule:nonzero;stroke:none"
       d="m 6.964844,32.113281 h -5.1875 V 31.316406 H 2.511719 C 2.253906,31.160156 2.050781,30.949219 1.902344,30.675781 1.746094,30.40625 1.667969,30.097656 1.667969,29.753906 c 0,-0.382812 0.078125,-0.695312 0.234375,-0.9375 0.15625,-0.25 0.382812,-0.425781 0.671875,-0.53125 -0.601563,-0.40625 -0.90625,-0.9375 -0.90625,-1.59375 0,-0.519531 0.140625,-0.914062 0.421875,-1.1875 0.28125,-0.28125 0.71875,-0.421875 1.3125,-0.421875 h 3.5625 v 0.875 H 3.699219 c -0.351563,0 -0.609375,0.03125 -0.765625,0.09375 -0.15625,0.05469 -0.28125,0.15625 -0.375,0.3125 -0.09375,0.148438 -0.140625,0.320313 -0.140625,0.515625 0,0.367188 0.125,0.667969 0.375,0.90625 0.242187,0.242188 0.625,0.359375 1.15625,0.359375 h 3.015625 v 0.890625 h -3.375 c -0.382813,0 -0.675782,0.07422 -0.875,0.21875 -0.195313,0.136719 -0.296875,0.367188 -0.296875,0.6875 0,0.25 0.070312,0.480469 0.203125,0.6875 0.125,0.210938 0.3125,0.367188 0.5625,0.46875 0.25,0.09375 0.617187,0.140625 1.09375,0.140625 h 2.6875 z m 0,0"
       id="path5444" />
    <path
       style="fill:#ffffff;fill-opacity:1;fill-rule:nonzero;stroke:none"
       d="m 8.949219,21.472656 h -9.140625 v -1.953125 h 0.71875 v 1.0625 h 7.703125 v -1.0625 h 0.71875 z m 0,0"
       id="path5446" />
    <path
       style="fill:#ffffff;fill-opacity:1;fill-rule:nonzero;stroke:none"
       d="m 6.964844,15.464844 h -0.65625 c 0.523437,0.335937 0.78125,0.820312 0.78125,1.453125 0,0.417969 -0.117188,0.804687 -0.34375,1.15625 -0.226563,0.34375 -0.546875,0.609375 -0.953125,0.796875 -0.414063,0.1875 -0.890625,0.28125 -1.421875,0.28125 -0.507813,0 -0.972656,-0.08203 -1.390625,-0.25 -0.425781,-0.175782 -0.75,-0.4375 -0.96875,-0.78125 -0.226563,-0.34375 -0.34375,-0.726563 -0.34375,-1.15625 0,-0.3125 0.070312,-0.585938 0.203125,-0.828125 0.125,-0.25 0.292968,-0.453125 0.5,-0.609375 h -2.5625 v -0.875 h 7.15625 z m -2.59375,2.78125 c 0.667968,0 1.167968,-0.132813 1.5,-0.40625 0.324218,-0.28125 0.484375,-0.613282 0.484375,-1 0,-0.382813 -0.15625,-0.707032 -0.46875,-0.96875 -0.3125,-0.269532 -0.789063,-0.40625 -1.4375,-0.40625 -0.707031,0 -1.226563,0.136718 -1.5625,0.40625 -0.332031,0.273437 -0.5,0.605468 -0.5,1 0,0.398437 0.164062,0.726562 0.484375,0.984375 0.3125,0.261719 0.8125,0.390625 1.5,0.390625 z m 0,0"
       id="path5448" />
    <path
       style="fill:#ffffff;fill-opacity:1;fill-rule:nonzero;stroke:none"
       d="m 6.964844,13.4375 h -7.15625 V 10.75 c 0,-0.539062 0.074218,-0.976562 0.2187498,-1.3125 C 0.175781,9.105469 0.398438,8.84375 0.699219,8.65625 0.992188,8.46875 1.304688,8.375 1.636719,8.375 c 0.304687,0 0.589843,0.085938 0.859375,0.25 0.273437,0.167969 0.492187,0.417969 0.65625,0.75 0.125,-0.425781 0.34375,-0.753906 0.65625,-0.984375 C 4.113281,8.152344 4.472656,8.03125 4.886719,8.03125 c 0.335937,0 0.648437,0.074219 0.9375,0.21875 0.292969,0.136719 0.515625,0.308594 0.671875,0.515625 0.15625,0.210937 0.277344,0.476563 0.359375,0.796875 0.074219,0.3125 0.109375,0.695312 0.109375,1.140625 z M 2.808594,12.484375 V 10.9375 c 0,-0.414062 -0.023438,-0.710938 -0.078125,-0.890625 C 2.660156,9.796875 2.539062,9.617188 2.371094,9.5 c -0.164063,-0.125 -0.375,-0.1875 -0.625,-0.1875 -0.238282,0 -0.445313,0.058594 -0.625,0.171875 -0.175782,0.117187 -0.296875,0.28125 -0.359375,0.5 -0.070313,0.210937 -0.109375,0.570313 -0.109375,1.078125 v 1.421875 z m 3.3125,0 v -1.78125 c 0,-0.300781 -0.00781,-0.515625 -0.03125,-0.640625 C 6.050781,9.84375 5.980469,9.664062 5.886719,9.515625 5.792969,9.371094 5.664062,9.25 5.496094,9.15625 5.320312,9.0625 5.117188,9.015625 4.886719,9.015625 c -0.257813,0 -0.488281,0.070313 -0.6875,0.203125 -0.195313,0.136719 -0.335938,0.328125 -0.421875,0.578125 -0.082032,0.242187 -0.125,0.589844 -0.125,1.046875 v 1.640625 z m 0,0"
       id="path5450" />
    <path
       style="fill:#ffffff;fill-opacity:1;fill-rule:nonzero;stroke:none"
       d="m 8.949219,5.664062 v 1.9375 h -0.71875 v -1.0625 H 0.527344 v 1.0625 h -0.71875 v -1.9375 z m 0,0"
       id="path5452" />
    <path
       style="fill:#ffffff;fill-opacity:1;fill-rule:nonzero;stroke:none"
       d="m 111.27344,125.69141 v -7.15625 h 4.82812 v 0.84375 h -3.89062 v 2.21875 h 3.35937 v 0.84375 h -3.35937 v 3.25 z m 0,0"
       id="path5454" />
    <path
       style="fill:#ffffff;fill-opacity:1;fill-rule:nonzero;stroke:none"
       d="m 116.94531,125.69141 v -5.1875 h 0.78125 v 0.78125 c 0.20703,-0.36328 0.39453,-0.60157 0.5625,-0.71875 0.16407,-0.11328 0.35157,-0.17188 0.5625,-0.17188 0.30078,0 0.60157,0.0937 0.90625,0.28125 l -0.29687,0.8125 c -0.21875,-0.125 -0.4375,-0.1875 -0.65625,-0.1875 -0.1875,0 -0.35938,0.0586 -0.51563,0.17188 -0.15625,0.11718 -0.26562,0.27734 -0.32812,0.48437 -0.0937,0.3125 -0.14063,0.65235 -0.14063,1.01563 v 2.71875 z m 0,0"
       id="path5456" />
    <path
       style="fill:#ffffff;fill-opacity:1;fill-rule:nonzero;stroke:none"
       d="m 123.6875,124.01953 0.92188,0.10938 c -0.14844,0.53125 -0.41797,0.94922 -0.8125,1.25 -0.38672,0.29297 -0.875,0.4375 -1.46875,0.4375 -0.76172,0 -1.36719,-0.23438 -1.8125,-0.70313 -0.44922,-0.46875 -0.67188,-1.125 -0.67188,-1.96875 0,-0.875 0.22266,-1.55078 0.67188,-2.03125 0.45703,-0.47656 1.03906,-0.71875 1.75,-0.71875 0.69531,0 1.26562,0.23438 1.70312,0.70313 0.4375,0.46875 0.65625,1.13281 0.65625,1.98437 0,0.0547 0,0.13281 0,0.23438 h -3.85937 c 0.0312,0.57422 0.1875,1.01172 0.46875,1.3125 0.28906,0.30468 0.65625,0.45312 1.09375,0.45312 0.32031,0 0.59765,-0.082 0.82812,-0.25 0.22656,-0.16406 0.40625,-0.4375 0.53125,-0.8125 z m -2.875,-1.42187 h 2.89063 c -0.043,-0.4375 -0.15235,-0.76563 -0.32813,-0.98438 -0.28125,-0.33203 -0.64844,-0.5 -1.09375,-0.5 -0.40625,0 -0.74609,0.13672 -1.01562,0.40625 -0.27344,0.27344 -0.42188,0.63281 -0.45313,1.07813 z m 0,0"
       id="path5458" />
    <path
       style="clip-rule:nonzero;fill:#ffffff;fill-opacity:1;fill-rule:nonzero;stroke:none"
       d="m 128.77344,127.67578 v -2.53125 c -0.13672,0.1875 -0.32813,0.35156 -0.57813,0.48438 -0.25,0.125 -0.51172,0.1875 -0.78125,0.1875 -0.61718,0 -1.14843,-0.24219 -1.59375,-0.73438 -0.4375,-0.5 -0.65625,-1.17578 -0.65625,-2.03125 0,-0.51953 0.0859,-0.98437 0.26563,-1.39062 0.17578,-0.41407 0.4375,-0.72657 0.78125,-0.9375 0.34375,-0.21875 0.72265,-0.32813 1.14062,-0.32813 0.63282,0 1.13281,0.26563 1.5,0.79688 v -0.6875 h 0.79688 v 7.17187 z m -2.71875,-4.59375 c 0,0.66797 0.14062,1.16797 0.42187,1.5 0.28125,0.33594 0.61719,0.5 1.01563,0.5 0.375,0 0.6914,-0.15625 0.95312,-0.46875 0.26953,-0.32031 0.40625,-0.80469 0.40625,-1.45312 0,-0.6875 -0.14062,-1.20313 -0.42187,-1.54688 -0.28125,-0.35156 -0.61719,-0.53125 -1,-0.53125 -0.38672,0 -0.71485,0.16406 -0.98438,0.48438 -0.26172,0.32422 -0.39062,0.82812 -0.39062,1.51562 z m 0,0"
       id="path5460"
       clip-path="url(#clipPath8248)" />
    <path
       style="fill:#ffffff;fill-opacity:1;fill-rule:nonzero;stroke:none"
       d="m 134.1875,125.69141 v -0.76563 c -0.40625,0.59375 -0.96094,0.89063 -1.65625,0.89063 -0.30469,0 -0.58984,-0.0586 -0.85938,-0.17188 -0.26171,-0.125 -0.46093,-0.27344 -0.59375,-0.45312 -0.125,-0.17578 -0.21484,-0.39453 -0.26562,-0.65625 -0.0312,-0.16407 -0.0469,-0.4375 -0.0469,-0.8125 v -3.21875 h 0.875 v 2.875 c 0,0.46093 0.0195,0.77343 0.0625,0.9375 0.0508,0.23047 0.16407,0.41406 0.34375,0.54687 0.17579,0.125 0.39844,0.1875 0.67188,0.1875 0.25781,0 0.50391,-0.0664 0.73437,-0.20312 0.22657,-0.13282 0.39063,-0.31641 0.48438,-0.54688 0.10156,-0.23828 0.15625,-0.57812 0.15625,-1.01562 v -2.78125 h 0.875 v 5.1875 z m 0,0"
       id="path5464" />
    <path
       style="fill:#ffffff;fill-opacity:1;fill-rule:nonzero;stroke:none"
       d="m 139.64844,124.01953 0.92187,0.10938 c -0.14844,0.53125 -0.41797,0.94922 -0.8125,1.25 -0.38672,0.29297 -0.875,0.4375 -1.46875,0.4375 -0.76172,0 -1.36719,-0.23438 -1.8125,-0.70313 -0.44922,-0.46875 -0.67187,-1.125 -0.67187,-1.96875 0,-0.875 0.22265,-1.55078 0.67187,-2.03125 0.45703,-0.47656 1.03906,-0.71875 1.75,-0.71875 0.69531,0 1.26563,0.23438 1.70313,0.70313 0.4375,0.46875 0.65625,1.13281 0.65625,1.98437 0,0.0547 0,0.13281 0,0.23438 h -3.85938 c 0.0312,0.57422 0.1875,1.01172 0.46875,1.3125 0.28906,0.30468 0.65625,0.45312 1.09375,0.45312 0.32031,0 0.59766,-0.082 0.82813,-0.25 0.22656,-0.16406 0.40625,-0.4375 0.53125,-0.8125 z m -2.875,-1.42187 h 2.89062 c -0.043,-0.4375 -0.15234,-0.76563 -0.32812,-0.98438 -0.28125,-0.33203 -0.64844,-0.5 -1.09375,-0.5 -0.40625,0 -0.7461,0.13672 -1.01563,0.40625 -0.27344,0.27344 -0.42187,0.63281 -0.45312,1.07813 z m 0,0"
       id="path5466" />
    <path
       style="fill:#ffffff;fill-opacity:1;fill-rule:nonzero;stroke:none"
       d="m 141.42578,125.69141 v -5.1875 h 0.79688 v 0.73437 c 0.375,-0.5625 0.92187,-0.84375 1.64062,-0.84375 0.3125,0 0.59766,0.0586 0.85938,0.17188 0.26953,0.10547 0.46875,0.25 0.59375,0.4375 0.13281,0.17968 0.22656,0.39062 0.28125,0.64062 0.0312,0.16797 0.0469,0.45313 0.0469,0.85938 v 3.1875 h -0.875 v -3.15625 c 0,-0.35157 -0.0391,-0.61719 -0.10937,-0.79688 -0.0625,-0.17578 -0.1836,-0.3164 -0.35938,-0.42187 -0.17969,-0.11328 -0.38281,-0.17188 -0.60937,-0.17188 -0.375,0 -0.70313,0.1211 -0.98438,0.35938 -0.27344,0.24218 -0.40625,0.69531 -0.40625,1.35937 v 2.82813 z m 0,0"
       id="path5468" />
    <path
       style="fill:#ffffff;fill-opacity:1;fill-rule:nonzero;stroke:none"
       d="m 150.13672,123.78516 0.85937,0.125 c -0.0937,0.59375 -0.33984,1.0625 -0.73437,1.40625 -0.38672,0.33593 -0.85938,0.5 -1.42188,0.5 -0.71093,0 -1.28125,-0.23438 -1.71875,-0.70313 -0.42968,-0.46875 -0.64062,-1.13281 -0.64062,-2 0,-0.55078 0.0937,-1.03515 0.28125,-1.45312 0.1875,-0.42578 0.46875,-0.74219 0.84375,-0.95313 0.375,-0.20703 0.78515,-0.3125 1.23437,-0.3125 0.5625,0 1.01953,0.14063 1.375,0.42188 0.36328,0.28125 0.59766,0.6875 0.70313,1.21875 l -0.85938,0.125 c -0.0859,-0.34375 -0.23047,-0.60157 -0.4375,-0.78125 -0.19922,-0.17578 -0.44922,-0.26563 -0.75,-0.26563 -0.4375,0 -0.79687,0.16406 -1.07812,0.48438 -0.27344,0.3125 -0.40625,0.8125 -0.40625,1.5 0,0.69922 0.1289,1.20312 0.39062,1.51562 0.26953,0.3125 0.61719,0.46875 1.04688,0.46875 0.34375,0 0.6289,-0.10156 0.85937,-0.3125 0.23828,-0.20703 0.39063,-0.53515 0.45313,-0.98437 z m 0,0"
       id="path5470" />
    <path
       style="clip-rule:nonzero;fill:#ffffff;fill-opacity:1;fill-rule:nonzero;stroke:none"
       d="m 151.49219,127.69141 -0.10938,-0.82813 c 0.19531,0.0508 0.36719,0.0781 0.51563,0.0781 0.1875,0 0.33593,-0.0312 0.45312,-0.0937 0.125,-0.0625 0.22266,-0.15625 0.29688,-0.28125 0.0508,-0.0859 0.14062,-0.30469 0.26562,-0.65625 0.0195,-0.043 0.0469,-0.10938 0.0781,-0.20313 l -1.96875,-5.20312 h 0.95312 l 1.07813,3 c 0.13281,0.38672 0.25781,0.78906 0.375,1.20312 0.10156,-0.40625 0.22265,-0.79687 0.35937,-1.17187 l 1.10938,-3.03125 h 0.875 l -1.96875,5.28125 c -0.21094,0.5625 -0.3711,0.95312 -0.48438,1.17187 -0.15625,0.28906 -0.33984,0.50391 -0.54687,0.64063 -0.19922,0.13281 -0.4375,0.20312 -0.71875,0.20312 -0.16797,0 -0.35547,-0.0391 -0.5625,-0.10937 z m 0,0"
       id="path5472"
       clip-path="url(#clipPath8230)" />
    <path
       style="clip-rule:nonzero;fill:#ffffff;fill-opacity:1;fill-rule:nonzero;stroke:none"
       d="m 158.97266,127.67578 v -9.14062 h 1.95312 v 0.71875 h -1.0625 v 7.70312 h 1.0625 v 0.71875 z m 0,0"
       id="path5476"
       clip-path="url(#clipPath8236)" />
    <path
       style="fill:#ffffff;fill-opacity:1;fill-rule:nonzero;stroke:none"
       d="m 161.75,125.69141 v -7.15625 h 0.95312 v 2.9375 h 3.71875 v -2.9375 h 0.95313 v 7.15625 h -0.95313 v -3.375 h -3.71875 v 3.375 z m 0,0"
       id="path5480" />
    <path
       style="fill:#ffffff;fill-opacity:1;fill-rule:nonzero;stroke:none"
       d="m 168.0625,125.69141 v -0.71875 l 3.29687,-3.78125 c -0.375,0.0234 -0.71093,0.0312 -1,0.0312 H 168.25 v -0.71875 h 4.23437 v 0.57812 l -2.79687,3.29688 -0.54688,0.59375 c 0.39454,-0.0195 0.76563,-0.0312 1.10938,-0.0312 h 2.39062 v 0.75 z m 0,0"
       id="path5482" />
    <path
       style="clip-rule:nonzero;fill:#ffffff;fill-opacity:1;fill-rule:nonzero;stroke:none"
       d="m 174.76562,127.67578 h -1.9375 v -0.71875 h 1.0625 v -7.70312 h -1.0625 v -0.71875 h 1.9375 z m 0,0"
       id="path5484"
       clip-path="url(#clipPath8254)" />
    <path
       style="fill:#ffffff;fill-opacity:1;fill-rule:nonzero;stroke:none"
       d="m 38.597656,107.80078 c 0,-0.84375 0.08203,-1.51953 0.25,-2.03125 0.175782,-0.51953 0.4375,-0.92187 0.78125,-1.20312 0.34375,-0.28125 0.773438,-0.42188 1.296875,-0.42188 0.382813,0 0.71875,0.0781 1,0.23438 0.289063,0.15625 0.53125,0.38281 0.71875,0.67187 0.195313,0.29297 0.347657,0.64844 0.453125,1.0625 0.101563,0.41797 0.15625,0.98047 0.15625,1.6875 0,0.84375 -0.08984,1.52735 -0.265625,2.04688 -0.167969,0.51172 -0.421875,0.90625 -0.765625,1.1875 -0.34375,0.28125 -0.777344,0.42187 -1.296875,0.42187 -0.6875,0 -1.230469,-0.25 -1.625,-0.75 -0.46875,-0.59375 -0.703125,-1.5625 -0.703125,-2.90625 z m 0.890625,0 c 0,1.17969 0.132813,1.96485 0.40625,2.35938 0.28125,0.38672 0.625,0.57812 1.03125,0.57812 0.40625,0 0.742188,-0.1914 1.015625,-0.57812 0.28125,-0.39453 0.421875,-1.17969 0.421875,-2.35938 0,-1.17578 -0.140625,-1.95703 -0.421875,-2.34375 -0.273437,-0.38281 -0.617187,-0.57812 -1.03125,-0.57812 -0.398437,0 -0.71875,0.16797 -0.96875,0.5 -0.304687,0.4375 -0.453125,1.24609 -0.453125,2.42187 z m 0,0"
       id="path5488" />
    <path
       style="fill:#ffffff;fill-opacity:1;fill-rule:nonzero;stroke:none"
       d="m 16.292969,70.476562 h 2.703125 v 0.875 h -2.703125 z m 0,0"
       id="path5490" />
    <path
       style="fill:#ffffff;fill-opacity:1;fill-rule:nonzero;stroke:none"
       d="m 22.890625,73.507812 h -0.875 v -5.59375 c -0.210937,0.199219 -0.484375,0.402344 -0.828125,0.609376 -0.34375,0.199218 -0.652344,0.34375 -0.921875,0.4375 v -0.84375 c 0.488281,-0.226563 0.914063,-0.503907 1.28125,-0.828126 0.375,-0.332031 0.632813,-0.65625 0.78125,-0.96875 h 0.5625 z m 0,0"
       id="path5492" />
    <path
       style="fill:#ffffff;fill-opacity:1;fill-rule:nonzero;stroke:none"
       d="m 24.917969,69.976562 c 0,-0.84375 0.08203,-1.519531 0.25,-2.03125 0.175781,-0.519531 0.4375,-0.921874 0.78125,-1.203124 0.34375,-0.28125 0.773437,-0.421876 1.296875,-0.421876 0.382812,0 0.71875,0.07813 1,0.234376 0.289062,0.15625 0.53125,0.382812 0.71875,0.671874 0.195312,0.292969 0.347656,0.648438 0.453125,1.0625 0.101562,0.417969 0.15625,0.980469 0.15625,1.6875 0,0.84375 -0.08984,1.527344 -0.265625,2.046876 -0.167969,0.511718 -0.421875,0.90625 -0.765625,1.1875 -0.34375,0.28125 -0.777344,0.421874 -1.296875,0.421874 -0.6875,0 -1.230469,-0.25 -1.625,-0.75 -0.46875,-0.59375 -0.703125,-1.5625 -0.703125,-2.90625 z m 0.890625,0 c 0,1.179688 0.132812,1.964844 0.40625,2.359376 0.28125,0.386718 0.625,0.578124 1.03125,0.578124 0.40625,0 0.742187,-0.191406 1.015625,-0.578124 0.28125,-0.394532 0.421875,-1.179688 0.421875,-2.359376 0,-1.175781 -0.140625,-1.957031 -0.421875,-2.34375 -0.273438,-0.382812 -0.617188,-0.578124 -1.03125,-0.578124 -0.398438,0 -0.71875,0.167968 -0.96875,0.5 -0.304688,0.4375 -0.453125,1.246093 -0.453125,2.421874 z m 0,0"
       id="path5494" />
    <path
       style="fill:#ffffff;fill-opacity:1;fill-rule:nonzero;stroke:none"
       d="m 30.238281,69.976562 c 0,-0.84375 0.08203,-1.519531 0.25,-2.03125 0.175781,-0.519531 0.4375,-0.921874 0.78125,-1.203124 0.34375,-0.28125 0.773438,-0.421876 1.296875,-0.421876 0.382813,0 0.71875,0.07813 1,0.234376 0.289063,0.15625 0.53125,0.382812 0.71875,0.671874 0.195313,0.292969 0.347656,0.648438 0.453125,1.0625 0.101563,0.417969 0.15625,0.980469 0.15625,1.6875 0,0.84375 -0.08984,1.527344 -0.265625,2.046876 -0.167968,0.511718 -0.421875,0.90625 -0.765625,1.1875 -0.34375,0.28125 -0.777343,0.421874 -1.296875,0.421874 -0.6875,0 -1.230468,-0.25 -1.625,-0.75 -0.46875,-0.59375 -0.703125,-1.5625 -0.703125,-2.90625 z m 0.890625,0 c 0,1.179688 0.132813,1.964844 0.40625,2.359376 0.28125,0.386718 0.625,0.578124 1.03125,0.578124 0.40625,0 0.742188,-0.191406 1.015625,-0.578124 0.28125,-0.394532 0.421875,-1.179688 0.421875,-2.359376 0,-1.175781 -0.140625,-1.957031 -0.421875,-2.34375 -0.273437,-0.382812 -0.617187,-0.578124 -1.03125,-0.578124 -0.398437,0 -0.71875,0.167968 -0.96875,0.5 -0.304687,0.4375 -0.453125,1.246093 -0.453125,2.421874 z m 0,0"
       id="path5496" />
    <path
       style="fill:#ffffff;fill-opacity:1;fill-rule:nonzero;stroke:none"
       d="m 21.613281,38.835938 h 2.703125 v 0.875 h -2.703125 z m 0,0"
       id="path5498" />
    <path
       style="fill:#ffffff;fill-opacity:1;fill-rule:nonzero;stroke:none"
       d="m 24.917969,39.992188 0.921875,-0.07813 c 0.0625,0.449219 0.21875,0.789063 0.46875,1.015626 0.25,0.230468 0.550781,0.34375 0.90625,0.34375 0.414062,0 0.769531,-0.160157 1.0625,-0.484376 0.300781,-0.320312 0.453125,-0.742187 0.453125,-1.265624 0,-0.5 -0.140625,-0.894532 -0.421875,-1.1875 -0.28125,-0.289063 -0.652344,-0.4375 -1.109375,-0.4375 -0.28125,0 -0.539063,0.07031 -0.765625,0.203124 -0.230469,0.125 -0.414063,0.289063 -0.546875,0.484376 l -0.8125,-0.109376 0.6875,-3.671874 h 3.5625 v 0.84375 h -2.859375 l -0.390625,1.921874 c 0.4375,-0.300781 0.890625,-0.453124 1.359375,-0.453124 0.625,0 1.148437,0.21875 1.578125,0.65625 0.425781,0.429687 0.640625,0.984374 0.640625,1.671874 0,0.648438 -0.1875,1.203126 -0.5625,1.671876 -0.460938,0.585937 -1.085938,0.875 -1.875,0.875 -0.65625,0 -1.195313,-0.179688 -1.609375,-0.546876 -0.40625,-0.363281 -0.636719,-0.847656 -0.6875,-1.453124 z m 0,0"
       id="path5500" />
    <path
       style="fill:#ffffff;fill-opacity:1;fill-rule:nonzero;stroke:none"
       d="m 30.238281,38.335938 c 0,-0.84375 0.08203,-1.519532 0.25,-2.03125 0.175781,-0.519532 0.4375,-0.921876 0.78125,-1.203126 0.34375,-0.28125 0.773438,-0.421874 1.296875,-0.421874 0.382813,0 0.71875,0.07812 1,0.234374 0.289063,0.15625 0.53125,0.382813 0.71875,0.671876 0.195313,0.292968 0.347656,0.648437 0.453125,1.0625 0.101563,0.417968 0.15625,0.980468 0.15625,1.6875 0,0.84375 -0.08984,1.527343 -0.265625,2.046874 -0.167968,0.511719 -0.421875,0.90625 -0.765625,1.1875 -0.34375,0.28125 -0.777343,0.421876 -1.296875,0.421876 -0.6875,0 -1.230468,-0.25 -1.625,-0.75 -0.46875,-0.59375 -0.703125,-1.5625 -0.703125,-2.90625 z m 0.890625,0 c 0,1.179687 0.132813,1.964843 0.40625,2.359374 0.28125,0.386719 0.625,0.578126 1.03125,0.578126 0.40625,0 0.742188,-0.191407 1.015625,-0.578126 0.28125,-0.394531 0.421875,-1.179687 0.421875,-2.359374 0,-1.175782 -0.140625,-1.957032 -0.421875,-2.34375 -0.273437,-0.382813 -0.617187,-0.578126 -1.03125,-0.578126 -0.398437,0 -0.71875,0.167969 -0.96875,0.5 -0.304687,0.4375 -0.453125,1.246094 -0.453125,2.421876 z m 0,0"
       id="path5502" />
    <path
       style="fill:#ffffff;fill-opacity:1;fill-rule:nonzero;stroke:none"
       d="m 30.238281,6.699219 c 0,-0.84375 0.08203,-1.519531 0.25,-2.03125 0.175781,-0.519531 0.4375,-0.921875 0.78125,-1.203125 0.34375,-0.28125 0.773438,-0.421875 1.296875,-0.421875 0.382813,0 0.71875,0.078125 1,0.234375 0.289063,0.15625 0.53125,0.382812 0.71875,0.671875 0.195313,0.292969 0.347656,0.648437 0.453125,1.0625 0.101563,0.417969 0.15625,0.980469 0.15625,1.6875 0,0.84375 -0.08984,1.527343 -0.265625,2.046875 -0.167968,0.511718 -0.421875,0.90625 -0.765625,1.1875 -0.34375,0.28125 -0.777343,0.421875 -1.296875,0.421875 -0.6875,0 -1.230468,-0.25 -1.625,-0.75 -0.46875,-0.59375 -0.703125,-1.5625 -0.703125,-2.90625 z m 0.890625,0 c 0,1.179687 0.132813,1.964843 0.40625,2.359375 0.28125,0.386718 0.625,0.578125 1.03125,0.578125 0.40625,0 0.742188,-0.191407 1.015625,-0.578125 0.28125,-0.394532 0.421875,-1.179688 0.421875,-2.359375 0,-1.175781 -0.140625,-1.957031 -0.421875,-2.34375 -0.273437,-0.382813 -0.617187,-0.578125 -1.03125,-0.578125 -0.398437,0 -0.71875,0.167968 -0.96875,0.5 -0.304687,0.4375 -0.453125,1.246094 -0.453125,2.421875 z m 0,0"
       id="path5504" />
    <path
       style="fill:#ffffff;fill-opacity:1;fill-rule:nonzero;stroke:none"
       d="m 16.292969,102.11719 h 2.703125 v 0.875 h -2.703125 z m 0,0"
       id="path5506" />
    <path
       style="fill:#ffffff;fill-opacity:1;fill-rule:nonzero;stroke:none"
       d="m 22.890625,105.14844 h -0.875 v -5.593752 c -0.210937,0.199218 -0.484375,0.402343 -0.828125,0.609372 -0.34375,0.19922 -0.652344,0.34375 -0.921875,0.4375 v -0.843748 c 0.488281,-0.226562 0.914063,-0.503906 1.28125,-0.828124 0.375,-0.332032 0.632813,-0.65625 0.78125,-0.96875 h 0.5625 z m 0,0"
       id="path5508" />
    <path
       style="fill:#ffffff;fill-opacity:1;fill-rule:nonzero;stroke:none"
       d="m 24.917969,103.27344 0.921875,-0.0781 c 0.0625,0.44922 0.21875,0.78907 0.46875,1.01563 0.25,0.23047 0.550781,0.34375 0.90625,0.34375 0.414062,0 0.769531,-0.16016 1.0625,-0.48438 0.300781,-0.32031 0.453125,-0.74218 0.453125,-1.26562 0,-0.5 -0.140625,-0.89453 -0.421875,-1.1875 -0.28125,-0.28906 -0.652344,-0.4375 -1.109375,-0.4375 -0.28125,0 -0.539063,0.0703 -0.765625,0.20312 -0.230469,0.125 -0.414063,0.28907 -0.546875,0.48438 l -0.8125,-0.10938 0.6875,-3.671872 h 3.5625 v 0.84375 h -2.859375 l -0.390625,1.921872 c 0.4375,-0.30078 0.890625,-0.45312 1.359375,-0.45312 0.625,0 1.148437,0.21875 1.578125,0.65625 0.425781,0.42969 0.640625,0.98437 0.640625,1.67187 0,0.64844 -0.1875,1.20313 -0.5625,1.67188 -0.460938,0.58594 -1.085938,0.875 -1.875,0.875 -0.65625,0 -1.195313,-0.17969 -1.609375,-0.54688 -0.40625,-0.36328 -0.636719,-0.84765 -0.6875,-1.45312 z m 0,0"
       id="path5510" />
    <path
       style="fill:#ffffff;fill-opacity:1;fill-rule:nonzero;stroke:none"
       d="m 30.238281,101.61719 c 0,-0.84375 0.08203,-1.51953 0.25,-2.031252 0.175781,-0.519532 0.4375,-0.921876 0.78125,-1.203126 0.34375,-0.28125 0.773438,-0.421874 1.296875,-0.421874 0.382813,0 0.71875,0.07812 1,0.234374 0.289063,0.15625 0.53125,0.382813 0.71875,0.671876 0.195313,0.292968 0.347656,0.648437 0.453125,1.0625 0.101563,0.417972 0.15625,0.980472 0.15625,1.687502 0,0.84375 -0.08984,1.52734 -0.265625,2.04687 -0.167968,0.51172 -0.421875,0.90625 -0.765625,1.1875 -0.34375,0.28125 -0.777343,0.42188 -1.296875,0.42188 -0.6875,0 -1.230468,-0.25 -1.625,-0.75 -0.46875,-0.59375 -0.703125,-1.5625 -0.703125,-2.90625 z m 0.890625,0 c 0,1.17969 0.132813,1.96484 0.40625,2.35937 0.28125,0.38672 0.625,0.57813 1.03125,0.57813 0.40625,0 0.742188,-0.19141 1.015625,-0.57813 0.28125,-0.39453 0.421875,-1.17968 0.421875,-2.35937 0,-1.17578 -0.140625,-1.957034 -0.421875,-2.343752 -0.273437,-0.382813 -0.617187,-0.578126 -1.03125,-0.578126 -0.398437,0 -0.71875,0.167969 -0.96875,0.5 -0.304687,0.4375 -0.453125,1.246098 -0.453125,2.421878 z m 0,0"
       id="path5512" />
    <path
       style="fill:#ffffff;fill-opacity:1;fill-rule:nonzero;stroke:none"
       d="m 62.933594,111.33203 h -0.875 v -5.59375 c -0.210938,0.19922 -0.484375,0.40235 -0.828125,0.60938 -0.34375,0.19922 -0.652344,0.34375 -0.921875,0.4375 v -0.84375 c 0.488281,-0.22657 0.914062,-0.50391 1.28125,-0.82813 0.375,-0.33203 0.632812,-0.65625 0.78125,-0.96875 h 0.5625 z m 0,0"
       id="path5514" />
    <path
       style="fill:#ffffff;fill-opacity:1;fill-rule:nonzero;stroke:none"
       d="m 64.957031,107.80078 c 0,-0.84375 0.08203,-1.51953 0.25,-2.03125 0.175781,-0.51953 0.4375,-0.92187 0.78125,-1.20312 0.34375,-0.28125 0.773438,-0.42188 1.296875,-0.42188 0.382813,0 0.71875,0.0781 1,0.23438 0.289063,0.15625 0.53125,0.38281 0.71875,0.67187 0.195313,0.29297 0.347656,0.64844 0.453125,1.0625 0.101563,0.41797 0.15625,0.98047 0.15625,1.6875 0,0.84375 -0.08984,1.52735 -0.265625,2.04688 -0.167968,0.51172 -0.421875,0.90625 -0.765625,1.1875 -0.34375,0.28125 -0.777343,0.42187 -1.296875,0.42187 -0.6875,0 -1.230468,-0.25 -1.625,-0.75 -0.46875,-0.59375 -0.703125,-1.5625 -0.703125,-2.90625 z m 0.890625,0 c 0,1.17969 0.132813,1.96485 0.40625,2.35938 0.28125,0.38672 0.625,0.57812 1.03125,0.57812 0.40625,0 0.742188,-0.1914 1.015625,-0.57812 0.28125,-0.39453 0.421875,-1.17969 0.421875,-2.35938 0,-1.17578 -0.140625,-1.95703 -0.421875,-2.34375 -0.273437,-0.38281 -0.617187,-0.57812 -1.03125,-0.57812 -0.398437,0 -0.71875,0.16797 -0.96875,0.5 -0.304687,0.4375 -0.453125,1.24609 -0.453125,2.42187 z m 0,0"
       id="path5516" />
    <path
       style="fill:#ffffff;fill-opacity:1;fill-rule:nonzero;stroke:none"
       d="m 70.277344,107.80078 c 0,-0.84375 0.08203,-1.51953 0.25,-2.03125 0.175781,-0.51953 0.4375,-0.92187 0.78125,-1.20312 0.34375,-0.28125 0.773437,-0.42188 1.296875,-0.42188 0.382812,0 0.71875,0.0781 1,0.23438 0.289062,0.15625 0.53125,0.38281 0.71875,0.67187 0.195312,0.29297 0.347656,0.64844 0.453125,1.0625 0.101562,0.41797 0.15625,0.98047 0.15625,1.6875 0,0.84375 -0.08984,1.52735 -0.265625,2.04688 -0.167969,0.51172 -0.421875,0.90625 -0.765625,1.1875 -0.34375,0.28125 -0.777344,0.42187 -1.296875,0.42187 -0.6875,0 -1.230469,-0.25 -1.625,-0.75 -0.46875,-0.59375 -0.703125,-1.5625 -0.703125,-2.90625 z m 0.890625,0 c 0,1.17969 0.132812,1.96485 0.40625,2.35938 0.28125,0.38672 0.625,0.57812 1.03125,0.57812 0.40625,0 0.742187,-0.1914 1.015625,-0.57812 0.28125,-0.39453 0.421875,-1.17969 0.421875,-2.35938 0,-1.17578 -0.140625,-1.95703 -0.421875,-2.34375 -0.273438,-0.38281 -0.617188,-0.57812 -1.03125,-0.57812 -0.398438,0 -0.71875,0.16797 -0.96875,0.5 -0.304688,0.4375 -0.453125,1.24609 -0.453125,2.42187 z m 0,0"
       id="path5518" />
    <path
       style="fill:#ffffff;fill-opacity:1;fill-rule:nonzero;stroke:none"
       d="m 91.757812,110.48828 v 0.84375 h -4.734374 c 0,-0.20703 0.03516,-0.41015 0.109374,-0.60937 0.125,-0.32032 0.316407,-0.64063 0.578126,-0.95313 0.257812,-0.3125 0.644531,-0.67187 1.15625,-1.07812 0.769531,-0.64453 1.289062,-1.14844 1.5625,-1.51563 0.28125,-0.375 0.421874,-0.72656 0.421874,-1.0625 0,-0.35156 -0.125,-0.64453 -0.375,-0.875 -0.25,-0.23828 -0.574218,-0.35937 -0.96875,-0.35937 -0.429687,0 -0.773437,0.125 -1.03125,0.375 -0.25,0.25 -0.375,0.60156 -0.375,1.04687 l -0.90625,-0.0937 c 0.0625,-0.66406 0.289063,-1.17578 0.6875,-1.53125 0.40625,-0.35156 0.953126,-0.53125 1.640626,-0.53125 0.6875,0 1.226562,0.19531 1.625,0.57813 0.40625,0.375 0.609374,0.84375 0.609374,1.40625 0,0.29297 -0.0625,0.57812 -0.1875,0.85937 -0.117187,0.27344 -0.308593,0.5625 -0.578124,0.875 -0.273438,0.30469 -0.726563,0.71875 -1.359376,1.25 -0.523437,0.4375 -0.859374,0.74219 -1.015624,0.90625 -0.148438,0.15625 -0.265626,0.3125 -0.359376,0.46875 z m 0,0"
       id="path5520" />
    <path
       style="fill:#ffffff;fill-opacity:1;fill-rule:nonzero;stroke:none"
       d="m 92.46875,107.80078 c 0,-0.84375 0.08203,-1.51953 0.25,-2.03125 0.175781,-0.51953 0.4375,-0.92187 0.78125,-1.20312 0.34375,-0.28125 0.773438,-0.42188 1.296875,-0.42188 0.382813,0 0.71875,0.0781 1,0.23438 0.289063,0.15625 0.53125,0.38281 0.71875,0.67187 0.195313,0.29297 0.347656,0.64844 0.453125,1.0625 0.101562,0.41797 0.15625,0.98047 0.15625,1.6875 0,0.84375 -0.08984,1.52735 -0.265625,2.04688 -0.167969,0.51172 -0.421875,0.90625 -0.765625,1.1875 -0.34375,0.28125 -0.777344,0.42187 -1.296875,0.42187 -0.6875,0 -1.230469,-0.25 -1.625,-0.75 -0.46875,-0.59375 -0.703125,-1.5625 -0.703125,-2.90625 z m 0.890625,0 c 0,1.17969 0.132813,1.96485 0.40625,2.35938 0.28125,0.38672 0.625,0.57812 1.03125,0.57812 0.40625,0 0.742187,-0.1914 1.015625,-0.57812 0.28125,-0.39453 0.421875,-1.17969 0.421875,-2.35938 0,-1.17578 -0.140625,-1.95703 -0.421875,-2.34375 -0.273438,-0.38281 -0.617188,-0.57812 -1.03125,-0.57812 -0.398438,0 -0.71875,0.16797 -0.96875,0.5 -0.304688,0.4375 -0.453125,1.24609 -0.453125,2.42187 z m 0,0"
       id="path5522" />
    <path
       style="fill:#ffffff;fill-opacity:1;fill-rule:nonzero;stroke:none"
       d="m 97.789062,107.80078 c 0,-0.84375 0.08203,-1.51953 0.25,-2.03125 0.175782,-0.51953 0.4375,-0.92187 0.78125,-1.20312 0.34375,-0.28125 0.773438,-0.42188 1.296878,-0.42188 0.38281,0 0.71875,0.0781 1,0.23438 0.28906,0.15625 0.53125,0.38281 0.71875,0.67187 0.19531,0.29297 0.34765,0.64844 0.45312,1.0625 0.10157,0.41797 0.15625,0.98047 0.15625,1.6875 0,0.84375 -0.0898,1.52735 -0.26562,2.04688 -0.16797,0.51172 -0.42188,0.90625 -0.76563,1.1875 -0.34375,0.28125 -0.77734,0.42187 -1.29687,0.42187 -0.687502,0 -1.230471,-0.25 -1.625002,-0.75 -0.46875,-0.59375 -0.703126,-1.5625 -0.703126,-2.90625 z m 0.890626,0 c 0,1.17969 0.132812,1.96485 0.40625,2.35938 0.28125,0.38672 0.625,0.57812 1.031252,0.57812 0.40625,0 0.74219,-0.1914 1.01562,-0.57812 0.28125,-0.39453 0.42188,-1.17969 0.42188,-2.35938 0,-1.17578 -0.14063,-1.95703 -0.42188,-2.34375 -0.27343,-0.38281 -0.61718,-0.57812 -1.03125,-0.57812 -0.398435,0 -0.718748,0.16797 -0.968748,0.5 -0.304687,0.4375 -0.453124,1.24609 -0.453124,2.42187 z m 0,0"
       id="path5524" />
    <path
       style="fill:#ffffff;fill-opacity:1;fill-rule:nonzero;stroke:none"
       d="m 114.22656,109.44141 0.875,-0.10938 c 0.10157,0.49219 0.27344,0.85156 0.51563,1.07813 0.23828,0.21875 0.53515,0.32812 0.89062,0.32812 0.41407,0 0.76563,-0.14062 1.04688,-0.42187 0.28125,-0.28907 0.42187,-0.64844 0.42187,-1.07813 0,-0.40625 -0.13281,-0.73828 -0.39062,-1 -0.26172,-0.25781 -0.59375,-0.39062 -1,-0.39062 -0.16797,0 -0.375,0.0312 -0.625,0.0937 l 0.0937,-0.76563 c 0.0625,0 0.10937,0 0.14062,0 0.375,0 0.71094,-0.0937 1.01563,-0.28125 0.30078,-0.19531 0.45312,-0.5 0.45312,-0.90625 0,-0.32031 -0.10937,-0.58594 -0.32812,-0.79687 -0.21875,-0.21875 -0.5,-0.32813 -0.84375,-0.32813 -0.34375,0 -0.63281,0.10938 -0.85938,0.32813 -0.23047,0.21093 -0.375,0.53125 -0.4375,0.96875 l -0.875,-0.15625 c 0.10157,-0.59375 0.34375,-1.05078 0.71875,-1.375 0.38282,-0.32032 0.85938,-0.48438 1.42188,-0.48438 0.39453,0 0.7539,0.0859 1.07812,0.25 0.33203,0.16797 0.58203,0.39844 0.75,0.6875 0.17578,0.29297 0.26563,0.60156 0.26563,0.92188 0,0.3125 -0.0859,0.59375 -0.25,0.84375 -0.15625,0.25 -0.40235,0.45312 -0.73438,0.60937 0.42578,0.0937 0.75391,0.29688 0.98438,0.60938 0.23828,0.30468 0.35937,0.6875 0.35937,1.15625 0,0.625 -0.23047,1.15625 -0.6875,1.59375 -0.46093,0.42968 -1.03125,0.64062 -1.71875,0.64062 -0.63672,0 -1.16406,-0.1875 -1.57812,-0.5625 -0.40625,-0.375 -0.64063,-0.85937 -0.70313,-1.45312 z m 0,0"
       id="path5526" />
    <path
       style="fill:#ffffff;fill-opacity:1;fill-rule:nonzero;stroke:none"
       d="m 119.55078,107.80078 c 0,-0.84375 0.082,-1.51953 0.25,-2.03125 0.17578,-0.51953 0.4375,-0.92187 0.78125,-1.20312 0.34375,-0.28125 0.77344,-0.42188 1.29688,-0.42188 0.38281,0 0.71875,0.0781 1,0.23438 0.28906,0.15625 0.53125,0.38281 0.71875,0.67187 0.19531,0.29297 0.34765,0.64844 0.45312,1.0625 0.10156,0.41797 0.15625,0.98047 0.15625,1.6875 0,0.84375 -0.0898,1.52735 -0.26562,2.04688 -0.16797,0.51172 -0.42188,0.90625 -0.76563,1.1875 -0.34375,0.28125 -0.77734,0.42187 -1.29687,0.42187 -0.6875,0 -1.23047,-0.25 -1.625,-0.75 -0.46875,-0.59375 -0.70313,-1.5625 -0.70313,-2.90625 z m 0.89063,0 c 0,1.17969 0.13281,1.96485 0.40625,2.35938 0.28125,0.38672 0.625,0.57812 1.03125,0.57812 0.40625,0 0.74218,-0.1914 1.01562,-0.57812 0.28125,-0.39453 0.42188,-1.17969 0.42188,-2.35938 0,-1.17578 -0.14063,-1.95703 -0.42188,-2.34375 -0.27344,-0.38281 -0.61719,-0.57812 -1.03125,-0.57812 -0.39844,0 -0.71875,0.16797 -0.96875,0.5 -0.30469,0.4375 -0.45312,1.24609 -0.45312,2.42187 z m 0,0"
       id="path5528" />
    <path
       style="fill:#ffffff;fill-opacity:1;fill-rule:nonzero;stroke:none"
       d="m 124.87109,107.80078 c 0,-0.84375 0.082,-1.51953 0.25,-2.03125 0.17579,-0.51953 0.4375,-0.92187 0.78125,-1.20312 0.34375,-0.28125 0.77344,-0.42188 1.29688,-0.42188 0.38281,0 0.71875,0.0781 1,0.23438 0.28906,0.15625 0.53125,0.38281 0.71875,0.67187 0.19531,0.29297 0.34765,0.64844 0.45312,1.0625 0.10157,0.41797 0.15625,0.98047 0.15625,1.6875 0,0.84375 -0.0898,1.52735 -0.26562,2.04688 -0.16797,0.51172 -0.42188,0.90625 -0.76563,1.1875 -0.34375,0.28125 -0.77734,0.42187 -1.29687,0.42187 -0.6875,0 -1.23047,-0.25 -1.625,-0.75 -0.46875,-0.59375 -0.70313,-1.5625 -0.70313,-2.90625 z m 0.89063,0 c 0,1.17969 0.13281,1.96485 0.40625,2.35938 0.28125,0.38672 0.625,0.57812 1.03125,0.57812 0.40625,0 0.74219,-0.1914 1.01562,-0.57812 0.28125,-0.39453 0.42188,-1.17969 0.42188,-2.35938 0,-1.17578 -0.14063,-1.95703 -0.42188,-2.34375 -0.27343,-0.38281 -0.61718,-0.57812 -1.03125,-0.57812 -0.39843,0 -0.71875,0.16797 -0.96875,0.5 -0.30468,0.4375 -0.45312,1.24609 -0.45312,2.42187 z m 0,0"
       id="path5530" />
    <path
       style="fill:#ffffff;fill-opacity:1;fill-rule:nonzero;stroke:none"
       d="m 144.31641,111.33203 v -1.71875 h -3.10938 v -0.79687 l 3.26563,-4.64063 h 0.71875 v 4.64063 h 0.96875 v 0.79687 h -0.96875 v 1.71875 z m 0,-2.51562 v -3.23438 l -2.25,3.23438 z m 0,0"
       id="path5532" />
    <path
       style="fill:#ffffff;fill-opacity:1;fill-rule:nonzero;stroke:none"
       d="m 146.82422,107.80078 c 0,-0.84375 0.082,-1.51953 0.25,-2.03125 0.17578,-0.51953 0.4375,-0.92187 0.78125,-1.20312 0.34375,-0.28125 0.77344,-0.42188 1.29687,-0.42188 0.38282,0 0.71875,0.0781 1,0.23438 0.28907,0.15625 0.53125,0.38281 0.71875,0.67187 0.19532,0.29297 0.34766,0.64844 0.45313,1.0625 0.10156,0.41797 0.15625,0.98047 0.15625,1.6875 0,0.84375 -0.0898,1.52735 -0.26563,2.04688 -0.16797,0.51172 -0.42187,0.90625 -0.76562,1.1875 -0.34375,0.28125 -0.77735,0.42187 -1.29688,0.42187 -0.6875,0 -1.23047,-0.25 -1.625,-0.75 -0.46875,-0.59375 -0.70312,-1.5625 -0.70312,-2.90625 z m 0.89062,0 c 0,1.17969 0.13282,1.96485 0.40625,2.35938 0.28125,0.38672 0.625,0.57812 1.03125,0.57812 0.40625,0 0.74219,-0.1914 1.01563,-0.57812 0.28125,-0.39453 0.42187,-1.17969 0.42187,-2.35938 0,-1.17578 -0.14062,-1.95703 -0.42187,-2.34375 -0.27344,-0.38281 -0.61719,-0.57812 -1.03125,-0.57812 -0.39844,0 -0.71875,0.16797 -0.96875,0.5 -0.30469,0.4375 -0.45313,1.24609 -0.45313,2.42187 z m 0,0"
       id="path5534" />
    <path
       style="fill:#ffffff;fill-opacity:1;fill-rule:nonzero;stroke:none"
       d="m 152.14453,107.80078 c 0,-0.84375 0.082,-1.51953 0.25,-2.03125 0.17578,-0.51953 0.4375,-0.92187 0.78125,-1.20312 0.34375,-0.28125 0.77344,-0.42188 1.29688,-0.42188 0.38281,0 0.71875,0.0781 1,0.23438 0.28906,0.15625 0.53125,0.38281 0.71875,0.67187 0.19531,0.29297 0.34765,0.64844 0.45312,1.0625 0.10156,0.41797 0.15625,0.98047 0.15625,1.6875 0,0.84375 -0.0898,1.52735 -0.26562,2.04688 -0.16797,0.51172 -0.42188,0.90625 -0.76563,1.1875 -0.34375,0.28125 -0.77734,0.42187 -1.29687,0.42187 -0.6875,0 -1.23047,-0.25 -1.625,-0.75 -0.46875,-0.59375 -0.70313,-1.5625 -0.70313,-2.90625 z m 0.89063,0 c 0,1.17969 0.13281,1.96485 0.40625,2.35938 0.28125,0.38672 0.625,0.57812 1.03125,0.57812 0.40625,0 0.74218,-0.1914 1.01562,-0.57812 0.28125,-0.39453 0.42188,-1.17969 0.42188,-2.35938 0,-1.17578 -0.14063,-1.95703 -0.42188,-2.34375 -0.27344,-0.38281 -0.61719,-0.57812 -1.03125,-0.57812 -0.39844,0 -0.71875,0.16797 -0.96875,0.5 -0.30469,0.4375 -0.45312,1.24609 -0.45312,2.42187 z m 0,0"
       id="path5536" />
    <path
       style="fill:#ffffff;fill-opacity:1;fill-rule:nonzero;stroke:none"
       d="m 168.50391,109.45703 0.92187,-0.0781 c 0.0625,0.44922 0.21875,0.78906 0.46875,1.01562 0.25,0.23047 0.55078,0.34375 0.90625,0.34375 0.41406,0 0.76953,-0.16015 1.0625,-0.48437 0.30078,-0.32032 0.45313,-0.74219 0.45313,-1.26563 0,-0.5 -0.14063,-0.89453 -0.42188,-1.1875 -0.28125,-0.28906 -0.65234,-0.4375 -1.10937,-0.4375 -0.28125,0 -0.53907,0.0703 -0.76563,0.20313 -0.23047,0.125 -0.41406,0.28906 -0.54687,0.48437 l -0.8125,-0.10937 0.6875,-3.67188 h 3.5625 v 0.84375 h -2.85938 l -0.39062,1.92188 c 0.4375,-0.30078 0.89062,-0.45313 1.35937,-0.45313 0.625,0 1.14844,0.21875 1.57813,0.65625 0.42578,0.42969 0.64062,0.98438 0.64062,1.67188 0,0.64843 -0.1875,1.20312 -0.5625,1.67187 -0.46094,0.58594 -1.08594,0.875 -1.875,0.875 -0.65625,0 -1.19531,-0.17969 -1.60937,-0.54687 -0.40625,-0.36328 -0.63672,-0.84766 -0.6875,-1.45313 z m 0,0"
       id="path5538" />
    <path
       style="fill:#ffffff;fill-opacity:1;fill-rule:nonzero;stroke:none"
       d="m 173.82422,107.80078 c 0,-0.84375 0.082,-1.51953 0.25,-2.03125 0.17578,-0.51953 0.4375,-0.92187 0.78125,-1.20312 0.34375,-0.28125 0.77344,-0.42188 1.29687,-0.42188 0.38282,0 0.71875,0.0781 1,0.23438 0.28907,0.15625 0.53125,0.38281 0.71875,0.67187 0.19532,0.29297 0.34766,0.64844 0.45313,1.0625 0.10156,0.41797 0.15625,0.98047 0.15625,1.6875 0,0.84375 -0.0898,1.52735 -0.26563,2.04688 -0.16797,0.51172 -0.42187,0.90625 -0.76562,1.1875 -0.34375,0.28125 -0.77735,0.42187 -1.29688,0.42187 -0.6875,0 -1.23047,-0.25 -1.625,-0.75 -0.46875,-0.59375 -0.70312,-1.5625 -0.70312,-2.90625 z m 0.89062,0 c 0,1.17969 0.13282,1.96485 0.40625,2.35938 0.28125,0.38672 0.625,0.57812 1.03125,0.57812 0.40625,0 0.74219,-0.1914 1.01563,-0.57812 0.28125,-0.39453 0.42187,-1.17969 0.42187,-2.35938 0,-1.17578 -0.14062,-1.95703 -0.42187,-2.34375 -0.27344,-0.38281 -0.61719,-0.57812 -1.03125,-0.57812 -0.39844,0 -0.71875,0.16797 -0.96875,0.5 -0.30469,0.4375 -0.45313,1.24609 -0.45313,2.42187 z m 0,0"
       id="path5540" />
    <path
       style="fill:#ffffff;fill-opacity:1;fill-rule:nonzero;stroke:none"
       d="m 179.14453,107.80078 c 0,-0.84375 0.082,-1.51953 0.25,-2.03125 0.17578,-0.51953 0.4375,-0.92187 0.78125,-1.20312 0.34375,-0.28125 0.77344,-0.42188 1.29688,-0.42188 0.38281,0 0.71875,0.0781 1,0.23438 0.28906,0.15625 0.53125,0.38281 0.71875,0.67187 0.19531,0.29297 0.34765,0.64844 0.45312,1.0625 0.10156,0.41797 0.15625,0.98047 0.15625,1.6875 0,0.84375 -0.0898,1.52735 -0.26562,2.04688 -0.16797,0.51172 -0.42188,0.90625 -0.76563,1.1875 -0.34375,0.28125 -0.77734,0.42187 -1.29687,0.42187 -0.6875,0 -1.23047,-0.25 -1.625,-0.75 -0.46875,-0.59375 -0.70313,-1.5625 -0.70313,-2.90625 z m 0.89063,0 c 0,1.17969 0.13281,1.96485 0.40625,2.35938 0.28125,0.38672 0.625,0.57812 1.03125,0.57812 0.40625,0 0.74218,-0.1914 1.01562,-0.57812 0.28125,-0.39453 0.42188,-1.17969 0.42188,-2.35938 0,-1.17578 -0.14063,-1.95703 -0.42188,-2.34375 -0.27344,-0.38281 -0.61719,-0.57812 -1.03125,-0.57812 -0.39844,0 -0.71875,0.16797 -0.96875,0.5 -0.30469,0.4375 -0.45312,1.24609 -0.45312,2.42187 z m 0,0"
       id="path5542" />
    <path
       style="fill:#ffffff;fill-opacity:1;fill-rule:nonzero;stroke:none"
       d="m 200.20312,105.92578 -0.85937,0.0625 c -0.0859,-0.34375 -0.19922,-0.59375 -0.34375,-0.75 -0.24219,-0.25 -0.53125,-0.375 -0.875,-0.375 -0.28125,0 -0.52734,0.0781 -0.73438,0.23438 -0.28125,0.21093 -0.5,0.50781 -0.65625,0.89062 -0.15625,0.38672 -0.24218,0.9375 -0.25,1.65625 0.20704,-0.32031 0.46094,-0.5625 0.76563,-0.71875 0.3125,-0.15625 0.63281,-0.23437 0.96875,-0.23437 0.59375,0 1.09375,0.21875 1.5,0.65625 0.41406,0.42968 0.625,0.98047 0.625,1.65625 0,0.44922 -0.10156,0.86718 -0.29688,1.25 -0.19921,0.38672 -0.46875,0.68359 -0.8125,0.89062 -0.33593,0.20703 -0.71484,0.3125 -1.14062,0.3125 -0.73047,0 -1.32813,-0.26953 -1.79688,-0.8125 -0.46093,-0.53906 -0.6875,-1.42578 -0.6875,-2.65625 0,-1.38281 0.25391,-2.39453 0.76563,-3.03125 0.44531,-0.53906 1.04687,-0.8125 1.79687,-0.8125 0.57032,0 1.03516,0.16406 1.39063,0.48438 0.36328,0.3125 0.57812,0.74609 0.64062,1.29687 z m -3.57812,3.09375 c 0,0.30469 0.0625,0.59375 0.1875,0.875 0.125,0.27344 0.30078,0.48047 0.53125,0.625 0.23828,0.14844 0.48437,0.21875 0.73437,0.21875 0.375,0 0.69141,-0.14844 0.95313,-0.45312 0.26953,-0.30078 0.40625,-0.70703 0.40625,-1.21875 0,-0.5 -0.13672,-0.89063 -0.40625,-1.17188 -0.26172,-0.28906 -0.58984,-0.4375 -0.98438,-0.4375 -0.39843,0 -0.73437,0.14844 -1.01562,0.4375 -0.27344,0.28125 -0.40625,0.65625 -0.40625,1.125 z m 0,0"
       id="path5544" />
    <path
       style="fill:#ffffff;fill-opacity:1;fill-rule:nonzero;stroke:none"
       d="m 200.97656,107.80078 c 0,-0.84375 0.082,-1.51953 0.25,-2.03125 0.17578,-0.51953 0.4375,-0.92187 0.78125,-1.20312 0.34375,-0.28125 0.77344,-0.42188 1.29688,-0.42188 0.38281,0 0.71875,0.0781 1,0.23438 0.28906,0.15625 0.53125,0.38281 0.71875,0.67187 0.19531,0.29297 0.34765,0.64844 0.45312,1.0625 0.10156,0.41797 0.15625,0.98047 0.15625,1.6875 0,0.84375 -0.0898,1.52735 -0.26562,2.04688 -0.16797,0.51172 -0.42188,0.90625 -0.76563,1.1875 -0.34375,0.28125 -0.77734,0.42187 -1.29687,0.42187 -0.6875,0 -1.23047,-0.25 -1.625,-0.75 -0.46875,-0.59375 -0.70313,-1.5625 -0.70313,-2.90625 z m 0.89063,0 c 0,1.17969 0.13281,1.96485 0.40625,2.35938 0.28125,0.38672 0.625,0.57812 1.03125,0.57812 0.40625,0 0.74218,-0.1914 1.01562,-0.57812 0.28125,-0.39453 0.42188,-1.17969 0.42188,-2.35938 0,-1.17578 -0.14063,-1.95703 -0.42188,-2.34375 -0.27344,-0.38281 -0.61719,-0.57812 -1.03125,-0.57812 -0.39844,0 -0.71875,0.16797 -0.96875,0.5 -0.30469,0.4375 -0.45312,1.24609 -0.45312,2.42187 z m 0,0"
       id="path5546" />
    <path
       style="fill:#ffffff;fill-opacity:1;fill-rule:nonzero;stroke:none"
       d="m 206.30078,107.80078 c 0,-0.84375 0.082,-1.51953 0.25,-2.03125 0.17578,-0.51953 0.4375,-0.92187 0.78125,-1.20312 0.34375,-0.28125 0.77344,-0.42188 1.29688,-0.42188 0.38281,0 0.71875,0.0781 1,0.23438 0.28906,0.15625 0.53125,0.38281 0.71875,0.67187 0.19531,0.29297 0.34765,0.64844 0.45312,1.0625 0.10156,0.41797 0.15625,0.98047 0.15625,1.6875 0,0.84375 -0.0898,1.52735 -0.26562,2.04688 -0.16797,0.51172 -0.42188,0.90625 -0.76563,1.1875 -0.34375,0.28125 -0.77734,0.42187 -1.29687,0.42187 -0.6875,0 -1.23047,-0.25 -1.625,-0.75 -0.46875,-0.59375 -0.70313,-1.5625 -0.70313,-2.90625 z m 0.89063,0 c 0,1.17969 0.13281,1.96485 0.40625,2.35938 0.28125,0.38672 0.625,0.57812 1.03125,0.57812 0.40625,0 0.74218,-0.1914 1.01562,-0.57812 0.28125,-0.39453 0.42188,-1.17969 0.42188,-2.35938 0,-1.17578 -0.14063,-1.95703 -0.42188,-2.34375 -0.27344,-0.38281 -0.61719,-0.57812 -1.03125,-0.57812 -0.39844,0 -0.71875,0.16797 -0.96875,0.5 -0.30469,0.4375 -0.45312,1.24609 -0.45312,2.42187 z m 0,0"
       id="path5548" />
    <path
       style="fill:#ffffff;fill-opacity:1;fill-rule:nonzero;stroke:none"
       d="m 222.79297,105.11328 v -0.84375 h 4.64062 v 0.6875 c -0.46093,0.48047 -0.91406,1.1211 -1.35937,1.92188 -0.44922,0.80468 -0.79297,1.63281 -1.03125,2.48437 -0.17969,0.60547 -0.29297,1.26172 -0.34375,1.96875 h -0.90625 c 0.008,-0.5625 0.11719,-1.23828 0.32812,-2.03125 0.21875,-0.80078 0.52344,-1.57031 0.92188,-2.3125 0.39453,-0.73828 0.8164,-1.36328 1.26562,-1.875 z m 0,0"
       id="path5550" />
    <path
       style="fill:#ffffff;fill-opacity:1;fill-rule:nonzero;stroke:none"
       d="m 228.06641,107.80078 c 0,-0.84375 0.082,-1.51953 0.25,-2.03125 0.17578,-0.51953 0.4375,-0.92187 0.78125,-1.20312 0.34375,-0.28125 0.77343,-0.42188 1.29687,-0.42188 0.38281,0 0.71875,0.0781 1,0.23438 0.28906,0.15625 0.53125,0.38281 0.71875,0.67187 0.19531,0.29297 0.34766,0.64844 0.45313,1.0625 0.10156,0.41797 0.15625,0.98047 0.15625,1.6875 0,0.84375 -0.0898,1.52735 -0.26563,2.04688 -0.16797,0.51172 -0.42187,0.90625 -0.76562,1.1875 -0.34375,0.28125 -0.77735,0.42187 -1.29688,0.42187 -0.6875,0 -1.23047,-0.25 -1.625,-0.75 -0.46875,-0.59375 -0.70312,-1.5625 -0.70312,-2.90625 z m 0.89062,0 c 0,1.17969 0.13281,1.96485 0.40625,2.35938 0.28125,0.38672 0.625,0.57812 1.03125,0.57812 0.40625,0 0.74219,-0.1914 1.01563,-0.57812 0.28125,-0.39453 0.42187,-1.17969 0.42187,-2.35938 0,-1.17578 -0.14062,-1.95703 -0.42187,-2.34375 -0.27344,-0.38281 -0.61719,-0.57812 -1.03125,-0.57812 -0.39844,0 -0.71875,0.16797 -0.96875,0.5 -0.30469,0.4375 -0.45313,1.24609 -0.45313,2.42187 z m 0,0"
       id="path5552" />
    <path
       style="fill:#ffffff;fill-opacity:1;fill-rule:nonzero;stroke:none"
       d="m 233.38672,107.80078 c 0,-0.84375 0.082,-1.51953 0.25,-2.03125 0.17578,-0.51953 0.4375,-0.92187 0.78125,-1.20312 0.34375,-0.28125 0.77344,-0.42188 1.29687,-0.42188 0.38282,0 0.71875,0.0781 1,0.23438 0.28907,0.15625 0.53125,0.38281 0.71875,0.67187 0.19532,0.29297 0.34766,0.64844 0.45313,1.0625 0.10156,0.41797 0.15625,0.98047 0.15625,1.6875 0,0.84375 -0.0898,1.52735 -0.26563,2.04688 -0.16797,0.51172 -0.42187,0.90625 -0.76562,1.1875 -0.34375,0.28125 -0.77735,0.42187 -1.29688,0.42187 -0.6875,0 -1.23047,-0.25 -1.625,-0.75 -0.46875,-0.59375 -0.70312,-1.5625 -0.70312,-2.90625 z m 0.89062,0 c 0,1.17969 0.13282,1.96485 0.40625,2.35938 0.28125,0.38672 0.625,0.57812 1.03125,0.57812 0.40625,0 0.74219,-0.1914 1.01563,-0.57812 0.28125,-0.39453 0.42187,-1.17969 0.42187,-2.35938 0,-1.17578 -0.14062,-1.95703 -0.42187,-2.34375 -0.27344,-0.38281 -0.61719,-0.57812 -1.03125,-0.57812 -0.39844,0 -0.71875,0.16797 -0.96875,0.5 -0.30469,0.4375 -0.45313,1.24609 -0.45313,2.42187 z m 0,0"
       id="path5554" />
    <path
       style="fill:#ffffff;fill-opacity:1;fill-rule:nonzero;stroke:none"
       d="m 251.25781,107.45703 c -0.36719,-0.13281 -0.63672,-0.32812 -0.8125,-0.57812 -0.17969,-0.25 -0.26562,-0.54688 -0.26562,-0.89063 0,-0.51953 0.1875,-0.95703 0.5625,-1.3125 0.375,-0.35156 0.875,-0.53125 1.5,-0.53125 0.625,0 1.125,0.1836 1.5,0.54688 0.38281,0.36718 0.57812,0.80859 0.57812,1.32812 0,0.33594 -0.0898,0.625 -0.26562,0.875 -0.16797,0.24219 -0.42969,0.42969 -0.78125,0.5625 0.4375,0.13672 0.76953,0.36719 1,0.6875 0.22656,0.32422 0.34375,0.70313 0.34375,1.14063 0,0.61718 -0.21875,1.13281 -0.65625,1.54687 -0.42969,0.41797 -0.9961,0.625 -1.70313,0.625 -0.71094,0 -1.28125,-0.20703 -1.71875,-0.625 -0.42969,-0.42578 -0.64062,-0.95312 -0.64062,-1.57812 0,-0.45703 0.11328,-0.84375 0.34375,-1.15625 0.23828,-0.32032 0.57812,-0.53516 1.01562,-0.64063 z m -0.17187,-1.5 c 0,0.34375 0.10937,0.625 0.32812,0.84375 0.21875,0.21094 0.5,0.3125 0.84375,0.3125 0.34375,0 0.61719,-0.10156 0.82813,-0.3125 0.21875,-0.21875 0.32812,-0.48437 0.32812,-0.79687 0,-0.32032 -0.11719,-0.59375 -0.34375,-0.8125 -0.21875,-0.21875 -0.49219,-0.32813 -0.8125,-0.32813 -0.34375,0 -0.625,0.10938 -0.84375,0.32813 -0.21875,0.21093 -0.32812,0.46484 -0.32812,0.76562 z m -0.28125,3.3125 c 0,0.25 0.0547,0.4961 0.17187,0.73438 0.125,0.23047 0.30078,0.41406 0.53125,0.54687 0.23828,0.125 0.49219,0.1875 0.76563,0.1875 0.41406,0 0.75781,-0.13281 1.03125,-0.40625 0.26953,-0.26953 0.40625,-0.61328 0.40625,-1.03125 0,-0.42578 -0.14063,-0.77344 -0.42188,-1.04687 -0.28125,-0.28125 -0.63281,-0.42188 -1.04687,-0.42188 -0.41797,0 -0.76172,0.13672 -1.03125,0.40625 -0.27344,0.27344 -0.40625,0.61719 -0.40625,1.03125 z m 0,0"
       id="path5556" />
    <path
       style="fill:#ffffff;fill-opacity:1;fill-rule:nonzero;stroke:none"
       d="m 255.23437,107.80078 c 0,-0.84375 0.082,-1.51953 0.25,-2.03125 0.17579,-0.51953 0.4375,-0.92187 0.78125,-1.20312 0.34375,-0.28125 0.77344,-0.42188 1.29688,-0.42188 0.38281,0 0.71875,0.0781 1,0.23438 0.28906,0.15625 0.53125,0.38281 0.71875,0.67187 0.19531,0.29297 0.34766,0.64844 0.45312,1.0625 0.10157,0.41797 0.15625,0.98047 0.15625,1.6875 0,0.84375 -0.0898,1.52735 -0.26562,2.04688 -0.16797,0.51172 -0.42188,0.90625 -0.76563,1.1875 -0.34375,0.28125 -0.77734,0.42187 -1.29687,0.42187 -0.6875,0 -1.23047,-0.25 -1.625,-0.75 -0.46875,-0.59375 -0.70313,-1.5625 -0.70313,-2.90625 z m 0.89063,0 c 0,1.17969 0.13281,1.96485 0.40625,2.35938 0.28125,0.38672 0.625,0.57812 1.03125,0.57812 0.40625,0 0.74219,-0.1914 1.01562,-0.57812 0.28125,-0.39453 0.42188,-1.17969 0.42188,-2.35938 0,-1.17578 -0.14063,-1.95703 -0.42188,-2.34375 -0.27343,-0.38281 -0.61718,-0.57812 -1.03125,-0.57812 -0.39843,0 -0.71875,0.16797 -0.96875,0.5 -0.30468,0.4375 -0.45312,1.24609 -0.45312,2.42187 z m 0,0"
       id="path5558" />
    <path
       style="clip-rule:nonzero;fill:#ffffff;fill-opacity:1;fill-rule:nonzero;stroke:none"
       d="m 260.55859,107.80078 c 0,-0.84375 0.082,-1.51953 0.25,-2.03125 0.17578,-0.51953 0.4375,-0.92187 0.78125,-1.20312 0.34375,-0.28125 0.77344,-0.42188 1.29688,-0.42188 0.38281,0 0.71875,0.0781 1,0.23438 0.28906,0.15625 0.53125,0.38281 0.71875,0.67187 0.19531,0.29297 0.34765,0.64844 0.45312,1.0625 0.10157,0.41797 0.15625,0.98047 0.15625,1.6875 0,0.84375 -0.0898,1.52735 -0.26562,2.04688 -0.16797,0.51172 -0.42188,0.90625 -0.76563,1.1875 -0.34375,0.28125 -0.77734,0.42187 -1.29687,0.42187 -0.6875,0 -1.23047,-0.25 -1.625,-0.75 -0.46875,-0.59375 -0.70313,-1.5625 -0.70313,-2.90625 z m 0.89063,0 c 0,1.17969 0.13281,1.96485 0.40625,2.35938 0.28125,0.38672 0.625,0.57812 1.03125,0.57812 0.40625,0 0.74219,-0.1914 1.01562,-0.57812 0.28125,-0.39453 0.42188,-1.17969 0.42188,-2.35938 0,-1.17578 -0.14063,-1.95703 -0.42188,-2.34375 -0.27343,-0.38281 -0.61718,-0.57812 -1.03125,-0.57812 -0.39843,0 -0.71875,0.16797 -0.96875,0.5 -0.30468,0.4375 -0.45312,1.24609 -0.45312,2.42187 z m 0,0"
       id="path5560"
       clip-path="url(#clipPath8260)" />
    <path
       style="fill:#ffffff;fill-opacity:1;fill-rule:nonzero;stroke:none"
       d="M 202.35547,18.078125 203.24609,18 c 0.0391,0.355469 0.14063,0.648438 0.29688,0.875 0.15625,0.230469 0.39453,0.417969 0.71875,0.5625 0.32031,0.136719 0.6875,0.203125 1.09375,0.203125 0.36328,0 0.67969,-0.05078 0.95312,-0.15625 0.28125,-0.101563 0.48828,-0.25 0.625,-0.4375 0.13282,-0.1875 0.20313,-0.390625 0.20313,-0.609375 0,-0.226562 -0.0703,-0.425781 -0.20313,-0.59375 -0.125,-0.164062 -0.33984,-0.304688 -0.64062,-0.421875 -0.1875,-0.07031 -0.60938,-0.1875 -1.26563,-0.34375 -0.65625,-0.164063 -1.12109,-0.316406 -1.39062,-0.453125 -0.34375,-0.175781 -0.60156,-0.394531 -0.76563,-0.65625 -0.16797,-0.269531 -0.25,-0.570312 -0.25,-0.90625 0,-0.351562 0.10157,-0.6875 0.3125,-1 0.20703,-0.320312 0.50391,-0.5625 0.89063,-0.71875 0.39453,-0.164062 0.83594,-0.25 1.32812,-0.25 0.51953,0 0.98438,0.08984 1.39063,0.265625 0.40625,0.167969 0.71875,0.417969 0.9375,0.75 0.21875,0.335937 0.33594,0.710937 0.35937,1.125 l -0.90625,0.0625 c -0.0547,-0.445313 -0.21875,-0.785156 -0.5,-1.015625 -0.28125,-0.238281 -0.69922,-0.359375 -1.25,-0.359375 -0.57422,0 -0.99218,0.109375 -1.25,0.328125 -0.26172,0.210938 -0.39062,0.460938 -0.39062,0.75 0,0.261719 0.0937,0.476562 0.28125,0.640625 0.17578,0.167969 0.64844,0.339844 1.42187,0.515625 0.76953,0.167969 1.29688,0.320312 1.57813,0.453125 0.41406,0.1875 0.72265,0.433594 0.92187,0.734375 0.19532,0.292969 0.29688,0.632812 0.29688,1.015625 0,0.375 -0.10938,0.734375 -0.32813,1.078125 -0.21093,0.335938 -0.52343,0.59375 -0.9375,0.78125 -0.40625,0.1875 -0.86718,0.28125 -1.375,0.28125 -0.64843,0 -1.1875,-0.09375 -1.625,-0.28125 -0.4375,-0.1875 -0.78125,-0.46875 -1.03125,-0.84375 -0.25,-0.382812 -0.38281,-0.816406 -0.39062,-1.296875 z m 0,0"
       id="path5564" />
    <path
       style="fill:#ffffff;fill-opacity:1;fill-rule:nonzero;stroke:none"
       d="m 209.05078,20.375 v -7.15625 h 0.96875 l 3.76563,5.625 v -5.625 h 0.90625 V 20.375 h -0.96875 l -3.76563,-5.625 v 5.625 z m 0,0"
       id="path5566" />
    <path
       style="fill:#ffffff;fill-opacity:1;fill-rule:nonzero;stroke:none"
       d="m 215.97656,20.375 v -7.15625 h 3.17188 c 0.64453,0 1.1289,0.07031 1.45312,0.203125 0.33203,0.125 0.59766,0.351563 0.79688,0.671875 0.20703,0.324219 0.3125,0.683594 0.3125,1.078125 0,0.511719 -0.16797,0.9375 -0.5,1.28125 -0.33594,0.34375 -0.83985,0.570313 -1.51563,0.671875 0.25,0.117188 0.4375,0.230469 0.5625,0.34375 0.28125,0.261719 0.53906,0.578125 0.78125,0.953125 l 1.25,1.953125 h -1.1875 l -0.95312,-1.484375 c -0.27344,-0.4375 -0.5,-0.765625 -0.6875,-0.984375 -0.17969,-0.226562 -0.33985,-0.390625 -0.48438,-0.484375 -0.13672,-0.09375 -0.27734,-0.15625 -0.42187,-0.1875 -0.10547,-0.01953 -0.28125,-0.03125 -0.53125,-0.03125 h -1.09375 V 20.375 Z m 0.95313,-4 h 2.03125 c 0.4375,0 0.77343,-0.03906 1.01562,-0.125 0.25,-0.09375 0.4375,-0.238281 0.5625,-0.4375 0.125,-0.195312 0.1875,-0.410156 0.1875,-0.640625 0,-0.34375 -0.125,-0.625 -0.375,-0.84375 C 220.10937,14.109375 219.72656,14 219.19531,14 h -2.26562 z m 0,0"
       id="path5568" />
    <path
       style="fill:#ffffff;fill-opacity:1;fill-rule:nonzero;stroke:none"
       d="m 223.00781,16.1875 v -1 h 1 v 1 z m 0,4.1875 v -1 h 1 v 1 z m 0,0"
       id="path5570" />
    <path
       style="fill:#ffffff;fill-opacity:1;fill-rule:nonzero;stroke:none"
       d="m 229.17187,16.5 c -0.36718,-0.132812 -0.63671,-0.328125 -0.8125,-0.578125 -0.17968,-0.25 -0.26562,-0.546875 -0.26562,-0.890625 0,-0.519531 0.1875,-0.957031 0.5625,-1.3125 0.375,-0.351562 0.875,-0.53125 1.5,-0.53125 0.625,0 1.125,0.183594 1.5,0.546875 0.38281,0.367187 0.57812,0.808594 0.57812,1.328125 0,0.335938 -0.0898,0.625 -0.26562,0.875 -0.16797,0.242188 -0.42969,0.429688 -0.78125,0.5625 0.4375,0.136719 0.76953,0.367188 1,0.6875 0.22656,0.324219 0.34375,0.703125 0.34375,1.140625 0,0.617187 -0.21875,1.132813 -0.65625,1.546875 -0.42969,0.417969 -0.99609,0.625 -1.70313,0.625 -0.71093,0 -1.28125,-0.207031 -1.71875,-0.625 -0.42968,-0.425781 -0.64062,-0.953125 -0.64062,-1.578125 0,-0.457031 0.11328,-0.84375 0.34375,-1.15625 0.23828,-0.320313 0.57812,-0.535156 1.01562,-0.640625 z M 229,15 c 0,0.34375 0.10937,0.625 0.32812,0.84375 0.21875,0.210938 0.5,0.3125 0.84375,0.3125 0.34375,0 0.61719,-0.101562 0.82813,-0.3125 0.21875,-0.21875 0.32812,-0.484375 0.32812,-0.796875 0,-0.320313 -0.11718,-0.59375 -0.34375,-0.8125 -0.21875,-0.21875 -0.49218,-0.328125 -0.8125,-0.328125 -0.34375,0 -0.625,0.109375 -0.84375,0.328125 C 229.10937,14.445312 229,14.699219 229,15 Z m -0.28125,3.3125 c 0,0.25 0.0547,0.496094 0.17187,0.734375 0.125,0.230469 0.30079,0.414063 0.53125,0.546875 0.23829,0.125 0.49219,0.1875 0.76563,0.1875 0.41406,0 0.75781,-0.132812 1.03125,-0.40625 0.26953,-0.269531 0.40625,-0.613281 0.40625,-1.03125 0,-0.425781 -0.14063,-0.773438 -0.42188,-1.046875 -0.28125,-0.28125 -0.63281,-0.421875 -1.04687,-0.421875 -0.41797,0 -0.76172,0.136719 -1.03125,0.40625 -0.27344,0.273438 -0.40625,0.617188 -0.40625,1.03125 z m 0,0"
       id="path5572" />
    <path
       style="fill:#ffffff;fill-opacity:1;fill-rule:nonzero;stroke:none"
       d="m 233.14844,18.5 0.92187,-0.07813 c 0.0625,0.449219 0.21875,0.789063 0.46875,1.015625 0.25,0.230469 0.55078,0.34375 0.90625,0.34375 0.41406,0 0.76953,-0.160156 1.0625,-0.484375 0.30078,-0.320313 0.45313,-0.742187 0.45313,-1.265625 0,-0.5 -0.14063,-0.894531 -0.42188,-1.1875 -0.28125,-0.289062 -0.65234,-0.4375 -1.10937,-0.4375 -0.28125,0 -0.53907,0.07031 -0.76563,0.203125 -0.23047,0.125 -0.41406,0.289063 -0.54687,0.484375 l -0.8125,-0.109375 0.6875,-3.671875 h 3.5625 v 0.84375 h -2.85938 l -0.39062,1.921875 c 0.4375,-0.300781 0.89062,-0.453125 1.35937,-0.453125 0.625,0 1.14844,0.21875 1.57813,0.65625 0.42578,0.429688 0.64062,0.984375 0.64062,1.671875 0,0.648437 -0.1875,1.203125 -0.5625,1.671875 -0.46094,0.585938 -1.08594,0.875 -1.875,0.875 -0.65625,0 -1.19531,-0.179688 -1.60937,-0.546875 -0.40625,-0.363281 -0.63672,-0.847656 -0.6875,-1.453125 z m 0,0"
       id="path5574" />
    <path
       style="fill:#ffffff;fill-opacity:1;fill-rule:nonzero;stroke:none"
       d="m 244.73047,20.375 v -0.65625 c -0.33594,0.523438 -0.82031,0.78125 -1.45313,0.78125 -0.41797,0 -0.80468,-0.117188 -1.15625,-0.34375 -0.34375,-0.226562 -0.60937,-0.546875 -0.79687,-0.953125 -0.1875,-0.414063 -0.28125,-0.890625 -0.28125,-1.421875 0,-0.507812 0.082,-0.972656 0.25,-1.390625 0.17578,-0.425781 0.4375,-0.75 0.78125,-0.96875 0.34375,-0.226563 0.72656,-0.34375 1.15625,-0.34375 0.3125,0 0.58594,0.07031 0.82812,0.203125 0.25,0.125 0.45313,0.292969 0.60938,0.5 v -2.5625 h 0.875 V 20.375 Z m -2.78125,-2.59375 c 0,0.667969 0.13281,1.167969 0.40625,1.5 0.28125,0.324219 0.61328,0.484375 1,0.484375 0.38281,0 0.70703,-0.15625 0.96875,-0.46875 0.26953,-0.3125 0.40625,-0.789063 0.40625,-1.4375 0,-0.707031 -0.13672,-1.226563 -0.40625,-1.5625 -0.27344,-0.332031 -0.60547,-0.5 -1,-0.5 -0.39844,0 -0.72656,0.164063 -0.98438,0.484375 -0.26172,0.3125 -0.39062,0.8125 -0.39062,1.5 z m 0,0"
       id="path5576" />
    <path
       style="fill:#ffffff;fill-opacity:1;fill-rule:nonzero;stroke:none"
       d="m 246.75391,20.375 v -7.15625 h 2.6875 c 0.53906,0 0.97656,0.07422 1.3125,0.21875 0.33203,0.148438 0.59375,0.371094 0.78125,0.671875 0.1875,0.292969 0.28125,0.605469 0.28125,0.9375 0,0.304687 -0.0859,0.589844 -0.25,0.859375 -0.16797,0.273438 -0.41797,0.492188 -0.75,0.65625 0.42578,0.125 0.7539,0.34375 0.98437,0.65625 0.23828,0.304688 0.35938,0.664062 0.35938,1.078125 0,0.335937 -0.0742,0.648437 -0.21875,0.9375 -0.13672,0.292969 -0.3086,0.515625 -0.51563,0.671875 -0.21094,0.15625 -0.47656,0.277344 -0.79687,0.359375 -0.3125,0.07422 -0.69532,0.109375 -1.14063,0.109375 z m 0.95312,-4.15625 h 1.54688 c 0.41406,0 0.71093,-0.02344 0.89062,-0.07813 0.25,-0.07031 0.42969,-0.191406 0.54688,-0.359375 0.125,-0.164062 0.1875,-0.375 0.1875,-0.625 0,-0.238281 -0.0586,-0.445312 -0.17188,-0.625 -0.11719,-0.175781 -0.28125,-0.296875 -0.5,-0.359375 -0.21094,-0.07031 -0.57031,-0.109375 -1.07812,-0.109375 h -1.42188 z m 0,3.3125 h 1.78125 c 0.30078,0 0.51563,-0.0078 0.64063,-0.03125 0.21875,-0.03906 0.39843,-0.109375 0.54687,-0.203125 0.14453,-0.09375 0.26563,-0.222656 0.35938,-0.390625 0.0937,-0.175781 0.14062,-0.378906 0.14062,-0.609375 0,-0.257813 -0.0703,-0.488281 -0.20312,-0.6875 -0.13672,-0.195313 -0.32813,-0.335937 -0.57813,-0.421875 -0.24219,-0.08203 -0.58984,-0.125 -1.04687,-0.125 h -1.64063 z m 0,0"
       id="path5578" />
  </g>
  <sodipodi:namedview
     id="namedview5583"
     pagecolor="#505050"
     bordercolor="#eeeeee"
     borderopacity="1"
     inkscape:showpageshadow="0"
     inkscape:pageopacity="0"
     inkscape:pagecheckerboard="0"
     inkscape:deskcolor="#505050"
     inkscape:document-units="pt"
     showgrid="false"
     inkscape:zoom="3.4740622"
     inkscape:cx="176.73834"
     inkscape:cy="85.202849"
     inkscape:window-width="1920"
     inkscape:window-height="1027"
     inkscape:window-x="-8"
     inkscape:window-y="-8"
     inkscape:window-maximized="1"
     inkscape:current-layer="svg5581" />
  <defs
     id="defs5338">
    <clipPath
       clipPathUnits="userSpaceOnUse"
       id="clipPath8212">
      <path
         d="M 39,0 H 265.10937 V 2 H 39 Z m 0,0"
         id="path8214"
         style="stroke-width:0.999998" />
    </clipPath>
    <clipPath
       clipPathUnits="userSpaceOnUse"
       id="clipPath8218">
      <path
         d="M 39,99.999998 H 265.10937 V 103 H 39 Z m 0,0"
         id="path8220"
         style="stroke-width:0.999998" />
    </clipPath>
    <clipPath
       clipPathUnits="userSpaceOnUse"
       id="clipPath8224">
      <path
         d="M 39,99.999998 H 265.10937 V 102 H 39 Z m 0,0"
         id="path8226"
         style="stroke-width:0.999998" />
    </clipPath>
    <clipPath
       clipPathUnits="userSpaceOnUse"
       id="clipPath8230">
      <path
         d="m 151,120 h 5 v 7.70313 h -5 z m 0,0"
         id="path8232"
         style="stroke-width:0.999998" />
    </clipPath>
    <clipPath
       clipPathUnits="userSpaceOnUse"
       id="clipPath8236">
      <path
         d="m 158,118 h 3 v 9.70313 h -3 z m 0,0"
         id="path8238"
         style="stroke-width:0.999998" />
    </clipPath>
    <clipPath
       clipPathUnits="userSpaceOnUse"
       id="clipPath8242">
      <path
         d="m 263,0 h 2.10937 V 103 H 263 Z m 0,0"
         id="path8244"
         style="stroke-width:0.999998" />
    </clipPath>
    <clipPath
       clipPathUnits="userSpaceOnUse"
       id="clipPath8248">
      <path
         d="m 125,120 h 5 v 7.70313 h -5 z m 0,0"
         id="path8250"
         style="stroke-width:0.999998" />
    </clipPath>
    <clipPath
       clipPathUnits="userSpaceOnUse"
       id="clipPath8254">
      <path
         d="m 172,118 h 3 v 9.70313 h -3 z m 0,0"
         id="path8256"
         style="stroke-width:0.999998" />
    </clipPath>
    <clipPath
       clipPathUnits="userSpaceOnUse"
       id="clipPath8260">
      <path
         d="m 260,104 h 5.10937 v 8 H 260 Z m 0,0"
         id="path8262"
         style="stroke-width:0.999998" />
    </clipPath>
  </defs>
  <path
     style="fill:none;stroke:#ffffff;stroke-width:0.8;stroke-linecap:butt;stroke-linejoin:round;stroke-miterlimit:10;stroke-opacity:1"
     d="m 39.925781,50.5625 0.273438,-1.203125 0.269531,2.089844 0.273438,3.535156 0.273437,5.074219 0.269531,6.824218 0.273438,9.359376 0.269531,11.785156 0.273437,-0.972656 0.273438,6.214843 0.269531,-3.515625 0.273438,-3.996094 0.269531,-1.503906 0.273438,-0.566406 0.273437,-0.394531 0.269531,-0.484375 0.273438,-0.265625 0.269531,0.292969 0.273437,0.679687 0.273438,0.476563 0.269531,0.304687 0.273438,0.09375 0.269531,-0.496094 0.273438,-0.175781 0.273437,0.789062 0.269531,1.140626 0.273438,0.300781 0.269531,0.34375 0.273437,1.816406 0.273438,3.71875 0.269531,-3.914063 0.273438,-2.804687 0.269531,-0.488281 0.273438,1.214844 0.273437,1.703124 0.269531,-0.589843 0.273438,-1.472657 0.273437,-0.835937 0.269531,0.144531 0.273438,1.1875 0.269531,1.578125 0.273438,0.925781 0.273437,1.148438 0.269532,3.867188 0.273437,3.464843 0.269531,-5.726562 0.273438,-2.289063 0.273437,-2.25 0.269531,-1.425781 0.273438,-0.06641 0.269531,1.804687 0.273438,5.464844 0.273437,-4.191406 0.269532,-3.554688 0.273437,-1.574218 0.269531,-0.941407 0.273438,-0.792969 0.273437,-0.472656 0.269531,0.269532 0.273438,1.402343 0.269531,2.988281 0.273438,2.328126 0.273437,-2.328126 0.269532,-1.152343 0.273437,0.15625 0.269531,0.980469 0.273438,1.605468 0.273437,2.007813 0.269531,1.195312 0.273438,-0.132812 0.269531,-1.679688 0.273438,-3.351562 0.273437,-2.773438 0.269532,-1.683593 0.273437,-0.667969 0.269531,0.171875 0.273438,0.757812 0.273437,1.117188 0.269531,1.363281 0.273438,0.777344 0.269531,-0.960938 0.273438,-1.28125 0.273437,-0.714843 0.269532,-0.148438 0.273437,0.410156 0.269531,0.890625 0.273438,0.722657 0.273437,0.207031 0.269531,0.902343 0.273438,2.878907 0.273438,2.753906 0.269531,-3.828125 0.273437,-2.210938 0.269532,-1.261718 0.273437,-0.929688 0.273437,-0.628906 0.269532,-0.07031 0.273437,0.890624 0.269531,2.453126 0.273438,3.671874 0.273438,-3.035156 0.269531,-2.636718 0.273437,-1.1875 0.269532,-0.167969 0.273437,0.753906 0.273437,1.582031 0.269532,2.113282 0.273437,2.257812 0.269531,1.839844 0.273438,-0.867188 0.273438,-2.078125 0.269531,-1.382812 0.273437,-0.484375 0.269532,0.40625 0.273437,0.789062 0.273437,-0.300781 0.269532,-1.027344 0.273437,-0.847656 0.269531,-0.636719 0.273438,-0.101562 0.273438,0.761718 0.269531,0.871094 0.273437,-0.402344 0.269532,-0.664062 0.273437,-0.08594 0.273437,0.507813 0.269532,1.054687 0.273437,1.601563 0.269531,1.9375 L 75,87.992188 l 0.273438,-2.613282 0.269531,-1.644531 0.273437,-0.648437 0.269532,0.230468 0.273437,1.097656 0.273437,1.152344 0.269532,-0.101562 0.273437,-1.054688 0.269531,-1.382812 0.273438,-0.820313 0.273438,0.277344 0.269531,1.507813 0.273437,2.90625 0.273438,5.441406 0.269531,-1.484375 0.273437,-3.804688 0.269532,-1.582031 0.273437,-0.585938 0.273438,0.09375 0.269531,1.246094 0.273438,2.871094 0.269531,-3.6875 0.273437,-3.273438 0.273438,-1.179687 0.269531,0.199219 0.273437,1.1875 0.269532,1.765625 0.273437,1.261719 0.273438,-0.148438 0.269531,-0.242188 0.273438,0.632813 0.269531,1.929687 0.273437,3.332032 0.273438,0.04297 0.269531,-2.976562 0.273437,-1.695312 0.269532,-0.171876 0.273437,1.152344 0.273438,1.183594 0.269531,-0.257812 0.273438,-1.042969 0.269531,-2.332031 0.273437,-2.378907 0.273438,-1.511719 0.269531,-0.597656 0.273437,0.351563 0.269532,1.402343 0.273437,2.363282 0.273438,2.667968 0.269531,2.003907 0.273438,-1.0625 0.269531,-2.105469 0.273437,-0.804688 0.273438,0.453126 0.269531,1.0625 0.273437,-0.964844 0.269532,-2.332032 0.273437,-1.65625 0.273438,-1.121093 0.269531,-0.925781 0.273438,-0.636719 0.269531,-0.152344 0.273437,0.277344 0.273438,0.535156 0.269531,0.90625 0.273437,1.707031 0.273438,2.859375 0.269531,2.15625 0.273438,-2.390625 0.269531,-2.144531 0.273438,-1.023437 0.273437,0.128906 0.269531,1.554687 0.273438,3.726563 0.269531,4.816406 0.273437,-3.855469 L 95.9375,85.980469 96.207031,84.375 96.480469,82.660156 96.75,81.027344 l 0.273438,-1.210938 0.273437,-0.53125 0.269531,0.285156 0.273438,1.160157 0.269531,1.984375 0.273437,2 0.273438,-5.78125 0.269531,-14.617188 0.273438,-13.125 0.269531,-10.675781 0.273438,-8.578125 0.273442,-6.742188 0.26953,-5.101562 0.27343,-3.578125 0.26954,-2.136719 0.27343,-0.734375 0.27344,0.648438 0.26953,2.042969 0.27344,3.484374 0.26953,4.996094 0.27344,6.636719 0.27344,8.453125 0.26953,10.546875 0.27343,13.171875 0.26954,16.609375 0.27343,1.683594 0.27344,0.390625 0.26953,0.46875 0.27344,0.773437 0.26953,0.953125 0.27344,1.042969 0.27344,1.097656 0.26953,0.53125 0.27343,0.222657 0.26954,0.855468 0.27343,1.8125 0.27344,0.921875 0.26953,-2.902343 0.27344,-2.566407 0.27344,-1.285156 0.26953,-0.191406 0.27344,0.105469 0.26953,-1.390626 0.27343,-2.40625 0.27344,-1.910156 0.26953,-1.078125 0.27344,-0.3125 0.26953,0.246094 0.27344,0.46875 0.27344,0.371094 0.26953,0.191406 0.27344,0.230469 0.26953,0.664062 0.27343,1.523438 0.27344,2.777344 0.26953,2.855468 0.27344,-0.925781 0.26953,-1.183594 0.27344,-0.351562 0.27344,-0.03906 0.26953,-0.382812 0.27344,-0.476563 0.26953,-0.15625 0.27343,0.246094 0.27344,0.5625 0.26953,0.574219 0.27344,0.382812 0.26953,-0.01563 0.27344,-0.0078 0.27344,0.894531 0.26953,2.042969 0.27344,-0.01172 0.26953,-1.847656 0.27343,-0.523438 0.27344,0.519532 0.26953,0.855468 0.27344,0.972656 0.26953,2.070313 0.27344,10.140625 L 118.50391,89 l 0.26953,-4.644531 0.27344,-2.324219 0.26953,-1.015625 0.27343,0.08984 0.27344,1.230469 0.26953,2.59375 0.27344,3.441406 0.26953,0.316406 0.27344,0.636719 0.27344,4.453125 0.26953,-3.382813 0.27344,-3.125 0.27343,0.488281 0.26953,4.199219 0.27344,-4.484375 0.26953,-3.304687 0.27344,-1.304688 0.27344,-0.152343 0.26953,0.671874 0.27344,0.570313 0.26953,-0.457031 0.27344,-0.378906 0.27343,0.464843 0.26953,1.140625 0.27344,1.226563 0.26953,0.945312 0.27344,-0.02734 0.27344,-0.976563 0.26953,-0.414063 0.27344,0.917969 0.26953,2.976563 0.27344,3.539062 0.27343,-2.609375 0.26953,-0.738281 0.27344,-2.351562 0.26953,-3.054688 0.27344,-1.425781 0.27344,0.230469 0.26953,1.703124 0.27344,2.445313 0.26953,-0.203125 0.27343,-2.574219 0.27344,-1.78125 0.26953,-1.066406 0.27344,-1.070313 0.26953,-0.972656 0.27344,-0.398437 0.27344,0.300781 0.26953,0.882812 0.27344,1.292969 0.26953,1.84375 0.27343,2.773438 0.27344,2.082031 0.26953,-0.410156 0.27344,0.01953 0.26953,0.121094 L 134,87.71875 l 0.27344,-1.132812 0.26953,-2.175782 0.27344,-1.496094 0.27343,-0.285156 0.26953,0.71875 0.27344,1.1875 0.26953,1.128906 0.27344,-0.328124 0.27344,-1.808594 0.26953,-1.28125 0.27344,-0.539063 0.26953,-0.05859 0.27344,0.359374 0.27343,1.050782 0.26953,1.820312 0.27344,-0.644531 0.26953,-2.605469 0.27344,-1.222656 0.27344,0.367188 0.26953,1.941406 0.27344,2.578125 0.26953,-0.125 0.27344,-0.03125 0.27343,1.378906 0.26953,-1.386719 0.27344,-2.375 0.26953,-0.875 0.27344,0.824219 0.27344,3.476563 0.26953,6.378906 0.27344,-6.847656 0.26953,-1.433594 0.27344,0.878906 0.27343,3.285156 0.26953,2.90625 0.27344,-4.511718 0.26953,-2.589844 0.27344,-1.878906 0.27344,-1.550782 0.26953,-1.007812 0.27344,-0.0625 0.26953,1.238281 0.27344,2.234375 0.27343,0.105469 0.26953,-1.269531 0.27344,-0.207032 0.26953,0.933594 0.27344,2.019531 0.27344,3.195313 0.26953,3.195312 0.27344,-1.207031 0.26953,-1.65625 0.27344,-1.207031 0.27343,-1.996094 0.26953,-2.246094 0.27344,-1.382812 0.27344,-0.160156 0.26953,1.3125 0.27344,1.9375 0.26953,-2.476563 0.27344,-2.140625 0.27343,0.08203 0.26954,3.019531 0.27343,4.542969 0.26953,-5.574219 0.27344,-1.851562 0.27344,-0.589844 0.26953,-0.199218 0.27344,0.210937 0.26953,0.96875 0.27344,1.839844 0.27343,1.480469 0.26954,-0.242188 0.27343,0.273438 0.26953,2.039062 0.27344,0.472656 0.27344,-3.167968 0.26953,-2.039063 0.27344,-0.933594 0.26953,0.0039 0.27344,0.910156 0.27343,1.820312 0.26954,1.773438 0.27343,-1.265625 0.26953,-1.929688 0.27344,-1.0625 0.27344,-0.292969 0.26953,0.265626 0.27344,0.507812 0.26953,0.390625 0.27344,0.25 0.27343,0.429687 0.26954,1.019532 0.27343,1.503906 0.26953,-0.578125 0.27344,-2.238281 0.27344,-1.441406 0.26953,-0.398438 0.27344,0.605469 0.26953,1.550781 0.27344,2.054688 0.27343,0.230468 0.26954,-2.199218 0.27343,-0.851563 0.26953,1.488281 0.27344,5.070313 0.27344,-1.285157 0.26953,-3.601562 0.27344,-0.320312 0.27344,2.230468 0.26953,0.257813 0.27343,-1.503907 0.26954,1.710938 0.27343,9.003906 0.27344,-9.292968 0.26953,-2.644532 0.27344,-0.347656 0.26953,1.277344 0.27344,3.203125 0.27344,-0.207031 0.26953,-4.0625 0.27343,-2.230469 0.26954,-0.972657 0.27343,-0.125 0.27344,0.339844 0.26953,0.464844 0.27344,0.542969 0.26953,0.988281 0.27344,2.050781 0.27344,4.1875 0.26953,-0.941406 0.27343,-3.800781 0.26954,-1.441406 0.27343,0.257812 0.27344,1.296875 0.26953,0.171875 0.27344,-0.808594 0.26953,-0.582031 0.27344,-0.816406 0.27344,-0.753907 0.26953,-0.167968 0.27343,0.40625 0.26954,0.761718 0.27343,0.820313 0.27344,0.5625 0.26953,0.644531 0.27344,1.550782 0.26953,2.421874 0.27344,1.789063 0.27344,0.339844 0.26953,-1.378907 0.27343,-1.511718 0.26954,-0.703125 0.27343,0.449219 0.27344,2.453124 0.26953,3.824219 0.27344,-4.402343 0.26953,-2.332032 0.27344,-1.4375 0.27344,-1.433594 0.26953,-1.019531 0.27343,-0.28125 0.27344,-0.09375 0.26953,-0.859375 0.27344,-1.160156 0.26953,-0.605469 0.27344,0.285157 0.27344,1.449218 0.26953,3.367188 0.27344,4.148437 0.26953,-4.707031 0.27343,-2.347656 0.27344,-1.023438 0.26953,-0.351562 0.27344,0.03906 0.26953,0.01953 0.27344,-0.546876 0.27344,-0.925781 0.26953,-0.5625 0.27344,0.257813 0.26953,1.144531 0.27343,1.457031 0.27344,1.167969 0.26953,1.726563 0.27344,2.519531 0.26953,0.183593 0.27344,-1.441406 0.27344,-0.78125 0.26953,-0.230468 0.27344,-0.02734 0.26953,0.355468 0.27343,1.207032 0.27344,2.21875 0.26953,2.105468 0.27344,1.773438 0.26953,-0.253906 0.27344,-3.753906 0.27344,-1.925782 0.26953,-0.269531 0.27344,0.785156 0.26953,-1.042969 0.27343,-2.730468 0.27344,-1.859375 0.26953,-0.777344 0.27344,0.339844 0.26953,1.703125 0.27344,3.46875 0.27344,0.714844 0.26953,-3.507813 0.27344,-2.324219 0.26953,-1.574218 0.27343,-0.964844 0.27344,-0.167969 0.26953,0.980469 0.27344,2.546875 0.27344,2.457031 0.26953,-0.84375 0.27344,0.902344 0.26953,-0.796875 0.27344,-3.332031 0.27343,-1.488282 0.26953,-0.01953 0.27344,1.222656 0.26953,2.726563 0.27344,4.039062 0.27344,-1.230468 0.26953,-1.851563 0.27344,-0.574219 0.26953,-0.0625 0.27344,-0.03516 0.27343,0.0078 0.26953,0.515626 0.27344,1.640624 0.26953,3.382813 0.27344,1.148437 0.27344,-3.539062 0.26953,-2.464844 0.27344,-1.460937 0.26953,-0.753907 0.27344,-0.320312 0.27343,0.148438 0.26953,1.023437 0.27344,2.226563 0.26953,-0.01563 0.27344,-2.644531 0.27344,-1.242187 0.26953,0.09375 0.27344,0.96875 0.26953,1.148437 0.27344,0.511719 0.27343,-0.05078 0.26953,-0.355469 0.27344,-1.007812 0.26953,-1.089844 0.27344,-0.410156 0.27344,0.320312 0.26953,0.613281 0.27344,0.59375 0.26953,0.753907 0.27344,1.105468 0.27343,1.523438 0.26953,0.800781 0.27344,-1.878906 0.26953,-1.464844 0.27344,-0.265625 0.27344,0.08594 0.26953,-0.148438 0.27344,0.304688 0.27343,1.28125 0.26954,0.328124 0.27343,-1.808593 0.26953,-1.003907 0.27344,0.02344 0.27344,0.164062 0.26953,-0.414062 0.27344,-0.542969 0.26953,0.152344 0.27344,1.378906 0.27343,2.445313 0.26954,0.933594 0.27343,0.05859 0.26953,2.109375 0.27344,6.164063 0.27344,-4.589844 0.26953,-2.441406 0.27344,1.007812 0.26953,8.210938 0.27344,-9.164063 0.27343,-3.226562 0.26954,-0.04297 0.27343,2.902344 0.26953,-1.945313 0.27344,-3.296875 0.27344,-0.867187 0.26953,0.925781 0.27344,1.683594 0.26953,-1.570313 0.27344,-2.433594 0.27343,-1.25 0.26954,-0.09766 0.27343,0.835938 0.26953,1.234375 0.27344,0.710937 0.27344,0.125 0.26953,0.484375 0.27344,1.683594 0.26953,4.292969 0.27344,8.339844 0.27343,-8.785157 0.26954,-1.835937 0.27343,-0.605469 0.26953,-0.484375 0.27344,-0.523438 0.27344,-0.167968 0.26953,0.484375 0.27344,1.390625 0.26953,3.363281 0.27344,0.511719 0.27343,-5.707032 0.26954,-2.9375 0.27343,-1.566406 0.27344,-0.691406 0.26953,-0.01953 0.27344,0.667969 0.26953,1.609374 0.27344,3.222657 0.27344,6.136719 0.26953,-2.980469 0.27343,-2.003907 0.26954,0.113282 0.27343,1.558594 0.27344,1.773437 0.26953,-4.472656 0.27344,-2.773438 0.26953,-0.523437 0.27344,1.691406 0.27344,4.382812 0.26953,-3.28125 0.27343,-3.070312 0.26954,-1.082031 0.27343,0.105469 0.27344,0.855468 0.26953,1.082032 0.27344,0.808593 0.26953,0.328125 0.27344,-0.21875 0.27344,-0.644531 0.26953,-0.722656 0.27343,-0.53125 0.26954,-0.21875 0.27343,0.175781 0.27344,0.601562 0.26953,1.089844 0.27344,1.871094 0.26953,3.523438 0.27344,0.941406 0.27344,-4.714844 0.26953,-2.488281 0.27343,-1.210938 0.26954,-0.519531 0.27343,-0.199219 0.27344,-0.101562 0.26953,-0.261719 0.27344,-0.339844 0.26953,0.203125 0.27344,1.167969 0.27344,2.195312 0.26953,2.863282 0.27343,3.136718 0.27344,-0.01172 0.26953,-3.082032 0.27344,-2.152343 L 235.41406,80 l 0.27344,-0.378906 0.27344,0.371094 0.26953,0.789062 0.27344,1.1875 0.26953,1.964844 0.27343,4.167968 0.27344,6.085938 0.26953,-7.933594 0.27344,-1.410156 0.26953,-0.125 0.27344,-1.203125 0.27344,-1.230469 0.26953,-0.25 0.27344,0.601563 0.26953,0.894531 0.27343,0.410156 0.27344,0.03516 0.26953,0.558594 0.27344,1.207032 0.26953,0.253906 0.27344,-1.9375 0.27344,-2.394532 0.26953,-1.523437 0.27344,-0.480469 0.26953,0.234375 0.27343,0.652344 0.27344,1.4375 0.26953,4.675781 0.27344,0.234375 0.26953,-5.570312 0.27344,-1.167969 0.27344,0.660156 0.26953,1.089844 0.27344,0.08984 0.26953,-0.6875 0.27343,-0.4375 0.27344,0.07031 0.26953,0.53125 0.27344,1.269532 0.26953,3.339843 0.27344,1.898438 0.27344,-5.378907 0.26953,-1.273437 0.27344,1.585937 0.26953,5.695313 0.27343,-2.285156 0.27344,-3.226563 0.26953,-0.789062 0.27344,0.71875 0.27344,2.414062 0.26953,1.789063 0.27344,-3.578125 0.26953,-2.042969 0.27344,-0.457031 0.27343,0.855468 0.26953,2.234376 0.27344,3.914062 0.26953,4.914062 0.27344,1.570313 0.27344,-2.503906 0.26953,-5.945313 0.27344,-3.074218 0.26953,-1.109376 0.27344,0.339844 0.27343,1.492188 0.26953,1.449218 0.27344,-0.988281 0.26953,-1.40625 0.27344,-0.453125 0.27344,0.246094 0.26953,-0.582031 0.27344,-1.515625 0.26953,-0.871094 0.27344,0.136719 0.27343,1.015625 0.26953,1.757812 0.27344,2.339844 0.26953,1.117188 0.27344,-1.933594 0.27344,-1.761719 0.26953,-0.578125 0.27344,0.792969 0.26953,2.214843 0.27344,2.398438 0.27343,-0.191406 0.26953,-0.816406 0.27344,-0.05469 0.26953,0.457031 0.27344,-0.289062 0.27344,-0.859375 0.26953,-0.867188 0.27344,-1.128906 0.26953,-1.429688 0.27344,-1.515624 0.27343,-1.0625 0.26953,-0.265626 0.27344,0.410157 0.26953,0.605469 0.27344,0.210937 0.27344,-0.308594 0.26953,-0.28125 0.27344,0.199219 0.27343,0.464844 0.26954,-0.179688 0.27343,-1.277344 0.26953,-1.433593 0.27344,1.316406"
     id="path5340" />
  <path
     style="clip-rule:nonzero;fill:none;stroke:#ffffff;stroke-width:1.2;stroke-linecap:butt;stroke-linejoin:round;stroke-miterlimit:10;stroke-opacity:0.14902"
     d="M 264.50781,101.34766 H 39.925781"
     id="path5342"
     clip-path="url(#clipPath8224)" />
  <path
     style="clip-rule:nonzero;fill:none;stroke:#ffffff;stroke-width:1.2;stroke-linecap:square;stroke-linejoin:round;stroke-miterlimit:10;stroke-opacity:1"
     d="M 39.925781,101.34766 H 264.50781"
     id="path5346"
     clip-path="url(#clipPath8218)" />
  <path
     style="clip-rule:nonzero;fill:none;stroke:#ffffff;stroke-width:1.2;stroke-linecap:square;stroke-linejoin:round;stroke-miterlimit:10;stroke-opacity:1"
     d="M 39.925781,0.601562 H 264.50781"
     id="path5350"
     clip-path="url(#clipPath8212)" />
  <path
     style="fill:none;stroke:#ffffff;stroke-width:1.2;stroke-linecap:square;stroke-linejoin:round;stroke-miterlimit:10;stroke-opacity:1"
     d="M 67.121094,101.34766 V 97.746094"
     id="path5354" />
  <path
     style="fill:none;stroke:#ffffff;stroke-width:1.2;stroke-linecap:square;stroke-linejoin:round;stroke-miterlimit:10;stroke-opacity:1"
     d="M 94.3125,101.34766 V 97.746094"
     id="path5356" />
  <path
     style="fill:none;stroke:#ffffff;stroke-width:1.2;stroke-linecap:square;stroke-linejoin:round;stroke-miterlimit:10;stroke-opacity:1"
     d="M 121.50391,101.34766 V 97.746094"
     id="path5358" />
  <path
     style="fill:none;stroke:#ffffff;stroke-width:1.2;stroke-linecap:square;stroke-linejoin:round;stroke-miterlimit:10;stroke-opacity:1"
     d="M 148.69922,101.34766 V 97.746094"
     id="path5360" />
  <path
     style="fill:none;stroke:#ffffff;stroke-width:1.2;stroke-linecap:square;stroke-linejoin:round;stroke-miterlimit:10;stroke-opacity:1"
     d="M 175.89062,101.34766 V 97.746094"
     id="path5362" />
  <path
     style="fill:none;stroke:#ffffff;stroke-width:1.2;stroke-linecap:square;stroke-linejoin:round;stroke-miterlimit:10;stroke-opacity:1"
     d="M 203.08203,101.34766 V 97.746094"
     id="path5364" />
  <path
     style="fill:none;stroke:#ffffff;stroke-width:1.2;stroke-linecap:square;stroke-linejoin:round;stroke-miterlimit:10;stroke-opacity:1"
     d="M 230.27734,101.34766 V 97.746094"
     id="path5366" />
  <path
     style="fill:none;stroke:#ffffff;stroke-width:1.2;stroke-linecap:square;stroke-linejoin:round;stroke-miterlimit:10;stroke-opacity:1"
     d="M 257.46875,101.34766 V 97.746094"
     id="path5368" />
  <path
     style="fill:none;stroke:#ffffff;stroke-width:1.2;stroke-linecap:square;stroke-linejoin:round;stroke-miterlimit:10;stroke-opacity:1"
     d="M 39.925781,0.601562 V 2.773438"
     id="path5370" />
  <path
     style="fill:none;stroke:#ffffff;stroke-width:1.2;stroke-linecap:square;stroke-linejoin:round;stroke-miterlimit:10;stroke-opacity:1"
     d="M 67.121094,1.082031 V 4.683594"
     id="path5372" />
  <path
     style="fill:none;stroke:#ffffff;stroke-width:1.2;stroke-linecap:square;stroke-linejoin:round;stroke-miterlimit:10;stroke-opacity:1"
     d="M 94.3125,1.082031 V 4.683594"
     id="path5374" />
  <path
     style="fill:none;stroke:#ffffff;stroke-width:1.2;stroke-linecap:square;stroke-linejoin:round;stroke-miterlimit:10;stroke-opacity:1"
     d="M 121.50391,1.082031 V 4.683594"
     id="path5376" />
  <path
     style="fill:none;stroke:#ffffff;stroke-width:1.2;stroke-linecap:square;stroke-linejoin:round;stroke-miterlimit:10;stroke-opacity:1"
     d="M 148.69922,1.082031 V 4.683594"
     id="path5378" />
  <path
     style="fill:none;stroke:#ffffff;stroke-width:1.2;stroke-linecap:square;stroke-linejoin:round;stroke-miterlimit:10;stroke-opacity:1"
     d="M 175.89062,1.082031 V 4.683594"
     id="path5380" />
  <path
     style="fill:none;stroke:#ffffff;stroke-width:1.2;stroke-linecap:square;stroke-linejoin:round;stroke-miterlimit:10;stroke-opacity:1"
     d="M 203.08203,1.082031 V 4.683594"
     id="path5382" />
  <path
     style="fill:none;stroke:#ffffff;stroke-width:1.2;stroke-linecap:square;stroke-linejoin:round;stroke-miterlimit:10;stroke-opacity:1"
     d="M 230.27734,1.082031 V 4.683594"
     id="path5384" />
  <path
     style="fill:none;stroke:#ffffff;stroke-width:1.2;stroke-linecap:square;stroke-linejoin:round;stroke-miterlimit:10;stroke-opacity:1"
     d="M 257.46875,1.082031 V 4.683594"
     id="path5386" />
  <path
     style="fill:none;stroke:#ffffff;stroke-width:1.2;stroke-linecap:square;stroke-linejoin:round;stroke-miterlimit:10;stroke-opacity:1"
     d="M 39.925781,101.34766 V 0.601562"
     id="path5388" />
  <path
     style="clip-rule:nonzero;fill:none;stroke:#ffffff;stroke-width:1.2;stroke-linecap:square;stroke-linejoin:round;stroke-miterlimit:10;stroke-opacity:1"
     d="M 264.50781,101.34766 V 0.601562"
     id="path5390"
     clip-path="url(#clipPath8242)" />
  <path
     style="fill:none;stroke:#ffffff;stroke-width:1.2;stroke-linecap:square;stroke-linejoin:round;stroke-miterlimit:10;stroke-opacity:1"
     d="m 39.925781,69.863281 h 3.601563"
     id="path5394" />
  <path
     style="fill:none;stroke:#ffffff;stroke-width:1.2;stroke-linecap:square;stroke-linejoin:round;stroke-miterlimit:10;stroke-opacity:1"
     d="m 39.925781,38.378906 h 3.601563"
     id="path5396" />
  <path
     style="fill:none;stroke:#ffffff;stroke-width:1.2;stroke-linecap:square;stroke-linejoin:round;stroke-miterlimit:10;stroke-opacity:1"
     d="m 39.925781,6.898438 h 3.601563"
     id="path5398" />
  <path
     style="fill:none;stroke:#ffffff;stroke-width:1.2;stroke-linecap:square;stroke-linejoin:round;stroke-miterlimit:10;stroke-opacity:1"
     d="m 263.86328,69.863281 h -3.60156"
     id="path5400" />
  <path
     style="fill:none;stroke:#ffffff;stroke-width:1.2;stroke-linecap:square;stroke-linejoin:round;stroke-miterlimit:10;stroke-opacity:1"
     d="m 263.86328,38.378906 h -3.60156"
     id="path5402" />
  <path
     style="fill:none;stroke:#ffffff;stroke-width:1.2;stroke-linecap:square;stroke-linejoin:round;stroke-miterlimit:10;stroke-opacity:1"
     d="m 263.86328,6.898438 h -3.60156"
     id="path5404" />
  <path
     style="fill:none;stroke:#ffffff;stroke-width:1.2;stroke-linecap:square;stroke-linejoin:round;stroke-miterlimit:10;stroke-opacity:1"
     d="M 40.238281,86.042969 H 41.4375"
     id="path5406" />
  <path
     style="fill:none;stroke:#ffffff;stroke-width:1.2;stroke-linecap:square;stroke-linejoin:round;stroke-miterlimit:10;stroke-opacity:1"
     d="M 40.238281,54.558594 H 41.4375"
     id="path5408" />
  <path
     style="fill:none;stroke:#ffffff;stroke-width:1.2;stroke-linecap:square;stroke-linejoin:round;stroke-miterlimit:10;stroke-opacity:1"
     d="M 40.238281,23.074219 H 41.4375"
     id="path5410" />
  <path
     style="fill:none;stroke:#ffffff;stroke-width:1.2;stroke-linecap:square;stroke-linejoin:round;stroke-miterlimit:10;stroke-opacity:1"
     d="m 262.79297,86.113281 h 1.20312"
     id="path5412" />
  <path
     style="fill:none;stroke:#ffffff;stroke-width:1.2;stroke-linecap:square;stroke-linejoin:round;stroke-miterlimit:10;stroke-opacity:1"
     d="m 262.79297,54.628906 h 1.20312"
     id="path5414" />
  <path
     style="fill:none;stroke:#ffffff;stroke-width:1.2;stroke-linecap:square;stroke-linejoin:round;stroke-miterlimit:10;stroke-opacity:1"
     d="m 262.79297,23.144531 h 1.20312"
     id="path5416" />
</svg>
