<?xml version="1.0" encoding="UTF-8" standalone="no"?>
<svg
   width="144.549149pt"
   height="80.857475pt"
   viewBox="0 0 144.549149 80.857475"
   version="1.1"
   id="svg13008"
   sodipodi:docname="cal_tran.svg"
   inkscape:version="1.2 (dc2aedaf03, 2022-05-15)"
   xmlns:inkscape="http://www.inkscape.org/namespaces/inkscape"
   xmlns:sodipodi="http://sodipodi.sourceforge.net/DTD/sodipodi-0.dtd"
   xmlns="http://www.w3.org/2000/svg"
   xmlns:svg="http://www.w3.org/2000/svg">
  <sodipodi:namedview
     id="namedview13010"
     pagecolor="#505050"
     bordercolor="#eeeeee"
     borderopacity="1"
     inkscape:showpageshadow="0"
     inkscape:pageopacity="0"
     inkscape:pagecheckerboard="0"
     inkscape:deskcolor="#505050"
     inkscape:document-units="pt"
     showgrid="false"
     inkscape:zoom="11.688977"
     inkscape:cx="88.288309"
     inkscape:cy="70.36544"
     inkscape:window-width="3840"
     inkscape:window-height="2080"
     inkscape:window-x="-11"
     inkscape:window-y="-11"
     inkscape:window-maximized="1"
     inkscape:current-layer="svg13008" />
  <defs
     id="defs12867">
    <clipPath
       id="clip1">
      <path
         d="M 18 52 L 58 52 L 58 80.859375 L 18 80.859375 Z M 18 52 "
         id="path12849" />
    </clipPath>
    <clipPath
       id="clip2">
      <path
         d="M 123 57 L 144.550781 57 L 144.550781 77 L 123 77 Z M 123 57 "
         id="path12852" />
    </clipPath>
    <clipPath
       id="clip3">
      <path
         d="M 133 76 L 138 76 L 138 80.859375 L 133 80.859375 Z M 133 76 "
         id="path12855" />
    </clipPath>
    <clipPath
       id="clip4">
      <path
         d="M 137 76 L 141 76 L 141 80.859375 L 137 80.859375 Z M 137 76 "
         id="path12858" />
    </clipPath>
    <clipPath
       id="clip5">
      <path
         d="M 141 76 L 144.550781 76 L 144.550781 80.859375 L 141 80.859375 Z M 141 76 "
         id="path12861" />
    </clipPath>
    <clipPath
       id="clip6">
      <path
         d="M 102 53 L 129 53 L 129 80.859375 L 102 80.859375 Z M 102 53 "
         id="path12864" />
    </clipPath>
  </defs>
  <path
     style="fill:none;stroke:#ffffff;stroke-width:1.2;stroke-linecap:butt;stroke-linejoin:miter;stroke-miterlimit:4;stroke-opacity:1"
     d="m 130.25391,67.089844 -8.58668,0"
     id="path12869"
     sodipodi:nodetypes="cc" />
  <path
     style="fill:none;stroke:#ffffff;stroke-width:1.2;stroke-linecap:butt;stroke-linejoin:miter;stroke-miterlimit:4;stroke-opacity:1"
     d="M 115.36719,57.703125 V 44.751364 m 0,-8.997458 V 22.585938 m -9.53906,-7.707032 H 81.914062 m -25.034345,0 -6.85571,10e-7"
     id="path12871"
     sodipodi:nodetypes="cccccccc" />
  <path
     style="fill:none;stroke:#ffffff;stroke-width:1.2;stroke-linecap:butt;stroke-linejoin:miter;stroke-miterlimit:4;stroke-opacity:1"
     d="m 43.753906,25.554688 v 10.046874 l 25.132813,-0.02734 -0.02442,7.978515 m -0.04883,9.508648 -0.02442,14.426899"
     id="path12873"
     sodipodi:nodetypes="cccccc" />
  <path
     style="fill:none;stroke:#ffffff;stroke-width:1.2;stroke-linecap:butt;stroke-linejoin:miter;stroke-miterlimit:4;stroke-opacity:1"
     d="m 104.46094,67.011719 -11.479603,0.0063 m -9.246962,0.01269 -21.24414,0.0063 -12.033204,0.0063 m -24.930762,0.01269 -5.006738,0.0063 V 14.878906"
     id="path12875"
     sodipodi:nodetypes="cccccccc" />
  <path
     style="fill:none;stroke:#ffffff;stroke-width:1.02107;stroke-linecap:butt;stroke-linejoin:miter;stroke-miterlimit:4;stroke-opacity:1"
     d="M 32.824219,14.828125 H 12.718755"
     id="path12877" />
  <path
     style="fill:none;fill-opacity:1;fill-rule:nonzero;stroke:#ffffff;stroke-width:1.2;stroke-linecap:butt;stroke-linejoin:miter;stroke-miterlimit:4;stroke-opacity:1"
     d="m 50.027344,14.671875 c 0,3.484375 -2.828125,6.3125 -6.316406,6.3125 -3.484376,0 -6.3125,-2.828125 -6.3125,-6.3125 0,-3.488281 2.828124,-6.316406 6.3125,-6.316406 3.488281,0 6.316406,2.828125 6.316406,6.316406 z m 0,0"
     id="path12879" />
  <path
     style="fill:none;stroke:#ffffff;stroke-width:1.2;stroke-linecap:round;stroke-linejoin:miter;stroke-miterlimit:4;stroke-opacity:1"
     d="M 43.636719,18.097656 V 11.632812"
     id="path12881" />
  <path
     style="fill:none;stroke:#ffffff;stroke-width:1.2;stroke-linecap:round;stroke-linejoin:miter;stroke-miterlimit:4;stroke-opacity:1"
     d="M 46.867188,14.867188 H 40.402344"
     id="path12883" />
  <path
     style="fill:none;fill-opacity:1;fill-rule:evenodd;stroke:none"
     d="m 25.046875,67.027344 4.136719,-7.523438 H 50.457031 V 74.542969 H 29.183594 Z m 0,0"
     id="path12885" />
  <g
     clip-path="url(#clip1)"
     clip-rule="nonzero"
     id="g12889"
     style="stroke:#ffffff">
    <path
       style="fill:none;stroke:#ffffff;stroke-width:1.2;stroke-linecap:butt;stroke-linejoin:miter;stroke-miterlimit:4;stroke-opacity:1"
       d="m 25.046875,67.027344 4.136719,-7.523438 H 50.457031 V 74.542969 H 29.183594 Z m 0,0"
       id="path12887" />
  </g>
  <path
     style="fill:#ffffff;fill-opacity:1;fill-rule:nonzero;stroke:none"
     d="m 29.3125,68.414062 0.796875,-0.07812 c 0.03906,0.324218 0.128906,0.589843 0.265625,0.796874 0.144531,0.210938 0.363281,0.375 0.65625,0.5 0.289062,0.125 0.617188,0.1875 0.984375,0.1875 0.320313,0 0.609375,-0.04687 0.859375,-0.140624 0.25,-0.09375 0.4375,-0.222657 0.5625,-0.390626 0.125,-0.175781 0.1875,-0.363281 0.1875,-0.5625 0,-0.195312 -0.0625,-0.367187 -0.1875,-0.515624 -0.117188,-0.15625 -0.308594,-0.285157 -0.578125,-0.390626 C 32.691406,67.75 32.3125,67.644531 31.71875,67.507812 31.125,67.363281 30.707031,67.226562 30.46875,67.101562 30.164062,66.945312 29.9375,66.75 29.78125,66.507812 29.632812,66.269531 29.5625,66 29.5625,65.695312 c 0,-0.320312 0.08594,-0.625 0.265625,-0.90625 0.1875,-0.28125 0.457031,-0.492187 0.8125,-0.640624 0.351563,-0.144532 0.75,-0.21875 1.1875,-0.21875 0.476563,0 0.898437,0.07812 1.265625,0.234374 0.363281,0.148438 0.640625,0.371094 0.828125,0.671876 0.195313,0.304687 0.304687,0.640624 0.328125,1.015624 l -0.828125,0.0625 c -0.04297,-0.40625 -0.1875,-0.710937 -0.4375,-0.921874 -0.25,-0.207032 -0.625,-0.3125 -1.125,-0.3125 -0.511719,0 -0.886719,0.09375 -1.125,0.28125 -0.242187,0.1875 -0.359375,0.417968 -0.359375,0.6875 0,0.230468 0.08203,0.417968 0.25,0.5625 0.164062,0.15625 0.59375,0.3125 1.28125,0.46875 0.695312,0.15625 1.175781,0.292968 1.4375,0.40625 0.375,0.167968 0.648438,0.386718 0.828125,0.65625 0.175781,0.261718 0.265625,0.570312 0.265625,0.921874 0,0.335938 -0.101562,0.65625 -0.296875,0.96875 -0.199219,0.304688 -0.480469,0.539063 -0.84375,0.703126 -0.367187,0.164062 -0.777344,0.25 -1.234375,0.25 -0.585938,0 -1.074219,-0.08594 -1.46875,-0.25 -0.398438,-0.175782 -0.710938,-0.429688 -0.9375,-0.765626 -0.21875,-0.34375 -0.335938,-0.726562 -0.34375,-1.15625 z m 0,0"
     id="path12891" />
  <path
     style="fill:#ffffff;fill-opacity:1;fill-rule:nonzero;stroke:none"
     d="m 34.902344,70.476562 2.484375,-6.4375 h 0.90625 l 2.640625,6.4375 h -0.96875 l -0.75,-1.953124 h -2.703125 l -0.703125,1.953124 z m 1.859375,-2.640624 h 2.1875 L 38.277344,66.039062 C 38.066406,65.5 37.917969,65.054688 37.824219,64.710938 c -0.08594,0.417968 -0.203125,0.828124 -0.359375,1.234374 z m 0,0"
     id="path12893" />
  <path
     style="fill:#ffffff;fill-opacity:1;fill-rule:nonzero;stroke:none"
     d="m 41.632812,70.476562 v -6.4375 h 2.859376 c 0.570312,0 1.007812,0.05859 1.3125,0.171876 0.300781,0.117187 0.539062,0.320312 0.71875,0.609374 0.175781,0.292969 0.265624,0.617188 0.265624,0.96875 0,0.460938 -0.152343,0.84375 -0.453124,1.15625 -0.292969,0.3125 -0.746094,0.511719 -1.359376,0.59375 0.21875,0.117188 0.390626,0.226563 0.515626,0.328126 0.25,0.230468 0.484374,0.515624 0.703124,0.859374 l 1.125,1.75 h -1.078124 l -0.859376,-1.34375 C 45.140625,68.75 44.9375,68.457031 44.773438,68.257812 c -0.15625,-0.207031 -0.304688,-0.351562 -0.4375,-0.4375 -0.125,-0.08203 -0.25,-0.140624 -0.375,-0.171874 -0.105469,-0.01953 -0.265626,-0.03125 -0.484376,-0.03125 h -0.984374 v 2.859374 z m 0.859376,-3.59375 h 1.828124 c 0.394532,0 0.703126,-0.03906 0.921876,-0.125 0.21875,-0.08203 0.382812,-0.210937 0.5,-0.390624 0.113281,-0.175782 0.171874,-0.367188 0.171874,-0.578126 0,-0.300781 -0.117187,-0.550781 -0.34375,-0.75 C 45.351562,64.84375 45,64.742188 44.523438,64.742188 h -2.03125 z m 0,0"
     id="path12895" />
  <path
     style="fill:none;fill-opacity:1;fill-rule:nonzero;stroke:#ffffff;stroke-width:1.2;stroke-linecap:butt;stroke-linejoin:miter;stroke-miterlimit:4;stroke-opacity:1"
     d="M 68.726562,43.632813 63.1875,52.929688 h 11.078125 z m 0,0"
     id="path12897" />
  <path
     style="fill:#ffffff;fill-opacity:1;fill-rule:nonzero;stroke:none"
     d="m 73.691406,46.875 -1.3125,-4.15625 h 1.078125 l 0.765625,2.71875 0.71875,-2.71875 h 1.0625 l 0.6875,2.71875 0.796875,-2.71875 h 1.078125 L 77.238281,46.875 h -1.0625 L 75.472656,44.203125 74.769531,46.875 Z m 0,0"
     id="path12899" />
  <path
     style="fill:#ffffff;fill-opacity:1;fill-rule:nonzero;stroke:none"
     d="m 78.957031,48.472656 v -3.578125 h 1.234375 c 0.269532,0 0.476563,0.01563 0.625,0.04687 0.207032,0.05469 0.382813,0.140625 0.53125,0.265625 0.1875,0.15625 0.328125,0.359375 0.421875,0.609375 0.09375,0.25 0.140625,0.53125 0.140625,0.84375 0,0.273438 -0.03125,0.515625 -0.09375,0.734375 -0.0625,0.210938 -0.148437,0.382813 -0.25,0.515625 -0.09375,0.136719 -0.203125,0.246094 -0.328125,0.328125 -0.117187,0.07422 -0.257812,0.132813 -0.421875,0.171875 -0.167968,0.04297 -0.359375,0.0625 -0.578125,0.0625 z m 0.46875,-0.421875 h 0.765625 c 0.238282,0 0.421875,-0.01953 0.546875,-0.0625 0.132813,-0.03906 0.242188,-0.101562 0.328125,-0.1875 0.113282,-0.113281 0.203125,-0.265625 0.265625,-0.453125 0.0625,-0.1875 0.09375,-0.414062 0.09375,-0.6875 0,-0.375 -0.0625,-0.660156 -0.1875,-0.859375 -0.125,-0.207031 -0.277343,-0.34375 -0.453125,-0.40625 -0.125,-0.05078 -0.328125,-0.07813 -0.609375,-0.07813 h -0.75 z m 0,0"
     id="path12901" />
  <path
     style="fill:#ffffff;fill-opacity:1;fill-rule:nonzero;stroke:none"
     d="m 82.324219,48.472656 1.375,-3.578125 h 0.5 l 1.46875,3.578125 h -0.546875 l -0.40625,-1.078125 h -1.5 l -0.390625,1.078125 z m 1.03125,-1.46875 h 1.203125 l -0.375,-1 c -0.117188,-0.289062 -0.199219,-0.535156 -0.25,-0.734375 -0.04297,0.230469 -0.105469,0.460938 -0.1875,0.6875 z m 0,0"
     id="path12903" />
  <path
     style="fill:#ffffff;fill-opacity:1;fill-rule:nonzero;stroke:none"
     d="m 88.734375,47.222656 0.46875,0.109375 c -0.09375,0.398438 -0.273437,0.699219 -0.53125,0.90625 -0.261719,0.199219 -0.574219,0.296875 -0.9375,0.296875 -0.386719,0 -0.703125,-0.07813 -0.953125,-0.234375 -0.242188,-0.15625 -0.421875,-0.378906 -0.546875,-0.671875 -0.125,-0.300781 -0.1875,-0.625 -0.1875,-0.96875 0,-0.375 0.06641,-0.695312 0.203125,-0.96875 0.144531,-0.28125 0.347656,-0.492187 0.609375,-0.640625 0.269531,-0.144531 0.5625,-0.21875 0.875,-0.21875 0.351563,0 0.648437,0.09375 0.890625,0.28125 0.25,0.179688 0.425781,0.433594 0.53125,0.765625 l -0.46875,0.109375 c -0.08594,-0.257812 -0.210938,-0.445312 -0.375,-0.5625 -0.15625,-0.125 -0.355469,-0.1875 -0.59375,-0.1875 -0.273438,0 -0.5,0.07031 -0.6875,0.203125 -0.179688,0.125 -0.308594,0.304688 -0.390625,0.53125 -0.07422,0.21875 -0.109375,0.449219 -0.109375,0.6875 0,0.304688 0.03906,0.570313 0.125,0.796875 0.09375,0.21875 0.234375,0.386719 0.421875,0.5 0.1875,0.117188 0.390625,0.171875 0.609375,0.171875 0.269531,0 0.492188,-0.07031 0.671875,-0.21875 0.1875,-0.15625 0.3125,-0.382812 0.375,-0.6875 z m 0,0"
     id="path12905" />
  <path
     style="fill:#ffffff;fill-opacity:1;fill-rule:nonzero;stroke:none"
     d="m 88.777344,76.679688 -1.3125,-4.15625 h 1.078125 l 0.765625,2.71875 0.71875,-2.71875 h 1.0625 l 0.6875,2.71875 0.796875,-2.71875 h 1.078125 l -1.328125,4.15625 h -1.0625 l -0.703125,-2.671876 -0.703125,2.671876 z m 0,0"
     id="path12907" />
  <path
     style="fill:#ffffff;fill-opacity:1;fill-rule:nonzero;stroke:none"
     d="m 93.871094,77.121094 0.453125,-0.03125 c 0.01953,0.179687 0.06641,0.324218 0.140625,0.4375 0.08203,0.117187 0.203125,0.210937 0.359375,0.28125 0.164062,0.07422 0.351562,0.109375 0.5625,0.109375 0.175781,0 0.332031,-0.02344 0.46875,-0.07813 0.144531,-0.0625 0.25,-0.140625 0.3125,-0.234375 0.07031,-0.09375 0.109375,-0.191407 0.109375,-0.296875 0,-0.113282 -0.03906,-0.210938 -0.109375,-0.296875 -0.0625,-0.08203 -0.167969,-0.15625 -0.3125,-0.21875 -0.105469,-0.03125 -0.324219,-0.08203 -0.65625,-0.15625 -0.324219,-0.08203 -0.546875,-0.160157 -0.671875,-0.234375 -0.179688,-0.09375 -0.308594,-0.203125 -0.390625,-0.328125 -0.08594,-0.132813 -0.125,-0.285157 -0.125,-0.453125 0,-0.175782 0.05078,-0.34375 0.15625,-0.5 0.101562,-0.15625 0.253906,-0.273438 0.453125,-0.359375 0.195312,-0.08203 0.414062,-0.125 0.65625,-0.125 0.257812,0 0.488281,0.04297 0.6875,0.125 0.207031,0.08594 0.363281,0.210937 0.46875,0.375 0.113281,0.167969 0.175781,0.355469 0.1875,0.5625 l -0.453125,0.04687 c -0.03125,-0.226563 -0.121094,-0.398438 -0.265625,-0.515625 -0.136719,-0.113281 -0.339844,-0.171875 -0.609375,-0.171875 -0.28125,0 -0.492188,0.05469 -0.625,0.15625 -0.136719,0.105468 -0.203125,0.230468 -0.203125,0.375 0,0.125 0.04687,0.230468 0.140625,0.3125 0.09375,0.08594 0.332031,0.171875 0.71875,0.265625 0.382812,0.08594 0.648437,0.15625 0.796875,0.21875 0.207031,0.105469 0.359375,0.230469 0.453125,0.375 0.101562,0.148437 0.15625,0.3125 0.15625,0.5 0,0.199219 -0.05859,0.382812 -0.171875,0.546875 -0.105469,0.167968 -0.261719,0.296875 -0.46875,0.390625 -0.199219,0.09375 -0.429688,0.140625 -0.6875,0.140625 -0.324219,0 -0.59375,-0.04687 -0.8125,-0.140625 -0.21875,-0.09375 -0.390625,-0.234375 -0.515625,-0.421875 -0.125,-0.195313 -0.195313,-0.414063 -0.203125,-0.65625 z m 0,0"
     id="path12909" />
  <path
     style="fill:#ffffff;fill-opacity:1;fill-rule:nonzero;stroke:none"
     d="m 97.128906,78.277344 1.375,-3.578125 h 0.5 l 1.468754,3.578125 h -0.546879 l -0.40625,-1.078125 h -1.5 l -0.390625,1.078125 z m 1.03125,-1.46875 h 1.203125 l -0.375,-1 c -0.117187,-0.289063 -0.199219,-0.535156 -0.25,-0.734375 -0.04297,0.230469 -0.105469,0.460937 -0.1875,0.6875 z m 0,0"
     id="path12911" />
  <path
     style="fill:#ffffff;fill-opacity:1;fill-rule:nonzero;stroke:none"
     d="m 100.99219,78.277344 v -3.578125 h 1.59375 c 0.3125,0 0.55078,0.03125 0.71875,0.09375 0.16406,0.0625 0.29687,0.179687 0.39062,0.34375 0.10157,0.167969 0.15625,0.34375 0.15625,0.53125 0,0.261719 -0.0859,0.480469 -0.25,0.65625 -0.15625,0.167969 -0.40625,0.277343 -0.75,0.328125 0.125,0.0625 0.21875,0.121094 0.28125,0.171875 0.13282,0.125 0.26563,0.289062 0.39063,0.484375 l 0.625,0.96875 h -0.59375 l -0.46875,-0.75 c -0.14844,-0.207032 -0.26563,-0.367188 -0.35938,-0.484375 -0.0859,-0.113281 -0.16406,-0.191407 -0.23437,-0.234375 -0.0625,-0.05078 -0.13281,-0.08594 -0.20313,-0.109375 -0.0625,-0.0078 -0.15234,-0.01563 -0.26562,-0.01563 h -0.5625 v 1.59375 z m 0.46875,-2 h 1.03125 c 0.20703,0 0.375,-0.01953 0.5,-0.0625 0.125,-0.05078 0.21875,-0.125 0.28125,-0.21875 0.0625,-0.09375 0.0937,-0.203125 0.0937,-0.328125 0,-0.164063 -0.0625,-0.300781 -0.1875,-0.40625 -0.125,-0.113281 -0.32031,-0.171875 -0.57813,-0.171875 h -1.14062 z m 0,0"
     id="path12913" />
  <path
     style="fill:none;fill-opacity:1;fill-rule:nonzero;stroke:#ffffff;stroke-width:1.2;stroke-linecap:butt;stroke-linejoin:miter;stroke-miterlimit:4;stroke-opacity:1"
     d="M 93.03125,66.988281 83.734375,61.449219 V 72.53125 l 4.648438,-2.773438 z m 0,0"
     id="path12915" />
  <g
     clip-path="url(#clip2)"
     clip-rule="nonzero"
     id="g12921"
     style="fill:none;stroke:#ffffff">
    <path
       style="fill:none;stroke:#ffffff;stroke-width:1.2;stroke-linecap:butt;stroke-linejoin:miter;stroke-miterlimit:4;stroke-opacity:1"
       d="m 130.25391,63.988281 v 6.082031 h 9.16015 l 2.96094,-2.964843 -3.03906,-3.039063 z m 0,0"
       id="path12919" />
  </g>
  <path
     style="fill:#ffffff;fill-opacity:1;fill-rule:nonzero;stroke:none"
     d="m 131.52344,78.359375 c 0.39453,0.273437 0.75781,0.46875 1.09375,0.59375 l -0.25,0.59375 c -0.46875,-0.167969 -0.9336,-0.433594 -1.39063,-0.796875 -0.48047,0.273438 -1.00781,0.40625 -1.57812,0.40625 -0.58594,0 -1.11719,-0.140625 -1.59375,-0.421875 -0.46875,-0.28125 -0.83594,-0.675781 -1.09375,-1.1875 -0.25,-0.507813 -0.375,-1.082031 -0.375,-1.71875 0,-0.632813 0.125,-1.210937 0.375,-1.734375 0.25781,-0.519531 0.6289,-0.914062 1.10937,-1.1875 0.47656,-0.28125 1.00781,-0.421875 1.59375,-0.421875 0.59375,0 1.12891,0.148437 1.60938,0.4375 0.47656,0.28125 0.84375,0.679687 1.09375,1.1875 0.25,0.5 0.375,1.074219 0.375,1.71875 0,0.523437 -0.0859,0.996094 -0.25,1.421875 -0.15625,0.429688 -0.39844,0.796875 -0.71875,1.109375 z m -1.875,-1.09375 c 0.48828,0.136719 0.89453,0.339844 1.21875,0.609375 0.5,-0.445312 0.75,-1.128906 0.75,-2.046875 0,-0.53125 -0.0898,-0.988281 -0.26563,-1.375 -0.17969,-0.382813 -0.4375,-0.6875 -0.78125,-0.90625 -0.34375,-0.21875 -0.73047,-0.328125 -1.15625,-0.328125 -0.63672,0 -1.16406,0.21875 -1.57812,0.65625 -0.41797,0.4375 -0.625,1.089844 -0.625,1.953125 0,0.835937 0.20703,1.476563 0.625,1.921875 0.41406,0.449219 0.9414,0.671875 1.57812,0.671875 0.3125,0 0.60156,-0.05469 0.875,-0.171875 -0.27344,-0.164062 -0.55469,-0.285156 -0.84375,-0.359375 z m 0,0"
     id="path12923" />
  <g
     clip-path="url(#clip3)"
     clip-rule="nonzero"
     id="g12927"
     style="fill:#ffffff">
    <path
       style="fill:#ffffff;fill-opacity:1;fill-rule:nonzero;stroke:none"
       d="m 133.01172,78.695312 c 0,-0.707031 0.1875,-1.265624 0.5625,-1.671874 0.38281,-0.40625 0.8789,-0.609376 1.48437,-0.609376 0.39453,0 0.75,0.101563 1.0625,0.296876 0.32032,0.1875 0.56641,0.453124 0.73438,0.796874 0.16406,0.335938 0.25,0.714844 0.25,1.140626 0,0.4375 -0.0898,0.828124 -0.26563,1.171874 -0.16797,0.34375 -0.41406,0.605469 -0.73437,0.78125 -0.32422,0.179688 -0.67188,0.265626 -1.04688,0.265626 -0.40625,0 -0.77343,-0.09766 -1.09375,-0.296876 -0.3125,-0.195312 -0.55468,-0.460937 -0.71875,-0.796874 -0.15625,-0.34375 -0.23437,-0.703126 -0.23437,-1.078126 z m 0.57812,0.01563 c 0,0.511718 0.14063,0.917968 0.42188,1.21875 0.28125,0.304687 0.6289,0.453124 1.04687,0.453124 0.42578,0 0.77344,-0.148437 1.04688,-0.453124 0.28125,-0.300782 0.42187,-0.726563 0.42187,-1.28125 0,-0.351563 -0.0625,-0.660157 -0.1875,-0.921876 -0.11718,-0.257812 -0.28906,-0.457031 -0.51562,-0.59375 -0.21875,-0.144531 -0.47656,-0.21875 -0.76563,-0.21875 -0.39843,0 -0.74218,0.140626 -1.03125,0.421876 -0.29297,0.273437 -0.4375,0.730468 -0.4375,1.375 z m 0,0"
       id="path12925" />
  </g>
  <g
     clip-path="url(#clip4)"
     clip-rule="nonzero"
     id="g12931"
     style="fill:#ffffff">
    <path
       style="fill:#ffffff;fill-opacity:1;fill-rule:nonzero;stroke:none"
       d="m 140.39453,76.492188 h 0.5625 v 2.484374 c 0,0.429688 -0.0469,0.773438 -0.14062,1.03125 -0.0937,0.25 -0.27344,0.460938 -0.53125,0.625 -0.25,0.15625 -0.58594,0.234376 -1,0.234376 -0.40625,0 -0.74219,-0.07031 -1,-0.203126 -0.25,-0.144531 -0.4336,-0.347656 -0.54688,-0.609374 -0.10547,-0.257813 -0.15625,-0.617188 -0.15625,-1.078126 v -2.484374 h 0.57813 v 2.484374 c 0,0.375 0.0312,0.652344 0.0937,0.828126 0.0703,0.167968 0.1914,0.304687 0.35937,0.40625 0.16406,0.09375 0.375,0.140624 0.625,0.140624 0.41406,0 0.71094,-0.09375 0.89063,-0.28125 0.17578,-0.195312 0.26562,-0.5625 0.26562,-1.09375 z m 0,0"
       id="path12929" />
  </g>
  <g
     clip-path="url(#clip5)"
     clip-rule="nonzero"
     id="g12935"
     style="fill:#ffffff">
    <path
       style="fill:#ffffff;fill-opacity:1;fill-rule:nonzero;stroke:none"
       d="m 142.76562,80.789062 v -3.78125 h -1.42187 V 76.492188 H 144.75 v 0.515624 h -1.42188 v 3.78125 z m 0,0"
       id="path12933" />
  </g>
  <path
     style="fill:#ffffff;fill-opacity:1;fill-rule:nonzero;stroke:none"
     d="m 36.871094,14.808594 -2.785156,1.296875 -2.78125,1.296875 v -5.191406 l 2.78125,1.300781 z m 0,0"
     id="path12937" />
  <path
     style="fill:#ffffff;fill-opacity:1;fill-rule:nonzero;stroke:none"
     d="m 43.75,21.285156 1.300781,2.78125 1.296875,2.785156 H 41.15625 l 1.296875,-2.785156 z m 0,0"
     id="path12939" />
  <path
     style="fill:#ffffff;fill-opacity:1;fill-rule:nonzero;stroke:none"
     d="m 70.3125,67.167969 c 0,0.851562 -0.6875,1.542969 -1.539062,1.542969 -0.851563,0 -1.539063,-0.691407 -1.539063,-1.542969 0,-0.847657 0.6875,-1.539063 1.539063,-1.539063 0.851562,0 1.539062,0.691406 1.539062,1.539063 z m 0,0"
     id="path12941" />
  <path
     style="fill:#ffffff;fill-opacity:1;fill-rule:nonzero;stroke:none"
     d="m 22.054688,14.933594 c 0,0.851562 -0.691407,1.539062 -1.539063,1.539062 -0.851563,0 -1.542969,-0.6875 -1.542969,-1.539062 0,-0.851563 0.691406,-1.539063 1.542969,-1.539063 0.847656,0 1.539063,0.6875 1.539063,1.539063 z m 0,0"
     id="path12943" />
  <path
     style="fill:none;stroke:#ffffff;stroke-width:1.2;stroke-linecap:round;stroke-linejoin:miter;stroke-miterlimit:4;stroke-opacity:1"
     d="m 47.804688,29.984375 h 4.867187"
     id="path12945" />
  <path
     style="fill:none;fill-opacity:1;fill-rule:nonzero;stroke:#ffffff"
     d="m 121.66797,66.992188 c 0,3.488281 -2.82813,6.3125 -6.3125,6.3125 -3.48828,0 -6.31641,-2.824219 -6.31641,-6.3125 0,-3.488282 2.82813,-6.3125 6.31641,-6.3125 3.48437,0 6.3125,2.824218 6.3125,6.3125 z m 0,0"
     id="path12947" />
  <g
     clip-path="url(#clip6)"
     clip-rule="nonzero"
     id="g12951"
     style="stroke:#ffffff">
    <path
       style="fill:none;stroke:#ffffff;stroke-width:1.2;stroke-linecap:butt;stroke-linejoin:miter;stroke-miterlimit:4;stroke-opacity:1"
       d="m 121.66797,66.992188 c 0,3.488281 -2.82813,6.3125 -6.3125,6.3125 -3.48828,0 -6.31641,-2.824219 -6.31641,-6.3125 0,-3.488282 2.82813,-6.3125 6.31641,-6.3125 3.48437,0 6.3125,2.824218 6.3125,6.3125 z m 0,0"
       id="path12949" />
  </g>
  <path
     style="fill:none;stroke:#ffffff;stroke-width:1.2;stroke-linecap:round;stroke-linejoin:miter;stroke-miterlimit:4;stroke-opacity:1"
     d="M 115.27734,70.417969 V 63.953125"
     id="path12953" />
  <path
     style="fill:none;stroke:#ffffff;stroke-width:1.2;stroke-linecap:round;stroke-linejoin:miter;stroke-miterlimit:4;stroke-opacity:1"
     d="m 118.51172,67.1875 h -6.46484"
     id="path12955" />
  <path
     style="fill:#ffffff;fill-opacity:1;fill-rule:nonzero;stroke:none"
     d="m 115.42578,61.183594 1.29688,-2.78125 1.29687,-2.785156 h -5.1875 l 1.29688,2.785156 z m 0,0"
     id="path12957" />
  <path
     style="fill:#ffffff;fill-opacity:1;fill-rule:nonzero;stroke:none"
     d="m 108.59766,67.171875 -2.78516,1.296875 -2.78125,1.296875 v -5.1875 L 105.8125,65.875 Z m 0,0"
     id="path12959" />
  <path
     style="fill:none;fill-opacity:1;fill-rule:evenodd;stroke:#ffffff;stroke-width:1.2;stroke-linecap:butt;stroke-linejoin:miter;stroke-miterlimit:4;stroke-opacity:1"
     d="M 56.5,14.867188 60.640625,7.339844 H 81.914062 V 22.378906 H 60.640625 Z m 0,0"
     id="path12961" />
  <path
     style="fill:#ffffff;fill-opacity:1;fill-rule:nonzero;stroke:none"
     d="m 69.289062,11.511719 v 0.75 h -3.453124 l 2.1875,2.34375 -2.1875,2.578125 h 3.640624 v 0.765625 h -4.5625 v -0.890625 l 2.09375,-2.453125 -2.09375,-2.234375 v -0.859375 z m 0,0"
     id="path12963" />
  <path
     style="fill:#ffffff;fill-opacity:1;fill-rule:nonzero;stroke:none"
     d="m 69.816406,17.949219 2.484375,-6.4375 h 0.921875 l 2.625,6.4375 z m 1.1875,-0.765625 h 3.578125 l -1.390625,-3.671875 c -0.210937,-0.539063 -0.359375,-0.984375 -0.453125,-1.328125 -0.08594,0.398437 -0.199219,0.808594 -0.34375,1.234375 z m 0,0"
     id="path12965" />
  <path
     style="fill:none;fill-opacity:1;fill-rule:nonzero;stroke:#ffffff;stroke-width:1.2;stroke-linecap:butt;stroke-linejoin:miter;stroke-miterlimit:4;stroke-opacity:1"
     d="m 115.36328,45.050781 2.77344,-4.648438 2.76953,-4.648437 h -11.08203 z m 0,0"
     id="path12967" />
  <path
     style="fill:#ffffff;fill-opacity:1;fill-rule:nonzero;stroke:none"
     d="m 2.617188,6.234375 -2.484376,-6.4375 H 1.054688 L 2.726562,4.46875 C 2.859375,4.84375 2.96875,5.199219 3.054688,5.53125 3.15625,5.179688 3.277344,4.824219 3.414062,4.46875 l 1.734376,-4.671875 h 0.875 l -2.53125,6.4375 z m 0,0"
     id="path12969" />
  <path
     style="fill:#ffffff;fill-opacity:1;fill-rule:nonzero;stroke:none"
     d="m 6.464844,3.679688 h 0.5625 v 4.296874 h -0.5625 z m 0,0"
     id="path12971" />
  <path
     style="fill:#ffffff;fill-opacity:1;fill-rule:nonzero;stroke:none"
     d="M 7.925781,7.976562 V 3.679688 h 0.59375 l 2.25,3.375 v -3.375 h 0.546875 v 4.296874 h -0.578125 l -2.265625,-3.375 v 3.375 z m 0,0"
     id="path12973" />
  <path
     style="fill:none;fill-opacity:1;fill-rule:evenodd;stroke:#ffffff;stroke-width:1.2;stroke-linecap:butt;stroke-linejoin:miter;stroke-miterlimit:4;stroke-opacity:1"
     d="m 0.601562,11.707031 v 6.082031 h 9.160157 l 2.960937,-2.964843 -3.039062,-3.039063 z m 0,0"
     id="path12975" />
  <path
     style="fill:#ffffff;fill-opacity:1;fill-rule:nonzero;stroke:none"
     d="m 123.26172,45.9375 v 0.671875 h -3.78125 c -0.0117,-0.164063 0.0156,-0.328125 0.0781,-0.484375 0.0937,-0.257812 0.24219,-0.515625 0.45313,-0.765625 0.21875,-0.25 0.52344,-0.539063 0.92187,-0.875 0.625,-0.507813 1.04688,-0.910156 1.26563,-1.203125 0.21875,-0.300781 0.32812,-0.582031 0.32812,-0.84375 0,-0.28125 -0.10156,-0.515625 -0.29687,-0.703125 -0.19922,-0.195313 -0.46094,-0.296875 -0.78125,-0.296875 -0.33594,0 -0.60547,0.105469 -0.8125,0.3125 -0.19922,0.199219 -0.30469,0.480469 -0.3125,0.84375 l -0.71875,-0.07813 c 0.0508,-0.539063 0.23828,-0.953125 0.5625,-1.234375 0.32031,-0.28125 0.75391,-0.421875 1.29687,-0.421875 0.55079,0 0.98438,0.152344 1.29688,0.453125 0.32031,0.304688 0.48437,0.683594 0.48437,1.140625 0,0.230469 -0.0469,0.453125 -0.14062,0.671875 -0.0937,0.21875 -0.25,0.453125 -0.46875,0.703125 -0.21094,0.242187 -0.57031,0.574219 -1.07813,1 -0.41796,0.355469 -0.6875,0.59375 -0.8125,0.71875 -0.11718,0.125 -0.21484,0.257813 -0.29687,0.390625 z m 0,0"
     id="path12977" />
  <path
     style="fill:#ffffff;fill-opacity:1;fill-rule:nonzero;stroke:none"
     d="m 123.83984,41.890625 h 1.35938 v 0.4375 h -1.35938 z m 0,0"
     id="path12979" />
  <path
     style="fill:#ffffff;fill-opacity:1;fill-rule:nonzero;stroke:none"
     d="m 125.79688,43.40625 v -3.578125 h 0.48437 l 1.89062,2.8125 v -2.8125 h 0.45313 v 3.578125 h -0.48438 L 126.25,40.59375 v 2.8125 z m 0,0"
     id="path12981" />
  <path
     style="fill:none;fill-opacity:1;fill-rule:nonzero;stroke:#ffffff;stroke-width:1.2;stroke-linecap:butt;stroke-linejoin:miter;stroke-miterlimit:4;stroke-opacity:1"
     d="m 105.82813,7.125 h 19.19921 v 15.460938 h -19.19921 z m 0,0"
     id="path12983" />
  <path
     style="fill:#ffffff;fill-opacity:1;fill-rule:nonzero;stroke:none"
     d="m 109.14063,15.976562 -1.3125,-4.15625 h 1.07812 l 0.76563,2.71875 0.71875,-2.71875 h 1.0625 l 0.6875,2.71875 0.79687,-2.71875 h 1.07813 l -1.32813,4.15625 h -1.0625 l -0.70312,-2.671874 -0.70313,2.671874 z m 0,0"
     id="path12985" />
  <path
     style="fill:#ffffff;fill-opacity:1;fill-rule:nonzero;stroke:none"
     d="M 114.42188,17.578125 V 14 h 2.42187 v 0.421875 h -1.9375 v 1.109375 h 1.67188 v 0.421875 h -1.67188 v 1.625 z m 0,0"
     id="path12987" />
  <path
     style="fill:#ffffff;fill-opacity:1;fill-rule:nonzero;stroke:none"
     d="m 117.66406,14 h 0.46875 v 3.578125 h -0.46875 z m 0,0"
     id="path12989" />
  <path
     style="fill:#ffffff;fill-opacity:1;fill-rule:nonzero;stroke:none"
     d="M 119.02734,17.578125 V 14 h 1.59375 c 0.3125,0 0.55079,0.03125 0.71875,0.09375 0.16407,0.0625 0.29688,0.179688 0.39063,0.34375 0.10156,0.167969 0.15625,0.34375 0.15625,0.53125 0,0.261719 -0.0859,0.480469 -0.25,0.65625 -0.15625,0.167969 -0.40625,0.277344 -0.75,0.328125 0.125,0.0625 0.21875,0.121094 0.28125,0.171875 0.13281,0.125 0.26562,0.289062 0.39062,0.484375 l 0.625,0.96875 h -0.59375 l -0.46875,-0.75 c -0.14843,-0.207031 -0.26562,-0.367187 -0.35937,-0.484375 -0.0859,-0.113281 -0.16406,-0.191406 -0.23438,-0.234375 -0.0625,-0.05078 -0.13281,-0.08594 -0.20312,-0.109375 -0.0625,-0.0078 -0.15234,-0.01563 -0.26563,-0.01563 h -0.5625 v 1.59375 z m 0.46875,-2 h 1.03125 c 0.20704,0 0.375,-0.01953 0.5,-0.0625 0.125,-0.05078 0.21875,-0.125 0.28125,-0.21875 0.0625,-0.09375 0.0937,-0.203125 0.0937,-0.328125 0,-0.164062 -0.0625,-0.300781 -0.1875,-0.40625 -0.125,-0.113281 -0.32031,-0.171875 -0.57812,-0.171875 h -1.14063 z m 0,0"
     id="path12991" />
  <path
     style="fill:#ffffff;fill-opacity:1;fill-rule:nonzero;stroke:none"
     d="m 92.6875,10.183594 c 0.3125,0.230468 0.65625,0.414062 1.03125,0.546875 L 93.25,11.636719 c -0.199219,-0.05469 -0.390625,-0.132813 -0.578125,-0.234375 -0.04297,-0.02344 -0.328125,-0.214844 -0.859375,-0.578125 -0.429688,0.1875 -0.898438,0.28125 -1.40625,0.28125 -0.992188,0 -1.765625,-0.289063 -2.328125,-0.875 -0.5625,-0.582031 -0.84375,-1.398438 -0.84375,-2.453125 0,-1.050782 0.28125,-1.867188 0.84375,-2.453125 0.5625,-0.582031 1.328125,-0.875 2.296875,-0.875 0.945312,0 1.703125,0.292969 2.265625,0.875 0.5625,0.585937 0.84375,1.402343 0.84375,2.453125 0,0.554687 -0.07813,1.042968 -0.234375,1.46875 -0.117188,0.324218 -0.304688,0.636718 -0.5625,0.9375 z M 91.640625,9.449219 c 0.164063,-0.195313 0.289063,-0.4375 0.375,-0.71875 0.08203,-0.28125 0.125,-0.597657 0.125,-0.953125 0,-0.75 -0.167969,-1.304688 -0.5,-1.671875 -0.324219,-0.363281 -0.75,-0.546875 -1.28125,-0.546875 -0.53125,0 -0.964844,0.1875 -1.296875,0.5625 -0.324219,0.367187 -0.484375,0.917968 -0.484375,1.65625 0,0.75 0.160156,1.3125 0.484375,1.6875 0.332031,0.375 0.75,0.5625 1.25,0.5625 0.1875,0 0.367188,-0.03125 0.546875,-0.09375 -0.273437,-0.175782 -0.542969,-0.3125 -0.8125,-0.40625 L 90.40625,8.792969 c 0.425781,0.148437 0.835938,0.367187 1.234375,0.65625 z m 0,0"
     id="path12993" />
  <path
     style="fill:#ffffff;fill-opacity:1;fill-rule:nonzero;stroke:none"
     d="m 96.972656,8.441406 v 0.515625 h -2.3125 l 1.46875,1.546875 -1.46875,1.734375 h 2.421875 v 0.5 h -3.03125 v -0.59375 l 1.40625,-1.640625 -1.40625,-1.484375 V 8.441406 Z m 0,0"
     id="path12995" />
  <path
     style="fill:#ffffff;fill-opacity:1;fill-rule:nonzero;stroke:none"
     d="m 97.117188,12.738281 1.640624,-4.296875 h 0.609376 l 1.765622,4.296875 z m 0.78125,-0.5 h 2.390622 L 99.351562,9.785156 C 99.214844,9.421875 99.117188,9.125 99.054688,8.894531 99,9.15625 98.921875,9.425781 98.820312,9.707031 Z m 0,0"
     id="path12997" />
  <path
     style="fill:#ffffff;fill-opacity:1;fill-rule:nonzero;stroke:none"
     d="m 59.222656,73.753906 c 0.3125,0.230469 0.65625,0.414063 1.03125,0.546875 l -0.46875,0.90625 c -0.199218,-0.05469 -0.390625,-0.132812 -0.578125,-0.234375 -0.04297,-0.02344 -0.328125,-0.214844 -0.859375,-0.578125 -0.429687,0.1875 -0.898437,0.28125 -1.40625,0.28125 -0.992187,0 -1.765625,-0.289062 -2.328125,-0.875 -0.5625,-0.582031 -0.84375,-1.398437 -0.84375,-2.453125 0,-1.050781 0.28125,-1.867187 0.84375,-2.453125 0.5625,-0.582031 1.328125,-0.875 2.296875,-0.875 0.945313,0 1.703125,0.292969 2.265625,0.875 0.5625,0.585938 0.84375,1.402344 0.84375,2.453125 0,0.554688 -0.07813,1.042969 -0.234375,1.46875 -0.117187,0.324219 -0.304687,0.636719 -0.5625,0.9375 z m -1.046875,-0.734375 c 0.164063,-0.195312 0.289063,-0.4375 0.375,-0.71875 0.08203,-0.28125 0.125,-0.597656 0.125,-0.953125 0,-0.75 -0.167969,-1.304687 -0.5,-1.671875 -0.324219,-0.363281 -0.75,-0.546875 -1.28125,-0.546875 -0.53125,0 -0.964843,0.1875 -1.296875,0.5625 -0.324218,0.367188 -0.484375,0.917969 -0.484375,1.65625 0,0.75 0.160157,1.3125 0.484375,1.6875 0.332032,0.375 0.75,0.5625 1.25,0.5625 0.1875,0 0.367188,-0.03125 0.546875,-0.09375 -0.273437,-0.175781 -0.542969,-0.3125 -0.8125,-0.40625 l 0.359375,-0.734375 c 0.425782,0.148438 0.835938,0.367188 1.234375,0.65625 z m 0,0"
     id="path12999" />
  <path
     style="fill:#ffffff;fill-opacity:1;fill-rule:nonzero;stroke:none"
     d="m 60.414062,74.933594 0.546876,-0.04687 c 0.01953,0.210937 0.07812,0.386719 0.171874,0.53125 0.09375,0.136719 0.234376,0.246093 0.421876,0.328125 0.195312,0.08594 0.421874,0.125 0.671874,0.125 0.21875,0 0.40625,-0.03125 0.5625,-0.09375 0.164063,-0.0625 0.289063,-0.148438 0.375,-0.265625 0.08203,-0.113281 0.125,-0.238281 0.125,-0.375 0,-0.132813 -0.04297,-0.25 -0.125,-0.34375 -0.07422,-0.101563 -0.199218,-0.1875 -0.375,-0.25 -0.117187,-0.05078 -0.371093,-0.125 -0.765624,-0.21875 -0.398438,-0.09375 -0.671876,-0.179688 -0.828126,-0.265625 -0.210937,-0.101563 -0.367187,-0.234375 -0.46875,-0.390625 -0.09375,-0.164063 -0.140624,-0.347657 -0.140624,-0.546875 0,-0.21875 0.05469,-0.421875 0.171874,-0.609375 0.125,-0.1875 0.304688,-0.328125 0.546876,-0.421875 0.238281,-0.101563 0.503906,-0.15625 0.796874,-0.15625 0.3125,0 0.585938,0.05469 0.828126,0.15625 0.25,0.105468 0.4375,0.257812 0.5625,0.453125 0.132812,0.199219 0.207031,0.429687 0.21875,0.6875 l -0.546876,0.03125 c -0.03125,-0.269531 -0.132812,-0.472657 -0.296874,-0.609375 -0.167969,-0.144532 -0.417969,-0.21875 -0.75,-0.21875 -0.34375,0 -0.59375,0.07031 -0.75,0.203125 -0.15625,0.125 -0.234376,0.277343 -0.234376,0.453125 0,0.15625 0.05469,0.28125 0.171876,0.375 0.101562,0.105468 0.382812,0.210937 0.84375,0.3125 0.46875,0.105468 0.785156,0.195312 0.953124,0.265625 0.25,0.117187 0.429688,0.261719 0.546876,0.4375 0.125,0.179687 0.1875,0.382812 0.1875,0.609375 0,0.230468 -0.07031,0.449218 -0.203126,0.65625 -0.125,0.199218 -0.3125,0.355468 -0.5625,0.46875 -0.242187,0.113281 -0.515624,0.171875 -0.828124,0.171875 -0.386719,0 -0.710938,-0.05859 -0.96875,-0.171875 -0.261719,-0.113282 -0.46875,-0.285156 -0.625,-0.515625 C 60.5,75.472656 60.421875,75.214844 60.414062,74.933594 Z m 0,0"
     id="path13001" />
  <path
     style="fill:#ffffff;fill-opacity:1;fill-rule:nonzero;stroke:none"
     d="m 63.914062,76.308594 1.65625,-4.296875 h 0.609376 l 1.765624,4.296875 h -0.65625 l -0.5,-1.296875 h -1.796874 l -0.46875,1.296875 z m 1.25,-1.765625 h 1.453126 l -0.453126,-1.1875 c -0.136718,-0.363281 -0.234374,-0.660157 -0.296874,-0.890625 -0.05469,0.273437 -0.132813,0.542968 -0.234376,0.8125 z m 0,0"
     id="path13003" />
  <path
     style="fill:#ffffff;fill-opacity:1;fill-rule:nonzero;stroke:none"
     d="m 68.179688,76.308594 v -4.296875 h 1.90625 c 0.382812,0 0.675781,0.04297 0.875,0.125 0.195312,0.07422 0.351562,0.210937 0.46875,0.40625 0.125,0.1875 0.1875,0.402343 0.1875,0.640625 0,0.304687 -0.101563,0.558594 -0.296876,0.765625 -0.199218,0.210937 -0.5,0.34375 -0.90625,0.40625 0.144532,0.07422 0.253907,0.148437 0.328126,0.21875 0.164062,0.148437 0.328124,0.335937 0.484374,0.5625 l 0.734376,1.171875 h -0.703126 l -0.578124,-0.890625 c -0.167969,-0.257813 -0.304688,-0.457031 -0.40625,-0.59375 -0.105469,-0.132813 -0.203126,-0.226563 -0.296876,-0.28125 -0.08594,-0.0625 -0.167968,-0.101563 -0.25,-0.125 -0.0625,-0.0078 -0.167968,-0.01563 -0.3125,-0.01563 h -0.65625 v 1.90625 z m 0.578124,-2.40625 h 1.21875 c 0.257813,0 0.460938,-0.02344 0.609376,-0.07813 0.144531,-0.05078 0.253906,-0.132813 0.328124,-0.25 0.07031,-0.125 0.109376,-0.253907 0.109376,-0.390625 0,-0.195313 -0.07422,-0.363282 -0.21875,-0.5 -0.148438,-0.132813 -0.375,-0.203125 -0.6875,-0.203125 h -1.359376 z m 0,0"
     id="path13005" />
</svg>
