<?xml version="1.0" encoding="UTF-8"?>
<svg xmlns="http://www.w3.org/2000/svg" xmlns:xlink="http://www.w3.org/1999/xlink" width="144.549149pt" height="80.857475pt" viewBox="0 0 144.549149 80.857475" version="1.1">
<defs>
<clipPath id="clip1">
  <path d="M 18 52 L 58 52 L 58 80.859375 L 18 80.859375 Z M 18 52 "/>
</clipPath>
<clipPath id="clip2">
  <path d="M 123 57 L 144.550781 57 L 144.550781 77 L 123 77 Z M 123 57 "/>
</clipPath>
<clipPath id="clip3">
  <path d="M 133 76 L 138 76 L 138 80.859375 L 133 80.859375 Z M 133 76 "/>
</clipPath>
<clipPath id="clip4">
  <path d="M 137 76 L 141 76 L 141 80.859375 L 137 80.859375 Z M 137 76 "/>
</clipPath>
<clipPath id="clip5">
  <path d="M 141 76 L 144.550781 76 L 144.550781 80.859375 L 141 80.859375 Z M 141 76 "/>
</clipPath>
<clipPath id="clip6">
  <path d="M 102 53 L 129 53 L 129 80.859375 L 102 80.859375 Z M 102 53 "/>
</clipPath>
</defs>
<g id="surface1">
<path style="fill:none;stroke-width:1.2;stroke-linecap:butt;stroke-linejoin:miter;stroke:rgb(0%,0%,0%);stroke-opacity:1;stroke-miterlimit:4;" d="M 133.21875 67.089844 L 119.71875 67.089844 "/>
<path style="fill:none;stroke-width:1.2;stroke-linecap:butt;stroke-linejoin:miter;stroke:rgb(0%,0%,0%);stroke-opacity:1;stroke-miterlimit:4;" d="M 115.367188 57.703125 L 115.367188 14.878906 L 42.316406 14.878906 "/>
<path style="fill:none;stroke-width:1.2;stroke-linecap:butt;stroke-linejoin:miter;stroke:rgb(0%,0%,0%);stroke-opacity:1;stroke-miterlimit:4;" d="M 43.753906 25.554688 L 43.753906 35.601562 L 68.886719 35.574219 L 68.789062 67.488281 "/>
<path style="fill:none;stroke-width:1.2;stroke-linecap:butt;stroke-linejoin:miter;stroke:rgb(0%,0%,0%);stroke-opacity:1;stroke-miterlimit:4;" d="M 104.460938 67.011719 L 20.519531 67.0625 L 20.519531 14.878906 "/>
<path style="fill:none;stroke-width:1.2;stroke-linecap:butt;stroke-linejoin:miter;stroke:rgb(0%,0%,0%);stroke-opacity:1;stroke-miterlimit:4;" d="M 32.824219 14.828125 L 5.054688 14.828125 "/>
<path style="fill-rule:nonzero;fill:rgb(100%,100%,100%);fill-opacity:1;stroke-width:1.2;stroke-linecap:butt;stroke-linejoin:miter;stroke:rgb(0%,0%,0%);stroke-opacity:1;stroke-miterlimit:4;" d="M 50.027344 14.671875 C 50.027344 18.15625 47.199219 20.984375 43.710938 20.984375 C 40.226562 20.984375 37.398438 18.15625 37.398438 14.671875 C 37.398438 11.183594 40.226562 8.355469 43.710938 8.355469 C 47.199219 8.355469 50.027344 11.183594 50.027344 14.671875 Z M 50.027344 14.671875 "/>
<path style="fill:none;stroke-width:1.2;stroke-linecap:round;stroke-linejoin:miter;stroke:rgb(0%,0%,0%);stroke-opacity:1;stroke-miterlimit:4;" d="M 43.636719 18.097656 L 43.636719 11.632812 "/>
<path style="fill:none;stroke-width:1.2;stroke-linecap:round;stroke-linejoin:miter;stroke:rgb(0%,0%,0%);stroke-opacity:1;stroke-miterlimit:4;" d="M 46.867188 14.867188 L 40.402344 14.867188 "/>
<path style=" stroke:none;fill-rule:evenodd;fill:rgb(100%,100%,100%);fill-opacity:1;" d="M 25.046875 67.027344 L 29.183594 59.503906 L 50.457031 59.503906 L 50.457031 74.542969 L 29.183594 74.542969 Z M 25.046875 67.027344 "/>
<g clip-path="url(#clip1)" clip-rule="nonzero">
<path style="fill:none;stroke-width:1.2;stroke-linecap:butt;stroke-linejoin:miter;stroke:rgb(0%,0%,0%);stroke-opacity:1;stroke-miterlimit:4;" d="M 25.046875 67.027344 L 29.183594 59.503906 L 50.457031 59.503906 L 50.457031 74.542969 L 29.183594 74.542969 Z M 25.046875 67.027344 "/>
</g>
<path style=" stroke:none;fill-rule:nonzero;fill:rgb(0%,0%,0%);fill-opacity:1;" d="M 29.3125 68.414062 L 30.109375 68.335938 C 30.148438 68.660156 30.238281 68.925781 30.375 69.132812 C 30.519531 69.34375 30.738281 69.507812 31.03125 69.632812 C 31.320312 69.757812 31.648438 69.820312 32.015625 69.820312 C 32.335938 69.820312 32.625 69.773438 32.875 69.679688 C 33.125 69.585938 33.3125 69.457031 33.4375 69.289062 C 33.5625 69.113281 33.625 68.925781 33.625 68.726562 C 33.625 68.53125 33.5625 68.359375 33.4375 68.210938 C 33.320312 68.054688 33.128906 67.925781 32.859375 67.820312 C 32.691406 67.75 32.3125 67.644531 31.71875 67.507812 C 31.125 67.363281 30.707031 67.226562 30.46875 67.101562 C 30.164062 66.945312 29.9375 66.75 29.78125 66.507812 C 29.632812 66.269531 29.5625 66 29.5625 65.695312 C 29.5625 65.375 29.648438 65.070312 29.828125 64.789062 C 30.015625 64.507812 30.285156 64.296875 30.640625 64.148438 C 30.992188 64.003906 31.390625 63.929688 31.828125 63.929688 C 32.304688 63.929688 32.726562 64.007812 33.09375 64.164062 C 33.457031 64.3125 33.734375 64.535156 33.921875 64.835938 C 34.117188 65.140625 34.226562 65.476562 34.25 65.851562 L 33.421875 65.914062 C 33.378906 65.507812 33.234375 65.203125 32.984375 64.992188 C 32.734375 64.785156 32.359375 64.679688 31.859375 64.679688 C 31.347656 64.679688 30.972656 64.773438 30.734375 64.960938 C 30.492188 65.148438 30.375 65.378906 30.375 65.648438 C 30.375 65.878906 30.457031 66.066406 30.625 66.210938 C 30.789062 66.367188 31.21875 66.523438 31.90625 66.679688 C 32.601562 66.835938 33.082031 66.972656 33.34375 67.085938 C 33.71875 67.253906 33.992188 67.472656 34.171875 67.742188 C 34.347656 68.003906 34.4375 68.3125 34.4375 68.664062 C 34.4375 69 34.335938 69.320312 34.140625 69.632812 C 33.941406 69.9375 33.660156 70.171875 33.296875 70.335938 C 32.929688 70.5 32.519531 70.585938 32.0625 70.585938 C 31.476562 70.585938 30.988281 70.5 30.59375 70.335938 C 30.195312 70.160156 29.882812 69.90625 29.65625 69.570312 C 29.4375 69.226562 29.320312 68.84375 29.3125 68.414062 Z M 29.3125 68.414062 "/>
<path style=" stroke:none;fill-rule:nonzero;fill:rgb(0%,0%,0%);fill-opacity:1;" d="M 34.902344 70.476562 L 37.386719 64.039062 L 38.292969 64.039062 L 40.933594 70.476562 L 39.964844 70.476562 L 39.214844 68.523438 L 36.511719 68.523438 L 35.808594 70.476562 Z M 36.761719 67.835938 L 38.949219 67.835938 L 38.277344 66.039062 C 38.066406 65.5 37.917969 65.054688 37.824219 64.710938 C 37.738281 65.128906 37.621094 65.539062 37.464844 65.945312 Z M 36.761719 67.835938 "/>
<path style=" stroke:none;fill-rule:nonzero;fill:rgb(0%,0%,0%);fill-opacity:1;" d="M 41.632812 70.476562 L 41.632812 64.039062 L 44.492188 64.039062 C 45.0625 64.039062 45.5 64.097656 45.804688 64.210938 C 46.105469 64.328125 46.34375 64.53125 46.523438 64.820312 C 46.699219 65.113281 46.789062 65.4375 46.789062 65.789062 C 46.789062 66.25 46.636719 66.632812 46.335938 66.945312 C 46.042969 67.257812 45.589844 67.457031 44.976562 67.539062 C 45.195312 67.65625 45.367188 67.765625 45.492188 67.867188 C 45.742188 68.097656 45.976562 68.382812 46.195312 68.726562 L 47.320312 70.476562 L 46.242188 70.476562 L 45.382812 69.132812 C 45.140625 68.75 44.9375 68.457031 44.773438 68.257812 C 44.617188 68.050781 44.46875 67.90625 44.335938 67.820312 C 44.210938 67.738281 44.085938 67.679688 43.960938 67.648438 C 43.855469 67.628906 43.695312 67.617188 43.476562 67.617188 L 42.492188 67.617188 L 42.492188 70.476562 Z M 42.492188 66.882812 L 44.320312 66.882812 C 44.714844 66.882812 45.023438 66.84375 45.242188 66.757812 C 45.460938 66.675781 45.625 66.546875 45.742188 66.367188 C 45.855469 66.191406 45.914062 66 45.914062 65.789062 C 45.914062 65.488281 45.796875 65.238281 45.570312 65.039062 C 45.351562 64.84375 45 64.742188 44.523438 64.742188 L 42.492188 64.742188 Z M 42.492188 66.882812 "/>
<path style="fill-rule:nonzero;fill:rgb(100%,100%,100%);fill-opacity:1;stroke-width:1.219137;stroke-linecap:butt;stroke-linejoin:miter;stroke:rgb(0%,0%,0%);stroke-opacity:1;stroke-miterlimit:4;" d="M -45.035581 -68.726562 L -54.631345 -63.1875 L -54.631345 -74.265625 Z M -45.035581 -68.726562 " transform="matrix(0,-0.968852,-1,0,0,0)"/>
<path style=" stroke:none;fill-rule:nonzero;fill:rgb(0%,0%,0%);fill-opacity:1;" d="M 73.691406 46.875 L 72.378906 42.71875 L 73.457031 42.71875 L 74.222656 45.4375 L 74.941406 42.71875 L 76.003906 42.71875 L 76.691406 45.4375 L 77.488281 42.71875 L 78.566406 42.71875 L 77.238281 46.875 L 76.175781 46.875 L 75.472656 44.203125 L 74.769531 46.875 Z M 73.691406 46.875 "/>
<path style=" stroke:none;fill-rule:nonzero;fill:rgb(0%,0%,0%);fill-opacity:1;" d="M 78.957031 48.472656 L 78.957031 44.894531 L 80.191406 44.894531 C 80.460938 44.894531 80.667969 44.910156 80.816406 44.941406 C 81.023438 44.996094 81.199219 45.082031 81.347656 45.207031 C 81.535156 45.363281 81.675781 45.566406 81.769531 45.816406 C 81.863281 46.066406 81.910156 46.347656 81.910156 46.660156 C 81.910156 46.933594 81.878906 47.175781 81.816406 47.394531 C 81.753906 47.605469 81.667969 47.777344 81.566406 47.910156 C 81.472656 48.046875 81.363281 48.15625 81.238281 48.238281 C 81.121094 48.3125 80.980469 48.371094 80.816406 48.410156 C 80.648438 48.453125 80.457031 48.472656 80.238281 48.472656 Z M 79.425781 48.050781 L 80.191406 48.050781 C 80.429688 48.050781 80.613281 48.03125 80.738281 47.988281 C 80.871094 47.949219 80.980469 47.886719 81.066406 47.800781 C 81.179688 47.6875 81.269531 47.535156 81.332031 47.347656 C 81.394531 47.160156 81.425781 46.933594 81.425781 46.660156 C 81.425781 46.285156 81.363281 46 81.238281 45.800781 C 81.113281 45.59375 80.960938 45.457031 80.785156 45.394531 C 80.660156 45.34375 80.457031 45.316406 80.175781 45.316406 L 79.425781 45.316406 Z M 79.425781 48.050781 "/>
<path style=" stroke:none;fill-rule:nonzero;fill:rgb(0%,0%,0%);fill-opacity:1;" d="M 82.324219 48.472656 L 83.699219 44.894531 L 84.199219 44.894531 L 85.667969 48.472656 L 85.121094 48.472656 L 84.714844 47.394531 L 83.214844 47.394531 L 82.824219 48.472656 Z M 83.355469 47.003906 L 84.558594 47.003906 L 84.183594 46.003906 C 84.066406 45.714844 83.984375 45.46875 83.933594 45.269531 C 83.890625 45.5 83.828125 45.730469 83.746094 45.957031 Z M 83.355469 47.003906 "/>
<path style=" stroke:none;fill-rule:nonzero;fill:rgb(0%,0%,0%);fill-opacity:1;" d="M 88.734375 47.222656 L 89.203125 47.332031 C 89.109375 47.730469 88.929688 48.03125 88.671875 48.238281 C 88.410156 48.4375 88.097656 48.535156 87.734375 48.535156 C 87.347656 48.535156 87.03125 48.457031 86.78125 48.300781 C 86.539062 48.144531 86.359375 47.921875 86.234375 47.628906 C 86.109375 47.328125 86.046875 47.003906 86.046875 46.660156 C 86.046875 46.285156 86.113281 45.964844 86.25 45.691406 C 86.394531 45.410156 86.597656 45.199219 86.859375 45.050781 C 87.128906 44.90625 87.421875 44.832031 87.734375 44.832031 C 88.085938 44.832031 88.382812 44.925781 88.625 45.113281 C 88.875 45.292969 89.050781 45.546875 89.15625 45.878906 L 88.6875 45.988281 C 88.601562 45.730469 88.476562 45.542969 88.3125 45.425781 C 88.15625 45.300781 87.957031 45.238281 87.71875 45.238281 C 87.445312 45.238281 87.21875 45.308594 87.03125 45.441406 C 86.851562 45.566406 86.722656 45.746094 86.640625 45.972656 C 86.566406 46.191406 86.53125 46.421875 86.53125 46.660156 C 86.53125 46.964844 86.570312 47.230469 86.65625 47.457031 C 86.75 47.675781 86.890625 47.84375 87.078125 47.957031 C 87.265625 48.074219 87.46875 48.128906 87.6875 48.128906 C 87.957031 48.128906 88.179688 48.058594 88.359375 47.910156 C 88.546875 47.753906 88.671875 47.527344 88.734375 47.222656 Z M 88.734375 47.222656 "/>
<path style=" stroke:none;fill-rule:nonzero;fill:rgb(0%,0%,0%);fill-opacity:1;" d="M 88.777344 76.679688 L 87.464844 72.523438 L 88.542969 72.523438 L 89.308594 75.242188 L 90.027344 72.523438 L 91.089844 72.523438 L 91.777344 75.242188 L 92.574219 72.523438 L 93.652344 72.523438 L 92.324219 76.679688 L 91.261719 76.679688 L 90.558594 74.007812 L 89.855469 76.679688 Z M 88.777344 76.679688 "/>
<path style=" stroke:none;fill-rule:nonzero;fill:rgb(0%,0%,0%);fill-opacity:1;" d="M 93.871094 77.121094 L 94.324219 77.089844 C 94.34375 77.269531 94.390625 77.414062 94.464844 77.527344 C 94.546875 77.644531 94.667969 77.738281 94.824219 77.808594 C 94.988281 77.882812 95.175781 77.917969 95.386719 77.917969 C 95.5625 77.917969 95.71875 77.894531 95.855469 77.839844 C 96 77.777344 96.105469 77.699219 96.167969 77.605469 C 96.238281 77.511719 96.277344 77.414062 96.277344 77.308594 C 96.277344 77.195312 96.238281 77.097656 96.167969 77.011719 C 96.105469 76.929688 96 76.855469 95.855469 76.792969 C 95.75 76.761719 95.53125 76.710938 95.199219 76.636719 C 94.875 76.554688 94.652344 76.476562 94.527344 76.402344 C 94.347656 76.308594 94.21875 76.199219 94.136719 76.074219 C 94.050781 75.941406 94.011719 75.789062 94.011719 75.621094 C 94.011719 75.445312 94.0625 75.277344 94.167969 75.121094 C 94.269531 74.964844 94.421875 74.847656 94.621094 74.761719 C 94.816406 74.679688 95.035156 74.636719 95.277344 74.636719 C 95.535156 74.636719 95.765625 74.679688 95.964844 74.761719 C 96.171875 74.847656 96.328125 74.972656 96.433594 75.136719 C 96.546875 75.304688 96.609375 75.492188 96.621094 75.699219 L 96.167969 75.746094 C 96.136719 75.519531 96.046875 75.347656 95.902344 75.230469 C 95.765625 75.117188 95.5625 75.058594 95.292969 75.058594 C 95.011719 75.058594 94.800781 75.113281 94.667969 75.214844 C 94.53125 75.320312 94.464844 75.445312 94.464844 75.589844 C 94.464844 75.714844 94.511719 75.820312 94.605469 75.902344 C 94.699219 75.988281 94.9375 76.074219 95.324219 76.167969 C 95.707031 76.253906 95.972656 76.324219 96.121094 76.386719 C 96.328125 76.492188 96.480469 76.617188 96.574219 76.761719 C 96.675781 76.910156 96.730469 77.074219 96.730469 77.261719 C 96.730469 77.460938 96.671875 77.644531 96.558594 77.808594 C 96.453125 77.976562 96.296875 78.105469 96.089844 78.199219 C 95.890625 78.292969 95.660156 78.339844 95.402344 78.339844 C 95.078125 78.339844 94.808594 78.292969 94.589844 78.199219 C 94.371094 78.105469 94.199219 77.964844 94.074219 77.777344 C 93.949219 77.582031 93.878906 77.363281 93.871094 77.121094 Z M 93.871094 77.121094 "/>
<path style=" stroke:none;fill-rule:nonzero;fill:rgb(0%,0%,0%);fill-opacity:1;" d="M 97.128906 78.277344 L 98.503906 74.699219 L 99.003906 74.699219 L 100.472656 78.277344 L 99.925781 78.277344 L 99.519531 77.199219 L 98.019531 77.199219 L 97.628906 78.277344 Z M 98.160156 76.808594 L 99.363281 76.808594 L 98.988281 75.808594 C 98.871094 75.519531 98.789062 75.273438 98.738281 75.074219 C 98.695312 75.304688 98.632812 75.535156 98.550781 75.761719 Z M 98.160156 76.808594 "/>
<path style=" stroke:none;fill-rule:nonzero;fill:rgb(0%,0%,0%);fill-opacity:1;" d="M 100.992188 78.277344 L 100.992188 74.699219 L 102.585938 74.699219 C 102.898438 74.699219 103.136719 74.730469 103.304688 74.792969 C 103.46875 74.855469 103.601562 74.972656 103.695312 75.136719 C 103.796875 75.304688 103.851562 75.480469 103.851562 75.667969 C 103.851562 75.929688 103.765625 76.148438 103.601562 76.324219 C 103.445312 76.492188 103.195312 76.601562 102.851562 76.652344 C 102.976562 76.714844 103.070312 76.773438 103.132812 76.824219 C 103.265625 76.949219 103.398438 77.113281 103.523438 77.308594 L 104.148438 78.277344 L 103.554688 78.277344 L 103.085938 77.527344 C 102.9375 77.320312 102.820312 77.160156 102.726562 77.042969 C 102.640625 76.929688 102.5625 76.851562 102.492188 76.808594 C 102.429688 76.757812 102.359375 76.722656 102.289062 76.699219 C 102.226562 76.691406 102.136719 76.683594 102.023438 76.683594 L 101.460938 76.683594 L 101.460938 78.277344 Z M 101.460938 76.277344 L 102.492188 76.277344 C 102.699219 76.277344 102.867188 76.257812 102.992188 76.214844 C 103.117188 76.164062 103.210938 76.089844 103.273438 75.996094 C 103.335938 75.902344 103.367188 75.792969 103.367188 75.667969 C 103.367188 75.503906 103.304688 75.367188 103.179688 75.261719 C 103.054688 75.148438 102.859375 75.089844 102.601562 75.089844 L 101.460938 75.089844 Z M 101.460938 76.277344 "/>
<path style="fill-rule:nonzero;fill:rgb(100%,100%,100%);fill-opacity:1;stroke-width:1.219137;stroke-linecap:butt;stroke-linejoin:miter;stroke:rgb(0%,0%,0%);stroke-opacity:1;stroke-miterlimit:4;" d="M 96.022148 -66.988281 L 86.426384 -61.449219 L 86.426384 -72.53125 L 91.224266 -69.757812 Z M 96.022148 -66.988281 " transform="matrix(0.968852,0,0,-1,0,0)"/>
<path style=" stroke:none;fill-rule:evenodd;fill:rgb(100%,100%,100%);fill-opacity:1;" d="M 130.253906 63.988281 L 130.253906 70.070312 L 139.414062 70.070312 L 142.375 67.105469 L 139.335938 64.066406 Z M 130.253906 63.988281 "/>
<g clip-path="url(#clip2)" clip-rule="nonzero">
<path style="fill:none;stroke-width:1.2;stroke-linecap:butt;stroke-linejoin:miter;stroke:rgb(0%,0%,0%);stroke-opacity:1;stroke-miterlimit:4;" d="M 130.253906 63.988281 L 130.253906 70.070312 L 139.414062 70.070312 L 142.375 67.105469 L 139.335938 64.066406 Z M 130.253906 63.988281 "/>
</g>
<path style=" stroke:none;fill-rule:nonzero;fill:rgb(0%,0%,0%);fill-opacity:1;" d="M 131.523438 78.359375 C 131.917969 78.632812 132.28125 78.828125 132.617188 78.953125 L 132.367188 79.546875 C 131.898438 79.378906 131.433594 79.113281 130.976562 78.75 C 130.496094 79.023438 129.96875 79.15625 129.398438 79.15625 C 128.8125 79.15625 128.28125 79.015625 127.804688 78.734375 C 127.335938 78.453125 126.96875 78.058594 126.710938 77.546875 C 126.460938 77.039062 126.335938 76.464844 126.335938 75.828125 C 126.335938 75.195312 126.460938 74.617188 126.710938 74.09375 C 126.96875 73.574219 127.339844 73.179688 127.820312 72.90625 C 128.296875 72.625 128.828125 72.484375 129.414062 72.484375 C 130.007812 72.484375 130.542969 72.632812 131.023438 72.921875 C 131.5 73.203125 131.867188 73.601562 132.117188 74.109375 C 132.367188 74.609375 132.492188 75.183594 132.492188 75.828125 C 132.492188 76.351562 132.40625 76.824219 132.242188 77.25 C 132.085938 77.679688 131.84375 78.046875 131.523438 78.359375 Z M 129.648438 77.265625 C 130.136719 77.402344 130.542969 77.605469 130.867188 77.875 C 131.367188 77.429688 131.617188 76.746094 131.617188 75.828125 C 131.617188 75.296875 131.527344 74.839844 131.351562 74.453125 C 131.171875 74.070312 130.914062 73.765625 130.570312 73.546875 C 130.226562 73.328125 129.839844 73.21875 129.414062 73.21875 C 128.777344 73.21875 128.25 73.4375 127.835938 73.875 C 127.417969 74.3125 127.210938 74.964844 127.210938 75.828125 C 127.210938 76.664062 127.417969 77.304688 127.835938 77.75 C 128.25 78.199219 128.777344 78.421875 129.414062 78.421875 C 129.726562 78.421875 130.015625 78.367188 130.289062 78.25 C 130.015625 78.085938 129.734375 77.964844 129.445312 77.890625 Z M 129.648438 77.265625 "/>
<g clip-path="url(#clip3)" clip-rule="nonzero">
<path style=" stroke:none;fill-rule:nonzero;fill:rgb(0%,0%,0%);fill-opacity:1;" d="M 133.011719 78.695312 C 133.011719 77.988281 133.199219 77.429688 133.574219 77.023438 C 133.957031 76.617188 134.453125 76.414062 135.058594 76.414062 C 135.453125 76.414062 135.808594 76.515625 136.121094 76.710938 C 136.441406 76.898438 136.6875 77.164062 136.855469 77.507812 C 137.019531 77.84375 137.105469 78.222656 137.105469 78.648438 C 137.105469 79.085938 137.015625 79.476562 136.839844 79.820312 C 136.671875 80.164062 136.425781 80.425781 136.105469 80.601562 C 135.78125 80.78125 135.433594 80.867188 135.058594 80.867188 C 134.652344 80.867188 134.285156 80.769531 133.964844 80.570312 C 133.652344 80.375 133.410156 80.109375 133.246094 79.773438 C 133.089844 79.429688 133.011719 79.070312 133.011719 78.695312 Z M 133.589844 78.710938 C 133.589844 79.222656 133.730469 79.628906 134.011719 79.929688 C 134.292969 80.234375 134.640625 80.382812 135.058594 80.382812 C 135.484375 80.382812 135.832031 80.234375 136.105469 79.929688 C 136.386719 79.628906 136.527344 79.203125 136.527344 78.648438 C 136.527344 78.296875 136.464844 77.988281 136.339844 77.726562 C 136.222656 77.46875 136.050781 77.269531 135.824219 77.132812 C 135.605469 76.988281 135.347656 76.914062 135.058594 76.914062 C 134.660156 76.914062 134.316406 77.054688 134.027344 77.335938 C 133.734375 77.609375 133.589844 78.066406 133.589844 78.710938 Z M 133.589844 78.710938 "/>
</g>
<g clip-path="url(#clip4)" clip-rule="nonzero">
<path style=" stroke:none;fill-rule:nonzero;fill:rgb(0%,0%,0%);fill-opacity:1;" d="M 140.394531 76.492188 L 140.957031 76.492188 L 140.957031 78.976562 C 140.957031 79.40625 140.910156 79.75 140.816406 80.007812 C 140.722656 80.257812 140.542969 80.46875 140.285156 80.632812 C 140.035156 80.789062 139.699219 80.867188 139.285156 80.867188 C 138.878906 80.867188 138.542969 80.796875 138.285156 80.664062 C 138.035156 80.519531 137.851562 80.316406 137.738281 80.054688 C 137.632812 79.796875 137.582031 79.4375 137.582031 78.976562 L 137.582031 76.492188 L 138.160156 76.492188 L 138.160156 78.976562 C 138.160156 79.351562 138.191406 79.628906 138.253906 79.804688 C 138.324219 79.972656 138.445312 80.109375 138.613281 80.210938 C 138.777344 80.304688 138.988281 80.351562 139.238281 80.351562 C 139.652344 80.351562 139.949219 80.257812 140.128906 80.070312 C 140.304688 79.875 140.394531 79.507812 140.394531 78.976562 Z M 140.394531 76.492188 "/>
</g>
<g clip-path="url(#clip5)" clip-rule="nonzero">
<path style=" stroke:none;fill-rule:nonzero;fill:rgb(0%,0%,0%);fill-opacity:1;" d="M 142.765625 80.789062 L 142.765625 77.007812 L 141.34375 77.007812 L 141.34375 76.492188 L 144.75 76.492188 L 144.75 77.007812 L 143.328125 77.007812 L 143.328125 80.789062 Z M 142.765625 80.789062 "/>
</g>
<path style=" stroke:none;fill-rule:nonzero;fill:rgb(0%,0%,0%);fill-opacity:1;" d="M 36.871094 14.808594 L 34.085938 16.105469 L 31.304688 17.402344 L 31.304688 12.210938 L 34.085938 13.511719 Z M 36.871094 14.808594 "/>
<path style=" stroke:none;fill-rule:nonzero;fill:rgb(0%,0%,0%);fill-opacity:1;" d="M 43.75 21.285156 L 45.050781 24.066406 L 46.347656 26.851562 L 41.15625 26.851562 L 42.453125 24.066406 Z M 43.75 21.285156 "/>
<path style=" stroke:none;fill-rule:nonzero;fill:rgb(0%,0%,0%);fill-opacity:1;" d="M 70.3125 67.167969 C 70.3125 68.019531 69.625 68.710938 68.773438 68.710938 C 67.921875 68.710938 67.234375 68.019531 67.234375 67.167969 C 67.234375 66.320312 67.921875 65.628906 68.773438 65.628906 C 69.625 65.628906 70.3125 66.320312 70.3125 67.167969 Z M 70.3125 67.167969 "/>
<path style=" stroke:none;fill-rule:nonzero;fill:rgb(0%,0%,0%);fill-opacity:1;" d="M 22.054688 14.933594 C 22.054688 15.785156 21.363281 16.472656 20.515625 16.472656 C 19.664062 16.472656 18.972656 15.785156 18.972656 14.933594 C 18.972656 14.082031 19.664062 13.394531 20.515625 13.394531 C 21.363281 13.394531 22.054688 14.082031 22.054688 14.933594 Z M 22.054688 14.933594 "/>
<path style="fill:none;stroke-width:1.2;stroke-linecap:round;stroke-linejoin:miter;stroke:rgb(0%,0%,0%);stroke-opacity:1;stroke-miterlimit:4;" d="M 47.804688 29.984375 L 52.671875 29.984375 "/>
<path style=" stroke:none;fill-rule:nonzero;fill:rgb(100%,100%,100%);fill-opacity:1;" d="M 121.667969 66.992188 C 121.667969 70.480469 118.839844 73.304688 115.355469 73.304688 C 111.867188 73.304688 109.039062 70.480469 109.039062 66.992188 C 109.039062 63.503906 111.867188 60.679688 115.355469 60.679688 C 118.839844 60.679688 121.667969 63.503906 121.667969 66.992188 Z M 121.667969 66.992188 "/>
<g clip-path="url(#clip6)" clip-rule="nonzero">
<path style="fill:none;stroke-width:1.2;stroke-linecap:butt;stroke-linejoin:miter;stroke:rgb(0%,0%,0%);stroke-opacity:1;stroke-miterlimit:4;" d="M 121.667969 66.992188 C 121.667969 70.480469 118.839844 73.304688 115.355469 73.304688 C 111.867188 73.304688 109.039062 70.480469 109.039062 66.992188 C 109.039062 63.503906 111.867188 60.679688 115.355469 60.679688 C 118.839844 60.679688 121.667969 63.503906 121.667969 66.992188 Z M 121.667969 66.992188 "/>
</g>
<path style="fill:none;stroke-width:1.2;stroke-linecap:round;stroke-linejoin:miter;stroke:rgb(0%,0%,0%);stroke-opacity:1;stroke-miterlimit:4;" d="M 115.277344 70.417969 L 115.277344 63.953125 "/>
<path style="fill:none;stroke-width:1.2;stroke-linecap:round;stroke-linejoin:miter;stroke:rgb(0%,0%,0%);stroke-opacity:1;stroke-miterlimit:4;" d="M 118.511719 67.1875 L 112.046875 67.1875 "/>
<path style=" stroke:none;fill-rule:nonzero;fill:rgb(0%,0%,0%);fill-opacity:1;" d="M 115.425781 61.183594 L 116.722656 58.402344 L 118.019531 55.617188 L 112.832031 55.617188 L 114.128906 58.402344 Z M 115.425781 61.183594 "/>
<path style=" stroke:none;fill-rule:nonzero;fill:rgb(0%,0%,0%);fill-opacity:1;" d="M 108.597656 67.171875 L 105.8125 68.46875 L 103.03125 69.765625 L 103.03125 64.578125 L 105.8125 65.875 Z M 108.597656 67.171875 "/>
<path style="fill-rule:evenodd;fill:rgb(100%,100%,100%);fill-opacity:1;stroke-width:1.2;stroke-linecap:butt;stroke-linejoin:miter;stroke:rgb(0%,0%,0%);stroke-opacity:1;stroke-miterlimit:4;" d="M 56.5 14.867188 L 60.640625 7.339844 L 81.914062 7.339844 L 81.914062 22.378906 L 60.640625 22.378906 Z M 56.5 14.867188 "/>
<path style=" stroke:none;fill-rule:nonzero;fill:rgb(0%,0%,0%);fill-opacity:1;" d="M 69.289062 11.511719 L 69.289062 12.261719 L 65.835938 12.261719 L 68.023438 14.605469 L 65.835938 17.183594 L 69.476562 17.183594 L 69.476562 17.949219 L 64.914062 17.949219 L 64.914062 17.058594 L 67.007812 14.605469 L 64.914062 12.371094 L 64.914062 11.511719 Z M 69.289062 11.511719 "/>
<path style=" stroke:none;fill-rule:nonzero;fill:rgb(0%,0%,0%);fill-opacity:1;" d="M 69.816406 17.949219 L 72.300781 11.511719 L 73.222656 11.511719 L 75.847656 17.949219 Z M 71.003906 17.183594 L 74.582031 17.183594 L 73.191406 13.511719 C 72.980469 12.972656 72.832031 12.527344 72.738281 12.183594 C 72.652344 12.582031 72.539062 12.992188 72.394531 13.417969 Z M 71.003906 17.183594 "/>
<path style="fill-rule:nonzero;fill:rgb(100%,100%,100%);fill-opacity:1;stroke-width:1.219137;stroke-linecap:butt;stroke-linejoin:miter;stroke:rgb(0%,0%,0%);stroke-opacity:1;stroke-miterlimit:4;" d="M 46.499136 115.363281 L 41.701254 118.136719 L 36.903372 120.90625 L 36.903372 109.824219 Z M 46.499136 115.363281 " transform="matrix(0,0.968852,1,0,0,0)"/>
<path style=" stroke:none;fill-rule:nonzero;fill:rgb(0%,0%,0%);fill-opacity:1;" d="M 2.617188 6.234375 L 0.132812 -0.203125 L 1.054688 -0.203125 L 2.726562 4.46875 C 2.859375 4.84375 2.96875 5.199219 3.054688 5.53125 C 3.15625 5.179688 3.277344 4.824219 3.414062 4.46875 L 5.148438 -0.203125 L 6.023438 -0.203125 L 3.492188 6.234375 Z M 2.617188 6.234375 "/>
<path style=" stroke:none;fill-rule:nonzero;fill:rgb(0%,0%,0%);fill-opacity:1;" d="M 6.464844 3.679688 L 7.027344 3.679688 L 7.027344 7.976562 L 6.464844 7.976562 Z M 6.464844 3.679688 "/>
<path style=" stroke:none;fill-rule:nonzero;fill:rgb(0%,0%,0%);fill-opacity:1;" d="M 7.925781 7.976562 L 7.925781 3.679688 L 8.519531 3.679688 L 10.769531 7.054688 L 10.769531 3.679688 L 11.316406 3.679688 L 11.316406 7.976562 L 10.738281 7.976562 L 8.472656 4.601562 L 8.472656 7.976562 Z M 7.925781 7.976562 "/>
<path style="fill-rule:evenodd;fill:rgb(100%,100%,100%);fill-opacity:1;stroke-width:1.2;stroke-linecap:butt;stroke-linejoin:miter;stroke:rgb(0%,0%,0%);stroke-opacity:1;stroke-miterlimit:4;" d="M 0.601562 11.707031 L 0.601562 17.789062 L 9.761719 17.789062 L 12.722656 14.824219 L 9.683594 11.785156 Z M 0.601562 11.707031 "/>
<path style=" stroke:none;fill-rule:nonzero;fill:rgb(0%,0%,0%);fill-opacity:1;" d="M 123.261719 45.9375 L 123.261719 46.609375 L 119.480469 46.609375 C 119.46875 46.445312 119.496094 46.28125 119.558594 46.125 C 119.652344 45.867188 119.800781 45.609375 120.011719 45.359375 C 120.230469 45.109375 120.535156 44.820312 120.933594 44.484375 C 121.558594 43.976562 121.980469 43.574219 122.199219 43.28125 C 122.417969 42.980469 122.527344 42.699219 122.527344 42.4375 C 122.527344 42.15625 122.425781 41.921875 122.230469 41.734375 C 122.03125 41.539062 121.769531 41.4375 121.449219 41.4375 C 121.113281 41.4375 120.84375 41.542969 120.636719 41.75 C 120.4375 41.949219 120.332031 42.230469 120.324219 42.59375 L 119.605469 42.515625 C 119.65625 41.976562 119.84375 41.5625 120.167969 41.28125 C 120.488281 41 120.921875 40.859375 121.464844 40.859375 C 122.015625 40.859375 122.449219 41.011719 122.761719 41.3125 C 123.082031 41.617188 123.246094 41.996094 123.246094 42.453125 C 123.246094 42.683594 123.199219 42.90625 123.105469 43.125 C 123.011719 43.34375 122.855469 43.578125 122.636719 43.828125 C 122.425781 44.070312 122.066406 44.402344 121.558594 44.828125 C 121.140625 45.183594 120.871094 45.421875 120.746094 45.546875 C 120.628906 45.671875 120.53125 45.804688 120.449219 45.9375 Z M 123.261719 45.9375 "/>
<path style=" stroke:none;fill-rule:nonzero;fill:rgb(0%,0%,0%);fill-opacity:1;" d="M 123.839844 41.890625 L 125.199219 41.890625 L 125.199219 42.328125 L 123.839844 42.328125 Z M 123.839844 41.890625 "/>
<path style=" stroke:none;fill-rule:nonzero;fill:rgb(0%,0%,0%);fill-opacity:1;" d="M 125.796875 43.40625 L 125.796875 39.828125 L 126.28125 39.828125 L 128.171875 42.640625 L 128.171875 39.828125 L 128.625 39.828125 L 128.625 43.40625 L 128.140625 43.40625 L 126.25 40.59375 L 126.25 43.40625 Z M 125.796875 43.40625 "/>
<path style="fill-rule:nonzero;fill:rgb(100%,100%,100%);fill-opacity:1;stroke-width:1.2;stroke-linecap:butt;stroke-linejoin:miter;stroke:rgb(0%,0%,0%);stroke-opacity:1;stroke-miterlimit:4;" d="M 105.828125 7.125 L 125.027344 7.125 L 125.027344 22.585938 L 105.828125 22.585938 Z M 105.828125 7.125 "/>
<path style=" stroke:none;fill-rule:nonzero;fill:rgb(0%,0%,0%);fill-opacity:1;" d="M 109.140625 15.976562 L 107.828125 11.820312 L 108.90625 11.820312 L 109.671875 14.539062 L 110.390625 11.820312 L 111.453125 11.820312 L 112.140625 14.539062 L 112.9375 11.820312 L 114.015625 11.820312 L 112.6875 15.976562 L 111.625 15.976562 L 110.921875 13.304688 L 110.21875 15.976562 Z M 109.140625 15.976562 "/>
<path style=" stroke:none;fill-rule:nonzero;fill:rgb(0%,0%,0%);fill-opacity:1;" d="M 114.421875 17.578125 L 114.421875 14 L 116.84375 14 L 116.84375 14.421875 L 114.90625 14.421875 L 114.90625 15.53125 L 116.578125 15.53125 L 116.578125 15.953125 L 114.90625 15.953125 L 114.90625 17.578125 Z M 114.421875 17.578125 "/>
<path style=" stroke:none;fill-rule:nonzero;fill:rgb(0%,0%,0%);fill-opacity:1;" d="M 117.664062 14 L 118.132812 14 L 118.132812 17.578125 L 117.664062 17.578125 Z M 117.664062 14 "/>
<path style=" stroke:none;fill-rule:nonzero;fill:rgb(0%,0%,0%);fill-opacity:1;" d="M 119.027344 17.578125 L 119.027344 14 L 120.621094 14 C 120.933594 14 121.171875 14.03125 121.339844 14.09375 C 121.503906 14.15625 121.636719 14.273438 121.730469 14.4375 C 121.832031 14.605469 121.886719 14.78125 121.886719 14.96875 C 121.886719 15.230469 121.800781 15.449219 121.636719 15.625 C 121.480469 15.792969 121.230469 15.902344 120.886719 15.953125 C 121.011719 16.015625 121.105469 16.074219 121.167969 16.125 C 121.300781 16.25 121.433594 16.414062 121.558594 16.609375 L 122.183594 17.578125 L 121.589844 17.578125 L 121.121094 16.828125 C 120.972656 16.621094 120.855469 16.460938 120.761719 16.34375 C 120.675781 16.230469 120.597656 16.152344 120.527344 16.109375 C 120.464844 16.058594 120.394531 16.023438 120.324219 16 C 120.261719 15.992188 120.171875 15.984375 120.058594 15.984375 L 119.496094 15.984375 L 119.496094 17.578125 Z M 119.496094 15.578125 L 120.527344 15.578125 C 120.734375 15.578125 120.902344 15.558594 121.027344 15.515625 C 121.152344 15.464844 121.246094 15.390625 121.308594 15.296875 C 121.371094 15.203125 121.402344 15.09375 121.402344 14.96875 C 121.402344 14.804688 121.339844 14.667969 121.214844 14.5625 C 121.089844 14.449219 120.894531 14.390625 120.636719 14.390625 L 119.496094 14.390625 Z M 119.496094 15.578125 "/>
<path style=" stroke:none;fill-rule:nonzero;fill:rgb(0%,0%,0%);fill-opacity:1;" d="M 92.6875 10.183594 C 93 10.414062 93.34375 10.597656 93.71875 10.730469 L 93.25 11.636719 C 93.050781 11.582031 92.859375 11.503906 92.671875 11.402344 C 92.628906 11.378906 92.34375 11.1875 91.8125 10.824219 C 91.382812 11.011719 90.914062 11.105469 90.40625 11.105469 C 89.414062 11.105469 88.640625 10.816406 88.078125 10.230469 C 87.515625 9.648438 87.234375 8.832031 87.234375 7.777344 C 87.234375 6.726562 87.515625 5.910156 88.078125 5.324219 C 88.640625 4.742188 89.40625 4.449219 90.375 4.449219 C 91.320312 4.449219 92.078125 4.742188 92.640625 5.324219 C 93.203125 5.910156 93.484375 6.726562 93.484375 7.777344 C 93.484375 8.332031 93.40625 8.820312 93.25 9.246094 C 93.132812 9.570312 92.945312 9.882812 92.6875 10.183594 Z M 91.640625 9.449219 C 91.804688 9.253906 91.929688 9.011719 92.015625 8.730469 C 92.097656 8.449219 92.140625 8.132812 92.140625 7.777344 C 92.140625 7.027344 91.972656 6.472656 91.640625 6.105469 C 91.316406 5.742188 90.890625 5.558594 90.359375 5.558594 C 89.828125 5.558594 89.394531 5.746094 89.0625 6.121094 C 88.738281 6.488281 88.578125 7.039062 88.578125 7.777344 C 88.578125 8.527344 88.738281 9.089844 89.0625 9.464844 C 89.394531 9.839844 89.8125 10.027344 90.3125 10.027344 C 90.5 10.027344 90.679688 9.996094 90.859375 9.933594 C 90.585938 9.757812 90.316406 9.621094 90.046875 9.527344 L 90.40625 8.792969 C 90.832031 8.941406 91.242188 9.160156 91.640625 9.449219 Z M 91.640625 9.449219 "/>
<path style=" stroke:none;fill-rule:nonzero;fill:rgb(0%,0%,0%);fill-opacity:1;" d="M 96.972656 8.441406 L 96.972656 8.957031 L 94.660156 8.957031 L 96.128906 10.503906 L 94.660156 12.238281 L 97.082031 12.238281 L 97.082031 12.738281 L 94.050781 12.738281 L 94.050781 12.144531 L 95.457031 10.503906 L 94.050781 9.019531 L 94.050781 8.441406 Z M 96.972656 8.441406 "/>
<path style=" stroke:none;fill-rule:nonzero;fill:rgb(0%,0%,0%);fill-opacity:1;" d="M 97.117188 12.738281 L 98.757812 8.441406 L 99.367188 8.441406 L 101.132812 12.738281 Z M 97.898438 12.238281 L 100.289062 12.238281 L 99.351562 9.785156 C 99.214844 9.421875 99.117188 9.125 99.054688 8.894531 C 99 9.15625 98.921875 9.425781 98.820312 9.707031 Z M 97.898438 12.238281 "/>
<path style=" stroke:none;fill-rule:nonzero;fill:rgb(0%,0%,0%);fill-opacity:1;" d="M 59.222656 73.753906 C 59.535156 73.984375 59.878906 74.167969 60.253906 74.300781 L 59.785156 75.207031 C 59.585938 75.152344 59.394531 75.074219 59.207031 74.972656 C 59.164062 74.949219 58.878906 74.757812 58.347656 74.394531 C 57.917969 74.582031 57.449219 74.675781 56.941406 74.675781 C 55.949219 74.675781 55.175781 74.386719 54.613281 73.800781 C 54.050781 73.21875 53.769531 72.402344 53.769531 71.347656 C 53.769531 70.296875 54.050781 69.480469 54.613281 68.894531 C 55.175781 68.3125 55.941406 68.019531 56.910156 68.019531 C 57.855469 68.019531 58.613281 68.3125 59.175781 68.894531 C 59.738281 69.480469 60.019531 70.296875 60.019531 71.347656 C 60.019531 71.902344 59.941406 72.390625 59.785156 72.816406 C 59.667969 73.140625 59.480469 73.453125 59.222656 73.753906 Z M 58.175781 73.019531 C 58.339844 72.824219 58.464844 72.582031 58.550781 72.300781 C 58.632812 72.019531 58.675781 71.703125 58.675781 71.347656 C 58.675781 70.597656 58.507812 70.042969 58.175781 69.675781 C 57.851562 69.3125 57.425781 69.128906 56.894531 69.128906 C 56.363281 69.128906 55.929688 69.316406 55.597656 69.691406 C 55.273438 70.058594 55.113281 70.609375 55.113281 71.347656 C 55.113281 72.097656 55.273438 72.660156 55.597656 73.035156 C 55.929688 73.410156 56.347656 73.597656 56.847656 73.597656 C 57.035156 73.597656 57.214844 73.566406 57.394531 73.503906 C 57.121094 73.328125 56.851562 73.191406 56.582031 73.097656 L 56.941406 72.363281 C 57.367188 72.511719 57.777344 72.730469 58.175781 73.019531 Z M 58.175781 73.019531 "/>
<path style=" stroke:none;fill-rule:nonzero;fill:rgb(0%,0%,0%);fill-opacity:1;" d="M 60.414062 74.933594 L 60.960938 74.886719 C 60.980469 75.097656 61.039062 75.273438 61.132812 75.417969 C 61.226562 75.554688 61.367188 75.664062 61.554688 75.746094 C 61.75 75.832031 61.976562 75.871094 62.226562 75.871094 C 62.445312 75.871094 62.632812 75.839844 62.789062 75.777344 C 62.953125 75.714844 63.078125 75.628906 63.164062 75.511719 C 63.246094 75.398438 63.289062 75.273438 63.289062 75.136719 C 63.289062 75.003906 63.246094 74.886719 63.164062 74.792969 C 63.089844 74.691406 62.964844 74.605469 62.789062 74.542969 C 62.671875 74.492188 62.417969 74.417969 62.023438 74.324219 C 61.625 74.230469 61.351562 74.144531 61.195312 74.058594 C 60.984375 73.957031 60.828125 73.824219 60.726562 73.667969 C 60.632812 73.503906 60.585938 73.320312 60.585938 73.121094 C 60.585938 72.902344 60.640625 72.699219 60.757812 72.511719 C 60.882812 72.324219 61.0625 72.183594 61.304688 72.089844 C 61.542969 71.988281 61.808594 71.933594 62.101562 71.933594 C 62.414062 71.933594 62.6875 71.988281 62.929688 72.089844 C 63.179688 72.195312 63.367188 72.347656 63.492188 72.542969 C 63.625 72.742188 63.699219 72.972656 63.710938 73.230469 L 63.164062 73.261719 C 63.132812 72.992188 63.03125 72.789062 62.867188 72.652344 C 62.699219 72.507812 62.449219 72.433594 62.117188 72.433594 C 61.773438 72.433594 61.523438 72.503906 61.367188 72.636719 C 61.210938 72.761719 61.132812 72.914062 61.132812 73.089844 C 61.132812 73.246094 61.1875 73.371094 61.304688 73.464844 C 61.40625 73.570312 61.6875 73.675781 62.148438 73.777344 C 62.617188 73.882812 62.933594 73.972656 63.101562 74.042969 C 63.351562 74.160156 63.53125 74.304688 63.648438 74.480469 C 63.773438 74.660156 63.835938 74.863281 63.835938 75.089844 C 63.835938 75.320312 63.765625 75.539062 63.632812 75.746094 C 63.507812 75.945312 63.320312 76.101562 63.070312 76.214844 C 62.828125 76.328125 62.554688 76.386719 62.242188 76.386719 C 61.855469 76.386719 61.53125 76.328125 61.273438 76.214844 C 61.011719 76.101562 60.804688 75.929688 60.648438 75.699219 C 60.5 75.472656 60.421875 75.214844 60.414062 74.933594 Z M 60.414062 74.933594 "/>
<path style=" stroke:none;fill-rule:nonzero;fill:rgb(0%,0%,0%);fill-opacity:1;" d="M 63.914062 76.308594 L 65.570312 72.011719 L 66.179688 72.011719 L 67.945312 76.308594 L 67.289062 76.308594 L 66.789062 75.011719 L 64.992188 75.011719 L 64.523438 76.308594 Z M 65.164062 74.542969 L 66.617188 74.542969 L 66.164062 73.355469 C 66.027344 72.992188 65.929688 72.695312 65.867188 72.464844 C 65.8125 72.738281 65.734375 73.007812 65.632812 73.277344 Z M 65.164062 74.542969 "/>
<path style=" stroke:none;fill-rule:nonzero;fill:rgb(0%,0%,0%);fill-opacity:1;" d="M 68.179688 76.308594 L 68.179688 72.011719 L 70.085938 72.011719 C 70.46875 72.011719 70.761719 72.054688 70.960938 72.136719 C 71.15625 72.210938 71.3125 72.347656 71.429688 72.542969 C 71.554688 72.730469 71.617188 72.945312 71.617188 73.183594 C 71.617188 73.488281 71.515625 73.742188 71.320312 73.949219 C 71.121094 74.160156 70.820312 74.292969 70.414062 74.355469 C 70.558594 74.429688 70.667969 74.503906 70.742188 74.574219 C 70.90625 74.722656 71.070312 74.910156 71.226562 75.136719 L 71.960938 76.308594 L 71.257812 76.308594 L 70.679688 75.417969 C 70.511719 75.160156 70.375 74.960938 70.273438 74.824219 C 70.167969 74.691406 70.070312 74.597656 69.976562 74.542969 C 69.890625 74.480469 69.808594 74.441406 69.726562 74.417969 C 69.664062 74.410156 69.558594 74.402344 69.414062 74.402344 L 68.757812 74.402344 L 68.757812 76.308594 Z M 68.757812 73.902344 L 69.976562 73.902344 C 70.234375 73.902344 70.4375 73.878906 70.585938 73.824219 C 70.730469 73.773438 70.839844 73.691406 70.914062 73.574219 C 70.984375 73.449219 71.023438 73.320312 71.023438 73.183594 C 71.023438 72.988281 70.949219 72.820312 70.804688 72.683594 C 70.65625 72.550781 70.429688 72.480469 70.117188 72.480469 L 68.757812 72.480469 Z M 68.757812 73.902344 "/>
</g>
</svg>
