<?xml version="1.0" encoding="UTF-8" standalone="no"?>
<svg
   width="282.384155pt"
   height="119.299454pt"
   viewBox="0 0 282.384155 119.299454"
   version="1.1"
   id="svg26201"
   sodipodi:docname="FDP.svg"
   inkscape:version="1.2 (dc2aedaf03, 2022-05-15)"
   xmlns:inkscape="http://www.inkscape.org/namespaces/inkscape"
   xmlns:sodipodi="http://sodipodi.sourceforge.net/DTD/sodipodi-0.dtd"
   xmlns="http://www.w3.org/2000/svg"
   xmlns:svg="http://www.w3.org/2000/svg">
  <sodipodi:namedview
     id="namedview26203"
     pagecolor="#505050"
     bordercolor="#eeeeee"
     borderopacity="1"
     inkscape:showpageshadow="0"
     inkscape:pageopacity="0"
     inkscape:pagecheckerboard="0"
     inkscape:deskcolor="#505050"
     inkscape:document-units="pt"
     showgrid="false"
     inkscape:zoom="4.2309385"
     inkscape:cx="188.37428"
     inkscape:cy="79.533181"
     inkscape:window-width="3840"
     inkscape:window-height="2080"
     inkscape:window-x="-11"
     inkscape:window-y="-11"
     inkscape:window-maximized="1"
     inkscape:current-layer="svg26201" />
  <defs
     id="defs25884">
    <clipPath
       id="clip1">
      <path
         d="M 111 111 L 117 111 L 117 119.300781 L 111 119.300781 Z M 111 111 "
         id="path25866" />
    </clipPath>
    <clipPath
       id="clip2">
      <path
         d="M 143 111 L 148 111 L 148 119.300781 L 143 119.300781 Z M 143 111 "
         id="path25869" />
    </clipPath>
    <clipPath
       id="clip3">
      <path
         d="M 170 112 L 176 112 L 176 119.300781 L 170 119.300781 Z M 170 112 "
         id="path25872" />
    </clipPath>
    <clipPath
       id="clip4">
      <path
         d="M 178 110 L 181 110 L 181 119.300781 L 178 119.300781 Z M 178 110 "
         id="path25875" />
    </clipPath>
    <clipPath
       id="clip5">
      <path
         d="M 193 110 L 196 110 L 196 119.300781 L 193 119.300781 Z M 193 110 "
         id="path25878" />
    </clipPath>
    <clipPath
       id="clip6">
      <path
         d="M 279 93 L 282.382812 93 L 282.382812 99 L 279 99 Z M 279 93 "
         id="path25881" />
    </clipPath>
  </defs>
  <g
     id="g26899">
    <path
       style="fill:#ffffff;fill-opacity:1;fill-rule:nonzero;stroke:none"
       d="M 4.980469,70.238281 4.902344,69.34375 C 5.261719,69.304688 5.554688,69.207031 5.785156,69.050781 6.015625,68.894531 6.199219,68.65625 6.34375,68.328125 6.484375,68.003906 6.554688,67.636719 6.554688,67.230469 6.554688,66.871094 6.5,66.550781 6.390625,66.273438 6.285156,65.996094 6.136719,65.792969 5.953125,65.660156 5.761719,65.523438 5.558594,65.453125 5.335938,65.453125 5.113281,65.453125 4.917969,65.519531 4.75,65.648438 4.582031,65.78125 4.441406,65.996094 4.328125,66.292969 4.25,66.484375 4.136719,66.910156 3.980469,67.566406 3.820312,68.226562 3.671875,68.6875 3.53125,68.949219 c -0.179688,0.34375 -0.402344,0.597656 -0.664062,0.765625 -0.269532,0.167968 -0.566407,0.25 -0.894532,0.25 -0.363281,0 -0.699218,-0.101563 -1.011718,-0.308594 C 0.644531,69.453125 0.40625,69.152344 0.246094,68.757812 0.0820312,68.367188 0,67.929688 0,67.445312 c 0,-0.53125 0.0859375,-0.996093 0.257812,-1.402343 0.171876,-0.40625 0.421876,-0.71875 0.753907,-0.9375 0.332031,-0.214844 0.707031,-0.332031 1.128906,-0.351563 l 0.066406,0.910156 c -0.453125,0.04688 -0.792969,0.214844 -1.023437,0.496094 -0.234375,0.28125 -0.347656,0.695313 -0.347656,1.246094 0,0.574219 0.105468,0.992188 0.316406,1.253906 0.207031,0.261719 0.460937,0.390625 0.757812,0.390625 0.257813,0 0.46875,-0.08984 0.632813,-0.277343 0.167969,-0.179688 0.339843,-0.65625 0.515625,-1.425782 0.171875,-0.769531 0.320312,-1.300781 0.453125,-1.585937 0.191406,-0.417969 0.433593,-0.722657 0.730469,-0.921875 0.292968,-0.199219 0.632812,-0.300782 1.015624,-0.300782 0.382813,0 0.742188,0.109376 1.082032,0.328126 0.332031,0.21875 0.59375,0.53125 0.785156,0.941406 0.183594,0.410156 0.277344,0.867187 0.277344,1.378906 0,0.648438 -0.09375,1.191406 -0.28125,1.628906 -0.191406,0.4375 -0.472656,0.78125 -0.851563,1.03125 -0.378906,0.25 -0.808593,0.378906 -1.289062,0.390625 z m 0,0"
       id="path26056" />
    <path
       style="fill:#ffffff;fill-opacity:1;fill-rule:nonzero;stroke:none"
       d="M 7.28125,63.246094 H 0.121094 V 62.273438 L 5.742188,58.515625 H 0.121094 V 57.605469 H 7.28125 v 0.972656 l -5.625,3.761719 h 5.625 z m 0,0"
       id="path26058" />
    <path
       style="fill:#ffffff;fill-opacity:1;fill-rule:nonzero;stroke:none"
       d="M 7.28125,56.011719 H 0.121094 v -2.46875 c 0,-0.554688 0.035156,-0.980469 0.105468,-1.273438 0.09375,-0.410156 0.261719,-0.757812 0.511719,-1.050781 0.316407,-0.375 0.726563,-0.65625 1.226563,-0.84375 0.492187,-0.1875 1.058594,-0.28125 1.699218,-0.28125 0.542969,0 1.023438,0.0625 1.445313,0.1875 0.417969,0.128906 0.765625,0.292969 1.042969,0.488281 0.273437,0.199219 0.488281,0.417969 0.648437,0.65625 0.15625,0.234375 0.277344,0.519531 0.359375,0.855469 0.078125,0.332031 0.121094,0.714844 0.121094,1.144531 z M 6.4375,55.0625 V 53.535156 C 6.4375,53.0625 6.390625,52.695312 6.304688,52.425781 6.214844,52.15625 6.09375,51.941406 5.933594,51.78125 5.707031,51.558594 5.40625,51.382812 5.03125,51.257812 c -0.382812,-0.125 -0.84375,-0.1875 -1.382812,-0.1875 -0.75,0 -1.324219,0.121094 -1.722657,0.371094 C 1.519531,51.683594 1.25,51.980469 1.113281,52.332031 1.015625,52.585938 0.96875,52.996094 0.96875,53.558594 V 55.0625 Z m 0,0"
       id="path26060" />
    <path
       style="fill:#ffffff;fill-opacity:1;fill-rule:nonzero;stroke:none"
       d="M 7.28125,48.769531 H 0.121094 V 45.59375 c 0,-0.636719 0.066406,-1.121094 0.195312,-1.453125 0.128906,-0.332031 0.355469,-0.597656 0.679688,-0.796875 0.324218,-0.199219 0.683594,-0.296875 1.078125,-0.296875 0.507812,0 0.9375,0.164063 1.285156,0.492187 0.347656,0.328126 0.570313,0.835938 0.664063,1.523438 0.121093,-0.25 0.238281,-0.441406 0.355468,-0.570312 0.253906,-0.277344 0.574219,-0.539063 0.953125,-0.785157 L 7.28125,42.460938 v 1.191406 L 5.792969,44.597656 C 5.363281,44.875 5.03125,45.105469 4.804688,45.28125 4.578125,45.460938 4.417969,45.625 4.328125,45.765625 4.234375,45.90625 4.171875,46.050781 4.136719,46.195312 4.113281,46.304688 4.101562,46.480469 4.101562,46.722656 v 1.097656 H 7.28125 Z m -4,-0.949219 v -2.035156 c 0,-0.433594 -0.042969,-0.769531 -0.132812,-1.015625 C 3.058594,44.527344 2.914062,44.339844 2.71875,44.214844 2.519531,44.085938 2.304688,44.023438 2.074219,44.023438 c -0.335938,0 -0.617188,0.125 -0.832031,0.371093 -0.21875,0.242188 -0.328126,0.632813 -0.328126,1.160157 v 2.265624 z m 0,0"
       id="path26062" />
    <path
       style="fill:#ffffff;fill-opacity:1;fill-rule:nonzero;stroke:none"
       d="M 9.269531,38.875 H 0.121094 v -1.9375 h 0.730468 v 1.058594 h 7.6875 V 36.9375 h 0.730469 z m 0,0"
       id="path26064" />
    <path
       style="fill:#ffffff;fill-opacity:1;fill-rule:nonzero;stroke:none"
       d="M 7.28125,32.757812 H 6.625 c 0.515625,0.328126 0.773438,0.8125 0.773438,1.449219 0,0.414063 -0.113282,0.796875 -0.34375,1.144531 -0.226563,0.34375 -0.542969,0.613282 -0.949219,0.804688 -0.410157,0.191406 -0.882813,0.285156 -1.414063,0.285156 -0.515625,0 -0.984375,-0.08594 -1.40625,-0.261718 C 2.863281,36.007812 2.539062,35.75 2.316406,35.40625 2.089844,35.058594 1.976562,34.675781 1.976562,34.246094 c 0,-0.3125 0.066407,-0.589844 0.203126,-0.832032 0.128906,-0.246093 0.300781,-0.445312 0.511718,-0.597656 H 0.121094 v -0.875 H 7.28125 Z m -2.589844,2.777344 c 0.664063,0 1.160156,-0.136718 1.492188,-0.417968 0.328125,-0.28125 0.492187,-0.609376 0.492187,-0.992188 0,-0.382812 -0.15625,-0.707031 -0.46875,-0.976562 -0.316406,-0.269532 -0.796875,-0.40625 -1.441406,-0.40625 -0.710937,0 -1.230469,0.136718 -1.5625,0.410156 -0.332031,0.273437 -0.496094,0.613281 -0.496094,1.011718 0,0.390626 0.15625,0.71875 0.476563,0.980469 0.320312,0.261719 0.820312,0.390625 1.507812,0.390625 z m 0,0"
       id="path26066" />
    <path
       style="fill:#ffffff;fill-opacity:1;fill-rule:nonzero;stroke:none"
       d="M 7.28125,30.484375 H 0.121094 v -2.6875 c 0,-0.546875 0.074218,-0.984375 0.222656,-1.3125 0.140625,-0.332031 0.363281,-0.589844 0.667969,-0.777344 0.296875,-0.1875 0.613281,-0.28125 0.941406,-0.28125 0.304687,0 0.59375,0.08203 0.863281,0.246094 0.269532,0.167969 0.488282,0.417969 0.65625,0.753906 0.125,-0.433593 0.34375,-0.765625 0.648438,-0.996093 0.304687,-0.234376 0.667968,-0.351563 1.085937,-0.351563 0.332031,0 0.644531,0.07031 0.9375,0.214844 0.285157,0.140625 0.507813,0.3125 0.664063,0.523437 0.15625,0.207032 0.273437,0.46875 0.355468,0.785156 0.078126,0.3125 0.117188,0.695313 0.117188,1.152344 z M 3.128906,29.535156 v -1.546875 c 0,-0.421875 -0.027344,-0.722656 -0.082031,-0.902343 -0.070313,-0.242188 -0.191406,-0.421876 -0.355469,-0.542969 -0.167968,-0.125 -0.375,-0.1875 -0.625,-0.1875 -0.238281,0 -0.445312,0.05859 -0.625,0.171875 C 1.257812,26.640625 1.132812,26.804688 1.070312,27.015625 1,27.226562 0.96875,27.589844 0.96875,28.105469 v 1.429687 z m 3.308594,0 v -1.78125 c 0,-0.304687 -0.011719,-0.519531 -0.035156,-0.644531 C 6.363281,26.890625 6.296875,26.707031 6.207031,26.5625 6.113281,26.414062 5.984375,26.296875 5.8125,26.199219 5.636719,26.105469 5.433594,26.058594 5.207031,26.058594 c -0.269531,0 -0.5,0.07031 -0.695312,0.207031 -0.199219,0.136719 -0.335938,0.324219 -0.414063,0.570313 -0.082031,0.242187 -0.121094,0.589843 -0.121094,1.042968 v 1.65625 z m 0,0"
       id="path26068" />
    <path
       style="fill:#ffffff;fill-opacity:1;fill-rule:nonzero;stroke:none"
       d="m 9.269531,22.40625 v 1.9375 H 8.539062 v -1.058594 h -7.6875 V 24.34375 H 0.121094 v -1.9375 z m 0,0"
       id="path26070" />
    <path
       style="fill:#ffffff;fill-opacity:1;fill-rule:nonzero;stroke:none"
       d="m 103.85547,110.03516 h 0.94531 v 7.16015 h -0.94531 z m 0,0"
       id="path26072" />
    <path
       style="fill:#ffffff;fill-opacity:1;fill-rule:nonzero;stroke:none"
       d="m 106.35547,117.19531 v -5.1875 h 0.78906 v 0.73828 c 0.38281,-0.57031 0.9336,-0.85546 1.65235,-0.85546 0.3125,0 0.59765,0.0586 0.85937,0.17187 0.26172,0.10938 0.46094,0.25781 0.58984,0.44141 0.12891,0.17968 0.22266,0.39843 0.27344,0.64843 0.0312,0.16407 0.0508,0.44532 0.0508,0.85547 v 3.1875 h -0.8789 v -3.15625 c 0,-0.35547 -0.0352,-0.625 -0.10547,-0.80078 -0.0664,-0.17578 -0.1875,-0.32031 -0.36328,-0.42187 -0.17578,-0.10938 -0.37891,-0.16407 -0.61328,-0.16407 -0.375,0 -0.69532,0.1211 -0.96875,0.35938 -0.27344,0.23437 -0.40625,0.6875 -0.40625,1.35156 v 2.83203 z m 0,0"
       id="path26074" />
    <g
       clip-path="url(#clip1)"
       clip-rule="nonzero"
       id="g26078"
       style="stroke:none;fill:#ffffff">
      <path
         style="fill:#ffffff;fill-opacity:1;fill-rule:nonzero;stroke:none"
         d="m 111.92188,119.18359 v -7.17578 h 0.80078 v 0.67578 c 0.1875,-0.26562 0.40234,-0.46093 0.64062,-0.58984 0.23438,-0.13672 0.52344,-0.20312 0.86328,-0.20312 0.44141,0 0.83203,0.11718 1.17188,0.34375 0.33594,0.22656 0.59375,0.55078 0.76562,0.96484 0.17188,0.41406 0.25782,0.86719 0.25782,1.36328 0,0.53125 -0.0937,1.00781 -0.28516,1.4375 -0.19141,0.42188 -0.46875,0.74609 -0.83203,0.97656 -0.35938,0.22266 -0.74219,0.33594 -1.14063,0.33594 -0.29297,0 -0.55859,-0.0625 -0.79297,-0.1875 -0.23046,-0.12109 -0.42187,-0.27734 -0.57031,-0.46875 v 2.52734 z m 0.79687,-4.55078 c 0,0.66407 0.13281,1.16016 0.40234,1.47657 0.26954,0.32031 0.59766,0.48046 0.98438,0.48046 0.39062,0 0.72266,-0.16406 1,-0.49218 0.27734,-0.33203 0.41797,-0.84766 0.41797,-1.53907 0,-0.66015 -0.13672,-1.15625 -0.41016,-1.48437 -0.26953,-0.32813 -0.59375,-0.49219 -0.96875,-0.49219 -0.375,0 -0.70703,0.17578 -0.99609,0.52735 -0.28906,0.34765 -0.42969,0.85546 -0.42969,1.52343 z m 0,0"
         id="path26076" />
    </g>
    <path
       style="fill:#ffffff;fill-opacity:1;fill-rule:nonzero;stroke:none"
       d="m 120.88672,117.19531 v -0.76172 c -0.40625,0.58594 -0.95313,0.87891 -1.64453,0.87891 -0.3086,0 -0.59375,-0.0586 -0.85938,-0.17578 -0.26562,-0.11719 -0.46093,-0.26563 -0.59375,-0.44141 -0.125,-0.17578 -0.21484,-0.39453 -0.26562,-0.65234 -0.0391,-0.17188 -0.0547,-0.44531 -0.0547,-0.82031 v -3.21485 h 0.87891 v 2.87891 c 0,0.45703 0.0156,0.76562 0.0547,0.92578 0.0547,0.23047 0.17188,0.41406 0.35157,0.54688 0.17578,0.1289 0.39843,0.19531 0.66406,0.19531 0.26172,0 0.50781,-0.0664 0.74219,-0.19922 0.23047,-0.13672 0.39062,-0.32031 0.48828,-0.55078 0.0977,-0.23438 0.14453,-0.57422 0.14453,-1.01563 v -2.78125 h 0.87891 v 5.1875 z m 0,0"
       id="path26080" />
    <path
       style="fill:#ffffff;fill-opacity:1;fill-rule:nonzero;stroke:none"
       d="m 124.97266,116.41016 0.1289,0.77343 c -0.25,0.0547 -0.46875,0.0781 -0.66406,0.0781 -0.32031,0 -0.56641,-0.0508 -0.74219,-0.14844 -0.17578,-0.10156 -0.30078,-0.23437 -0.37109,-0.39844 -0.0742,-0.16406 -0.10938,-0.51171 -0.10938,-1.03906 v -2.98437 h -0.64453 v -0.6836 h 0.64453 v -1.28125 l 0.875,-0.52734 v 1.80859 h 0.88282 v 0.6836 h -0.88282 v 3.03515 c 0,0.25 0.0156,0.41016 0.043,0.48047 0.0312,0.0742 0.082,0.12891 0.15235,0.17188 0.0703,0.043 0.17187,0.0625 0.30078,0.0625 0.0977,0 0.22656,-0.0117 0.38672,-0.0312 z m 0,0"
       id="path26082" />
    <path
       style="fill:#ffffff;fill-opacity:1;fill-rule:nonzero;stroke:none"
       d="m 128.76172,117.19531 v -7.16015 h 4.82812 v 0.84765 h -3.8789 v 2.21485 h 3.35937 v 0.84375 h -3.35937 v 3.2539 z m 0,0"
       id="path26084" />
    <path
       style="fill:#ffffff;fill-opacity:1;fill-rule:nonzero;stroke:none"
       d="m 134.70312,117.19531 v -5.1875 h 0.79297 v 0.78907 c 0.19922,-0.3711 0.38672,-0.61329 0.55469,-0.73047 0.17188,-0.11719 0.36328,-0.17578 0.56641,-0.17578 0.29687,0 0.59765,0.0977 0.90625,0.28515 l -0.30469,0.81641 c -0.21484,-0.12891 -0.42969,-0.19141 -0.64453,-0.19141 -0.19141,0 -0.36328,0.0586 -0.51563,0.17578 -0.15625,0.11328 -0.26562,0.27344 -0.32812,0.47657 -0.0977,0.3125 -0.14844,0.65625 -0.14844,1.02734 v 2.71484 z m 0,0"
       id="path26086" />
    <path
       style="fill:#ffffff;fill-opacity:1;fill-rule:nonzero;stroke:none"
       d="m 141.60547,115.52344 0.90625,0.11328 c -0.14453,0.53125 -0.41016,0.94141 -0.79688,1.23437 -0.38672,0.29297 -0.88281,0.44141 -1.48437,0.44141 -0.75781,0 -1.35938,-0.23437 -1.80469,-0.69922 -0.44531,-0.46875 -0.66406,-1.125 -0.66406,-1.96875 0,-0.87109 0.22265,-1.54687 0.67187,-2.03125 0.44922,-0.48047 1.03125,-0.72265 1.75,-0.72265 0.69141,0 1.25782,0.23828 1.69922,0.71093 0.4375,0.46875 0.66016,1.13282 0.66016,1.99219 0,0.0508 -0.004,0.12891 -0.008,0.23438 h -3.86719 c 0.0352,0.5664 0.19531,1.0039 0.48437,1.30859 0.28907,0.30078 0.65235,0.45312 1.08594,0.45312 0.32031,0 0.59766,-0.0859 0.82422,-0.2539 0.22656,-0.16797 0.40625,-0.44141 0.54297,-0.8125 z m -2.88672,-1.41797 h 2.89453 c -0.0391,-0.4375 -0.14844,-0.76563 -0.33203,-0.98438 -0.28125,-0.33593 -0.64453,-0.50781 -1.08984,-0.50781 -0.40235,0 -0.74219,0.13672 -1.01954,0.40625 -0.27343,0.26953 -0.42578,0.63281 -0.45312,1.08594 z m 0,0"
       id="path26088" />
    <g
       clip-path="url(#clip2)"
       clip-rule="nonzero"
       id="g26092"
       style="stroke:none;fill:#ffffff">
      <path
         style="fill:#ffffff;fill-opacity:1;fill-rule:nonzero;stroke:none"
         d="m 146.92578,119.18359 v -2.53906 c -0.13672,0.19141 -0.32812,0.35156 -0.57422,0.47656 -0.24609,0.12891 -0.50781,0.19141 -0.78125,0.19141 -0.61719,0 -1.14844,-0.24609 -1.59375,-0.73828 -0.4414,-0.49219 -0.66406,-1.16406 -0.66406,-2.01953 0,-0.52344 0.0898,-0.98828 0.26953,-1.40235 0.17969,-0.41406 0.44531,-0.72656 0.78516,-0.9375 0.34375,-0.21484 0.72265,-0.32421 1.13281,-0.32421 0.64062,0 1.14453,0.27343 1.51562,0.8125 v -0.69532 h 0.78907 v 7.17578 z m -2.71094,-4.59765 c 0,0.66797 0.14063,1.17187 0.42188,1.5039 0.27734,0.33204 0.61328,0.5 1.0039,0.5 0.375,0 0.69922,-0.16015 0.96875,-0.47265 0.26954,-0.32031 0.40625,-0.80469 0.40625,-1.45313 0,-0.6875 -0.14453,-1.20703 -0.42968,-1.55468 -0.28516,-0.35157 -0.61719,-0.52344 -1.00391,-0.52344 -0.37891,0 -0.70312,0.16406 -0.96875,0.48828 -0.26562,0.32031 -0.39844,0.82812 -0.39844,1.51172 z m 0,0"
         id="path26090" />
    </g>
    <path
       style="fill:#ffffff;fill-opacity:1;fill-rule:nonzero;stroke:none"
       d="m 152.58594,117.19531 v -0.76172 c -0.40625,0.58594 -0.95313,0.87891 -1.64453,0.87891 -0.3086,0 -0.59375,-0.0586 -0.85938,-0.17578 -0.26562,-0.11719 -0.46094,-0.26563 -0.59375,-0.44141 -0.125,-0.17578 -0.21484,-0.39453 -0.26562,-0.65234 -0.0391,-0.17188 -0.0547,-0.44531 -0.0547,-0.82031 v -3.21485 h 0.8789 v 2.87891 c 0,0.45703 0.0156,0.76562 0.0547,0.92578 0.0547,0.23047 0.17188,0.41406 0.35156,0.54688 0.17579,0.1289 0.39844,0.19531 0.66407,0.19531 0.26172,0 0.50781,-0.0664 0.74218,-0.19922 0.23047,-0.13672 0.39063,-0.32031 0.48829,-0.55078 0.0977,-0.23438 0.14453,-0.57422 0.14453,-1.01563 v -2.78125 h 0.8789 v 5.1875 z m 0,0"
       id="path26094" />
    <path
       style="fill:#ffffff;fill-opacity:1;fill-rule:nonzero;stroke:none"
       d="m 158.30469,115.52344 0.90625,0.11328 c -0.14453,0.53125 -0.41016,0.94141 -0.79688,1.23437 -0.38672,0.29297 -0.88281,0.44141 -1.48437,0.44141 -0.75782,0 -1.35938,-0.23437 -1.80469,-0.69922 -0.44531,-0.46875 -0.66406,-1.125 -0.66406,-1.96875 0,-0.87109 0.22265,-1.54687 0.67187,-2.03125 0.44922,-0.48047 1.03125,-0.72265 1.75,-0.72265 0.69141,0 1.25781,0.23828 1.69922,0.71093 0.4375,0.46875 0.66016,1.13282 0.66016,1.99219 0,0.0508 -0.004,0.12891 -0.008,0.23438 h -3.86718 c 0.0352,0.5664 0.19531,1.0039 0.48437,1.30859 0.28906,0.30078 0.65235,0.45312 1.08594,0.45312 0.32031,0 0.59766,-0.0859 0.82422,-0.2539 0.22656,-0.16797 0.40625,-0.44141 0.54297,-0.8125 z m -2.88672,-1.41797 h 2.89453 c -0.0391,-0.4375 -0.14844,-0.76563 -0.33203,-0.98438 -0.28125,-0.33593 -0.64453,-0.50781 -1.08985,-0.50781 -0.40234,0 -0.74218,0.13672 -1.01953,0.40625 -0.27343,0.26953 -0.42578,0.63281 -0.45312,1.08594 z m 0,0"
       id="path26096" />
    <path
       style="fill:#ffffff;fill-opacity:1;fill-rule:nonzero;stroke:none"
       d="m 160.32031,117.19531 v -5.1875 h 0.78906 v 0.73828 c 0.38282,-0.57031 0.9336,-0.85546 1.65235,-0.85546 0.3125,0 0.59765,0.0586 0.85937,0.17187 0.26172,0.10938 0.46094,0.25781 0.58985,0.44141 0.1289,0.17968 0.22265,0.39843 0.27343,0.64843 0.0312,0.16407 0.0508,0.44532 0.0508,0.85547 v 3.1875 h -0.87891 v -3.15625 c 0,-0.35547 -0.0352,-0.625 -0.10547,-0.80078 -0.0664,-0.17578 -0.1875,-0.32031 -0.36328,-0.42187 -0.17578,-0.10938 -0.37891,-0.16407 -0.61328,-0.16407 -0.375,0 -0.69531,0.1211 -0.96875,0.35938 -0.27344,0.23437 -0.40625,0.6875 -0.40625,1.35156 v 2.83203 z m 0,0"
       id="path26098" />
    <path
       style="fill:#ffffff;fill-opacity:1;fill-rule:nonzero;stroke:none"
       d="m 169.26953,115.29688 0.86328,0.10937 c -0.0937,0.59766 -0.33594,1.0625 -0.72656,1.40234 -0.38672,0.33594 -0.86328,0.50391 -1.42969,0.50391 -0.71094,0 -1.28125,-0.23047 -1.71484,-0.69531 -0.42969,-0.46485 -0.64453,-1.12891 -0.64453,-1.9961 0,-0.55859 0.0937,-1.05078 0.27734,-1.46875 0.1875,-0.42187 0.46875,-0.73437 0.84766,-0.9414 0.3789,-0.21485 0.79297,-0.32031 1.23828,-0.32031 0.5625,0 1.02344,0.14453 1.38281,0.42968 0.35547,0.28516 0.58594,0.6875 0.6875,1.21094 l -0.85547,0.13281 c -0.082,-0.34765 -0.22656,-0.60937 -0.43359,-0.78515 -0.20313,-0.17578 -0.45313,-0.26563 -0.7461,-0.26563 -0.44531,0 -0.80468,0.16016 -1.07812,0.48047 -0.27734,0.31641 -0.41797,0.81641 -0.41797,1.50391 0,0.69531 0.13281,1.20312 0.40234,1.51953 0.26563,0.3125 0.61329,0.47265 1.04297,0.47265 0.34766,0 0.63282,-0.10546 0.86719,-0.3164 0.23047,-0.21485 0.375,-0.53906 0.4375,-0.97656 z m 0,0"
       id="path26100" />
    <g
       clip-path="url(#clip3)"
       clip-rule="nonzero"
       id="g26104"
       style="stroke:none;fill:#ffffff">
      <path
         style="fill:#ffffff;fill-opacity:1;fill-rule:nonzero;stroke:none"
         d="m 170.84766,119.19141 -0.0977,-0.82422 c 0.19141,0.0508 0.35937,0.0781 0.50391,0.0781 0.19531,0 0.35156,-0.0312 0.46875,-0.0977 0.11718,-0.0664 0.21093,-0.15625 0.28515,-0.27344 0.0547,-0.0898 0.14453,-0.30469 0.26953,-0.65625 0.0156,-0.0469 0.043,-0.11719 0.0781,-0.21484 l -1.96875,-5.19532 h 0.94922 l 1.07812,3.00391 c 0.14063,0.38281 0.26563,0.78125 0.375,1.20312 0.10156,-0.40625 0.22266,-0.80078 0.36328,-1.18359 l 1.10938,-3.02344 h 0.8789 l -1.97265,5.27344 c -0.21485,0.57031 -0.37891,0.96484 -0.4961,1.17969 -0.15625,0.28906 -0.33593,0.5 -0.53515,0.63281 -0.20313,0.13672 -0.44531,0.20703 -0.72266,0.20703 -0.17187,0 -0.35937,-0.0391 -0.5664,-0.10937 z m 0,0"
         id="path26102" />
    </g>
    <g
       clip-path="url(#clip4)"
       clip-rule="nonzero"
       id="g26108"
       style="stroke:none;fill:#ffffff">
      <path
         style="fill:#ffffff;fill-opacity:1;fill-rule:nonzero;stroke:none"
         d="m 178.67969,119.18359 v -9.14843 h 1.9375 v 0.73047 h -1.0586 v 7.6875 h 1.0586 v 0.73046 z m 0,0"
         id="path26106" />
    </g>
    <path
       style="fill:#ffffff;fill-opacity:1;fill-rule:nonzero;stroke:none"
       d="m 181.57422,117.19531 v -7.16015 h 0.94922 v 2.9414 h 3.71875 v -2.9414 h 0.94922 v 7.16015 h -0.94922 v -3.375 h -3.71875 v 3.375 z m 0,0"
       id="path26110" />
    <path
       style="fill:#ffffff;fill-opacity:1;fill-rule:nonzero;stroke:none"
       d="m 188.19531,117.19531 v -0.71484 l 3.30078,-3.78906 c -0.375,0.0195 -0.70312,0.0312 -0.99218,0.0312 h -2.11329 v -0.71485 h 4.23829 v 0.58203 l -2.8086,3.29297 -0.53906,0.59766 c 0.39062,-0.0273 0.76172,-0.043 1.10547,-0.043 h 2.39844 v 0.75781 z m 0,0"
       id="path26112" />
    <g
       clip-path="url(#clip5)"
       clip-rule="nonzero"
       id="g26116"
       style="stroke:none;fill:#ffffff">
      <path
         style="fill:#ffffff;fill-opacity:1;fill-rule:nonzero;stroke:none"
         d="m 195.12891,119.18359 h -1.9375 v -0.73046 H 194.25 v -7.6875 h -1.05859 v -0.73047 h 1.9375 z m 0,0"
         id="path26114" />
    </g>
    <path
       style="fill:#ffffff;fill-opacity:1;fill-rule:nonzero;stroke:none"
       d="m 271.62109,102.28906 h -0.8789 v -5.597654 c -0.21094,0.199219 -0.48828,0.402344 -0.83203,0.605469 -0.34375,0.199219 -0.65235,0.351563 -0.92579,0.453125 v -0.851562 c 0.49219,-0.230469 0.92188,-0.507813 1.28907,-0.839844 0.36718,-0.328125 0.6289,-0.644532 0.78125,-0.957032 h 0.5664 z m 0,0"
       id="path26118" />
    <path
       style="fill:#ffffff;fill-opacity:1;fill-rule:nonzero;stroke:none"
       d="m 273.87891,98.761719 c 0,-0.847657 0.0859,-1.527344 0.25781,-2.042969 0.17578,-0.515625 0.43359,-0.914062 0.77734,-1.195312 0.34375,-0.28125 0.77735,-0.421876 1.29688,-0.421876 0.38672,0 0.72265,0.07813 1.01172,0.234376 0.28906,0.15625 0.52734,0.378906 0.71875,0.671874 0.1875,0.289063 0.33593,0.644532 0.44531,1.0625 0.10547,0.417969 0.16015,0.980469 0.16015,1.691407 0,0.839843 -0.0859,1.515621 -0.25781,2.035161 -0.17578,0.51562 -0.43359,0.91406 -0.77734,1.19531 -0.34375,0.28125 -0.77735,0.42187 -1.30078,0.42187 -0.6875,0 -1.23047,-0.25 -1.625,-0.74218 -0.47266,-0.59766 -0.70703,-1.56641 -0.70703,-2.910161 z m 0.90234,0 c 0,1.175781 0.13672,1.957031 0.41016,2.347661 0.27734,0.38671 0.61718,0.58203 1.01953,0.58203 0.40625,0 0.74218,-0.19532 1.01562,-0.58594 0.27735,-0.39063 0.41797,-1.171876 0.41797,-2.343751 0,-1.179688 -0.14062,-1.960938 -0.41797,-2.351563 -0.27344,-0.386718 -0.61328,-0.578125 -1.02344,-0.578125 -0.40625,0 -0.72656,0.167969 -0.96875,0.511719 -0.30078,0.4375 -0.45312,1.242188 -0.45312,2.417969 z m 0,0"
       id="path26120" />
    <g
       clip-path="url(#clip6)"
       clip-rule="nonzero"
       id="g26124"
       style="stroke:none;fill:#ffffff">
      <path
         style="fill:#ffffff;fill-opacity:1;fill-rule:nonzero;stroke:none"
         d="m 279.30078,97.070312 0.59766,-0.05078 c 0.0469,0.292969 0.14843,0.515625 0.30859,0.660157 0.16406,0.148437 0.35938,0.222656 0.58594,0.222656 0.27734,0 0.50781,-0.105469 0.69922,-0.3125 0.1914,-0.207032 0.28515,-0.484375 0.28515,-0.824219 0,-0.328125 -0.0898,-0.585937 -0.27734,-0.773437 -0.17969,-0.1875 -0.41797,-0.28125 -0.71484,-0.28125 -0.1836,0 -0.35157,0.04297 -0.5,0.125 -0.14844,0.08594 -0.26172,0.191406 -0.34766,0.324218 l -0.53516,-0.07031 0.44922,-2.386719 h 2.3125 v 0.542969 h -1.85547 l -0.25,1.25 c 0.27735,-0.191406 0.57032,-0.289063 0.87891,-0.289063 0.40625,0 0.75,0.140625 1.02734,0.421875 0.28125,0.28125 0.41797,0.640625 0.41797,1.085938 0,0.417968 -0.12109,0.785156 -0.36719,1.089844 -0.29687,0.378906 -0.70703,0.566406 -1.22265,0.566406 -0.42188,0 -0.76953,-0.121094 -1.03516,-0.355469 -0.26953,-0.238281 -0.42187,-0.550781 -0.45703,-0.945313 z m 0,0"
         id="path26122" />
    </g>
    <path
       style="fill:#ffffff;fill-opacity:1;fill-rule:nonzero;stroke:none"
       d="m 210.05859,102.35547 h -0.8789 v -5.601564 c -0.21485,0.203125 -0.49219,0.402344 -0.83594,0.605469 C 208,97.5625 207.69531,97.710938 207.42187,97.8125 v -0.847656 c 0.48829,-0.230469 0.91797,-0.511719 1.28907,-0.839844 0.36718,-0.328125 0.625,-0.648438 0.78125,-0.957031 h 0.5664 z m 0,0"
       id="path26126" />
    <path
       style="fill:#ffffff;fill-opacity:1;fill-rule:nonzero;stroke:none"
       d="m 212.3125,98.824219 c 0,-0.847657 0.0859,-1.527344 0.25781,-2.042969 0.17578,-0.515625 0.4375,-0.914062 0.77735,-1.195312 0.34375,-0.277344 0.77734,-0.417969 1.30078,-0.417969 0.38281,0 0.71875,0.07813 1.00781,0.234375 0.28906,0.152344 0.53125,0.375 0.71875,0.667968 0.1875,0.289063 0.33594,0.644532 0.44531,1.0625 0.10547,0.417969 0.16016,0.980469 0.16016,1.691407 0,0.839843 -0.0859,1.519531 -0.25781,2.035161 -0.17188,0.51562 -0.4336,0.91406 -0.77735,1.19531 -0.33984,0.28125 -0.77344,0.42187 -1.29687,0.42187 -0.69141,0 -1.23438,-0.24609 -1.62891,-0.74218 -0.47266,-0.59766 -0.70703,-1.56641 -0.70703,-2.910161 z m 0.90234,0 c 0,1.175781 0.13672,1.957031 0.41016,2.347661 0.27734,0.38671 0.61719,0.58203 1.02344,0.58203 0.40234,0 0.74218,-0.19532 1.01562,-0.58594 0.27344,-0.39063 0.41406,-1.171876 0.41406,-2.343751 0,-1.179688 -0.14062,-1.960938 -0.41406,-2.347657 -0.27344,-0.386718 -0.61719,-0.582031 -1.02734,-0.582031 -0.40235,0 -0.72656,0.171875 -0.96485,0.511719 -0.30468,0.4375 -0.45703,1.242188 -0.45703,2.417969 z m 0,0"
       id="path26128" />
    <path
       style="fill:#ffffff;fill-opacity:1;fill-rule:nonzero;stroke:none"
       d="m 219.56641,98.355469 v -1.113281 h -2.01954 v -0.527344 l 2.1211,-3.011719 h 0.46875 v 3.011719 h 0.6289 v 0.527344 h -0.6289 v 1.113281 z m 0,-1.640625 v -2.097656 l -1.45704,2.097656 z m 0,0"
       id="path26130" />
    <path
       style="fill:#ffffff;fill-opacity:1;fill-rule:nonzero;stroke:none"
       d="m 148.45312,102.375 h -0.8789 v -5.601562 c -0.21094,0.203124 -0.48828,0.402343 -0.83203,0.605468 -0.34375,0.203125 -0.65235,0.351563 -0.92578,0.453125 v -0.847656 c 0.49218,-0.234375 0.92187,-0.511719 1.28906,-0.839844 0.37109,-0.332031 0.6289,-0.648437 0.78125,-0.957031 h 0.5664 z m 0,0"
       id="path26132" />
    <path
       style="fill:#ffffff;fill-opacity:1;fill-rule:nonzero;stroke:none"
       d="m 150.71094,98.84375 c 0,-0.847656 0.0859,-1.527344 0.25781,-2.042969 0.17578,-0.515625 0.43359,-0.914062 0.77734,-1.195312 0.34375,-0.28125 0.77735,-0.417969 1.29688,-0.417969 0.38672,0 0.72265,0.07813 1.01172,0.234375 0.28906,0.152344 0.53125,0.375 0.71875,0.667969 0.1875,0.289062 0.33593,0.644531 0.44531,1.0625 0.10547,0.417968 0.16016,0.980468 0.16016,1.691406 0,0.839844 -0.0859,1.51953 -0.25782,2.03516 -0.17187,0.51562 -0.43359,0.91406 -0.77734,1.19531 -0.34375,0.28125 -0.77344,0.42187 -1.30078,0.42187 -0.6875,0 -1.23047,-0.24609 -1.625,-0.74218 -0.47266,-0.59766 -0.70703,-1.56641 -0.70703,-2.91016 z m 0.90234,0 c 0,1.17578 0.13672,1.95703 0.41016,2.34766 0.27734,0.38672 0.61718,0.58203 1.01953,0.58203 0.40625,0 0.74219,-0.19531 1.01562,-0.58594 0.27735,-0.39062 0.41797,-1.17187 0.41797,-2.34375 0,-1.179688 -0.14062,-1.960938 -0.41797,-2.347656 -0.27343,-0.390625 -0.61328,-0.582032 -1.02343,-0.582032 -0.40235,0 -0.72657,0.171876 -0.96875,0.511719 -0.30079,0.4375 -0.45313,1.242188 -0.45313,2.417969 z m 0,0"
       id="path26134" />
    <path
       style="fill:#ffffff;fill-opacity:1;fill-rule:nonzero;stroke:none"
       d="m 156.13672,97.144531 0.57031,-0.07422 c 0.0664,0.324219 0.17578,0.554688 0.33203,0.699219 0.16016,0.144531 0.35156,0.214844 0.57813,0.214844 0.26953,0 0.49609,-0.09375 0.67968,-0.28125 0.1875,-0.183594 0.27735,-0.417969 0.27735,-0.691406 0,-0.261719 -0.0859,-0.476563 -0.25391,-0.648438 -0.17187,-0.171875 -0.39062,-0.257812 -0.65625,-0.257812 -0.10547,0 -0.24219,0.02344 -0.40234,0.06641 l 0.0625,-0.503906 c 0.0391,0.0039 0.0703,0.0078 0.0937,0.0078 0.24219,0 0.46094,-0.0625 0.65625,-0.191406 0.19531,-0.125 0.29297,-0.320313 0.29297,-0.585937 0,-0.210938 -0.0703,-0.382813 -0.21485,-0.519532 -0.14062,-0.140625 -0.32422,-0.207031 -0.54687,-0.207031 -0.22266,0 -0.41016,0.07031 -0.55469,0.207031 -0.14844,0.140625 -0.24609,0.351563 -0.28906,0.628906 l -0.57031,-0.101562 c 0.0703,-0.382812 0.23046,-0.679688 0.47656,-0.886719 0.24609,-0.210937 0.55469,-0.316406 0.92578,-0.316406 0.25391,0 0.48437,0.05469 0.69922,0.164063 0.21484,0.105468 0.375,0.253906 0.48828,0.445312 0.11328,0.1875 0.17187,0.386719 0.17187,0.597656 0,0.203125 -0.0547,0.382813 -0.16015,0.550782 -0.10938,0.164062 -0.26953,0.296874 -0.48047,0.390624 0.27344,0.06641 0.48828,0.199219 0.64062,0.398438 0.15235,0.199219 0.23047,0.449219 0.23047,0.75 0,0.40625 -0.14843,0.75 -0.44531,1.035156 -0.29687,0.28125 -0.67187,0.421875 -1.125,0.421875 -0.40625,0 -0.74609,-0.121093 -1.01953,-0.367187 -0.26563,-0.242188 -0.42188,-0.558594 -0.45703,-0.945313 z m 0,0"
       id="path26136" />
    <path
       style="fill:#ffffff;fill-opacity:1;fill-rule:nonzero;stroke:none"
       d="m 86.886719,102.375 h -0.878907 v -5.601562 c -0.210937,0.203124 -0.492187,0.402343 -0.835937,0.605468 -0.339844,0.203125 -0.648437,0.351563 -0.921875,0.453125 V 96.984375 C 84.742188,96.75 85.171875,96.472656 85.539062,96.144531 85.90625,95.8125 86.167969,95.496094 86.320312,95.1875 h 0.566407 z m 0,0"
       id="path26138" />
    <path
       style="fill:#ffffff;fill-opacity:1;fill-rule:nonzero;stroke:none"
       d="m 89.140625,98.84375 c 0,-0.847656 0.08594,-1.527344 0.261719,-2.042969 0.175781,-0.515625 0.433594,-0.914062 0.773437,-1.195312 0.347657,-0.28125 0.78125,-0.417969 1.300781,-0.417969 0.382813,0 0.71875,0.07813 1.011719,0.234375 0.289063,0.152344 0.527344,0.375 0.714844,0.667969 0.191406,0.289062 0.339844,0.644531 0.445313,1.0625 0.109374,0.417968 0.160156,0.980468 0.160156,1.691406 0,0.839844 -0.08594,1.51953 -0.257813,2.03516 -0.171875,0.51562 -0.429687,0.91406 -0.777343,1.19531 -0.339844,0.28125 -0.773438,0.42187 -1.296876,0.42187 -0.691406,0 -1.234374,-0.24609 -1.625,-0.74218 -0.472656,-0.59766 -0.710937,-1.56641 -0.710937,-2.91016 z m 0.90625,0 c 0,1.17578 0.136719,1.95703 0.410156,2.34766 0.273438,0.38672 0.617188,0.58203 1.019531,0.58203 0.402344,0 0.742188,-0.19531 1.015626,-0.58594 0.277343,-0.39062 0.414062,-1.17187 0.414062,-2.34375 0,-1.179688 -0.136719,-1.960938 -0.414062,-2.347656 -0.273438,-0.390625 -0.617188,-0.582032 -1.027344,-0.582032 -0.402344,0 -0.722656,0.171876 -0.964844,0.511719 -0.304688,0.4375 -0.453125,1.242188 -0.453125,2.417969 z m 0,0"
       id="path26140" />
    <path
       style="fill:#ffffff;fill-opacity:1;fill-rule:nonzero;stroke:none"
       d="M 97.566406,97.824219 V 98.375 h -3.074218 c -0.0078,-0.140625 0.01562,-0.269531 0.06641,-0.398438 0.07813,-0.210937 0.203125,-0.414062 0.371094,-0.617187 0.175781,-0.203125 0.425781,-0.441406 0.75,-0.707031 0.507812,-0.414063 0.847656,-0.742188 1.027343,-0.984375 0.175781,-0.242188 0.265625,-0.472657 0.265625,-0.6875 0,-0.226563 -0.08203,-0.417969 -0.246094,-0.570313 -0.160156,-0.15625 -0.371093,-0.234375 -0.628906,-0.234375 -0.277344,0 -0.496094,0.08203 -0.660156,0.246094 -0.167969,0.164063 -0.25,0.394531 -0.253906,0.6875 l -0.585938,-0.0625 c 0.03906,-0.4375 0.191406,-0.769531 0.453125,-1 0.261719,-0.230469 0.617188,-0.34375 1.058594,-0.34375 0.445313,0 0.800781,0.121094 1.058594,0.371094 0.261719,0.246093 0.390625,0.554687 0.390625,0.917969 0,0.1875 -0.03906,0.371093 -0.113282,0.550781 -0.07812,0.179687 -0.203124,0.367187 -0.382812,0.566406 -0.171875,0.199219 -0.46875,0.472656 -0.878906,0.820313 -0.339844,0.289062 -0.5625,0.484374 -0.660156,0.585937 -0.09766,0.101563 -0.175782,0.203125 -0.238282,0.308594 z m 0,0"
       id="path26142" />
    <path
       style="fill:#ffffff;fill-opacity:1;fill-rule:nonzero;stroke:none"
       d="m 25.71875,102.375 h -0.878906 v -5.601562 c -0.210938,0.203124 -0.488282,0.402343 -0.835938,0.605468 -0.339844,0.203125 -0.648437,0.351563 -0.921875,0.453125 V 96.984375 C 23.574219,96.75 24.003906,96.472656 24.371094,96.144531 24.738281,95.8125 25,95.496094 25.152344,95.1875 h 0.566406 z m 0,0"
       id="path26144" />
    <path
       style="fill:#ffffff;fill-opacity:1;fill-rule:nonzero;stroke:none"
       d="m 27.976562,98.84375 c 0,-0.847656 0.08594,-1.527344 0.257813,-2.042969 0.175781,-0.515625 0.433594,-0.914062 0.777344,-1.195312 0.34375,-0.28125 0.777343,-0.417969 1.296875,-0.417969 0.382812,0 0.722656,0.07813 1.011718,0.234375 0.289063,0.152344 0.527344,0.375 0.71875,0.667969 0.1875,0.289062 0.335938,0.644531 0.441407,1.0625 0.109375,0.417968 0.164062,0.980468 0.164062,1.691406 0,0.839844 -0.08594,1.51953 -0.261719,2.03516 -0.171874,0.51562 -0.429687,0.91406 -0.773437,1.19531 -0.34375,0.28125 -0.777344,0.42187 -1.300781,0.42187 -0.691406,0 -1.230469,-0.24609 -1.625,-0.74218 -0.472656,-0.59766 -0.707032,-1.56641 -0.707032,-2.91016 z m 0.902344,0 c 0,1.17578 0.136719,1.95703 0.410156,2.34766 0.277344,0.38672 0.617188,0.58203 1.019532,0.58203 0.402344,0 0.742187,-0.19531 1.015625,-0.58594 0.277343,-0.39062 0.414062,-1.17187 0.414062,-2.34375 0,-1.179688 -0.136719,-1.960938 -0.414062,-2.347656 -0.273438,-0.390625 -0.613281,-0.582032 -1.023438,-0.582032 -0.40625,0 -0.726562,0.171876 -0.96875,0.511719 -0.300781,0.4375 -0.453125,1.242188 -0.453125,2.417969 z m 0,0"
       id="path26146" />
    <path
       style="fill:#ffffff;fill-opacity:1;fill-rule:nonzero;stroke:none"
       d="m 35.546875,98.375 h -0.570313 v -3.640625 c -0.136718,0.128906 -0.316406,0.261719 -0.542968,0.390625 -0.222656,0.132812 -0.421875,0.230469 -0.597656,0.296875 v -0.550781 c 0.316406,-0.152344 0.597656,-0.332032 0.835937,-0.546875 0.238281,-0.214844 0.410156,-0.421875 0.507813,-0.621094 h 0.367187 z m 0,0"
       id="path26148" />
    <path
       style="fill:#ffffff;fill-opacity:1;fill-rule:nonzero;stroke:none"
       d="m 21.242188,28.042969 -0.875,0.06641 c -0.07813,-0.34375 -0.1875,-0.59375 -0.332032,-0.75 -0.238281,-0.25 -0.53125,-0.375 -0.878906,-0.375 -0.277344,0 -0.523438,0.07813 -0.734375,0.234375 -0.277344,0.199219 -0.496094,0.496094 -0.65625,0.882812 -0.160156,0.386719 -0.242187,0.9375 -0.25,1.65625 0.210937,-0.324218 0.472656,-0.5625 0.777344,-0.71875 0.304687,-0.15625 0.625,-0.234374 0.960937,-0.234374 0.585938,0 1.085938,0.214843 1.496094,0.648437 0.414062,0.429687 0.621094,0.988281 0.621094,1.671875 0,0.449219 -0.09766,0.867188 -0.292969,1.253906 -0.195313,0.382813 -0.460937,0.679688 -0.796875,0.882813 -0.339844,0.207031 -0.722656,0.308593 -1.152344,0.308593 -0.734375,0 -1.332031,-0.269531 -1.792968,-0.804687 C 16.875,32.22266 16.644531,31.335942 16.644531,30.09766 c 0,-1.382812 0.253907,-2.390625 0.765625,-3.015625 0.445313,-0.546875 1.046875,-0.820312 1.800782,-0.820312 0.5625,0 1.023437,0.15625 1.382812,0.472656 0.359375,0.316406 0.578125,0.75 0.648438,1.308594 z m -3.589844,3.085937 c 0,0.300782 0.06641,0.59375 0.191406,0.867188 0.128906,0.277344 0.3125,0.488281 0.542969,0.636718 0.230469,0.144532 0.472656,0.214844 0.726562,0.214844 0.371094,0 0.691407,-0.148437 0.957031,-0.449218 0.265626,-0.300782 0.402344,-0.707032 0.402344,-1.222657 0,-0.492187 -0.132812,-0.882812 -0.398437,-1.164062 -0.261719,-0.289063 -0.59375,-0.429688 -0.996094,-0.429688 -0.394531,0 -0.734375,0.140625 -1.007813,0.429688 -0.277343,0.28125 -0.417968,0.65625 -0.417968,1.117187 z m 0,0"
       id="path26150" />
    <path
       style="fill:#ffffff;fill-opacity:1;fill-rule:nonzero;stroke:none"
       d="m 22.378906,31.792969 0.847656,-0.07813 c 0.07031,0.398437 0.207032,0.683594 0.410157,0.863281 0.199219,0.179687 0.457031,0.269531 0.773437,0.269531 0.269532,0 0.507813,-0.0625 0.710938,-0.1875 0.203125,-0.121094 0.371094,-0.285156 0.5,-0.492187 0.132812,-0.207031 0.242187,-0.488281 0.328125,-0.839844 0.08984,-0.351563 0.132812,-0.710937 0.132812,-1.074219 0,-0.03906 -0.0039,-0.09766 -0.0039,-0.175781 -0.175781,0.28125 -0.417969,0.507813 -0.722656,0.683594 -0.304688,0.171875 -0.632813,0.257812 -0.988281,0.257812 -0.59375,0 -1.09375,-0.214843 -1.503907,-0.644531 C 22.453125,29.945312 22.25,29.378906 22.25,28.675781 c 0,-0.722656 0.210938,-1.308593 0.636719,-1.75 0.429687,-0.445312 0.96875,-0.664062 1.613281,-0.664062 0.464844,0 0.890625,0.125 1.273438,0.375 0.386718,0.25 0.679687,0.609375 0.878906,1.074219 0.203125,0.460937 0.304687,1.132812 0.304687,2.011718 0,0.914063 -0.101562,1.644532 -0.300781,2.1875 -0.199219,0.539063 -0.492188,0.953125 -0.886719,1.234375 -0.390625,0.285157 -0.851562,0.425781 -1.378906,0.425781 -0.558594,0 -1.015625,-0.15625 -1.371094,-0.464843 -0.355469,-0.3125 -0.566406,-0.75 -0.640625,-1.3125 z m 3.601563,-3.160157 c 0,-0.503906 -0.136719,-0.90625 -0.40625,-1.199218 -0.269531,-0.296875 -0.589844,-0.445313 -0.96875,-0.445313 -0.390625,0 -0.730469,0.160157 -1.019531,0.476563 -0.289063,0.320312 -0.433594,0.734375 -0.433594,1.242187 0,0.457031 0.136718,0.828125 0.410156,1.113281 0.277344,0.28125 0.617188,0.425782 1.019531,0.425782 0.40625,0 0.742188,-0.144532 1,-0.425782 0.265625,-0.285156 0.398438,-0.683593 0.398438,-1.1875 z m 0,0"
       id="path26152" />
    <path
       style="fill:#ffffff;fill-opacity:1;fill-rule:nonzero;stroke:none"
       d="m 16.78125,0.964844 v -0.84375 h 4.632812 V 0.804688 C 20.957031,1.289062 20.503906,1.933594 20.054688,2.738281 19.609375,3.542969 19.265625,4.371094 19.019531,5.21875 18.84375,5.820312 18.734375,6.472656 18.683594,7.1875 H 17.78125 c 0.0078,-0.5625 0.121094,-1.242188 0.332031,-2.042969 0.210938,-0.796875 0.511719,-1.5625 0.90625,-2.304687 0.398438,-0.742188 0.820313,-1.367188 1.265625,-1.875 z m 0,0"
       id="path26154" />
    <path
       style="fill:#ffffff;fill-opacity:1;fill-rule:nonzero;stroke:none"
       d="m 22.289062,3.65625 c 0,-0.84375 0.08594,-1.527344 0.257813,-2.039062 C 22.722656,1.097656 22.980469,0.699219 23.324219,0.417969 23.667969,0.140625 24.101562,0 24.621094,0 c 0.382812,0 0.722656,0.078125 1.011718,0.234375 0.289063,0.152344 0.527344,0.375 0.71875,0.667969 0.1875,0.289062 0.335938,0.644531 0.441407,1.066406 0.109375,0.414062 0.164062,0.980469 0.164062,1.6875 0,0.839844 -0.08984,1.519531 -0.261719,2.039062 -0.171874,0.511719 -0.429687,0.910157 -0.773437,1.195313 -0.34375,0.277344 -0.777344,0.417969 -1.300781,0.417969 -0.691406,0 -1.230469,-0.246094 -1.625,-0.742188 C 22.523438,5.972656 22.289062,5 22.289062,3.65625 Z m 0.902344,0 c 0,1.175781 0.136719,1.957031 0.410156,2.347656 0.277344,0.390625 0.617188,0.582032 1.019532,0.582032 0.402344,0 0.742187,-0.195313 1.015625,-0.585938 0.277343,-0.390625 0.414062,-1.171875 0.414062,-2.34375 0,-1.175781 -0.136719,-1.960938 -0.414062,-2.347656 -0.273438,-0.386719 -0.613281,-0.582032 -1.023438,-0.582032 -0.40625,0 -0.726562,0.171876 -0.96875,0.511719 -0.300781,0.4375 -0.453125,1.242188 -0.453125,2.417969 z m 0,0"
       id="path26156" />
    <path
       style="fill:#ffffff;fill-opacity:1;fill-rule:nonzero;stroke:none"
       d="m 21.257812,67.96875 -0.875,0.06641 c -0.07812,-0.34375 -0.1875,-0.59375 -0.332031,-0.75 -0.238281,-0.25 -0.53125,-0.378906 -0.878906,-0.378906 -0.28125,0 -0.527344,0.07813 -0.738281,0.234375 -0.277344,0.203125 -0.492188,0.5 -0.652344,0.886719 -0.160156,0.386718 -0.242188,0.9375 -0.25,1.652344 0.210938,-0.320313 0.46875,-0.558594 0.777344,-0.714844 0.304687,-0.15625 0.625,-0.234375 0.960937,-0.234375 0.585938,0 1.085938,0.214843 1.496094,0.648437 0.410156,0.429688 0.617187,0.984375 0.617187,1.667969 0,0.449219 -0.09766,0.871094 -0.292968,1.257813 -0.191406,0.382812 -0.457032,0.675781 -0.792969,0.882812 -0.339844,0.203125 -0.722656,0.308594 -1.152344,0.308594 -0.734375,0 -1.332031,-0.269532 -1.792969,-0.808594 -0.464843,-0.539062 -0.695312,-1.425781 -0.695312,-2.664062 0,-1.382813 0.257812,-2.390626 0.769531,-3.019532 0.445313,-0.546875 1.042969,-0.820312 1.800781,-0.820312 0.5625,0 1.023438,0.160156 1.382813,0.476562 0.359375,0.316406 0.574219,0.75 0.648437,1.308594 z m -3.589843,3.085938 c 0,0.300781 0.0625,0.589843 0.191406,0.867187 0.128906,0.277344 0.308594,0.488281 0.542969,0.636719 0.230468,0.140625 0.472656,0.214844 0.726562,0.214844 0.371094,0 0.6875,-0.152344 0.957032,-0.449219 0.265624,-0.300781 0.398437,-0.707031 0.398437,-1.222657 0,-0.492187 -0.128906,-0.882812 -0.394531,-1.167968 -0.261719,-0.285156 -0.59375,-0.429688 -0.996094,-0.429688 -0.398438,0 -0.734375,0.144532 -1.011719,0.429688 -0.277343,0.285156 -0.414062,0.65625 -0.414062,1.121094 z m 0,0"
       id="path26158" />
    <path
       style="fill:#ffffff;fill-opacity:1;fill-rule:nonzero;stroke:none"
       d="m 22.320312,67.152344 v -0.84375 h 4.636719 v 0.683594 c -0.457031,0.484374 -0.910156,1.128906 -1.359375,1.933593 -0.445312,0.804688 -0.789062,1.628907 -1.035156,2.480469 -0.175781,0.597656 -0.289062,1.253906 -0.335938,1.964844 h -0.902343 c 0.0078,-0.5625 0.117187,-1.242188 0.332031,-2.039063 0.210938,-0.796875 0.511719,-1.566406 0.90625,-2.304687 0.398438,-0.742188 0.820312,-1.367188 1.265625,-1.875 z m 0,0"
       id="path26160" />
    <path
       style="fill:#ffffff;fill-opacity:1;fill-rule:nonzero;stroke:none"
       d="m 21.242188,47.757812 -0.875,0.06641 c -0.07813,-0.34375 -0.1875,-0.59375 -0.332032,-0.75 -0.238281,-0.253907 -0.53125,-0.378907 -0.878906,-0.378907 -0.277344,0 -0.523438,0.07813 -0.734375,0.234376 -0.277344,0.203124 -0.496094,0.496093 -0.65625,0.886718 -0.160156,0.386719 -0.242187,0.9375 -0.25,1.652344 0.210937,-0.320312 0.472656,-0.558594 0.777344,-0.714844 0.304687,-0.15625 0.625,-0.234375 0.960937,-0.234375 0.585938,0 1.085938,0.214844 1.496094,0.648438 0.414062,0.429687 0.621094,0.984375 0.621094,1.667969 0,0.449218 -0.09766,0.867187 -0.292969,1.257812 -0.195313,0.382812 -0.460937,0.675781 -0.796875,0.882812 -0.339844,0.203126 -0.722656,0.308594 -1.152344,0.308594 -0.734375,0 -1.332031,-0.269531 -1.792968,-0.808594 C 16.875,51.9375 16.644531,51.046875 16.644531,49.8125 c 0,-1.382812 0.253907,-2.390625 0.765625,-3.019531 0.445313,-0.546875 1.046875,-0.820313 1.800782,-0.820313 0.5625,0 1.023437,0.160156 1.382812,0.476563 0.359375,0.3125 0.578125,0.75 0.648438,1.308593 z m -3.589844,3.085938 c 0,0.300781 0.06641,0.589844 0.191406,0.867188 0.128906,0.277343 0.3125,0.488281 0.542969,0.636718 0.230469,0.140625 0.472656,0.214844 0.726562,0.214844 0.371094,0 0.691407,-0.152344 0.957031,-0.449219 0.265626,-0.300781 0.402344,-0.707031 0.402344,-1.222656 0,-0.496094 -0.132812,-0.882813 -0.398437,-1.167969 -0.261719,-0.285156 -0.59375,-0.429687 -0.996094,-0.429687 -0.394531,0 -0.734375,0.144531 -1.007813,0.429687 -0.277343,0.285156 -0.417968,0.65625 -0.417968,1.121094 z m 0,0"
       id="path26162" />
    <path
       style="fill:#ffffff;fill-opacity:1;fill-rule:nonzero;stroke:none"
       d="m 23.601562,49.28125 c -0.367187,-0.136719 -0.636718,-0.324219 -0.8125,-0.574219 -0.175781,-0.246093 -0.261718,-0.542969 -0.261718,-0.886719 0,-0.523437 0.1875,-0.960937 0.5625,-1.3125 0.371094,-0.355468 0.871094,-0.535156 1.492187,-0.535156 0.625,0 1.128907,0.183594 1.507813,0.546875 0.382812,0.363281 0.574218,0.804688 0.574218,1.324219 0,0.332031 -0.08984,0.621094 -0.265624,0.871094 -0.171876,0.242187 -0.4375,0.429687 -0.789063,0.566406 0.4375,0.140625 0.769531,0.371094 1,0.691406 0.230469,0.320313 0.347656,0.699219 0.347656,1.144532 0,0.609374 -0.21875,1.125 -0.652343,1.542968 -0.433594,0.414063 -1,0.625 -1.707032,0.625 -0.707031,0 -1.277344,-0.210937 -1.710937,-0.625 -0.433594,-0.421875 -0.648438,-0.945312 -0.648438,-1.570312 0,-0.464844 0.117188,-0.851563 0.351563,-1.164063 0.238281,-0.316406 0.574218,-0.53125 1.011718,-0.644531 z m -0.175781,-1.492188 c 0,0.339844 0.109375,0.617188 0.328125,0.832032 0.214844,0.214844 0.5,0.320312 0.847656,0.320312 0.339844,0 0.617188,-0.105468 0.832032,-0.316406 0.214844,-0.214844 0.324218,-0.476562 0.324218,-0.785156 0,-0.324219 -0.109374,-0.59375 -0.335937,-0.8125 -0.222656,-0.21875 -0.496094,-0.332032 -0.828125,-0.332032 -0.335938,0 -0.617188,0.109376 -0.835938,0.324219 -0.222656,0.214844 -0.332031,0.472657 -0.332031,0.769531 z m -0.285156,3.308594 c 0,0.25 0.05859,0.492188 0.175781,0.726563 0.121094,0.234375 0.300782,0.414062 0.535156,0.546875 0.234376,0.125 0.484376,0.191406 0.753907,0.191406 0.421875,0 0.769531,-0.136719 1.042969,-0.40625 0.273437,-0.269531 0.410156,-0.613281 0.410156,-1.03125 0,-0.421875 -0.144532,-0.773438 -0.425782,-1.050781 C 25.351562,49.796875 25,49.660156 24.578125,49.660156 c -0.414063,0 -0.757813,0.136719 -1.03125,0.410156 -0.269531,0.273438 -0.40625,0.617188 -0.40625,1.027344 z m 0,0"
       id="path26164" />
    <path
       style="fill:#ffffff;fill-opacity:1;fill-rule:nonzero;stroke:none"
       d="m 21.289062,87.820312 -0.871093,0.06641 c -0.07813,-0.34375 -0.191407,-0.59375 -0.332031,-0.75 -0.238282,-0.25 -0.53125,-0.375 -0.878907,-0.375 -0.28125,0 -0.527343,0.07813 -0.738281,0.234375 -0.277344,0.199218 -0.496094,0.496094 -0.65625,0.882812 -0.160156,0.386719 -0.242188,0.9375 -0.246094,1.65625 0.210938,-0.324218 0.46875,-0.5625 0.773438,-0.71875 0.308594,-0.15625 0.628906,-0.234375 0.964844,-0.234375 0.585937,0 1.082031,0.214844 1.492187,0.648438 0.414063,0.429687 0.621094,0.988281 0.621094,1.671875 0,0.449218 -0.09766,0.867187 -0.292969,1.253906 -0.191406,0.382812 -0.457031,0.679688 -0.796875,0.882812 -0.339844,0.207032 -0.722656,0.308594 -1.152344,0.308594 -0.730469,0 -1.328125,-0.269531 -1.792969,-0.804687 C 16.921875,92 16.691406,91.113281 16.691406,89.875 c 0,-1.382812 0.253906,-2.386719 0.765625,-3.015625 0.445313,-0.546875 1.046875,-0.820313 1.800781,-0.820313 0.5625,0 1.023438,0.15625 1.382813,0.472657 0.363281,0.316406 0.578125,0.75 0.648437,1.308593 z m -3.585937,3.085938 c 0,0.300781 0.0625,0.59375 0.1875,0.867188 0.132813,0.277343 0.3125,0.488281 0.542969,0.636718 0.230468,0.144532 0.472656,0.214844 0.726562,0.214844 0.371094,0 0.691406,-0.148438 0.957032,-0.449219 0.269531,-0.300781 0.402343,-0.707031 0.402343,-1.222656 0,-0.492187 -0.132812,-0.882813 -0.394531,-1.164063 C 19.859375,89.5 19.527344,89.359375 19.128906,89.359375 c -0.398437,0 -0.734375,0.140625 -1.011718,0.429687 -0.277344,0.28125 -0.414063,0.65625 -0.414063,1.117188 z m 0,0"
       id="path26182" />
    <path
       style="fill:#ffffff;fill-opacity:1;fill-rule:nonzero;stroke:none"
       d="m 26.855469,87.820312 -0.871094,0.06641 c -0.07813,-0.34375 -0.191406,-0.59375 -0.332031,-0.75 -0.238282,-0.25 -0.53125,-0.375 -0.878906,-0.375 -0.28125,0 -0.527344,0.07813 -0.738282,0.234375 -0.277344,0.199218 -0.496094,0.496094 -0.65625,0.882812 -0.160156,0.386719 -0.242187,0.9375 -0.246094,1.65625 0.210938,-0.324218 0.46875,-0.5625 0.773438,-0.71875 0.308594,-0.15625 0.628906,-0.234375 0.964844,-0.234375 0.585937,0 1.082031,0.214844 1.492187,0.648438 0.414063,0.429687 0.621094,0.988281 0.621094,1.671875 0,0.449218 -0.09766,0.867187 -0.292969,1.253906 -0.191406,0.382812 -0.457031,0.679688 -0.796875,0.882812 -0.339843,0.207032 -0.722656,0.308594 -1.152343,0.308594 -0.730469,0 -1.328126,-0.269531 -1.792969,-0.804687 C 22.488281,92 22.257812,91.113281 22.257812,89.875 c 0,-1.382812 0.253907,-2.386719 0.765626,-3.015625 0.445312,-0.546875 1.046874,-0.820313 1.800781,-0.820313 0.5625,0 1.023437,0.15625 1.382812,0.472657 0.363281,0.316406 0.578125,0.75 0.648438,1.308593 z m -3.585938,3.085938 c 0,0.300781 0.0625,0.59375 0.1875,0.867188 0.132813,0.277343 0.3125,0.488281 0.542969,0.636718 0.230469,0.144532 0.472656,0.214844 0.726562,0.214844 0.371094,0 0.691407,-0.148438 0.957032,-0.449219 0.269531,-0.300781 0.402344,-0.707031 0.402344,-1.222656 0,-0.492187 -0.132813,-0.882813 -0.394532,-1.164063 C 25.425781,89.5 25.09375,89.359375 24.695312,89.359375 c -0.398437,0 -0.734374,0.140625 -1.011718,0.429687 -0.277344,0.28125 -0.414063,0.65625 -0.414063,1.117188 z m 0,0"
       id="path26184" />
  </g>
  <g
     id="g27001">
    <path
       style="fill:none;stroke:#ffffff;stroke-width:0.500001;stroke-linecap:butt;stroke-linejoin:round;stroke-miterlimit:10;stroke-opacity:1"
       d="M 29.394531,0.699219 H 275.92187 V 89.722656 H 29.394531 Z m 0,0"
       id="path25886" />
    <path
       style="fill:none;stroke:#ffffff;stroke-width:1.2;stroke-linecap:butt;stroke-linejoin:round;stroke-miterlimit:10;stroke-opacity:1"
       d="M 29.394531,0.699219 H 275.92187"
       id="path25888" />
    <path
       style="fill:none;stroke:#ffffff;stroke-width:1.2;stroke-linecap:butt;stroke-linejoin:round;stroke-miterlimit:10;stroke-opacity:1"
       d="M 29.394531,89.722656 H 275.92187"
       id="path25890" />
    <path
       style="fill:none;stroke:#ffffff;stroke-width:1.2;stroke-linecap:butt;stroke-linejoin:round;stroke-miterlimit:10;stroke-opacity:1"
       d="M 275.92187,89.722656 V 0.699219"
       id="path25892" />
    <path
       style="fill:none;stroke:#ffffff;stroke-width:1.2;stroke-linecap:butt;stroke-linejoin:round;stroke-miterlimit:10;stroke-opacity:1"
       d="M 29.394531,89.722656 H 275.92187"
       id="path25894" />
    <path
       style="fill:none;stroke:#ffffff;stroke-width:1.2;stroke-linecap:butt;stroke-linejoin:round;stroke-miterlimit:10;stroke-opacity:1"
       d="M 47.449219,89.722656 V 87.320312"
       id="path25896" />
    <path
       style="fill:none;stroke:#ffffff;stroke-width:1.2;stroke-linecap:butt;stroke-linejoin:round;stroke-miterlimit:10;stroke-opacity:1"
       d="M 47.449219,0.910156 V 2.511719"
       id="path25898" />
    <path
       style="fill:none;stroke:#ffffff;stroke-width:1.2;stroke-linecap:butt;stroke-linejoin:round;stroke-miterlimit:10;stroke-opacity:1"
       d="M 58.65625,89.722656 V 87.320312"
       id="path25900" />
    <path
       style="fill:none;stroke:#ffffff;stroke-width:1.2;stroke-linecap:butt;stroke-linejoin:round;stroke-miterlimit:10;stroke-opacity:1"
       d="M 58.65625,0.910156 V 2.511719"
       id="path25902" />
    <path
       style="fill:none;stroke:#ffffff;stroke-width:1.2;stroke-linecap:butt;stroke-linejoin:round;stroke-miterlimit:10;stroke-opacity:1"
       d="M 66.125,89.722656 V 87.320312"
       id="path25904" />
    <path
       style="fill:none;stroke:#ffffff;stroke-width:1.2;stroke-linecap:butt;stroke-linejoin:round;stroke-miterlimit:10;stroke-opacity:1"
       d="M 66.125,0.910156 V 2.511719"
       id="path25906" />
    <path
       style="fill:none;stroke:#ffffff;stroke-width:1.2;stroke-linecap:butt;stroke-linejoin:round;stroke-miterlimit:10;stroke-opacity:1"
       d="M 72.351562,89.722656 V 87.320312"
       id="path25908" />
    <path
       style="fill:none;stroke:#ffffff;stroke-width:1.2;stroke-linecap:butt;stroke-linejoin:round;stroke-miterlimit:10;stroke-opacity:1"
       d="M 72.351562,0.910156 V 2.511719"
       id="path25910" />
    <path
       style="fill:none;stroke:#ffffff;stroke-width:1.2;stroke-linecap:butt;stroke-linejoin:round;stroke-miterlimit:10;stroke-opacity:1"
       d="M 77.332031,89.722656 V 87.320312"
       id="path25912" />
    <path
       style="fill:none;stroke:#ffffff;stroke-width:1.2;stroke-linecap:butt;stroke-linejoin:round;stroke-miterlimit:10;stroke-opacity:1"
       d="M 77.332031,0.910156 V 2.511719"
       id="path25914" />
    <path
       style="fill:none;stroke:#ffffff;stroke-width:1.2;stroke-linecap:butt;stroke-linejoin:round;stroke-miterlimit:10;stroke-opacity:1"
       d="M 81.066406,89.722656 V 87.320312"
       id="path25916" />
    <path
       style="fill:none;stroke:#ffffff;stroke-width:1.2;stroke-linecap:butt;stroke-linejoin:round;stroke-miterlimit:10;stroke-opacity:1"
       d="M 81.066406,0.910156 V 2.511719"
       id="path25918" />
    <path
       style="fill:none;stroke:#ffffff;stroke-width:1.2;stroke-linecap:butt;stroke-linejoin:round;stroke-miterlimit:10;stroke-opacity:1"
       d="M 84.800781,89.722656 V 87.320312"
       id="path25920" />
    <path
       style="fill:none;stroke:#ffffff;stroke-width:1.2;stroke-linecap:butt;stroke-linejoin:round;stroke-miterlimit:10;stroke-opacity:1"
       d="M 84.800781,0.910156 V 2.511719"
       id="path25922" />
    <path
       style="fill:none;stroke:#ffffff;stroke-width:1.2;stroke-linecap:butt;stroke-linejoin:round;stroke-miterlimit:10;stroke-opacity:1"
       d="M 87.914062,89.722656 V 87.320312"
       id="path25924" />
    <path
       style="fill:none;stroke:#ffffff;stroke-width:1.2;stroke-linecap:butt;stroke-linejoin:round;stroke-miterlimit:10;stroke-opacity:1"
       d="M 87.914062,0.910156 V 2.511719"
       id="path25926" />
    <path
       style="fill:none;stroke:#ffffff;stroke-width:1.2;stroke-linecap:butt;stroke-linejoin:round;stroke-miterlimit:10;stroke-opacity:1"
       d="M 91.027344,89.722656 V 87.320312"
       id="path25928" />
    <path
       style="fill:none;stroke:#ffffff;stroke-width:1.2;stroke-linecap:butt;stroke-linejoin:round;stroke-miterlimit:10;stroke-opacity:1"
       d="M 91.027344,0.910156 V 2.511719"
       id="path25930" />
    <path
       style="fill:none;stroke:#ffffff;stroke-width:1.2;stroke-linecap:butt;stroke-linejoin:round;stroke-miterlimit:10;stroke-opacity:1"
       d="M 91.027344,89.722656 V 84.921875"
       id="path25932" />
    <path
       style="fill:none;stroke:#ffffff;stroke-width:1.2;stroke-linecap:butt;stroke-linejoin:round;stroke-miterlimit:10;stroke-opacity:1"
       d="M 91.027344,0.910156 V 5.710938"
       id="path25934" />
    <path
       style="fill:none;stroke:#ffffff;stroke-width:1.2;stroke-linecap:butt;stroke-linejoin:round;stroke-miterlimit:10;stroke-opacity:1"
       d="M 109.08203,89.722656 V 87.320312"
       id="path25936" />
    <path
       style="fill:none;stroke:#ffffff;stroke-width:1.2;stroke-linecap:butt;stroke-linejoin:round;stroke-miterlimit:10;stroke-opacity:1"
       d="M 109.08203,0.910156 V 2.511719"
       id="path25938" />
    <path
       style="fill:none;stroke:#ffffff;stroke-width:1.2;stroke-linecap:butt;stroke-linejoin:round;stroke-miterlimit:10;stroke-opacity:1"
       d="M 120.28516,89.722656 V 87.320312"
       id="path25940" />
    <path
       style="fill:none;stroke:#ffffff;stroke-width:1.2;stroke-linecap:butt;stroke-linejoin:round;stroke-miterlimit:10;stroke-opacity:1"
       d="M 120.28516,0.910156 V 2.511719"
       id="path25942" />
    <path
       style="fill:none;stroke:#ffffff;stroke-width:1.2;stroke-linecap:butt;stroke-linejoin:round;stroke-miterlimit:10;stroke-opacity:1"
       d="M 127.75781,89.722656 V 87.320312"
       id="path25944" />
    <path
       style="fill:none;stroke:#ffffff;stroke-width:1.2;stroke-linecap:butt;stroke-linejoin:round;stroke-miterlimit:10;stroke-opacity:1"
       d="M 127.75781,0.910156 V 2.511719"
       id="path25946" />
    <path
       style="fill:none;stroke:#ffffff;stroke-width:1.2;stroke-linecap:butt;stroke-linejoin:round;stroke-miterlimit:10;stroke-opacity:1"
       d="M 133.98437,89.722656 V 87.320312"
       id="path25948" />
    <path
       style="fill:none;stroke:#ffffff;stroke-width:1.2;stroke-linecap:butt;stroke-linejoin:round;stroke-miterlimit:10;stroke-opacity:1"
       d="M 133.98437,0.910156 V 2.511719"
       id="path25950" />
    <path
       style="fill:none;stroke:#ffffff;stroke-width:1.2;stroke-linecap:butt;stroke-linejoin:round;stroke-miterlimit:10;stroke-opacity:1"
       d="M 138.96484,89.722656 V 87.320312"
       id="path25952" />
    <path
       style="fill:none;stroke:#ffffff;stroke-width:1.2;stroke-linecap:butt;stroke-linejoin:round;stroke-miterlimit:10;stroke-opacity:1"
       d="M 138.96484,0.910156 V 2.511719"
       id="path25954" />
    <path
       style="fill:none;stroke:#ffffff;stroke-width:1.2;stroke-linecap:butt;stroke-linejoin:round;stroke-miterlimit:10;stroke-opacity:1"
       d="M 142.69922,89.722656 V 87.320312"
       id="path25956" />
    <path
       style="fill:none;stroke:#ffffff;stroke-width:1.2;stroke-linecap:butt;stroke-linejoin:round;stroke-miterlimit:10;stroke-opacity:1"
       d="M 142.69922,0.910156 V 2.511719"
       id="path25958" />
    <path
       style="fill:none;stroke:#ffffff;stroke-width:1.2;stroke-linecap:butt;stroke-linejoin:round;stroke-miterlimit:10;stroke-opacity:1"
       d="M 146.43359,89.722656 V 87.320312"
       id="path25960" />
    <path
       style="fill:none;stroke:#ffffff;stroke-width:1.2;stroke-linecap:butt;stroke-linejoin:round;stroke-miterlimit:10;stroke-opacity:1"
       d="M 146.43359,0.910156 V 2.511719"
       id="path25962" />
    <path
       style="fill:none;stroke:#ffffff;stroke-width:1.2;stroke-linecap:butt;stroke-linejoin:round;stroke-miterlimit:10;stroke-opacity:1"
       d="M 149.54687,89.722656 V 87.320312"
       id="path25964" />
    <path
       style="fill:none;stroke:#ffffff;stroke-width:1.2;stroke-linecap:butt;stroke-linejoin:round;stroke-miterlimit:10;stroke-opacity:1"
       d="M 149.54687,0.910156 V 2.511719"
       id="path25966" />
    <path
       style="fill:none;stroke:#ffffff;stroke-width:1.2;stroke-linecap:butt;stroke-linejoin:round;stroke-miterlimit:10;stroke-opacity:1"
       d="M 152.66016,89.722656 V 87.320312"
       id="path25968" />
    <path
       style="fill:none;stroke:#ffffff;stroke-width:1.2;stroke-linecap:butt;stroke-linejoin:round;stroke-miterlimit:10;stroke-opacity:1"
       d="M 152.66016,0.910156 V 2.511719"
       id="path25970" />
    <path
       style="fill:none;stroke:#ffffff;stroke-width:1.2;stroke-linecap:butt;stroke-linejoin:round;stroke-miterlimit:10;stroke-opacity:1"
       d="M 152.66016,89.722656 V 84.921875"
       id="path25972" />
    <path
       style="fill:none;stroke:#ffffff;stroke-width:1.2;stroke-linecap:butt;stroke-linejoin:round;stroke-miterlimit:10;stroke-opacity:1"
       d="M 152.66016,0.910156 V 5.710938"
       id="path25974" />
    <path
       style="fill:none;stroke:#ffffff;stroke-width:1.2;stroke-linecap:butt;stroke-linejoin:round;stroke-miterlimit:10;stroke-opacity:1"
       d="M 170.71094,89.722656 V 87.320312"
       id="path25976" />
    <path
       style="fill:none;stroke:#ffffff;stroke-width:1.2;stroke-linecap:butt;stroke-linejoin:round;stroke-miterlimit:10;stroke-opacity:1"
       d="M 170.71094,0.910156 V 2.511719"
       id="path25978" />
    <path
       style="fill:none;stroke:#ffffff;stroke-width:1.2;stroke-linecap:butt;stroke-linejoin:round;stroke-miterlimit:10;stroke-opacity:1"
       d="M 181.91797,89.722656 V 87.320312"
       id="path25980" />
    <path
       style="fill:none;stroke:#ffffff;stroke-width:1.2;stroke-linecap:butt;stroke-linejoin:round;stroke-miterlimit:10;stroke-opacity:1"
       d="M 181.91797,0.910156 V 2.511719"
       id="path25982" />
    <path
       style="fill:none;stroke:#ffffff;stroke-width:1.2;stroke-linecap:butt;stroke-linejoin:round;stroke-miterlimit:10;stroke-opacity:1"
       d="M 189.39062,89.722656 V 87.320312"
       id="path25984" />
    <path
       style="fill:none;stroke:#ffffff;stroke-width:1.2;stroke-linecap:butt;stroke-linejoin:round;stroke-miterlimit:10;stroke-opacity:1"
       d="M 189.39062,0.910156 V 2.511719"
       id="path25986" />
    <path
       style="fill:none;stroke:#ffffff;stroke-width:1.2;stroke-linecap:butt;stroke-linejoin:round;stroke-miterlimit:10;stroke-opacity:1"
       d="M 195.61719,89.722656 V 87.320312"
       id="path25988" />
    <path
       style="fill:none;stroke:#ffffff;stroke-width:1.2;stroke-linecap:butt;stroke-linejoin:round;stroke-miterlimit:10;stroke-opacity:1"
       d="M 195.61719,0.910156 V 2.511719"
       id="path25990" />
    <path
       style="fill:none;stroke:#ffffff;stroke-width:1.2;stroke-linecap:butt;stroke-linejoin:round;stroke-miterlimit:10;stroke-opacity:1"
       d="M 200.59766,89.722656 V 87.320312"
       id="path25992" />
    <path
       style="fill:none;stroke:#ffffff;stroke-width:1.2;stroke-linecap:butt;stroke-linejoin:round;stroke-miterlimit:10;stroke-opacity:1"
       d="M 200.59766,0.910156 V 2.511719"
       id="path25994" />
    <path
       style="fill:none;stroke:#ffffff;stroke-width:1.2;stroke-linecap:butt;stroke-linejoin:round;stroke-miterlimit:10;stroke-opacity:1"
       d="M 204.33203,89.722656 V 87.320312"
       id="path25996" />
    <path
       style="fill:none;stroke:#ffffff;stroke-width:1.2;stroke-linecap:butt;stroke-linejoin:round;stroke-miterlimit:10;stroke-opacity:1"
       d="M 204.33203,0.910156 V 2.511719"
       id="path25998" />
    <path
       style="fill:none;stroke:#ffffff;stroke-width:1.2;stroke-linecap:butt;stroke-linejoin:round;stroke-miterlimit:10;stroke-opacity:1"
       d="M 208.06641,89.722656 V 87.320312"
       id="path26000" />
    <path
       style="fill:none;stroke:#ffffff;stroke-width:1.2;stroke-linecap:butt;stroke-linejoin:round;stroke-miterlimit:10;stroke-opacity:1"
       d="M 208.06641,0.910156 V 2.511719"
       id="path26002" />
    <path
       style="fill:none;stroke:#ffffff;stroke-width:1.2;stroke-linecap:butt;stroke-linejoin:round;stroke-miterlimit:10;stroke-opacity:1"
       d="M 211.17969,89.722656 V 87.320312"
       id="path26004" />
    <path
       style="fill:none;stroke:#ffffff;stroke-width:1.2;stroke-linecap:butt;stroke-linejoin:round;stroke-miterlimit:10;stroke-opacity:1"
       d="M 211.17969,0.910156 V 2.511719"
       id="path26006" />
    <path
       style="fill:none;stroke:#ffffff;stroke-width:1.2;stroke-linecap:butt;stroke-linejoin:round;stroke-miterlimit:10;stroke-opacity:1"
       d="M 214.29297,89.722656 V 87.320312"
       id="path26008" />
    <path
       style="fill:none;stroke:#ffffff;stroke-width:1.2;stroke-linecap:butt;stroke-linejoin:round;stroke-miterlimit:10;stroke-opacity:1"
       d="M 214.29297,0.910156 V 2.511719"
       id="path26010" />
    <path
       style="fill:none;stroke:#ffffff;stroke-width:1.2;stroke-linecap:butt;stroke-linejoin:round;stroke-miterlimit:10;stroke-opacity:1"
       d="M 214.29297,89.722656 V 84.921875"
       id="path26012" />
    <path
       style="fill:none;stroke:#ffffff;stroke-width:1.2;stroke-linecap:butt;stroke-linejoin:round;stroke-miterlimit:10;stroke-opacity:1"
       d="M 214.29297,0.910156 V 5.710938"
       id="path26014" />
    <path
       style="fill:none;stroke:#ffffff;stroke-width:1.2;stroke-linecap:butt;stroke-linejoin:round;stroke-miterlimit:10;stroke-opacity:1"
       d="M 232.34375,89.722656 V 87.320312"
       id="path26016" />
    <path
       style="fill:none;stroke:#ffffff;stroke-width:1.2;stroke-linecap:butt;stroke-linejoin:round;stroke-miterlimit:10;stroke-opacity:1"
       d="M 232.34375,0.910156 V 2.511719"
       id="path26018" />
    <path
       style="fill:none;stroke:#ffffff;stroke-width:1.2;stroke-linecap:butt;stroke-linejoin:round;stroke-miterlimit:10;stroke-opacity:1"
       d="M 243.55078,89.722656 V 87.320312"
       id="path26020" />
    <path
       style="fill:none;stroke:#ffffff;stroke-width:1.2;stroke-linecap:butt;stroke-linejoin:round;stroke-miterlimit:10;stroke-opacity:1"
       d="M 243.55078,0.910156 V 2.511719"
       id="path26022" />
    <path
       style="fill:none;stroke:#ffffff;stroke-width:1.2;stroke-linecap:butt;stroke-linejoin:round;stroke-miterlimit:10;stroke-opacity:1"
       d="M 251.02344,89.722656 V 87.320312"
       id="path26024" />
    <path
       style="fill:none;stroke:#ffffff;stroke-width:1.2;stroke-linecap:butt;stroke-linejoin:round;stroke-miterlimit:10;stroke-opacity:1"
       d="M 251.02344,0.910156 V 2.511719"
       id="path26026" />
    <path
       style="fill:none;stroke:#ffffff;stroke-width:1.2;stroke-linecap:butt;stroke-linejoin:round;stroke-miterlimit:10;stroke-opacity:1"
       d="M 257.24609,89.722656 V 87.320312"
       id="path26028" />
    <path
       style="fill:none;stroke:#ffffff;stroke-width:1.2;stroke-linecap:butt;stroke-linejoin:round;stroke-miterlimit:10;stroke-opacity:1"
       d="M 257.24609,0.910156 V 2.511719"
       id="path26030" />
    <path
       style="fill:none;stroke:#ffffff;stroke-width:1.2;stroke-linecap:butt;stroke-linejoin:round;stroke-miterlimit:10;stroke-opacity:1"
       d="M 262.22656,89.722656 V 87.320312"
       id="path26032" />
    <path
       style="fill:none;stroke:#ffffff;stroke-width:1.2;stroke-linecap:butt;stroke-linejoin:round;stroke-miterlimit:10;stroke-opacity:1"
       d="M 262.22656,0.910156 V 2.511719"
       id="path26034" />
    <path
       style="fill:none;stroke:#ffffff;stroke-width:1.2;stroke-linecap:butt;stroke-linejoin:round;stroke-miterlimit:10;stroke-opacity:1"
       d="M 265.96484,89.722656 V 87.320312"
       id="path26036" />
    <path
       style="fill:none;stroke:#ffffff;stroke-width:1.2;stroke-linecap:butt;stroke-linejoin:round;stroke-miterlimit:10;stroke-opacity:1"
       d="M 265.96484,0.910156 V 2.511719"
       id="path26038" />
    <path
       style="fill:none;stroke:#ffffff;stroke-width:1.2;stroke-linecap:butt;stroke-linejoin:round;stroke-miterlimit:10;stroke-opacity:1"
       d="M 269.69922,89.722656 V 87.320312"
       id="path26040" />
    <path
       style="fill:none;stroke:#ffffff;stroke-width:1.2;stroke-linecap:butt;stroke-linejoin:round;stroke-miterlimit:10;stroke-opacity:1"
       d="M 269.69922,0.910156 V 2.511719"
       id="path26042" />
    <path
       style="fill:none;stroke:#ffffff;stroke-width:1.2;stroke-linecap:butt;stroke-linejoin:round;stroke-miterlimit:10;stroke-opacity:1"
       d="M 272.8125,89.722656 V 87.320312"
       id="path26044" />
    <path
       style="fill:none;stroke:#ffffff;stroke-width:1.2;stroke-linecap:butt;stroke-linejoin:round;stroke-miterlimit:10;stroke-opacity:1"
       d="M 272.8125,0.910156 V 2.511719"
       id="path26046" />
    <path
       style="fill:none;stroke:#ffffff;stroke-width:1.2;stroke-linecap:butt;stroke-linejoin:round;stroke-miterlimit:10;stroke-opacity:1"
       d="M 29.394531,0.699219 H 275.92187"
       id="path26048" />
    <path
       style="fill:none;stroke:#ffffff;stroke-width:1.2;stroke-linecap:butt;stroke-linejoin:round;stroke-miterlimit:10;stroke-opacity:1"
       d="M 29.394531,89.722656 H 275.92187"
       id="path26050" />
    <path
       style="fill:none;stroke:#ffffff;stroke-width:1.2;stroke-linecap:butt;stroke-linejoin:round;stroke-miterlimit:10;stroke-opacity:1"
       d="M 275.92187,89.722656 V 0.699219"
       id="path26052" />
    <path
       style="fill:none;stroke:#ffffff;stroke-width:1.2;stroke-linecap:butt;stroke-linejoin:round;stroke-miterlimit:10;stroke-opacity:1"
       d="m 29.394531,23.488281 60.386719,-1.257812 47.9375,2.933593 32.37109,-0.417968 29.26172,-1.257813 32.3711,2.515625 29.26171,20.550782 13.00391,25.113281"
       id="path26054" />
    <path
       style="fill:none;stroke:#ffffff;stroke-width:1.2;stroke-linecap:butt;stroke-linejoin:round;stroke-miterlimit:10;stroke-opacity:1"
       d="M 29.394531,89.722656 V 0.699219"
       id="path26166" />
    <path
       style="fill:none;stroke:#ffffff;stroke-width:1.2;stroke-linecap:butt;stroke-linejoin:round;stroke-miterlimit:10;stroke-opacity:1"
       d="M 29.394531,89.722656 V 0.699219"
       id="path26168" />
    <path
       style="fill:none;stroke:#ffffff;stroke-width:1.2;stroke-linecap:butt;stroke-linejoin:round;stroke-miterlimit:10;stroke-opacity:1"
       d="m 29.394531,89.722656 h 1.867188"
       id="path26170" />
    <path
       style="fill:none;stroke:#ffffff;stroke-width:1.2;stroke-linecap:butt;stroke-linejoin:round;stroke-miterlimit:10;stroke-opacity:1"
       d="m 29.394531,45.210938 h 4.800781"
       id="path26172" />
    <path
       style="fill:none;stroke:#ffffff;stroke-width:1.2;stroke-linecap:butt;stroke-linejoin:round;stroke-miterlimit:10;stroke-opacity:1"
       d="m 29.394531,22.953125 h 4.800781"
       id="path26174" />
    <path
       style="fill:none;stroke:#ffffff;stroke-width:1.2;stroke-linecap:butt;stroke-linejoin:round;stroke-miterlimit:10;stroke-opacity:1"
       d="m 29.394531,0.699219 h 1.867188"
       id="path26176" />
    <path
       style="fill:none;stroke:#ffffff;stroke-width:1.2;stroke-linecap:butt;stroke-linejoin:round;stroke-miterlimit:10;stroke-opacity:1"
       d="M 29.394531,89.722656 V 0.699219"
       id="path26178" />
    <path
       style="fill:none;stroke:#ffffff;stroke-width:1.2;stroke-linecap:butt;stroke-linejoin:round;stroke-miterlimit:10;stroke-opacity:1"
       d="m 29.367188,67.464844 h 4.800781"
       id="path26180" />
    <path
       style="fill:none;stroke:#ffffff;stroke-width:1.2;stroke-linecap:butt;stroke-linejoin:round;stroke-miterlimit:10;stroke-opacity:1"
       d="M 275.92969,89.726562 V 0.703125"
       id="path26186" />
    <path
       style="fill:none;stroke:#ffffff;stroke-width:1.2;stroke-linecap:butt;stroke-linejoin:round;stroke-miterlimit:10;stroke-opacity:1"
       d="M 275.92969,89.726562 V 0.703125"
       id="path26188" />
    <path
       style="fill:none;stroke:#ffffff;stroke-width:1.2;stroke-linecap:butt;stroke-linejoin:round;stroke-miterlimit:10;stroke-opacity:1"
       d="m 275.92969,89.726562 h -1.8711"
       id="path26190" />
    <path
       style="fill:none;stroke:#ffffff;stroke-width:1.2;stroke-linecap:butt;stroke-linejoin:round;stroke-miterlimit:10;stroke-opacity:1"
       d="m 275.92578,45.214844 h -4.79687"
       id="path26192" />
    <path
       style="fill:none;stroke:#ffffff;stroke-width:1.2;stroke-linecap:butt;stroke-linejoin:round;stroke-miterlimit:10;stroke-opacity:1"
       d="m 275.92578,22.957031 h -4.79687"
       id="path26194" />
    <path
       style="fill:none;stroke:#ffffff;stroke-width:1.2;stroke-linecap:butt;stroke-linejoin:round;stroke-miterlimit:10;stroke-opacity:1"
       d="m 275.92969,0.703125 h -1.8711"
       id="path26196" />
    <path
       style="fill:none;stroke:#ffffff;stroke-width:1.2;stroke-linecap:butt;stroke-linejoin:round;stroke-miterlimit:10;stroke-opacity:1"
       d="m 275.95703,67.46875 h -4.80078"
       id="path26198" />
  </g>
</svg>
