<?xml version="1.0" encoding="UTF-8"?>
<svg xmlns="http://www.w3.org/2000/svg" xmlns:xlink="http://www.w3.org/1999/xlink" width="282.384155pt" height="119.299454pt" viewBox="0 0 282.384155 119.299454" version="1.1">
<defs>
<clipPath id="clip1">
  <path d="M 111 111 L 117 111 L 117 119.300781 L 111 119.300781 Z M 111 111 "/>
</clipPath>
<clipPath id="clip2">
  <path d="M 143 111 L 148 111 L 148 119.300781 L 143 119.300781 Z M 143 111 "/>
</clipPath>
<clipPath id="clip3">
  <path d="M 170 112 L 176 112 L 176 119.300781 L 170 119.300781 Z M 170 112 "/>
</clipPath>
<clipPath id="clip4">
  <path d="M 178 110 L 181 110 L 181 119.300781 L 178 119.300781 Z M 178 110 "/>
</clipPath>
<clipPath id="clip5">
  <path d="M 193 110 L 196 110 L 196 119.300781 L 193 119.300781 Z M 193 110 "/>
</clipPath>
<clipPath id="clip6">
  <path d="M 279 93 L 282.382812 93 L 282.382812 99 L 279 99 Z M 279 93 "/>
</clipPath>
</defs>
<g id="surface1">
<path style="fill:none;stroke-width:0.500001;stroke-linecap:butt;stroke-linejoin:round;stroke:rgb(100%,100%,100%);stroke-opacity:1;stroke-miterlimit:10;" d="M 29.394531 0.699219 L 275.921875 0.699219 L 275.921875 89.722656 L 29.394531 89.722656 Z M 29.394531 0.699219 "/>
<path style="fill:none;stroke-width:1.2;stroke-linecap:butt;stroke-linejoin:round;stroke:rgb(0%,0%,0%);stroke-opacity:1;stroke-miterlimit:10;" d="M 29.394531 0.699219 L 275.921875 0.699219 "/>
<path style="fill:none;stroke-width:1.2;stroke-linecap:butt;stroke-linejoin:round;stroke:rgb(0%,0%,0%);stroke-opacity:1;stroke-miterlimit:10;" d="M 29.394531 89.722656 L 275.921875 89.722656 "/>
<path style="fill:none;stroke-width:1.2;stroke-linecap:butt;stroke-linejoin:round;stroke:rgb(0%,0%,0%);stroke-opacity:1;stroke-miterlimit:10;" d="M 275.921875 89.722656 L 275.921875 0.699219 "/>
<path style="fill:none;stroke-width:1.2;stroke-linecap:butt;stroke-linejoin:round;stroke:rgb(0%,0%,0%);stroke-opacity:1;stroke-miterlimit:10;" d="M 29.394531 89.722656 L 275.921875 89.722656 "/>
<path style="fill:none;stroke-width:1.2;stroke-linecap:butt;stroke-linejoin:round;stroke:rgb(0%,0%,0%);stroke-opacity:1;stroke-miterlimit:10;" d="M 47.449219 89.722656 L 47.449219 87.320312 "/>
<path style="fill:none;stroke-width:1.2;stroke-linecap:butt;stroke-linejoin:round;stroke:rgb(0%,0%,0%);stroke-opacity:1;stroke-miterlimit:10;" d="M 47.449219 0.910156 L 47.449219 2.511719 "/>
<path style="fill:none;stroke-width:1.2;stroke-linecap:butt;stroke-linejoin:round;stroke:rgb(0%,0%,0%);stroke-opacity:1;stroke-miterlimit:10;" d="M 58.65625 89.722656 L 58.65625 87.320312 "/>
<path style="fill:none;stroke-width:1.2;stroke-linecap:butt;stroke-linejoin:round;stroke:rgb(0%,0%,0%);stroke-opacity:1;stroke-miterlimit:10;" d="M 58.65625 0.910156 L 58.65625 2.511719 "/>
<path style="fill:none;stroke-width:1.2;stroke-linecap:butt;stroke-linejoin:round;stroke:rgb(0%,0%,0%);stroke-opacity:1;stroke-miterlimit:10;" d="M 66.125 89.722656 L 66.125 87.320312 "/>
<path style="fill:none;stroke-width:1.2;stroke-linecap:butt;stroke-linejoin:round;stroke:rgb(0%,0%,0%);stroke-opacity:1;stroke-miterlimit:10;" d="M 66.125 0.910156 L 66.125 2.511719 "/>
<path style="fill:none;stroke-width:1.2;stroke-linecap:butt;stroke-linejoin:round;stroke:rgb(0%,0%,0%);stroke-opacity:1;stroke-miterlimit:10;" d="M 72.351562 89.722656 L 72.351562 87.320312 "/>
<path style="fill:none;stroke-width:1.2;stroke-linecap:butt;stroke-linejoin:round;stroke:rgb(0%,0%,0%);stroke-opacity:1;stroke-miterlimit:10;" d="M 72.351562 0.910156 L 72.351562 2.511719 "/>
<path style="fill:none;stroke-width:1.2;stroke-linecap:butt;stroke-linejoin:round;stroke:rgb(0%,0%,0%);stroke-opacity:1;stroke-miterlimit:10;" d="M 77.332031 89.722656 L 77.332031 87.320312 "/>
<path style="fill:none;stroke-width:1.2;stroke-linecap:butt;stroke-linejoin:round;stroke:rgb(0%,0%,0%);stroke-opacity:1;stroke-miterlimit:10;" d="M 77.332031 0.910156 L 77.332031 2.511719 "/>
<path style="fill:none;stroke-width:1.2;stroke-linecap:butt;stroke-linejoin:round;stroke:rgb(0%,0%,0%);stroke-opacity:1;stroke-miterlimit:10;" d="M 81.066406 89.722656 L 81.066406 87.320312 "/>
<path style="fill:none;stroke-width:1.2;stroke-linecap:butt;stroke-linejoin:round;stroke:rgb(0%,0%,0%);stroke-opacity:1;stroke-miterlimit:10;" d="M 81.066406 0.910156 L 81.066406 2.511719 "/>
<path style="fill:none;stroke-width:1.2;stroke-linecap:butt;stroke-linejoin:round;stroke:rgb(0%,0%,0%);stroke-opacity:1;stroke-miterlimit:10;" d="M 84.800781 89.722656 L 84.800781 87.320312 "/>
<path style="fill:none;stroke-width:1.2;stroke-linecap:butt;stroke-linejoin:round;stroke:rgb(0%,0%,0%);stroke-opacity:1;stroke-miterlimit:10;" d="M 84.800781 0.910156 L 84.800781 2.511719 "/>
<path style="fill:none;stroke-width:1.2;stroke-linecap:butt;stroke-linejoin:round;stroke:rgb(0%,0%,0%);stroke-opacity:1;stroke-miterlimit:10;" d="M 87.914062 89.722656 L 87.914062 87.320312 "/>
<path style="fill:none;stroke-width:1.2;stroke-linecap:butt;stroke-linejoin:round;stroke:rgb(0%,0%,0%);stroke-opacity:1;stroke-miterlimit:10;" d="M 87.914062 0.910156 L 87.914062 2.511719 "/>
<path style="fill:none;stroke-width:1.2;stroke-linecap:butt;stroke-linejoin:round;stroke:rgb(0%,0%,0%);stroke-opacity:1;stroke-miterlimit:10;" d="M 91.027344 89.722656 L 91.027344 87.320312 "/>
<path style="fill:none;stroke-width:1.2;stroke-linecap:butt;stroke-linejoin:round;stroke:rgb(0%,0%,0%);stroke-opacity:1;stroke-miterlimit:10;" d="M 91.027344 0.910156 L 91.027344 2.511719 "/>
<path style="fill:none;stroke-width:1.2;stroke-linecap:butt;stroke-linejoin:round;stroke:rgb(0%,0%,0%);stroke-opacity:1;stroke-miterlimit:10;" d="M 91.027344 89.722656 L 91.027344 84.921875 "/>
<path style="fill:none;stroke-width:1.2;stroke-linecap:butt;stroke-linejoin:round;stroke:rgb(0%,0%,0%);stroke-opacity:1;stroke-miterlimit:10;" d="M 91.027344 0.910156 L 91.027344 5.710938 "/>
<path style="fill:none;stroke-width:1.2;stroke-linecap:butt;stroke-linejoin:round;stroke:rgb(0%,0%,0%);stroke-opacity:1;stroke-miterlimit:10;" d="M 109.082031 89.722656 L 109.082031 87.320312 "/>
<path style="fill:none;stroke-width:1.2;stroke-linecap:butt;stroke-linejoin:round;stroke:rgb(0%,0%,0%);stroke-opacity:1;stroke-miterlimit:10;" d="M 109.082031 0.910156 L 109.082031 2.511719 "/>
<path style="fill:none;stroke-width:1.2;stroke-linecap:butt;stroke-linejoin:round;stroke:rgb(0%,0%,0%);stroke-opacity:1;stroke-miterlimit:10;" d="M 120.285156 89.722656 L 120.285156 87.320312 "/>
<path style="fill:none;stroke-width:1.2;stroke-linecap:butt;stroke-linejoin:round;stroke:rgb(0%,0%,0%);stroke-opacity:1;stroke-miterlimit:10;" d="M 120.285156 0.910156 L 120.285156 2.511719 "/>
<path style="fill:none;stroke-width:1.2;stroke-linecap:butt;stroke-linejoin:round;stroke:rgb(0%,0%,0%);stroke-opacity:1;stroke-miterlimit:10;" d="M 127.757812 89.722656 L 127.757812 87.320312 "/>
<path style="fill:none;stroke-width:1.2;stroke-linecap:butt;stroke-linejoin:round;stroke:rgb(0%,0%,0%);stroke-opacity:1;stroke-miterlimit:10;" d="M 127.757812 0.910156 L 127.757812 2.511719 "/>
<path style="fill:none;stroke-width:1.2;stroke-linecap:butt;stroke-linejoin:round;stroke:rgb(0%,0%,0%);stroke-opacity:1;stroke-miterlimit:10;" d="M 133.984375 89.722656 L 133.984375 87.320312 "/>
<path style="fill:none;stroke-width:1.2;stroke-linecap:butt;stroke-linejoin:round;stroke:rgb(0%,0%,0%);stroke-opacity:1;stroke-miterlimit:10;" d="M 133.984375 0.910156 L 133.984375 2.511719 "/>
<path style="fill:none;stroke-width:1.2;stroke-linecap:butt;stroke-linejoin:round;stroke:rgb(0%,0%,0%);stroke-opacity:1;stroke-miterlimit:10;" d="M 138.964844 89.722656 L 138.964844 87.320312 "/>
<path style="fill:none;stroke-width:1.2;stroke-linecap:butt;stroke-linejoin:round;stroke:rgb(0%,0%,0%);stroke-opacity:1;stroke-miterlimit:10;" d="M 138.964844 0.910156 L 138.964844 2.511719 "/>
<path style="fill:none;stroke-width:1.2;stroke-linecap:butt;stroke-linejoin:round;stroke:rgb(0%,0%,0%);stroke-opacity:1;stroke-miterlimit:10;" d="M 142.699219 89.722656 L 142.699219 87.320312 "/>
<path style="fill:none;stroke-width:1.2;stroke-linecap:butt;stroke-linejoin:round;stroke:rgb(0%,0%,0%);stroke-opacity:1;stroke-miterlimit:10;" d="M 142.699219 0.910156 L 142.699219 2.511719 "/>
<path style="fill:none;stroke-width:1.2;stroke-linecap:butt;stroke-linejoin:round;stroke:rgb(0%,0%,0%);stroke-opacity:1;stroke-miterlimit:10;" d="M 146.433594 89.722656 L 146.433594 87.320312 "/>
<path style="fill:none;stroke-width:1.2;stroke-linecap:butt;stroke-linejoin:round;stroke:rgb(0%,0%,0%);stroke-opacity:1;stroke-miterlimit:10;" d="M 146.433594 0.910156 L 146.433594 2.511719 "/>
<path style="fill:none;stroke-width:1.2;stroke-linecap:butt;stroke-linejoin:round;stroke:rgb(0%,0%,0%);stroke-opacity:1;stroke-miterlimit:10;" d="M 149.546875 89.722656 L 149.546875 87.320312 "/>
<path style="fill:none;stroke-width:1.2;stroke-linecap:butt;stroke-linejoin:round;stroke:rgb(0%,0%,0%);stroke-opacity:1;stroke-miterlimit:10;" d="M 149.546875 0.910156 L 149.546875 2.511719 "/>
<path style="fill:none;stroke-width:1.2;stroke-linecap:butt;stroke-linejoin:round;stroke:rgb(0%,0%,0%);stroke-opacity:1;stroke-miterlimit:10;" d="M 152.660156 89.722656 L 152.660156 87.320312 "/>
<path style="fill:none;stroke-width:1.2;stroke-linecap:butt;stroke-linejoin:round;stroke:rgb(0%,0%,0%);stroke-opacity:1;stroke-miterlimit:10;" d="M 152.660156 0.910156 L 152.660156 2.511719 "/>
<path style="fill:none;stroke-width:1.2;stroke-linecap:butt;stroke-linejoin:round;stroke:rgb(0%,0%,0%);stroke-opacity:1;stroke-miterlimit:10;" d="M 152.660156 89.722656 L 152.660156 84.921875 "/>
<path style="fill:none;stroke-width:1.2;stroke-linecap:butt;stroke-linejoin:round;stroke:rgb(0%,0%,0%);stroke-opacity:1;stroke-miterlimit:10;" d="M 152.660156 0.910156 L 152.660156 5.710938 "/>
<path style="fill:none;stroke-width:1.2;stroke-linecap:butt;stroke-linejoin:round;stroke:rgb(0%,0%,0%);stroke-opacity:1;stroke-miterlimit:10;" d="M 170.710938 89.722656 L 170.710938 87.320312 "/>
<path style="fill:none;stroke-width:1.2;stroke-linecap:butt;stroke-linejoin:round;stroke:rgb(0%,0%,0%);stroke-opacity:1;stroke-miterlimit:10;" d="M 170.710938 0.910156 L 170.710938 2.511719 "/>
<path style="fill:none;stroke-width:1.2;stroke-linecap:butt;stroke-linejoin:round;stroke:rgb(0%,0%,0%);stroke-opacity:1;stroke-miterlimit:10;" d="M 181.917969 89.722656 L 181.917969 87.320312 "/>
<path style="fill:none;stroke-width:1.2;stroke-linecap:butt;stroke-linejoin:round;stroke:rgb(0%,0%,0%);stroke-opacity:1;stroke-miterlimit:10;" d="M 181.917969 0.910156 L 181.917969 2.511719 "/>
<path style="fill:none;stroke-width:1.2;stroke-linecap:butt;stroke-linejoin:round;stroke:rgb(0%,0%,0%);stroke-opacity:1;stroke-miterlimit:10;" d="M 189.390625 89.722656 L 189.390625 87.320312 "/>
<path style="fill:none;stroke-width:1.2;stroke-linecap:butt;stroke-linejoin:round;stroke:rgb(0%,0%,0%);stroke-opacity:1;stroke-miterlimit:10;" d="M 189.390625 0.910156 L 189.390625 2.511719 "/>
<path style="fill:none;stroke-width:1.2;stroke-linecap:butt;stroke-linejoin:round;stroke:rgb(0%,0%,0%);stroke-opacity:1;stroke-miterlimit:10;" d="M 195.617188 89.722656 L 195.617188 87.320312 "/>
<path style="fill:none;stroke-width:1.2;stroke-linecap:butt;stroke-linejoin:round;stroke:rgb(0%,0%,0%);stroke-opacity:1;stroke-miterlimit:10;" d="M 195.617188 0.910156 L 195.617188 2.511719 "/>
<path style="fill:none;stroke-width:1.2;stroke-linecap:butt;stroke-linejoin:round;stroke:rgb(0%,0%,0%);stroke-opacity:1;stroke-miterlimit:10;" d="M 200.597656 89.722656 L 200.597656 87.320312 "/>
<path style="fill:none;stroke-width:1.2;stroke-linecap:butt;stroke-linejoin:round;stroke:rgb(0%,0%,0%);stroke-opacity:1;stroke-miterlimit:10;" d="M 200.597656 0.910156 L 200.597656 2.511719 "/>
<path style="fill:none;stroke-width:1.2;stroke-linecap:butt;stroke-linejoin:round;stroke:rgb(0%,0%,0%);stroke-opacity:1;stroke-miterlimit:10;" d="M 204.332031 89.722656 L 204.332031 87.320312 "/>
<path style="fill:none;stroke-width:1.2;stroke-linecap:butt;stroke-linejoin:round;stroke:rgb(0%,0%,0%);stroke-opacity:1;stroke-miterlimit:10;" d="M 204.332031 0.910156 L 204.332031 2.511719 "/>
<path style="fill:none;stroke-width:1.2;stroke-linecap:butt;stroke-linejoin:round;stroke:rgb(0%,0%,0%);stroke-opacity:1;stroke-miterlimit:10;" d="M 208.066406 89.722656 L 208.066406 87.320312 "/>
<path style="fill:none;stroke-width:1.2;stroke-linecap:butt;stroke-linejoin:round;stroke:rgb(0%,0%,0%);stroke-opacity:1;stroke-miterlimit:10;" d="M 208.066406 0.910156 L 208.066406 2.511719 "/>
<path style="fill:none;stroke-width:1.2;stroke-linecap:butt;stroke-linejoin:round;stroke:rgb(0%,0%,0%);stroke-opacity:1;stroke-miterlimit:10;" d="M 211.179688 89.722656 L 211.179688 87.320312 "/>
<path style="fill:none;stroke-width:1.2;stroke-linecap:butt;stroke-linejoin:round;stroke:rgb(0%,0%,0%);stroke-opacity:1;stroke-miterlimit:10;" d="M 211.179688 0.910156 L 211.179688 2.511719 "/>
<path style="fill:none;stroke-width:1.2;stroke-linecap:butt;stroke-linejoin:round;stroke:rgb(0%,0%,0%);stroke-opacity:1;stroke-miterlimit:10;" d="M 214.292969 89.722656 L 214.292969 87.320312 "/>
<path style="fill:none;stroke-width:1.2;stroke-linecap:butt;stroke-linejoin:round;stroke:rgb(0%,0%,0%);stroke-opacity:1;stroke-miterlimit:10;" d="M 214.292969 0.910156 L 214.292969 2.511719 "/>
<path style="fill:none;stroke-width:1.2;stroke-linecap:butt;stroke-linejoin:round;stroke:rgb(0%,0%,0%);stroke-opacity:1;stroke-miterlimit:10;" d="M 214.292969 89.722656 L 214.292969 84.921875 "/>
<path style="fill:none;stroke-width:1.2;stroke-linecap:butt;stroke-linejoin:round;stroke:rgb(0%,0%,0%);stroke-opacity:1;stroke-miterlimit:10;" d="M 214.292969 0.910156 L 214.292969 5.710938 "/>
<path style="fill:none;stroke-width:1.2;stroke-linecap:butt;stroke-linejoin:round;stroke:rgb(0%,0%,0%);stroke-opacity:1;stroke-miterlimit:10;" d="M 232.34375 89.722656 L 232.34375 87.320312 "/>
<path style="fill:none;stroke-width:1.2;stroke-linecap:butt;stroke-linejoin:round;stroke:rgb(0%,0%,0%);stroke-opacity:1;stroke-miterlimit:10;" d="M 232.34375 0.910156 L 232.34375 2.511719 "/>
<path style="fill:none;stroke-width:1.2;stroke-linecap:butt;stroke-linejoin:round;stroke:rgb(0%,0%,0%);stroke-opacity:1;stroke-miterlimit:10;" d="M 243.550781 89.722656 L 243.550781 87.320312 "/>
<path style="fill:none;stroke-width:1.2;stroke-linecap:butt;stroke-linejoin:round;stroke:rgb(0%,0%,0%);stroke-opacity:1;stroke-miterlimit:10;" d="M 243.550781 0.910156 L 243.550781 2.511719 "/>
<path style="fill:none;stroke-width:1.2;stroke-linecap:butt;stroke-linejoin:round;stroke:rgb(0%,0%,0%);stroke-opacity:1;stroke-miterlimit:10;" d="M 251.023438 89.722656 L 251.023438 87.320312 "/>
<path style="fill:none;stroke-width:1.2;stroke-linecap:butt;stroke-linejoin:round;stroke:rgb(0%,0%,0%);stroke-opacity:1;stroke-miterlimit:10;" d="M 251.023438 0.910156 L 251.023438 2.511719 "/>
<path style="fill:none;stroke-width:1.2;stroke-linecap:butt;stroke-linejoin:round;stroke:rgb(0%,0%,0%);stroke-opacity:1;stroke-miterlimit:10;" d="M 257.246094 89.722656 L 257.246094 87.320312 "/>
<path style="fill:none;stroke-width:1.2;stroke-linecap:butt;stroke-linejoin:round;stroke:rgb(0%,0%,0%);stroke-opacity:1;stroke-miterlimit:10;" d="M 257.246094 0.910156 L 257.246094 2.511719 "/>
<path style="fill:none;stroke-width:1.2;stroke-linecap:butt;stroke-linejoin:round;stroke:rgb(0%,0%,0%);stroke-opacity:1;stroke-miterlimit:10;" d="M 262.226562 89.722656 L 262.226562 87.320312 "/>
<path style="fill:none;stroke-width:1.2;stroke-linecap:butt;stroke-linejoin:round;stroke:rgb(0%,0%,0%);stroke-opacity:1;stroke-miterlimit:10;" d="M 262.226562 0.910156 L 262.226562 2.511719 "/>
<path style="fill:none;stroke-width:1.2;stroke-linecap:butt;stroke-linejoin:round;stroke:rgb(0%,0%,0%);stroke-opacity:1;stroke-miterlimit:10;" d="M 265.964844 89.722656 L 265.964844 87.320312 "/>
<path style="fill:none;stroke-width:1.2;stroke-linecap:butt;stroke-linejoin:round;stroke:rgb(0%,0%,0%);stroke-opacity:1;stroke-miterlimit:10;" d="M 265.964844 0.910156 L 265.964844 2.511719 "/>
<path style="fill:none;stroke-width:1.2;stroke-linecap:butt;stroke-linejoin:round;stroke:rgb(0%,0%,0%);stroke-opacity:1;stroke-miterlimit:10;" d="M 269.699219 89.722656 L 269.699219 87.320312 "/>
<path style="fill:none;stroke-width:1.2;stroke-linecap:butt;stroke-linejoin:round;stroke:rgb(0%,0%,0%);stroke-opacity:1;stroke-miterlimit:10;" d="M 269.699219 0.910156 L 269.699219 2.511719 "/>
<path style="fill:none;stroke-width:1.2;stroke-linecap:butt;stroke-linejoin:round;stroke:rgb(0%,0%,0%);stroke-opacity:1;stroke-miterlimit:10;" d="M 272.8125 89.722656 L 272.8125 87.320312 "/>
<path style="fill:none;stroke-width:1.2;stroke-linecap:butt;stroke-linejoin:round;stroke:rgb(0%,0%,0%);stroke-opacity:1;stroke-miterlimit:10;" d="M 272.8125 0.910156 L 272.8125 2.511719 "/>
<path style="fill:none;stroke-width:1.2;stroke-linecap:butt;stroke-linejoin:round;stroke:rgb(0%,0%,0%);stroke-opacity:1;stroke-miterlimit:10;" d="M 29.394531 0.699219 L 275.921875 0.699219 "/>
<path style="fill:none;stroke-width:1.2;stroke-linecap:butt;stroke-linejoin:round;stroke:rgb(0%,0%,0%);stroke-opacity:1;stroke-miterlimit:10;" d="M 29.394531 89.722656 L 275.921875 89.722656 "/>
<path style="fill:none;stroke-width:1.2;stroke-linecap:butt;stroke-linejoin:round;stroke:rgb(0%,0%,0%);stroke-opacity:1;stroke-miterlimit:10;" d="M 275.921875 89.722656 L 275.921875 0.699219 "/>
<path style="fill:none;stroke-width:1.2;stroke-linecap:butt;stroke-linejoin:round;stroke:rgb(0%,0%,0%);stroke-opacity:1;stroke-miterlimit:10;" d="M 29.394531 23.488281 L 89.78125 22.230469 L 137.71875 25.164062 L 170.089844 24.746094 L 199.351562 23.488281 L 231.722656 26.003906 L 260.984375 46.554688 L 273.988281 71.667969 "/>
<path style=" stroke:none;fill-rule:nonzero;fill:rgb(0%,0%,0%);fill-opacity:1;" d="M 4.980469 70.238281 L 4.902344 69.34375 C 5.261719 69.304688 5.554688 69.207031 5.785156 69.050781 C 6.015625 68.894531 6.199219 68.65625 6.34375 68.328125 C 6.484375 68.003906 6.554688 67.636719 6.554688 67.230469 C 6.554688 66.871094 6.5 66.550781 6.390625 66.273438 C 6.285156 65.996094 6.136719 65.792969 5.953125 65.660156 C 5.761719 65.523438 5.558594 65.453125 5.335938 65.453125 C 5.113281 65.453125 4.917969 65.519531 4.75 65.648438 C 4.582031 65.78125 4.441406 65.996094 4.328125 66.292969 C 4.25 66.484375 4.136719 66.910156 3.980469 67.566406 C 3.820312 68.226562 3.671875 68.6875 3.53125 68.949219 C 3.351562 69.292969 3.128906 69.546875 2.867188 69.714844 C 2.597656 69.882812 2.300781 69.964844 1.972656 69.964844 C 1.609375 69.964844 1.273438 69.863281 0.960938 69.65625 C 0.644531 69.453125 0.40625 69.152344 0.246094 68.757812 C 0.0820312 68.367188 0 67.929688 0 67.445312 C 0 66.914062 0.0859375 66.449219 0.257812 66.042969 C 0.429688 65.636719 0.679688 65.324219 1.011719 65.105469 C 1.34375 64.890625 1.71875 64.773438 2.140625 64.753906 L 2.207031 65.664062 C 1.753906 65.710938 1.414062 65.878906 1.183594 66.160156 C 0.949219 66.441406 0.835938 66.855469 0.835938 67.40625 C 0.835938 67.980469 0.941406 68.398438 1.152344 68.660156 C 1.359375 68.921875 1.613281 69.050781 1.910156 69.050781 C 2.167969 69.050781 2.378906 68.960938 2.542969 68.773438 C 2.710938 68.59375 2.882812 68.117188 3.058594 67.347656 C 3.230469 66.578125 3.378906 66.046875 3.511719 65.761719 C 3.703125 65.34375 3.945312 65.039062 4.242188 64.839844 C 4.535156 64.640625 4.875 64.539062 5.257812 64.539062 C 5.640625 64.539062 6 64.648438 6.339844 64.867188 C 6.671875 65.085938 6.933594 65.398438 7.125 65.808594 C 7.308594 66.21875 7.402344 66.675781 7.402344 67.1875 C 7.402344 67.835938 7.308594 68.378906 7.121094 68.816406 C 6.929688 69.253906 6.648438 69.597656 6.269531 69.847656 C 5.890625 70.097656 5.460938 70.226562 4.980469 70.238281 Z M 4.980469 70.238281 "/>
<path style=" stroke:none;fill-rule:nonzero;fill:rgb(0%,0%,0%);fill-opacity:1;" d="M 7.28125 63.246094 L 0.121094 63.246094 L 0.121094 62.273438 L 5.742188 58.515625 L 0.121094 58.515625 L 0.121094 57.605469 L 7.28125 57.605469 L 7.28125 58.578125 L 1.65625 62.339844 L 7.28125 62.339844 Z M 7.28125 63.246094 "/>
<path style=" stroke:none;fill-rule:nonzero;fill:rgb(0%,0%,0%);fill-opacity:1;" d="M 7.28125 56.011719 L 0.121094 56.011719 L 0.121094 53.542969 C 0.121094 52.988281 0.15625 52.5625 0.226562 52.269531 C 0.320312 51.859375 0.488281 51.511719 0.738281 51.21875 C 1.054688 50.84375 1.464844 50.5625 1.964844 50.375 C 2.457031 50.1875 3.023438 50.09375 3.664062 50.09375 C 4.207031 50.09375 4.6875 50.15625 5.109375 50.28125 C 5.527344 50.410156 5.875 50.574219 6.152344 50.769531 C 6.425781 50.96875 6.640625 51.1875 6.800781 51.425781 C 6.957031 51.660156 7.078125 51.945312 7.160156 52.28125 C 7.238281 52.613281 7.28125 52.996094 7.28125 53.425781 Z M 6.4375 55.0625 L 6.4375 53.535156 C 6.4375 53.0625 6.390625 52.695312 6.304688 52.425781 C 6.214844 52.15625 6.09375 51.941406 5.933594 51.78125 C 5.707031 51.558594 5.40625 51.382812 5.03125 51.257812 C 4.648438 51.132812 4.1875 51.070312 3.648438 51.070312 C 2.898438 51.070312 2.324219 51.191406 1.925781 51.441406 C 1.519531 51.683594 1.25 51.980469 1.113281 52.332031 C 1.015625 52.585938 0.96875 52.996094 0.96875 53.558594 L 0.96875 55.0625 Z M 6.4375 55.0625 "/>
<path style=" stroke:none;fill-rule:nonzero;fill:rgb(0%,0%,0%);fill-opacity:1;" d="M 7.28125 48.769531 L 0.121094 48.769531 L 0.121094 45.59375 C 0.121094 44.957031 0.1875 44.472656 0.316406 44.140625 C 0.445312 43.808594 0.671875 43.542969 0.996094 43.34375 C 1.320312 43.144531 1.679688 43.046875 2.074219 43.046875 C 2.582031 43.046875 3.011719 43.210938 3.359375 43.539062 C 3.707031 43.867188 3.929688 44.375 4.023438 45.0625 C 4.144531 44.8125 4.261719 44.621094 4.378906 44.492188 C 4.632812 44.214844 4.953125 43.953125 5.332031 43.707031 L 7.28125 42.460938 L 7.28125 43.652344 L 5.792969 44.597656 C 5.363281 44.875 5.03125 45.105469 4.804688 45.28125 C 4.578125 45.460938 4.417969 45.625 4.328125 45.765625 C 4.234375 45.90625 4.171875 46.050781 4.136719 46.195312 C 4.113281 46.304688 4.101562 46.480469 4.101562 46.722656 L 4.101562 47.820312 L 7.28125 47.820312 Z M 3.28125 47.820312 L 3.28125 45.785156 C 3.28125 45.351562 3.238281 45.015625 3.148438 44.769531 C 3.058594 44.527344 2.914062 44.339844 2.71875 44.214844 C 2.519531 44.085938 2.304688 44.023438 2.074219 44.023438 C 1.738281 44.023438 1.457031 44.148438 1.242188 44.394531 C 1.023438 44.636719 0.914062 45.027344 0.914062 45.554688 L 0.914062 47.820312 Z M 3.28125 47.820312 "/>
<path style=" stroke:none;fill-rule:nonzero;fill:rgb(0%,0%,0%);fill-opacity:1;" d="M 9.269531 38.875 L 0.121094 38.875 L 0.121094 36.9375 L 0.851562 36.9375 L 0.851562 37.996094 L 8.539062 37.996094 L 8.539062 36.9375 L 9.269531 36.9375 Z M 9.269531 38.875 "/>
<path style=" stroke:none;fill-rule:nonzero;fill:rgb(0%,0%,0%);fill-opacity:1;" d="M 7.28125 32.757812 L 6.625 32.757812 C 7.140625 33.085938 7.398438 33.570312 7.398438 34.207031 C 7.398438 34.621094 7.285156 35.003906 7.054688 35.351562 C 6.828125 35.695312 6.511719 35.964844 6.105469 36.15625 C 5.695312 36.347656 5.222656 36.441406 4.691406 36.441406 C 4.175781 36.441406 3.707031 36.355469 3.285156 36.179688 C 2.863281 36.007812 2.539062 35.75 2.316406 35.40625 C 2.089844 35.058594 1.976562 34.675781 1.976562 34.246094 C 1.976562 33.933594 2.042969 33.65625 2.179688 33.414062 C 2.308594 33.167969 2.480469 32.96875 2.691406 32.816406 L 0.121094 32.816406 L 0.121094 31.941406 L 7.28125 31.941406 Z M 4.691406 35.535156 C 5.355469 35.535156 5.851562 35.398438 6.183594 35.117188 C 6.511719 34.835938 6.675781 34.507812 6.675781 34.125 C 6.675781 33.742188 6.519531 33.417969 6.207031 33.148438 C 5.890625 32.878906 5.410156 32.742188 4.765625 32.742188 C 4.054688 32.742188 3.535156 32.878906 3.203125 33.152344 C 2.871094 33.425781 2.707031 33.765625 2.707031 34.164062 C 2.707031 34.554688 2.863281 34.882812 3.183594 35.144531 C 3.503906 35.40625 4.003906 35.535156 4.691406 35.535156 Z M 4.691406 35.535156 "/>
<path style=" stroke:none;fill-rule:nonzero;fill:rgb(0%,0%,0%);fill-opacity:1;" d="M 7.28125 30.484375 L 0.121094 30.484375 L 0.121094 27.796875 C 0.121094 27.25 0.195312 26.8125 0.34375 26.484375 C 0.484375 26.152344 0.707031 25.894531 1.011719 25.707031 C 1.308594 25.519531 1.625 25.425781 1.953125 25.425781 C 2.257812 25.425781 2.546875 25.507812 2.816406 25.671875 C 3.085938 25.839844 3.304688 26.089844 3.472656 26.425781 C 3.597656 25.992188 3.816406 25.660156 4.121094 25.429688 C 4.425781 25.195312 4.789062 25.078125 5.207031 25.078125 C 5.539062 25.078125 5.851562 25.148438 6.144531 25.292969 C 6.429688 25.433594 6.652344 25.605469 6.808594 25.816406 C 6.964844 26.023438 7.082031 26.285156 7.164062 26.601562 C 7.242188 26.914062 7.28125 27.296875 7.28125 27.753906 Z M 3.128906 29.535156 L 3.128906 27.988281 C 3.128906 27.566406 3.101562 27.265625 3.046875 27.085938 C 2.976562 26.84375 2.855469 26.664062 2.691406 26.542969 C 2.523438 26.417969 2.316406 26.355469 2.066406 26.355469 C 1.828125 26.355469 1.621094 26.414062 1.441406 26.527344 C 1.257812 26.640625 1.132812 26.804688 1.070312 27.015625 C 1 27.226562 0.96875 27.589844 0.96875 28.105469 L 0.96875 29.535156 Z M 6.4375 29.535156 L 6.4375 27.753906 C 6.4375 27.449219 6.425781 27.234375 6.402344 27.109375 C 6.363281 26.890625 6.296875 26.707031 6.207031 26.5625 C 6.113281 26.414062 5.984375 26.296875 5.8125 26.199219 C 5.636719 26.105469 5.433594 26.058594 5.207031 26.058594 C 4.9375 26.058594 4.707031 26.128906 4.511719 26.265625 C 4.3125 26.402344 4.175781 26.589844 4.097656 26.835938 C 4.015625 27.078125 3.976562 27.425781 3.976562 27.878906 L 3.976562 29.535156 Z M 6.4375 29.535156 "/>
<path style=" stroke:none;fill-rule:nonzero;fill:rgb(0%,0%,0%);fill-opacity:1;" d="M 9.269531 22.40625 L 9.269531 24.34375 L 8.539062 24.34375 L 8.539062 23.285156 L 0.851562 23.285156 L 0.851562 24.34375 L 0.121094 24.34375 L 0.121094 22.40625 Z M 9.269531 22.40625 "/>
<path style=" stroke:none;fill-rule:nonzero;fill:rgb(0%,0%,0%);fill-opacity:1;" d="M 103.855469 110.035156 L 104.800781 110.035156 L 104.800781 117.195312 L 103.855469 117.195312 Z M 103.855469 110.035156 "/>
<path style=" stroke:none;fill-rule:nonzero;fill:rgb(0%,0%,0%);fill-opacity:1;" d="M 106.355469 117.195312 L 106.355469 112.007812 L 107.144531 112.007812 L 107.144531 112.746094 C 107.527344 112.175781 108.078125 111.890625 108.796875 111.890625 C 109.109375 111.890625 109.394531 111.949219 109.65625 112.0625 C 109.917969 112.171875 110.117188 112.320312 110.246094 112.503906 C 110.375 112.683594 110.46875 112.902344 110.519531 113.152344 C 110.550781 113.316406 110.570312 113.597656 110.570312 114.007812 L 110.570312 117.195312 L 109.691406 117.195312 L 109.691406 114.039062 C 109.691406 113.683594 109.65625 113.414062 109.585938 113.238281 C 109.519531 113.0625 109.398438 112.917969 109.222656 112.816406 C 109.046875 112.707031 108.84375 112.652344 108.609375 112.652344 C 108.234375 112.652344 107.914062 112.773438 107.640625 113.011719 C 107.367188 113.246094 107.234375 113.699219 107.234375 114.363281 L 107.234375 117.195312 Z M 106.355469 117.195312 "/>
<g clip-path="url(#clip1)" clip-rule="nonzero">
<path style=" stroke:none;fill-rule:nonzero;fill:rgb(0%,0%,0%);fill-opacity:1;" d="M 111.921875 119.183594 L 111.921875 112.007812 L 112.722656 112.007812 L 112.722656 112.683594 C 112.910156 112.417969 113.125 112.222656 113.363281 112.09375 C 113.597656 111.957031 113.886719 111.890625 114.226562 111.890625 C 114.667969 111.890625 115.058594 112.007812 115.398438 112.234375 C 115.734375 112.460938 115.992188 112.785156 116.164062 113.199219 C 116.335938 113.613281 116.421875 114.066406 116.421875 114.5625 C 116.421875 115.09375 116.328125 115.570312 116.136719 116 C 115.945312 116.421875 115.667969 116.746094 115.304688 116.976562 C 114.945312 117.199219 114.5625 117.3125 114.164062 117.3125 C 113.871094 117.3125 113.605469 117.25 113.371094 117.125 C 113.140625 117.003906 112.949219 116.847656 112.800781 116.65625 L 112.800781 119.183594 Z M 112.71875 114.632812 C 112.71875 115.296875 112.851562 115.792969 113.121094 116.109375 C 113.390625 116.429688 113.71875 116.589844 114.105469 116.589844 C 114.496094 116.589844 114.828125 116.425781 115.105469 116.097656 C 115.382812 115.765625 115.523438 115.25 115.523438 114.558594 C 115.523438 113.898438 115.386719 113.402344 115.113281 113.074219 C 114.84375 112.746094 114.519531 112.582031 114.144531 112.582031 C 113.769531 112.582031 113.4375 112.757812 113.148438 113.109375 C 112.859375 113.457031 112.71875 113.964844 112.71875 114.632812 Z M 112.71875 114.632812 "/>
</g>
<path style=" stroke:none;fill-rule:nonzero;fill:rgb(0%,0%,0%);fill-opacity:1;" d="M 120.886719 117.195312 L 120.886719 116.433594 C 120.480469 117.019531 119.933594 117.3125 119.242188 117.3125 C 118.933594 117.3125 118.648438 117.253906 118.382812 117.136719 C 118.117188 117.019531 117.921875 116.871094 117.789062 116.695312 C 117.664062 116.519531 117.574219 116.300781 117.523438 116.042969 C 117.484375 115.871094 117.46875 115.597656 117.46875 115.222656 L 117.46875 112.007812 L 118.347656 112.007812 L 118.347656 114.886719 C 118.347656 115.34375 118.363281 115.652344 118.402344 115.8125 C 118.457031 116.042969 118.574219 116.226562 118.753906 116.359375 C 118.929688 116.488281 119.152344 116.554688 119.417969 116.554688 C 119.679688 116.554688 119.925781 116.488281 120.160156 116.355469 C 120.390625 116.21875 120.550781 116.035156 120.648438 115.804688 C 120.746094 115.570312 120.792969 115.230469 120.792969 114.789062 L 120.792969 112.007812 L 121.671875 112.007812 L 121.671875 117.195312 Z M 120.886719 117.195312 "/>
<path style=" stroke:none;fill-rule:nonzero;fill:rgb(0%,0%,0%);fill-opacity:1;" d="M 124.972656 116.410156 L 125.101562 117.183594 C 124.851562 117.238281 124.632812 117.261719 124.4375 117.261719 C 124.117188 117.261719 123.871094 117.210938 123.695312 117.113281 C 123.519531 117.011719 123.394531 116.878906 123.324219 116.714844 C 123.25 116.550781 123.214844 116.203125 123.214844 115.675781 L 123.214844 112.691406 L 122.570312 112.691406 L 122.570312 112.007812 L 123.214844 112.007812 L 123.214844 110.726562 L 124.089844 110.199219 L 124.089844 112.007812 L 124.972656 112.007812 L 124.972656 112.691406 L 124.089844 112.691406 L 124.089844 115.726562 C 124.089844 115.976562 124.105469 116.136719 124.132812 116.207031 C 124.164062 116.28125 124.214844 116.335938 124.285156 116.378906 C 124.355469 116.421875 124.457031 116.441406 124.585938 116.441406 C 124.683594 116.441406 124.8125 116.429688 124.972656 116.410156 Z M 124.972656 116.410156 "/>
<path style=" stroke:none;fill-rule:nonzero;fill:rgb(0%,0%,0%);fill-opacity:1;" d="M 128.761719 117.195312 L 128.761719 110.035156 L 133.589844 110.035156 L 133.589844 110.882812 L 129.710938 110.882812 L 129.710938 113.097656 L 133.070312 113.097656 L 133.070312 113.941406 L 129.710938 113.941406 L 129.710938 117.195312 Z M 128.761719 117.195312 "/>
<path style=" stroke:none;fill-rule:nonzero;fill:rgb(0%,0%,0%);fill-opacity:1;" d="M 134.703125 117.195312 L 134.703125 112.007812 L 135.496094 112.007812 L 135.496094 112.796875 C 135.695312 112.425781 135.882812 112.183594 136.050781 112.066406 C 136.222656 111.949219 136.414062 111.890625 136.617188 111.890625 C 136.914062 111.890625 137.214844 111.988281 137.523438 112.175781 L 137.21875 112.992188 C 137.003906 112.863281 136.789062 112.800781 136.574219 112.800781 C 136.382812 112.800781 136.210938 112.859375 136.058594 112.976562 C 135.902344 113.089844 135.792969 113.25 135.730469 113.453125 C 135.632812 113.765625 135.582031 114.109375 135.582031 114.480469 L 135.582031 117.195312 Z M 134.703125 117.195312 "/>
<path style=" stroke:none;fill-rule:nonzero;fill:rgb(0%,0%,0%);fill-opacity:1;" d="M 141.605469 115.523438 L 142.511719 115.636719 C 142.367188 116.167969 142.101562 116.578125 141.714844 116.871094 C 141.328125 117.164062 140.832031 117.3125 140.230469 117.3125 C 139.472656 117.3125 138.871094 117.078125 138.425781 116.613281 C 137.980469 116.144531 137.761719 115.488281 137.761719 114.644531 C 137.761719 113.773438 137.984375 113.097656 138.433594 112.613281 C 138.882812 112.132812 139.464844 111.890625 140.183594 111.890625 C 140.875 111.890625 141.441406 112.128906 141.882812 112.601562 C 142.320312 113.070312 142.542969 113.734375 142.542969 114.59375 C 142.542969 114.644531 142.539062 114.722656 142.535156 114.828125 L 138.667969 114.828125 C 138.703125 115.394531 138.863281 115.832031 139.152344 116.136719 C 139.441406 116.4375 139.804688 116.589844 140.238281 116.589844 C 140.558594 116.589844 140.835938 116.503906 141.0625 116.335938 C 141.289062 116.167969 141.46875 115.894531 141.605469 115.523438 Z M 138.71875 114.105469 L 141.613281 114.105469 C 141.574219 113.667969 141.464844 113.339844 141.28125 113.121094 C 141 112.785156 140.636719 112.613281 140.191406 112.613281 C 139.789062 112.613281 139.449219 112.75 139.171875 113.019531 C 138.898438 113.289062 138.746094 113.652344 138.71875 114.105469 Z M 138.71875 114.105469 "/>
<g clip-path="url(#clip2)" clip-rule="nonzero">
<path style=" stroke:none;fill-rule:nonzero;fill:rgb(0%,0%,0%);fill-opacity:1;" d="M 146.925781 119.183594 L 146.925781 116.644531 C 146.789062 116.835938 146.597656 116.996094 146.351562 117.121094 C 146.105469 117.25 145.84375 117.3125 145.570312 117.3125 C 144.953125 117.3125 144.421875 117.066406 143.976562 116.574219 C 143.535156 116.082031 143.3125 115.410156 143.3125 114.554688 C 143.3125 114.03125 143.402344 113.566406 143.582031 113.152344 C 143.761719 112.738281 144.027344 112.425781 144.367188 112.214844 C 144.710938 112 145.089844 111.890625 145.5 111.890625 C 146.140625 111.890625 146.644531 112.164062 147.015625 112.703125 L 147.015625 112.007812 L 147.804688 112.007812 L 147.804688 119.183594 Z M 144.214844 114.585938 C 144.214844 115.253906 144.355469 115.757812 144.636719 116.089844 C 144.914062 116.421875 145.25 116.589844 145.640625 116.589844 C 146.015625 116.589844 146.339844 116.429688 146.609375 116.117188 C 146.878906 115.796875 147.015625 115.3125 147.015625 114.664062 C 147.015625 113.976562 146.871094 113.457031 146.585938 113.109375 C 146.300781 112.757812 145.96875 112.585938 145.582031 112.585938 C 145.203125 112.585938 144.878906 112.75 144.613281 113.074219 C 144.347656 113.394531 144.214844 113.902344 144.214844 114.585938 Z M 144.214844 114.585938 "/>
</g>
<path style=" stroke:none;fill-rule:nonzero;fill:rgb(0%,0%,0%);fill-opacity:1;" d="M 152.585938 117.195312 L 152.585938 116.433594 C 152.179688 117.019531 151.632812 117.3125 150.941406 117.3125 C 150.632812 117.3125 150.347656 117.253906 150.082031 117.136719 C 149.816406 117.019531 149.621094 116.871094 149.488281 116.695312 C 149.363281 116.519531 149.273438 116.300781 149.222656 116.042969 C 149.183594 115.871094 149.167969 115.597656 149.167969 115.222656 L 149.167969 112.007812 L 150.046875 112.007812 L 150.046875 114.886719 C 150.046875 115.34375 150.0625 115.652344 150.101562 115.8125 C 150.15625 116.042969 150.273438 116.226562 150.453125 116.359375 C 150.628906 116.488281 150.851562 116.554688 151.117188 116.554688 C 151.378906 116.554688 151.625 116.488281 151.859375 116.355469 C 152.089844 116.21875 152.25 116.035156 152.347656 115.804688 C 152.445312 115.570312 152.492188 115.230469 152.492188 114.789062 L 152.492188 112.007812 L 153.371094 112.007812 L 153.371094 117.195312 Z M 152.585938 117.195312 "/>
<path style=" stroke:none;fill-rule:nonzero;fill:rgb(0%,0%,0%);fill-opacity:1;" d="M 158.304688 115.523438 L 159.210938 115.636719 C 159.066406 116.167969 158.800781 116.578125 158.414062 116.871094 C 158.027344 117.164062 157.53125 117.3125 156.929688 117.3125 C 156.171875 117.3125 155.570312 117.078125 155.125 116.613281 C 154.679688 116.144531 154.460938 115.488281 154.460938 114.644531 C 154.460938 113.773438 154.683594 113.097656 155.132812 112.613281 C 155.582031 112.132812 156.164062 111.890625 156.882812 111.890625 C 157.574219 111.890625 158.140625 112.128906 158.582031 112.601562 C 159.019531 113.070312 159.242188 113.734375 159.242188 114.59375 C 159.242188 114.644531 159.238281 114.722656 159.234375 114.828125 L 155.367188 114.828125 C 155.402344 115.394531 155.5625 115.832031 155.851562 116.136719 C 156.140625 116.4375 156.503906 116.589844 156.9375 116.589844 C 157.257812 116.589844 157.535156 116.503906 157.761719 116.335938 C 157.988281 116.167969 158.167969 115.894531 158.304688 115.523438 Z M 155.417969 114.105469 L 158.3125 114.105469 C 158.273438 113.667969 158.164062 113.339844 157.980469 113.121094 C 157.699219 112.785156 157.335938 112.613281 156.890625 112.613281 C 156.488281 112.613281 156.148438 112.75 155.871094 113.019531 C 155.597656 113.289062 155.445312 113.652344 155.417969 114.105469 Z M 155.417969 114.105469 "/>
<path style=" stroke:none;fill-rule:nonzero;fill:rgb(0%,0%,0%);fill-opacity:1;" d="M 160.320312 117.195312 L 160.320312 112.007812 L 161.109375 112.007812 L 161.109375 112.746094 C 161.492188 112.175781 162.042969 111.890625 162.761719 111.890625 C 163.074219 111.890625 163.359375 111.949219 163.621094 112.0625 C 163.882812 112.171875 164.082031 112.320312 164.210938 112.503906 C 164.339844 112.683594 164.433594 112.902344 164.484375 113.152344 C 164.515625 113.316406 164.535156 113.597656 164.535156 114.007812 L 164.535156 117.195312 L 163.65625 117.195312 L 163.65625 114.039062 C 163.65625 113.683594 163.621094 113.414062 163.550781 113.238281 C 163.484375 113.0625 163.363281 112.917969 163.1875 112.816406 C 163.011719 112.707031 162.808594 112.652344 162.574219 112.652344 C 162.199219 112.652344 161.878906 112.773438 161.605469 113.011719 C 161.332031 113.246094 161.199219 113.699219 161.199219 114.363281 L 161.199219 117.195312 Z M 160.320312 117.195312 "/>
<path style=" stroke:none;fill-rule:nonzero;fill:rgb(0%,0%,0%);fill-opacity:1;" d="M 169.269531 115.296875 L 170.132812 115.40625 C 170.039062 116.003906 169.796875 116.46875 169.40625 116.808594 C 169.019531 117.144531 168.542969 117.3125 167.976562 117.3125 C 167.265625 117.3125 166.695312 117.082031 166.261719 116.617188 C 165.832031 116.152344 165.617188 115.488281 165.617188 114.621094 C 165.617188 114.0625 165.710938 113.570312 165.894531 113.152344 C 166.082031 112.730469 166.363281 112.417969 166.742188 112.210938 C 167.121094 111.996094 167.535156 111.890625 167.980469 111.890625 C 168.542969 111.890625 169.003906 112.035156 169.363281 112.320312 C 169.71875 112.605469 169.949219 113.007812 170.050781 113.53125 L 169.195312 113.664062 C 169.113281 113.316406 168.96875 113.054688 168.761719 112.878906 C 168.558594 112.703125 168.308594 112.613281 168.015625 112.613281 C 167.570312 112.613281 167.210938 112.773438 166.9375 113.09375 C 166.660156 113.410156 166.519531 113.910156 166.519531 114.597656 C 166.519531 115.292969 166.652344 115.800781 166.921875 116.117188 C 167.1875 116.429688 167.535156 116.589844 167.964844 116.589844 C 168.3125 116.589844 168.597656 116.484375 168.832031 116.273438 C 169.0625 116.058594 169.207031 115.734375 169.269531 115.296875 Z M 169.269531 115.296875 "/>
<g clip-path="url(#clip3)" clip-rule="nonzero">
<path style=" stroke:none;fill-rule:nonzero;fill:rgb(0%,0%,0%);fill-opacity:1;" d="M 170.847656 119.191406 L 170.75 118.367188 C 170.941406 118.417969 171.109375 118.445312 171.253906 118.445312 C 171.449219 118.445312 171.605469 118.414062 171.722656 118.347656 C 171.839844 118.28125 171.933594 118.191406 172.007812 118.074219 C 172.0625 117.984375 172.152344 117.769531 172.277344 117.417969 C 172.292969 117.371094 172.320312 117.300781 172.355469 117.203125 L 170.386719 112.007812 L 171.335938 112.007812 L 172.414062 115.011719 C 172.554688 115.394531 172.679688 115.792969 172.789062 116.214844 C 172.890625 115.808594 173.011719 115.414062 173.152344 115.03125 L 174.261719 112.007812 L 175.140625 112.007812 L 173.167969 117.28125 C 172.953125 117.851562 172.789062 118.246094 172.671875 118.460938 C 172.515625 118.75 172.335938 118.960938 172.136719 119.09375 C 171.933594 119.230469 171.691406 119.300781 171.414062 119.300781 C 171.242188 119.300781 171.054688 119.261719 170.847656 119.191406 Z M 170.847656 119.191406 "/>
</g>
<g clip-path="url(#clip4)" clip-rule="nonzero">
<path style=" stroke:none;fill-rule:nonzero;fill:rgb(0%,0%,0%);fill-opacity:1;" d="M 178.679688 119.183594 L 178.679688 110.035156 L 180.617188 110.035156 L 180.617188 110.765625 L 179.558594 110.765625 L 179.558594 118.453125 L 180.617188 118.453125 L 180.617188 119.183594 Z M 178.679688 119.183594 "/>
</g>
<path style=" stroke:none;fill-rule:nonzero;fill:rgb(0%,0%,0%);fill-opacity:1;" d="M 181.574219 117.195312 L 181.574219 110.035156 L 182.523438 110.035156 L 182.523438 112.976562 L 186.242188 112.976562 L 186.242188 110.035156 L 187.191406 110.035156 L 187.191406 117.195312 L 186.242188 117.195312 L 186.242188 113.820312 L 182.523438 113.820312 L 182.523438 117.195312 Z M 181.574219 117.195312 "/>
<path style=" stroke:none;fill-rule:nonzero;fill:rgb(0%,0%,0%);fill-opacity:1;" d="M 188.195312 117.195312 L 188.195312 116.480469 L 191.496094 112.691406 C 191.121094 112.710938 190.792969 112.722656 190.503906 112.722656 L 188.390625 112.722656 L 188.390625 112.007812 L 192.628906 112.007812 L 192.628906 112.589844 L 189.820312 115.882812 L 189.28125 116.480469 C 189.671875 116.453125 190.042969 116.4375 190.386719 116.4375 L 192.785156 116.4375 L 192.785156 117.195312 Z M 188.195312 117.195312 "/>
<g clip-path="url(#clip5)" clip-rule="nonzero">
<path style=" stroke:none;fill-rule:nonzero;fill:rgb(0%,0%,0%);fill-opacity:1;" d="M 195.128906 119.183594 L 193.191406 119.183594 L 193.191406 118.453125 L 194.25 118.453125 L 194.25 110.765625 L 193.191406 110.765625 L 193.191406 110.035156 L 195.128906 110.035156 Z M 195.128906 119.183594 "/>
</g>
<path style=" stroke:none;fill-rule:nonzero;fill:rgb(0%,0%,0%);fill-opacity:1;" d="M 271.621094 102.289062 L 270.742188 102.289062 L 270.742188 96.691406 C 270.53125 96.890625 270.253906 97.09375 269.910156 97.296875 C 269.566406 97.496094 269.257812 97.648438 268.984375 97.75 L 268.984375 96.898438 C 269.476562 96.667969 269.90625 96.390625 270.273438 96.058594 C 270.640625 95.730469 270.902344 95.414062 271.054688 95.101562 L 271.621094 95.101562 Z M 271.621094 102.289062 "/>
<path style=" stroke:none;fill-rule:nonzero;fill:rgb(0%,0%,0%);fill-opacity:1;" d="M 273.878906 98.761719 C 273.878906 97.914062 273.964844 97.234375 274.136719 96.71875 C 274.3125 96.203125 274.570312 95.804688 274.914062 95.523438 C 275.257812 95.242188 275.691406 95.101562 276.210938 95.101562 C 276.597656 95.101562 276.933594 95.179688 277.222656 95.335938 C 277.511719 95.492188 277.75 95.714844 277.941406 96.007812 C 278.128906 96.296875 278.277344 96.652344 278.386719 97.070312 C 278.492188 97.488281 278.546875 98.050781 278.546875 98.761719 C 278.546875 99.601562 278.460938 100.277344 278.289062 100.796875 C 278.113281 101.3125 277.855469 101.710938 277.511719 101.992188 C 277.167969 102.273438 276.734375 102.414062 276.210938 102.414062 C 275.523438 102.414062 274.980469 102.164062 274.585938 101.671875 C 274.113281 101.074219 273.878906 100.105469 273.878906 98.761719 Z M 274.78125 98.761719 C 274.78125 99.9375 274.917969 100.71875 275.191406 101.109375 C 275.46875 101.496094 275.808594 101.691406 276.210938 101.691406 C 276.617188 101.691406 276.953125 101.496094 277.226562 101.105469 C 277.503906 100.714844 277.644531 99.933594 277.644531 98.761719 C 277.644531 97.582031 277.503906 96.800781 277.226562 96.410156 C 276.953125 96.023438 276.613281 95.832031 276.203125 95.832031 C 275.796875 95.832031 275.476562 96 275.234375 96.34375 C 274.933594 96.78125 274.78125 97.585938 274.78125 98.761719 Z M 274.78125 98.761719 "/>
<g clip-path="url(#clip6)" clip-rule="nonzero">
<path style=" stroke:none;fill-rule:nonzero;fill:rgb(0%,0%,0%);fill-opacity:1;" d="M 279.300781 97.070312 L 279.898438 97.019531 C 279.945312 97.3125 280.046875 97.535156 280.207031 97.679688 C 280.371094 97.828125 280.566406 97.902344 280.792969 97.902344 C 281.070312 97.902344 281.300781 97.796875 281.492188 97.589844 C 281.683594 97.382812 281.777344 97.105469 281.777344 96.765625 C 281.777344 96.4375 281.6875 96.179688 281.5 95.992188 C 281.320312 95.804688 281.082031 95.710938 280.785156 95.710938 C 280.601562 95.710938 280.433594 95.753906 280.285156 95.835938 C 280.136719 95.921875 280.023438 96.027344 279.9375 96.160156 L 279.402344 96.089844 L 279.851562 93.703125 L 282.164062 93.703125 L 282.164062 94.246094 L 280.308594 94.246094 L 280.058594 95.496094 C 280.335938 95.304688 280.628906 95.207031 280.9375 95.207031 C 281.34375 95.207031 281.6875 95.347656 281.964844 95.628906 C 282.246094 95.910156 282.382812 96.269531 282.382812 96.714844 C 282.382812 97.132812 282.261719 97.5 282.015625 97.804688 C 281.71875 98.183594 281.308594 98.371094 280.792969 98.371094 C 280.371094 98.371094 280.023438 98.25 279.757812 98.015625 C 279.488281 97.777344 279.335938 97.464844 279.300781 97.070312 Z M 279.300781 97.070312 "/>
</g>
<path style=" stroke:none;fill-rule:nonzero;fill:rgb(0%,0%,0%);fill-opacity:1;" d="M 210.058594 102.355469 L 209.179688 102.355469 L 209.179688 96.753906 C 208.964844 96.957031 208.6875 97.15625 208.34375 97.359375 C 208 97.5625 207.695312 97.710938 207.421875 97.8125 L 207.421875 96.964844 C 207.910156 96.734375 208.339844 96.453125 208.710938 96.125 C 209.078125 95.796875 209.335938 95.476562 209.492188 95.167969 L 210.058594 95.167969 Z M 210.058594 102.355469 "/>
<path style=" stroke:none;fill-rule:nonzero;fill:rgb(0%,0%,0%);fill-opacity:1;" d="M 212.3125 98.824219 C 212.3125 97.976562 212.398438 97.296875 212.570312 96.78125 C 212.746094 96.265625 213.007812 95.867188 213.347656 95.585938 C 213.691406 95.308594 214.125 95.167969 214.648438 95.167969 C 215.03125 95.167969 215.367188 95.246094 215.65625 95.402344 C 215.945312 95.554688 216.1875 95.777344 216.375 96.070312 C 216.5625 96.359375 216.710938 96.714844 216.820312 97.132812 C 216.925781 97.550781 216.980469 98.113281 216.980469 98.824219 C 216.980469 99.664062 216.894531 100.34375 216.722656 100.859375 C 216.550781 101.375 216.289062 101.773438 215.945312 102.054688 C 215.605469 102.335938 215.171875 102.476562 214.648438 102.476562 C 213.957031 102.476562 213.414062 102.230469 213.019531 101.734375 C 212.546875 101.136719 212.3125 100.167969 212.3125 98.824219 Z M 213.214844 98.824219 C 213.214844 100 213.351562 100.78125 213.625 101.171875 C 213.902344 101.558594 214.242188 101.753906 214.648438 101.753906 C 215.050781 101.753906 215.390625 101.558594 215.664062 101.167969 C 215.9375 100.777344 216.078125 99.996094 216.078125 98.824219 C 216.078125 97.644531 215.9375 96.863281 215.664062 96.476562 C 215.390625 96.089844 215.046875 95.894531 214.636719 95.894531 C 214.234375 95.894531 213.910156 96.066406 213.671875 96.40625 C 213.367188 96.84375 213.214844 97.648438 213.214844 98.824219 Z M 213.214844 98.824219 "/>
<path style=" stroke:none;fill-rule:nonzero;fill:rgb(0%,0%,0%);fill-opacity:1;" d="M 219.566406 98.355469 L 219.566406 97.242188 L 217.546875 97.242188 L 217.546875 96.714844 L 219.667969 93.703125 L 220.136719 93.703125 L 220.136719 96.714844 L 220.765625 96.714844 L 220.765625 97.242188 L 220.136719 97.242188 L 220.136719 98.355469 Z M 219.566406 96.714844 L 219.566406 94.617188 L 218.109375 96.714844 Z M 219.566406 96.714844 "/>
<path style=" stroke:none;fill-rule:nonzero;fill:rgb(0%,0%,0%);fill-opacity:1;" d="M 148.453125 102.375 L 147.574219 102.375 L 147.574219 96.773438 C 147.363281 96.976562 147.085938 97.175781 146.742188 97.378906 C 146.398438 97.582031 146.089844 97.730469 145.816406 97.832031 L 145.816406 96.984375 C 146.308594 96.75 146.738281 96.472656 147.105469 96.144531 C 147.476562 95.8125 147.734375 95.496094 147.886719 95.1875 L 148.453125 95.1875 Z M 148.453125 102.375 "/>
<path style=" stroke:none;fill-rule:nonzero;fill:rgb(0%,0%,0%);fill-opacity:1;" d="M 150.710938 98.84375 C 150.710938 97.996094 150.796875 97.316406 150.96875 96.800781 C 151.144531 96.285156 151.402344 95.886719 151.746094 95.605469 C 152.089844 95.324219 152.523438 95.1875 153.042969 95.1875 C 153.429688 95.1875 153.765625 95.265625 154.054688 95.421875 C 154.34375 95.574219 154.585938 95.796875 154.773438 96.089844 C 154.960938 96.378906 155.109375 96.734375 155.21875 97.152344 C 155.324219 97.570312 155.378906 98.132812 155.378906 98.84375 C 155.378906 99.683594 155.292969 100.363281 155.121094 100.878906 C 154.949219 101.394531 154.6875 101.792969 154.34375 102.074219 C 154 102.355469 153.570312 102.496094 153.042969 102.496094 C 152.355469 102.496094 151.8125 102.25 151.417969 101.753906 C 150.945312 101.15625 150.710938 100.1875 150.710938 98.84375 Z M 151.613281 98.84375 C 151.613281 100.019531 151.75 100.800781 152.023438 101.191406 C 152.300781 101.578125 152.640625 101.773438 153.042969 101.773438 C 153.449219 101.773438 153.785156 101.578125 154.058594 101.1875 C 154.335938 100.796875 154.476562 100.015625 154.476562 98.84375 C 154.476562 97.664062 154.335938 96.882812 154.058594 96.496094 C 153.785156 96.105469 153.445312 95.914062 153.035156 95.914062 C 152.632812 95.914062 152.308594 96.085938 152.066406 96.425781 C 151.765625 96.863281 151.613281 97.667969 151.613281 98.84375 Z M 151.613281 98.84375 "/>
<path style=" stroke:none;fill-rule:nonzero;fill:rgb(0%,0%,0%);fill-opacity:1;" d="M 156.136719 97.144531 L 156.707031 97.070312 C 156.773438 97.394531 156.882812 97.625 157.039062 97.769531 C 157.199219 97.914062 157.390625 97.984375 157.617188 97.984375 C 157.886719 97.984375 158.113281 97.890625 158.296875 97.703125 C 158.484375 97.519531 158.574219 97.285156 158.574219 97.011719 C 158.574219 96.75 158.488281 96.535156 158.320312 96.363281 C 158.148438 96.191406 157.929688 96.105469 157.664062 96.105469 C 157.558594 96.105469 157.421875 96.128906 157.261719 96.171875 L 157.324219 95.667969 C 157.363281 95.671875 157.394531 95.675781 157.417969 95.675781 C 157.660156 95.675781 157.878906 95.613281 158.074219 95.484375 C 158.269531 95.359375 158.367188 95.164062 158.367188 94.898438 C 158.367188 94.6875 158.296875 94.515625 158.152344 94.378906 C 158.011719 94.238281 157.828125 94.171875 157.605469 94.171875 C 157.382812 94.171875 157.195312 94.242188 157.050781 94.378906 C 156.902344 94.519531 156.804688 94.730469 156.761719 95.007812 L 156.191406 94.90625 C 156.261719 94.523438 156.421875 94.226562 156.667969 94.019531 C 156.914062 93.808594 157.222656 93.703125 157.59375 93.703125 C 157.847656 93.703125 158.078125 93.757812 158.292969 93.867188 C 158.507812 93.972656 158.667969 94.121094 158.78125 94.3125 C 158.894531 94.5 158.953125 94.699219 158.953125 94.910156 C 158.953125 95.113281 158.898438 95.292969 158.792969 95.460938 C 158.683594 95.625 158.523438 95.757812 158.3125 95.851562 C 158.585938 95.917969 158.800781 96.050781 158.953125 96.25 C 159.105469 96.449219 159.183594 96.699219 159.183594 97 C 159.183594 97.40625 159.035156 97.75 158.738281 98.035156 C 158.441406 98.316406 158.066406 98.457031 157.613281 98.457031 C 157.207031 98.457031 156.867188 98.335938 156.59375 98.089844 C 156.328125 97.847656 156.171875 97.53125 156.136719 97.144531 Z M 156.136719 97.144531 "/>
<path style=" stroke:none;fill-rule:nonzero;fill:rgb(0%,0%,0%);fill-opacity:1;" d="M 86.886719 102.375 L 86.007812 102.375 L 86.007812 96.773438 C 85.796875 96.976562 85.515625 97.175781 85.171875 97.378906 C 84.832031 97.582031 84.523438 97.730469 84.25 97.832031 L 84.25 96.984375 C 84.742188 96.75 85.171875 96.472656 85.539062 96.144531 C 85.90625 95.8125 86.167969 95.496094 86.320312 95.1875 L 86.886719 95.1875 Z M 86.886719 102.375 "/>
<path style=" stroke:none;fill-rule:nonzero;fill:rgb(0%,0%,0%);fill-opacity:1;" d="M 89.140625 98.84375 C 89.140625 97.996094 89.226562 97.316406 89.402344 96.800781 C 89.578125 96.285156 89.835938 95.886719 90.175781 95.605469 C 90.523438 95.324219 90.957031 95.1875 91.476562 95.1875 C 91.859375 95.1875 92.195312 95.265625 92.488281 95.421875 C 92.777344 95.574219 93.015625 95.796875 93.203125 96.089844 C 93.394531 96.378906 93.542969 96.734375 93.648438 97.152344 C 93.757812 97.570312 93.808594 98.132812 93.808594 98.84375 C 93.808594 99.683594 93.722656 100.363281 93.550781 100.878906 C 93.378906 101.394531 93.121094 101.792969 92.773438 102.074219 C 92.433594 102.355469 92 102.496094 91.476562 102.496094 C 90.785156 102.496094 90.242188 102.25 89.851562 101.753906 C 89.378906 101.15625 89.140625 100.1875 89.140625 98.84375 Z M 90.046875 98.84375 C 90.046875 100.019531 90.183594 100.800781 90.457031 101.191406 C 90.730469 101.578125 91.074219 101.773438 91.476562 101.773438 C 91.878906 101.773438 92.21875 101.578125 92.492188 101.1875 C 92.769531 100.796875 92.90625 100.015625 92.90625 98.84375 C 92.90625 97.664062 92.769531 96.882812 92.492188 96.496094 C 92.21875 96.105469 91.875 95.914062 91.464844 95.914062 C 91.0625 95.914062 90.742188 96.085938 90.5 96.425781 C 90.195312 96.863281 90.046875 97.667969 90.046875 98.84375 Z M 90.046875 98.84375 "/>
<path style=" stroke:none;fill-rule:nonzero;fill:rgb(0%,0%,0%);fill-opacity:1;" d="M 97.566406 97.824219 L 97.566406 98.375 L 94.492188 98.375 C 94.484375 98.234375 94.507812 98.105469 94.558594 97.976562 C 94.636719 97.765625 94.761719 97.5625 94.929688 97.359375 C 95.105469 97.15625 95.355469 96.917969 95.679688 96.652344 C 96.1875 96.238281 96.527344 95.910156 96.707031 95.667969 C 96.882812 95.425781 96.972656 95.195312 96.972656 94.980469 C 96.972656 94.753906 96.890625 94.5625 96.726562 94.410156 C 96.566406 94.253906 96.355469 94.175781 96.097656 94.175781 C 95.820312 94.175781 95.601562 94.257812 95.4375 94.421875 C 95.269531 94.585938 95.1875 94.816406 95.183594 95.109375 L 94.597656 95.046875 C 94.636719 94.609375 94.789062 94.277344 95.050781 94.046875 C 95.3125 93.816406 95.667969 93.703125 96.109375 93.703125 C 96.554688 93.703125 96.910156 93.824219 97.167969 94.074219 C 97.429688 94.320312 97.558594 94.628906 97.558594 94.992188 C 97.558594 95.179688 97.519531 95.363281 97.445312 95.542969 C 97.367188 95.722656 97.242188 95.910156 97.0625 96.109375 C 96.890625 96.308594 96.59375 96.582031 96.183594 96.929688 C 95.84375 97.21875 95.621094 97.414062 95.523438 97.515625 C 95.425781 97.617188 95.347656 97.71875 95.285156 97.824219 Z M 97.566406 97.824219 "/>
<path style=" stroke:none;fill-rule:nonzero;fill:rgb(0%,0%,0%);fill-opacity:1;" d="M 25.71875 102.375 L 24.839844 102.375 L 24.839844 96.773438 C 24.628906 96.976562 24.351562 97.175781 24.003906 97.378906 C 23.664062 97.582031 23.355469 97.730469 23.082031 97.832031 L 23.082031 96.984375 C 23.574219 96.75 24.003906 96.472656 24.371094 96.144531 C 24.738281 95.8125 25 95.496094 25.152344 95.1875 L 25.71875 95.1875 Z M 25.71875 102.375 "/>
<path style=" stroke:none;fill-rule:nonzero;fill:rgb(0%,0%,0%);fill-opacity:1;" d="M 27.976562 98.84375 C 27.976562 97.996094 28.0625 97.316406 28.234375 96.800781 C 28.410156 96.285156 28.667969 95.886719 29.011719 95.605469 C 29.355469 95.324219 29.789062 95.1875 30.308594 95.1875 C 30.691406 95.1875 31.03125 95.265625 31.320312 95.421875 C 31.609375 95.574219 31.847656 95.796875 32.039062 96.089844 C 32.226562 96.378906 32.375 96.734375 32.480469 97.152344 C 32.589844 97.570312 32.644531 98.132812 32.644531 98.84375 C 32.644531 99.683594 32.558594 100.363281 32.382812 100.878906 C 32.210938 101.394531 31.953125 101.792969 31.609375 102.074219 C 31.265625 102.355469 30.832031 102.496094 30.308594 102.496094 C 29.617188 102.496094 29.078125 102.25 28.683594 101.753906 C 28.210938 101.15625 27.976562 100.1875 27.976562 98.84375 Z M 28.878906 98.84375 C 28.878906 100.019531 29.015625 100.800781 29.289062 101.191406 C 29.566406 101.578125 29.90625 101.773438 30.308594 101.773438 C 30.710938 101.773438 31.050781 101.578125 31.324219 101.1875 C 31.601562 100.796875 31.738281 100.015625 31.738281 98.84375 C 31.738281 97.664062 31.601562 96.882812 31.324219 96.496094 C 31.050781 96.105469 30.710938 95.914062 30.300781 95.914062 C 29.894531 95.914062 29.574219 96.085938 29.332031 96.425781 C 29.03125 96.863281 28.878906 97.667969 28.878906 98.84375 Z M 28.878906 98.84375 "/>
<path style=" stroke:none;fill-rule:nonzero;fill:rgb(0%,0%,0%);fill-opacity:1;" d="M 35.546875 98.375 L 34.976562 98.375 L 34.976562 94.734375 C 34.839844 94.863281 34.660156 94.996094 34.433594 95.125 C 34.210938 95.257812 34.011719 95.355469 33.835938 95.421875 L 33.835938 94.871094 C 34.152344 94.71875 34.433594 94.539062 34.671875 94.324219 C 34.910156 94.109375 35.082031 93.902344 35.179688 93.703125 L 35.546875 93.703125 Z M 35.546875 98.375 "/>
<path style=" stroke:none;fill-rule:nonzero;fill:rgb(0%,0%,0%);fill-opacity:1;" d="M 21.242188 28.042969 L 20.367188 28.109375 C 20.289062 27.765625 20.179688 27.515625 20.035156 27.359375 C 19.796875 27.109375 19.503906 26.984375 19.15625 26.984375 C 18.878906 26.984375 18.632812 27.0625 18.421875 27.21875 C 18.144531 27.417969 17.925781 27.714844 17.765625 28.101562 C 17.605469 28.488281 17.523438 29.039062 17.515625 29.757812 C 17.726562 29.433594 17.988281 29.195312 18.292969 29.039062 C 18.597656 28.882812 18.917969 28.804688 19.253906 28.804688 C 19.839844 28.804688 20.339844 29.019531 20.75 29.453125 C 21.164062 29.882812 21.371094 30.441406 21.371094 31.125 C 21.371094 31.574219 21.273438 31.992188 21.078125 32.378906 C 20.882812 32.761719 20.617188 33.058594 20.28125 33.261719 C 19.941406 33.46875 19.558594 33.570312 19.128906 33.570312 C 18.394531 33.570312 17.796875 33.300781 17.335938 32.765625 C 16.875 32.222656 16.644531 31.335938 16.644531 30.097656 C 16.644531 28.714844 16.898438 27.707031 17.410156 27.082031 C 17.855469 26.535156 18.457031 26.261719 19.210938 26.261719 C 19.773438 26.261719 20.234375 26.417969 20.59375 26.734375 C 20.953125 27.050781 21.171875 27.484375 21.242188 28.042969 Z M 17.652344 31.128906 C 17.652344 31.429688 17.71875 31.722656 17.84375 31.996094 C 17.972656 32.273438 18.15625 32.484375 18.386719 32.632812 C 18.617188 32.777344 18.859375 32.847656 19.113281 32.847656 C 19.484375 32.847656 19.804688 32.699219 20.070312 32.398438 C 20.335938 32.097656 20.472656 31.691406 20.472656 31.175781 C 20.472656 30.683594 20.339844 30.292969 20.074219 30.011719 C 19.8125 29.722656 19.480469 29.582031 19.078125 29.582031 C 18.683594 29.582031 18.34375 29.722656 18.070312 30.011719 C 17.792969 30.292969 17.652344 30.667969 17.652344 31.128906 Z M 17.652344 31.128906 "/>
<path style=" stroke:none;fill-rule:nonzero;fill:rgb(0%,0%,0%);fill-opacity:1;" d="M 22.378906 31.792969 L 23.226562 31.714844 C 23.296875 32.113281 23.433594 32.398438 23.636719 32.578125 C 23.835938 32.757812 24.09375 32.847656 24.410156 32.847656 C 24.679688 32.847656 24.917969 32.785156 25.121094 32.660156 C 25.324219 32.539062 25.492188 32.375 25.621094 32.167969 C 25.753906 31.960938 25.863281 31.679688 25.949219 31.328125 C 26.039062 30.976562 26.082031 30.617188 26.082031 30.253906 C 26.082031 30.214844 26.078125 30.15625 26.078125 30.078125 C 25.902344 30.359375 25.660156 30.585938 25.355469 30.761719 C 25.050781 30.933594 24.722656 31.019531 24.367188 31.019531 C 23.773438 31.019531 23.273438 30.804688 22.863281 30.375 C 22.453125 29.945312 22.25 29.378906 22.25 28.675781 C 22.25 27.953125 22.460938 27.367188 22.886719 26.925781 C 23.316406 26.480469 23.855469 26.261719 24.5 26.261719 C 24.964844 26.261719 25.390625 26.386719 25.773438 26.636719 C 26.160156 26.886719 26.453125 27.246094 26.652344 27.710938 C 26.855469 28.171875 26.957031 28.84375 26.957031 29.722656 C 26.957031 30.636719 26.855469 31.367188 26.65625 31.910156 C 26.457031 32.449219 26.164062 32.863281 25.769531 33.144531 C 25.378906 33.429688 24.917969 33.570312 24.390625 33.570312 C 23.832031 33.570312 23.375 33.414062 23.019531 33.105469 C 22.664062 32.792969 22.453125 32.355469 22.378906 31.792969 Z M 25.980469 28.632812 C 25.980469 28.128906 25.84375 27.726562 25.574219 27.433594 C 25.304688 27.136719 24.984375 26.988281 24.605469 26.988281 C 24.214844 26.988281 23.875 27.148438 23.585938 27.464844 C 23.296875 27.785156 23.152344 28.199219 23.152344 28.707031 C 23.152344 29.164062 23.289062 29.535156 23.5625 29.820312 C 23.839844 30.101562 24.179688 30.246094 24.582031 30.246094 C 24.988281 30.246094 25.324219 30.101562 25.582031 29.820312 C 25.847656 29.535156 25.980469 29.136719 25.980469 28.632812 Z M 25.980469 28.632812 "/>
<path style=" stroke:none;fill-rule:nonzero;fill:rgb(0%,0%,0%);fill-opacity:1;" d="M 16.78125 0.964844 L 16.78125 0.121094 L 21.414062 0.121094 L 21.414062 0.804688 C 20.957031 1.289062 20.503906 1.933594 20.054688 2.738281 C 19.609375 3.542969 19.265625 4.371094 19.019531 5.21875 C 18.84375 5.820312 18.734375 6.472656 18.683594 7.1875 L 17.78125 7.1875 C 17.789062 6.625 17.902344 5.945312 18.113281 5.144531 C 18.324219 4.347656 18.625 3.582031 19.019531 2.839844 C 19.417969 2.097656 19.839844 1.472656 20.285156 0.964844 Z M 16.78125 0.964844 "/>
<path style=" stroke:none;fill-rule:nonzero;fill:rgb(0%,0%,0%);fill-opacity:1;" d="M 22.289062 3.65625 C 22.289062 2.8125 22.375 2.128906 22.546875 1.617188 C 22.722656 1.097656 22.980469 0.699219 23.324219 0.417969 C 23.667969 0.140625 24.101562 0 24.621094 0 C 25.003906 0 25.34375 0.078125 25.632812 0.234375 C 25.921875 0.386719 26.160156 0.609375 26.351562 0.902344 C 26.539062 1.191406 26.6875 1.546875 26.792969 1.96875 C 26.902344 2.382812 26.957031 2.949219 26.957031 3.65625 C 26.957031 4.496094 26.867188 5.175781 26.695312 5.695312 C 26.523438 6.207031 26.265625 6.605469 25.921875 6.890625 C 25.578125 7.167969 25.144531 7.308594 24.621094 7.308594 C 23.929688 7.308594 23.390625 7.0625 22.996094 6.566406 C 22.523438 5.972656 22.289062 5 22.289062 3.65625 Z M 23.191406 3.65625 C 23.191406 4.832031 23.328125 5.613281 23.601562 6.003906 C 23.878906 6.394531 24.21875 6.585938 24.621094 6.585938 C 25.023438 6.585938 25.363281 6.390625 25.636719 6 C 25.914062 5.609375 26.050781 4.828125 26.050781 3.65625 C 26.050781 2.480469 25.914062 1.695312 25.636719 1.308594 C 25.363281 0.921875 25.023438 0.726562 24.613281 0.726562 C 24.207031 0.726562 23.886719 0.898438 23.644531 1.238281 C 23.34375 1.675781 23.191406 2.480469 23.191406 3.65625 Z M 23.191406 3.65625 "/>
<path style=" stroke:none;fill-rule:nonzero;fill:rgb(0%,0%,0%);fill-opacity:1;" d="M 21.257812 67.96875 L 20.382812 68.035156 C 20.304688 67.691406 20.195312 67.441406 20.050781 67.285156 C 19.8125 67.035156 19.519531 66.90625 19.171875 66.90625 C 18.890625 66.90625 18.644531 66.984375 18.433594 67.140625 C 18.15625 67.34375 17.941406 67.640625 17.78125 68.027344 C 17.621094 68.414062 17.539062 68.964844 17.53125 69.679688 C 17.742188 69.359375 18 69.121094 18.308594 68.964844 C 18.613281 68.808594 18.933594 68.730469 19.269531 68.730469 C 19.855469 68.730469 20.355469 68.945312 20.765625 69.378906 C 21.175781 69.808594 21.382812 70.363281 21.382812 71.046875 C 21.382812 71.496094 21.285156 71.917969 21.089844 72.304688 C 20.898438 72.6875 20.632812 72.980469 20.296875 73.1875 C 19.957031 73.390625 19.574219 73.496094 19.144531 73.496094 C 18.410156 73.496094 17.8125 73.226562 17.351562 72.6875 C 16.886719 72.148438 16.65625 71.261719 16.65625 70.023438 C 16.65625 68.640625 16.914062 67.632812 17.425781 67.003906 C 17.871094 66.457031 18.46875 66.183594 19.226562 66.183594 C 19.789062 66.183594 20.25 66.34375 20.609375 66.660156 C 20.96875 66.976562 21.183594 67.410156 21.257812 67.96875 Z M 17.667969 71.054688 C 17.667969 71.355469 17.730469 71.644531 17.859375 71.921875 C 17.988281 72.199219 18.167969 72.410156 18.402344 72.558594 C 18.632812 72.699219 18.875 72.773438 19.128906 72.773438 C 19.5 72.773438 19.816406 72.621094 20.085938 72.324219 C 20.351562 72.023438 20.484375 71.617188 20.484375 71.101562 C 20.484375 70.609375 20.355469 70.21875 20.089844 69.933594 C 19.828125 69.648438 19.496094 69.503906 19.09375 69.503906 C 18.695312 69.503906 18.359375 69.648438 18.082031 69.933594 C 17.804688 70.21875 17.667969 70.589844 17.667969 71.054688 Z M 17.667969 71.054688 "/>
<path style=" stroke:none;fill-rule:nonzero;fill:rgb(0%,0%,0%);fill-opacity:1;" d="M 22.320312 67.152344 L 22.320312 66.308594 L 26.957031 66.308594 L 26.957031 66.992188 C 26.5 67.476562 26.046875 68.121094 25.597656 68.925781 C 25.152344 69.730469 24.808594 70.554688 24.5625 71.40625 C 24.386719 72.003906 24.273438 72.660156 24.226562 73.371094 L 23.324219 73.371094 C 23.332031 72.808594 23.441406 72.128906 23.65625 71.332031 C 23.867188 70.535156 24.167969 69.765625 24.5625 69.027344 C 24.960938 68.285156 25.382812 67.660156 25.828125 67.152344 Z M 22.320312 67.152344 "/>
<path style=" stroke:none;fill-rule:nonzero;fill:rgb(0%,0%,0%);fill-opacity:1;" d="M 21.242188 47.757812 L 20.367188 47.824219 C 20.289062 47.480469 20.179688 47.230469 20.035156 47.074219 C 19.796875 46.820312 19.503906 46.695312 19.15625 46.695312 C 18.878906 46.695312 18.632812 46.773438 18.421875 46.929688 C 18.144531 47.132812 17.925781 47.425781 17.765625 47.816406 C 17.605469 48.203125 17.523438 48.753906 17.515625 49.46875 C 17.726562 49.148438 17.988281 48.910156 18.292969 48.753906 C 18.597656 48.597656 18.917969 48.519531 19.253906 48.519531 C 19.839844 48.519531 20.339844 48.734375 20.75 49.167969 C 21.164062 49.597656 21.371094 50.152344 21.371094 50.835938 C 21.371094 51.285156 21.273438 51.703125 21.078125 52.09375 C 20.882812 52.476562 20.617188 52.769531 20.28125 52.976562 C 19.941406 53.179688 19.558594 53.285156 19.128906 53.285156 C 18.394531 53.285156 17.796875 53.015625 17.335938 52.476562 C 16.875 51.9375 16.644531 51.046875 16.644531 49.8125 C 16.644531 48.429688 16.898438 47.421875 17.410156 46.792969 C 17.855469 46.246094 18.457031 45.972656 19.210938 45.972656 C 19.773438 45.972656 20.234375 46.132812 20.59375 46.449219 C 20.953125 46.761719 21.171875 47.199219 21.242188 47.757812 Z M 17.652344 50.84375 C 17.652344 51.144531 17.71875 51.433594 17.84375 51.710938 C 17.972656 51.988281 18.15625 52.199219 18.386719 52.347656 C 18.617188 52.488281 18.859375 52.5625 19.113281 52.5625 C 19.484375 52.5625 19.804688 52.410156 20.070312 52.113281 C 20.335938 51.8125 20.472656 51.40625 20.472656 50.890625 C 20.472656 50.394531 20.339844 50.007812 20.074219 49.722656 C 19.8125 49.4375 19.480469 49.292969 19.078125 49.292969 C 18.683594 49.292969 18.34375 49.4375 18.070312 49.722656 C 17.792969 50.007812 17.652344 50.378906 17.652344 50.84375 Z M 17.652344 50.84375 "/>
<path style=" stroke:none;fill-rule:nonzero;fill:rgb(0%,0%,0%);fill-opacity:1;" d="M 23.601562 49.28125 C 23.234375 49.144531 22.964844 48.957031 22.789062 48.707031 C 22.613281 48.460938 22.527344 48.164062 22.527344 47.820312 C 22.527344 47.296875 22.714844 46.859375 23.089844 46.507812 C 23.460938 46.152344 23.960938 45.972656 24.582031 45.972656 C 25.207031 45.972656 25.710938 46.15625 26.089844 46.519531 C 26.472656 46.882812 26.664062 47.324219 26.664062 47.84375 C 26.664062 48.175781 26.574219 48.464844 26.398438 48.714844 C 26.226562 48.957031 25.960938 49.144531 25.609375 49.28125 C 26.046875 49.421875 26.378906 49.652344 26.609375 49.972656 C 26.839844 50.292969 26.957031 50.671875 26.957031 51.117188 C 26.957031 51.726562 26.738281 52.242188 26.304688 52.660156 C 25.871094 53.074219 25.304688 53.285156 24.597656 53.285156 C 23.890625 53.285156 23.320312 53.074219 22.886719 52.660156 C 22.453125 52.238281 22.238281 51.714844 22.238281 51.089844 C 22.238281 50.625 22.355469 50.238281 22.589844 49.925781 C 22.828125 49.609375 23.164062 49.394531 23.601562 49.28125 Z M 23.425781 47.789062 C 23.425781 48.128906 23.535156 48.40625 23.753906 48.621094 C 23.96875 48.835938 24.253906 48.941406 24.601562 48.941406 C 24.941406 48.941406 25.21875 48.835938 25.433594 48.625 C 25.648438 48.410156 25.757812 48.148438 25.757812 47.839844 C 25.757812 47.515625 25.648438 47.246094 25.421875 47.027344 C 25.199219 46.808594 24.925781 46.695312 24.59375 46.695312 C 24.257812 46.695312 23.976562 46.804688 23.757812 47.019531 C 23.535156 47.234375 23.425781 47.492188 23.425781 47.789062 Z M 23.140625 51.097656 C 23.140625 51.347656 23.199219 51.589844 23.316406 51.824219 C 23.4375 52.058594 23.617188 52.238281 23.851562 52.371094 C 24.085938 52.496094 24.335938 52.5625 24.605469 52.5625 C 25.027344 52.5625 25.375 52.425781 25.648438 52.15625 C 25.921875 51.886719 26.058594 51.542969 26.058594 51.125 C 26.058594 50.703125 25.914062 50.351562 25.632812 50.074219 C 25.351562 49.796875 25 49.660156 24.578125 49.660156 C 24.164062 49.660156 23.820312 49.796875 23.546875 50.070312 C 23.277344 50.34375 23.140625 50.6875 23.140625 51.097656 Z M 23.140625 51.097656 "/>
<path style="fill:none;stroke-width:1.2;stroke-linecap:butt;stroke-linejoin:round;stroke:rgb(0%,0%,0%);stroke-opacity:1;stroke-miterlimit:10;" d="M 29.394531 89.722656 L 29.394531 0.699219 "/>
<path style="fill:none;stroke-width:1.2;stroke-linecap:butt;stroke-linejoin:round;stroke:rgb(0%,0%,0%);stroke-opacity:1;stroke-miterlimit:10;" d="M 29.394531 89.722656 L 29.394531 0.699219 "/>
<path style="fill:none;stroke-width:1.2;stroke-linecap:butt;stroke-linejoin:round;stroke:rgb(0%,0%,0%);stroke-opacity:1;stroke-miterlimit:10;" d="M 29.394531 89.722656 L 31.261719 89.722656 "/>
<path style="fill:none;stroke-width:1.2;stroke-linecap:butt;stroke-linejoin:round;stroke:rgb(0%,0%,0%);stroke-opacity:1;stroke-miterlimit:10;" d="M 29.394531 45.210938 L 34.195312 45.210938 "/>
<path style="fill:none;stroke-width:1.2;stroke-linecap:butt;stroke-linejoin:round;stroke:rgb(0%,0%,0%);stroke-opacity:1;stroke-miterlimit:10;" d="M 29.394531 22.953125 L 34.195312 22.953125 "/>
<path style="fill:none;stroke-width:1.2;stroke-linecap:butt;stroke-linejoin:round;stroke:rgb(0%,0%,0%);stroke-opacity:1;stroke-miterlimit:10;" d="M 29.394531 0.699219 L 31.261719 0.699219 "/>
<path style="fill:none;stroke-width:1.2;stroke-linecap:butt;stroke-linejoin:round;stroke:rgb(0%,0%,0%);stroke-opacity:1;stroke-miterlimit:10;" d="M 29.394531 89.722656 L 29.394531 0.699219 "/>
<path style="fill:none;stroke-width:1.2;stroke-linecap:butt;stroke-linejoin:round;stroke:rgb(0%,0%,0%);stroke-opacity:1;stroke-miterlimit:10;" d="M 29.367188 67.464844 L 34.167969 67.464844 "/>
<path style=" stroke:none;fill-rule:nonzero;fill:rgb(0%,0%,0%);fill-opacity:1;" d="M 21.289062 87.820312 L 20.417969 87.886719 C 20.339844 87.542969 20.226562 87.292969 20.085938 87.136719 C 19.847656 86.886719 19.554688 86.761719 19.207031 86.761719 C 18.925781 86.761719 18.679688 86.839844 18.46875 86.996094 C 18.191406 87.195312 17.972656 87.492188 17.8125 87.878906 C 17.652344 88.265625 17.570312 88.816406 17.566406 89.535156 C 17.777344 89.210938 18.035156 88.972656 18.339844 88.816406 C 18.648438 88.660156 18.96875 88.582031 19.304688 88.582031 C 19.890625 88.582031 20.386719 88.796875 20.796875 89.230469 C 21.210938 89.660156 21.417969 90.21875 21.417969 90.902344 C 21.417969 91.351562 21.320312 91.769531 21.125 92.15625 C 20.933594 92.539062 20.667969 92.835938 20.328125 93.039062 C 19.988281 93.246094 19.605469 93.347656 19.175781 93.347656 C 18.445312 93.347656 17.847656 93.078125 17.382812 92.542969 C 16.921875 92 16.691406 91.113281 16.691406 89.875 C 16.691406 88.492188 16.945312 87.488281 17.457031 86.859375 C 17.902344 86.3125 18.503906 86.039062 19.257812 86.039062 C 19.820312 86.039062 20.28125 86.195312 20.640625 86.511719 C 21.003906 86.828125 21.21875 87.261719 21.289062 87.820312 Z M 17.703125 90.90625 C 17.703125 91.207031 17.765625 91.5 17.890625 91.773438 C 18.023438 92.050781 18.203125 92.261719 18.433594 92.410156 C 18.664062 92.554688 18.90625 92.625 19.160156 92.625 C 19.53125 92.625 19.851562 92.476562 20.117188 92.175781 C 20.386719 91.875 20.519531 91.46875 20.519531 90.953125 C 20.519531 90.460938 20.386719 90.070312 20.125 89.789062 C 19.859375 89.5 19.527344 89.359375 19.128906 89.359375 C 18.730469 89.359375 18.394531 89.5 18.117188 89.789062 C 17.839844 90.070312 17.703125 90.445312 17.703125 90.90625 Z M 17.703125 90.90625 "/>
<path style=" stroke:none;fill-rule:nonzero;fill:rgb(0%,0%,0%);fill-opacity:1;" d="M 26.855469 87.820312 L 25.984375 87.886719 C 25.90625 87.542969 25.792969 87.292969 25.652344 87.136719 C 25.414062 86.886719 25.121094 86.761719 24.773438 86.761719 C 24.492188 86.761719 24.246094 86.839844 24.035156 86.996094 C 23.757812 87.195312 23.539062 87.492188 23.378906 87.878906 C 23.21875 88.265625 23.136719 88.816406 23.132812 89.535156 C 23.34375 89.210938 23.601562 88.972656 23.90625 88.816406 C 24.214844 88.660156 24.535156 88.582031 24.871094 88.582031 C 25.457031 88.582031 25.953125 88.796875 26.363281 89.230469 C 26.777344 89.660156 26.984375 90.21875 26.984375 90.902344 C 26.984375 91.351562 26.886719 91.769531 26.691406 92.15625 C 26.5 92.539062 26.234375 92.835938 25.894531 93.039062 C 25.554688 93.246094 25.171875 93.347656 24.742188 93.347656 C 24.011719 93.347656 23.414062 93.078125 22.949219 92.542969 C 22.488281 92 22.257812 91.113281 22.257812 89.875 C 22.257812 88.492188 22.511719 87.488281 23.023438 86.859375 C 23.46875 86.3125 24.070312 86.039062 24.824219 86.039062 C 25.386719 86.039062 25.847656 86.195312 26.207031 86.511719 C 26.570312 86.828125 26.785156 87.261719 26.855469 87.820312 Z M 23.269531 90.90625 C 23.269531 91.207031 23.332031 91.5 23.457031 91.773438 C 23.589844 92.050781 23.769531 92.261719 24 92.410156 C 24.230469 92.554688 24.472656 92.625 24.726562 92.625 C 25.097656 92.625 25.417969 92.476562 25.683594 92.175781 C 25.953125 91.875 26.085938 91.46875 26.085938 90.953125 C 26.085938 90.460938 25.953125 90.070312 25.691406 89.789062 C 25.425781 89.5 25.09375 89.359375 24.695312 89.359375 C 24.296875 89.359375 23.960938 89.5 23.683594 89.789062 C 23.40625 90.070312 23.269531 90.445312 23.269531 90.90625 Z M 23.269531 90.90625 "/>
<path style="fill:none;stroke-width:1.2;stroke-linecap:butt;stroke-linejoin:round;stroke:rgb(0%,0%,0%);stroke-opacity:1;stroke-miterlimit:10;" d="M 275.929688 89.726562 L 275.929688 0.703125 "/>
<path style="fill:none;stroke-width:1.2;stroke-linecap:butt;stroke-linejoin:round;stroke:rgb(0%,0%,0%);stroke-opacity:1;stroke-miterlimit:10;" d="M 275.929688 89.726562 L 275.929688 0.703125 "/>
<path style="fill:none;stroke-width:1.2;stroke-linecap:butt;stroke-linejoin:round;stroke:rgb(0%,0%,0%);stroke-opacity:1;stroke-miterlimit:10;" d="M 275.929688 89.726562 L 274.058594 89.726562 "/>
<path style="fill:none;stroke-width:1.2;stroke-linecap:butt;stroke-linejoin:round;stroke:rgb(0%,0%,0%);stroke-opacity:1;stroke-miterlimit:10;" d="M 275.925781 45.214844 L 271.128906 45.214844 "/>
<path style="fill:none;stroke-width:1.2;stroke-linecap:butt;stroke-linejoin:round;stroke:rgb(0%,0%,0%);stroke-opacity:1;stroke-miterlimit:10;" d="M 275.925781 22.957031 L 271.128906 22.957031 "/>
<path style="fill:none;stroke-width:1.2;stroke-linecap:butt;stroke-linejoin:round;stroke:rgb(0%,0%,0%);stroke-opacity:1;stroke-miterlimit:10;" d="M 275.929688 0.703125 L 274.058594 0.703125 "/>
<path style="fill:none;stroke-width:1.2;stroke-linecap:butt;stroke-linejoin:round;stroke:rgb(0%,0%,0%);stroke-opacity:1;stroke-miterlimit:10;" d="M 275.957031 67.46875 L 271.15625 67.46875 "/>
</g>
</svg>
