<?xml version="1.0" encoding="UTF-8"?>
<svg xmlns="http://www.w3.org/2000/svg" xmlns:xlink="http://www.w3.org/1999/xlink" width="280.492401pt" height="124.65918pt" viewBox="0 0 280.492401 124.65918" version="1.1">
<defs>
<clipPath id="clip1">
  <path d="M 33 2 L 280.492188 2 L 280.492188 93 L 33 93 Z M 33 2 "/>
</clipPath>
<clipPath id="clip2">
  <path d="M 32 2 L 280.492188 2 L 280.492188 4 L 32 4 Z M 32 2 "/>
</clipPath>
<clipPath id="clip3">
  <path d="M 279 2 L 280.492188 2 L 280.492188 93 L 279 93 Z M 279 2 "/>
</clipPath>
<clipPath id="clip4">
  <path d="M 32 91 L 280.492188 91 L 280.492188 93 L 32 93 Z M 32 91 "/>
</clipPath>
<clipPath id="clip5">
  <path d="M 32 2 L 280.492188 2 L 280.492188 4 L 32 4 Z M 32 2 "/>
</clipPath>
<clipPath id="clip6">
  <path d="M 32 91 L 280.492188 91 L 280.492188 93 L 32 93 Z M 32 91 "/>
</clipPath>
<clipPath id="clip7">
  <path d="M 279 2 L 280.492188 2 L 280.492188 93 L 279 93 Z M 279 2 "/>
</clipPath>
<clipPath id="clip8">
  <path d="M 129 117 L 135 117 L 135 124.660156 L 129 124.660156 Z M 129 117 "/>
</clipPath>
<clipPath id="clip9">
  <path d="M 156 117 L 162 117 L 162 124.660156 L 156 124.660156 Z M 156 117 "/>
</clipPath>
<clipPath id="clip10">
  <path d="M 165 115 L 168 115 L 168 124.660156 L 165 124.660156 Z M 165 115 "/>
</clipPath>
<clipPath id="clip11">
  <path d="M 187 115 L 190 115 L 190 124.660156 L 187 124.660156 Z M 187 115 "/>
</clipPath>
<clipPath id="clip12">
  <path d="M 279 2 L 280.492188 2 L 280.492188 93 L 279 93 Z M 279 2 "/>
</clipPath>
<clipPath id="clip13">
  <path d="M 274 47 L 280.492188 47 L 280.492188 49 L 274 49 Z M 274 47 "/>
</clipPath>
<clipPath id="clip14">
  <path d="M 274 24 L 280.492188 24 L 280.492188 27 L 274 27 Z M 274 24 "/>
</clipPath>
<clipPath id="clip15">
  <path d="M 274 69 L 280.492188 69 L 280.492188 71 L 274 71 Z M 274 69 "/>
</clipPath>
<clipPath id="clip16">
  <path d="M 32 2 L 280.492188 2 L 280.492188 4 L 32 4 Z M 32 2 "/>
</clipPath>
</defs>
<g id="surface1">
<path style="fill:none;stroke-width:1.2;stroke-linecap:butt;stroke-linejoin:round;stroke:rgb(0%,0%,0%);stroke-opacity:1;stroke-miterlimit:10;" d="M 67.820312 79.988281 L 126.347656 53.960938 L 160.347656 42.875 L 184.875 32.269531 L 203.828125 25.042969 L 218.875 24.078125 L 232.253906 26.003906 L 243.402344 28.898438 L 253.4375 30.824219 L 262.355469 33.71875 L 270.15625 34.199219 L 277.960938 39.5 "/>
<g clip-path="url(#clip1)" clip-rule="nonzero">
<path style="fill:none;stroke-width:0.500001;stroke-linecap:butt;stroke-linejoin:round;stroke:rgb(100%,100%,100%);stroke-opacity:1;stroke-miterlimit:10;" d="M 33.359375 3.230469 L 279.886719 3.230469 L 279.886719 92.253906 L 33.359375 92.253906 Z M 33.359375 3.230469 "/>
</g>
<g clip-path="url(#clip2)" clip-rule="nonzero">
<path style="fill:none;stroke-width:1.2;stroke-linecap:butt;stroke-linejoin:round;stroke:rgb(0%,0%,0%);stroke-opacity:1;stroke-miterlimit:10;" d="M 33.359375 3.230469 L 279.886719 3.230469 "/>
</g>
<g clip-path="url(#clip3)" clip-rule="nonzero">
<path style="fill:none;stroke-width:1.2;stroke-linecap:butt;stroke-linejoin:round;stroke:rgb(0%,0%,0%);stroke-opacity:1;stroke-miterlimit:10;" d="M 279.886719 92.253906 L 279.886719 3.230469 "/>
</g>
<g clip-path="url(#clip4)" clip-rule="nonzero">
<path style="fill:none;stroke-width:1.2;stroke-linecap:butt;stroke-linejoin:round;stroke:rgb(0%,0%,0%);stroke-opacity:1;stroke-miterlimit:10;" d="M 33.359375 92.253906 L 279.886719 92.253906 "/>
<path style="fill:none;stroke-width:1.2;stroke-linecap:butt;stroke-linejoin:round;stroke:rgb(0%,0%,0%);stroke-opacity:1;stroke-miterlimit:10;" d="M 33.359375 92.253906 L 279.886719 92.253906 "/>
</g>
<path style="fill:none;stroke-width:1.2;stroke-linecap:butt;stroke-linejoin:round;stroke:rgb(0%,0%,0%);stroke-opacity:1;stroke-miterlimit:10;" d="M 70 92.253906 L 70 89.851562 "/>
<path style="fill:none;stroke-width:1.2;stroke-linecap:butt;stroke-linejoin:round;stroke:rgb(0%,0%,0%);stroke-opacity:1;stroke-miterlimit:10;" d="M 93.65625 92.253906 L 93.65625 89.851562 "/>
<path style="fill:none;stroke-width:1.2;stroke-linecap:butt;stroke-linejoin:round;stroke:rgb(0%,0%,0%);stroke-opacity:1;stroke-miterlimit:10;" d="M 113.367188 92.253906 L 113.367188 89.851562 "/>
<path style="fill:none;stroke-width:1.2;stroke-linecap:butt;stroke-linejoin:round;stroke:rgb(0%,0%,0%);stroke-opacity:1;stroke-miterlimit:10;" d="M 129.140625 92.253906 L 129.140625 89.851562 "/>
<path style="fill:none;stroke-width:1.2;stroke-linecap:butt;stroke-linejoin:round;stroke:rgb(0%,0%,0%);stroke-opacity:1;stroke-miterlimit:10;" d="M 140.96875 92.253906 L 140.96875 89.851562 "/>
<path style="fill:none;stroke-width:1.2;stroke-linecap:butt;stroke-linejoin:round;stroke:rgb(0%,0%,0%);stroke-opacity:1;stroke-miterlimit:10;" d="M 152.796875 92.253906 L 152.796875 89.851562 "/>
<path style="fill:none;stroke-width:1.2;stroke-linecap:butt;stroke-linejoin:round;stroke:rgb(0%,0%,0%);stroke-opacity:1;stroke-miterlimit:10;" d="M 162.652344 92.253906 L 162.652344 89.851562 "/>
<path style="fill:none;stroke-width:1.2;stroke-linecap:butt;stroke-linejoin:round;stroke:rgb(0%,0%,0%);stroke-opacity:1;stroke-miterlimit:10;" d="M 172.511719 92.253906 L 172.511719 89.851562 "/>
<path style="fill:none;stroke-width:1.2;stroke-linecap:butt;stroke-linejoin:round;stroke:rgb(0%,0%,0%);stroke-opacity:1;stroke-miterlimit:10;" d="M 172.511719 92.253906 L 172.511719 87.453125 "/>
<path style="fill:none;stroke-width:1.2;stroke-linecap:butt;stroke-linejoin:round;stroke:rgb(0%,0%,0%);stroke-opacity:1;stroke-miterlimit:10;" d="M 229.679688 92.253906 L 229.679688 89.851562 "/>
<path style="fill:none;stroke-width:1.2;stroke-linecap:butt;stroke-linejoin:round;stroke:rgb(0%,0%,0%);stroke-opacity:1;stroke-miterlimit:10;" d="M 265.164062 92.253906 L 265.164062 89.851562 "/>
<g clip-path="url(#clip5)" clip-rule="nonzero">
<path style="fill:none;stroke-width:1.2;stroke-linecap:butt;stroke-linejoin:round;stroke:rgb(0%,0%,0%);stroke-opacity:1;stroke-miterlimit:10;" d="M 33.359375 3.230469 L 279.886719 3.230469 "/>
</g>
<g clip-path="url(#clip6)" clip-rule="nonzero">
<path style="fill:none;stroke-width:1.2;stroke-linecap:butt;stroke-linejoin:round;stroke:rgb(0%,0%,0%);stroke-opacity:1;stroke-miterlimit:10;" d="M 33.359375 92.253906 L 279.886719 92.253906 "/>
</g>
<g clip-path="url(#clip7)" clip-rule="nonzero">
<path style="fill:none;stroke-width:1.2;stroke-linecap:butt;stroke-linejoin:round;stroke:rgb(0%,0%,0%);stroke-opacity:1;stroke-miterlimit:10;" d="M 279.886719 92.253906 L 279.886719 3.230469 "/>
</g>
<path style=" stroke:none;fill-rule:nonzero;fill:rgb(0%,0%,0%);fill-opacity:1;" d="M 7.285156 97.925781 L 0.128906 97.925781 L 0.128906 96.503906 L 5.191406 94.816406 C 5.671875 94.660156 6.027344 94.546875 6.253906 94.472656 C 5.996094 94.390625 5.613281 94.265625 5.113281 94.097656 L 0.128906 92.378906 L 0.128906 91.097656 L 7.285156 91.097656 L 7.285156 92.019531 L 1.300781 92.019531 L 7.285156 94.097656 L 7.285156 94.957031 L 1.191406 97.019531 L 7.285156 97.019531 Z M 7.285156 97.925781 "/>
<path style=" stroke:none;fill-rule:nonzero;fill:rgb(0%,0%,0%);fill-opacity:1;" d="M 4.691406 90.007812 C 3.734375 90.007812 3.019531 89.738281 2.550781 89.195312 C 2.175781 88.757812 1.988281 88.21875 1.988281 87.570312 C 1.988281 86.863281 2.222656 86.285156 2.691406 85.835938 C 3.152344 85.378906 3.792969 85.148438 4.613281 85.148438 C 5.28125 85.148438 5.808594 85.25 6.191406 85.445312 C 6.578125 85.644531 6.878906 85.9375 7.097656 86.320312 C 7.304688 86.707031 7.410156 87.125 7.410156 87.570312 C 7.410156 88.300781 7.175781 88.890625 6.707031 89.335938 C 6.238281 89.785156 5.566406 90.007812 4.691406 90.007812 Z M 4.691406 89.101562 C 5.359375 89.101562 5.859375 88.957031 6.191406 88.664062 C 6.515625 88.375 6.675781 88.007812 6.675781 87.570312 C 6.675781 87.132812 6.511719 86.773438 6.175781 86.492188 C 5.84375 86.203125 5.339844 86.054688 4.660156 86.054688 C 4.027344 86.054688 3.542969 86.203125 3.207031 86.492188 C 2.875 86.785156 2.707031 87.144531 2.707031 87.570312 C 2.707031 88.007812 2.875 88.375 3.207031 88.664062 C 3.53125 88.957031 4.027344 89.101562 4.691406 89.101562 Z M 4.691406 89.101562 "/>
<path style=" stroke:none;fill-rule:nonzero;fill:rgb(0%,0%,0%);fill-opacity:1;" d="M 7.285156 80.738281 L 6.628906 80.738281 C 7.152344 81.074219 7.410156 81.558594 7.410156 82.191406 C 7.410156 82.609375 7.292969 82.996094 7.066406 83.347656 C 6.839844 83.691406 6.519531 83.957031 6.113281 84.144531 C 5.699219 84.332031 5.222656 84.425781 4.691406 84.425781 C 4.183594 84.425781 3.71875 84.34375 3.300781 84.175781 C 2.875 84 2.550781 83.738281 2.332031 83.394531 C 2.105469 83.050781 1.988281 82.667969 1.988281 82.238281 C 1.988281 81.925781 2.058594 81.652344 2.191406 81.410156 C 2.316406 81.160156 2.484375 80.957031 2.691406 80.800781 L 0.128906 80.800781 L 0.128906 79.925781 L 7.285156 79.925781 Z M 4.691406 83.519531 C 5.359375 83.519531 5.859375 83.386719 6.191406 83.113281 C 6.515625 82.832031 6.675781 82.5 6.675781 82.113281 C 6.675781 81.730469 6.519531 81.40625 6.207031 81.144531 C 5.894531 80.875 5.417969 80.738281 4.769531 80.738281 C 4.0625 80.738281 3.542969 80.875 3.207031 81.144531 C 2.875 81.417969 2.707031 81.75 2.707031 82.144531 C 2.707031 82.542969 2.871094 82.871094 3.191406 83.128906 C 3.503906 83.390625 4.003906 83.519531 4.691406 83.519531 Z M 4.691406 83.519531 "/>
<path style=" stroke:none;fill-rule:nonzero;fill:rgb(0%,0%,0%);fill-opacity:1;" d="M 7.285156 75.140625 L 6.519531 75.140625 C 7.113281 75.546875 7.410156 76.101562 7.410156 76.796875 C 7.410156 77.101562 7.351562 77.386719 7.238281 77.65625 C 7.113281 77.917969 6.964844 78.117188 6.785156 78.25 C 6.609375 78.375 6.390625 78.464844 6.128906 78.515625 C 5.964844 78.546875 5.691406 78.5625 5.316406 78.5625 L 2.097656 78.5625 L 2.097656 77.6875 L 4.972656 77.6875 C 5.433594 77.6875 5.746094 77.667969 5.910156 77.625 C 6.140625 77.574219 6.324219 77.460938 6.457031 77.28125 C 6.582031 77.105469 6.644531 76.882812 6.644531 76.609375 C 6.644531 76.351562 6.578125 76.105469 6.441406 75.875 C 6.308594 75.648438 6.125 75.484375 5.894531 75.390625 C 5.65625 75.289062 5.316406 75.234375 4.878906 75.234375 L 2.097656 75.234375 L 2.097656 74.359375 L 7.285156 74.359375 Z M 7.285156 75.140625 "/>
<path style=" stroke:none;fill-rule:nonzero;fill:rgb(0%,0%,0%);fill-opacity:1;" d="M 0.128906 72.121094 L 7.285156 72.121094 L 7.285156 72.996094 L 0.128906 72.996094 Z M 0.128906 72.121094 "/>
<path style=" stroke:none;fill-rule:nonzero;fill:rgb(0%,0%,0%);fill-opacity:1;" d="M 6.644531 67.363281 C 6.925781 67.6875 7.125 68 7.238281 68.300781 C 7.351562 68.605469 7.410156 68.925781 7.410156 69.269531 C 7.410156 69.84375 7.269531 70.285156 6.988281 70.597656 C 6.707031 70.902344 6.347656 71.050781 5.910156 71.050781 C 5.660156 71.050781 5.433594 70.996094 5.222656 70.878906 C 5.015625 70.765625 4.847656 70.613281 4.722656 70.425781 C 4.589844 70.238281 4.488281 70.027344 4.425781 69.785156 C 4.386719 69.621094 4.34375 69.359375 4.300781 69.003906 C 4.21875 68.296875 4.113281 67.777344 3.988281 67.441406 C 3.875 67.441406 3.800781 67.441406 3.769531 67.441406 C 3.40625 67.441406 3.152344 67.527344 3.003906 67.691406 C 2.808594 67.910156 2.707031 68.246094 2.707031 68.691406 C 2.707031 69.097656 2.78125 69.402344 2.925781 69.597656 C 3.074219 69.796875 3.328125 69.941406 3.691406 70.035156 L 3.582031 70.894531 C 3.207031 70.824219 2.910156 70.699219 2.691406 70.519531 C 2.464844 70.332031 2.292969 70.074219 2.175781 69.738281 C 2.050781 69.394531 1.988281 69 1.988281 68.550781 C 1.988281 68.113281 2.042969 67.761719 2.144531 67.488281 C 2.25 67.207031 2.378906 67.003906 2.535156 66.878906 C 2.691406 66.746094 2.890625 66.652344 3.128906 66.597656 C 3.277344 66.566406 3.546875 66.550781 3.941406 66.550781 L 5.113281 66.550781 C 5.925781 66.550781 6.441406 66.535156 6.660156 66.503906 C 6.878906 66.464844 7.089844 66.386719 7.285156 66.269531 L 7.285156 67.191406 C 7.097656 67.285156 6.886719 67.34375 6.644531 67.363281 Z M 4.675781 67.441406 C 4.8125 67.765625 4.925781 68.246094 5.019531 68.878906 C 5.074219 69.234375 5.128906 69.488281 5.191406 69.644531 C 5.253906 69.792969 5.347656 69.90625 5.472656 69.988281 C 5.597656 70.074219 5.738281 70.113281 5.894531 70.113281 C 6.125 70.113281 6.316406 70.027344 6.472656 69.847656 C 6.628906 69.671875 6.707031 69.410156 6.707031 69.066406 C 6.707031 68.722656 6.636719 68.421875 6.488281 68.160156 C 6.34375 67.902344 6.140625 67.707031 5.878906 67.582031 C 5.683594 67.488281 5.390625 67.441406 5.003906 67.441406 Z M 4.675781 67.441406 "/>
<path style=" stroke:none;fill-rule:nonzero;fill:rgb(0%,0%,0%);fill-opacity:1;" d="M 6.503906 63.265625 L 7.269531 63.140625 C 7.320312 63.390625 7.347656 63.609375 7.347656 63.796875 C 7.347656 64.121094 7.300781 64.371094 7.207031 64.546875 C 7.105469 64.726562 6.96875 64.851562 6.800781 64.921875 C 6.636719 64.984375 6.292969 65.015625 5.769531 65.015625 L 2.785156 65.015625 L 2.785156 65.671875 L 2.097656 65.671875 L 2.097656 65.015625 L 0.816406 65.015625 L 0.285156 64.15625 L 2.097656 64.15625 L 2.097656 63.265625 L 2.785156 63.265625 L 2.785156 64.15625 L 5.816406 64.15625 C 6.066406 64.15625 6.230469 64.140625 6.300781 64.109375 C 6.375 64.078125 6.433594 64.027344 6.472656 63.953125 C 6.515625 63.882812 6.535156 63.78125 6.535156 63.65625 C 6.535156 63.554688 6.527344 63.421875 6.503906 63.265625 Z M 6.503906 63.265625 "/>
<path style=" stroke:none;fill-rule:nonzero;fill:rgb(0%,0%,0%);fill-opacity:1;" d="M 4.691406 62.742188 C 3.734375 62.742188 3.019531 62.472656 2.550781 61.929688 C 2.175781 61.492188 1.988281 60.953125 1.988281 60.304688 C 1.988281 59.597656 2.222656 59.019531 2.691406 58.570312 C 3.152344 58.113281 3.792969 57.882812 4.613281 57.882812 C 5.28125 57.882812 5.808594 57.984375 6.191406 58.179688 C 6.578125 58.378906 6.878906 58.671875 7.097656 59.054688 C 7.304688 59.441406 7.410156 59.859375 7.410156 60.304688 C 7.410156 61.035156 7.175781 61.625 6.707031 62.070312 C 6.238281 62.519531 5.566406 62.742188 4.691406 62.742188 Z M 4.691406 61.835938 C 5.359375 61.835938 5.859375 61.691406 6.191406 61.398438 C 6.515625 61.109375 6.675781 60.742188 6.675781 60.304688 C 6.675781 59.867188 6.511719 59.507812 6.175781 59.226562 C 5.84375 58.9375 5.339844 58.789062 4.660156 58.789062 C 4.027344 58.789062 3.542969 58.9375 3.207031 59.226562 C 2.875 59.519531 2.707031 59.878906 2.707031 60.304688 C 2.707031 60.742188 2.875 61.109375 3.207031 61.398438 C 3.53125 61.691406 4.027344 61.835938 4.691406 61.835938 Z M 4.691406 61.835938 "/>
<path style=" stroke:none;fill-rule:nonzero;fill:rgb(0%,0%,0%);fill-opacity:1;" d="M 7.285156 56.847656 L 2.097656 56.847656 L 2.097656 56.066406 L 2.878906 56.066406 C 2.515625 55.859375 2.277344 55.671875 2.160156 55.503906 C 2.046875 55.339844 1.988281 55.152344 1.988281 54.941406 C 1.988281 54.640625 2.082031 54.339844 2.269531 54.035156 L 3.082031 54.332031 C 2.957031 54.550781 2.894531 54.769531 2.894531 54.988281 C 2.894531 55.175781 2.953125 55.347656 3.066406 55.503906 C 3.183594 55.660156 3.34375 55.769531 3.550781 55.832031 C 3.863281 55.925781 4.203125 55.972656 4.566406 55.972656 L 7.285156 55.972656 Z M 7.285156 56.847656 "/>
<path style=" stroke:none;fill-rule:nonzero;fill:rgb(0%,0%,0%);fill-opacity:1;" d="M 3.800781 50.90625 C 2.613281 50.90625 1.6875 50.589844 1.019531 49.953125 C 0.34375 49.320312 0.00390625 48.496094 0.00390625 47.484375 C 0.00390625 46.820312 0.160156 46.21875 0.472656 45.6875 C 0.785156 45.15625 1.230469 44.757812 1.800781 44.484375 C 2.363281 44.203125 3.003906 44.0625 3.722656 44.0625 C 4.441406 44.0625 5.089844 44.210938 5.660156 44.5 C 6.234375 44.792969 6.671875 45.210938 6.972656 45.75 C 7.265625 46.28125 7.410156 46.859375 7.410156 47.484375 C 7.410156 48.164062 7.25 48.765625 6.925781 49.296875 C 6.59375 49.828125 6.144531 50.230469 5.582031 50.5 C 5.019531 50.773438 4.425781 50.90625 3.800781 50.90625 Z M 3.816406 49.9375 C 4.683594 49.9375 5.363281 49.703125 5.863281 49.234375 C 6.355469 48.765625 6.597656 48.183594 6.597656 47.484375 C 6.597656 46.777344 6.347656 46.195312 5.847656 45.734375 C 5.347656 45.265625 4.636719 45.03125 3.707031 45.03125 C 3.125 45.03125 2.621094 45.132812 2.191406 45.328125 C 1.753906 45.527344 1.417969 45.820312 1.175781 46.203125 C 0.9375 46.578125 0.816406 47 0.816406 47.46875 C 0.816406 48.148438 1.046875 48.730469 1.503906 49.21875 C 1.964844 49.699219 2.734375 49.9375 3.816406 49.9375 Z M 3.816406 49.9375 "/>
<path style=" stroke:none;fill-rule:nonzero;fill:rgb(0%,0%,0%);fill-opacity:1;" d="M 7.285156 39.554688 L 6.519531 39.554688 C 7.113281 39.960938 7.410156 40.515625 7.410156 41.210938 C 7.410156 41.515625 7.351562 41.800781 7.238281 42.070312 C 7.113281 42.332031 6.964844 42.53125 6.785156 42.664062 C 6.609375 42.789062 6.390625 42.878906 6.128906 42.929688 C 5.964844 42.960938 5.691406 42.976562 5.316406 42.976562 L 2.097656 42.976562 L 2.097656 42.101562 L 4.972656 42.101562 C 5.433594 42.101562 5.746094 42.082031 5.910156 42.039062 C 6.140625 41.988281 6.324219 41.875 6.457031 41.695312 C 6.582031 41.519531 6.644531 41.296875 6.644531 41.023438 C 6.644531 40.765625 6.578125 40.519531 6.441406 40.289062 C 6.308594 40.0625 6.125 39.898438 5.894531 39.804688 C 5.65625 39.703125 5.316406 39.648438 4.878906 39.648438 L 2.097656 39.648438 L 2.097656 38.773438 L 7.285156 38.773438 Z M 7.285156 39.554688 "/>
<path style=" stroke:none;fill-rule:nonzero;fill:rgb(0%,0%,0%);fill-opacity:1;" d="M 6.503906 35.472656 L 7.269531 35.347656 C 7.320312 35.597656 7.347656 35.816406 7.347656 36.003906 C 7.347656 36.328125 7.300781 36.578125 7.207031 36.753906 C 7.105469 36.933594 6.96875 37.058594 6.800781 37.128906 C 6.636719 37.191406 6.292969 37.222656 5.769531 37.222656 L 2.785156 37.222656 L 2.785156 37.878906 L 2.097656 37.878906 L 2.097656 37.222656 L 0.816406 37.222656 L 0.285156 36.363281 L 2.097656 36.363281 L 2.097656 35.472656 L 2.785156 35.472656 L 2.785156 36.363281 L 5.816406 36.363281 C 6.066406 36.363281 6.230469 36.347656 6.300781 36.316406 C 6.375 36.285156 6.433594 36.234375 6.472656 36.160156 C 6.515625 36.089844 6.535156 35.988281 6.535156 35.863281 C 6.535156 35.761719 6.527344 35.628906 6.503906 35.472656 Z M 6.503906 35.472656 "/>
<path style=" stroke:none;fill-rule:nonzero;fill:rgb(0%,0%,0%);fill-opacity:1;" d="M 9.269531 34.621094 L 2.097656 34.621094 L 2.097656 33.824219 L 2.769531 33.824219 C 2.511719 33.628906 2.316406 33.414062 2.191406 33.183594 C 2.058594 32.945312 1.988281 32.652344 1.988281 32.308594 C 1.988281 31.871094 2.105469 31.488281 2.332031 31.152344 C 2.550781 30.808594 2.871094 30.554688 3.285156 30.386719 C 3.703125 30.210938 4.160156 30.121094 4.660156 30.121094 C 5.183594 30.121094 5.65625 30.214844 6.082031 30.402344 C 6.511719 30.589844 6.839844 30.867188 7.066406 31.230469 C 7.292969 31.597656 7.410156 31.976562 7.410156 32.371094 C 7.410156 32.664062 7.347656 32.929688 7.222656 33.167969 C 7.097656 33.398438 6.941406 33.589844 6.753906 33.746094 L 9.269531 33.746094 Z M 4.722656 33.824219 C 5.390625 33.824219 5.886719 33.691406 6.207031 33.417969 C 6.519531 33.148438 6.675781 32.820312 6.675781 32.433594 C 6.675781 32.050781 6.515625 31.714844 6.191406 31.433594 C 5.859375 31.152344 5.34375 31.011719 4.644531 31.011719 C 3.988281 31.011719 3.5 31.148438 3.175781 31.417969 C 2.84375 31.691406 2.675781 32.019531 2.675781 32.402344 C 2.675781 32.777344 2.855469 33.113281 3.207031 33.402344 C 3.550781 33.683594 4.058594 33.824219 4.722656 33.824219 Z M 4.722656 33.824219 "/>
<path style=" stroke:none;fill-rule:nonzero;fill:rgb(0%,0%,0%);fill-opacity:1;" d="M 7.285156 25.648438 L 6.519531 25.648438 C 7.113281 26.054688 7.410156 26.609375 7.410156 27.304688 C 7.410156 27.609375 7.351562 27.894531 7.238281 28.164062 C 7.113281 28.425781 6.964844 28.625 6.785156 28.757812 C 6.609375 28.882812 6.390625 28.972656 6.128906 29.023438 C 5.964844 29.054688 5.691406 29.070312 5.316406 29.070312 L 2.097656 29.070312 L 2.097656 28.195312 L 4.972656 28.195312 C 5.433594 28.195312 5.746094 28.175781 5.910156 28.132812 C 6.140625 28.082031 6.324219 27.96875 6.457031 27.789062 C 6.582031 27.613281 6.644531 27.390625 6.644531 27.117188 C 6.644531 26.859375 6.578125 26.613281 6.441406 26.382812 C 6.308594 26.15625 6.125 25.992188 5.894531 25.898438 C 5.65625 25.796875 5.316406 25.742188 4.878906 25.742188 L 2.097656 25.742188 L 2.097656 24.867188 L 7.285156 24.867188 Z M 7.285156 25.648438 "/>
<path style=" stroke:none;fill-rule:nonzero;fill:rgb(0%,0%,0%);fill-opacity:1;" d="M 6.503906 21.566406 L 7.269531 21.441406 C 7.320312 21.691406 7.347656 21.910156 7.347656 22.097656 C 7.347656 22.421875 7.300781 22.671875 7.207031 22.847656 C 7.105469 23.027344 6.96875 23.152344 6.800781 23.222656 C 6.636719 23.285156 6.292969 23.316406 5.769531 23.316406 L 2.785156 23.316406 L 2.785156 23.972656 L 2.097656 23.972656 L 2.097656 23.316406 L 0.816406 23.316406 L 0.285156 22.457031 L 2.097656 22.457031 L 2.097656 21.566406 L 2.785156 21.566406 L 2.785156 22.457031 L 5.816406 22.457031 C 6.066406 22.457031 6.230469 22.441406 6.300781 22.410156 C 6.375 22.378906 6.433594 22.328125 6.472656 22.253906 C 6.515625 22.183594 6.535156 22.082031 6.535156 21.957031 C 6.535156 21.855469 6.527344 21.722656 6.503906 21.566406 Z M 6.503906 21.566406 "/>
<path style=" stroke:none;fill-rule:nonzero;fill:rgb(0%,0%,0%);fill-opacity:1;" d="M 9.269531 17.925781 L 0.128906 17.925781 L 0.128906 15.972656 L 0.847656 15.972656 L 0.847656 17.035156 L 8.550781 17.035156 L 8.550781 15.972656 L 9.269531 15.972656 Z M 9.269531 17.925781 "/>
<path style=" stroke:none;fill-rule:nonzero;fill:rgb(0%,0%,0%);fill-opacity:1;" d="M 7.285156 11.792969 L 6.628906 11.792969 C 7.152344 12.128906 7.410156 12.613281 7.410156 13.246094 C 7.410156 13.664062 7.292969 14.050781 7.066406 14.402344 C 6.839844 14.746094 6.519531 15.011719 6.113281 15.199219 C 5.699219 15.386719 5.222656 15.480469 4.691406 15.480469 C 4.183594 15.480469 3.71875 15.398438 3.300781 15.230469 C 2.875 15.054688 2.550781 14.792969 2.332031 14.449219 C 2.105469 14.105469 1.988281 13.722656 1.988281 13.292969 C 1.988281 12.980469 2.058594 12.707031 2.191406 12.464844 C 2.316406 12.214844 2.484375 12.011719 2.691406 11.855469 L 0.128906 11.855469 L 0.128906 10.980469 L 7.285156 10.980469 Z M 4.691406 14.574219 C 5.359375 14.574219 5.859375 14.441406 6.191406 14.167969 C 6.515625 13.886719 6.675781 13.554688 6.675781 13.167969 C 6.675781 12.785156 6.519531 12.460938 6.207031 12.199219 C 5.894531 11.929688 5.417969 11.792969 4.769531 11.792969 C 4.0625 11.792969 3.542969 11.929688 3.207031 12.199219 C 2.875 12.472656 2.707031 12.804688 2.707031 13.199219 C 2.707031 13.597656 2.871094 13.925781 3.191406 14.183594 C 3.503906 14.445312 4.003906 14.574219 4.691406 14.574219 Z M 4.691406 14.574219 "/>
<path style=" stroke:none;fill-rule:nonzero;fill:rgb(0%,0%,0%);fill-opacity:1;" d="M 7.285156 9.523438 L 0.128906 9.523438 L 0.128906 6.835938 C 0.128906 6.296875 0.203125 5.859375 0.347656 5.523438 C 0.496094 5.191406 0.71875 4.929688 1.019531 4.742188 C 1.3125 4.554688 1.625 4.460938 1.957031 4.460938 C 2.261719 4.460938 2.546875 4.546875 2.816406 4.710938 C 3.089844 4.878906 3.308594 5.128906 3.472656 5.460938 C 3.597656 5.035156 3.816406 4.707031 4.128906 4.476562 C 4.433594 4.238281 4.792969 4.117188 5.207031 4.117188 C 5.542969 4.117188 5.855469 4.191406 6.144531 4.335938 C 6.4375 4.472656 6.660156 4.644531 6.816406 4.851562 C 6.972656 5.0625 7.09375 5.328125 7.175781 5.648438 C 7.25 5.960938 7.285156 6.34375 7.285156 6.789062 Z M 3.128906 8.570312 L 3.128906 7.023438 C 3.128906 6.609375 3.105469 6.3125 3.050781 6.132812 C 2.980469 5.882812 2.859375 5.703125 2.691406 5.585938 C 2.527344 5.460938 2.316406 5.398438 2.066406 5.398438 C 1.828125 5.398438 1.621094 5.457031 1.441406 5.570312 C 1.265625 5.6875 1.144531 5.851562 1.082031 6.070312 C 1.011719 6.28125 0.972656 6.640625 0.972656 7.148438 L 0.972656 8.570312 Z M 6.441406 8.570312 L 6.441406 6.789062 C 6.441406 6.488281 6.433594 6.273438 6.410156 6.148438 C 6.371094 5.929688 6.300781 5.75 6.207031 5.601562 C 6.113281 5.457031 5.984375 5.335938 5.816406 5.242188 C 5.640625 5.148438 5.4375 5.101562 5.207031 5.101562 C 4.949219 5.101562 4.71875 5.171875 4.519531 5.304688 C 4.324219 5.441406 4.183594 5.632812 4.097656 5.882812 C 4.015625 6.125 3.972656 6.472656 3.972656 6.929688 L 3.972656 8.570312 Z M 6.441406 8.570312 "/>
<path style=" stroke:none;fill-rule:nonzero;fill:rgb(0%,0%,0%);fill-opacity:1;" d="M 9.269531 1.453125 L 9.269531 3.390625 L 8.550781 3.390625 L 8.550781 2.328125 L 0.847656 2.328125 L 0.847656 3.390625 L 0.128906 3.390625 L 0.128906 1.453125 Z M 9.269531 1.453125 "/>
<path style=" stroke:none;fill-rule:nonzero;fill:rgb(0%,0%,0%);fill-opacity:1;" d="M 115.1875 122.554688 L 115.1875 115.398438 L 120.015625 115.398438 L 120.015625 116.242188 L 116.125 116.242188 L 116.125 118.460938 L 119.484375 118.460938 L 119.484375 119.304688 L 116.125 119.304688 L 116.125 122.554688 Z M 115.1875 122.554688 "/>
<path style=" stroke:none;fill-rule:nonzero;fill:rgb(0%,0%,0%);fill-opacity:1;" d="M 121.128906 122.554688 L 121.128906 117.367188 L 121.910156 117.367188 L 121.910156 118.148438 C 122.117188 117.785156 122.304688 117.546875 122.472656 117.429688 C 122.636719 117.316406 122.824219 117.257812 123.035156 117.257812 C 123.335938 117.257812 123.636719 117.351562 123.941406 117.539062 L 123.644531 118.351562 C 123.425781 118.226562 123.207031 118.164062 122.988281 118.164062 C 122.800781 118.164062 122.628906 118.222656 122.472656 118.335938 C 122.316406 118.453125 122.207031 118.613281 122.144531 118.820312 C 122.050781 119.132812 122.003906 119.472656 122.003906 119.835938 L 122.003906 122.554688 Z M 121.128906 122.554688 "/>
<path style=" stroke:none;fill-rule:nonzero;fill:rgb(0%,0%,0%);fill-opacity:1;" d="M 128.015625 120.882812 L 128.9375 120.992188 C 128.789062 121.523438 128.519531 121.941406 128.125 122.242188 C 127.738281 122.535156 127.25 122.679688 126.65625 122.679688 C 125.894531 122.679688 125.289062 122.445312 124.84375 121.976562 C 124.394531 121.507812 124.171875 120.851562 124.171875 120.007812 C 124.171875 119.132812 124.394531 118.457031 124.84375 117.976562 C 125.300781 117.5 125.882812 117.257812 126.59375 117.257812 C 127.289062 117.257812 127.859375 117.492188 128.296875 117.960938 C 128.734375 118.429688 128.953125 119.09375 128.953125 119.945312 C 128.953125 120 128.953125 120.078125 128.953125 120.179688 L 125.09375 120.179688 C 125.125 120.753906 125.28125 121.191406 125.5625 121.492188 C 125.851562 121.796875 126.21875 121.945312 126.65625 121.945312 C 126.976562 121.945312 127.253906 121.863281 127.484375 121.695312 C 127.710938 121.53125 127.890625 121.257812 128.015625 120.882812 Z M 125.140625 119.460938 L 128.03125 119.460938 C 127.988281 119.023438 127.878906 118.695312 127.703125 118.476562 C 127.421875 118.144531 127.054688 117.976562 126.609375 117.976562 C 126.203125 117.976562 125.863281 118.113281 125.59375 118.382812 C 125.320312 118.65625 125.171875 119.015625 125.140625 119.460938 Z M 125.140625 119.460938 "/>
<g clip-path="url(#clip8)" clip-rule="nonzero">
<path style=" stroke:none;fill-rule:nonzero;fill:rgb(0%,0%,0%);fill-opacity:1;" d="M 133.347656 124.539062 L 133.347656 122.007812 C 133.210938 122.195312 133.019531 122.359375 132.769531 122.492188 C 132.519531 122.617188 132.257812 122.679688 131.988281 122.679688 C 131.371094 122.679688 130.839844 122.4375 130.394531 121.945312 C 129.957031 121.445312 129.738281 120.769531 129.738281 119.914062 C 129.738281 119.394531 129.824219 118.929688 130.003906 118.523438 C 130.179688 118.109375 130.441406 117.796875 130.785156 117.585938 C 131.128906 117.367188 131.507812 117.257812 131.925781 117.257812 C 132.558594 117.257812 133.058594 117.523438 133.425781 118.054688 L 133.425781 117.367188 L 134.222656 117.367188 L 134.222656 124.539062 Z M 130.628906 119.945312 C 130.628906 120.613281 130.769531 121.113281 131.050781 121.445312 C 131.332031 121.78125 131.667969 121.945312 132.066406 121.945312 C 132.441406 121.945312 132.757812 121.789062 133.019531 121.476562 C 133.289062 121.15625 133.425781 120.671875 133.425781 120.023438 C 133.425781 119.335938 133.285156 118.820312 133.003906 118.476562 C 132.722656 118.125 132.386719 117.945312 132.003906 117.945312 C 131.617188 117.945312 131.289062 118.109375 131.019531 118.429688 C 130.757812 118.753906 130.628906 119.257812 130.628906 119.945312 Z M 130.628906 119.945312 "/>
</g>
<path style=" stroke:none;fill-rule:nonzero;fill:rgb(0%,0%,0%);fill-opacity:1;" d="M 139.007812 122.554688 L 139.007812 121.789062 C 138.601562 122.382812 138.046875 122.679688 137.351562 122.679688 C 137.046875 122.679688 136.761719 122.621094 136.492188 122.507812 C 136.230469 122.382812 136.03125 122.234375 135.898438 122.054688 C 135.773438 121.878906 135.683594 121.660156 135.632812 121.398438 C 135.601562 121.234375 135.585938 120.960938 135.585938 120.585938 L 135.585938 117.367188 L 136.460938 117.367188 L 136.460938 120.242188 C 136.460938 120.703125 136.480469 121.015625 136.523438 121.179688 C 136.574219 121.410156 136.6875 121.59375 136.867188 121.726562 C 137.042969 121.851562 137.265625 121.914062 137.539062 121.914062 C 137.796875 121.914062 138.042969 121.847656 138.273438 121.710938 C 138.5 121.578125 138.664062 121.394531 138.757812 121.164062 C 138.859375 120.925781 138.914062 120.585938 138.914062 120.148438 L 138.914062 117.367188 L 139.789062 117.367188 L 139.789062 122.554688 Z M 139.007812 122.554688 "/>
<path style=" stroke:none;fill-rule:nonzero;fill:rgb(0%,0%,0%);fill-opacity:1;" d="M 144.714844 120.882812 L 145.636719 120.992188 C 145.488281 121.523438 145.21875 121.941406 144.824219 122.242188 C 144.4375 122.535156 143.949219 122.679688 143.355469 122.679688 C 142.59375 122.679688 141.988281 122.445312 141.542969 121.976562 C 141.09375 121.507812 140.871094 120.851562 140.871094 120.007812 C 140.871094 119.132812 141.09375 118.457031 141.542969 117.976562 C 142 117.5 142.582031 117.257812 143.292969 117.257812 C 143.988281 117.257812 144.558594 117.492188 144.996094 117.960938 C 145.433594 118.429688 145.652344 119.09375 145.652344 119.945312 C 145.652344 120 145.652344 120.078125 145.652344 120.179688 L 141.792969 120.179688 C 141.824219 120.753906 141.980469 121.191406 142.261719 121.492188 C 142.550781 121.796875 142.917969 121.945312 143.355469 121.945312 C 143.675781 121.945312 143.953125 121.863281 144.183594 121.695312 C 144.410156 121.53125 144.589844 121.257812 144.714844 120.882812 Z M 141.839844 119.460938 L 144.730469 119.460938 C 144.6875 119.023438 144.578125 118.695312 144.402344 118.476562 C 144.121094 118.144531 143.753906 117.976562 143.308594 117.976562 C 142.902344 117.976562 142.5625 118.113281 142.292969 118.382812 C 142.019531 118.65625 141.871094 119.015625 141.839844 119.460938 Z M 141.839844 119.460938 "/>
<path style=" stroke:none;fill-rule:nonzero;fill:rgb(0%,0%,0%);fill-opacity:1;" d="M 146.734375 122.554688 L 146.734375 117.367188 L 147.53125 117.367188 L 147.53125 118.101562 C 147.90625 117.539062 148.453125 117.257812 149.171875 117.257812 C 149.484375 117.257812 149.769531 117.316406 150.03125 117.429688 C 150.300781 117.535156 150.5 117.679688 150.625 117.867188 C 150.757812 118.046875 150.851562 118.257812 150.90625 118.507812 C 150.9375 118.675781 150.953125 118.960938 150.953125 119.367188 L 150.953125 122.554688 L 150.078125 122.554688 L 150.078125 119.398438 C 150.078125 119.046875 150.039062 118.78125 149.96875 118.601562 C 149.90625 118.425781 149.785156 118.285156 149.609375 118.179688 C 149.429688 118.066406 149.226562 118.007812 149 118.007812 C 148.625 118.007812 148.296875 118.128906 148.015625 118.367188 C 147.742188 118.609375 147.609375 119.0625 147.609375 119.726562 L 147.609375 122.554688 Z M 146.734375 122.554688 "/>
<path style=" stroke:none;fill-rule:nonzero;fill:rgb(0%,0%,0%);fill-opacity:1;" d="M 155.691406 120.648438 L 156.550781 120.773438 C 156.457031 121.367188 156.210938 121.835938 155.816406 122.179688 C 155.429688 122.515625 154.957031 122.679688 154.394531 122.679688 C 153.683594 122.679688 153.113281 122.445312 152.675781 121.976562 C 152.246094 121.507812 152.035156 120.84375 152.035156 119.976562 C 152.035156 119.425781 152.128906 118.941406 152.316406 118.523438 C 152.503906 118.097656 152.785156 117.78125 153.160156 117.570312 C 153.535156 117.363281 153.945312 117.257812 154.394531 117.257812 C 154.957031 117.257812 155.414062 117.398438 155.769531 117.679688 C 156.132812 117.960938 156.367188 118.367188 156.472656 118.898438 L 155.613281 119.023438 C 155.527344 118.679688 155.382812 118.421875 155.175781 118.242188 C 154.976562 118.066406 154.726562 117.976562 154.425781 117.976562 C 153.988281 117.976562 153.628906 118.140625 153.347656 118.460938 C 153.074219 118.773438 152.941406 119.273438 152.941406 119.960938 C 152.941406 120.660156 153.070312 121.164062 153.332031 121.476562 C 153.601562 121.789062 153.949219 121.945312 154.378906 121.945312 C 154.722656 121.945312 155.007812 121.84375 155.238281 121.632812 C 155.476562 121.425781 155.628906 121.097656 155.691406 120.648438 Z M 155.691406 120.648438 "/>
<g clip-path="url(#clip9)" clip-rule="nonzero">
<path style=" stroke:none;fill-rule:nonzero;fill:rgb(0%,0%,0%);fill-opacity:1;" d="M 157.269531 124.554688 L 157.160156 123.726562 C 157.355469 123.777344 157.527344 123.804688 157.675781 123.804688 C 157.863281 123.804688 158.011719 123.773438 158.128906 123.710938 C 158.253906 123.648438 158.351562 123.554688 158.425781 123.429688 C 158.476562 123.34375 158.566406 123.125 158.691406 122.773438 C 158.710938 122.730469 158.738281 122.664062 158.769531 122.570312 L 156.800781 117.367188 L 157.753906 117.367188 L 158.832031 120.367188 C 158.964844 120.753906 159.089844 121.15625 159.207031 121.570312 C 159.308594 121.164062 159.429688 120.773438 159.566406 120.398438 L 160.675781 117.367188 L 161.550781 117.367188 L 159.582031 122.648438 C 159.371094 123.210938 159.210938 123.601562 159.097656 123.820312 C 158.941406 124.109375 158.757812 124.324219 158.550781 124.460938 C 158.351562 124.59375 158.113281 124.664062 157.832031 124.664062 C 157.664062 124.664062 157.476562 124.625 157.269531 124.554688 Z M 157.269531 124.554688 "/>
</g>
<g clip-path="url(#clip10)" clip-rule="nonzero">
<path style=" stroke:none;fill-rule:nonzero;fill:rgb(0%,0%,0%);fill-opacity:1;" d="M 165.089844 124.539062 L 165.089844 115.398438 L 167.042969 115.398438 L 167.042969 116.117188 L 165.980469 116.117188 L 165.980469 123.820312 L 167.042969 123.820312 L 167.042969 124.539062 Z M 165.089844 124.539062 "/>
</g>
<path style=" stroke:none;fill-rule:nonzero;fill:rgb(0%,0%,0%);fill-opacity:1;" d="M 167.941406 122.554688 L 167.941406 115.398438 L 169.363281 115.398438 L 171.050781 120.460938 C 171.207031 120.941406 171.320312 121.296875 171.394531 121.523438 C 171.476562 121.265625 171.601562 120.882812 171.769531 120.382812 L 173.488281 115.398438 L 174.769531 115.398438 L 174.769531 122.554688 L 173.847656 122.554688 L 173.847656 116.570312 L 171.769531 122.554688 L 170.910156 122.554688 L 168.847656 116.460938 L 168.847656 122.554688 Z M 167.941406 122.554688 "/>
<path style=" stroke:none;fill-rule:nonzero;fill:rgb(0%,0%,0%);fill-opacity:1;" d="M 176.328125 122.554688 L 176.328125 115.398438 L 177.28125 115.398438 L 177.28125 118.335938 L 181 118.335938 L 181 115.398438 L 181.953125 115.398438 L 181.953125 122.554688 L 181 122.554688 L 181 119.179688 L 177.28125 119.179688 L 177.28125 122.554688 Z M 176.328125 122.554688 "/>
<path style=" stroke:none;fill-rule:nonzero;fill:rgb(0%,0%,0%);fill-opacity:1;" d="M 182.960938 122.554688 L 182.960938 121.835938 L 186.257812 118.054688 C 185.882812 118.078125 185.546875 118.085938 185.257812 118.085938 L 183.148438 118.085938 L 183.148438 117.367188 L 187.382812 117.367188 L 187.382812 117.945312 L 184.585938 121.242188 L 184.039062 121.835938 C 184.433594 121.816406 184.804688 121.804688 185.148438 121.804688 L 187.539062 121.804688 L 187.539062 122.554688 Z M 182.960938 122.554688 "/>
<g clip-path="url(#clip11)" clip-rule="nonzero">
<path style=" stroke:none;fill-rule:nonzero;fill:rgb(0%,0%,0%);fill-opacity:1;" d="M 189.882812 124.539062 L 187.945312 124.539062 L 187.945312 123.820312 L 189.007812 123.820312 L 189.007812 116.117188 L 187.945312 116.117188 L 187.945312 115.398438 L 189.882812 115.398438 Z M 189.882812 124.539062 "/>
</g>
<path style=" stroke:none;fill-rule:nonzero;fill:rgb(0%,0%,0%);fill-opacity:1;" d="M 173.832031 102.160156 L 172.957031 102.160156 L 172.957031 96.566406 C 172.746094 96.765625 172.472656 96.96875 172.128906 97.175781 C 171.785156 97.375 171.476562 97.519531 171.207031 97.613281 L 171.207031 96.769531 C 171.695312 96.542969 172.121094 96.265625 172.488281 95.941406 C 172.863281 95.609375 173.121094 95.285156 173.269531 94.972656 L 173.832031 94.972656 Z M 173.832031 102.160156 "/>
<path style=" stroke:none;fill-rule:nonzero;fill:rgb(0%,0%,0%);fill-opacity:1;" d="M 16.214844 26.371094 L 18.917969 26.371094 L 18.917969 27.246094 L 16.214844 27.246094 Z M 16.214844 26.371094 "/>
<path style=" stroke:none;fill-rule:nonzero;fill:rgb(0%,0%,0%);fill-opacity:1;" d="M 24.210938 23.996094 L 23.351562 24.058594 C 23.265625 23.714844 23.152344 23.464844 23.007812 23.308594 C 22.765625 23.058594 22.476562 22.933594 22.132812 22.933594 C 21.851562 22.933594 21.605469 23.011719 21.398438 23.167969 C 21.117188 23.378906 20.898438 23.675781 20.742188 24.058594 C 20.585938 24.445312 20.5 24.996094 20.492188 25.714844 C 20.699219 25.394531 20.953125 25.152344 21.257812 24.996094 C 21.570312 24.839844 21.890625 24.761719 22.226562 24.761719 C 22.820312 24.761719 23.320312 24.980469 23.726562 25.417969 C 24.140625 25.847656 24.351562 26.398438 24.351562 27.074219 C 24.351562 27.523438 24.25 27.941406 24.054688 28.324219 C 23.855469 28.710938 23.585938 29.007812 23.242188 29.214844 C 22.90625 29.421875 22.527344 29.527344 22.101562 29.527344 C 21.371094 29.527344 20.773438 29.257812 20.304688 28.714844 C 19.84375 28.175781 19.617188 27.289062 19.617188 26.058594 C 19.617188 24.675781 19.871094 23.664062 20.382812 23.027344 C 20.828125 22.488281 21.429688 22.214844 22.179688 22.214844 C 22.75 22.214844 23.214844 22.378906 23.570312 22.699219 C 23.933594 23.011719 24.148438 23.445312 24.210938 23.996094 Z M 20.632812 27.089844 C 20.632812 27.394531 20.695312 27.683594 20.820312 27.964844 C 20.945312 28.238281 21.121094 28.445312 21.351562 28.589844 C 21.589844 28.738281 21.835938 28.808594 22.085938 28.808594 C 22.460938 28.808594 22.777344 28.660156 23.039062 28.355469 C 23.308594 28.054688 23.445312 27.648438 23.445312 27.136719 C 23.445312 26.636719 23.308594 26.246094 23.039062 25.964844 C 22.777344 25.675781 22.449219 25.527344 22.054688 25.527344 C 21.65625 25.527344 21.320312 25.675781 21.039062 25.964844 C 20.765625 26.246094 20.632812 26.621094 20.632812 27.089844 Z M 20.632812 27.089844 "/>
<path style=" stroke:none;fill-rule:nonzero;fill:rgb(0%,0%,0%);fill-opacity:1;" d="M 25.230469 25.871094 C 25.230469 25.027344 25.3125 24.351562 25.480469 23.839844 C 25.65625 23.320312 25.917969 22.917969 26.261719 22.636719 C 26.605469 22.355469 27.035156 22.214844 27.558594 22.214844 C 27.941406 22.214844 28.277344 22.292969 28.558594 22.449219 C 28.847656 22.605469 29.089844 22.832031 29.277344 23.121094 C 29.472656 23.414062 29.625 23.769531 29.730469 24.183594 C 29.832031 24.601562 29.886719 25.164062 29.886719 25.871094 C 29.886719 26.714844 29.796875 27.398438 29.621094 27.917969 C 29.453125 28.429688 29.199219 28.824219 28.855469 29.105469 C 28.511719 29.386719 28.078125 29.527344 27.558594 29.527344 C 26.871094 29.527344 26.328125 29.277344 25.933594 28.777344 C 25.464844 28.183594 25.230469 27.214844 25.230469 25.871094 Z M 26.121094 25.871094 C 26.121094 27.050781 26.253906 27.835938 26.527344 28.230469 C 26.808594 28.617188 27.152344 28.808594 27.558594 28.808594 C 27.964844 28.808594 28.300781 28.617188 28.574219 28.230469 C 28.855469 27.835938 28.996094 27.050781 28.996094 25.871094 C 28.996094 24.695312 28.855469 23.914062 28.574219 23.527344 C 28.300781 23.144531 27.957031 22.949219 27.542969 22.949219 C 27.144531 22.949219 26.824219 23.117188 26.574219 23.449219 C 26.269531 23.886719 26.121094 24.695312 26.121094 25.871094 Z M 26.121094 25.871094 "/>
<path style=" stroke:none;fill-rule:nonzero;fill:rgb(0%,0%,0%);fill-opacity:1;" d="M 16.410156 4.15625 L 19.113281 4.15625 L 19.113281 5.03125 L 16.410156 5.03125 Z M 16.410156 4.15625 "/>
<path style=" stroke:none;fill-rule:nonzero;fill:rgb(0%,0%,0%);fill-opacity:1;" d="M 19.859375 5.3125 L 20.78125 5.234375 C 20.84375 5.683594 21 6.023438 21.25 6.25 C 21.5 6.480469 21.800781 6.59375 22.15625 6.59375 C 22.570312 6.59375 22.925781 6.433594 23.21875 6.109375 C 23.519531 5.789062 23.671875 5.367188 23.671875 4.84375 C 23.671875 4.34375 23.53125 3.949219 23.25 3.65625 C 22.96875 3.367188 22.597656 3.21875 22.140625 3.21875 C 21.859375 3.21875 21.601562 3.289062 21.375 3.421875 C 21.144531 3.546875 20.960938 3.710938 20.828125 3.90625 L 20.015625 3.796875 L 20.703125 0.125 L 24.265625 0.125 L 24.265625 0.96875 L 21.40625 0.96875 L 21.015625 2.890625 C 21.453125 2.589844 21.90625 2.4375 22.375 2.4375 C 23 2.4375 23.523438 2.65625 23.953125 3.09375 C 24.378906 3.523438 24.59375 4.078125 24.59375 4.765625 C 24.59375 5.414062 24.40625 5.96875 24.03125 6.4375 C 23.570312 7.023438 22.945312 7.3125 22.15625 7.3125 C 21.5 7.3125 20.960938 7.132812 20.546875 6.765625 C 20.140625 6.402344 19.910156 5.917969 19.859375 5.3125 Z M 19.859375 5.3125 "/>
<path style=" stroke:none;fill-rule:nonzero;fill:rgb(0%,0%,0%);fill-opacity:1;" d="M 25.425781 3.65625 C 25.425781 2.8125 25.507812 2.136719 25.675781 1.625 C 25.851562 1.105469 26.113281 0.703125 26.457031 0.421875 C 26.800781 0.140625 27.230469 0 27.753906 0 C 28.136719 0 28.472656 0.078125 28.753906 0.234375 C 29.042969 0.390625 29.285156 0.617188 29.472656 0.90625 C 29.667969 1.199219 29.820312 1.554688 29.925781 1.96875 C 30.027344 2.386719 30.082031 2.949219 30.082031 3.65625 C 30.082031 4.5 29.992188 5.183594 29.816406 5.703125 C 29.648438 6.214844 29.394531 6.609375 29.050781 6.890625 C 28.707031 7.171875 28.273438 7.3125 27.753906 7.3125 C 27.066406 7.3125 26.523438 7.0625 26.128906 6.5625 C 25.660156 5.96875 25.425781 5 25.425781 3.65625 Z M 26.316406 3.65625 C 26.316406 4.835938 26.449219 5.621094 26.722656 6.015625 C 27.003906 6.402344 27.347656 6.59375 27.753906 6.59375 C 28.160156 6.59375 28.496094 6.402344 28.769531 6.015625 C 29.050781 5.621094 29.191406 4.835938 29.191406 3.65625 C 29.191406 2.480469 29.050781 1.699219 28.769531 1.3125 C 28.496094 0.929688 28.152344 0.734375 27.738281 0.734375 C 27.339844 0.734375 27.019531 0.902344 26.769531 1.234375 C 26.464844 1.671875 26.316406 2.480469 26.316406 3.65625 Z M 26.316406 3.65625 "/>
<path style=" stroke:none;fill-rule:nonzero;fill:rgb(0%,0%,0%);fill-opacity:1;" d="M 13.96875 70.871094 L 16.671875 70.871094 L 16.671875 71.746094 L 13.96875 71.746094 Z M 13.96875 70.871094 "/>
<path style=" stroke:none;fill-rule:nonzero;fill:rgb(0%,0%,0%);fill-opacity:1;" d="M 18.761719 70.027344 C 18.394531 69.894531 18.125 69.699219 17.949219 69.449219 C 17.769531 69.199219 17.683594 68.902344 17.683594 68.558594 C 17.683594 68.039062 17.871094 67.601562 18.246094 67.246094 C 18.621094 66.894531 19.121094 66.714844 19.746094 66.714844 C 20.371094 66.714844 20.871094 66.898438 21.246094 67.261719 C 21.628906 67.628906 21.824219 68.070312 21.824219 68.589844 C 21.824219 68.925781 21.734375 69.214844 21.558594 69.464844 C 21.390625 69.707031 21.128906 69.894531 20.777344 70.027344 C 21.214844 70.164062 21.546875 70.394531 21.777344 70.714844 C 22.003906 71.039062 22.121094 71.417969 22.121094 71.855469 C 22.121094 72.472656 21.902344 72.988281 21.464844 73.402344 C 21.035156 73.820312 20.46875 74.027344 19.761719 74.027344 C 19.050781 74.027344 18.480469 73.820312 18.042969 73.402344 C 17.613281 72.976562 17.402344 72.449219 17.402344 71.824219 C 17.402344 71.367188 17.515625 70.980469 17.746094 70.667969 C 17.984375 70.347656 18.324219 70.132812 18.761719 70.027344 Z M 18.589844 68.527344 C 18.589844 68.871094 18.699219 69.152344 18.917969 69.371094 C 19.136719 69.582031 19.417969 69.683594 19.761719 69.683594 C 20.105469 69.683594 20.378906 69.582031 20.589844 69.371094 C 20.808594 69.152344 20.917969 68.886719 20.917969 68.574219 C 20.917969 68.253906 20.800781 67.980469 20.574219 67.761719 C 20.355469 67.542969 20.082031 67.433594 19.761719 67.433594 C 19.417969 67.433594 19.136719 67.542969 18.917969 67.761719 C 18.699219 67.972656 18.589844 68.226562 18.589844 68.527344 Z M 18.308594 71.839844 C 18.308594 72.089844 18.363281 72.335938 18.480469 72.574219 C 18.605469 72.804688 18.78125 72.988281 19.011719 73.121094 C 19.25 73.246094 19.503906 73.308594 19.777344 73.308594 C 20.191406 73.308594 20.535156 73.175781 20.808594 72.902344 C 21.078125 72.632812 21.214844 72.289062 21.214844 71.871094 C 21.214844 71.445312 21.074219 71.097656 20.792969 70.824219 C 20.511719 70.542969 20.160156 70.402344 19.746094 70.402344 C 19.328125 70.402344 18.984375 70.539062 18.714844 70.808594 C 18.441406 71.082031 18.308594 71.425781 18.308594 71.839844 Z M 18.308594 71.839844 "/>
<path style=" stroke:none;fill-rule:nonzero;fill:rgb(0%,0%,0%);fill-opacity:1;" d="M 22.984375 70.371094 C 22.984375 69.527344 23.066406 68.851562 23.234375 68.339844 C 23.410156 67.820312 23.671875 67.417969 24.015625 67.136719 C 24.359375 66.855469 24.789062 66.714844 25.3125 66.714844 C 25.695312 66.714844 26.03125 66.792969 26.3125 66.949219 C 26.601562 67.105469 26.84375 67.332031 27.03125 67.621094 C 27.226562 67.914062 27.378906 68.269531 27.484375 68.683594 C 27.585938 69.101562 27.640625 69.664062 27.640625 70.371094 C 27.640625 71.214844 27.550781 71.898438 27.375 72.417969 C 27.207031 72.929688 26.953125 73.324219 26.609375 73.605469 C 26.265625 73.886719 25.832031 74.027344 25.3125 74.027344 C 24.625 74.027344 24.082031 73.777344 23.6875 73.277344 C 23.21875 72.683594 22.984375 71.714844 22.984375 70.371094 Z M 23.875 70.371094 C 23.875 71.550781 24.007812 72.335938 24.28125 72.730469 C 24.5625 73.117188 24.90625 73.308594 25.3125 73.308594 C 25.71875 73.308594 26.054688 73.117188 26.328125 72.730469 C 26.609375 72.335938 26.75 71.550781 26.75 70.371094 C 26.75 69.195312 26.609375 68.414062 26.328125 68.027344 C 26.054688 67.644531 25.710938 67.449219 25.296875 67.449219 C 24.898438 67.449219 24.578125 67.617188 24.328125 67.949219 C 24.023438 68.386719 23.875 69.195312 23.875 70.371094 Z M 23.875 70.371094 "/>
<path style=" stroke:none;fill-rule:nonzero;fill:rgb(0%,0%,0%);fill-opacity:1;" d="M 14.953125 48.660156 L 17.65625 48.660156 L 17.65625 49.535156 L 14.953125 49.535156 Z M 14.953125 48.660156 "/>
<path style=" stroke:none;fill-rule:nonzero;fill:rgb(0%,0%,0%);fill-opacity:1;" d="M 18.449219 45.472656 L 18.449219 44.628906 L 23.089844 44.628906 L 23.089844 45.316406 C 22.628906 45.796875 22.175781 46.4375 21.730469 47.238281 C 21.28125 48.042969 20.9375 48.871094 20.699219 49.722656 C 20.519531 50.328125 20.40625 50.984375 20.355469 51.691406 L 19.449219 51.691406 C 19.457031 51.128906 19.566406 50.453125 19.777344 49.660156 C 19.996094 48.859375 20.300781 48.089844 20.699219 47.347656 C 21.09375 46.609375 21.515625 45.984375 21.964844 45.472656 Z M 18.449219 45.472656 "/>
<path style=" stroke:none;fill-rule:nonzero;fill:rgb(0%,0%,0%);fill-opacity:1;" d="M 23.96875 48.160156 C 23.96875 47.316406 24.050781 46.640625 24.21875 46.128906 C 24.394531 45.609375 24.65625 45.207031 25 44.925781 C 25.34375 44.644531 25.773438 44.503906 26.296875 44.503906 C 26.679688 44.503906 27.015625 44.582031 27.296875 44.738281 C 27.585938 44.894531 27.828125 45.121094 28.015625 45.410156 C 28.210938 45.703125 28.363281 46.058594 28.46875 46.472656 C 28.570312 46.890625 28.625 47.453125 28.625 48.160156 C 28.625 49.003906 28.535156 49.6875 28.359375 50.207031 C 28.191406 50.71875 27.9375 51.113281 27.59375 51.394531 C 27.25 51.675781 26.816406 51.816406 26.296875 51.816406 C 25.609375 51.816406 25.066406 51.566406 24.671875 51.066406 C 24.203125 50.472656 23.96875 49.503906 23.96875 48.160156 Z M 24.859375 48.160156 C 24.859375 49.339844 24.992188 50.125 25.265625 50.519531 C 25.546875 50.90625 25.890625 51.097656 26.296875 51.097656 C 26.703125 51.097656 27.039062 50.90625 27.3125 50.519531 C 27.59375 50.125 27.734375 49.339844 27.734375 48.160156 C 27.734375 46.984375 27.59375 46.203125 27.3125 45.816406 C 27.039062 45.433594 26.695312 45.238281 26.28125 45.238281 C 25.882812 45.238281 25.5625 45.40625 25.3125 45.738281 C 25.007812 46.175781 24.859375 46.984375 24.859375 48.160156 Z M 24.859375 48.160156 "/>
<path style="fill:none;stroke-width:1.2;stroke-linecap:butt;stroke-linejoin:round;stroke:rgb(0%,0%,0%);stroke-opacity:1;stroke-miterlimit:10;" d="M 33.359375 92.253906 L 33.359375 3.230469 "/>
<path style="fill:none;stroke-width:1.2;stroke-linecap:butt;stroke-linejoin:round;stroke:rgb(0%,0%,0%);stroke-opacity:1;stroke-miterlimit:10;" d="M 33.359375 92.253906 L 33.359375 3.230469 "/>
<path style="fill:none;stroke-width:1.2;stroke-linecap:butt;stroke-linejoin:round;stroke:rgb(0%,0%,0%);stroke-opacity:1;stroke-miterlimit:10;" d="M 33.359375 92.253906 L 35.226562 92.253906 "/>
<path style="fill:none;stroke-width:1.2;stroke-linecap:butt;stroke-linejoin:round;stroke:rgb(0%,0%,0%);stroke-opacity:1;stroke-miterlimit:10;" d="M 33.359375 47.742188 L 38.160156 47.742188 "/>
<path style="fill:none;stroke-width:1.2;stroke-linecap:butt;stroke-linejoin:round;stroke:rgb(0%,0%,0%);stroke-opacity:1;stroke-miterlimit:10;" d="M 33.359375 25.484375 L 38.160156 25.484375 "/>
<path style="fill:none;stroke-width:1.2;stroke-linecap:butt;stroke-linejoin:round;stroke:rgb(0%,0%,0%);stroke-opacity:1;stroke-miterlimit:10;" d="M 33.359375 3.230469 L 35.226562 3.230469 "/>
<path style="fill:none;stroke-width:1.2;stroke-linecap:butt;stroke-linejoin:round;stroke:rgb(0%,0%,0%);stroke-opacity:1;stroke-miterlimit:10;" d="M 33.359375 92.253906 L 33.359375 3.230469 "/>
<path style="fill:none;stroke-width:1.2;stroke-linecap:butt;stroke-linejoin:round;stroke:rgb(0%,0%,0%);stroke-opacity:1;stroke-miterlimit:10;" d="M 33.332031 69.996094 L 38.132812 69.996094 "/>
<path style=" stroke:none;fill-rule:nonzero;fill:rgb(0%,0%,0%);fill-opacity:1;" d="M 13.003906 92.125 L 15.707031 92.125 L 15.707031 93 L 13.003906 93 Z M 13.003906 92.125 "/>
<path style=" stroke:none;fill-rule:nonzero;fill:rgb(0%,0%,0%);fill-opacity:1;" d="M 16.578125 93.5 L 17.421875 93.421875 C 17.492188 93.820312 17.628906 94.109375 17.828125 94.296875 C 18.035156 94.476562 18.296875 94.5625 18.609375 94.5625 C 18.878906 94.5625 19.113281 94.5 19.3125 94.375 C 19.519531 94.25 19.6875 94.085938 19.8125 93.875 C 19.945312 93.667969 20.054688 93.390625 20.140625 93.046875 C 20.234375 92.695312 20.28125 92.335938 20.28125 91.96875 C 20.28125 91.929688 20.28125 91.867188 20.28125 91.78125 C 20.101562 92.0625 19.859375 92.292969 19.546875 92.46875 C 19.242188 92.648438 18.914062 92.734375 18.5625 92.734375 C 17.96875 92.734375 17.46875 92.523438 17.0625 92.09375 C 16.65625 91.65625 16.453125 91.089844 16.453125 90.390625 C 16.453125 89.664062 16.664062 89.078125 17.09375 88.640625 C 17.519531 88.195312 18.054688 87.96875 18.703125 87.96875 C 19.160156 87.96875 19.582031 88.09375 19.96875 88.34375 C 20.351562 88.59375 20.644531 88.953125 20.84375 89.421875 C 21.050781 89.882812 21.15625 90.554688 21.15625 91.4375 C 21.15625 92.34375 21.054688 93.070312 20.859375 93.609375 C 20.660156 94.152344 20.363281 94.570312 19.96875 94.859375 C 19.570312 95.140625 19.113281 95.28125 18.59375 95.28125 C 18.03125 95.28125 17.570312 95.125 17.21875 94.8125 C 16.863281 94.5 16.648438 94.0625 16.578125 93.5 Z M 20.171875 90.34375 C 20.171875 89.835938 20.035156 89.433594 19.765625 89.140625 C 19.503906 88.851562 19.1875 88.703125 18.8125 88.703125 C 18.414062 88.703125 18.070312 88.867188 17.78125 89.1875 C 17.488281 89.5 17.34375 89.914062 17.34375 90.421875 C 17.34375 90.871094 17.476562 91.242188 17.75 91.53125 C 18.03125 91.8125 18.375 91.953125 18.78125 91.953125 C 19.1875 91.953125 19.519531 91.8125 19.78125 91.53125 C 20.039062 91.242188 20.171875 90.84375 20.171875 90.34375 Z M 20.171875 90.34375 "/>
<path style=" stroke:none;fill-rule:nonzero;fill:rgb(0%,0%,0%);fill-opacity:1;" d="M 22.019531 91.625 C 22.019531 90.78125 22.101562 90.105469 22.269531 89.59375 C 22.445312 89.074219 22.707031 88.671875 23.050781 88.390625 C 23.394531 88.109375 23.824219 87.96875 24.347656 87.96875 C 24.730469 87.96875 25.066406 88.046875 25.347656 88.203125 C 25.636719 88.359375 25.878906 88.585938 26.066406 88.875 C 26.261719 89.167969 26.414062 89.523438 26.519531 89.9375 C 26.621094 90.355469 26.675781 90.917969 26.675781 91.625 C 26.675781 92.46875 26.585938 93.152344 26.410156 93.671875 C 26.242188 94.183594 25.988281 94.578125 25.644531 94.859375 C 25.300781 95.140625 24.867188 95.28125 24.347656 95.28125 C 23.660156 95.28125 23.117188 95.03125 22.722656 94.53125 C 22.253906 93.9375 22.019531 92.96875 22.019531 91.625 Z M 22.910156 91.625 C 22.910156 92.804688 23.042969 93.589844 23.316406 93.984375 C 23.597656 94.371094 23.941406 94.5625 24.347656 94.5625 C 24.753906 94.5625 25.089844 94.371094 25.363281 93.984375 C 25.644531 93.589844 25.785156 92.804688 25.785156 91.625 C 25.785156 90.449219 25.644531 89.667969 25.363281 89.28125 C 25.089844 88.898438 24.746094 88.703125 24.332031 88.703125 C 23.933594 88.703125 23.613281 88.871094 23.363281 89.203125 C 23.058594 89.640625 22.910156 90.449219 22.910156 91.625 Z M 22.910156 91.625 "/>
<g clip-path="url(#clip12)" clip-rule="nonzero">
<path style="fill:none;stroke-width:1.2;stroke-linecap:butt;stroke-linejoin:round;stroke:rgb(0%,0%,0%);stroke-opacity:1;stroke-miterlimit:10;" d="M 279.890625 92.257812 L 279.890625 3.234375 "/>
<path style="fill:none;stroke-width:1.2;stroke-linecap:butt;stroke-linejoin:round;stroke:rgb(0%,0%,0%);stroke-opacity:1;stroke-miterlimit:10;" d="M 279.890625 92.257812 L 279.890625 3.234375 "/>
</g>
<g clip-path="url(#clip13)" clip-rule="nonzero">
<path style="fill:none;stroke-width:1.2;stroke-linecap:butt;stroke-linejoin:round;stroke:rgb(0%,0%,0%);stroke-opacity:1;stroke-miterlimit:10;" d="M 279.890625 47.746094 L 275.09375 47.746094 "/>
</g>
<g clip-path="url(#clip14)" clip-rule="nonzero">
<path style="fill:none;stroke-width:1.2;stroke-linecap:butt;stroke-linejoin:round;stroke:rgb(0%,0%,0%);stroke-opacity:1;stroke-miterlimit:10;" d="M 279.890625 25.488281 L 275.09375 25.488281 "/>
</g>
<g clip-path="url(#clip15)" clip-rule="nonzero">
<path style="fill:none;stroke-width:1.2;stroke-linecap:butt;stroke-linejoin:round;stroke:rgb(0%,0%,0%);stroke-opacity:1;stroke-miterlimit:10;" d="M 279.921875 70 L 275.121094 70 "/>
</g>
<g clip-path="url(#clip16)" clip-rule="nonzero">
<path style="fill:none;stroke-width:1.2;stroke-linecap:butt;stroke-linejoin:round;stroke:rgb(0%,0%,0%);stroke-opacity:1;stroke-miterlimit:10;" d="M 33.375 3.214844 L 279.90625 3.214844 "/>
</g>
<path style="fill:none;stroke-width:1.2;stroke-linecap:butt;stroke-linejoin:round;stroke:rgb(0%,0%,0%);stroke-opacity:1;stroke-miterlimit:10;" d="M 70.015625 3.214844 L 70.015625 5.613281 "/>
<path style="fill:none;stroke-width:1.2;stroke-linecap:butt;stroke-linejoin:round;stroke:rgb(0%,0%,0%);stroke-opacity:1;stroke-miterlimit:10;" d="M 93.671875 3.214844 L 93.671875 5.613281 "/>
<path style="fill:none;stroke-width:1.2;stroke-linecap:butt;stroke-linejoin:round;stroke:rgb(0%,0%,0%);stroke-opacity:1;stroke-miterlimit:10;" d="M 113.386719 3.214844 L 113.386719 5.613281 "/>
<path style="fill:none;stroke-width:1.2;stroke-linecap:butt;stroke-linejoin:round;stroke:rgb(0%,0%,0%);stroke-opacity:1;stroke-miterlimit:10;" d="M 129.15625 3.214844 L 129.15625 5.613281 "/>
<path style="fill:none;stroke-width:1.2;stroke-linecap:butt;stroke-linejoin:round;stroke:rgb(0%,0%,0%);stroke-opacity:1;stroke-miterlimit:10;" d="M 140.984375 3.214844 L 140.984375 5.613281 "/>
<path style="fill:none;stroke-width:1.2;stroke-linecap:butt;stroke-linejoin:round;stroke:rgb(0%,0%,0%);stroke-opacity:1;stroke-miterlimit:10;" d="M 152.8125 3.214844 L 152.8125 5.613281 "/>
<path style="fill:none;stroke-width:1.2;stroke-linecap:butt;stroke-linejoin:round;stroke:rgb(0%,0%,0%);stroke-opacity:1;stroke-miterlimit:10;" d="M 162.671875 3.214844 L 162.671875 5.613281 "/>
<path style="fill:none;stroke-width:1.2;stroke-linecap:butt;stroke-linejoin:round;stroke:rgb(0%,0%,0%);stroke-opacity:1;stroke-miterlimit:10;" d="M 172.527344 3.214844 L 172.527344 5.613281 "/>
<path style="fill:none;stroke-width:1.2;stroke-linecap:butt;stroke-linejoin:round;stroke:rgb(0%,0%,0%);stroke-opacity:1;stroke-miterlimit:10;" d="M 172.527344 3.214844 L 172.527344 8.011719 "/>
<path style="fill:none;stroke-width:1.2;stroke-linecap:butt;stroke-linejoin:round;stroke:rgb(0%,0%,0%);stroke-opacity:1;stroke-miterlimit:10;" d="M 229.695312 3.214844 L 229.695312 5.613281 "/>
<path style="fill:none;stroke-width:1.2;stroke-linecap:butt;stroke-linejoin:round;stroke:rgb(0%,0%,0%);stroke-opacity:1;stroke-miterlimit:10;" d="M 265.183594 3.214844 L 265.183594 5.613281 "/>
<path style=" stroke:none;fill-rule:nonzero;fill:rgb(0%,0%,0%);fill-opacity:1;" d="M 232.175781 101.316406 L 232.175781 102.160156 L 227.441406 102.160156 C 227.441406 101.953125 227.476562 101.75 227.550781 101.550781 C 227.675781 101.230469 227.867188 100.910156 228.128906 100.597656 C 228.386719 100.285156 228.773438 99.925781 229.285156 99.519531 C 230.054688 98.875 230.574219 98.371094 230.847656 98.003906 C 231.128906 97.628906 231.269531 97.277344 231.269531 96.941406 C 231.269531 96.589844 231.144531 96.296875 230.894531 96.066406 C 230.644531 95.828125 230.320312 95.707031 229.925781 95.707031 C 229.496094 95.707031 229.152344 95.832031 228.894531 96.082031 C 228.644531 96.332031 228.519531 96.683594 228.519531 97.128906 L 227.613281 97.035156 C 227.675781 96.371094 227.902344 95.859375 228.300781 95.503906 C 228.707031 95.152344 229.253906 94.972656 229.941406 94.972656 C 230.628906 94.972656 231.167969 95.167969 231.566406 95.550781 C 231.972656 95.925781 232.175781 96.394531 232.175781 96.957031 C 232.175781 97.25 232.113281 97.535156 231.988281 97.816406 C 231.871094 98.089844 231.679688 98.378906 231.410156 98.691406 C 231.136719 98.996094 230.683594 99.410156 230.050781 99.941406 C 229.527344 100.378906 229.191406 100.683594 229.035156 100.847656 C 228.886719 101.003906 228.769531 101.160156 228.675781 101.316406 Z M 232.175781 101.316406 "/>
<path style=" stroke:none;fill-rule:nonzero;fill:rgb(0%,0%,0%);fill-opacity:1;" d="M 262.871094 100.207031 L 263.746094 100.097656 C 263.847656 100.589844 264.019531 100.949219 264.261719 101.175781 C 264.5 101.394531 264.796875 101.503906 265.152344 101.503906 C 265.566406 101.503906 265.917969 101.363281 266.199219 101.082031 C 266.480469 100.792969 266.621094 100.433594 266.621094 100.003906 C 266.621094 99.597656 266.488281 99.265625 266.230469 99.003906 C 265.96875 98.746094 265.636719 98.613281 265.230469 98.613281 C 265.0625 98.613281 264.855469 98.644531 264.605469 98.707031 L 264.699219 97.941406 C 264.761719 97.941406 264.808594 97.941406 264.839844 97.941406 C 265.214844 97.941406 265.550781 97.847656 265.855469 97.660156 C 266.15625 97.464844 266.308594 97.160156 266.308594 96.753906 C 266.308594 96.433594 266.199219 96.167969 265.980469 95.957031 C 265.761719 95.738281 265.480469 95.628906 265.136719 95.628906 C 264.792969 95.628906 264.503906 95.738281 264.277344 95.957031 C 264.046875 96.167969 263.902344 96.488281 263.839844 96.925781 L 262.964844 96.769531 C 263.066406 96.175781 263.308594 95.71875 263.683594 95.394531 C 264.066406 95.074219 264.542969 94.910156 265.105469 94.910156 C 265.5 94.910156 265.859375 94.996094 266.183594 95.160156 C 266.515625 95.328125 266.765625 95.558594 266.933594 95.847656 C 267.109375 96.140625 267.199219 96.449219 267.199219 96.769531 C 267.199219 97.082031 267.113281 97.363281 266.949219 97.613281 C 266.792969 97.863281 266.546875 98.066406 266.214844 98.222656 C 266.640625 98.316406 266.96875 98.519531 267.199219 98.832031 C 267.4375 99.136719 267.558594 99.519531 267.558594 99.988281 C 267.558594 100.613281 267.328125 101.144531 266.871094 101.582031 C 266.410156 102.011719 265.839844 102.222656 265.152344 102.222656 C 264.515625 102.222656 263.988281 102.035156 263.574219 101.660156 C 263.167969 101.285156 262.933594 100.800781 262.871094 100.207031 Z M 262.871094 100.207031 "/>
<path style=" stroke:none;fill-rule:nonzero;fill:rgb(0%,0%,0%);fill-opacity:1;" d="M 26.914062 98.566406 C 26.914062 97.722656 26.996094 97.046875 27.164062 96.535156 C 27.339844 96.015625 27.601562 95.613281 27.945312 95.332031 C 28.289062 95.050781 28.71875 94.910156 29.242188 94.910156 C 29.625 94.910156 29.960938 94.988281 30.242188 95.144531 C 30.53125 95.300781 30.773438 95.527344 30.960938 95.816406 C 31.15625 96.109375 31.308594 96.464844 31.414062 96.878906 C 31.515625 97.296875 31.570312 97.859375 31.570312 98.566406 C 31.570312 99.410156 31.480469 100.09375 31.304688 100.613281 C 31.136719 101.125 30.882812 101.519531 30.539062 101.800781 C 30.195312 102.082031 29.761719 102.222656 29.242188 102.222656 C 28.554688 102.222656 28.011719 101.972656 27.617188 101.472656 C 27.148438 100.878906 26.914062 99.910156 26.914062 98.566406 Z M 27.804688 98.566406 C 27.804688 99.746094 27.9375 100.53125 28.210938 100.925781 C 28.492188 101.3125 28.835938 101.503906 29.242188 101.503906 C 29.648438 101.503906 29.984375 101.3125 30.257812 100.925781 C 30.539062 100.53125 30.679688 99.746094 30.679688 98.566406 C 30.679688 97.390625 30.539062 96.609375 30.257812 96.222656 C 29.984375 95.839844 29.640625 95.644531 29.226562 95.644531 C 28.828125 95.644531 28.507812 95.8125 28.257812 96.144531 C 27.953125 96.582031 27.804688 97.390625 27.804688 98.566406 Z M 27.804688 98.566406 "/>
<path style=" stroke:none;fill-rule:nonzero;fill:rgb(0%,0%,0%);fill-opacity:1;" d="M 32.964844 101.097656 L 33.964844 101.097656 L 33.964844 102.097656 L 32.964844 102.097656 Z M 32.964844 101.097656 "/>
<path style=" stroke:none;fill-rule:nonzero;fill:rgb(0%,0%,0%);fill-opacity:1;" d="M 39.863281 101.253906 L 39.863281 102.097656 L 35.128906 102.097656 C 35.128906 101.890625 35.164062 101.6875 35.238281 101.488281 C 35.363281 101.167969 35.554688 100.847656 35.816406 100.535156 C 36.074219 100.222656 36.460938 99.863281 36.972656 99.457031 C 37.742188 98.8125 38.261719 98.308594 38.535156 97.941406 C 38.816406 97.566406 38.957031 97.214844 38.957031 96.878906 C 38.957031 96.527344 38.832031 96.234375 38.582031 96.003906 C 38.332031 95.765625 38.007812 95.644531 37.613281 95.644531 C 37.183594 95.644531 36.839844 95.769531 36.582031 96.019531 C 36.332031 96.269531 36.207031 96.621094 36.207031 97.066406 L 35.300781 96.972656 C 35.363281 96.308594 35.589844 95.796875 35.988281 95.441406 C 36.394531 95.089844 36.941406 94.910156 37.628906 94.910156 C 38.316406 94.910156 38.855469 95.105469 39.253906 95.488281 C 39.660156 95.863281 39.863281 96.332031 39.863281 96.894531 C 39.863281 97.1875 39.800781 97.472656 39.675781 97.753906 C 39.558594 98.027344 39.367188 98.316406 39.097656 98.628906 C 38.824219 98.933594 38.371094 99.347656 37.738281 99.878906 C 37.214844 100.316406 36.878906 100.621094 36.722656 100.785156 C 36.574219 100.941406 36.457031 101.097656 36.363281 101.253906 Z M 39.863281 101.253906 "/>
<path style=" stroke:none;fill-rule:nonzero;fill:rgb(0%,0%,0%);fill-opacity:1;" d="M 87.160156 98.566406 C 87.160156 97.722656 87.242188 97.046875 87.410156 96.535156 C 87.585938 96.015625 87.847656 95.613281 88.191406 95.332031 C 88.535156 95.050781 88.964844 94.910156 89.488281 94.910156 C 89.871094 94.910156 90.207031 94.988281 90.488281 95.144531 C 90.777344 95.300781 91.019531 95.527344 91.207031 95.816406 C 91.402344 96.109375 91.554688 96.464844 91.660156 96.878906 C 91.761719 97.296875 91.816406 97.859375 91.816406 98.566406 C 91.816406 99.410156 91.726562 100.09375 91.550781 100.613281 C 91.382812 101.125 91.128906 101.519531 90.785156 101.800781 C 90.441406 102.082031 90.007812 102.222656 89.488281 102.222656 C 88.800781 102.222656 88.257812 101.972656 87.863281 101.472656 C 87.394531 100.878906 87.160156 99.910156 87.160156 98.566406 Z M 88.050781 98.566406 C 88.050781 99.746094 88.183594 100.53125 88.457031 100.925781 C 88.738281 101.3125 89.082031 101.503906 89.488281 101.503906 C 89.894531 101.503906 90.230469 101.3125 90.503906 100.925781 C 90.785156 100.53125 90.925781 99.746094 90.925781 98.566406 C 90.925781 97.390625 90.785156 96.609375 90.503906 96.222656 C 90.230469 95.839844 89.886719 95.644531 89.472656 95.644531 C 89.074219 95.644531 88.753906 95.8125 88.503906 96.144531 C 88.199219 96.582031 88.050781 97.390625 88.050781 98.566406 Z M 88.050781 98.566406 "/>
<path style=" stroke:none;fill-rule:nonzero;fill:rgb(0%,0%,0%);fill-opacity:1;" d="M 93.210938 101.097656 L 94.210938 101.097656 L 94.210938 102.097656 L 93.210938 102.097656 Z M 93.210938 101.097656 "/>
<path style=" stroke:none;fill-rule:nonzero;fill:rgb(0%,0%,0%);fill-opacity:1;" d="M 98.3125 102.097656 L 98.3125 100.378906 L 95.203125 100.378906 L 95.203125 99.582031 L 98.46875 94.941406 L 99.1875 94.941406 L 99.1875 99.582031 L 100.15625 99.582031 L 100.15625 100.378906 L 99.1875 100.378906 L 99.1875 102.097656 Z M 98.3125 99.582031 L 98.3125 96.347656 L 96.0625 99.582031 Z M 98.3125 99.582031 "/>
<path style=" stroke:none;fill-rule:nonzero;fill:rgb(0%,0%,0%);fill-opacity:1;" d="M 122.644531 98.566406 C 122.644531 97.722656 122.726562 97.046875 122.894531 96.535156 C 123.070312 96.015625 123.332031 95.613281 123.675781 95.332031 C 124.019531 95.050781 124.449219 94.910156 124.972656 94.910156 C 125.355469 94.910156 125.691406 94.988281 125.972656 95.144531 C 126.261719 95.300781 126.503906 95.527344 126.691406 95.816406 C 126.886719 96.109375 127.039062 96.464844 127.144531 96.878906 C 127.246094 97.296875 127.300781 97.859375 127.300781 98.566406 C 127.300781 99.410156 127.210938 100.09375 127.035156 100.613281 C 126.867188 101.125 126.613281 101.519531 126.269531 101.800781 C 125.925781 102.082031 125.492188 102.222656 124.972656 102.222656 C 124.285156 102.222656 123.742188 101.972656 123.347656 101.472656 C 122.878906 100.878906 122.644531 99.910156 122.644531 98.566406 Z M 123.535156 98.566406 C 123.535156 99.746094 123.667969 100.53125 123.941406 100.925781 C 124.222656 101.3125 124.566406 101.503906 124.972656 101.503906 C 125.378906 101.503906 125.714844 101.3125 125.988281 100.925781 C 126.269531 100.53125 126.410156 99.746094 126.410156 98.566406 C 126.410156 97.390625 126.269531 96.609375 125.988281 96.222656 C 125.714844 95.839844 125.371094 95.644531 124.957031 95.644531 C 124.558594 95.644531 124.238281 95.8125 123.988281 96.144531 C 123.683594 96.582031 123.535156 97.390625 123.535156 98.566406 Z M 123.535156 98.566406 "/>
<path style=" stroke:none;fill-rule:nonzero;fill:rgb(0%,0%,0%);fill-opacity:1;" d="M 128.695312 101.097656 L 129.695312 101.097656 L 129.695312 102.097656 L 128.695312 102.097656 Z M 128.695312 101.097656 "/>
<path style=" stroke:none;fill-rule:nonzero;fill:rgb(0%,0%,0%);fill-opacity:1;" d="M 135.53125 96.691406 L 134.671875 96.753906 C 134.585938 96.410156 134.472656 96.160156 134.328125 96.003906 C 134.085938 95.753906 133.796875 95.628906 133.453125 95.628906 C 133.171875 95.628906 132.925781 95.707031 132.71875 95.863281 C 132.4375 96.074219 132.21875 96.371094 132.0625 96.753906 C 131.90625 97.140625 131.820312 97.691406 131.8125 98.410156 C 132.019531 98.089844 132.273438 97.847656 132.578125 97.691406 C 132.890625 97.535156 133.210938 97.457031 133.546875 97.457031 C 134.140625 97.457031 134.640625 97.675781 135.046875 98.113281 C 135.460938 98.542969 135.671875 99.09375 135.671875 99.769531 C 135.671875 100.21875 135.570312 100.636719 135.375 101.019531 C 135.175781 101.40625 134.90625 101.703125 134.5625 101.910156 C 134.226562 102.117188 133.847656 102.222656 133.421875 102.222656 C 132.691406 102.222656 132.09375 101.953125 131.625 101.410156 C 131.164062 100.871094 130.9375 99.984375 130.9375 98.753906 C 130.9375 97.371094 131.191406 96.359375 131.703125 95.722656 C 132.148438 95.183594 132.75 94.910156 133.5 94.910156 C 134.070312 94.910156 134.535156 95.074219 134.890625 95.394531 C 135.253906 95.707031 135.46875 96.140625 135.53125 96.691406 Z M 131.953125 99.785156 C 131.953125 100.089844 132.015625 100.378906 132.140625 100.660156 C 132.265625 100.933594 132.441406 101.140625 132.671875 101.285156 C 132.910156 101.433594 133.15625 101.503906 133.40625 101.503906 C 133.78125 101.503906 134.097656 101.355469 134.359375 101.050781 C 134.628906 100.75 134.765625 100.34375 134.765625 99.832031 C 134.765625 99.332031 134.628906 98.941406 134.359375 98.660156 C 134.097656 98.371094 133.769531 98.222656 133.375 98.222656 C 132.976562 98.222656 132.640625 98.371094 132.359375 98.660156 C 132.085938 98.941406 131.953125 99.316406 131.953125 99.785156 Z M 131.953125 99.785156 "/>
<path style=" stroke:none;fill-rule:nonzero;fill:rgb(0%,0%,0%);fill-opacity:1;" d="M 146.429688 98.566406 C 146.429688 97.722656 146.511719 97.046875 146.679688 96.535156 C 146.855469 96.015625 147.117188 95.613281 147.460938 95.332031 C 147.804688 95.050781 148.234375 94.910156 148.757812 94.910156 C 149.140625 94.910156 149.476562 94.988281 149.757812 95.144531 C 150.046875 95.300781 150.289062 95.527344 150.476562 95.816406 C 150.671875 96.109375 150.824219 96.464844 150.929688 96.878906 C 151.03125 97.296875 151.085938 97.859375 151.085938 98.566406 C 151.085938 99.410156 150.996094 100.09375 150.820312 100.613281 C 150.652344 101.125 150.398438 101.519531 150.054688 101.800781 C 149.710938 102.082031 149.277344 102.222656 148.757812 102.222656 C 148.070312 102.222656 147.527344 101.972656 147.132812 101.472656 C 146.664062 100.878906 146.429688 99.910156 146.429688 98.566406 Z M 147.320312 98.566406 C 147.320312 99.746094 147.453125 100.53125 147.726562 100.925781 C 148.007812 101.3125 148.351562 101.503906 148.757812 101.503906 C 149.164062 101.503906 149.5 101.3125 149.773438 100.925781 C 150.054688 100.53125 150.195312 99.746094 150.195312 98.566406 C 150.195312 97.390625 150.054688 96.609375 149.773438 96.222656 C 149.5 95.839844 149.15625 95.644531 148.742188 95.644531 C 148.34375 95.644531 148.023438 95.8125 147.773438 96.144531 C 147.46875 96.582031 147.320312 97.390625 147.320312 98.566406 Z M 147.320312 98.566406 "/>
<path style=" stroke:none;fill-rule:nonzero;fill:rgb(0%,0%,0%);fill-opacity:1;" d="M 152.480469 101.097656 L 153.480469 101.097656 L 153.480469 102.097656 L 152.480469 102.097656 Z M 152.480469 101.097656 "/>
<path style=" stroke:none;fill-rule:nonzero;fill:rgb(0%,0%,0%);fill-opacity:1;" d="M 156.113281 98.222656 C 155.746094 98.089844 155.476562 97.894531 155.300781 97.644531 C 155.121094 97.394531 155.035156 97.097656 155.035156 96.753906 C 155.035156 96.234375 155.222656 95.796875 155.597656 95.441406 C 155.972656 95.089844 156.472656 94.910156 157.097656 94.910156 C 157.722656 94.910156 158.222656 95.09375 158.597656 95.457031 C 158.980469 95.824219 159.175781 96.265625 159.175781 96.785156 C 159.175781 97.121094 159.085938 97.410156 158.910156 97.660156 C 158.742188 97.902344 158.480469 98.089844 158.128906 98.222656 C 158.566406 98.359375 158.898438 98.589844 159.128906 98.910156 C 159.355469 99.234375 159.472656 99.613281 159.472656 100.050781 C 159.472656 100.667969 159.253906 101.183594 158.816406 101.597656 C 158.386719 102.015625 157.820312 102.222656 157.113281 102.222656 C 156.402344 102.222656 155.832031 102.015625 155.394531 101.597656 C 154.964844 101.171875 154.753906 100.644531 154.753906 100.019531 C 154.753906 99.5625 154.867188 99.175781 155.097656 98.863281 C 155.335938 98.542969 155.675781 98.328125 156.113281 98.222656 Z M 155.941406 96.722656 C 155.941406 97.066406 156.050781 97.347656 156.269531 97.566406 C 156.488281 97.777344 156.769531 97.878906 157.113281 97.878906 C 157.457031 97.878906 157.730469 97.777344 157.941406 97.566406 C 158.160156 97.347656 158.269531 97.082031 158.269531 96.769531 C 158.269531 96.449219 158.152344 96.175781 157.925781 95.957031 C 157.707031 95.738281 157.433594 95.628906 157.113281 95.628906 C 156.769531 95.628906 156.488281 95.738281 156.269531 95.957031 C 156.050781 96.167969 155.941406 96.421875 155.941406 96.722656 Z M 155.660156 100.035156 C 155.660156 100.285156 155.714844 100.53125 155.832031 100.769531 C 155.957031 101 156.132812 101.183594 156.363281 101.316406 C 156.601562 101.441406 156.855469 101.503906 157.128906 101.503906 C 157.542969 101.503906 157.886719 101.371094 158.160156 101.097656 C 158.429688 100.828125 158.566406 100.484375 158.566406 100.066406 C 158.566406 99.640625 158.425781 99.292969 158.144531 99.019531 C 157.863281 98.738281 157.511719 98.597656 157.097656 98.597656 C 156.679688 98.597656 156.335938 98.734375 156.066406 99.003906 C 155.792969 99.277344 155.660156 99.621094 155.660156 100.035156 Z M 155.660156 100.035156 "/>
<path style=" stroke:none;fill-rule:nonzero;fill:rgb(0%,0%,0%);fill-opacity:1;" d="M 63.515625 98.566406 C 63.515625 97.722656 63.597656 97.046875 63.765625 96.535156 C 63.941406 96.015625 64.203125 95.613281 64.546875 95.332031 C 64.890625 95.050781 65.320312 94.910156 65.84375 94.910156 C 66.226562 94.910156 66.5625 94.988281 66.84375 95.144531 C 67.132812 95.300781 67.375 95.527344 67.5625 95.816406 C 67.757812 96.109375 67.910156 96.464844 68.015625 96.878906 C 68.117188 97.296875 68.171875 97.859375 68.171875 98.566406 C 68.171875 99.410156 68.082031 100.09375 67.90625 100.613281 C 67.738281 101.125 67.484375 101.519531 67.140625 101.800781 C 66.796875 102.082031 66.363281 102.222656 65.84375 102.222656 C 65.15625 102.222656 64.613281 101.972656 64.21875 101.472656 C 63.75 100.878906 63.515625 99.910156 63.515625 98.566406 Z M 64.40625 98.566406 C 64.40625 99.746094 64.539062 100.53125 64.8125 100.925781 C 65.09375 101.3125 65.4375 101.503906 65.84375 101.503906 C 66.25 101.503906 66.585938 101.3125 66.859375 100.925781 C 67.140625 100.53125 67.28125 99.746094 67.28125 98.566406 C 67.28125 97.390625 67.140625 96.609375 66.859375 96.222656 C 66.585938 95.839844 66.242188 95.644531 65.828125 95.644531 C 65.429688 95.644531 65.109375 95.8125 64.859375 96.144531 C 64.554688 96.582031 64.40625 97.390625 64.40625 98.566406 Z M 64.40625 98.566406 "/>
<path style=" stroke:none;fill-rule:nonzero;fill:rgb(0%,0%,0%);fill-opacity:1;" d="M 69.566406 101.097656 L 70.566406 101.097656 L 70.566406 102.097656 L 69.566406 102.097656 Z M 69.566406 101.097656 "/>
<path style=" stroke:none;fill-rule:nonzero;fill:rgb(0%,0%,0%);fill-opacity:1;" d="M 71.855469 100.207031 L 72.730469 100.097656 C 72.832031 100.589844 73.003906 100.949219 73.246094 101.175781 C 73.484375 101.394531 73.78125 101.503906 74.136719 101.503906 C 74.550781 101.503906 74.902344 101.363281 75.183594 101.082031 C 75.464844 100.792969 75.605469 100.433594 75.605469 100.003906 C 75.605469 99.597656 75.472656 99.265625 75.214844 99.003906 C 74.953125 98.746094 74.621094 98.613281 74.214844 98.613281 C 74.046875 98.613281 73.839844 98.644531 73.589844 98.707031 L 73.683594 97.941406 C 73.746094 97.941406 73.792969 97.941406 73.824219 97.941406 C 74.199219 97.941406 74.535156 97.847656 74.839844 97.660156 C 75.140625 97.464844 75.292969 97.160156 75.292969 96.753906 C 75.292969 96.433594 75.183594 96.167969 74.964844 95.957031 C 74.746094 95.738281 74.464844 95.628906 74.121094 95.628906 C 73.777344 95.628906 73.488281 95.738281 73.261719 95.957031 C 73.03125 96.167969 72.886719 96.488281 72.824219 96.925781 L 71.949219 96.769531 C 72.050781 96.175781 72.292969 95.71875 72.667969 95.394531 C 73.050781 95.074219 73.527344 94.910156 74.089844 94.910156 C 74.484375 94.910156 74.84375 94.996094 75.167969 95.160156 C 75.5 95.328125 75.75 95.558594 75.917969 95.847656 C 76.09375 96.140625 76.183594 96.449219 76.183594 96.769531 C 76.183594 97.082031 76.097656 97.363281 75.933594 97.613281 C 75.777344 97.863281 75.53125 98.066406 75.199219 98.222656 C 75.625 98.316406 75.953125 98.519531 76.183594 98.832031 C 76.421875 99.136719 76.542969 99.519531 76.542969 99.988281 C 76.542969 100.613281 76.3125 101.144531 75.855469 101.582031 C 75.394531 102.011719 74.824219 102.222656 74.136719 102.222656 C 73.5 102.222656 72.972656 102.035156 72.558594 101.660156 C 72.152344 101.285156 71.917969 100.800781 71.855469 100.207031 Z M 71.855469 100.207031 "/>
<path style="fill:none;stroke-width:1.6;stroke-linecap:butt;stroke-linejoin:miter;stroke:rgb(0%,0%,0%);stroke-opacity:1;stroke-miterlimit:4;" d="M 175.058594 57.726562 L 205.386719 44.609375 L 205.386719 57.726562 Z M 175.058594 57.726562 "/>
<path style=" stroke:none;fill-rule:nonzero;fill:rgb(0%,0%,0%);fill-opacity:1;" d="M 171.859375 69.597656 L 171.859375 67.878906 L 168.75 67.878906 L 168.75 67.082031 L 172.015625 62.441406 L 172.734375 62.441406 L 172.734375 67.082031 L 173.703125 67.082031 L 173.703125 67.878906 L 172.734375 67.878906 L 172.734375 69.597656 Z M 171.859375 67.082031 L 171.859375 63.847656 L 169.609375 67.082031 Z M 171.859375 67.082031 "/>
<path style=" stroke:none;fill-rule:nonzero;fill:rgb(0%,0%,0%);fill-opacity:1;" d="M 174.613281 66.066406 C 174.613281 65.222656 174.695312 64.546875 174.863281 64.035156 C 175.039062 63.515625 175.300781 63.113281 175.644531 62.832031 C 175.988281 62.550781 176.417969 62.410156 176.941406 62.410156 C 177.324219 62.410156 177.660156 62.488281 177.941406 62.644531 C 178.230469 62.800781 178.472656 63.027344 178.660156 63.316406 C 178.855469 63.609375 179.007812 63.964844 179.113281 64.378906 C 179.214844 64.796875 179.269531 65.359375 179.269531 66.066406 C 179.269531 66.910156 179.179688 67.59375 179.003906 68.113281 C 178.835938 68.625 178.582031 69.019531 178.238281 69.300781 C 177.894531 69.582031 177.460938 69.722656 176.941406 69.722656 C 176.253906 69.722656 175.710938 69.472656 175.316406 68.972656 C 174.847656 68.378906 174.613281 67.410156 174.613281 66.066406 Z M 175.503906 66.066406 C 175.503906 67.246094 175.636719 68.03125 175.910156 68.425781 C 176.191406 68.8125 176.535156 69.003906 176.941406 69.003906 C 177.347656 69.003906 177.683594 68.8125 177.957031 68.425781 C 178.238281 68.03125 178.378906 67.246094 178.378906 66.066406 C 178.378906 64.890625 178.238281 64.109375 177.957031 63.722656 C 177.683594 63.339844 177.339844 63.144531 176.925781 63.144531 C 176.527344 63.144531 176.207031 63.3125 175.957031 63.644531 C 175.652344 64.082031 175.503906 64.890625 175.503906 66.066406 Z M 175.503906 66.066406 "/>
<path style=" stroke:none;fill-rule:nonzero;fill:rgb(0%,0%,0%);fill-opacity:1;" d="M 183.789062 69.597656 L 183.789062 68.941406 C 183.453125 69.464844 182.96875 69.722656 182.335938 69.722656 C 181.917969 69.722656 181.53125 69.605469 181.179688 69.378906 C 180.835938 69.152344 180.570312 68.832031 180.382812 68.425781 C 180.195312 68.011719 180.101562 67.535156 180.101562 67.003906 C 180.101562 66.496094 180.183594 66.03125 180.351562 65.613281 C 180.527344 65.1875 180.789062 64.863281 181.132812 64.644531 C 181.476562 64.417969 181.859375 64.300781 182.289062 64.300781 C 182.601562 64.300781 182.875 64.371094 183.117188 64.503906 C 183.367188 64.628906 183.570312 64.796875 183.726562 65.003906 L 183.726562 62.441406 L 184.601562 62.441406 L 184.601562 69.597656 Z M 181.007812 67.003906 C 181.007812 67.671875 181.140625 68.171875 181.414062 68.503906 C 181.695312 68.828125 182.027344 68.988281 182.414062 68.988281 C 182.796875 68.988281 183.121094 68.832031 183.382812 68.519531 C 183.652344 68.207031 183.789062 67.730469 183.789062 67.082031 C 183.789062 66.375 183.652344 65.855469 183.382812 65.519531 C 183.109375 65.1875 182.777344 65.019531 182.382812 65.019531 C 181.984375 65.019531 181.65625 65.183594 181.398438 65.503906 C 181.136719 65.816406 181.007812 66.316406 181.007812 67.003906 Z M 181.007812 67.003906 "/>
<path style=" stroke:none;fill-rule:nonzero;fill:rgb(0%,0%,0%);fill-opacity:1;" d="M 186.058594 69.597656 L 186.058594 62.441406 L 188.746094 62.441406 C 189.285156 62.441406 189.722656 62.515625 190.058594 62.660156 C 190.390625 62.808594 190.652344 63.03125 190.839844 63.332031 C 191.027344 63.625 191.121094 63.9375 191.121094 64.269531 C 191.121094 64.574219 191.035156 64.859375 190.871094 65.128906 C 190.703125 65.402344 190.453125 65.621094 190.121094 65.785156 C 190.546875 65.910156 190.875 66.128906 191.105469 66.441406 C 191.34375 66.746094 191.464844 67.105469 191.464844 67.519531 C 191.464844 67.855469 191.390625 68.167969 191.246094 68.457031 C 191.109375 68.75 190.9375 68.972656 190.730469 69.128906 C 190.519531 69.285156 190.253906 69.40625 189.933594 69.488281 C 189.621094 69.5625 189.238281 69.597656 188.792969 69.597656 Z M 187.011719 65.441406 L 188.558594 65.441406 C 188.972656 65.441406 189.269531 65.417969 189.449219 65.363281 C 189.699219 65.292969 189.878906 65.171875 189.996094 65.003906 C 190.121094 64.839844 190.183594 64.628906 190.183594 64.378906 C 190.183594 64.140625 190.125 63.933594 190.011719 63.753906 C 189.894531 63.578125 189.730469 63.457031 189.511719 63.394531 C 189.300781 63.324219 188.941406 63.285156 188.433594 63.285156 L 187.011719 63.285156 Z M 187.011719 68.753906 L 188.792969 68.753906 C 189.09375 68.753906 189.308594 68.746094 189.433594 68.722656 C 189.652344 68.683594 189.832031 68.613281 189.980469 68.519531 C 190.125 68.425781 190.246094 68.296875 190.339844 68.128906 C 190.433594 67.953125 190.480469 67.75 190.480469 67.519531 C 190.480469 67.261719 190.410156 67.03125 190.277344 66.832031 C 190.140625 66.636719 189.949219 66.496094 189.699219 66.410156 C 189.457031 66.328125 189.109375 66.285156 188.652344 66.285156 L 187.011719 66.285156 Z M 187.011719 68.753906 "/>
<path style=" stroke:none;fill-rule:nonzero;fill:rgb(0%,0%,0%);fill-opacity:1;" d="M 192.003906 69.722656 L 194.082031 62.316406 L 194.785156 62.316406 L 192.707031 69.722656 Z M 192.003906 69.722656 "/>
<path style=" stroke:none;fill-rule:nonzero;fill:rgb(0%,0%,0%);fill-opacity:1;" d="M 195.542969 69.597656 L 195.542969 62.441406 L 198.011719 62.441406 C 198.574219 62.441406 199 62.472656 199.292969 62.535156 C 199.699219 62.628906 200.046875 62.800781 200.339844 63.050781 C 200.714844 63.375 200.996094 63.785156 201.183594 64.285156 C 201.371094 64.777344 201.464844 65.339844 201.464844 65.972656 C 201.464844 66.527344 201.402344 67.011719 201.277344 67.425781 C 201.152344 67.84375 200.988281 68.191406 200.792969 68.472656 C 200.59375 68.746094 200.375 68.957031 200.136719 69.113281 C 199.894531 69.269531 199.609375 69.390625 199.277344 69.472656 C 198.941406 69.558594 198.5625 69.597656 198.136719 69.597656 Z M 196.496094 68.753906 L 198.027344 68.753906 C 198.496094 68.753906 198.863281 68.714844 199.136719 68.628906 C 199.40625 68.535156 199.621094 68.410156 199.777344 68.253906 C 200.003906 68.027344 200.183594 67.722656 200.308594 67.347656 C 200.433594 66.964844 200.496094 66.5 200.496094 65.957031 C 200.496094 65.21875 200.371094 64.644531 200.121094 64.238281 C 199.871094 63.832031 199.574219 63.5625 199.230469 63.425781 C 198.96875 63.332031 198.558594 63.285156 197.996094 63.285156 L 196.496094 63.285156 Z M 196.496094 68.753906 "/>
<path style=" stroke:none;fill-rule:nonzero;fill:rgb(0%,0%,0%);fill-opacity:1;" d="M 206.207031 67.925781 L 207.128906 68.035156 C 206.980469 68.566406 206.710938 68.984375 206.316406 69.285156 C 205.929688 69.578125 205.441406 69.722656 204.847656 69.722656 C 204.085938 69.722656 203.480469 69.488281 203.035156 69.019531 C 202.585938 68.550781 202.363281 67.894531 202.363281 67.050781 C 202.363281 66.175781 202.585938 65.5 203.035156 65.019531 C 203.492188 64.542969 204.074219 64.300781 204.785156 64.300781 C 205.480469 64.300781 206.050781 64.535156 206.488281 65.003906 C 206.925781 65.472656 207.144531 66.136719 207.144531 66.988281 C 207.144531 67.042969 207.144531 67.121094 207.144531 67.222656 L 203.285156 67.222656 C 203.316406 67.796875 203.472656 68.234375 203.753906 68.535156 C 204.042969 68.839844 204.410156 68.988281 204.847656 68.988281 C 205.167969 68.988281 205.445312 68.90625 205.675781 68.738281 C 205.902344 68.574219 206.082031 68.300781 206.207031 67.925781 Z M 203.332031 66.503906 L 206.222656 66.503906 C 206.179688 66.066406 206.070312 65.738281 205.894531 65.519531 C 205.613281 65.1875 205.246094 65.019531 204.800781 65.019531 C 204.394531 65.019531 204.054688 65.15625 203.785156 65.425781 C 203.511719 65.699219 203.363281 66.058594 203.332031 66.503906 Z M 203.332031 66.503906 "/>
<path style=" stroke:none;fill-rule:nonzero;fill:rgb(0%,0%,0%);fill-opacity:1;" d="M 211.617188 67.691406 L 212.476562 67.816406 C 212.382812 68.410156 212.136719 68.878906 211.742188 69.222656 C 211.355469 69.558594 210.882812 69.722656 210.320312 69.722656 C 209.609375 69.722656 209.039062 69.488281 208.601562 69.019531 C 208.171875 68.550781 207.960938 67.886719 207.960938 67.019531 C 207.960938 66.46875 208.054688 65.984375 208.242188 65.566406 C 208.429688 65.140625 208.710938 64.824219 209.085938 64.613281 C 209.460938 64.40625 209.871094 64.300781 210.320312 64.300781 C 210.882812 64.300781 211.339844 64.441406 211.695312 64.722656 C 212.058594 65.003906 212.292969 65.410156 212.398438 65.941406 L 211.539062 66.066406 C 211.453125 65.722656 211.308594 65.464844 211.101562 65.285156 C 210.902344 65.109375 210.652344 65.019531 210.351562 65.019531 C 209.914062 65.019531 209.554688 65.183594 209.273438 65.503906 C 209 65.816406 208.867188 66.316406 208.867188 67.003906 C 208.867188 67.703125 208.996094 68.207031 209.257812 68.519531 C 209.527344 68.832031 209.875 68.988281 210.304688 68.988281 C 210.648438 68.988281 210.933594 68.886719 211.164062 68.675781 C 211.402344 68.46875 211.554688 68.140625 211.617188 67.691406 Z M 211.617188 67.691406 "/>
</g>
</svg>
