<?xml version="1.0" encoding="UTF-8" standalone="no"?>
<svg
   width="280.492401pt"
   height="124.65918pt"
   viewBox="0 0 280.492401 124.65918"
   version="1.1"
   id="svg40648"
   sodipodi:docname="MMO.svg"
   inkscape:version="1.2 (dc2aedaf03, 2022-05-15)"
   xmlns:inkscape="http://www.inkscape.org/namespaces/inkscape"
   xmlns:sodipodi="http://sodipodi.sourceforge.net/DTD/sodipodi-0.dtd"
   xmlns="http://www.w3.org/2000/svg"
   xmlns:svg="http://www.w3.org/2000/svg">
  <sodipodi:namedview
     id="namedview40650"
     pagecolor="#505050"
     bordercolor="#eeeeee"
     borderopacity="1"
     inkscape:showpageshadow="0"
     inkscape:pageopacity="0"
     inkscape:pagecheckerboard="0"
     inkscape:deskcolor="#505050"
     inkscape:document-units="pt"
     showgrid="false"
     inkscape:zoom="4.2594737"
     inkscape:cx="186.87755"
     inkscape:cy="83.226245"
     inkscape:window-width="3840"
     inkscape:window-height="2080"
     inkscape:window-x="-11"
     inkscape:window-y="-11"
     inkscape:window-maximized="1"
     inkscape:current-layer="svg40648" />
  <defs
     id="defs40373">
    <clipPath
       id="clip1">
      <path
         d="M 33 2 L 280.492188 2 L 280.492188 93 L 33 93 Z M 33 2 "
         id="path40325" />
    </clipPath>
    <clipPath
       id="clip2">
      <path
         d="M 32 2 L 280.492188 2 L 280.492188 4 L 32 4 Z M 32 2 "
         id="path40328" />
    </clipPath>
    <clipPath
       id="clip3">
      <path
         d="M 279 2 L 280.492188 2 L 280.492188 93 L 279 93 Z M 279 2 "
         id="path40331" />
    </clipPath>
    <clipPath
       id="clip4">
      <path
         d="M 32 91 L 280.492188 91 L 280.492188 93 L 32 93 Z M 32 91 "
         id="path40334" />
    </clipPath>
    <clipPath
       id="clip5">
      <path
         d="M 32 2 L 280.492188 2 L 280.492188 4 L 32 4 Z M 32 2 "
         id="path40337" />
    </clipPath>
    <clipPath
       id="clip6">
      <path
         d="M 32 91 L 280.492188 91 L 280.492188 93 L 32 93 Z M 32 91 "
         id="path40340" />
    </clipPath>
    <clipPath
       id="clip7">
      <path
         d="M 279 2 L 280.492188 2 L 280.492188 93 L 279 93 Z M 279 2 "
         id="path40343" />
    </clipPath>
    <clipPath
       id="clip8">
      <path
         d="M 129 117 L 135 117 L 135 124.660156 L 129 124.660156 Z M 129 117 "
         id="path40346" />
    </clipPath>
    <clipPath
       id="clip9">
      <path
         d="M 156 117 L 162 117 L 162 124.660156 L 156 124.660156 Z M 156 117 "
         id="path40349" />
    </clipPath>
    <clipPath
       id="clip10">
      <path
         d="M 165 115 L 168 115 L 168 124.660156 L 165 124.660156 Z M 165 115 "
         id="path40352" />
    </clipPath>
    <clipPath
       id="clip11">
      <path
         d="M 187 115 L 190 115 L 190 124.660156 L 187 124.660156 Z M 187 115 "
         id="path40355" />
    </clipPath>
    <clipPath
       id="clip12">
      <path
         d="M 279 2 L 280.492188 2 L 280.492188 93 L 279 93 Z M 279 2 "
         id="path40358" />
    </clipPath>
    <clipPath
       id="clip13">
      <path
         d="M 274 47 L 280.492188 47 L 280.492188 49 L 274 49 Z M 274 47 "
         id="path40361" />
    </clipPath>
    <clipPath
       id="clip14">
      <path
         d="M 274 24 L 280.492188 24 L 280.492188 27 L 274 27 Z M 274 24 "
         id="path40364" />
    </clipPath>
    <clipPath
       id="clip15">
      <path
         d="M 274 69 L 280.492188 69 L 280.492188 71 L 274 71 Z M 274 69 "
         id="path40367" />
    </clipPath>
    <clipPath
       id="clip16">
      <path
         d="M 32 2 L 280.492188 2 L 280.492188 4 L 32 4 Z M 32 2 "
         id="path40370" />
    </clipPath>
  </defs>
  <g
     id="g42495">
    <path
       style="fill:none;stroke:#ffffff;stroke-width:1.2;stroke-linecap:butt;stroke-linejoin:round;stroke-miterlimit:10;stroke-opacity:1"
       d="m 67.820312,79.988281 58.527348,-26.027343 34,-11.085938 24.52734,-10.605469 18.95312,-7.226562 15.04688,-0.964844 13.37891,1.925781 11.14843,2.894532 10.03516,1.925781 8.91797,2.894531 7.80078,0.480469 7.80469,5.300781"
       id="path40375" />
    <g
       clip-path="url(#clip1)"
       clip-rule="nonzero"
       id="g40379"
       style="stroke:#ffffff">
      <path
         style="fill:none;stroke:#ffffff;stroke-width:0.500001;stroke-linecap:butt;stroke-linejoin:round;stroke-miterlimit:10;stroke-opacity:1"
         d="M 33.359375,3.230469 H 279.88672 V 92.253906 H 33.359375 Z m 0,0"
         id="path40377" />
    </g>
    <g
       clip-path="url(#clip2)"
       clip-rule="nonzero"
       id="g40383"
       style="stroke:#ffffff">
      <path
         style="fill:none;stroke:#ffffff;stroke-width:1.2;stroke-linecap:butt;stroke-linejoin:round;stroke-miterlimit:10;stroke-opacity:1"
         d="M 33.359375,3.230469 H 279.88672"
         id="path40381" />
    </g>
    <g
       clip-path="url(#clip3)"
       clip-rule="nonzero"
       id="g40387"
       style="stroke:#ffffff">
      <path
         style="fill:none;stroke:#ffffff;stroke-width:1.2;stroke-linecap:butt;stroke-linejoin:round;stroke-miterlimit:10;stroke-opacity:1"
         d="M 279.88672,92.253906 V 3.230469"
         id="path40385" />
    </g>
    <g
       clip-path="url(#clip4)"
       clip-rule="nonzero"
       id="g40393"
       style="stroke:#ffffff">
      <path
         style="fill:none;stroke:#ffffff;stroke-width:1.2;stroke-linecap:butt;stroke-linejoin:round;stroke-miterlimit:10;stroke-opacity:1"
         d="M 33.359375,92.253906 H 279.88672"
         id="path40389" />
      <path
         style="fill:none;stroke:#ffffff;stroke-width:1.2;stroke-linecap:butt;stroke-linejoin:round;stroke-miterlimit:10;stroke-opacity:1"
         d="M 33.359375,92.253906 H 279.88672"
         id="path40391" />
    </g>
    <path
       style="fill:none;stroke:#ffffff;stroke-width:1.2;stroke-linecap:butt;stroke-linejoin:round;stroke-miterlimit:10;stroke-opacity:1"
       d="M 70,92.253906 V 89.851562"
       id="path40395" />
    <path
       style="fill:none;stroke:#ffffff;stroke-width:1.2;stroke-linecap:butt;stroke-linejoin:round;stroke-miterlimit:10;stroke-opacity:1"
       d="M 93.65625,92.253906 V 89.851562"
       id="path40397" />
    <path
       style="fill:none;stroke:#ffffff;stroke-width:1.2;stroke-linecap:butt;stroke-linejoin:round;stroke-miterlimit:10;stroke-opacity:1"
       d="M 113.36719,92.253906 V 89.851562"
       id="path40399" />
    <path
       style="fill:none;stroke:#ffffff;stroke-width:1.2;stroke-linecap:butt;stroke-linejoin:round;stroke-miterlimit:10;stroke-opacity:1"
       d="M 129.14062,92.253906 V 89.851562"
       id="path40401" />
    <path
       style="fill:none;stroke:#ffffff;stroke-width:1.2;stroke-linecap:butt;stroke-linejoin:round;stroke-miterlimit:10;stroke-opacity:1"
       d="M 140.96875,92.253906 V 89.851562"
       id="path40403" />
    <path
       style="fill:none;stroke:#ffffff;stroke-width:1.2;stroke-linecap:butt;stroke-linejoin:round;stroke-miterlimit:10;stroke-opacity:1"
       d="M 152.79687,92.253906 V 89.851562"
       id="path40405" />
    <path
       style="fill:none;stroke:#ffffff;stroke-width:1.2;stroke-linecap:butt;stroke-linejoin:round;stroke-miterlimit:10;stroke-opacity:1"
       d="M 162.65234,92.253906 V 89.851562"
       id="path40407" />
    <path
       style="fill:none;stroke:#ffffff;stroke-width:1.2;stroke-linecap:butt;stroke-linejoin:round;stroke-miterlimit:10;stroke-opacity:1"
       d="M 172.51172,92.253906 V 89.851562"
       id="path40409" />
    <path
       style="fill:none;stroke:#ffffff;stroke-width:1.2;stroke-linecap:butt;stroke-linejoin:round;stroke-miterlimit:10;stroke-opacity:1"
       d="M 172.51172,92.253906 V 87.453125"
       id="path40411" />
    <path
       style="fill:none;stroke:#ffffff;stroke-width:1.2;stroke-linecap:butt;stroke-linejoin:round;stroke-miterlimit:10;stroke-opacity:1"
       d="M 229.67969,92.253906 V 89.851562"
       id="path40413" />
    <path
       style="fill:none;stroke:#ffffff;stroke-width:1.2;stroke-linecap:butt;stroke-linejoin:round;stroke-miterlimit:10;stroke-opacity:1"
       d="M 265.16406,92.253906 V 89.851562"
       id="path40415" />
    <g
       clip-path="url(#clip5)"
       clip-rule="nonzero"
       id="g40419"
       style="stroke:#ffffff">
      <path
         style="fill:none;stroke:#ffffff;stroke-width:1.2;stroke-linecap:butt;stroke-linejoin:round;stroke-miterlimit:10;stroke-opacity:1"
         d="M 33.359375,3.230469 H 279.88672"
         id="path40417" />
    </g>
    <g
       clip-path="url(#clip6)"
       clip-rule="nonzero"
       id="g40423"
       style="stroke:#ffffff">
      <path
         style="fill:none;stroke:#ffffff;stroke-width:1.2;stroke-linecap:butt;stroke-linejoin:round;stroke-miterlimit:10;stroke-opacity:1"
         d="M 33.359375,92.253906 H 279.88672"
         id="path40421" />
    </g>
    <g
       clip-path="url(#clip7)"
       clip-rule="nonzero"
       id="g40427"
       style="stroke:#ffffff">
      <path
         style="fill:none;stroke:#ffffff;stroke-width:1.2;stroke-linecap:butt;stroke-linejoin:round;stroke-miterlimit:10;stroke-opacity:1"
         d="M 279.88672,92.253906 V 3.230469"
         id="path40425" />
    </g>
    <path
       style="fill:none;stroke:#ffffff;stroke-width:1.2;stroke-linecap:butt;stroke-linejoin:round;stroke-miterlimit:10;stroke-opacity:1"
       d="M 33.359375,92.253906 V 3.230469"
       id="path40529" />
    <path
       style="fill:none;stroke:#ffffff;stroke-width:1.2;stroke-linecap:butt;stroke-linejoin:round;stroke-miterlimit:10;stroke-opacity:1"
       d="M 33.359375,92.253906 V 3.230469"
       id="path40531" />
    <path
       style="fill:none;stroke:#ffffff;stroke-width:1.2;stroke-linecap:butt;stroke-linejoin:round;stroke-miterlimit:10;stroke-opacity:1"
       d="m 33.359375,92.253906 h 1.867187"
       id="path40533" />
    <path
       style="fill:none;stroke:#ffffff;stroke-width:1.2;stroke-linecap:butt;stroke-linejoin:round;stroke-miterlimit:10;stroke-opacity:1"
       d="m 33.359375,47.742188 h 4.800781"
       id="path40535" />
    <path
       style="fill:none;stroke:#ffffff;stroke-width:1.2;stroke-linecap:butt;stroke-linejoin:round;stroke-miterlimit:10;stroke-opacity:1"
       d="m 33.359375,25.484375 h 4.800781"
       id="path40537" />
    <path
       style="fill:none;stroke:#ffffff;stroke-width:1.2;stroke-linecap:butt;stroke-linejoin:round;stroke-miterlimit:10;stroke-opacity:1"
       d="m 33.359375,3.230469 h 1.867187"
       id="path40539" />
    <path
       style="fill:none;stroke:#ffffff;stroke-width:1.2;stroke-linecap:butt;stroke-linejoin:round;stroke-miterlimit:10;stroke-opacity:1"
       d="M 33.359375,92.253906 V 3.230469"
       id="path40541" />
    <path
       style="fill:none;stroke:#ffffff;stroke-width:1.2;stroke-linecap:butt;stroke-linejoin:round;stroke-miterlimit:10;stroke-opacity:1"
       d="m 33.332031,69.996094 h 4.800781"
       id="path40543" />
    <g
       clip-path="url(#clip12)"
       clip-rule="nonzero"
       id="g40555"
       style="stroke:#ffffff">
      <path
         style="fill:none;stroke:#ffffff;stroke-width:1.2;stroke-linecap:butt;stroke-linejoin:round;stroke-miterlimit:10;stroke-opacity:1"
         d="M 279.89062,92.257812 V 3.234375"
         id="path40551" />
      <path
         style="fill:none;stroke:#ffffff;stroke-width:1.2;stroke-linecap:butt;stroke-linejoin:round;stroke-miterlimit:10;stroke-opacity:1"
         d="M 279.89062,92.257812 V 3.234375"
         id="path40553" />
    </g>
    <g
       clip-path="url(#clip13)"
       clip-rule="nonzero"
       id="g40559"
       style="stroke:#ffffff">
      <path
         style="fill:none;stroke:#ffffff;stroke-width:1.2;stroke-linecap:butt;stroke-linejoin:round;stroke-miterlimit:10;stroke-opacity:1"
         d="m 279.89062,47.746094 h -4.79687"
         id="path40557" />
    </g>
    <g
       clip-path="url(#clip14)"
       clip-rule="nonzero"
       id="g40563"
       style="stroke:#ffffff">
      <path
         style="fill:none;stroke:#ffffff;stroke-width:1.2;stroke-linecap:butt;stroke-linejoin:round;stroke-miterlimit:10;stroke-opacity:1"
         d="m 279.89062,25.488281 h -4.79687"
         id="path40561" />
    </g>
    <g
       clip-path="url(#clip15)"
       clip-rule="nonzero"
       id="g40567"
       style="stroke:#ffffff">
      <path
         style="fill:none;stroke:#ffffff;stroke-width:1.2;stroke-linecap:butt;stroke-linejoin:round;stroke-miterlimit:10;stroke-opacity:1"
         d="m 279.92187,70 h -4.80078"
         id="path40565" />
    </g>
    <g
       clip-path="url(#clip16)"
       clip-rule="nonzero"
       id="g40571"
       style="stroke:#ffffff">
      <path
         style="fill:none;stroke:#ffffff;stroke-width:1.2;stroke-linecap:butt;stroke-linejoin:round;stroke-miterlimit:10;stroke-opacity:1"
         d="M 33.375,3.214844 H 279.90625"
         id="path40569" />
    </g>
    <path
       style="fill:none;stroke:#ffffff;stroke-width:1.2;stroke-linecap:butt;stroke-linejoin:round;stroke-miterlimit:10;stroke-opacity:1"
       d="M 70.015625,3.214844 V 5.613281"
       id="path40573" />
    <path
       style="fill:none;stroke:#ffffff;stroke-width:1.2;stroke-linecap:butt;stroke-linejoin:round;stroke-miterlimit:10;stroke-opacity:1"
       d="M 93.671875,3.214844 V 5.613281"
       id="path40575" />
    <path
       style="fill:none;stroke:#ffffff;stroke-width:1.2;stroke-linecap:butt;stroke-linejoin:round;stroke-miterlimit:10;stroke-opacity:1"
       d="M 113.38672,3.214844 V 5.613281"
       id="path40577" />
    <path
       style="fill:none;stroke:#ffffff;stroke-width:1.2;stroke-linecap:butt;stroke-linejoin:round;stroke-miterlimit:10;stroke-opacity:1"
       d="M 129.15625,3.214844 V 5.613281"
       id="path40579" />
    <path
       style="fill:none;stroke:#ffffff;stroke-width:1.2;stroke-linecap:butt;stroke-linejoin:round;stroke-miterlimit:10;stroke-opacity:1"
       d="M 140.98437,3.214844 V 5.613281"
       id="path40581" />
    <path
       style="fill:none;stroke:#ffffff;stroke-width:1.2;stroke-linecap:butt;stroke-linejoin:round;stroke-miterlimit:10;stroke-opacity:1"
       d="M 152.8125,3.214844 V 5.613281"
       id="path40583" />
    <path
       style="fill:none;stroke:#ffffff;stroke-width:1.2;stroke-linecap:butt;stroke-linejoin:round;stroke-miterlimit:10;stroke-opacity:1"
       d="M 162.67187,3.214844 V 5.613281"
       id="path40585" />
    <path
       style="fill:none;stroke:#ffffff;stroke-width:1.2;stroke-linecap:butt;stroke-linejoin:round;stroke-miterlimit:10;stroke-opacity:1"
       d="M 172.52734,3.214844 V 5.613281"
       id="path40587" />
    <path
       style="fill:none;stroke:#ffffff;stroke-width:1.2;stroke-linecap:butt;stroke-linejoin:round;stroke-miterlimit:10;stroke-opacity:1"
       d="M 172.52734,3.214844 V 8.011719"
       id="path40589" />
    <path
       style="fill:none;stroke:#ffffff;stroke-width:1.2;stroke-linecap:butt;stroke-linejoin:round;stroke-miterlimit:10;stroke-opacity:1"
       d="M 229.69531,3.214844 V 5.613281"
       id="path40591" />
    <path
       style="fill:none;stroke:#ffffff;stroke-width:1.2;stroke-linecap:butt;stroke-linejoin:round;stroke-miterlimit:10;stroke-opacity:1"
       d="M 265.18359,3.214844 V 5.613281"
       id="path40593" />
    <path
       style="fill:none;stroke:#ffffff;stroke-width:1.6;stroke-linecap:butt;stroke-linejoin:miter;stroke-miterlimit:4;stroke-opacity:1"
       d="m 175.05859,57.726562 30.32813,-13.117187 v 13.117187 z m 0,0"
       id="path40629" />
  </g>
  <g
     id="g42435"
     style="fill:#ffffff">
    <path
       style="fill:#ffffff;fill-opacity:1;fill-rule:nonzero;stroke:none"
       d="m 7.285156,97.925781 h -7.15625 v -1.421875 l 5.0625,-1.6875 c 0.480469,-0.15625 0.835938,-0.269531 1.0625,-0.34375 -0.257812,-0.08203 -0.640625,-0.207031 -1.140625,-0.375 l -4.984375,-1.71875 v -1.28125 h 7.15625 v 0.921875 H 1.300781 l 5.984375,2.078125 v 0.859375 l -6.09375,2.0625 h 6.09375 z m 0,0"
       id="path40429" />
    <path
       style="fill:#ffffff;fill-opacity:1;fill-rule:nonzero;stroke:none"
       d="m 4.691406,90.007812 c -0.957031,0 -1.671875,-0.269531 -2.140625,-0.8125 -0.375,-0.4375 -0.5625,-0.976562 -0.5625,-1.625 0,-0.707031 0.234375,-1.285156 0.703125,-1.734374 0.460938,-0.457032 1.101563,-0.6875 1.921875,-0.6875 0.667969,0 1.195313,0.101562 1.578125,0.296874 0.386719,0.199219 0.6875,0.492188 0.90625,0.875 0.207032,0.386719 0.3125,0.804688 0.3125,1.25 0,0.730469 -0.234375,1.320313 -0.703125,1.765626 -0.46875,0.449218 -1.140625,0.671874 -2.015625,0.671874 z m 0,-0.90625 c 0.667969,0 1.167969,-0.144531 1.5,-0.4375 0.324219,-0.289062 0.484375,-0.65625 0.484375,-1.09375 0,-0.4375 -0.164062,-0.796874 -0.5,-1.078124 -0.332031,-0.289063 -0.835937,-0.4375 -1.515625,-0.4375 -0.632812,0 -1.117187,0.148437 -1.453125,0.4375 -0.332031,0.292968 -0.5,0.652343 -0.5,1.078124 0,0.4375 0.167969,0.804688 0.5,1.09375 0.324219,0.292969 0.820313,0.4375 1.484375,0.4375 z m 0,0"
       id="path40431" />
    <path
       style="fill:#ffffff;fill-opacity:1;fill-rule:nonzero;stroke:none"
       d="m 7.285156,80.738281 h -0.65625 c 0.523438,0.335938 0.78125,0.820313 0.78125,1.453125 0,0.417969 -0.117187,0.804688 -0.34375,1.15625 -0.226562,0.34375 -0.546875,0.609375 -0.953125,0.796875 -0.414062,0.1875 -0.890625,0.28125 -1.421875,0.28125 -0.507812,0 -0.972656,-0.08203 -1.390625,-0.25 C 2.875,84 2.550781,83.738281 2.332031,83.394531 c -0.226562,-0.34375 -0.34375,-0.726562 -0.34375,-1.15625 0,-0.3125 0.070313,-0.585937 0.203125,-0.828125 0.125,-0.25 0.292969,-0.453125 0.5,-0.609375 h -2.5625 v -0.875 h 7.15625 z m -2.59375,2.78125 c 0.667969,0 1.167969,-0.132812 1.5,-0.40625 0.324219,-0.28125 0.484375,-0.613281 0.484375,-1 0,-0.382812 -0.15625,-0.707031 -0.46875,-0.96875 -0.3125,-0.269531 -0.789062,-0.40625 -1.4375,-0.40625 -0.707031,0 -1.226562,0.136719 -1.5625,0.40625 -0.332031,0.273438 -0.5,0.605469 -0.5,1 0,0.398438 0.164063,0.726563 0.484375,0.984375 0.3125,0.261719 0.8125,0.390625 1.5,0.390625 z m 0,0"
       id="path40433" />
    <path
       style="fill:#ffffff;fill-opacity:1;fill-rule:nonzero;stroke:none"
       d="M 7.285156,75.140625 H 6.519531 c 0.59375,0.40625 0.890625,0.960937 0.890625,1.65625 0,0.304687 -0.058594,0.589844 -0.171875,0.859375 -0.125,0.261719 -0.273437,0.460938 -0.453125,0.59375 -0.175781,0.125 -0.394531,0.214844 -0.65625,0.265625 -0.164062,0.03125 -0.4375,0.04687 -0.8125,0.04687 h -3.21875 v -0.875 h 2.875 c 0.460938,0 0.773438,-0.01953 0.9375,-0.0625 0.230469,-0.05078 0.414063,-0.164062 0.546875,-0.34375 0.125,-0.175781 0.1875,-0.398438 0.1875,-0.671875 0,-0.257813 -0.066406,-0.503906 -0.203125,-0.734375 C 6.308594,75.648438 6.125,75.484375 5.894531,75.390625 5.65625,75.289062 5.316406,75.234375 4.878906,75.234375 h -2.78125 v -0.875 h 5.1875 z m 0,0"
       id="path40435" />
    <path
       style="fill:#ffffff;fill-opacity:1;fill-rule:nonzero;stroke:none"
       d="m 0.128906,72.121094 h 7.15625 v 0.875 h -7.15625 z m 0,0"
       id="path40437" />
    <path
       style="fill:#ffffff;fill-opacity:1;fill-rule:nonzero;stroke:none"
       d="M 6.644531,67.363281 C 6.925781,67.6875 7.125,68 7.238281,68.300781 c 0.113281,0.304688 0.171875,0.625 0.171875,0.96875 0,0.574219 -0.140625,1.015625 -0.421875,1.328125 -0.28125,0.304688 -0.640625,0.453125 -1.078125,0.453125 -0.25,0 -0.476562,-0.05469 -0.6875,-0.171875 -0.207031,-0.113281 -0.375,-0.265625 -0.5,-0.453125 -0.132812,-0.1875 -0.234375,-0.398437 -0.296875,-0.640625 -0.039062,-0.164062 -0.082031,-0.425781 -0.125,-0.78125 -0.082031,-0.707031 -0.1875,-1.226562 -0.3125,-1.5625 -0.113281,0 -0.1875,0 -0.21875,0 -0.363281,0 -0.617187,0.08594 -0.765625,0.25 -0.195312,0.21875 -0.296875,0.554688 -0.296875,1 0,0.40625 0.074219,0.710938 0.21875,0.90625 0.148438,0.199219 0.402344,0.34375 0.765625,0.4375 l -0.109375,0.859375 c -0.375,-0.07031 -0.671875,-0.195312 -0.890625,-0.375 -0.226562,-0.1875 -0.398437,-0.445312 -0.515625,-0.78125 -0.125,-0.34375 -0.1875,-0.738281 -0.1875,-1.1875 0,-0.4375 0.054688,-0.789062 0.15625,-1.0625 0.105469,-0.28125 0.234375,-0.484375 0.390625,-0.609375 0.15625,-0.132812 0.355469,-0.226562 0.59375,-0.28125 0.148438,-0.03125 0.417969,-0.04687 0.8125,-0.04687 h 1.171875 c 0.8125,0 1.328125,-0.01563 1.546875,-0.04687 0.21875,-0.03906 0.429688,-0.117187 0.625,-0.234375 v 0.921875 c -0.1875,0.09375 -0.398437,0.152344 -0.640625,0.171875 z m -1.96875,0.07813 c 0.136719,0.324219 0.25,0.804688 0.34375,1.4375 0.054688,0.355469 0.109375,0.609375 0.171875,0.765625 0.0625,0.148438 0.15625,0.261719 0.28125,0.34375 0.125,0.08594 0.265625,0.125 0.421875,0.125 0.230469,0 0.421875,-0.08594 0.578125,-0.265625 0.15625,-0.175781 0.234375,-0.4375 0.234375,-0.78125 0,-0.34375 -0.070312,-0.644531 -0.21875,-0.90625 -0.144531,-0.257817 -0.347656,-0.45313 -0.609375,-0.57813 -0.195312,-0.09375 -0.488281,-0.140625 -0.875,-0.140625 z m 0,0"
       id="path40439" />
    <path
       style="fill:#ffffff;fill-opacity:1;fill-rule:nonzero;stroke:none"
       d="m 6.503906,63.265625 0.765625,-0.125 c 0.050781,0.25 0.078125,0.46875 0.078125,0.65625 0,0.324219 -0.046875,0.574219 -0.140625,0.75 -0.101562,0.179687 -0.238281,0.304687 -0.40625,0.375 -0.164062,0.0625 -0.507812,0.09375 -1.03125,0.09375 H 2.785156 v 0.65625 h -0.6875 v -0.65625 H 0.816406 L 0.285156,64.15625 h 1.8125 v -0.890625 h 0.6875 v 0.890625 h 3.03125 c 0.25,0 0.414063,-0.01563 0.484375,-0.04687 0.074219,-0.03125 0.132813,-0.08203 0.171875,-0.15625 0.042969,-0.07031 0.0625,-0.171875 0.0625,-0.296875 0,-0.101562 -0.00781,-0.234375 -0.03125,-0.390625 z m 0,0"
       id="path40441" />
    <path
       style="fill:#ffffff;fill-opacity:1;fill-rule:nonzero;stroke:none"
       d="m 4.691406,62.742188 c -0.957031,0 -1.671875,-0.269532 -2.140625,-0.8125 -0.375,-0.4375 -0.5625,-0.976563 -0.5625,-1.625 0,-0.707032 0.234375,-1.285157 0.703125,-1.734376 0.460938,-0.457031 1.101563,-0.6875 1.921875,-0.6875 0.667969,0 1.195313,0.101563 1.578125,0.296876 0.386719,0.199218 0.6875,0.492187 0.90625,0.875 0.207032,0.386718 0.3125,0.804687 0.3125,1.25 0,0.730468 -0.234375,1.320312 -0.703125,1.765624 -0.46875,0.449219 -1.140625,0.671876 -2.015625,0.671876 z m 0,-0.90625 c 0.667969,0 1.167969,-0.144532 1.5,-0.4375 0.324219,-0.289063 0.484375,-0.65625 0.484375,-1.09375 0,-0.4375 -0.164062,-0.796876 -0.5,-1.078126 -0.332031,-0.289062 -0.835937,-0.4375 -1.515625,-0.4375 -0.632812,0 -1.117187,0.148438 -1.453125,0.4375 -0.332031,0.292969 -0.5,0.652344 -0.5,1.078126 0,0.4375 0.167969,0.804687 0.5,1.09375 0.324219,0.292968 0.820313,0.4375 1.484375,0.4375 z m 0,0"
       id="path40443" />
    <path
       style="fill:#ffffff;fill-opacity:1;fill-rule:nonzero;stroke:none"
       d="m 7.285156,56.847656 h -5.1875 v -0.78125 h 0.78125 c -0.363281,-0.207031 -0.601562,-0.394531 -0.71875,-0.5625 -0.113281,-0.164062 -0.171875,-0.351562 -0.171875,-0.5625 0,-0.300781 0.09375,-0.601562 0.28125,-0.90625 l 0.8125,0.296875 c -0.125,0.21875 -0.1875,0.4375 -0.1875,0.65625 0,0.1875 0.058594,0.359375 0.171875,0.515625 0.117188,0.15625 0.277344,0.265625 0.484375,0.328125 0.3125,0.09375 0.652344,0.140625 1.015625,0.140625 h 2.71875 z m 0,0"
       id="path40445" />
    <path
       style="fill:#ffffff;fill-opacity:1;fill-rule:nonzero;stroke:none"
       d="m 3.800781,50.90625 c -1.1875,0 -2.113281,-0.316406 -2.78125,-0.953125 -0.675781,-0.632813 -1.01562475,-1.457031 -1.01562475,-2.46875 0,-0.664063 0.15624975,-1.265625 0.46874975,-1.796875 0.3125,-0.53125 0.757813,-0.929688 1.328125,-1.203125 0.5625,-0.28125 1.203125,-0.421875 1.921875,-0.421875 0.71875,0 1.367188,0.148438 1.9375,0.4375 0.574219,0.292969 1.011719,0.710938 1.3125,1.25 0.292969,0.53125 0.4375,1.109375 0.4375,1.734375 0,0.679687 -0.160156,1.28125 -0.484375,1.8125 -0.332031,0.53125 -0.78125,0.933594 -1.34375,1.203125 -0.5625,0.273438 -1.15625,0.40625 -1.78125,0.40625 z M 3.816406,49.9375 c 0.867188,0 1.546875,-0.234375 2.046875,-0.703125 0.492188,-0.46875 0.734375,-1.050781 0.734375,-1.75 0,-0.707031 -0.25,-1.289063 -0.75,-1.75 -0.5,-0.46875 -1.210937,-0.703125 -2.140625,-0.703125 -0.582031,0 -1.085937,0.101562 -1.515625,0.296875 -0.4375,0.199219 -0.773437,0.492187 -1.015625,0.875 C 0.9375,46.578125 0.816406,47 0.816406,47.46875 c 0,0.679688 0.230469,1.261719 0.6875,1.75 0.460938,0.480469 1.230469,0.71875 2.3125,0.71875 z m 0,0"
       id="path40447" />
    <path
       style="fill:#ffffff;fill-opacity:1;fill-rule:nonzero;stroke:none"
       d="M 7.285156,39.554688 H 6.519531 c 0.59375,0.40625 0.890625,0.960937 0.890625,1.65625 0,0.304687 -0.058594,0.589843 -0.171875,0.859374 -0.125,0.261719 -0.273437,0.460938 -0.453125,0.59375 -0.175781,0.125 -0.394531,0.214844 -0.65625,0.265626 -0.164062,0.03125 -0.4375,0.04687 -0.8125,0.04687 h -3.21875 v -0.875 h 2.875 c 0.460938,0 0.773438,-0.01953 0.9375,-0.0625 0.230469,-0.05078 0.414063,-0.164062 0.546875,-0.34375 0.125,-0.175781 0.1875,-0.398437 0.1875,-0.671874 0,-0.257813 -0.066406,-0.503907 -0.203125,-0.734376 C 6.308594,40.0625 6.125,39.898438 5.894531,39.804688 5.65625,39.703125 5.316406,39.648438 4.878906,39.648438 h -2.78125 v -0.875 h 5.1875 z m 0,0"
       id="path40449" />
    <path
       style="fill:#ffffff;fill-opacity:1;fill-rule:nonzero;stroke:none"
       d="m 6.503906,35.472656 0.765625,-0.125 c 0.050781,0.25 0.078125,0.46875 0.078125,0.65625 0,0.324219 -0.046875,0.574219 -0.140625,0.75 -0.101562,0.179688 -0.238281,0.304688 -0.40625,0.375 -0.164062,0.0625 -0.507812,0.09375 -1.03125,0.09375 H 2.785156 v 0.65625 h -0.6875 v -0.65625 h -1.28125 l -0.53125,-0.859375 h 1.8125 v -0.890625 h 0.6875 v 0.890625 h 3.03125 c 0.25,0 0.414063,-0.01563 0.484375,-0.04687 0.074219,-0.03125 0.132813,-0.08203 0.171875,-0.15625 0.042969,-0.07031 0.0625,-0.171875 0.0625,-0.296875 0,-0.101562 -0.00781,-0.234375 -0.03125,-0.390625 z m 0,0"
       id="path40451" />
    <path
       style="fill:#ffffff;fill-opacity:1;fill-rule:nonzero;stroke:none"
       d="M 9.269531,34.621094 H 2.097656 V 33.824219 H 2.769531 C 2.511719,33.628906 2.316406,33.414062 2.191406,33.183594 c -0.132812,-0.238282 -0.203125,-0.53125 -0.203125,-0.875 0,-0.4375 0.117188,-0.820313 0.34375,-1.15625 0.21875,-0.34375 0.539063,-0.597656 0.953125,-0.765625 0.417969,-0.175781 0.875,-0.265625 1.375,-0.265625 0.523438,0 0.996094,0.09375 1.421875,0.28125 0.429688,0.1875 0.757813,0.464844 0.984375,0.828125 0.226563,0.367187 0.34375,0.746093 0.34375,1.140625 0,0.292968 -0.0625,0.558594 -0.1875,0.796875 -0.125,0.230469 -0.28125,0.421875 -0.46875,0.578125 H 9.269531 Z M 4.722656,33.824219 c 0.667969,0 1.164063,-0.132813 1.484375,-0.40625 0.3125,-0.269531 0.46875,-0.597657 0.46875,-0.984375 0,-0.382813 -0.160156,-0.71875 -0.484375,-1 -0.332031,-0.28125 -0.847656,-0.421875 -1.546875,-0.421875 -0.65625,0 -1.144531,0.136719 -1.46875,0.40625 -0.332031,0.273437 -0.5,0.601562 -0.5,0.984375 0,0.375 0.179688,0.710937 0.53125,1 0.34375,0.28125 0.851563,0.421875 1.515625,0.421875 z m 0,0"
       id="path40453" />
    <path
       style="fill:#ffffff;fill-opacity:1;fill-rule:nonzero;stroke:none"
       d="M 7.285156,25.648438 H 6.519531 c 0.59375,0.40625 0.890625,0.960937 0.890625,1.65625 0,0.304687 -0.058594,0.589843 -0.171875,0.859374 -0.125,0.261719 -0.273437,0.460938 -0.453125,0.59375 -0.175781,0.125 -0.394531,0.214844 -0.65625,0.265626 -0.164062,0.03125 -0.4375,0.04687 -0.8125,0.04687 h -3.21875 v -0.875 h 2.875 c 0.460938,0 0.773438,-0.01953 0.9375,-0.0625 0.230469,-0.05078 0.414063,-0.164062 0.546875,-0.34375 0.125,-0.175781 0.1875,-0.398437 0.1875,-0.671874 0,-0.257813 -0.066406,-0.503907 -0.203125,-0.734376 C 6.308594,26.15625 6.125,25.992188 5.894531,25.898438 5.65625,25.796875 5.316406,25.742188 4.878906,25.742188 h -2.78125 v -0.875 h 5.1875 z m 0,0"
       id="path40455" />
    <path
       style="fill:#ffffff;fill-opacity:1;fill-rule:nonzero;stroke:none"
       d="m 6.503906,21.566406 0.765625,-0.125 c 0.050781,0.25 0.078125,0.46875 0.078125,0.65625 0,0.324219 -0.046875,0.574219 -0.140625,0.75 -0.101562,0.179688 -0.238281,0.304688 -0.40625,0.375 -0.164062,0.0625 -0.507812,0.09375 -1.03125,0.09375 H 2.785156 v 0.65625 h -0.6875 v -0.65625 h -1.28125 l -0.53125,-0.859375 h 1.8125 v -0.890625 h 0.6875 v 0.890625 h 3.03125 c 0.25,0 0.414063,-0.01563 0.484375,-0.04687 0.074219,-0.03125 0.132813,-0.08203 0.171875,-0.15625 0.042969,-0.07031 0.0625,-0.171875 0.0625,-0.296875 0,-0.101562 -0.00781,-0.234375 -0.03125,-0.390625 z m 0,0"
       id="path40457" />
    <path
       style="fill:#ffffff;fill-opacity:1;fill-rule:nonzero;stroke:none"
       d="M 9.269531,17.925781 H 0.128906 v -1.953125 h 0.71875 v 1.0625 h 7.703125 v -1.0625 h 0.71875 z m 0,0"
       id="path40459" />
    <path
       style="fill:#ffffff;fill-opacity:1;fill-rule:nonzero;stroke:none"
       d="m 7.285156,11.792969 h -0.65625 c 0.523438,0.335937 0.78125,0.820312 0.78125,1.453125 0,0.417968 -0.117187,0.804687 -0.34375,1.15625 -0.226562,0.34375 -0.546875,0.609375 -0.953125,0.796875 -0.414062,0.1875 -0.890625,0.28125 -1.421875,0.28125 -0.507812,0 -0.972656,-0.08203 -1.390625,-0.25 -0.425781,-0.175781 -0.75,-0.4375 -0.96875,-0.78125 -0.226562,-0.34375 -0.34375,-0.726563 -0.34375,-1.15625 0,-0.3125 0.070313,-0.585938 0.203125,-0.828125 0.125,-0.25 0.292969,-0.453125 0.5,-0.609375 h -2.5625 v -0.875 h 7.15625 z m -2.59375,2.78125 c 0.667969,0 1.167969,-0.132813 1.5,-0.40625 0.324219,-0.28125 0.484375,-0.613281 0.484375,-1 0,-0.382813 -0.15625,-0.707031 -0.46875,-0.96875 -0.3125,-0.269531 -0.789062,-0.40625 -1.4375,-0.40625 -0.707031,0 -1.226562,0.136719 -1.5625,0.40625 -0.332031,0.273437 -0.5,0.605469 -0.5,1 0,0.398437 0.164063,0.726562 0.484375,0.984375 0.3125,0.261718 0.8125,0.390625 1.5,0.390625 z m 0,0"
       id="path40461" />
    <path
       style="fill:#ffffff;fill-opacity:1;fill-rule:nonzero;stroke:none"
       d="m 7.285156,9.523438 h -7.15625 v -2.6875 c 0,-0.539063 0.074219,-0.976563 0.21875,-1.3125 0.148438,-0.332032 0.371094,-0.59375 0.671875,-0.78125 0.292969,-0.1875 0.605469,-0.28125 0.9375,-0.28125 0.304688,0 0.589844,0.085937 0.859375,0.25 0.273438,0.167968 0.492188,0.417968 0.65625,0.75 0.125,-0.425782 0.34375,-0.753907 0.65625,-0.984376 0.304688,-0.238281 0.664063,-0.359374 1.078125,-0.359374 0.335938,0 0.648438,0.074218 0.9375,0.21875 C 6.4375,4.472656 6.660156,4.644531 6.816406,4.851562 6.972656,5.0625 7.09375,5.328125 7.175781,5.648438 7.25,5.960938 7.285156,6.34375 7.285156,6.789062 Z M 3.128906,8.570312 V 7.023438 c 0,-0.414063 -0.023437,-0.710938 -0.078125,-0.890626 -0.070312,-0.25 -0.191406,-0.429687 -0.359375,-0.546874 -0.164062,-0.125 -0.375,-0.1875 -0.625,-0.1875 -0.238281,0 -0.445312,0.058593 -0.625,0.171874 -0.175781,0.117188 -0.296875,0.28125 -0.359375,0.5 C 1.011719,6.28125 0.972656,6.640625 0.972656,7.148438 v 1.421874 z m 3.3125,0 v -1.78125 c 0,-0.300781 -0.00781,-0.515624 -0.03125,-0.640624 C 6.371094,5.929688 6.300781,5.75 6.207031,5.601562 6.113281,5.457031 5.984375,5.335938 5.816406,5.242188 5.640625,5.148438 5.4375,5.101562 5.207031,5.101562 c -0.257812,0 -0.488281,0.070313 -0.6875,0.203126 C 4.324219,5.441406 4.183594,5.632812 4.097656,5.882812 4.015625,6.125 3.972656,6.472656 3.972656,6.929688 v 1.640624 z m 0,0"
       id="path40463" />
    <path
       style="fill:#ffffff;fill-opacity:1;fill-rule:nonzero;stroke:none"
       d="m 9.269531,1.453125 v 1.9375 h -0.71875 v -1.0625 H 0.847656 v 1.0625 h -0.71875 v -1.9375 z m 0,0"
       id="path40465" />
    <path
       style="fill:#ffffff;fill-opacity:1;fill-rule:nonzero;stroke:none"
       d="m 115.1875,122.55469 v -7.15625 h 4.82813 v 0.84375 H 116.125 v 2.21875 h 3.35938 v 0.84375 H 116.125 v 3.25 z m 0,0"
       id="path40467" />
    <path
       style="fill:#ffffff;fill-opacity:1;fill-rule:nonzero;stroke:none"
       d="m 121.12891,122.55469 v -5.1875 h 0.78125 v 0.78125 c 0.20703,-0.36328 0.39453,-0.60156 0.5625,-0.71875 0.16406,-0.11328 0.35156,-0.17188 0.5625,-0.17188 0.30078,0 0.60156,0.0937 0.90625,0.28125 l -0.29688,0.8125 c -0.21875,-0.125 -0.4375,-0.1875 -0.65625,-0.1875 -0.1875,0 -0.35937,0.0586 -0.51562,0.17188 -0.15625,0.11719 -0.26563,0.27734 -0.32813,0.48437 -0.0937,0.3125 -0.14062,0.65235 -0.14062,1.01563 v 2.71875 z m 0,0"
       id="path40469" />
    <path
       style="fill:#ffffff;fill-opacity:1;fill-rule:nonzero;stroke:none"
       d="m 128.01562,120.88281 0.92188,0.10938 c -0.14844,0.53125 -0.41797,0.94922 -0.8125,1.25 -0.38672,0.29297 -0.875,0.4375 -1.46875,0.4375 -0.76172,0 -1.36719,-0.23438 -1.8125,-0.70313 -0.44922,-0.46875 -0.67187,-1.125 -0.67187,-1.96875 0,-0.875 0.22265,-1.55078 0.67187,-2.03125 0.45703,-0.47656 1.03906,-0.71875 1.75,-0.71875 0.69531,0 1.26563,0.23438 1.70312,0.70313 0.4375,0.46875 0.65625,1.13281 0.65625,1.98437 0,0.0547 0,0.13282 0,0.23438 h -3.85937 c 0.0312,0.57422 0.1875,1.01172 0.46875,1.3125 0.28906,0.30469 0.65625,0.45312 1.09375,0.45312 0.32031,0 0.59766,-0.082 0.82813,-0.25 0.22656,-0.16406 0.40625,-0.4375 0.53124,-0.8125 z m -2.87499,-1.42187 h 2.89062 c -0.043,-0.4375 -0.15234,-0.76563 -0.32812,-0.98438 -0.28125,-0.33203 -0.64844,-0.5 -1.09375,-0.5 -0.40625,0 -0.7461,0.13672 -1.01563,0.40625 -0.27344,0.27344 -0.42187,0.63282 -0.45312,1.07813 z m 0,0"
       id="path40471" />
    <g
       clip-path="url(#clip8)"
       clip-rule="nonzero"
       id="g40475"
       style="fill:#ffffff">
      <path
         style="fill:#ffffff;fill-opacity:1;fill-rule:nonzero;stroke:none"
         d="m 133.34766,124.53906 v -2.53125 c -0.13672,0.1875 -0.32813,0.35157 -0.57813,0.48438 -0.25,0.125 -0.51172,0.1875 -0.78125,0.1875 -0.61719,0 -1.14844,-0.24219 -1.59375,-0.73438 -0.4375,-0.5 -0.65625,-1.17578 -0.65625,-2.03125 0,-0.51953 0.0859,-0.98437 0.26563,-1.39062 0.17578,-0.41406 0.4375,-0.72656 0.78125,-0.9375 0.34375,-0.21875 0.72265,-0.32813 1.14062,-0.32813 0.63281,0 1.13281,0.26563 1.5,0.79688 v -0.6875 h 0.79688 v 7.17187 z m -2.71875,-4.59375 c 0,0.66797 0.14062,1.16797 0.42187,1.5 0.28125,0.33594 0.61719,0.5 1.01563,0.5 0.375,0 0.6914,-0.15625 0.95312,-0.46875 0.26953,-0.32031 0.40625,-0.80468 0.40625,-1.45312 0,-0.6875 -0.14062,-1.20313 -0.42187,-1.54688 -0.28125,-0.35156 -0.61719,-0.53125 -1,-0.53125 -0.38672,0 -0.71485,0.16407 -0.98438,0.48438 -0.26172,0.32422 -0.39062,0.82812 -0.39062,1.51562 z m 0,0"
         id="path40473" />
    </g>
    <path
       style="fill:#ffffff;fill-opacity:1;fill-rule:nonzero;stroke:none"
       d="m 139.00781,122.55469 v -0.76563 c -0.40625,0.59375 -0.96094,0.89063 -1.65625,0.89063 -0.30469,0 -0.58984,-0.0586 -0.85937,-0.17188 -0.26172,-0.125 -0.46094,-0.27343 -0.59375,-0.45312 -0.125,-0.17578 -0.21485,-0.39453 -0.26563,-0.65625 -0.0312,-0.16406 -0.0469,-0.4375 -0.0469,-0.8125 v -3.21875 h 0.875 v 2.875 c 0,0.46094 0.0195,0.77344 0.0625,0.9375 0.0508,0.23047 0.16406,0.41406 0.34375,0.54687 0.17578,0.125 0.39843,0.1875 0.67187,0.1875 0.25781,0 0.50391,-0.0664 0.73438,-0.20312 0.22656,-0.13281 0.39062,-0.31641 0.48437,-0.54688 0.10156,-0.23828 0.15625,-0.57812 0.15625,-1.01562 v -2.78125 h 0.875 v 5.1875 z m 0,0"
       id="path40477" />
    <path
       style="fill:#ffffff;fill-opacity:1;fill-rule:nonzero;stroke:none"
       d="m 144.71484,120.88281 0.92188,0.10938 c -0.14844,0.53125 -0.41797,0.94922 -0.8125,1.25 -0.38672,0.29297 -0.875,0.4375 -1.46875,0.4375 -0.76172,0 -1.36719,-0.23438 -1.8125,-0.70313 -0.44922,-0.46875 -0.67188,-1.125 -0.67188,-1.96875 0,-0.875 0.22266,-1.55078 0.67188,-2.03125 0.45703,-0.47656 1.03906,-0.71875 1.75,-0.71875 0.69531,0 1.26562,0.23438 1.70312,0.70313 0.4375,0.46875 0.65625,1.13281 0.65625,1.98437 0,0.0547 0,0.13282 0,0.23438 h -3.85937 c 0.0312,0.57422 0.1875,1.01172 0.46875,1.3125 0.28906,0.30469 0.65625,0.45312 1.09375,0.45312 0.32031,0 0.59765,-0.082 0.82812,-0.25 0.22657,-0.16406 0.40625,-0.4375 0.53125,-0.8125 z m -2.875,-1.42187 h 2.89063 c -0.043,-0.4375 -0.15235,-0.76563 -0.32813,-0.98438 -0.28125,-0.33203 -0.64843,-0.5 -1.09375,-0.5 -0.40625,0 -0.74609,0.13672 -1.01562,0.40625 -0.27344,0.27344 -0.42188,0.63282 -0.45313,1.07813 z m 0,0"
       id="path40479" />
    <path
       style="fill:#ffffff;fill-opacity:1;fill-rule:nonzero;stroke:none"
       d="m 146.73437,122.55469 v -5.1875 h 0.79688 v 0.73437 c 0.375,-0.5625 0.92187,-0.84375 1.64062,-0.84375 0.3125,0 0.59766,0.0586 0.85938,0.17188 0.26953,0.10547 0.46875,0.25 0.59375,0.4375 0.13281,0.17969 0.22656,0.39062 0.28125,0.64062 0.0312,0.16797 0.0469,0.45313 0.0469,0.85938 v 3.1875 h -0.875 v -3.15625 c 0,-0.35156 -0.0391,-0.61719 -0.10937,-0.79688 -0.0625,-0.17578 -0.18359,-0.3164 -0.35938,-0.42187 -0.17968,-0.11328 -0.38281,-0.17188 -0.60937,-0.17188 -0.375,0 -0.70313,0.1211 -0.98438,0.35938 -0.27343,0.24219 -0.40625,0.69531 -0.40625,1.35937 v 2.82813 z m 0,0"
       id="path40481" />
    <path
       style="fill:#ffffff;fill-opacity:1;fill-rule:nonzero;stroke:none"
       d="m 155.69141,120.64844 0.85937,0.125 c -0.0937,0.59375 -0.33984,1.0625 -0.73437,1.40625 -0.38672,0.33594 -0.85938,0.5 -1.42188,0.5 -0.71094,0 -1.28125,-0.23438 -1.71875,-0.70313 -0.42969,-0.46875 -0.64062,-1.13281 -0.64062,-2 0,-0.55078 0.0937,-1.03515 0.28125,-1.45312 0.1875,-0.42578 0.46875,-0.74219 0.84375,-0.95313 0.375,-0.20703 0.78515,-0.3125 1.23437,-0.3125 0.5625,0 1.01953,0.14063 1.375,0.42188 0.36328,0.28125 0.59766,0.6875 0.70313,1.21875 l -0.85938,0.125 c -0.0859,-0.34375 -0.23047,-0.60156 -0.4375,-0.78125 -0.19922,-0.17578 -0.44922,-0.26563 -0.75,-0.26563 -0.4375,0 -0.79687,0.16407 -1.07812,0.48438 -0.27344,0.3125 -0.40625,0.8125 -0.40625,1.5 0,0.69922 0.1289,1.20312 0.39062,1.51562 0.26953,0.3125 0.61719,0.46875 1.04688,0.46875 0.34375,0 0.6289,-0.10156 0.85937,-0.3125 0.23828,-0.20703 0.39063,-0.53515 0.45313,-0.98437 z m 0,0"
       id="path40483" />
    <g
       clip-path="url(#clip9)"
       clip-rule="nonzero"
       id="g40487"
       style="fill:#ffffff">
      <path
         style="fill:#ffffff;fill-opacity:1;fill-rule:nonzero;stroke:none"
         d="m 157.26953,124.55469 -0.10937,-0.82813 c 0.19531,0.0508 0.36718,0.0781 0.51562,0.0781 0.1875,0 0.33594,-0.0312 0.45313,-0.0937 0.125,-0.0625 0.22265,-0.15625 0.29687,-0.28125 0.0508,-0.0859 0.14063,-0.30469 0.26563,-0.65625 0.0195,-0.043 0.0469,-0.10938 0.0781,-0.20313 l -1.96875,-5.20312 h 0.95313 l 1.07812,3 c 0.13281,0.38672 0.25781,0.78906 0.375,1.20312 0.10156,-0.40625 0.22266,-0.79687 0.35938,-1.17187 l 1.10937,-3.03125 h 0.875 l -1.96875,5.28125 c -0.21094,0.5625 -0.37109,0.95312 -0.48437,1.17187 -0.15625,0.28907 -0.33985,0.50391 -0.54688,0.64063 -0.19922,0.13281 -0.4375,0.20312 -0.71875,0.20312 -0.16797,0 -0.35547,-0.0391 -0.5625,-0.10937 z m 0,0"
         id="path40485" />
    </g>
    <g
       clip-path="url(#clip10)"
       clip-rule="nonzero"
       id="g40491"
       style="fill:#ffffff">
      <path
         style="fill:#ffffff;fill-opacity:1;fill-rule:nonzero;stroke:none"
         d="m 165.08984,124.53906 v -9.14062 h 1.95313 v 0.71875 h -1.0625 v 7.70312 h 1.0625 v 0.71875 z m 0,0"
         id="path40489" />
    </g>
    <path
       style="fill:#ffffff;fill-opacity:1;fill-rule:nonzero;stroke:none"
       d="m 167.94141,122.55469 v -7.15625 h 1.42187 l 1.6875,5.0625 c 0.15625,0.48047 0.26953,0.83594 0.34375,1.0625 0.082,-0.25781 0.20703,-0.64063 0.375,-1.14063 l 1.71875,-4.98437 h 1.28125 v 7.15625 h -0.92187 v -5.98438 l -2.07813,5.98438 h -0.85937 l -2.0625,-6.09375 v 6.09375 z m 0,0"
       id="path40493" />
    <path
       style="fill:#ffffff;fill-opacity:1;fill-rule:nonzero;stroke:none"
       d="m 176.32812,122.55469 v -7.15625 h 0.95313 v 2.9375 H 181 v -2.9375 h 0.95312 v 7.15625 H 181 v -3.375 h -3.71875 v 3.375 z m 0,0"
       id="path40495" />
    <path
       style="fill:#ffffff;fill-opacity:1;fill-rule:nonzero;stroke:none"
       d="m 182.96094,122.55469 v -0.71875 l 3.29687,-3.78125 c -0.375,0.0234 -0.71094,0.0312 -1,0.0312 h -2.10937 v -0.71875 h 4.23437 v 0.57812 l -2.79687,3.29688 -0.54688,0.59375 c 0.39453,-0.0195 0.76563,-0.0312 1.10938,-0.0312 h 2.39062 v 0.75 z m 0,0"
       id="path40497" />
    <g
       clip-path="url(#clip11)"
       clip-rule="nonzero"
       id="g40501"
       style="fill:#ffffff">
      <path
         style="fill:#ffffff;fill-opacity:1;fill-rule:nonzero;stroke:none"
         d="m 189.88281,124.53906 h -1.9375 v -0.71875 h 1.0625 v -7.70312 h -1.0625 v -0.71875 h 1.9375 z m 0,0"
         id="path40499" />
    </g>
    <path
       style="fill:#ffffff;fill-opacity:1;fill-rule:nonzero;stroke:none"
       d="m 173.83203,102.16016 h -0.875 v -5.593754 c -0.21094,0.199219 -0.48437,0.402344 -0.82812,0.609375 -0.34375,0.199219 -0.65235,0.34375 -0.92188,0.4375 v -0.84375 c 0.48828,-0.226562 0.91406,-0.503906 1.28125,-0.828125 0.375,-0.332031 0.63281,-0.65625 0.78125,-0.96875 h 0.5625 z m 0,0"
       id="path40503" />
    <path
       style="fill:#ffffff;fill-opacity:1;fill-rule:nonzero;stroke:none"
       d="m 16.214844,26.371094 h 2.703125 v 0.875 h -2.703125 z m 0,0"
       id="path40505" />
    <path
       style="fill:#ffffff;fill-opacity:1;fill-rule:nonzero;stroke:none"
       d="m 24.210938,23.996094 -0.859376,0.0625 c -0.08594,-0.34375 -0.199218,-0.59375 -0.34375,-0.75 -0.242187,-0.25 -0.53125,-0.375 -0.875,-0.375 -0.28125,0 -0.527343,0.07813 -0.734374,0.234375 -0.28125,0.210937 -0.5,0.507812 -0.65625,0.890625 -0.15625,0.386718 -0.242188,0.9375 -0.25,1.65625 0.207031,-0.320313 0.460937,-0.5625 0.765624,-0.71875 0.3125,-0.15625 0.632813,-0.234375 0.96875,-0.234375 0.59375,0 1.09375,0.21875 1.5,0.65625 0.414063,0.429687 0.625,0.980469 0.625,1.65625 0,0.449219 -0.101562,0.867187 -0.296874,1.25 -0.199219,0.386719 -0.46875,0.683593 -0.8125,0.890625 -0.335938,0.207031 -0.714844,0.3125 -1.140626,0.3125 -0.730468,0 -1.328124,-0.269532 -1.796874,-0.8125 -0.460938,-0.539063 -0.6875,-1.425782 -0.6875,-2.65625 0,-1.382813 0.253906,-2.394532 0.765624,-3.03125 0.445313,-0.539063 1.046876,-0.8125 1.796876,-0.8125 0.570312,0 1.035156,0.164062 1.390624,0.484375 0.363282,0.3125 0.578126,0.746093 0.640626,1.296875 z m -3.578126,3.09375 c 0,0.304687 0.0625,0.59375 0.1875,0.875 0.125,0.273437 0.300782,0.480468 0.53125,0.625 0.238282,0.148437 0.484376,0.21875 0.734376,0.21875 0.375,0 0.691406,-0.148438 0.953124,-0.453125 0.269532,-0.300781 0.40625,-0.707031 0.40625,-1.21875 0,-0.5 -0.136718,-0.890625 -0.40625,-1.171875 -0.261718,-0.289063 -0.589843,-0.4375 -0.984374,-0.4375 -0.398438,0 -0.734376,0.148437 -1.015626,0.4375 -0.273437,0.28125 -0.40625,0.65625 -0.40625,1.125 z m 0,0"
       id="path40507" />
    <path
       style="fill:#ffffff;fill-opacity:1;fill-rule:nonzero;stroke:none"
       d="m 25.230469,25.871094 c 0,-0.84375 0.08203,-1.519532 0.25,-2.03125 0.175781,-0.519532 0.4375,-0.921875 0.78125,-1.203125 0.34375,-0.28125 0.773437,-0.421875 1.296875,-0.421875 0.382812,0 0.71875,0.07813 1,0.234375 0.289062,0.15625 0.53125,0.382812 0.71875,0.671875 0.195312,0.292968 0.347656,0.648437 0.453125,1.0625 0.101562,0.417968 0.15625,0.980468 0.15625,1.6875 0,0.84375 -0.08984,1.527344 -0.265625,2.046875 -0.167969,0.511719 -0.421875,0.90625 -0.765625,1.1875 -0.34375,0.28125 -0.777344,0.421875 -1.296875,0.421875 -0.6875,0 -1.230469,-0.25 -1.625,-0.75 -0.46875,-0.59375 -0.703125,-1.5625 -0.703125,-2.90625 z m 0.890625,0 c 0,1.179687 0.132812,1.964844 0.40625,2.359375 0.28125,0.386719 0.625,0.578125 1.03125,0.578125 0.40625,0 0.742187,-0.191406 1.015625,-0.578125 0.28125,-0.394531 0.421875,-1.179688 0.421875,-2.359375 0,-1.175782 -0.140625,-1.957032 -0.421875,-2.34375 -0.273438,-0.382813 -0.617188,-0.578125 -1.03125,-0.578125 -0.398438,0 -0.71875,0.167969 -0.96875,0.5 -0.304688,0.4375 -0.453125,1.246093 -0.453125,2.421875 z m 0,0"
       id="path40509" />
    <path
       style="fill:#ffffff;fill-opacity:1;fill-rule:nonzero;stroke:none"
       d="m 16.410156,4.15625 h 2.703125 v 0.875 h -2.703125 z m 0,0"
       id="path40511" />
    <path
       style="fill:#ffffff;fill-opacity:1;fill-rule:nonzero;stroke:none"
       d="M 19.859375,5.3125 20.78125,5.234375 C 20.84375,5.683594 21,6.023438 21.25,6.25 c 0.25,0.230469 0.550781,0.34375 0.90625,0.34375 0.414062,0 0.769531,-0.160156 1.0625,-0.484375 0.300781,-0.320313 0.453125,-0.742187 0.453125,-1.265625 0,-0.5 -0.140625,-0.894531 -0.421875,-1.1875 -0.28125,-0.289062 -0.652344,-0.4375 -1.109375,-0.4375 -0.28125,0 -0.539063,0.070312 -0.765625,0.203125 -0.230469,0.125 -0.414062,0.289063 -0.546875,0.484375 l -0.8125,-0.109375 0.6875,-3.671875 h 3.5625 V 0.96875 H 21.40625 L 21.015625,2.890625 C 21.453125,2.589844 21.90625,2.4375 22.375,2.4375 c 0.625,0 1.148438,0.21875 1.578125,0.65625 0.425781,0.429688 0.640625,0.984375 0.640625,1.671875 0,0.648437 -0.1875,1.203125 -0.5625,1.671875 -0.460938,0.585938 -1.085938,0.875 -1.875,0.875 C 21.5,7.3125 20.960938,7.132812 20.546875,6.765625 20.140625,6.402344 19.910156,5.917969 19.859375,5.3125 Z m 0,0"
       id="path40513" />
    <path
       style="fill:#ffffff;fill-opacity:1;fill-rule:nonzero;stroke:none"
       d="m 25.425781,3.65625 c 0,-0.84375 0.08203,-1.519531 0.25,-2.03125 0.175781,-0.519531 0.4375,-0.921875 0.78125,-1.203125 C 26.800781,0.140625 27.230469,0 27.753906,0 c 0.382813,0 0.71875,0.078125 1,0.234375 0.289063,0.15625 0.53125,0.382813 0.71875,0.671875 0.195313,0.292969 0.347656,0.648438 0.453125,1.0625 0.101563,0.417969 0.15625,0.980469 0.15625,1.6875 0,0.84375 -0.08984,1.527344 -0.265625,2.046875 -0.167968,0.511719 -0.421875,0.90625 -0.765625,1.1875 -0.34375,0.28125 -0.777343,0.421875 -1.296875,0.421875 -0.6875,0 -1.230468,-0.25 -1.625,-0.75 C 25.660156,5.96875 25.425781,5 25.425781,3.65625 Z m 0.890625,0 c 0,1.179688 0.132813,1.964844 0.40625,2.359375 0.28125,0.386719 0.625,0.578125 1.03125,0.578125 0.40625,0 0.742188,-0.191406 1.015625,-0.578125 0.28125,-0.394531 0.421875,-1.179687 0.421875,-2.359375 0,-1.175781 -0.140625,-1.957031 -0.421875,-2.34375 -0.273437,-0.382812 -0.617187,-0.578125 -1.03125,-0.578125 -0.398437,0 -0.71875,0.167969 -0.96875,0.5 -0.304687,0.4375 -0.453125,1.246094 -0.453125,2.421875 z m 0,0"
       id="path40515" />
    <path
       style="fill:#ffffff;fill-opacity:1;fill-rule:nonzero;stroke:none"
       d="m 13.96875,70.871094 h 2.703125 v 0.875 H 13.96875 Z m 0,0"
       id="path40517" />
    <path
       style="fill:#ffffff;fill-opacity:1;fill-rule:nonzero;stroke:none"
       d="m 18.761719,70.027344 c -0.367188,-0.132813 -0.636719,-0.328125 -0.8125,-0.578125 -0.179688,-0.25 -0.265625,-0.546875 -0.265625,-0.890625 0,-0.519532 0.1875,-0.957032 0.5625,-1.3125 0.375,-0.351563 0.875,-0.53125 1.5,-0.53125 0.625,0 1.125,0.183594 1.5,0.546875 0.382812,0.367187 0.578125,0.808593 0.578125,1.328125 0,0.335937 -0.08984,0.625 -0.265625,0.875 -0.167969,0.242187 -0.429688,0.429687 -0.78125,0.5625 0.4375,0.136718 0.769531,0.367187 1,0.6875 0.226562,0.324218 0.34375,0.703125 0.34375,1.140625 0,0.617187 -0.21875,1.132812 -0.65625,1.546875 -0.429688,0.417968 -0.996094,0.625 -1.703125,0.625 -0.710938,0 -1.28125,-0.207032 -1.71875,-0.625 -0.429688,-0.425782 -0.640625,-0.953125 -0.640625,-1.578125 0,-0.457031 0.113281,-0.84375 0.34375,-1.15625 0.238281,-0.320313 0.578125,-0.535157 1.015625,-0.640625 z m -0.171875,-1.5 c 0,0.34375 0.109375,0.625 0.328125,0.84375 0.21875,0.210937 0.5,0.3125 0.84375,0.3125 0.34375,0 0.617187,-0.101563 0.828125,-0.3125 0.21875,-0.21875 0.328125,-0.484375 0.328125,-0.796875 0,-0.320313 -0.117188,-0.59375 -0.34375,-0.8125 -0.21875,-0.21875 -0.492188,-0.328125 -0.8125,-0.328125 -0.34375,0 -0.625,0.109375 -0.84375,0.328125 -0.21875,0.210937 -0.328125,0.464843 -0.328125,0.765625 z m -0.28125,3.3125 c 0,0.25 0.05469,0.496094 0.171875,0.734375 0.125,0.230469 0.300781,0.414062 0.53125,0.546875 0.238281,0.125 0.492187,0.1875 0.765625,0.1875 0.414062,0 0.757812,-0.132813 1.03125,-0.40625 0.269531,-0.269532 0.40625,-0.613282 0.40625,-1.03125 0,-0.425782 -0.140625,-0.773438 -0.421875,-1.046875 -0.28125,-0.28125 -0.632813,-0.421875 -1.046875,-0.421875 -0.417969,0 -0.761719,0.136718 -1.03125,0.40625 -0.273438,0.273437 -0.40625,0.617187 -0.40625,1.03125 z m 0,0"
       id="path40519" />
    <path
       style="fill:#ffffff;fill-opacity:1;fill-rule:nonzero;stroke:none"
       d="m 22.984375,70.371094 c 0,-0.84375 0.08203,-1.519532 0.25,-2.03125 0.175781,-0.519532 0.4375,-0.921875 0.78125,-1.203125 0.34375,-0.28125 0.773437,-0.421875 1.296875,-0.421875 0.382812,0 0.71875,0.07813 1,0.234375 0.289062,0.15625 0.53125,0.382812 0.71875,0.671875 0.195312,0.292968 0.347656,0.648437 0.453125,1.0625 0.101563,0.417968 0.15625,0.980468 0.15625,1.6875 0,0.84375 -0.08984,1.527344 -0.265625,2.046875 -0.167969,0.511719 -0.421875,0.90625 -0.765625,1.1875 -0.34375,0.28125 -0.777344,0.421875 -1.296875,0.421875 -0.6875,0 -1.230469,-0.25 -1.625,-0.75 -0.46875,-0.59375 -0.703125,-1.5625 -0.703125,-2.90625 z m 0.890625,0 c 0,1.179687 0.132812,1.964844 0.40625,2.359375 0.28125,0.386719 0.625,0.578125 1.03125,0.578125 0.40625,0 0.742188,-0.191406 1.015625,-0.578125 0.28125,-0.394531 0.421875,-1.179688 0.421875,-2.359375 0,-1.175782 -0.140625,-1.957032 -0.421875,-2.34375 -0.273437,-0.382813 -0.617187,-0.578125 -1.03125,-0.578125 -0.398437,0 -0.71875,0.167969 -0.96875,0.5 -0.304687,0.4375 -0.453125,1.246093 -0.453125,2.421875 z m 0,0"
       id="path40521" />
    <path
       style="fill:#ffffff;fill-opacity:1;fill-rule:nonzero;stroke:none"
       d="m 14.953125,48.660156 h 2.703125 v 0.875 h -2.703125 z m 0,0"
       id="path40523" />
    <path
       style="fill:#ffffff;fill-opacity:1;fill-rule:nonzero;stroke:none"
       d="m 18.449219,45.472656 v -0.84375 h 4.640625 v 0.6875 c -0.460938,0.480469 -0.914063,1.121094 -1.359375,1.921875 -0.449219,0.804688 -0.792969,1.632813 -1.03125,2.484375 -0.179688,0.605469 -0.292969,1.261719 -0.34375,1.96875 h -0.90625 c 0.0078,-0.5625 0.117187,-1.238281 0.328125,-2.03125 0.21875,-0.800781 0.523437,-1.570312 0.921875,-2.3125 0.394531,-0.738281 0.816406,-1.363281 1.265625,-1.875 z m 0,0"
       id="path40525" />
    <path
       style="fill:#ffffff;fill-opacity:1;fill-rule:nonzero;stroke:none"
       d="m 23.96875,48.160156 c 0,-0.84375 0.08203,-1.519531 0.25,-2.03125 0.175781,-0.519531 0.4375,-0.921875 0.78125,-1.203125 0.34375,-0.28125 0.773438,-0.421875 1.296875,-0.421875 0.382813,0 0.71875,0.07813 1,0.234375 0.289063,0.15625 0.53125,0.382813 0.71875,0.671875 0.195313,0.292969 0.347656,0.648438 0.453125,1.0625 0.101562,0.417969 0.15625,0.980469 0.15625,1.6875 0,0.84375 -0.08984,1.527344 -0.265625,2.046875 -0.167969,0.511719 -0.421875,0.90625 -0.765625,1.1875 -0.34375,0.28125 -0.777344,0.421875 -1.296875,0.421875 -0.6875,0 -1.230469,-0.25 -1.625,-0.75 -0.46875,-0.59375 -0.703125,-1.5625 -0.703125,-2.90625 z m 0.890625,0 c 0,1.179688 0.132813,1.964844 0.40625,2.359375 0.28125,0.386719 0.625,0.578125 1.03125,0.578125 0.40625,0 0.742187,-0.191406 1.015625,-0.578125 0.28125,-0.394531 0.421875,-1.179687 0.421875,-2.359375 0,-1.175781 -0.140625,-1.957031 -0.421875,-2.34375 -0.273438,-0.382812 -0.617188,-0.578125 -1.03125,-0.578125 -0.398438,0 -0.71875,0.167969 -0.96875,0.5 -0.304688,0.4375 -0.453125,1.246094 -0.453125,2.421875 z m 0,0"
       id="path40527" />
    <path
       style="fill:#ffffff;fill-opacity:1;fill-rule:nonzero;stroke:none"
       d="m 13.003906,92.125 h 2.703125 V 93 h -2.703125 z m 0,0"
       id="path40545" />
    <path
       style="fill:#ffffff;fill-opacity:1;fill-rule:nonzero;stroke:none"
       d="m 16.578125,93.5 0.84375,-0.07813 c 0.07031,0.398437 0.207031,0.6875 0.40625,0.875 0.207031,0.179687 0.46875,0.265625 0.78125,0.265625 0.269531,0 0.503906,-0.0625 0.703125,-0.1875 0.207031,-0.125 0.375,-0.289062 0.5,-0.5 0.132812,-0.207031 0.242188,-0.484375 0.328125,-0.828125 0.09375,-0.351563 0.140625,-0.710937 0.140625,-1.078125 0,-0.03906 0,-0.101562 0,-0.1875 -0.179688,0.28125 -0.421875,0.511719 -0.734375,0.6875 -0.304687,0.179688 -0.632813,0.265625 -0.984375,0.265625 -0.59375,0 -1.09375,-0.210937 -1.5,-0.640625 -0.40625,-0.4375 -0.609375,-1.003906 -0.609375,-1.703125 0,-0.726563 0.210937,-1.3125 0.640625,-1.75 0.425781,-0.445313 0.960938,-0.671875 1.609375,-0.671875 0.457031,0 0.878906,0.125 1.265625,0.375 0.382812,0.25 0.675781,0.609375 0.875,1.078125 0.207031,0.460937 0.3125,1.132813 0.3125,2.015625 0,0.90625 -0.101562,1.632812 -0.296875,2.171875 -0.199219,0.542969 -0.496094,0.960937 -0.890625,1.25 -0.398438,0.28125 -0.855469,0.421875 -1.375,0.421875 -0.5625,0 -1.023438,-0.15625 -1.375,-0.46875 C 16.863281,94.5 16.648438,94.0625 16.578125,93.5 Z m 3.59375,-3.15625 c 0,-0.507812 -0.136719,-0.910156 -0.40625,-1.203125 -0.261719,-0.289063 -0.578125,-0.4375 -0.953125,-0.4375 -0.398438,0 -0.742188,0.164063 -1.03125,0.484375 -0.292969,0.3125 -0.4375,0.726562 -0.4375,1.234375 0,0.449219 0.132812,0.820313 0.40625,1.109375 0.28125,0.28125 0.625,0.421875 1.03125,0.421875 0.40625,0 0.738281,-0.140625 1,-0.421875 0.257812,-0.289062 0.390625,-0.6875 0.390625,-1.1875 z m 0,0"
       id="path40547" />
    <path
       style="fill:#ffffff;fill-opacity:1;fill-rule:nonzero;stroke:none"
       d="m 22.019531,91.625 c 0,-0.84375 0.08203,-1.519531 0.25,-2.03125 0.175781,-0.519531 0.4375,-0.921875 0.78125,-1.203125 0.34375,-0.28125 0.773438,-0.421875 1.296875,-0.421875 0.382813,0 0.71875,0.07813 1,0.234375 0.289063,0.15625 0.53125,0.382813 0.71875,0.671875 0.195313,0.292969 0.347656,0.648438 0.453125,1.0625 0.101563,0.417969 0.15625,0.980469 0.15625,1.6875 0,0.84375 -0.08984,1.527344 -0.265625,2.046875 -0.167968,0.511719 -0.421875,0.90625 -0.765625,1.1875 -0.34375,0.28125 -0.777343,0.421875 -1.296875,0.421875 -0.6875,0 -1.230468,-0.25 -1.625,-0.75 -0.46875,-0.59375 -0.703125,-1.5625 -0.703125,-2.90625 z m 0.890625,0 c 0,1.179688 0.132813,1.964844 0.40625,2.359375 0.28125,0.386719 0.625,0.578125 1.03125,0.578125 0.40625,0 0.742188,-0.191406 1.015625,-0.578125 0.28125,-0.394531 0.421875,-1.179687 0.421875,-2.359375 0,-1.175781 -0.140625,-1.957031 -0.421875,-2.34375 -0.273437,-0.382812 -0.617187,-0.578125 -1.03125,-0.578125 -0.398437,0 -0.71875,0.167969 -0.96875,0.5 -0.304687,0.4375 -0.453125,1.246094 -0.453125,2.421875 z m 0,0"
       id="path40549" />
    <path
       style="fill:#ffffff;fill-opacity:1;fill-rule:nonzero;stroke:none"
       d="m 232.17578,101.31641 v 0.84375 h -4.73437 c 0,-0.20703 0.0352,-0.41016 0.10937,-0.60938 0.125,-0.32031 0.31641,-0.64062 0.57813,-0.95312 0.25781,-0.3125 0.64453,-0.671879 1.15625,-1.078129 0.76953,-0.644531 1.28906,-1.148437 1.5625,-1.515625 0.28125,-0.375 0.42187,-0.726562 0.42187,-1.0625 0,-0.351562 -0.125,-0.644531 -0.375,-0.875 -0.25,-0.238281 -0.57422,-0.359375 -0.96875,-0.359375 -0.42969,0 -0.77344,0.125 -1.03125,0.375 -0.25,0.25 -0.375,0.601563 -0.375,1.046875 l -0.90625,-0.09375 c 0.0625,-0.664062 0.28906,-1.175781 0.6875,-1.53125 0.40625,-0.351562 0.95313,-0.53125 1.64063,-0.53125 0.6875,0 1.22656,0.195313 1.625,0.578125 0.40625,0.375 0.60937,0.84375 0.60937,1.40625 0,0.292969 -0.0625,0.578125 -0.1875,0.859375 -0.11719,0.273438 -0.30859,0.5625 -0.57812,0.875 -0.27344,0.304688 -0.72657,0.71875 -1.35938,1.25 -0.52344,0.437504 -0.85937,0.742184 -1.01562,0.906254 -0.14844,0.15625 -0.26563,0.3125 -0.35938,0.46875 z m 0,0"
       id="path40595" />
    <path
       style="fill:#ffffff;fill-opacity:1;fill-rule:nonzero;stroke:none"
       d="m 262.87109,100.20703 0.875,-0.10937 c 0.10157,0.49218 0.27344,0.85156 0.51563,1.07812 0.23828,0.21875 0.53515,0.32813 0.89062,0.32813 0.41407,0 0.76563,-0.14063 1.04688,-0.42188 0.28125,-0.28906 0.42187,-0.64844 0.42187,-1.07812 0,-0.406254 -0.13281,-0.738285 -0.39062,-1.000004 -0.26172,-0.257812 -0.59375,-0.390625 -1,-0.390625 -0.16797,0 -0.375,0.03125 -0.625,0.09375 l 0.0937,-0.765625 c 0.0625,0 0.10937,0 0.14062,0 0.375,0 0.71094,-0.09375 1.01563,-0.28125 0.30078,-0.195312 0.45312,-0.5 0.45312,-0.90625 0,-0.320312 -0.10937,-0.585937 -0.32812,-0.796875 -0.21875,-0.21875 -0.5,-0.328125 -0.84375,-0.328125 -0.34375,0 -0.63281,0.109375 -0.85938,0.328125 -0.23047,0.210938 -0.375,0.53125 -0.4375,0.96875 l -0.875,-0.15625 c 0.10157,-0.59375 0.34375,-1.050781 0.71875,-1.375 0.38282,-0.320312 0.85938,-0.484375 1.42188,-0.484375 0.39453,0 0.7539,0.08594 1.07812,0.25 0.33203,0.167969 0.58203,0.398438 0.75,0.6875 0.17578,0.292969 0.26563,0.601563 0.26563,0.921875 0,0.3125 -0.0859,0.59375 -0.25,0.84375 -0.15625,0.25 -0.40235,0.453125 -0.73438,0.609375 0.42578,0.09375 0.75391,0.296875 0.98438,0.609375 0.23828,0.304688 0.35937,0.6875 0.35937,1.15625 0,0.624999 -0.23047,1.156249 -0.6875,1.593749 -0.46093,0.42969 -1.03125,0.64063 -1.71875,0.64063 -0.63672,0 -1.16406,-0.1875 -1.57812,-0.5625 -0.40625,-0.375 -0.64063,-0.85938 -0.70313,-1.45313 z m 0,0"
       id="path40597" />
    <path
       style="fill:#ffffff;fill-opacity:1;fill-rule:nonzero;stroke:none"
       d="m 26.914062,98.566406 c 0,-0.84375 0.08203,-1.519531 0.25,-2.03125 0.175782,-0.519531 0.4375,-0.921875 0.78125,-1.203125 0.34375,-0.28125 0.773438,-0.421875 1.296876,-0.421875 0.382812,0 0.71875,0.07813 1,0.234375 0.289062,0.15625 0.53125,0.382813 0.71875,0.671875 0.195312,0.292969 0.347656,0.648438 0.453124,1.0625 0.101563,0.417969 0.15625,0.980469 0.15625,1.6875 0,0.84375 -0.08984,1.527344 -0.265624,2.046874 -0.167969,0.51172 -0.421876,0.90625 -0.765626,1.1875 -0.34375,0.28125 -0.777343,0.42188 -1.296874,0.42188 -0.6875,0 -1.230469,-0.25 -1.625,-0.75 -0.46875,-0.59375 -0.703126,-1.562504 -0.703126,-2.906254 z m 0.890626,0 c 0,1.179688 0.132812,1.964844 0.40625,2.359374 0.28125,0.38672 0.625,0.57813 1.03125,0.57813 0.40625,0 0.742187,-0.19141 1.015624,-0.57813 0.28125,-0.39453 0.421876,-1.179686 0.421876,-2.359374 0,-1.175781 -0.140626,-1.957031 -0.421876,-2.34375 -0.273437,-0.382812 -0.617187,-0.578125 -1.03125,-0.578125 -0.398437,0 -0.71875,0.167969 -0.96875,0.5 -0.304687,0.4375 -0.453124,1.246094 -0.453124,2.421875 z m 0,0"
       id="path40599" />
    <path
       style="fill:#ffffff;fill-opacity:1;fill-rule:nonzero;stroke:none"
       d="m 32.964844,101.09766 h 1 v 1 h -1 z m 0,0"
       id="path40601" />
    <path
       style="fill:#ffffff;fill-opacity:1;fill-rule:nonzero;stroke:none"
       d="m 39.863281,101.25391 v 0.84375 h -4.734375 c 0,-0.20703 0.03516,-0.41016 0.109375,-0.60938 0.125,-0.32031 0.316407,-0.64062 0.578125,-0.95312 0.257813,-0.3125 0.644532,-0.671879 1.15625,-1.078129 0.769532,-0.644531 1.289063,-1.148437 1.5625,-1.515625 0.28125,-0.375 0.421875,-0.726562 0.421875,-1.0625 0,-0.351562 -0.125,-0.644531 -0.375,-0.875 -0.25,-0.238281 -0.574219,-0.359375 -0.96875,-0.359375 -0.429687,0 -0.773437,0.125 -1.03125,0.375 -0.25,0.25 -0.375,0.601563 -0.375,1.046875 l -0.90625,-0.09375 c 0.0625,-0.664062 0.289063,-1.175781 0.6875,-1.53125 0.40625,-0.351562 0.953125,-0.53125 1.640625,-0.53125 0.6875,0 1.226563,0.195313 1.625,0.578125 0.40625,0.375 0.609375,0.84375 0.609375,1.40625 0,0.292969 -0.0625,0.578125 -0.1875,0.859375 -0.117187,0.273438 -0.308593,0.5625 -0.578125,0.875 -0.273437,0.304688 -0.726562,0.71875 -1.359375,1.25 -0.523437,0.437504 -0.859375,0.742184 -1.015625,0.906254 -0.148437,0.15625 -0.265625,0.3125 -0.359375,0.46875 z m 0,0"
       id="path40603" />
    <path
       style="fill:#ffffff;fill-opacity:1;fill-rule:nonzero;stroke:none"
       d="m 87.160156,98.566406 c 0,-0.84375 0.08203,-1.519531 0.25,-2.03125 0.175782,-0.519531 0.4375,-0.921875 0.78125,-1.203125 0.34375,-0.28125 0.773438,-0.421875 1.296875,-0.421875 0.382813,0 0.71875,0.07813 1,0.234375 0.289063,0.15625 0.53125,0.382813 0.71875,0.671875 0.195313,0.292969 0.347657,0.648438 0.453125,1.0625 0.101563,0.417969 0.15625,0.980469 0.15625,1.6875 0,0.84375 -0.08984,1.527344 -0.265625,2.046874 -0.167969,0.51172 -0.421875,0.90625 -0.765625,1.1875 -0.34375,0.28125 -0.777344,0.42188 -1.296875,0.42188 -0.6875,0 -1.230469,-0.25 -1.625,-0.75 -0.46875,-0.59375 -0.703125,-1.562504 -0.703125,-2.906254 z m 0.890625,0 c 0,1.179688 0.132813,1.964844 0.40625,2.359374 0.28125,0.38672 0.625,0.57813 1.03125,0.57813 0.40625,0 0.742188,-0.19141 1.015625,-0.57813 0.28125,-0.39453 0.421875,-1.179686 0.421875,-2.359374 0,-1.175781 -0.140625,-1.957031 -0.421875,-2.34375 -0.273437,-0.382812 -0.617187,-0.578125 -1.03125,-0.578125 -0.398437,0 -0.71875,0.167969 -0.96875,0.5 -0.304687,0.4375 -0.453125,1.246094 -0.453125,2.421875 z m 0,0"
       id="path40605" />
    <path
       style="fill:#ffffff;fill-opacity:1;fill-rule:nonzero;stroke:none"
       d="m 93.210938,101.09766 h 1 v 1 h -1 z m 0,0"
       id="path40607" />
    <path
       style="fill:#ffffff;fill-opacity:1;fill-rule:nonzero;stroke:none"
       d="m 98.3125,102.09766 v -1.71875 h -3.109375 v -0.796879 l 3.265625,-4.640625 h 0.71875 v 4.640625 h 0.96875 v 0.796879 H 99.1875 v 1.71875 z m 0,-2.515629 v -3.234375 l -2.25,3.234375 z m 0,0"
       id="path40609" />
    <path
       style="fill:#ffffff;fill-opacity:1;fill-rule:nonzero;stroke:none"
       d="m 122.64453,98.566406 c 0,-0.84375 0.082,-1.519531 0.25,-2.03125 0.17578,-0.519531 0.4375,-0.921875 0.78125,-1.203125 0.34375,-0.28125 0.77344,-0.421875 1.29688,-0.421875 0.38281,0 0.71875,0.07813 1,0.234375 0.28906,0.15625 0.53125,0.382813 0.71875,0.671875 0.19531,0.292969 0.34765,0.648438 0.45312,1.0625 0.10156,0.417969 0.15625,0.980469 0.15625,1.6875 0,0.84375 -0.0898,1.527344 -0.26562,2.046874 -0.16797,0.51172 -0.42188,0.90625 -0.76563,1.1875 -0.34375,0.28125 -0.77734,0.42188 -1.29687,0.42188 -0.6875,0 -1.23047,-0.25 -1.625,-0.75 -0.46875,-0.59375 -0.70313,-1.562504 -0.70313,-2.906254 z m 0.89063,0 c 0,1.179688 0.13281,1.964844 0.40625,2.359374 0.28125,0.38672 0.625,0.57813 1.03125,0.57813 0.40625,0 0.74218,-0.19141 1.01562,-0.57813 0.28125,-0.39453 0.42188,-1.179686 0.42188,-2.359374 0,-1.175781 -0.14063,-1.957031 -0.42188,-2.34375 -0.27344,-0.382812 -0.61719,-0.578125 -1.03125,-0.578125 -0.39844,0 -0.71875,0.167969 -0.96875,0.5 -0.30469,0.4375 -0.45312,1.246094 -0.45312,2.421875 z m 0,0"
       id="path40611" />
    <path
       style="fill:#ffffff;fill-opacity:1;fill-rule:nonzero;stroke:none"
       d="m 128.69531,101.09766 h 1 v 1 h -1 z m 0,0"
       id="path40613" />
    <path
       style="fill:#ffffff;fill-opacity:1;fill-rule:nonzero;stroke:none"
       d="m 135.53125,96.691406 -0.85938,0.0625 c -0.0859,-0.34375 -0.19921,-0.59375 -0.34375,-0.75 -0.24218,-0.25 -0.53125,-0.375 -0.875,-0.375 -0.28125,0 -0.52734,0.07813 -0.73437,0.234375 -0.28125,0.210938 -0.5,0.507813 -0.65625,0.890625 -0.15625,0.386719 -0.24219,0.9375 -0.25,1.65625 0.20703,-0.320312 0.46094,-0.5625 0.76562,-0.71875 0.3125,-0.15625 0.63282,-0.234375 0.96875,-0.234375 0.59375,0 1.09375,0.21875 1.5,0.65625 0.41407,0.429688 0.625,0.980469 0.625,1.65625 0,0.449219 -0.10156,0.867189 -0.29687,1.249999 -0.19922,0.38672 -0.46875,0.6836 -0.8125,0.89063 -0.33594,0.20703 -0.71484,0.3125 -1.14063,0.3125 -0.73046,0 -1.32812,-0.26953 -1.79687,-0.8125 -0.46094,-0.53907 -0.6875,-1.425785 -0.6875,-2.656254 0,-1.382812 0.25391,-2.394531 0.76562,-3.03125 0.44532,-0.539062 1.04688,-0.8125 1.79688,-0.8125 0.57031,0 1.03516,0.164063 1.39062,0.484375 0.36329,0.3125 0.57813,0.746094 0.64063,1.296875 z m -3.57813,3.09375 c 0,0.304684 0.0625,0.593754 0.1875,0.875004 0.125,0.27343 0.30079,0.48047 0.53125,0.625 0.23829,0.14843 0.48438,0.21875 0.73438,0.21875 0.375,0 0.69141,-0.14844 0.95312,-0.45313 0.26954,-0.30078 0.40625,-0.70703 0.40625,-1.218749 0,-0.5 -0.13671,-0.890625 -0.40625,-1.171875 -0.26171,-0.289062 -0.58984,-0.4375 -0.98437,-0.4375 -0.39844,0 -0.73438,0.148438 -1.01563,0.4375 -0.27343,0.28125 -0.40625,0.65625 -0.40625,1.125 z m 0,0"
       id="path40615" />
    <path
       style="fill:#ffffff;fill-opacity:1;fill-rule:nonzero;stroke:none"
       d="m 146.42969,98.566406 c 0,-0.84375 0.082,-1.519531 0.25,-2.03125 0.17578,-0.519531 0.4375,-0.921875 0.78125,-1.203125 0.34375,-0.28125 0.77343,-0.421875 1.29687,-0.421875 0.38281,0 0.71875,0.07813 1,0.234375 0.28906,0.15625 0.53125,0.382813 0.71875,0.671875 0.19531,0.292969 0.34766,0.648438 0.45313,1.0625 0.10156,0.417969 0.15625,0.980469 0.15625,1.6875 0,0.84375 -0.0898,1.527344 -0.26563,2.046874 -0.16797,0.51172 -0.42187,0.90625 -0.76562,1.1875 -0.34375,0.28125 -0.77735,0.42188 -1.29688,0.42188 -0.6875,0 -1.23047,-0.25 -1.625,-0.75 -0.46875,-0.59375 -0.70312,-1.562504 -0.70312,-2.906254 z m 0.89062,0 c 0,1.179688 0.13281,1.964844 0.40625,2.359374 0.28125,0.38672 0.625,0.57813 1.03125,0.57813 0.40625,0 0.74219,-0.19141 1.01563,-0.57813 0.28125,-0.39453 0.42187,-1.179686 0.42187,-2.359374 0,-1.175781 -0.14062,-1.957031 -0.42187,-2.34375 -0.27344,-0.382812 -0.61719,-0.578125 -1.03125,-0.578125 -0.39844,0 -0.71875,0.167969 -0.96875,0.5 -0.30469,0.4375 -0.45313,1.246094 -0.45313,2.421875 z m 0,0"
       id="path40617" />
    <path
       style="fill:#ffffff;fill-opacity:1;fill-rule:nonzero;stroke:none"
       d="m 152.48047,101.09766 h 1 v 1 h -1 z m 0,0"
       id="path40619" />
    <path
       style="fill:#ffffff;fill-opacity:1;fill-rule:nonzero;stroke:none"
       d="m 156.11328,98.222656 c -0.36719,-0.132812 -0.63672,-0.328125 -0.8125,-0.578125 -0.17969,-0.25 -0.26562,-0.546875 -0.26562,-0.890625 0,-0.519531 0.1875,-0.957031 0.5625,-1.3125 0.375,-0.351562 0.875,-0.53125 1.5,-0.53125 0.625,0 1.125,0.183594 1.5,0.546875 0.38281,0.367188 0.57812,0.808594 0.57812,1.328125 0,0.335938 -0.0898,0.625 -0.26562,0.875 -0.16797,0.242188 -0.42969,0.429688 -0.78125,0.5625 0.4375,0.136719 0.76953,0.367188 1,0.6875 0.22656,0.324219 0.34375,0.703125 0.34375,1.140624 0,0.61719 -0.21875,1.13281 -0.65625,1.54688 -0.42969,0.41797 -0.9961,0.625 -1.70313,0.625 -0.71094,0 -1.28125,-0.20703 -1.71875,-0.625 -0.42969,-0.42578 -0.64062,-0.95313 -0.64062,-1.57813 0,-0.45703 0.11328,-0.843749 0.34375,-1.156249 0.23828,-0.320312 0.57812,-0.535156 1.01562,-0.640625 z m -0.17187,-1.5 c 0,0.34375 0.10937,0.625 0.32812,0.84375 0.21875,0.210938 0.5,0.3125 0.84375,0.3125 0.34375,0 0.61719,-0.101562 0.82813,-0.3125 0.21875,-0.21875 0.32812,-0.484375 0.32812,-0.796875 0,-0.320312 -0.11719,-0.59375 -0.34375,-0.8125 -0.21875,-0.21875 -0.49219,-0.328125 -0.8125,-0.328125 -0.34375,0 -0.625,0.109375 -0.84375,0.328125 -0.21875,0.210938 -0.32812,0.464844 -0.32812,0.765625 z m -0.28125,3.312504 c 0,0.25 0.0547,0.49609 0.17187,0.73437 0.125,0.23047 0.30078,0.41406 0.53125,0.54688 0.23828,0.125 0.49219,0.1875 0.76563,0.1875 0.41406,0 0.75781,-0.13282 1.03125,-0.40625 0.26953,-0.26953 0.40625,-0.61328 0.40625,-1.03125 0,-0.425785 -0.14063,-0.773441 -0.42188,-1.046879 -0.28125,-0.28125 -0.63281,-0.421875 -1.04687,-0.421875 -0.41797,0 -0.76172,0.136719 -1.03125,0.40625 -0.27344,0.273438 -0.40625,0.617188 -0.40625,1.031254 z m 0,0"
       id="path40621" />
    <path
       style="fill:#ffffff;fill-opacity:1;fill-rule:nonzero;stroke:none"
       d="m 63.515625,98.566406 c 0,-0.84375 0.08203,-1.519531 0.25,-2.03125 0.175781,-0.519531 0.4375,-0.921875 0.78125,-1.203125 0.34375,-0.28125 0.773437,-0.421875 1.296875,-0.421875 0.382812,0 0.71875,0.07813 1,0.234375 0.289062,0.15625 0.53125,0.382813 0.71875,0.671875 0.195312,0.292969 0.347656,0.648438 0.453125,1.0625 0.101563,0.417969 0.15625,0.980469 0.15625,1.6875 0,0.84375 -0.08984,1.527344 -0.265625,2.046874 -0.167969,0.51172 -0.421875,0.90625 -0.765625,1.1875 -0.34375,0.28125 -0.777344,0.42188 -1.296875,0.42188 -0.6875,0 -1.230469,-0.25 -1.625,-0.75 -0.46875,-0.59375 -0.703125,-1.562504 -0.703125,-2.906254 z m 0.890625,0 c 0,1.179688 0.132812,1.964844 0.40625,2.359374 0.28125,0.38672 0.625,0.57813 1.03125,0.57813 0.40625,0 0.742188,-0.19141 1.015625,-0.57813 0.28125,-0.39453 0.421875,-1.179686 0.421875,-2.359374 0,-1.175781 -0.140625,-1.957031 -0.421875,-2.34375 -0.273437,-0.382812 -0.617187,-0.578125 -1.03125,-0.578125 -0.398437,0 -0.71875,0.167969 -0.96875,0.5 -0.304687,0.4375 -0.453125,1.246094 -0.453125,2.421875 z m 0,0"
       id="path40623" />
    <path
       style="fill:#ffffff;fill-opacity:1;fill-rule:nonzero;stroke:none"
       d="m 69.566406,101.09766 h 1 v 1 h -1 z m 0,0"
       id="path40625" />
    <path
       style="fill:#ffffff;fill-opacity:1;fill-rule:nonzero;stroke:none"
       d="m 71.855469,100.20703 0.875,-0.10937 c 0.101562,0.49218 0.273437,0.85156 0.515625,1.07812 0.238281,0.21875 0.535156,0.32813 0.890625,0.32813 0.414062,0 0.765625,-0.14063 1.046875,-0.42188 0.28125,-0.28906 0.421875,-0.64844 0.421875,-1.07812 0,-0.406254 -0.132813,-0.738285 -0.390625,-1.000004 -0.261719,-0.257812 -0.59375,-0.390625 -1,-0.390625 -0.167969,0 -0.375,0.03125 -0.625,0.09375 l 0.09375,-0.765625 c 0.0625,0 0.109375,0 0.140625,0 0.375,0 0.710937,-0.09375 1.015625,-0.28125 0.300781,-0.195312 0.453125,-0.5 0.453125,-0.90625 0,-0.320312 -0.109375,-0.585937 -0.328125,-0.796875 -0.21875,-0.21875 -0.5,-0.328125 -0.84375,-0.328125 -0.34375,0 -0.632813,0.109375 -0.859375,0.328125 -0.230469,0.210938 -0.375,0.53125 -0.4375,0.96875 l -0.875,-0.15625 c 0.101562,-0.59375 0.34375,-1.050781 0.71875,-1.375 0.382812,-0.320312 0.859375,-0.484375 1.421875,-0.484375 0.394531,0 0.753906,0.08594 1.078125,0.25 0.332031,0.167969 0.582031,0.398438 0.75,0.6875 0.175781,0.292969 0.265625,0.601563 0.265625,0.921875 0,0.3125 -0.08594,0.59375 -0.25,0.84375 -0.15625,0.25 -0.402344,0.453125 -0.734375,0.609375 0.425781,0.09375 0.753906,0.296875 0.984375,0.609375 0.238281,0.304688 0.359375,0.6875 0.359375,1.15625 0,0.624999 -0.230469,1.156249 -0.6875,1.593749 -0.460938,0.42969 -1.03125,0.64063 -1.71875,0.64063 -0.636719,0 -1.164063,-0.1875 -1.578125,-0.5625 -0.40625,-0.375 -0.640625,-0.85938 -0.703125,-1.45313 z m 0,0"
       id="path40627" />
    <path
       style="fill:#ffffff;fill-opacity:1;fill-rule:nonzero;stroke:none"
       d="m 171.85937,69.597656 v -1.71875 H 168.75 v -0.796875 l 3.26562,-4.640625 h 0.71875 v 4.640625 h 0.96875 v 0.796875 h -0.96875 v 1.71875 z m 0,-2.515625 v -3.234375 l -2.25,3.234375 z m 0,0"
       id="path40631" />
    <path
       style="fill:#ffffff;fill-opacity:1;fill-rule:nonzero;stroke:none"
       d="m 174.61328,66.066406 c 0,-0.84375 0.082,-1.519531 0.25,-2.03125 0.17578,-0.519531 0.4375,-0.921875 0.78125,-1.203125 0.34375,-0.28125 0.77344,-0.421875 1.29688,-0.421875 0.38281,0 0.71875,0.07813 1,0.234375 0.28906,0.15625 0.53125,0.382813 0.71875,0.671875 0.19531,0.292969 0.34765,0.648438 0.45312,1.0625 0.10156,0.417969 0.15625,0.980469 0.15625,1.6875 0,0.84375 -0.0898,1.527344 -0.26562,2.046875 -0.16797,0.511719 -0.42188,0.90625 -0.76563,1.1875 -0.34375,0.28125 -0.77734,0.421875 -1.29687,0.421875 -0.6875,0 -1.23047,-0.25 -1.625,-0.75 -0.46875,-0.59375 -0.70313,-1.5625 -0.70313,-2.90625 z m 0.89063,0 c 0,1.179688 0.13281,1.964844 0.40625,2.359375 0.28125,0.386719 0.625,0.578125 1.03125,0.578125 0.40625,0 0.74218,-0.191406 1.01562,-0.578125 0.28125,-0.394531 0.42188,-1.179687 0.42188,-2.359375 0,-1.175781 -0.14063,-1.957031 -0.42188,-2.34375 -0.27344,-0.382812 -0.61719,-0.578125 -1.03125,-0.578125 -0.39844,0 -0.71875,0.167969 -0.96875,0.5 -0.30469,0.4375 -0.45312,1.246094 -0.45312,2.421875 z m 0,0"
       id="path40633" />
    <path
       style="fill:#ffffff;fill-opacity:1;fill-rule:nonzero;stroke:none"
       d="m 183.78906,69.597656 v -0.65625 c -0.33594,0.523438 -0.82031,0.78125 -1.45312,0.78125 -0.41797,0 -0.80469,-0.117187 -1.15625,-0.34375 -0.34375,-0.226562 -0.60938,-0.546875 -0.79688,-0.953125 -0.1875,-0.414062 -0.28125,-0.890625 -0.28125,-1.421875 0,-0.507812 0.082,-0.972656 0.25,-1.390625 0.17578,-0.425781 0.4375,-0.75 0.78125,-0.96875 0.34375,-0.226562 0.72656,-0.34375 1.15625,-0.34375 0.3125,0 0.58594,0.07031 0.82813,0.203125 0.25,0.125 0.45312,0.292969 0.60937,0.5 v -2.5625 h 0.875 v 7.15625 z m -2.78125,-2.59375 c 0,0.667969 0.13281,1.167969 0.40625,1.5 0.28125,0.324219 0.61328,0.484375 1,0.484375 0.38281,0 0.70703,-0.15625 0.96875,-0.46875 0.26953,-0.3125 0.40625,-0.789062 0.40625,-1.4375 0,-0.707031 -0.13672,-1.226562 -0.40625,-1.5625 -0.27344,-0.332031 -0.60547,-0.5 -1,-0.5 -0.39844,0 -0.72656,0.164063 -0.98437,0.484375 -0.26172,0.3125 -0.39063,0.8125 -0.39063,1.5 z m 0,0"
       id="path40635" />
    <path
       style="fill:#ffffff;fill-opacity:1;fill-rule:nonzero;stroke:none"
       d="m 186.05859,69.597656 v -7.15625 h 2.6875 c 0.53907,0 0.97657,0.07422 1.3125,0.21875 0.33203,0.148438 0.59375,0.371094 0.78125,0.671875 0.1875,0.292969 0.28125,0.605469 0.28125,0.9375 0,0.304688 -0.0859,0.589844 -0.25,0.859375 -0.16797,0.273438 -0.41797,0.492188 -0.75,0.65625 0.42578,0.125 0.75391,0.34375 0.98438,0.65625 0.23828,0.304688 0.35937,0.664063 0.35937,1.078125 0,0.335938 -0.0742,0.648438 -0.21875,0.9375 -0.13672,0.292969 -0.30859,0.515625 -0.51562,0.671875 -0.21094,0.15625 -0.47656,0.277344 -0.79688,0.359375 -0.3125,0.07422 -0.69531,0.109375 -1.14062,0.109375 z m 0.95313,-4.15625 h 1.54687 c 0.41407,0 0.71094,-0.02344 0.89063,-0.07813 0.25,-0.07031 0.42969,-0.191406 0.54687,-0.359375 0.125,-0.164062 0.1875,-0.375 0.1875,-0.625 0,-0.238281 -0.0586,-0.445312 -0.17187,-0.625 -0.11719,-0.175781 -0.28125,-0.296875 -0.5,-0.359375 -0.21094,-0.07031 -0.57031,-0.109375 -1.07813,-0.109375 h -1.42187 z m 0,3.3125 h 1.78125 c 0.30078,0 0.51562,-0.0078 0.64062,-0.03125 0.21875,-0.03906 0.39844,-0.109375 0.54688,-0.203125 0.14453,-0.09375 0.26562,-0.222656 0.35937,-0.390625 0.0937,-0.175781 0.14063,-0.378906 0.14063,-0.609375 0,-0.257812 -0.0703,-0.488281 -0.20313,-0.6875 -0.13672,-0.195312 -0.32812,-0.335937 -0.57812,-0.421875 -0.24219,-0.08203 -0.58985,-0.125 -1.04688,-0.125 h -1.64062 z m 0,0"
       id="path40637" />
    <path
       style="fill:#ffffff;fill-opacity:1;fill-rule:nonzero;stroke:none"
       d="m 192.00391,69.722656 2.07812,-7.40625 h 0.70313 l -2.07813,7.40625 z m 0,0"
       id="path40639" />
    <path
       style="fill:#ffffff;fill-opacity:1;fill-rule:nonzero;stroke:none"
       d="m 195.54297,69.597656 v -7.15625 h 2.46875 c 0.5625,0 0.98828,0.03125 1.28125,0.09375 0.40625,0.09375 0.7539,0.265625 1.04687,0.515625 0.375,0.324219 0.65625,0.734375 0.84375,1.234375 0.1875,0.492188 0.28125,1.054688 0.28125,1.6875 0,0.554688 -0.0625,1.039063 -0.1875,1.453125 -0.125,0.417969 -0.28906,0.765625 -0.48437,1.046875 -0.19922,0.273438 -0.41797,0.484375 -0.65625,0.640625 -0.24219,0.15625 -0.52735,0.277344 -0.85938,0.359375 -0.33593,0.08594 -0.71484,0.125 -1.14062,0.125 z m 0.95312,-0.84375 h 1.53125 c 0.46875,0 0.83594,-0.03906 1.10938,-0.125 0.26953,-0.09375 0.48437,-0.21875 0.64062,-0.375 0.22657,-0.226562 0.40625,-0.53125 0.53125,-0.90625 0.125,-0.382812 0.1875,-0.847656 0.1875,-1.390625 0,-0.738281 -0.125,-1.3125 -0.375,-1.71875 -0.25,-0.40625 -0.54687,-0.675781 -0.89062,-0.8125 -0.26172,-0.09375 -0.67188,-0.140625 -1.23438,-0.140625 h -1.5 z m 0,0"
       id="path40641" />
    <path
       style="fill:#ffffff;fill-opacity:1;fill-rule:nonzero;stroke:none"
       d="m 206.20703,67.925781 0.92188,0.109375 c -0.14844,0.53125 -0.41797,0.949219 -0.8125,1.25 -0.38672,0.292969 -0.875,0.4375 -1.46875,0.4375 -0.76172,0 -1.36719,-0.234375 -1.8125,-0.703125 -0.44922,-0.46875 -0.67188,-1.125 -0.67188,-1.96875 0,-0.875 0.22266,-1.550781 0.67188,-2.03125 0.45703,-0.476562 1.03906,-0.71875 1.75,-0.71875 0.69531,0 1.26562,0.234375 1.70312,0.703125 0.4375,0.46875 0.65625,1.132813 0.65625,1.984375 0,0.05469 0,0.132813 0,0.234375 h -3.85937 c 0.0312,0.574219 0.1875,1.011719 0.46875,1.3125 0.28906,0.304688 0.65625,0.453125 1.09375,0.453125 0.32031,0 0.59765,-0.08203 0.82812,-0.25 0.22656,-0.164062 0.40625,-0.4375 0.53125,-0.8125 z m -2.875,-1.421875 h 2.89063 c -0.043,-0.4375 -0.15235,-0.765625 -0.32813,-0.984375 -0.28125,-0.332031 -0.64844,-0.5 -1.09375,-0.5 -0.40625,0 -0.74609,0.136719 -1.01562,0.40625 -0.27344,0.273438 -0.42188,0.632813 -0.45313,1.078125 z m 0,0"
       id="path40643" />
    <path
       style="fill:#ffffff;fill-opacity:1;fill-rule:nonzero;stroke:none"
       d="m 211.61719,67.691406 0.85937,0.125 c -0.0937,0.59375 -0.33984,1.0625 -0.73437,1.40625 -0.38672,0.335938 -0.85938,0.5 -1.42188,0.5 -0.71094,0 -1.28125,-0.234375 -1.71875,-0.703125 -0.42969,-0.46875 -0.64062,-1.132812 -0.64062,-2 0,-0.550781 0.0937,-1.035156 0.28125,-1.453125 0.1875,-0.425781 0.46875,-0.742187 0.84375,-0.953125 0.375,-0.207031 0.78515,-0.3125 1.23437,-0.3125 0.5625,0 1.01953,0.140625 1.375,0.421875 0.36328,0.28125 0.59766,0.6875 0.70313,1.21875 l -0.85938,0.125 c -0.0859,-0.34375 -0.23047,-0.601562 -0.4375,-0.78125 -0.19922,-0.175781 -0.44922,-0.265625 -0.75,-0.265625 -0.4375,0 -0.79687,0.164063 -1.07812,0.484375 -0.27344,0.3125 -0.40625,0.8125 -0.40625,1.5 0,0.699219 0.1289,1.203125 0.39062,1.515625 0.26953,0.3125 0.61719,0.46875 1.04688,0.46875 0.34375,0 0.6289,-0.101562 0.85937,-0.3125 0.23828,-0.207031 0.39063,-0.535156 0.45313,-0.984375 z m 0,0"
       id="path40645" />
  </g>
</svg>
