<?xml version="1.0" encoding="UTF-8"?>
<svg xmlns="http://www.w3.org/2000/svg" xmlns:xlink="http://www.w3.org/1999/xlink" width="307.160339pt" height="139.586075pt" viewBox="0 0 307.160339 139.586075" version="1.1">
<defs>
<clipPath id="clip1">
  <path d="M 164 130 L 167 130 L 167 139.585938 L 164 139.585938 Z M 164 130 "/>
</clipPath>
<clipPath id="clip2">
  <path d="M 179 130 L 182 130 L 182 139.585938 L 179 139.585938 Z M 179 130 "/>
</clipPath>
<clipPath id="clip3">
  <path d="M 302 113 L 307.160156 113 L 307.160156 121 L 302 121 Z M 302 113 "/>
</clipPath>
</defs>
<g id="surface1">
<path style=" stroke:none;fill-rule:nonzero;fill:rgb(0%,0%,0%);fill-opacity:1;" d="M 6.519531 110.03125 C 6.820312 109.59375 7.042969 109.1875 7.183594 108.816406 L 7.839844 109.09375 C 7.65625 109.609375 7.363281 110.121094 6.960938 110.632812 C 7.257812 111.164062 7.40625 111.75 7.40625 112.390625 C 7.40625 113.039062 7.25 113.625 6.9375 114.152344 C 6.625 114.679688 6.1875 115.085938 5.621094 115.375 C 5.054688 115.65625 4.414062 115.796875 3.707031 115.796875 C 3 115.796875 2.355469 115.65625 1.777344 115.367188 C 1.199219 115.082031 0.757812 114.675781 0.453125 114.148438 C 0.152344 113.617188 0 113.023438 0 112.371094 C 0 111.710938 0.15625 111.113281 0.472656 110.582031 C 0.785156 110.050781 1.226562 109.648438 1.792969 109.371094 C 2.355469 109.09375 2.992188 108.953125 3.699219 108.953125 C 4.289062 108.953125 4.820312 109.042969 5.292969 109.222656 C 5.761719 109.398438 6.171875 109.671875 6.519531 110.03125 Z M 5.308594 112.117188 C 5.460938 111.570312 5.6875 111.117188 5.992188 110.765625 C 5.484375 110.207031 4.71875 109.929688 3.699219 109.929688 C 3.121094 109.929688 2.617188 110.027344 2.183594 110.226562 C 1.75 110.421875 1.414062 110.710938 1.175781 111.089844 C 0.9375 111.46875 0.816406 111.894531 0.816406 112.367188 C 0.816406 113.070312 1.058594 113.65625 1.542969 114.125 C 2.023438 114.589844 2.746094 114.820312 3.707031 114.820312 C 4.636719 114.820312 5.351562 114.59375 5.847656 114.132812 C 6.347656 113.671875 6.597656 113.082031 6.597656 112.367188 C 6.597656 112.027344 6.53125 111.707031 6.40625 111.410156 C 6.214844 111.703125 6.078125 112.015625 5.996094 112.347656 Z M 5.308594 112.117188 "/>
<path style=" stroke:none;fill-rule:nonzero;fill:rgb(0%,0%,0%);fill-opacity:1;" d="M 7.285156 104.398438 L 6.523438 104.398438 C 7.109375 104.800781 7.402344 105.347656 7.402344 106.042969 C 7.402344 106.347656 7.34375 106.632812 7.226562 106.902344 C 7.109375 107.164062 6.960938 107.363281 6.785156 107.492188 C 6.609375 107.621094 6.390625 107.707031 6.132812 107.761719 C 5.960938 107.796875 5.6875 107.816406 5.3125 107.816406 L 2.097656 107.816406 L 2.097656 106.9375 L 4.976562 106.9375 C 5.433594 106.9375 5.742188 106.917969 5.902344 106.882812 C 6.132812 106.828125 6.316406 106.710938 6.449219 106.53125 C 6.582031 106.351562 6.644531 106.128906 6.644531 105.867188 C 6.644531 105.601562 6.578125 105.355469 6.445312 105.125 C 6.308594 104.894531 6.125 104.730469 5.894531 104.636719 C 5.660156 104.539062 5.320312 104.488281 4.878906 104.488281 L 2.097656 104.488281 L 2.097656 103.609375 L 7.285156 103.609375 Z M 7.285156 104.398438 "/>
<path style=" stroke:none;fill-rule:nonzero;fill:rgb(0%,0%,0%);fill-opacity:1;" d="M 6.644531 98.84375 C 6.921875 99.171875 7.117188 99.484375 7.230469 99.789062 C 7.34375 100.085938 7.402344 100.410156 7.402344 100.753906 C 7.402344 101.324219 7.265625 101.761719 6.988281 102.066406 C 6.707031 102.375 6.351562 102.527344 5.917969 102.527344 C 5.664062 102.527344 5.433594 102.46875 5.222656 102.355469 C 5.011719 102.238281 4.84375 102.085938 4.714844 101.902344 C 4.589844 101.710938 4.492188 101.5 4.429688 101.265625 C 4.382812 101.09375 4.339844 100.832031 4.296875 100.484375 C 4.210938 99.777344 4.109375 99.253906 3.992188 98.917969 C 3.875 98.914062 3.796875 98.914062 3.765625 98.914062 C 3.40625 98.914062 3.152344 98.996094 3.007812 99.164062 C 2.808594 99.386719 2.710938 99.722656 2.710938 100.164062 C 2.710938 100.578125 2.78125 100.882812 2.929688 101.082031 C 3.074219 101.277344 3.328125 101.421875 3.695312 101.515625 L 3.578125 102.375 C 3.210938 102.296875 2.914062 102.167969 2.691406 101.988281 C 2.460938 101.8125 2.289062 101.550781 2.167969 101.214844 C 2.042969 100.875 1.980469 100.484375 1.980469 100.035156 C 1.980469 99.59375 2.035156 99.234375 2.140625 98.957031 C 2.242188 98.679688 2.375 98.476562 2.535156 98.347656 C 2.691406 98.21875 2.890625 98.125 3.128906 98.074219 C 3.28125 98.042969 3.550781 98.03125 3.941406 98.03125 L 5.113281 98.03125 C 5.929688 98.03125 6.445312 98.011719 6.664062 97.976562 C 6.878906 97.9375 7.085938 97.863281 7.285156 97.75 L 7.285156 98.667969 C 7.101562 98.761719 6.890625 98.820312 6.644531 98.84375 Z M 4.683594 98.917969 C 4.8125 99.238281 4.921875 99.714844 5.015625 100.355469 C 5.066406 100.714844 5.125 100.96875 5.191406 101.121094 C 5.253906 101.269531 5.351562 101.386719 5.476562 101.46875 C 5.601562 101.546875 5.742188 101.589844 5.894531 101.589844 C 6.128906 101.589844 6.324219 101.5 6.480469 101.324219 C 6.636719 101.144531 6.714844 100.886719 6.714844 100.542969 C 6.714844 100.207031 6.640625 99.90625 6.492188 99.640625 C 6.34375 99.378906 6.140625 99.183594 5.882812 99.058594 C 5.683594 98.964844 5.390625 98.917969 5.003906 98.917969 Z M 4.683594 98.917969 "/>
<path style=" stroke:none;fill-rule:nonzero;fill:rgb(0%,0%,0%);fill-opacity:1;" d="M 7.285156 96.664062 L 2.097656 96.664062 L 2.097656 95.871094 L 2.835938 95.871094 C 2.265625 95.492188 1.980469 94.941406 1.980469 94.222656 C 1.980469 93.910156 2.039062 93.621094 2.152344 93.363281 C 2.265625 93.097656 2.410156 92.902344 2.59375 92.769531 C 2.773438 92.640625 2.992188 92.550781 3.242188 92.496094 C 3.40625 92.464844 3.691406 92.449219 4.097656 92.449219 L 7.285156 92.449219 L 7.285156 93.328125 L 4.128906 93.328125 C 3.773438 93.328125 3.503906 93.363281 3.328125 93.429688 C 3.152344 93.5 3.007812 93.621094 2.90625 93.796875 C 2.796875 93.96875 2.742188 94.171875 2.742188 94.40625 C 2.742188 94.78125 2.863281 95.105469 3.101562 95.378906 C 3.339844 95.648438 3.789062 95.785156 4.453125 95.785156 L 7.285156 95.785156 Z M 7.285156 96.664062 "/>
<path style=" stroke:none;fill-rule:nonzero;fill:rgb(0%,0%,0%);fill-opacity:1;" d="M 6.5 89.175781 L 7.277344 89.050781 C 7.328125 89.296875 7.355469 89.519531 7.355469 89.714844 C 7.355469 90.03125 7.304688 90.28125 7.203125 90.457031 C 7.101562 90.632812 6.96875 90.753906 6.808594 90.828125 C 6.640625 90.898438 6.292969 90.933594 5.765625 90.933594 L 2.785156 90.933594 L 2.785156 91.578125 L 2.101562 91.578125 L 2.101562 90.933594 L 0.816406 90.933594 L 0.289062 90.0625 L 2.101562 90.0625 L 2.101562 89.175781 L 2.785156 89.175781 L 2.785156 90.0625 L 5.816406 90.0625 C 6.066406 90.0625 6.226562 90.046875 6.300781 90.015625 C 6.371094 89.984375 6.425781 89.933594 6.46875 89.867188 C 6.511719 89.792969 6.535156 89.691406 6.535156 89.5625 C 6.535156 89.464844 6.523438 89.335938 6.5 89.175781 Z M 6.5 89.175781 "/>
<path style=" stroke:none;fill-rule:nonzero;fill:rgb(0%,0%,0%);fill-opacity:1;" d="M 1.136719 88.316406 L 0.125 88.316406 L 0.125 87.4375 L 1.136719 87.4375 Z M 7.285156 88.316406 L 2.097656 88.316406 L 2.097656 87.4375 L 7.285156 87.4375 Z M 7.285156 88.316406 "/>
<path style=" stroke:none;fill-rule:nonzero;fill:rgb(0%,0%,0%);fill-opacity:1;" d="M 7.285156 86.558594 L 6.570312 86.558594 L 2.78125 83.257812 C 2.800781 83.632812 2.8125 83.964844 2.8125 84.25 L 2.8125 86.363281 L 2.097656 86.363281 L 2.097656 82.125 L 2.679688 82.125 L 5.972656 84.933594 L 6.570312 85.476562 C 6.542969 85.082031 6.527344 84.710938 6.527344 84.367188 L 6.527344 81.96875 L 7.285156 81.96875 Z M 7.285156 86.558594 "/>
<path style=" stroke:none;fill-rule:nonzero;fill:rgb(0%,0%,0%);fill-opacity:1;" d="M 5.613281 77.546875 L 5.726562 76.636719 C 6.257812 76.78125 6.667969 77.046875 6.960938 77.433594 C 7.253906 77.820312 7.402344 78.316406 7.402344 78.917969 C 7.402344 79.675781 7.167969 80.277344 6.703125 80.726562 C 6.234375 81.167969 5.578125 81.390625 4.734375 81.390625 C 3.863281 81.390625 3.1875 81.164062 2.703125 80.714844 C 2.222656 80.265625 1.980469 79.683594 1.980469 78.96875 C 1.980469 78.273438 2.21875 77.707031 2.691406 77.269531 C 3.164062 76.828125 3.828125 76.609375 4.683594 76.609375 C 4.734375 76.609375 4.8125 76.609375 4.917969 76.613281 L 4.917969 80.480469 C 5.488281 80.449219 5.921875 80.285156 6.226562 79.996094 C 6.527344 79.707031 6.679688 79.347656 6.679688 78.914062 C 6.679688 78.589844 6.59375 78.316406 6.425781 78.089844 C 6.257812 77.859375 5.984375 77.679688 5.613281 77.546875 Z M 4.195312 80.433594 L 4.195312 77.535156 C 3.757812 77.574219 3.429688 77.6875 3.210938 77.867188 C 2.875 78.148438 2.703125 78.511719 2.703125 78.957031 C 2.703125 79.359375 2.839844 79.699219 3.109375 79.976562 C 3.378906 80.25 3.742188 80.402344 4.195312 80.433594 Z M 4.195312 80.433594 "/>
<path style=" stroke:none;fill-rule:nonzero;fill:rgb(0%,0%,0%);fill-opacity:1;" d="M 7.285156 72.164062 L 6.628906 72.164062 C 7.144531 72.492188 7.402344 72.976562 7.402344 73.617188 C 7.402344 74.027344 7.289062 74.410156 7.058594 74.757812 C 6.832031 75.101562 6.515625 75.371094 6.109375 75.5625 C 5.699219 75.753906 5.226562 75.847656 4.695312 75.847656 C 4.179688 75.847656 3.710938 75.761719 3.292969 75.589844 C 2.867188 75.414062 2.542969 75.15625 2.320312 74.8125 C 2.09375 74.464844 1.980469 74.082031 1.980469 73.65625 C 1.980469 73.34375 2.050781 73.0625 2.183594 72.820312 C 2.3125 72.574219 2.484375 72.375 2.695312 72.222656 L 0.125 72.222656 L 0.125 71.351562 L 7.285156 71.351562 Z M 4.695312 74.945312 C 5.359375 74.945312 5.859375 74.804688 6.1875 74.523438 C 6.515625 74.242188 6.679688 73.914062 6.679688 73.53125 C 6.679688 73.148438 6.523438 72.824219 6.210938 72.554688 C 5.894531 72.285156 5.414062 72.152344 4.769531 72.152344 C 4.0625 72.152344 3.539062 72.289062 3.207031 72.5625 C 2.875 72.835938 2.710938 73.171875 2.710938 73.570312 C 2.710938 73.960938 2.871094 74.289062 3.1875 74.554688 C 3.507812 74.8125 4.011719 74.945312 4.695312 74.945312 Z M 4.695312 74.945312 "/>
<path style=" stroke:none;fill-rule:nonzero;fill:rgb(0%,0%,0%);fill-opacity:1;" d="M 7.285156 67.0625 L 0.125 67.0625 L 0.125 63.890625 C 0.125 63.25 0.191406 62.765625 0.320312 62.433594 C 0.449219 62.101562 0.675781 61.835938 1 61.636719 C 1.328125 61.4375 1.6875 61.339844 2.078125 61.339844 C 2.585938 61.339844 3.015625 61.503906 3.363281 61.832031 C 3.710938 62.160156 3.933594 62.667969 4.027344 63.355469 C 4.148438 63.105469 4.265625 62.914062 4.382812 62.785156 C 4.636719 62.507812 4.957031 62.246094 5.335938 62 L 7.285156 60.753906 L 7.285156 61.945312 L 5.796875 62.894531 C 5.367188 63.167969 5.039062 63.398438 4.808594 63.578125 C 4.582031 63.753906 4.421875 63.917969 4.332031 64.058594 C 4.238281 64.199219 4.175781 64.34375 4.140625 64.488281 C 4.117188 64.597656 4.105469 64.773438 4.105469 65.015625 L 4.105469 66.117188 L 7.285156 66.117188 Z M 3.285156 66.117188 L 3.285156 64.078125 C 3.285156 63.644531 3.242188 63.308594 3.152344 63.0625 C 3.0625 62.820312 2.917969 62.632812 2.722656 62.507812 C 2.527344 62.378906 2.3125 62.316406 2.078125 62.316406 C 1.742188 62.316406 1.464844 62.441406 1.246094 62.6875 C 1.027344 62.933594 0.917969 63.320312 0.917969 63.851562 L 0.917969 66.117188 Z M 3.285156 66.117188 "/>
<path style=" stroke:none;fill-rule:nonzero;fill:rgb(0%,0%,0%);fill-opacity:1;" d="M 5.613281 56.414062 L 5.726562 55.503906 C 6.257812 55.648438 6.667969 55.914062 6.960938 56.300781 C 7.253906 56.6875 7.402344 57.183594 7.402344 57.785156 C 7.402344 58.542969 7.167969 59.144531 6.703125 59.59375 C 6.234375 60.035156 5.578125 60.257812 4.734375 60.257812 C 3.863281 60.257812 3.1875 60.03125 2.703125 59.582031 C 2.222656 59.132812 1.980469 58.550781 1.980469 57.835938 C 1.980469 57.140625 2.21875 56.574219 2.691406 56.136719 C 3.164062 55.695312 3.828125 55.476562 4.683594 55.476562 C 4.734375 55.476562 4.8125 55.476562 4.917969 55.480469 L 4.917969 59.347656 C 5.488281 59.316406 5.921875 59.152344 6.226562 58.863281 C 6.527344 58.574219 6.679688 58.214844 6.679688 57.78125 C 6.679688 57.457031 6.59375 57.183594 6.425781 56.957031 C 6.257812 56.726562 5.984375 56.546875 5.613281 56.414062 Z M 4.195312 59.300781 L 4.195312 56.402344 C 3.757812 56.441406 3.429688 56.554688 3.210938 56.734375 C 2.875 57.015625 2.703125 57.378906 2.703125 57.824219 C 2.703125 58.226562 2.839844 58.566406 3.109375 58.84375 C 3.378906 59.117188 3.742188 59.269531 4.195312 59.300781 Z M 4.195312 59.300781 "/>
<path style=" stroke:none;fill-rule:nonzero;fill:rgb(0%,0%,0%);fill-opacity:1;" d="M 5.738281 54.75 L 5.601562 53.878906 C 5.949219 53.832031 6.214844 53.695312 6.402344 53.472656 C 6.585938 53.25 6.679688 52.9375 6.679688 52.535156 C 6.679688 52.132812 6.597656 51.832031 6.433594 51.636719 C 6.269531 51.441406 6.074219 51.34375 5.855469 51.34375 C 5.65625 51.34375 5.5 51.429688 5.386719 51.605469 C 5.308594 51.722656 5.207031 52.023438 5.085938 52.503906 C 4.925781 53.148438 4.785156 53.59375 4.667969 53.84375 C 4.546875 54.09375 4.382812 54.28125 4.175781 54.410156 C 3.964844 54.539062 3.730469 54.601562 3.476562 54.601562 C 3.246094 54.601562 3.03125 54.550781 2.835938 54.445312 C 2.636719 54.339844 2.472656 54.191406 2.34375 54.011719 C 2.242188 53.875 2.15625 53.6875 2.089844 53.453125 C 2.019531 53.214844 1.980469 52.960938 1.980469 52.691406 C 1.980469 52.285156 2.039062 51.929688 2.15625 51.625 C 2.273438 51.3125 2.433594 51.085938 2.636719 50.941406 C 2.835938 50.792969 3.101562 50.691406 3.4375 50.636719 L 3.554688 51.496094 C 3.289062 51.535156 3.078125 51.648438 2.929688 51.839844 C 2.78125 52.023438 2.703125 52.289062 2.703125 52.628906 C 2.703125 53.03125 2.773438 53.320312 2.90625 53.492188 C 3.039062 53.664062 3.195312 53.753906 3.375 53.753906 C 3.488281 53.753906 3.589844 53.714844 3.679688 53.644531 C 3.777344 53.574219 3.855469 53.460938 3.917969 53.308594 C 3.949219 53.21875 4.023438 52.960938 4.140625 52.53125 C 4.304688 51.910156 4.441406 51.476562 4.550781 51.234375 C 4.65625 50.984375 4.808594 50.792969 5.007812 50.652344 C 5.210938 50.511719 5.460938 50.441406 5.761719 50.441406 C 6.054688 50.441406 6.332031 50.527344 6.589844 50.699219 C 6.847656 50.871094 7.050781 51.117188 7.191406 51.4375 C 7.332031 51.761719 7.402344 52.125 7.402344 52.53125 C 7.402344 53.207031 7.261719 53.71875 6.980469 54.074219 C 6.703125 54.425781 6.289062 54.652344 5.738281 54.75 Z M 5.738281 54.75 "/>
<path style=" stroke:none;fill-rule:nonzero;fill:rgb(0%,0%,0%);fill-opacity:1;" d="M 1.136719 49.390625 L 0.125 49.390625 L 0.125 48.511719 L 1.136719 48.511719 Z M 7.285156 49.390625 L 2.097656 49.390625 L 2.097656 48.511719 L 7.285156 48.511719 Z M 7.285156 49.390625 "/>
<path style=" stroke:none;fill-rule:nonzero;fill:rgb(0%,0%,0%);fill-opacity:1;" d="M 7.285156 43.804688 L 6.628906 43.804688 C 7.144531 44.132812 7.402344 44.617188 7.402344 45.257812 C 7.402344 45.667969 7.289062 46.050781 7.058594 46.398438 C 6.832031 46.742188 6.515625 47.011719 6.109375 47.203125 C 5.699219 47.394531 5.226562 47.488281 4.695312 47.488281 C 4.179688 47.488281 3.710938 47.402344 3.292969 47.230469 C 2.867188 47.054688 2.542969 46.796875 2.320312 46.453125 C 2.09375 46.105469 1.980469 45.722656 1.980469 45.296875 C 1.980469 44.984375 2.050781 44.703125 2.183594 44.460938 C 2.3125 44.214844 2.484375 44.015625 2.695312 43.863281 L 0.125 43.863281 L 0.125 42.992188 L 7.285156 42.992188 Z M 4.695312 46.585938 C 5.359375 46.585938 5.859375 46.445312 6.1875 46.164062 C 6.515625 45.882812 6.679688 45.554688 6.679688 45.171875 C 6.679688 44.789062 6.523438 44.464844 6.210938 44.195312 C 5.894531 43.925781 5.414062 43.792969 4.769531 43.792969 C 4.0625 43.792969 3.539062 43.929688 3.207031 44.203125 C 2.875 44.476562 2.710938 44.8125 2.710938 45.210938 C 2.710938 45.601562 2.871094 45.929688 3.1875 46.195312 C 3.507812 46.453125 4.011719 46.585938 4.695312 46.585938 Z M 4.695312 46.585938 "/>
<path style=" stroke:none;fill-rule:nonzero;fill:rgb(0%,0%,0%);fill-opacity:1;" d="M 7.285156 38.207031 L 6.523438 38.207031 C 7.109375 38.609375 7.402344 39.15625 7.402344 39.851562 C 7.402344 40.15625 7.34375 40.441406 7.226562 40.710938 C 7.109375 40.972656 6.960938 41.171875 6.785156 41.300781 C 6.609375 41.429688 6.390625 41.515625 6.132812 41.570312 C 5.960938 41.605469 5.6875 41.625 5.3125 41.625 L 2.097656 41.625 L 2.097656 40.746094 L 4.976562 40.746094 C 5.433594 40.746094 5.742188 40.726562 5.902344 40.691406 C 6.132812 40.636719 6.316406 40.519531 6.449219 40.339844 C 6.582031 40.160156 6.644531 39.9375 6.644531 39.675781 C 6.644531 39.410156 6.578125 39.164062 6.445312 38.933594 C 6.308594 38.703125 6.125 38.539062 5.894531 38.445312 C 5.660156 38.347656 5.320312 38.296875 4.878906 38.296875 L 2.097656 38.296875 L 2.097656 37.417969 L 7.285156 37.417969 Z M 7.285156 38.207031 "/>
<path style=" stroke:none;fill-rule:nonzero;fill:rgb(0%,0%,0%);fill-opacity:1;" d="M 5.613281 32.488281 L 5.726562 31.578125 C 6.257812 31.722656 6.667969 31.988281 6.960938 32.375 C 7.253906 32.761719 7.402344 33.257812 7.402344 33.859375 C 7.402344 34.617188 7.167969 35.21875 6.703125 35.667969 C 6.234375 36.109375 5.578125 36.332031 4.734375 36.332031 C 3.863281 36.332031 3.1875 36.105469 2.703125 35.65625 C 2.222656 35.207031 1.980469 34.625 1.980469 33.910156 C 1.980469 33.214844 2.21875 32.648438 2.691406 32.210938 C 3.164062 31.769531 3.828125 31.550781 4.683594 31.550781 C 4.734375 31.550781 4.8125 31.550781 4.917969 31.554688 L 4.917969 35.421875 C 5.488281 35.390625 5.921875 35.226562 6.226562 34.9375 C 6.527344 34.648438 6.679688 34.289062 6.679688 33.855469 C 6.679688 33.53125 6.59375 33.257812 6.425781 33.03125 C 6.257812 32.800781 5.984375 32.621094 5.613281 32.488281 Z M 4.195312 35.375 L 4.195312 32.476562 C 3.757812 32.515625 3.429688 32.628906 3.210938 32.808594 C 2.875 33.089844 2.703125 33.453125 2.703125 33.898438 C 2.703125 34.300781 2.839844 34.640625 3.109375 34.917969 C 3.378906 35.191406 3.742188 35.34375 4.195312 35.375 Z M 4.195312 35.375 "/>
<path style=" stroke:none;fill-rule:nonzero;fill:rgb(0%,0%,0%);fill-opacity:1;" d="M 9.273438 27.679688 L 0.125 27.679688 L 0.125 25.738281 L 0.855469 25.738281 L 0.855469 26.800781 L 8.542969 26.800781 L 8.542969 25.738281 L 9.273438 25.738281 Z M 9.273438 27.679688 "/>
<path style=" stroke:none;fill-rule:nonzero;fill:rgb(0%,0%,0%);fill-opacity:1;" d="M 7.285156 24.851562 L 0.125 24.851562 L 0.125 23.902344 L 6.441406 23.902344 L 6.441406 20.378906 L 7.285156 20.378906 Z M 7.285156 24.851562 "/>
<path style=" stroke:none;fill-rule:nonzero;fill:rgb(0%,0%,0%);fill-opacity:1;" d="M 4.984375 19.566406 L 4.90625 18.675781 C 5.265625 18.632812 5.558594 18.535156 5.789062 18.382812 C 6.019531 18.226562 6.203125 17.984375 6.347656 17.660156 C 6.488281 17.332031 6.558594 16.964844 6.558594 16.558594 C 6.558594 16.199219 6.503906 15.878906 6.394531 15.601562 C 6.289062 15.324219 6.140625 15.121094 5.957031 14.988281 C 5.769531 14.851562 5.5625 14.78125 5.339844 14.78125 C 5.117188 14.78125 4.921875 14.847656 4.753906 14.976562 C 4.585938 15.109375 4.445312 15.324219 4.332031 15.621094 C 4.257812 15.8125 4.140625 16.238281 3.984375 16.898438 C 3.824219 17.554688 3.675781 18.015625 3.535156 18.277344 C 3.355469 18.621094 3.132812 18.875 2.871094 19.046875 C 2.605469 19.210938 2.304688 19.292969 1.976562 19.292969 C 1.617188 19.292969 1.277344 19.191406 0.964844 18.988281 C 0.652344 18.78125 0.410156 18.480469 0.25 18.089844 C 0.0859375 17.695312 0.00390625 17.257812 0.00390625 16.773438 C 0.00390625 16.242188 0.0898438 15.777344 0.261719 15.375 C 0.433594 14.964844 0.683594 14.652344 1.015625 14.4375 C 1.347656 14.21875 1.722656 14.101562 2.144531 14.085938 L 2.210938 14.992188 C 1.757812 15.042969 1.417969 15.207031 1.1875 15.492188 C 0.957031 15.769531 0.839844 16.183594 0.839844 16.734375 C 0.839844 17.308594 0.945312 17.726562 1.15625 17.992188 C 1.367188 18.25 1.617188 18.382812 1.914062 18.382812 C 2.171875 18.382812 2.382812 18.289062 2.546875 18.101562 C 2.714844 17.921875 2.886719 17.445312 3.0625 16.675781 C 3.234375 15.90625 3.386719 15.375 3.515625 15.089844 C 3.707031 14.671875 3.953125 14.367188 4.246094 14.167969 C 4.539062 13.96875 4.878906 13.871094 5.261719 13.871094 C 5.644531 13.871094 6.003906 13.976562 6.34375 14.195312 C 6.679688 14.414062 6.941406 14.730469 7.128906 15.140625 C 7.3125 15.546875 7.40625 16.003906 7.40625 16.515625 C 7.40625 17.164062 7.3125 17.707031 7.125 18.148438 C 6.933594 18.582031 6.652344 18.925781 6.273438 19.175781 C 5.894531 19.425781 5.464844 19.554688 4.984375 19.566406 Z M 4.984375 19.566406 "/>
<path style=" stroke:none;fill-rule:nonzero;fill:rgb(0%,0%,0%);fill-opacity:1;" d="M 7.285156 12.605469 L 0.125 12.605469 L 0.125 9.917969 C 0.125 9.371094 0.199219 8.933594 0.347656 8.605469 C 0.488281 8.273438 0.710938 8.015625 1.015625 7.828125 C 1.316406 7.640625 1.628906 7.546875 1.957031 7.546875 C 2.265625 7.546875 2.550781 7.628906 2.820312 7.796875 C 3.09375 7.960938 3.308594 8.210938 3.476562 8.546875 C 3.601562 8.113281 3.820312 7.78125 4.125 7.550781 C 4.433594 7.316406 4.792969 7.199219 5.210938 7.199219 C 5.546875 7.199219 5.859375 7.269531 6.148438 7.414062 C 6.433594 7.554688 6.65625 7.726562 6.8125 7.9375 C 6.96875 8.144531 7.085938 8.40625 7.167969 8.722656 C 7.246094 9.035156 7.285156 9.417969 7.285156 9.875 Z M 3.132812 11.65625 L 3.132812 10.109375 C 3.132812 9.691406 3.105469 9.386719 3.050781 9.207031 C 2.980469 8.964844 2.859375 8.785156 2.695312 8.664062 C 2.527344 8.539062 2.320312 8.480469 2.070312 8.480469 C 1.832031 8.480469 1.625 8.535156 1.445312 8.648438 C 1.261719 8.761719 1.140625 8.925781 1.074219 9.136719 C 1.003906 9.347656 0.972656 9.710938 0.972656 10.226562 L 0.972656 11.65625 Z M 6.441406 11.65625 L 6.441406 9.875 C 6.441406 9.570312 6.429688 9.355469 6.40625 9.230469 C 6.367188 9.011719 6.300781 8.832031 6.210938 8.683594 C 6.121094 8.539062 5.988281 8.417969 5.816406 8.324219 C 5.640625 8.226562 5.4375 8.179688 5.210938 8.179688 C 4.941406 8.179688 4.710938 8.25 4.515625 8.386719 C 4.316406 8.523438 4.179688 8.714844 4.101562 8.957031 C 4.019531 9.199219 3.980469 9.546875 3.980469 10.003906 L 3.980469 11.65625 Z M 6.441406 11.65625 "/>
<path style=" stroke:none;fill-rule:nonzero;fill:rgb(0%,0%,0%);fill-opacity:1;" d="M 9.273438 4.527344 L 9.273438 6.46875 L 8.542969 6.46875 L 8.542969 5.40625 L 0.855469 5.40625 L 0.855469 6.46875 L 0.125 6.46875 L 0.125 4.527344 Z M 9.273438 4.527344 "/>
<path style=" stroke:none;fill-rule:nonzero;fill:rgb(0%,0%,0%);fill-opacity:1;" d="M 141.46875 137.597656 L 141.46875 131.285156 L 139.109375 131.285156 L 139.109375 130.441406 L 144.78125 130.441406 L 144.78125 131.285156 L 142.414062 131.285156 L 142.414062 137.597656 Z M 141.46875 137.597656 "/>
<path style=" stroke:none;fill-rule:nonzero;fill:rgb(0%,0%,0%);fill-opacity:1;" d="M 145.289062 131.453125 L 145.289062 130.441406 L 146.167969 130.441406 L 146.167969 131.453125 Z M 145.289062 137.597656 L 145.289062 132.414062 L 146.167969 132.414062 L 146.167969 137.597656 Z M 145.289062 137.597656 "/>
<path style=" stroke:none;fill-rule:nonzero;fill:rgb(0%,0%,0%);fill-opacity:1;" d="M 147.523438 137.597656 L 147.523438 132.414062 L 148.308594 132.414062 L 148.308594 133.140625 C 148.472656 132.886719 148.6875 132.683594 148.957031 132.53125 C 149.226562 132.375 149.535156 132.296875 149.878906 132.296875 C 150.265625 132.296875 150.578125 132.375 150.824219 132.535156 C 151.070312 132.695312 151.246094 132.917969 151.34375 133.203125 C 151.753906 132.597656 152.289062 132.296875 152.945312 132.296875 C 153.460938 132.296875 153.855469 132.4375 154.132812 132.726562 C 154.410156 133.007812 154.546875 133.445312 154.546875 134.039062 L 154.546875 137.597656 L 153.675781 137.597656 L 153.675781 134.332031 C 153.675781 133.980469 153.644531 133.726562 153.585938 133.574219 C 153.53125 133.417969 153.429688 133.292969 153.277344 133.199219 C 153.128906 133.105469 152.953125 133.058594 152.75 133.058594 C 152.386719 133.058594 152.085938 133.179688 151.84375 133.425781 C 151.601562 133.664062 151.480469 134.050781 151.480469 134.585938 L 151.480469 137.597656 L 150.601562 137.597656 L 150.601562 134.230469 C 150.601562 133.839844 150.53125 133.546875 150.386719 133.351562 C 150.246094 133.15625 150.011719 133.058594 149.683594 133.058594 C 149.4375 133.058594 149.207031 133.121094 148.996094 133.253906 C 148.789062 133.382812 148.636719 133.574219 148.542969 133.824219 C 148.449219 134.074219 148.402344 134.4375 148.402344 134.910156 L 148.402344 137.597656 Z M 147.523438 137.597656 "/>
<path style=" stroke:none;fill-rule:nonzero;fill:rgb(0%,0%,0%);fill-opacity:1;" d="M 159.410156 135.929688 L 160.320312 136.042969 C 160.175781 136.570312 159.910156 136.984375 159.523438 137.277344 C 159.136719 137.570312 158.640625 137.714844 158.039062 137.714844 C 157.28125 137.714844 156.679688 137.484375 156.234375 137.019531 C 155.789062 136.550781 155.570312 135.894531 155.570312 135.050781 C 155.570312 134.175781 155.792969 133.5 156.242188 133.019531 C 156.691406 132.535156 157.273438 132.296875 157.992188 132.296875 C 158.683594 132.296875 159.25 132.53125 159.691406 133.003906 C 160.128906 133.476562 160.347656 134.140625 160.347656 134.996094 C 160.347656 135.046875 160.347656 135.125 160.34375 135.230469 L 156.476562 135.230469 C 156.511719 135.800781 156.671875 136.238281 156.960938 136.539062 C 157.25 136.84375 157.613281 136.992188 158.042969 136.992188 C 158.367188 136.992188 158.640625 136.910156 158.871094 136.738281 C 159.097656 136.570312 159.277344 136.300781 159.410156 135.929688 Z M 156.527344 134.507812 L 159.421875 134.507812 C 159.382812 134.070312 159.273438 133.746094 159.089844 133.527344 C 158.808594 133.1875 158.445312 133.019531 158 133.019531 C 157.597656 133.019531 157.257812 133.152344 156.980469 133.425781 C 156.707031 133.695312 156.554688 134.054688 156.527344 134.507812 Z M 156.527344 134.507812 "/>
<g clip-path="url(#clip1)" clip-rule="nonzero">
<path style=" stroke:none;fill-rule:nonzero;fill:rgb(0%,0%,0%);fill-opacity:1;" d="M 164.222656 139.585938 L 164.222656 130.441406 L 166.160156 130.441406 L 166.160156 131.167969 L 165.101562 131.167969 L 165.101562 138.859375 L 166.160156 138.859375 L 166.160156 139.585938 Z M 164.222656 139.585938 "/>
</g>
<path style=" stroke:none;fill-rule:nonzero;fill:rgb(0%,0%,0%);fill-opacity:1;" d="M 166.976562 137.597656 L 166.976562 132.414062 L 167.761719 132.414062 L 167.761719 133.140625 C 167.925781 132.886719 168.140625 132.683594 168.410156 132.53125 C 168.679688 132.375 168.988281 132.296875 169.332031 132.296875 C 169.71875 132.296875 170.03125 132.375 170.277344 132.535156 C 170.523438 132.695312 170.699219 132.917969 170.796875 133.203125 C 171.207031 132.597656 171.742188 132.296875 172.398438 132.296875 C 172.914062 132.296875 173.308594 132.4375 173.585938 132.726562 C 173.863281 133.007812 174 133.445312 174 134.039062 L 174 137.597656 L 173.128906 137.597656 L 173.128906 134.332031 C 173.128906 133.980469 173.097656 133.726562 173.039062 133.574219 C 172.984375 133.417969 172.882812 133.292969 172.730469 133.199219 C 172.582031 133.105469 172.40625 133.058594 172.203125 133.058594 C 171.839844 133.058594 171.539062 133.179688 171.296875 133.425781 C 171.054688 133.664062 170.933594 134.050781 170.933594 134.585938 L 170.933594 137.597656 L 170.054688 137.597656 L 170.054688 134.230469 C 170.054688 133.839844 169.984375 133.546875 169.839844 133.351562 C 169.699219 133.15625 169.464844 133.058594 169.136719 133.058594 C 168.890625 133.058594 168.660156 133.121094 168.449219 133.253906 C 168.242188 133.382812 168.089844 133.574219 167.996094 133.824219 C 167.902344 134.074219 167.855469 134.4375 167.855469 134.910156 L 167.855469 137.597656 Z M 166.976562 137.597656 "/>
<path style=" stroke:none;fill-rule:nonzero;fill:rgb(0%,0%,0%);fill-opacity:1;" d="M 174.964844 136.050781 L 175.832031 135.914062 C 175.882812 136.261719 176.015625 136.53125 176.238281 136.714844 C 176.460938 136.902344 176.773438 136.992188 177.175781 136.992188 C 177.578125 136.992188 177.878906 136.910156 178.074219 136.75 C 178.269531 136.582031 178.367188 136.390625 178.367188 136.167969 C 178.367188 135.96875 178.28125 135.8125 178.109375 135.699219 C 177.988281 135.621094 177.6875 135.523438 177.210938 135.402344 C 176.566406 135.238281 176.117188 135.097656 175.867188 134.980469 C 175.621094 134.859375 175.429688 134.695312 175.300781 134.488281 C 175.171875 134.277344 175.109375 134.042969 175.109375 133.789062 C 175.109375 133.558594 175.164062 133.347656 175.265625 133.152344 C 175.375 132.953125 175.519531 132.789062 175.699219 132.65625 C 175.835938 132.554688 176.023438 132.472656 176.257812 132.402344 C 176.496094 132.332031 176.75 132.296875 177.019531 132.296875 C 177.425781 132.296875 177.78125 132.355469 178.089844 132.472656 C 178.398438 132.589844 178.625 132.75 178.773438 132.949219 C 178.917969 133.148438 179.019531 133.414062 179.074219 133.75 L 178.214844 133.867188 C 178.175781 133.601562 178.0625 133.394531 177.875 133.242188 C 177.6875 133.09375 177.425781 133.019531 177.082031 133.019531 C 176.679688 133.019531 176.390625 133.085938 176.21875 133.21875 C 176.046875 133.351562 175.960938 133.507812 175.960938 133.6875 C 175.960938 133.800781 175.996094 133.902344 176.066406 133.996094 C 176.140625 134.089844 176.25 134.167969 176.402344 134.230469 C 176.492188 134.261719 176.75 134.335938 177.179688 134.453125 C 177.800781 134.621094 178.234375 134.757812 178.480469 134.863281 C 178.726562 134.96875 178.921875 135.121094 179.058594 135.324219 C 179.199219 135.523438 179.269531 135.777344 179.269531 136.074219 C 179.269531 136.367188 179.183594 136.644531 179.011719 136.90625 C 178.84375 137.164062 178.597656 137.363281 178.273438 137.507812 C 177.953125 137.644531 177.585938 137.714844 177.179688 137.714844 C 176.507812 137.714844 175.992188 137.574219 175.636719 137.296875 C 175.285156 137.015625 175.0625 136.601562 174.964844 136.050781 Z M 174.964844 136.050781 "/>
<g clip-path="url(#clip2)" clip-rule="nonzero">
<path style=" stroke:none;fill-rule:nonzero;fill:rgb(0%,0%,0%);fill-opacity:1;" d="M 181.785156 139.585938 L 179.847656 139.585938 L 179.847656 138.859375 L 180.90625 138.859375 L 180.90625 131.167969 L 179.847656 131.167969 L 179.847656 130.441406 L 181.785156 130.441406 Z M 181.785156 139.585938 "/>
</g>
<path style=" stroke:none;fill-rule:nonzero;fill:rgb(100%,100%,100%);fill-opacity:1;" d="M 33.628906 0.601562 L 300.269531 0.601562 L 300.269531 109.980469 L 33.628906 109.980469 Z M 33.628906 0.601562 "/>
<path style="fill:none;stroke-width:1.2;stroke-linecap:square;stroke-linejoin:miter;stroke:rgb(0%,0%,0%);stroke-opacity:1;stroke-miterlimit:10;" d="M 33.628906 109.980469 L 300.269531 109.980469 "/>
<path style="fill:none;stroke-width:1.2;stroke-linecap:square;stroke-linejoin:miter;stroke:rgb(0%,0%,0%);stroke-opacity:1;stroke-miterlimit:10;" d="M 33.628906 0.601562 L 300.269531 0.601562 "/>
<path style="fill:none;stroke-width:1.2;stroke-linecap:square;stroke-linejoin:miter;stroke:rgb(0%,0%,0%);stroke-opacity:1;stroke-miterlimit:10;" d="M 33.628906 109.980469 L 33.628906 107.175781 "/>
<path style="fill:none;stroke-width:1.2;stroke-linecap:square;stroke-linejoin:miter;stroke:rgb(0%,0%,0%);stroke-opacity:1;stroke-miterlimit:10;" d="M 71.71875 109.980469 L 71.71875 107.175781 "/>
<path style="fill:none;stroke-width:1.2;stroke-linecap:square;stroke-linejoin:miter;stroke:rgb(0%,0%,0%);stroke-opacity:1;stroke-miterlimit:10;" d="M 109.8125 109.980469 L 109.8125 107.175781 "/>
<path style="fill:none;stroke-width:1.2;stroke-linecap:square;stroke-linejoin:miter;stroke:rgb(0%,0%,0%);stroke-opacity:1;stroke-miterlimit:10;" d="M 147.902344 109.980469 L 147.902344 107.175781 "/>
<path style="fill:none;stroke-width:1.2;stroke-linecap:square;stroke-linejoin:miter;stroke:rgb(0%,0%,0%);stroke-opacity:1;stroke-miterlimit:10;" d="M 185.996094 109.980469 L 185.996094 107.175781 "/>
<path style="fill:none;stroke-width:1.2;stroke-linecap:square;stroke-linejoin:miter;stroke:rgb(0%,0%,0%);stroke-opacity:1;stroke-miterlimit:10;" d="M 224.085938 109.980469 L 224.085938 107.175781 "/>
<path style="fill:none;stroke-width:1.2;stroke-linecap:square;stroke-linejoin:miter;stroke:rgb(0%,0%,0%);stroke-opacity:1;stroke-miterlimit:10;" d="M 262.175781 109.980469 L 262.175781 107.175781 "/>
<path style="fill:none;stroke-width:1.2;stroke-linecap:square;stroke-linejoin:miter;stroke:rgb(0%,0%,0%);stroke-opacity:1;stroke-miterlimit:10;" d="M 300.269531 109.980469 L 300.269531 107.175781 "/>
<path style="fill:none;stroke-width:1.2;stroke-linecap:square;stroke-linejoin:miter;stroke:rgb(0%,0%,0%);stroke-opacity:1;stroke-miterlimit:10;" d="M 33.628906 0.601562 L 33.628906 3.402344 "/>
<path style="fill:none;stroke-width:1.2;stroke-linecap:square;stroke-linejoin:miter;stroke:rgb(0%,0%,0%);stroke-opacity:1;stroke-miterlimit:10;" d="M 71.71875 0.601562 L 71.71875 3.402344 "/>
<path style="fill:none;stroke-width:1.2;stroke-linecap:square;stroke-linejoin:miter;stroke:rgb(0%,0%,0%);stroke-opacity:1;stroke-miterlimit:10;" d="M 109.8125 0.601562 L 109.8125 3.402344 "/>
<path style="fill:none;stroke-width:1.2;stroke-linecap:square;stroke-linejoin:miter;stroke:rgb(0%,0%,0%);stroke-opacity:1;stroke-miterlimit:10;" d="M 147.902344 0.601562 L 147.902344 3.402344 "/>
<path style="fill:none;stroke-width:1.2;stroke-linecap:square;stroke-linejoin:miter;stroke:rgb(0%,0%,0%);stroke-opacity:1;stroke-miterlimit:10;" d="M 185.996094 0.601562 L 185.996094 3.402344 "/>
<path style="fill:none;stroke-width:1.2;stroke-linecap:square;stroke-linejoin:miter;stroke:rgb(0%,0%,0%);stroke-opacity:1;stroke-miterlimit:10;" d="M 224.085938 0.601562 L 224.085938 3.402344 "/>
<path style="fill:none;stroke-width:1.2;stroke-linecap:square;stroke-linejoin:miter;stroke:rgb(0%,0%,0%);stroke-opacity:1;stroke-miterlimit:10;" d="M 262.175781 0.601562 L 262.175781 3.402344 "/>
<path style="fill:none;stroke-width:1.2;stroke-linecap:square;stroke-linejoin:miter;stroke:rgb(0%,0%,0%);stroke-opacity:1;stroke-miterlimit:10;" d="M 300.269531 0.601562 L 300.269531 3.402344 "/>
<path style="fill:none;stroke-width:1.2;stroke-linecap:square;stroke-linejoin:miter;stroke:rgb(0%,0%,0%);stroke-opacity:1;stroke-miterlimit:10;" d="M 33.628906 109.980469 L 33.628906 0.601562 "/>
<path style="fill:none;stroke-width:1.2;stroke-linecap:square;stroke-linejoin:miter;stroke:rgb(0%,0%,0%);stroke-opacity:1;stroke-miterlimit:10;" d="M 300.269531 109.980469 L 300.269531 0.601562 "/>
<path style="fill:none;stroke-width:1.2;stroke-linecap:square;stroke-linejoin:miter;stroke:rgb(0%,0%,0%);stroke-opacity:1;stroke-miterlimit:10;" d="M 33.628906 94.320312 L 36.292969 94.320312 "/>
<path style="fill:none;stroke-width:1.2;stroke-linecap:square;stroke-linejoin:miter;stroke:rgb(0%,0%,0%);stroke-opacity:1;stroke-miterlimit:10;" d="M 33.628906 78.324219 L 36.292969 78.324219 "/>
<path style="fill:none;stroke-width:1.2;stroke-linecap:square;stroke-linejoin:miter;stroke:rgb(0%,0%,0%);stroke-opacity:1;stroke-miterlimit:10;" d="M 33.628906 62.328125 L 36.292969 62.328125 "/>
<path style="fill:none;stroke-width:1.2;stroke-linecap:square;stroke-linejoin:miter;stroke:rgb(0%,0%,0%);stroke-opacity:1;stroke-miterlimit:10;" d="M 33.628906 46.332031 L 36.292969 46.332031 "/>
<path style="fill:none;stroke-width:1.2;stroke-linecap:square;stroke-linejoin:miter;stroke:rgb(0%,0%,0%);stroke-opacity:1;stroke-miterlimit:10;" d="M 33.628906 30.339844 L 36.292969 30.339844 "/>
<path style="fill:none;stroke-width:1.2;stroke-linecap:square;stroke-linejoin:miter;stroke:rgb(0%,0%,0%);stroke-opacity:1;stroke-miterlimit:10;" d="M 33.628906 14.34375 L 36.292969 14.34375 "/>
<path style="fill:none;stroke-width:1.2;stroke-linecap:square;stroke-linejoin:miter;stroke:rgb(0%,0%,0%);stroke-opacity:1;stroke-miterlimit:10;" d="M 300.269531 94.320312 L 297.601562 94.320312 "/>
<path style="fill:none;stroke-width:1.2;stroke-linecap:square;stroke-linejoin:miter;stroke:rgb(0%,0%,0%);stroke-opacity:1;stroke-miterlimit:10;" d="M 300.269531 78.324219 L 297.601562 78.324219 "/>
<path style="fill:none;stroke-width:1.2;stroke-linecap:square;stroke-linejoin:miter;stroke:rgb(0%,0%,0%);stroke-opacity:1;stroke-miterlimit:10;" d="M 300.269531 62.328125 L 297.601562 62.328125 "/>
<path style="fill:none;stroke-width:1.2;stroke-linecap:square;stroke-linejoin:miter;stroke:rgb(0%,0%,0%);stroke-opacity:1;stroke-miterlimit:10;" d="M 300.269531 46.332031 L 297.601562 46.332031 "/>
<path style="fill:none;stroke-width:1.2;stroke-linecap:square;stroke-linejoin:miter;stroke:rgb(0%,0%,0%);stroke-opacity:1;stroke-miterlimit:10;" d="M 300.269531 30.339844 L 297.601562 30.339844 "/>
<path style="fill:none;stroke-width:1.2;stroke-linecap:square;stroke-linejoin:miter;stroke:rgb(0%,0%,0%);stroke-opacity:1;stroke-miterlimit:10;" d="M 300.269531 14.34375 L 297.601562 14.34375 "/>
<path style="fill:none;stroke-width:0.8;stroke-linecap:butt;stroke-linejoin:bevel;stroke:rgb(0%,0%,0%);stroke-opacity:1;stroke-miterlimit:10;" d="M 34.007812 44.21875 L 34.390625 14.097656 L 34.769531 21.464844 L 35.152344 29.785156 L 35.53125 38.628906 L 35.914062 45.402344 L 36.292969 53.457031 L 36.675781 62.382812 L 37.054688 32.957031 L 37.4375 42.667969 L 37.816406 49.769531 L 38.199219 58.601562 L 38.582031 31.980469 L 38.960938 41.46875 L 39.34375 49.964844 L 39.722656 59.910156 L 40.105469 32.828125 L 40.484375 42.417969 L 40.867188 14.835938 L 41.246094 26.210938 L 41.628906 36.851562 L 42.007812 47.238281 L 42.390625 56.699219 L 42.769531 31.34375 L 43.152344 42.667969 L 43.53125 52.226562 L 43.914062 61.652344 L 44.292969 38.660156 L 44.675781 11.570312 L 45.054688 23.117188 L 45.4375 35.570312 L 45.816406 47.140625 L 46.199219 21.464844 L 46.578125 35.554688 L 46.960938 47.238281 L 47.339844 58.96875 L 47.722656 32.5 L 48.101562 44.816406 L 48.484375 55.921875 L 48.863281 33.382812 L 49.246094 46.699219 L 49.625 58.96875 L 50.007812 35.277344 L 50.386719 47.777344 L 50.769531 24.597656 L 51.148438 38.628906 L 51.53125 13.003906 L 51.914062 27.777344 L 52.292969 42.667969 L 52.675781 54.0625 "/>
<path style="fill:none;stroke-width:0.8;stroke-linecap:butt;stroke-linejoin:bevel;stroke:rgb(0%,0%,0%);stroke-opacity:1;stroke-miterlimit:10;" d="M 52.675781 54.0625 L 53.054688 33.25 L 53.4375 47.238281 L 53.816406 22.421875 L 54.199219 37.457031 L 54.578125 14.097656 L 54.960938 29.554688 L 55.339844 43.878906 L 55.722656 20.429688 L 56.101562 35.570312 L 56.484375 48.816406 L 56.863281 62.148438 L 57.246094 42.773438 L 57.625 56.058594 L 58.007812 35.570312 L 58.386719 10.734375 L 58.769531 27.996094 L 59.148438 43.699219 L 59.53125 58.308594 L 59.910156 37.457031 L 60.292969 51.023438 L 60.671875 30.859375 L 61.054688 47.238281 L 61.433594 24.496094 L 61.816406 40.953125 L 62.195312 18.230469 L 62.578125 35.761719 L 62.957031 10.496094 L 63.339844 26.109375 L 63.71875 42.230469 L 64.101562 57.324219 L 64.480469 38.628906 L 64.863281 53.757812 L 65.246094 32.539062 L 65.625 47.621094 L 66.007812 26.496094 L 66.386719 43.886719 L 66.769531 22.542969 L 67.148438 37.21875 L 67.53125 52.457031 L 67.910156 33.664062 L 68.292969 11.367188 L 68.671875 28.132812 L 69.054688 44.417969 L 69.433594 23.664062 L 69.816406 39.125 L 70.195312 55.242188 L 70.578125 69.390625 L 70.957031 84.992188 L 71.339844 65.371094 "/>
<path style="fill:none;stroke-width:0.8;stroke-linecap:butt;stroke-linejoin:bevel;stroke:rgb(0%,0%,0%);stroke-opacity:1;stroke-miterlimit:10;" d="M 71.339844 65.371094 L 71.71875 80.3125 L 72.101562 95.917969 L 72.480469 75.417969 L 72.863281 56.363281 L 73.242188 72.199219 L 73.625 86.066406 L 74.003906 66.167969 L 74.386719 80.960938 L 74.765625 97.785156 L 75.148438 76.699219 L 75.527344 56.496094 L 75.910156 70.488281 L 76.289062 52.71875 L 76.671875 67.6875 L 77.050781 81.832031 L 77.433594 97.148438 L 77.8125 74.484375 L 78.195312 89.332031 L 78.578125 70.082031 L 78.957031 83.304688 L 79.339844 98.632812 L 79.71875 77.417969 L 80.101562 57.554688 L 80.480469 71.574219 L 80.863281 51.648438 L 81.242188 65.792969 L 81.625 79.699219 L 82.003906 94.3125 L 82.386719 73.902344 L 82.765625 52.507812 L 83.148438 66.777344 L 83.527344 80.777344 L 83.910156 60.160156 L 84.289062 74.890625 L 84.671875 88.445312 L 85.050781 102.117188 L 85.433594 79.035156 L 85.8125 93.953125 L 86.195312 71.574219 L 86.574219 84.671875 L 86.957031 99.882812 L 87.335938 77.425781 L 87.71875 55.445312 L 88.097656 68.628906 L 88.480469 81.074219 L 88.859375 95.121094 L 89.242188 70.488281 L 89.621094 84.140625 L 90.003906 97.886719 "/>
<path style="fill:none;stroke-width:0.8;stroke-linecap:butt;stroke-linejoin:bevel;stroke:rgb(0%,0%,0%);stroke-opacity:1;stroke-miterlimit:10;" d="M 90.003906 97.886719 L 90.382812 74.890625 L 90.765625 51.878906 L 91.144531 63.4375 L 91.527344 75.804688 L 91.910156 54.625 L 92.289062 64.839844 L 92.671875 76.378906 L 93.050781 52.277344 L 93.433594 62.808594 L 93.8125 74.992188 L 94.195312 85.816406 L 94.574219 98.445312 L 94.957031 74.484375 L 95.335938 84.867188 L 95.71875 97.28125 L 96.097656 70.488281 L 96.480469 82.703125 L 96.859375 58.824219 L 97.242188 68.628906 L 97.621094 78.125 L 98.003906 53.339844 L 98.382812 62.808594 L 98.765625 74.484375 L 99.144531 83.371094 L 99.527344 93.027344 L 99.90625 68.628906 L 100.289062 76.558594 L 100.667969 51.253906 L 101.050781 59.3125 L 101.429688 69.417969 L 101.8125 77.109375 L 102.191406 52.71875 L 102.574219 60.675781 L 102.953125 69.359375 L 103.335938 76.984375 L 103.714844 50.519531 L 104.097656 58.046875 L 104.476562 65.613281 L 104.859375 73.15625 L 105.242188 79.800781 L 105.621094 88.304688 L 106.003906 95.085938 L 106.382812 67.046875 L 106.765625 73.164062 L 107.144531 80.105469 L 107.527344 87.007812 L 107.90625 92.53125 L 108.289062 98.289062 L 108.667969 70.25 "/>
<path style="fill:none;stroke-width:0.8;stroke-linecap:butt;stroke-linejoin:bevel;stroke:rgb(0%,0%,0%);stroke-opacity:1;stroke-miterlimit:10;" d="M 108.667969 70.25 L 109.050781 75.804688 L 109.429688 80.726562 L 109.8125 52.160156 L 110.191406 57.117188 L 110.574219 63.160156 L 110.953125 68.097656 L 111.335938 72.804688 L 111.714844 76.558594 L 112.097656 81.859375 L 112.476562 87.101562 L 112.859375 91.46875 L 113.238281 94.121094 L 113.621094 98.632812 L 114 66.582031 L 114.382812 70.894531 L 114.761719 73.726562 L 115.144531 77.554688 L 115.523438 79.699219 L 115.90625 83.191406 L 116.285156 86.027344 L 116.667969 87.394531 L 117.046875 88.960938 L 117.429688 92.542969 L 117.808594 95.085938 L 118.191406 97.785156 L 118.574219 99.59375 L 118.953125 98.867188 L 119.335938 66.058594 L 119.714844 67.046875 L 120.097656 68.710938 L 120.476562 69.359375 L 120.859375 69.394531 L 121.238281 70.417969 L 121.621094 70.1875 L 122 69.558594 L 122.382812 70.417969 L 122.761719 69.875 L 123.144531 69.359375 L 123.523438 68.421875 L 123.90625 67.230469 L 124.285156 67.453125 L 124.667969 100.164062 L 125.046875 99.59375 L 125.429688 97.785156 L 125.808594 95.34375 L 126.191406 93.027344 L 126.570312 90.839844 L 126.953125 87.523438 L 127.332031 85.730469 "/>
<path style="fill:none;stroke-width:0.8;stroke-linecap:butt;stroke-linejoin:bevel;stroke:rgb(0%,0%,0%);stroke-opacity:1;stroke-miterlimit:10;" d="M 127.332031 85.730469 L 127.714844 83.265625 L 128.09375 80.371094 L 128.476562 77.417969 L 128.855469 74.992188 L 129.238281 70.488281 L 129.617188 68.496094 L 130 99.882812 L 130.378906 95.980469 L 130.761719 92.46875 L 131.140625 87.429688 L 131.523438 83.539062 L 131.90625 78.125 L 132.285156 74.394531 L 132.667969 70.417969 L 133.046875 65.65625 L 133.429688 59.199219 L 133.808594 53.769531 L 134.191406 82.703125 L 134.570312 77.085938 L 134.953125 70.488281 L 135.332031 102.117188 L 135.714844 94.707031 L 136.09375 88.878906 L 136.476562 81.859375 L 136.855469 75.355469 L 137.238281 69.359375 L 137.617188 97.03125 L 138 88.894531 L 138.378906 80.449219 L 138.761719 73.902344 L 139.140625 66.777344 L 139.523438 59.972656 L 139.902344 51.878906 L 140.285156 78.125 L 140.664062 70.371094 L 141.046875 63.003906 L 141.425781 54.117188 L 141.808594 79.800781 L 142.1875 70.609375 L 142.570312 61.589844 L 142.949219 53.636719 L 143.332031 79.144531 L 143.710938 70.671875 L 144.09375 95.34375 L 144.472656 85.796875 L 144.855469 75.417969 L 145.238281 65.792969 L 145.617188 56.496094 L 146 80.320312 "/>
<path style="fill:none;stroke-width:0.8;stroke-linecap:butt;stroke-linejoin:bevel;stroke:rgb(0%,0%,0%);stroke-opacity:1;stroke-miterlimit:10;" d="M 146 80.320312 L 146.378906 71.007812 L 146.761719 60.675781 L 147.140625 84.140625 L 147.523438 73.214844 L 147.902344 98.765625 L 148.285156 87.429688 L 148.664062 76.457031 L 149.046875 66.160156 L 149.425781 88.140625 L 149.808594 77.949219 L 150.1875 65.820312 L 150.570312 55.203125 L 150.949219 80.105469 L 151.332031 68.710938 L 151.710938 57.210938 L 152.09375 77.417969 L 152.472656 66.777344 L 152.855469 54.917969 L 153.234375 78.125 L 153.617188 100.992188 L 153.996094 88.160156 L 154.378906 75.09375 L 154.757812 97.785156 L 155.140625 83.730469 L 155.519531 72.199219 L 155.902344 59.054688 L 156.28125 79.0625 L 156.664062 66.351562 L 157.042969 88.878906 L 157.425781 75.105469 L 157.808594 97.886719 L 158.1875 82.703125 L 158.570312 69.390625 L 158.949219 92.132812 L 159.332031 76.378906 L 159.710938 64.515625 L 160.09375 84.136719 L 160.472656 70.894531 L 160.855469 56.496094 L 161.234375 76.558594 L 161.617188 98.855469 L 161.996094 83.375 L 162.378906 69.078125 L 162.757812 54.917969 L 163.140625 76.90625 L 163.519531 61.453125 L 163.902344 80.472656 L 164.28125 65.691406 L 164.664062 87.164062 "/>
<path style="fill:none;stroke-width:0.8;stroke-linecap:butt;stroke-linejoin:bevel;stroke:rgb(0%,0%,0%);stroke-opacity:1;stroke-miterlimit:10;" d="M 164.664062 87.164062 L 165.042969 72.136719 L 165.425781 93.210938 L 165.804688 77.949219 L 166.1875 99.984375 L 166.566406 84.671875 L 166.949219 71.007812 L 167.328125 55.445312 L 167.710938 75.652344 L 168.089844 60.855469 L 168.472656 80.4375 L 168.851562 65.371094 L 169.234375 85.535156 L 169.613281 70.25 L 169.996094 90.898438 L 170.375 75.105469 L 170.757812 60.160156 L 171.140625 79.035156 L 171.519531 99.882812 L 171.902344 84.367188 L 172.28125 69.097656 L 172.664062 87.882812 L 173.042969 73.726562 L 173.425781 58.96875 L 173.804688 43.886719 L 174.1875 27.066406 L 174.566406 47.960938 L 174.949219 32.191406 L 175.328125 15.984375 L 175.710938 36.253906 L 176.089844 56.476562 L 176.472656 42.667969 L 176.851562 25.605469 L 177.234375 46.976562 L 177.613281 31.445312 L 177.996094 14.097656 L 178.375 35.453125 L 178.757812 56.699219 L 179.136719 41.246094 L 179.519531 60.972656 L 179.898438 46.535156 L 180.28125 31.371094 L 180.660156 14.636719 L 181.042969 39.386719 L 181.421875 22.914062 L 181.804688 44.21875 L 182.183594 29.378906 L 182.566406 11.570312 L 182.945312 35.859375 L 183.328125 54.980469 "/>
<path style="fill:none;stroke-width:0.8;stroke-linecap:butt;stroke-linejoin:bevel;stroke:rgb(0%,0%,0%);stroke-opacity:1;stroke-miterlimit:10;" d="M 183.328125 54.980469 L 183.707031 41.25 L 184.089844 61.851562 L 184.472656 47.101562 L 184.851562 31.980469 L 185.234375 16.085938 L 185.613281 39.683594 L 185.996094 59.714844 L 186.375 47.238281 L 186.757812 30.859375 L 187.136719 52.226562 L 187.519531 39.683594 L 187.898438 24.386719 L 188.28125 46.574219 L 188.660156 31.980469 L 189.042969 16.8125 L 189.421875 41.25 L 189.804688 25.605469 L 190.183594 11.367188 L 190.566406 36.679688 L 190.945312 57.324219 L 191.328125 44.453125 L 191.707031 31.269531 L 192.089844 17.082031 L 192.46875 41.46875 L 192.851562 27.996094 L 193.230469 14.097656 L 193.613281 37.453125 L 193.992188 62.382812 L 194.375 49.171875 L 194.753906 36.679688 L 195.136719 59.039062 L 195.515625 46.832031 L 195.898438 35.570312 L 196.277344 62.382812 L 196.660156 49.171875 L 197.039062 36.851562 L 197.421875 24.933594 L 197.804688 12.542969 L 198.183594 39.347656 L 198.566406 26.109375 L 198.945312 14.636719 L 199.328125 41.324219 L 199.707031 29.941406 L 200.089844 54.0625 L 200.46875 44.21875 L 200.851562 32.542969 L 201.230469 59.265625 L 201.613281 49.238281 L 201.992188 39.125 "/>
<path style="fill:none;stroke-width:0.8;stroke-linecap:butt;stroke-linejoin:bevel;stroke:rgb(0%,0%,0%);stroke-opacity:1;stroke-miterlimit:10;" d="M 201.992188 39.125 L 202.375 28.828125 L 202.753906 17.691406 L 203.136719 44.863281 L 203.515625 35.570312 L 203.898438 61.851562 L 204.277344 51.757812 L 204.660156 44.285156 L 205.039062 35.554688 L 205.421875 59.738281 L 205.800781 52.226562 L 206.183594 44.21875 L 206.5625 35.570312 L 206.945312 62.84375 L 207.324219 55.65625 L 207.707031 46.574219 L 208.085938 40.519531 L 208.46875 32.195312 L 208.847656 23.636719 L 209.230469 15.375 L 209.609375 46.175781 L 209.992188 37.882812 L 210.371094 30.730469 L 210.753906 25.371094 L 211.136719 17.921875 L 211.515625 10.496094 L 211.898438 43.082031 L 212.277344 36.292969 L 212.660156 29.941406 L 213.039062 58.875 L 213.421875 54.0625 L 213.800781 49.582031 L 214.183594 44.347656 L 214.5625 39.867188 L 214.945312 35.570312 L 215.324219 29.539062 L 215.707031 24.984375 L 216.085938 20.878906 L 216.46875 16.929688 L 216.847656 10.628906 L 217.230469 45.402344 L 217.609375 41.324219 L 217.992188 38.660156 L 218.371094 35.761719 L 218.753906 30.859375 L 219.132812 29.316406 L 219.515625 25.726562 L 219.894531 23.664062 L 220.277344 20.109375 L 220.65625 16.8125 "/>
<path style="fill:none;stroke-width:0.8;stroke-linecap:butt;stroke-linejoin:bevel;stroke:rgb(0%,0%,0%);stroke-opacity:1;stroke-miterlimit:10;" d="M 220.65625 16.8125 L 221.039062 15.375 L 221.417969 14.097656 L 221.800781 10.734375 L 222.179688 48.203125 L 222.5625 46.535156 L 222.941406 45.511719 L 223.324219 44.453125 L 223.703125 43.582031 L 224.085938 42.417969 L 224.46875 42.59375 L 224.847656 41.929688 L 225.230469 42.140625 L 225.609375 42.699219 L 225.992188 43.582031 L 226.371094 44.519531 L 226.753906 44.21875 L 227.132812 44.863281 L 227.515625 46.175781 L 227.894531 48.28125 L 228.277344 47.75 L 228.65625 14.097656 L 229.039062 15.453125 L 229.417969 16.214844 L 229.800781 19.550781 L 230.179688 22.914062 L 230.5625 25.066406 L 230.941406 28.695312 L 231.324219 31.378906 L 231.703125 35.261719 L 232.085938 38.117188 L 232.464844 41.917969 L 232.847656 44.628906 L 233.226562 10.058594 L 233.609375 14.636719 L 233.988281 18.285156 L 234.371094 23.925781 L 234.75 28.132812 L 235.132812 32.359375 L 235.511719 37.457031 L 235.894531 41.929688 L 236.273438 47.75 L 236.65625 53.277344 L 237.035156 56.683594 L 237.417969 63.207031 L 237.800781 34.59375 L 238.179688 41.675781 L 238.5625 47.238281 L 238.941406 15.496094 L 239.324219 22.542969 "/>
<path style="fill:none;stroke-width:0.8;stroke-linecap:butt;stroke-linejoin:bevel;stroke:rgb(0%,0%,0%);stroke-opacity:1;stroke-miterlimit:10;" d="M 239.324219 22.542969 L 239.703125 29.691406 L 240.085938 35.453125 L 240.464844 43.582031 L 240.847656 14.097656 L 241.226562 21.464844 L 241.609375 30.582031 L 241.988281 38.117188 L 242.371094 45.621094 L 242.75 51.5 L 243.132812 60.726562 L 243.511719 32.828125 L 243.894531 41.117188 L 244.273438 49.582031 L 244.65625 57.203125 L 245.035156 32.296875 L 245.417969 41.917969 L 245.796875 49.734375 L 246.179688 58.863281 L 246.558594 32.007812 L 246.941406 42.773438 L 247.320312 14.097656 L 247.703125 24.933594 L 248.082031 35.761719 L 248.464844 47.238281 L 248.84375 56.109375 L 249.226562 30.316406 L 249.605469 41.351562 L 249.988281 50.789062 L 250.367188 61.152344 L 250.75 38.628906 L 251.132812 11.367188 L 251.511719 22.445312 L 251.894531 35.570312 L 252.273438 46.535156 L 252.65625 21.464844 L 253.035156 34.097656 L 253.417969 45.683594 L 253.796875 57.648438 L 254.179688 31.269531 L 254.558594 44.335938 L 254.941406 54.390625 L 255.320312 32.296875 L 255.703125 46.671875 L 256.082031 58.078125 L 256.464844 34.019531 L 256.84375 46.535156 L 257.226562 23.636719 L 257.605469 36.851562 L 257.988281 12.230469 "/>
<path style="fill:none;stroke-width:0.8;stroke-linecap:butt;stroke-linejoin:bevel;stroke:rgb(0%,0%,0%);stroke-opacity:1;stroke-miterlimit:10;" d="M 257.988281 12.230469 L 258.367188 26.109375 L 258.75 41.351562 L 259.128906 53.777344 L 259.511719 32.113281 L 259.890625 46.671875 L 260.273438 22.542969 L 260.652344 36.851562 L 261.035156 14.097656 L 261.414062 27.996094 L 261.796875 43.964844 L 262.175781 19.683594 L 262.558594 34.894531 L 262.9375 47.09375 L 263.320312 61.652344 L 263.699219 41.8125 L 264.082031 56.109375 L 264.464844 34.019531 L 264.84375 47.648438 L 265.226562 27.53125 L 265.605469 43.886719 L 265.988281 57.210938 L 266.367188 35.453125 L 266.75 50.789062 L 267.128906 30.640625 L 267.511719 45.945312 L 267.890625 23.328125 L 268.273438 39.6875 L 268.652344 16.8125 L 269.035156 34.097656 L 269.414062 7.832031 L 269.796875 25.269531 L 270.175781 42.667969 L 270.558594 55.921875 L 270.9375 36.851562 L 271.320312 51.5 L 271.699219 30.730469 L 272.082031 46.535156 L 272.460938 25.726562 L 272.84375 41.8125 L 273.222656 20.953125 L 273.605469 37.53125 L 273.984375 52.355469 L 274.367188 33.25 L 274.746094 10.058594 L 275.128906 27.117188 L 275.507812 41.929688 L 275.890625 21.464844 L 276.269531 38.65625 L 276.652344 54.503906 "/>
<path style="fill:none;stroke-width:0.8;stroke-linecap:butt;stroke-linejoin:bevel;stroke:rgb(0%,0%,0%);stroke-opacity:1;stroke-miterlimit:10;" d="M 276.652344 54.503906 L 277.03125 69.078125 L 277.414062 83.269531 L 277.796875 65.65625 L 278.175781 79.144531 L 278.558594 95.378906 L 278.9375 74.757812 L 279.320312 54.585938 L 279.699219 70.417969 L 280.082031 84.671875 L 280.460938 65.15625 L 280.84375 80.554688 L 281.222656 95.34375 L 281.605469 76.90625 L 281.984375 55.65625 L 282.367188 70.28125 L 282.746094 50.890625 L 283.128906 65.371094 L 283.507812 80.4375 L 283.890625 96.082031 L 284.269531 72.421875 L 284.652344 88.117188 L 285.03125 68.097656 L 285.414062 81.886719 L 285.792969 98.019531 L 286.175781 77.425781 L 286.554688 57.210938 L 286.9375 72.199219 L 287.316406 50.398438 L 287.699219 64.746094 L 288.078125 77.984375 L 288.460938 93.316406 L 288.839844 73.433594 L 289.222656 51.878906 L 289.601562 65.792969 L 289.984375 79.800781 L 290.363281 59.097656 L 290.746094 73.433594 L 291.128906 87.101562 L 291.507812 102.117188 L 291.890625 78.6875 L 292.269531 92.542969 L 292.652344 72.199219 L 293.03125 84.789062 L 293.414062 98.121094 L 293.792969 75.417969 L 294.175781 55.035156 L 294.554688 68.074219 L 294.9375 79.714844 L 295.316406 93.929688 "/>
<path style="fill:none;stroke-width:0.8;stroke-linecap:butt;stroke-linejoin:bevel;stroke:rgb(0%,0%,0%);stroke-opacity:1;stroke-miterlimit:10;" d="M 295.316406 93.929688 L 295.699219 70.609375 L 296.078125 82.738281 L 296.460938 97.03125 L 296.839844 73.902344 L 297.222656 50.398438 L 297.601562 62.808594 L 297.984375 75.488281 L 298.363281 52.601562 L 298.746094 65.65625 L 299.125 76.984375 L 299.507812 51.878906 L 299.886719 61.988281 L 300.269531 74.5625 L 300.296875 75.304688 "/>
<path style=" stroke:none;fill-rule:nonzero;fill:rgb(0%,0%,0%);fill-opacity:1;" d="M 17.089844 14.644531 C 17.089844 13.800781 17.175781 13.117188 17.347656 12.605469 C 17.523438 12.085938 17.78125 11.6875 18.125 11.40625 C 18.46875 11.128906 18.902344 10.988281 19.421875 10.988281 C 19.804688 10.988281 20.144531 11.066406 20.433594 11.222656 C 20.722656 11.375 20.960938 11.597656 21.152344 11.890625 C 21.339844 12.179688 21.488281 12.535156 21.59375 12.957031 C 21.703125 13.371094 21.757812 13.9375 21.757812 14.644531 C 21.757812 15.484375 21.667969 16.164062 21.496094 16.679688 C 21.324219 17.195312 21.066406 17.59375 20.722656 17.878906 C 20.378906 18.15625 19.945312 18.296875 19.421875 18.296875 C 18.730469 18.296875 18.191406 18.050781 17.796875 17.554688 C 17.324219 16.960938 17.089844 15.988281 17.089844 14.644531 Z M 17.992188 14.644531 C 17.992188 15.820312 18.128906 16.601562 18.402344 16.992188 C 18.679688 17.382812 19.019531 17.574219 19.421875 17.574219 C 19.824219 17.574219 20.164062 17.378906 20.4375 16.988281 C 20.714844 16.597656 20.851562 15.816406 20.851562 14.644531 C 20.851562 13.46875 20.714844 12.683594 20.4375 12.296875 C 20.164062 11.910156 19.824219 11.714844 19.414062 11.714844 C 19.007812 11.714844 18.6875 11.886719 18.445312 12.226562 C 18.144531 12.664062 17.992188 13.46875 17.992188 14.644531 Z M 17.992188 14.644531 "/>
<path style=" stroke:none;fill-rule:nonzero;fill:rgb(0%,0%,0%);fill-opacity:1;" d="M 23.148438 17.175781 L 24.148438 17.175781 L 24.148438 18.175781 L 23.148438 18.175781 Z M 23.148438 17.175781 "/>
<path style=" stroke:none;fill-rule:nonzero;fill:rgb(0%,0%,0%);fill-opacity:1;" d="M 29.988281 12.769531 L 29.113281 12.839844 C 29.035156 12.492188 28.925781 12.242188 28.78125 12.085938 C 28.542969 11.835938 28.25 11.710938 27.902344 11.710938 C 27.625 11.710938 27.378906 11.789062 27.167969 11.945312 C 26.890625 12.148438 26.671875 12.441406 26.511719 12.828125 C 26.351562 13.214844 26.269531 13.769531 26.261719 14.484375 C 26.472656 14.160156 26.734375 13.921875 27.039062 13.765625 C 27.34375 13.609375 27.664062 13.53125 28 13.53125 C 28.585938 13.53125 29.085938 13.75 29.496094 14.179688 C 29.910156 14.609375 30.117188 15.167969 30.117188 15.851562 C 30.117188 16.300781 30.019531 16.71875 29.824219 17.105469 C 29.628906 17.492188 29.363281 17.785156 29.027344 17.988281 C 28.6875 18.195312 28.304688 18.296875 27.875 18.296875 C 27.140625 18.296875 26.542969 18.027344 26.082031 17.492188 C 25.621094 16.953125 25.390625 16.0625 25.390625 14.824219 C 25.390625 13.441406 25.644531 12.4375 26.15625 11.808594 C 26.601562 11.261719 27.203125 10.988281 27.957031 10.988281 C 28.519531 10.988281 28.980469 11.144531 29.339844 11.460938 C 29.699219 11.777344 29.917969 12.214844 29.988281 12.769531 Z M 26.398438 15.855469 C 26.398438 16.160156 26.464844 16.449219 26.589844 16.726562 C 26.71875 17.003906 26.902344 17.214844 27.132812 17.359375 C 27.363281 17.503906 27.605469 17.574219 27.859375 17.574219 C 28.230469 17.574219 28.550781 17.425781 28.816406 17.125 C 29.082031 16.828125 29.21875 16.417969 29.21875 15.90625 C 29.21875 15.410156 29.085938 15.019531 28.820312 14.738281 C 28.558594 14.453125 28.226562 14.308594 27.824219 14.308594 C 27.429688 14.308594 27.089844 14.453125 26.816406 14.738281 C 26.539062 15.019531 26.398438 15.394531 26.398438 15.855469 Z M 26.398438 15.855469 "/>
<path style=" stroke:none;fill-rule:nonzero;fill:rgb(0%,0%,0%);fill-opacity:1;" d="M 17.113281 30.628906 C 17.113281 29.785156 17.199219 29.101562 17.371094 28.589844 C 17.546875 28.070312 17.804688 27.671875 18.148438 27.390625 C 18.492188 27.113281 18.925781 26.972656 19.445312 26.972656 C 19.832031 26.972656 20.167969 27.050781 20.457031 27.207031 C 20.746094 27.359375 20.984375 27.582031 21.175781 27.875 C 21.363281 28.164062 21.511719 28.519531 21.621094 28.941406 C 21.726562 29.355469 21.78125 29.921875 21.78125 30.628906 C 21.78125 31.46875 21.695312 32.148438 21.523438 32.664062 C 21.347656 33.179688 21.089844 33.578125 20.746094 33.863281 C 20.402344 34.140625 19.96875 34.28125 19.445312 34.28125 C 18.757812 34.28125 18.214844 34.035156 17.820312 33.539062 C 17.347656 32.945312 17.113281 31.972656 17.113281 30.628906 Z M 18.015625 30.628906 C 18.015625 31.804688 18.152344 32.585938 18.425781 32.976562 C 18.703125 33.367188 19.042969 33.558594 19.445312 33.558594 C 19.851562 33.558594 20.1875 33.363281 20.460938 32.972656 C 20.738281 32.582031 20.878906 31.800781 20.878906 30.628906 C 20.878906 29.453125 20.738281 28.667969 20.460938 28.28125 C 20.1875 27.894531 19.847656 27.699219 19.4375 27.699219 C 19.03125 27.699219 18.710938 27.871094 18.46875 28.210938 C 18.167969 28.648438 18.015625 29.453125 18.015625 30.628906 Z M 18.015625 30.628906 "/>
<path style=" stroke:none;fill-rule:nonzero;fill:rgb(0%,0%,0%);fill-opacity:1;" d="M 23.171875 33.160156 L 24.171875 33.160156 L 24.171875 34.160156 L 23.171875 34.160156 Z M 23.171875 33.160156 "/>
<path style=" stroke:none;fill-rule:nonzero;fill:rgb(0%,0%,0%);fill-opacity:1;" d="M 28.269531 34.160156 L 28.269531 32.445312 L 25.164062 32.445312 L 25.164062 31.640625 L 28.429688 27 L 29.148438 27 L 29.148438 31.640625 L 30.117188 31.640625 L 30.117188 32.445312 L 29.148438 32.445312 L 29.148438 34.160156 Z M 28.269531 31.640625 L 28.269531 28.414062 L 26.027344 31.640625 Z M 28.269531 31.640625 "/>
<path style=" stroke:none;fill-rule:nonzero;fill:rgb(0%,0%,0%);fill-opacity:1;" d="M 17.15625 46.613281 C 17.15625 45.769531 17.242188 45.085938 17.414062 44.574219 C 17.589844 44.054688 17.851562 43.65625 18.191406 43.375 C 18.535156 43.097656 18.96875 42.957031 19.492188 42.957031 C 19.875 42.957031 20.210938 43.035156 20.5 43.191406 C 20.789062 43.34375 21.03125 43.566406 21.21875 43.859375 C 21.40625 44.148438 21.554688 44.503906 21.664062 44.925781 C 21.769531 45.339844 21.824219 45.90625 21.824219 46.613281 C 21.824219 47.453125 21.738281 48.132812 21.566406 48.648438 C 21.394531 49.164062 21.132812 49.5625 20.789062 49.847656 C 20.449219 50.125 20.015625 50.265625 19.492188 50.265625 C 18.800781 50.265625 18.257812 50.019531 17.863281 49.523438 C 17.390625 48.929688 17.15625 47.957031 17.15625 46.613281 Z M 18.058594 46.613281 C 18.058594 47.789062 18.195312 48.570312 18.46875 48.960938 C 18.746094 49.351562 19.085938 49.542969 19.492188 49.542969 C 19.894531 49.542969 20.234375 49.347656 20.507812 48.957031 C 20.78125 48.566406 20.921875 47.785156 20.921875 46.613281 C 20.921875 45.4375 20.78125 44.652344 20.507812 44.265625 C 20.234375 43.878906 19.890625 43.683594 19.480469 43.683594 C 19.078125 43.683594 18.753906 43.855469 18.515625 44.195312 C 18.210938 44.632812 18.058594 45.4375 18.058594 46.613281 Z M 18.058594 46.613281 "/>
<path style=" stroke:none;fill-rule:nonzero;fill:rgb(0%,0%,0%);fill-opacity:1;" d="M 23.214844 49.144531 L 24.21875 49.144531 L 24.21875 50.144531 L 23.214844 50.144531 Z M 23.214844 49.144531 "/>
<path style=" stroke:none;fill-rule:nonzero;fill:rgb(0%,0%,0%);fill-opacity:1;" d="M 30.117188 49.300781 L 30.117188 50.144531 L 25.382812 50.144531 C 25.378906 49.933594 25.410156 49.730469 25.488281 49.535156 C 25.605469 49.210938 25.800781 48.894531 26.0625 48.582031 C 26.328125 48.269531 26.714844 47.90625 27.214844 47.496094 C 27.992188 46.859375 28.519531 46.355469 28.792969 45.984375 C 29.066406 45.609375 29.203125 45.257812 29.203125 44.925781 C 29.203125 44.578125 29.078125 44.285156 28.828125 44.046875 C 28.578125 43.804688 28.253906 43.683594 27.855469 43.683594 C 27.429688 43.683594 27.09375 43.8125 26.839844 44.066406 C 26.585938 44.320312 26.457031 44.671875 26.453125 45.121094 L 25.550781 45.027344 C 25.613281 44.351562 25.84375 43.839844 26.25 43.488281 C 26.652344 43.132812 27.195312 42.957031 27.875 42.957031 C 28.5625 42.957031 29.105469 43.148438 29.503906 43.527344 C 29.90625 43.910156 30.105469 44.382812 30.105469 44.945312 C 30.105469 45.230469 30.046875 45.511719 29.929688 45.789062 C 29.8125 46.066406 29.617188 46.355469 29.34375 46.664062 C 29.074219 46.96875 28.621094 47.390625 27.992188 47.921875 C 27.464844 48.367188 27.125 48.667969 26.976562 48.824219 C 26.824219 48.980469 26.703125 49.140625 26.605469 49.300781 Z M 30.117188 49.300781 "/>
<path style=" stroke:none;fill-rule:nonzero;fill:rgb(0%,0%,0%);fill-opacity:1;" d="M 25.449219 62.597656 C 25.449219 61.75 25.535156 61.070312 25.707031 60.558594 C 25.882812 60.039062 26.140625 59.640625 26.484375 59.359375 C 26.828125 59.082031 27.261719 58.941406 27.78125 58.941406 C 28.164062 58.941406 28.503906 59.019531 28.792969 59.175781 C 29.082031 59.328125 29.320312 59.550781 29.511719 59.84375 C 29.699219 60.132812 29.847656 60.488281 29.953125 60.910156 C 30.0625 61.324219 30.117188 61.886719 30.117188 62.597656 C 30.117188 63.4375 30.027344 64.117188 29.855469 64.632812 C 29.683594 65.148438 29.425781 65.546875 29.082031 65.832031 C 28.738281 66.109375 28.304688 66.25 27.78125 66.25 C 27.089844 66.25 26.550781 66.003906 26.15625 65.507812 C 25.683594 64.914062 25.449219 63.941406 25.449219 62.597656 Z M 26.351562 62.597656 C 26.351562 63.773438 26.488281 64.554688 26.761719 64.945312 C 27.039062 65.335938 27.378906 65.527344 27.78125 65.527344 C 28.183594 65.527344 28.523438 65.332031 28.796875 64.941406 C 29.074219 64.550781 29.210938 63.769531 29.210938 62.597656 C 29.210938 61.417969 29.074219 60.636719 28.796875 60.25 C 28.523438 59.863281 28.183594 59.667969 27.773438 59.667969 C 27.367188 59.667969 27.046875 59.839844 26.804688 60.179688 C 26.503906 60.617188 26.351562 61.421875 26.351562 62.597656 Z M 26.351562 62.597656 "/>
<path style=" stroke:none;fill-rule:nonzero;fill:rgb(0%,0%,0%);fill-opacity:1;" d="M 13.71875 79.082031 L 16.417969 79.082031 L 16.417969 79.964844 L 13.71875 79.964844 Z M 13.71875 79.082031 "/>
<path style=" stroke:none;fill-rule:nonzero;fill:rgb(0%,0%,0%);fill-opacity:1;" d="M 17.15625 78.582031 C 17.15625 77.734375 17.242188 77.054688 17.414062 76.542969 C 17.589844 76.023438 17.851562 75.625 18.191406 75.34375 C 18.535156 75.066406 18.96875 74.925781 19.492188 74.925781 C 19.875 74.925781 20.210938 75.003906 20.5 75.160156 C 20.789062 75.3125 21.03125 75.535156 21.21875 75.828125 C 21.40625 76.117188 21.554688 76.472656 21.664062 76.894531 C 21.769531 77.308594 21.824219 77.871094 21.824219 78.582031 C 21.824219 79.421875 21.738281 80.101562 21.566406 80.617188 C 21.394531 81.132812 21.132812 81.53125 20.789062 81.816406 C 20.449219 82.09375 20.015625 82.234375 19.492188 82.234375 C 18.800781 82.234375 18.257812 81.988281 17.863281 81.492188 C 17.390625 80.898438 17.15625 79.925781 17.15625 78.582031 Z M 18.058594 78.582031 C 18.058594 79.757812 18.195312 80.539062 18.46875 80.929688 C 18.746094 81.320312 19.085938 81.511719 19.492188 81.511719 C 19.894531 81.511719 20.234375 81.316406 20.507812 80.925781 C 20.78125 80.535156 20.921875 79.753906 20.921875 78.582031 C 20.921875 77.402344 20.78125 76.621094 20.507812 76.234375 C 20.234375 75.847656 19.890625 75.652344 19.480469 75.652344 C 19.078125 75.652344 18.753906 75.824219 18.515625 76.164062 C 18.210938 76.601562 18.058594 77.40625 18.058594 78.582031 Z M 18.058594 78.582031 "/>
<path style=" stroke:none;fill-rule:nonzero;fill:rgb(0%,0%,0%);fill-opacity:1;" d="M 23.214844 81.113281 L 24.21875 81.113281 L 24.21875 82.113281 L 23.214844 82.113281 Z M 23.214844 81.113281 "/>
<path style=" stroke:none;fill-rule:nonzero;fill:rgb(0%,0%,0%);fill-opacity:1;" d="M 30.117188 81.269531 L 30.117188 82.113281 L 25.382812 82.113281 C 25.378906 81.902344 25.410156 81.699219 25.488281 81.503906 C 25.605469 81.179688 25.800781 80.863281 26.0625 80.550781 C 26.328125 80.238281 26.714844 79.875 27.214844 79.464844 C 27.992188 78.828125 28.519531 78.324219 28.792969 77.953125 C 29.066406 77.578125 29.203125 77.226562 29.203125 76.894531 C 29.203125 76.542969 29.078125 76.25 28.828125 76.015625 C 28.578125 75.773438 28.253906 75.652344 27.855469 75.652344 C 27.429688 75.652344 27.09375 75.78125 26.839844 76.035156 C 26.585938 76.289062 26.457031 76.640625 26.453125 77.089844 L 25.550781 76.996094 C 25.613281 76.320312 25.84375 75.808594 26.25 75.457031 C 26.652344 75.101562 27.195312 74.925781 27.875 74.925781 C 28.5625 74.925781 29.105469 75.117188 29.503906 75.496094 C 29.90625 75.878906 30.105469 76.347656 30.105469 76.914062 C 30.105469 77.199219 30.046875 77.480469 29.929688 77.757812 C 29.8125 78.035156 29.617188 78.324219 29.34375 78.632812 C 29.074219 78.9375 28.621094 79.355469 27.992188 79.890625 C 27.464844 80.332031 27.125 80.636719 26.976562 80.792969 C 26.824219 80.949219 26.703125 81.109375 26.605469 81.269531 Z M 30.117188 81.269531 "/>
<path style=" stroke:none;fill-rule:nonzero;fill:rgb(0%,0%,0%);fill-opacity:1;" d="M 13.675781 95.066406 L 16.375 95.066406 L 16.375 95.949219 L 13.675781 95.949219 Z M 13.675781 95.066406 "/>
<path style=" stroke:none;fill-rule:nonzero;fill:rgb(0%,0%,0%);fill-opacity:1;" d="M 17.113281 94.566406 C 17.113281 93.71875 17.199219 93.039062 17.371094 92.527344 C 17.546875 92.007812 17.804688 91.609375 18.148438 91.328125 C 18.492188 91.050781 18.925781 90.910156 19.445312 90.910156 C 19.832031 90.910156 20.167969 90.988281 20.457031 91.144531 C 20.746094 91.296875 20.984375 91.519531 21.175781 91.8125 C 21.363281 92.101562 21.511719 92.457031 21.621094 92.878906 C 21.726562 93.292969 21.78125 93.855469 21.78125 94.566406 C 21.78125 95.40625 21.695312 96.085938 21.523438 96.601562 C 21.347656 97.117188 21.089844 97.515625 20.746094 97.800781 C 20.402344 98.078125 19.96875 98.21875 19.445312 98.21875 C 18.757812 98.21875 18.214844 97.972656 17.820312 97.476562 C 17.347656 96.882812 17.113281 95.910156 17.113281 94.566406 Z M 18.015625 94.566406 C 18.015625 95.742188 18.152344 96.523438 18.425781 96.914062 C 18.703125 97.304688 19.042969 97.496094 19.445312 97.496094 C 19.851562 97.496094 20.1875 97.300781 20.460938 96.910156 C 20.738281 96.519531 20.878906 95.738281 20.878906 94.566406 C 20.878906 93.386719 20.738281 92.605469 20.460938 92.21875 C 20.1875 91.832031 19.847656 91.636719 19.4375 91.636719 C 19.03125 91.636719 18.710938 91.808594 18.46875 92.148438 C 18.167969 92.585938 18.015625 93.390625 18.015625 94.566406 Z M 18.015625 94.566406 "/>
<path style=" stroke:none;fill-rule:nonzero;fill:rgb(0%,0%,0%);fill-opacity:1;" d="M 23.171875 97.097656 L 24.171875 97.097656 L 24.171875 98.097656 L 23.171875 98.097656 Z M 23.171875 97.097656 "/>
<path style=" stroke:none;fill-rule:nonzero;fill:rgb(0%,0%,0%);fill-opacity:1;" d="M 28.269531 98.097656 L 28.269531 96.382812 L 25.164062 96.382812 L 25.164062 95.578125 L 28.429688 90.9375 L 29.148438 90.9375 L 29.148438 95.578125 L 30.117188 95.578125 L 30.117188 96.382812 L 29.148438 96.382812 L 29.148438 98.097656 Z M 28.269531 95.578125 L 28.269531 92.351562 L 26.027344 95.578125 Z M 28.269531 95.578125 "/>
<path style=" stroke:none;fill-rule:nonzero;fill:rgb(0%,0%,0%);fill-opacity:1;" d="M 33.003906 116.667969 C 33.003906 115.824219 33.089844 115.144531 33.265625 114.628906 C 33.441406 114.109375 33.699219 113.710938 34.039062 113.433594 C 34.386719 113.152344 34.816406 113.011719 35.339844 113.011719 C 35.722656 113.011719 36.058594 113.089844 36.351562 113.246094 C 36.640625 113.398438 36.878906 113.621094 37.066406 113.914062 C 37.257812 114.207031 37.40625 114.558594 37.511719 114.980469 C 37.621094 115.398438 37.671875 115.960938 37.671875 116.667969 C 37.671875 117.507812 37.585938 118.1875 37.414062 118.707031 C 37.242188 119.21875 36.984375 119.617188 36.636719 119.902344 C 36.296875 120.183594 35.863281 120.320312 35.339844 120.320312 C 34.648438 120.320312 34.105469 120.074219 33.714844 119.578125 C 33.242188 118.984375 33.003906 118.015625 33.003906 116.667969 Z M 33.910156 116.667969 C 33.910156 117.84375 34.046875 118.628906 34.320312 119.019531 C 34.59375 119.40625 34.933594 119.597656 35.339844 119.597656 C 35.742188 119.597656 36.082031 119.402344 36.355469 119.011719 C 36.632812 118.621094 36.769531 117.839844 36.769531 116.667969 C 36.769531 115.492188 36.632812 114.707031 36.355469 114.320312 C 36.082031 113.933594 35.738281 113.738281 35.328125 113.738281 C 34.925781 113.738281 34.601562 113.910156 34.363281 114.253906 C 34.058594 114.6875 33.910156 115.496094 33.910156 116.667969 Z M 33.910156 116.667969 "/>
<path style=" stroke:none;fill-rule:nonzero;fill:rgb(0%,0%,0%);fill-opacity:1;" d="M 67.414062 116.667969 C 67.414062 115.824219 67.5 115.144531 67.671875 114.628906 C 67.847656 114.109375 68.109375 113.710938 68.449219 113.433594 C 68.796875 113.152344 69.226562 113.011719 69.75 113.011719 C 70.132812 113.011719 70.46875 113.089844 70.757812 113.246094 C 71.050781 113.398438 71.289062 113.621094 71.476562 113.914062 C 71.667969 114.207031 71.8125 114.558594 71.921875 114.980469 C 72.027344 115.398438 72.082031 115.960938 72.082031 116.667969 C 72.082031 117.507812 71.996094 118.1875 71.824219 118.707031 C 71.652344 119.21875 71.394531 119.617188 71.046875 119.902344 C 70.707031 120.183594 70.273438 120.320312 69.75 120.320312 C 69.058594 120.320312 68.515625 120.074219 68.121094 119.578125 C 67.652344 118.984375 67.414062 118.015625 67.414062 116.667969 Z M 68.316406 116.667969 C 68.316406 117.84375 68.453125 118.628906 68.726562 119.019531 C 69.003906 119.40625 69.34375 119.597656 69.75 119.597656 C 70.152344 119.597656 70.492188 119.402344 70.765625 119.011719 C 71.042969 118.621094 71.179688 117.839844 71.179688 116.667969 C 71.179688 115.492188 71.042969 114.707031 70.765625 114.320312 C 70.492188 113.933594 70.148438 113.738281 69.738281 113.738281 C 69.335938 113.738281 69.011719 113.910156 68.773438 114.253906 C 68.46875 114.6875 68.316406 115.496094 68.316406 116.667969 Z M 68.316406 116.667969 "/>
<path style=" stroke:none;fill-rule:nonzero;fill:rgb(0%,0%,0%);fill-opacity:1;" d="M 73.472656 119.199219 L 74.476562 119.199219 L 74.476562 120.199219 L 73.472656 120.199219 Z M 73.472656 119.199219 "/>
<path style=" stroke:none;fill-rule:nonzero;fill:rgb(0%,0%,0%);fill-opacity:1;" d="M 79.066406 120.199219 L 78.1875 120.199219 L 78.1875 114.597656 C 77.976562 114.800781 77.695312 115.003906 77.351562 115.203125 C 77.007812 115.40625 76.703125 115.558594 76.429688 115.660156 L 76.429688 114.808594 C 76.921875 114.578125 77.351562 114.296875 77.71875 113.96875 C 78.085938 113.640625 78.347656 113.320312 78.5 113.011719 L 79.066406 113.011719 Z M 79.066406 120.199219 "/>
<path style=" stroke:none;fill-rule:nonzero;fill:rgb(0%,0%,0%);fill-opacity:1;" d="M 104.660156 116.667969 C 104.660156 115.824219 104.746094 115.144531 104.921875 114.628906 C 105.097656 114.109375 105.355469 113.710938 105.695312 113.433594 C 106.042969 113.152344 106.472656 113.011719 106.996094 113.011719 C 107.378906 113.011719 107.714844 113.089844 108.007812 113.246094 C 108.296875 113.398438 108.535156 113.621094 108.722656 113.914062 C 108.914062 114.207031 109.0625 114.558594 109.167969 114.980469 C 109.277344 115.398438 109.328125 115.960938 109.328125 116.667969 C 109.328125 117.507812 109.242188 118.1875 109.070312 118.707031 C 108.898438 119.21875 108.640625 119.617188 108.292969 119.902344 C 107.953125 120.183594 107.519531 120.320312 106.996094 120.320312 C 106.304688 120.320312 105.761719 120.074219 105.371094 119.578125 C 104.898438 118.984375 104.660156 118.015625 104.660156 116.667969 Z M 105.566406 116.667969 C 105.566406 117.84375 105.703125 118.628906 105.976562 119.019531 C 106.25 119.40625 106.589844 119.597656 106.996094 119.597656 C 107.398438 119.597656 107.738281 119.402344 108.011719 119.011719 C 108.289062 118.621094 108.425781 117.839844 108.425781 116.667969 C 108.425781 115.492188 108.289062 114.707031 108.011719 114.320312 C 107.738281 113.933594 107.394531 113.738281 106.984375 113.738281 C 106.582031 113.738281 106.257812 113.910156 106.019531 114.253906 C 105.714844 114.6875 105.566406 115.496094 105.566406 116.667969 Z M 105.566406 116.667969 "/>
<path style=" stroke:none;fill-rule:nonzero;fill:rgb(0%,0%,0%);fill-opacity:1;" d="M 110.722656 119.199219 L 111.722656 119.199219 L 111.722656 120.199219 L 110.722656 120.199219 Z M 110.722656 119.199219 "/>
<path style=" stroke:none;fill-rule:nonzero;fill:rgb(0%,0%,0%);fill-opacity:1;" d="M 117.621094 119.355469 L 117.621094 120.199219 L 112.890625 120.199219 C 112.882812 119.988281 112.917969 119.785156 112.992188 119.589844 C 113.113281 119.265625 113.304688 118.949219 113.566406 118.636719 C 113.835938 118.324219 114.21875 117.964844 114.71875 117.554688 C 115.496094 116.914062 116.023438 116.410156 116.296875 116.039062 C 116.570312 115.664062 116.707031 115.3125 116.707031 114.980469 C 116.707031 114.632812 116.582031 114.339844 116.332031 114.101562 C 116.082031 113.859375 115.761719 113.738281 115.359375 113.738281 C 114.9375 113.738281 114.597656 113.867188 114.34375 114.121094 C 114.089844 114.375 113.960938 114.726562 113.957031 115.175781 L 113.054688 115.082031 C 113.117188 114.410156 113.347656 113.894531 113.753906 113.542969 C 114.15625 113.191406 114.699219 113.011719 115.378906 113.011719 C 116.066406 113.011719 116.609375 113.203125 117.011719 113.582031 C 117.410156 113.964844 117.609375 114.4375 117.609375 115 C 117.609375 115.285156 117.550781 115.566406 117.433594 115.84375 C 117.316406 116.121094 117.121094 116.414062 116.847656 116.71875 C 116.578125 117.023438 116.128906 117.445312 115.496094 117.976562 C 114.96875 118.421875 114.628906 118.722656 114.480469 118.882812 C 114.332031 119.039062 114.207031 119.195312 114.109375 119.355469 Z M 117.621094 119.355469 "/>
<path style=" stroke:none;fill-rule:nonzero;fill:rgb(0%,0%,0%);fill-opacity:1;" d="M 142.523438 116.667969 C 142.523438 115.824219 142.613281 115.144531 142.785156 114.628906 C 142.960938 114.109375 143.21875 113.710938 143.558594 113.433594 C 143.90625 113.152344 144.339844 113.011719 144.859375 113.011719 C 145.242188 113.011719 145.582031 113.089844 145.871094 113.246094 C 146.160156 113.398438 146.398438 113.621094 146.585938 113.914062 C 146.777344 114.207031 146.925781 114.558594 147.03125 114.980469 C 147.140625 115.398438 147.191406 115.960938 147.191406 116.667969 C 147.191406 117.507812 147.105469 118.1875 146.933594 118.707031 C 146.761719 119.21875 146.503906 119.617188 146.15625 119.902344 C 145.816406 120.183594 145.382812 120.320312 144.859375 120.320312 C 144.167969 120.320312 143.628906 120.074219 143.234375 119.578125 C 142.761719 118.984375 142.523438 118.015625 142.523438 116.667969 Z M 143.429688 116.667969 C 143.429688 117.84375 143.566406 118.628906 143.839844 119.019531 C 144.117188 119.40625 144.457031 119.597656 144.859375 119.597656 C 145.261719 119.597656 145.601562 119.402344 145.875 119.011719 C 146.152344 118.621094 146.289062 117.839844 146.289062 116.667969 C 146.289062 115.492188 146.152344 114.707031 145.875 114.320312 C 145.601562 113.933594 145.257812 113.738281 144.847656 113.738281 C 144.445312 113.738281 144.125 113.910156 143.882812 114.253906 C 143.578125 114.6875 143.429688 115.496094 143.429688 116.667969 Z M 143.429688 116.667969 "/>
<path style=" stroke:none;fill-rule:nonzero;fill:rgb(0%,0%,0%);fill-opacity:1;" d="M 148.585938 119.199219 L 149.585938 119.199219 L 149.585938 120.199219 L 148.585938 120.199219 Z M 148.585938 119.199219 "/>
<path style=" stroke:none;fill-rule:nonzero;fill:rgb(0%,0%,0%);fill-opacity:1;" d="M 150.871094 118.308594 L 151.75 118.191406 C 151.851562 118.691406 152.019531 119.050781 152.261719 119.273438 C 152.503906 119.492188 152.800781 119.597656 153.148438 119.597656 C 153.5625 119.597656 153.910156 119.457031 154.195312 119.167969 C 154.480469 118.882812 154.625 118.527344 154.625 118.105469 C 154.625 117.703125 154.492188 117.371094 154.230469 117.109375 C 153.964844 116.84375 153.628906 116.714844 153.222656 116.714844 C 153.058594 116.714844 152.851562 116.746094 152.601562 116.8125 L 152.699219 116.039062 C 152.757812 116.046875 152.808594 116.050781 152.84375 116.050781 C 153.21875 116.050781 153.554688 115.953125 153.851562 115.757812 C 154.152344 115.5625 154.300781 115.261719 154.300781 114.851562 C 154.300781 114.53125 154.195312 114.265625 153.976562 114.050781 C 153.757812 113.839844 153.476562 113.734375 153.128906 113.734375 C 152.789062 113.734375 152.503906 113.84375 152.277344 114.058594 C 152.046875 114.273438 151.902344 114.59375 151.835938 115.023438 L 150.957031 114.867188 C 151.066406 114.277344 151.308594 113.824219 151.691406 113.5 C 152.070312 113.175781 152.542969 113.011719 153.109375 113.011719 C 153.5 113.011719 153.863281 113.097656 154.191406 113.265625 C 154.519531 113.433594 154.769531 113.660156 154.941406 113.949219 C 155.117188 114.238281 155.207031 114.546875 155.207031 114.871094 C 155.207031 115.183594 155.121094 115.464844 154.957031 115.71875 C 154.789062 115.972656 154.546875 116.171875 154.21875 116.324219 C 154.644531 116.421875 154.972656 116.625 155.207031 116.933594 C 155.441406 117.238281 155.558594 117.625 155.558594 118.085938 C 155.558594 118.710938 155.328125 119.242188 154.875 119.675781 C 154.417969 120.109375 153.84375 120.328125 153.144531 120.328125 C 152.515625 120.328125 151.996094 120.140625 151.578125 119.765625 C 151.164062 119.390625 150.929688 118.90625 150.871094 118.308594 Z M 150.871094 118.308594 "/>
<path style=" stroke:none;fill-rule:nonzero;fill:rgb(0%,0%,0%);fill-opacity:1;" d="M 180.441406 116.667969 C 180.441406 115.824219 180.527344 115.144531 180.699219 114.628906 C 180.875 114.109375 181.132812 113.710938 181.476562 113.433594 C 181.820312 113.152344 182.253906 113.011719 182.773438 113.011719 C 183.160156 113.011719 183.496094 113.089844 183.785156 113.246094 C 184.074219 113.398438 184.3125 113.621094 184.503906 113.914062 C 184.691406 114.207031 184.839844 114.558594 184.949219 114.980469 C 185.054688 115.398438 185.109375 115.960938 185.109375 116.667969 C 185.109375 117.507812 185.023438 118.1875 184.851562 118.707031 C 184.675781 119.21875 184.417969 119.617188 184.074219 119.902344 C 183.730469 120.183594 183.296875 120.320312 182.773438 120.320312 C 182.085938 120.320312 181.542969 120.074219 181.148438 119.578125 C 180.675781 118.984375 180.441406 118.015625 180.441406 116.667969 Z M 181.34375 116.667969 C 181.34375 117.84375 181.480469 118.628906 181.753906 119.019531 C 182.03125 119.40625 182.371094 119.597656 182.773438 119.597656 C 183.179688 119.597656 183.515625 119.402344 183.789062 119.011719 C 184.066406 118.621094 184.207031 117.839844 184.207031 116.667969 C 184.207031 115.492188 184.066406 114.707031 183.789062 114.320312 C 183.515625 113.933594 183.175781 113.738281 182.765625 113.738281 C 182.359375 113.738281 182.039062 113.910156 181.796875 114.253906 C 181.496094 114.6875 181.34375 115.496094 181.34375 116.667969 Z M 181.34375 116.667969 "/>
<path style=" stroke:none;fill-rule:nonzero;fill:rgb(0%,0%,0%);fill-opacity:1;" d="M 186.5 119.199219 L 187.5 119.199219 L 187.5 120.199219 L 186.5 120.199219 Z M 186.5 119.199219 "/>
<path style=" stroke:none;fill-rule:nonzero;fill:rgb(0%,0%,0%);fill-opacity:1;" d="M 191.597656 120.199219 L 191.597656 118.484375 L 188.492188 118.484375 L 188.492188 117.679688 L 191.757812 113.042969 L 192.476562 113.042969 L 192.476562 117.679688 L 193.445312 117.679688 L 193.445312 118.484375 L 192.476562 118.484375 L 192.476562 120.199219 Z M 191.597656 117.679688 L 191.597656 114.453125 L 189.355469 117.679688 Z M 191.597656 117.679688 "/>
<path style=" stroke:none;fill-rule:nonzero;fill:rgb(0%,0%,0%);fill-opacity:1;" d="M 218.300781 116.667969 C 218.300781 115.824219 218.386719 115.144531 218.558594 114.628906 C 218.734375 114.109375 218.992188 113.710938 219.335938 113.433594 C 219.679688 113.152344 220.113281 113.011719 220.632812 113.011719 C 221.019531 113.011719 221.355469 113.089844 221.644531 113.246094 C 221.933594 113.398438 222.171875 113.621094 222.363281 113.914062 C 222.550781 114.207031 222.699219 114.558594 222.808594 114.980469 C 222.914062 115.398438 222.96875 115.960938 222.96875 116.667969 C 222.96875 117.507812 222.882812 118.1875 222.710938 118.707031 C 222.535156 119.21875 222.277344 119.617188 221.933594 119.902344 C 221.589844 120.183594 221.15625 120.320312 220.632812 120.320312 C 219.945312 120.320312 219.402344 120.074219 219.007812 119.578125 C 218.535156 118.984375 218.300781 118.015625 218.300781 116.667969 Z M 219.203125 116.667969 C 219.203125 117.84375 219.339844 118.628906 219.613281 119.019531 C 219.890625 119.40625 220.230469 119.597656 220.632812 119.597656 C 221.039062 119.597656 221.375 119.402344 221.648438 119.011719 C 221.925781 118.621094 222.066406 117.839844 222.066406 116.667969 C 222.066406 115.492188 221.925781 114.707031 221.648438 114.320312 C 221.375 113.933594 221.035156 113.738281 220.625 113.738281 C 220.21875 113.738281 219.898438 113.910156 219.65625 114.253906 C 219.355469 114.6875 219.203125 115.496094 219.203125 116.667969 Z M 219.203125 116.667969 "/>
<path style=" stroke:none;fill-rule:nonzero;fill:rgb(0%,0%,0%);fill-opacity:1;" d="M 224.359375 119.199219 L 225.359375 119.199219 L 225.359375 120.199219 L 224.359375 120.199219 Z M 224.359375 119.199219 "/>
<path style=" stroke:none;fill-rule:nonzero;fill:rgb(0%,0%,0%);fill-opacity:1;" d="M 226.640625 118.324219 L 227.5625 118.246094 C 227.632812 118.695312 227.789062 119.035156 228.035156 119.261719 C 228.285156 119.488281 228.589844 119.597656 228.941406 119.597656 C 229.363281 119.597656 229.722656 119.441406 230.015625 119.121094 C 230.308594 118.800781 230.453125 118.378906 230.453125 117.851562 C 230.453125 117.351562 230.3125 116.953125 230.027344 116.664062 C 229.75 116.375 229.378906 116.230469 228.925781 116.230469 C 228.640625 116.230469 228.386719 116.296875 228.160156 116.425781 C 227.929688 116.550781 227.75 116.71875 227.621094 116.921875 L 226.796875 116.816406 L 227.488281 113.140625 L 231.050781 113.140625 L 231.050781 113.980469 L 228.191406 113.980469 L 227.808594 115.902344 C 228.238281 115.605469 228.6875 115.453125 229.160156 115.453125 C 229.785156 115.453125 230.3125 115.671875 230.742188 116.101562 C 231.171875 116.535156 231.386719 117.09375 231.386719 117.773438 C 231.386719 118.421875 231.195312 118.980469 230.820312 119.453125 C 230.359375 120.03125 229.734375 120.320312 228.941406 120.320312 C 228.289062 120.320312 227.757812 120.140625 227.34375 119.773438 C 226.933594 119.410156 226.699219 118.925781 226.640625 118.324219 Z M 226.640625 118.324219 "/>
<path style=" stroke:none;fill-rule:nonzero;fill:rgb(0%,0%,0%);fill-opacity:1;" d="M 256.230469 116.667969 C 256.230469 115.824219 256.316406 115.144531 256.488281 114.628906 C 256.664062 114.109375 256.921875 113.710938 257.265625 113.433594 C 257.609375 113.152344 258.042969 113.011719 258.5625 113.011719 C 258.949219 113.011719 259.285156 113.089844 259.574219 113.246094 C 259.863281 113.398438 260.105469 113.621094 260.292969 113.914062 C 260.480469 114.207031 260.628906 114.558594 260.738281 114.980469 C 260.84375 115.398438 260.898438 115.960938 260.898438 116.667969 C 260.898438 117.507812 260.8125 118.1875 260.640625 118.707031 C 260.464844 119.21875 260.207031 119.617188 259.863281 119.902344 C 259.519531 120.183594 259.089844 120.320312 258.5625 120.320312 C 257.875 120.320312 257.332031 120.074219 256.9375 119.578125 C 256.464844 118.984375 256.230469 118.015625 256.230469 116.667969 Z M 257.132812 116.667969 C 257.132812 117.84375 257.269531 118.628906 257.542969 119.019531 C 257.820312 119.40625 258.160156 119.597656 258.5625 119.597656 C 258.96875 119.597656 259.304688 119.402344 259.578125 119.011719 C 259.855469 118.621094 259.996094 117.839844 259.996094 116.667969 C 259.996094 115.492188 259.855469 114.707031 259.578125 114.320312 C 259.304688 113.933594 258.964844 113.738281 258.554688 113.738281 C 258.152344 113.738281 257.828125 113.910156 257.585938 114.253906 C 257.285156 114.6875 257.132812 115.496094 257.132812 116.667969 Z M 257.132812 116.667969 "/>
<path style=" stroke:none;fill-rule:nonzero;fill:rgb(0%,0%,0%);fill-opacity:1;" d="M 262.289062 119.199219 L 263.289062 119.199219 L 263.289062 120.199219 L 262.289062 120.199219 Z M 262.289062 119.199219 "/>
<path style=" stroke:none;fill-rule:nonzero;fill:rgb(0%,0%,0%);fill-opacity:1;" d="M 269.128906 114.792969 L 268.257812 114.863281 C 268.179688 114.519531 268.066406 114.265625 267.925781 114.109375 C 267.6875 113.859375 267.394531 113.734375 267.046875 113.734375 C 266.765625 113.734375 266.519531 113.8125 266.308594 113.96875 C 266.03125 114.171875 265.8125 114.464844 265.652344 114.851562 C 265.496094 115.242188 265.410156 115.792969 265.40625 116.507812 C 265.617188 116.1875 265.875 115.945312 266.179688 115.789062 C 266.488281 115.632812 266.808594 115.554688 267.144531 115.554688 C 267.730469 115.554688 268.226562 115.773438 268.636719 116.207031 C 269.050781 116.636719 269.257812 117.191406 269.257812 117.875 C 269.257812 118.324219 269.160156 118.742188 268.964844 119.128906 C 268.773438 119.515625 268.507812 119.808594 268.167969 120.015625 C 267.828125 120.21875 267.445312 120.320312 267.015625 120.320312 C 266.285156 120.320312 265.6875 120.054688 265.222656 119.515625 C 264.761719 118.976562 264.53125 118.085938 264.53125 116.851562 C 264.53125 115.46875 264.785156 114.460938 265.296875 113.832031 C 265.742188 113.285156 266.34375 113.011719 267.097656 113.011719 C 267.664062 113.011719 268.121094 113.171875 268.480469 113.484375 C 268.84375 113.800781 269.058594 114.238281 269.128906 114.792969 Z M 265.542969 117.878906 C 265.542969 118.183594 265.605469 118.472656 265.730469 118.75 C 265.863281 119.027344 266.042969 119.238281 266.273438 119.382812 C 266.503906 119.527344 266.746094 119.597656 267 119.597656 C 267.371094 119.597656 267.691406 119.449219 267.957031 119.148438 C 268.226562 118.851562 268.359375 118.445312 268.359375 117.929688 C 268.359375 117.433594 268.226562 117.046875 267.964844 116.761719 C 267.699219 116.476562 267.367188 116.332031 266.96875 116.332031 C 266.570312 116.332031 266.234375 116.476562 265.957031 116.761719 C 265.679688 117.046875 265.542969 117.417969 265.542969 117.878906 Z M 265.542969 117.878906 "/>
<path style=" stroke:none;fill-rule:nonzero;fill:rgb(0%,0%,0%);fill-opacity:1;" d="M 294.128906 116.667969 C 294.128906 115.824219 294.214844 115.144531 294.386719 114.628906 C 294.5625 114.109375 294.820312 113.710938 295.164062 113.433594 C 295.507812 113.152344 295.941406 113.011719 296.460938 113.011719 C 296.847656 113.011719 297.183594 113.089844 297.472656 113.246094 C 297.761719 113.398438 298 113.621094 298.191406 113.914062 C 298.378906 114.207031 298.527344 114.558594 298.636719 114.980469 C 298.742188 115.398438 298.796875 115.960938 298.796875 116.667969 C 298.796875 117.507812 298.710938 118.1875 298.539062 118.707031 C 298.363281 119.21875 298.105469 119.617188 297.761719 119.902344 C 297.417969 120.183594 296.984375 120.320312 296.460938 120.320312 C 295.773438 120.320312 295.230469 120.074219 294.835938 119.578125 C 294.363281 118.984375 294.128906 118.015625 294.128906 116.667969 Z M 295.03125 116.667969 C 295.03125 117.84375 295.167969 118.628906 295.441406 119.019531 C 295.71875 119.40625 296.058594 119.597656 296.460938 119.597656 C 296.867188 119.597656 297.203125 119.402344 297.476562 119.011719 C 297.753906 118.621094 297.894531 117.839844 297.894531 116.667969 C 297.894531 115.492188 297.753906 114.707031 297.476562 114.320312 C 297.203125 113.933594 296.863281 113.738281 296.453125 113.738281 C 296.046875 113.738281 295.726562 113.910156 295.484375 114.253906 C 295.183594 114.6875 295.03125 115.496094 295.03125 116.667969 Z M 295.03125 116.667969 "/>
<path style=" stroke:none;fill-rule:nonzero;fill:rgb(0%,0%,0%);fill-opacity:1;" d="M 300.1875 119.199219 L 301.1875 119.199219 L 301.1875 120.199219 L 300.1875 120.199219 Z M 300.1875 119.199219 "/>
<g clip-path="url(#clip3)" clip-rule="nonzero">
<path style=" stroke:none;fill-rule:nonzero;fill:rgb(0%,0%,0%);fill-opacity:1;" d="M 302.527344 113.980469 L 302.527344 113.132812 L 307.160156 113.132812 L 307.160156 113.816406 C 306.703125 114.304688 306.253906 114.949219 305.804688 115.75 C 305.355469 116.554688 305.011719 117.382812 304.769531 118.230469 C 304.59375 118.832031 304.480469 119.488281 304.429688 120.199219 L 303.527344 120.199219 C 303.539062 119.636719 303.648438 118.957031 303.859375 118.160156 C 304.070312 117.363281 304.375 116.59375 304.769531 115.855469 C 305.164062 115.113281 305.585938 114.488281 306.03125 113.980469 Z M 302.527344 113.980469 "/>
</g>
</g>
</svg>
