<?xml version="1.0" encoding="UTF-8" standalone="no"?>
<svg
   width="307.160339pt"
   height="139.586075pt"
   viewBox="0 0 307.160339 139.586075"
   version="1.1"
   id="svg47425"
   sodipodi:docname="QRES.svg"
   inkscape:version="1.2 (dc2aedaf03, 2022-05-15)"
   xmlns:inkscape="http://www.inkscape.org/namespaces/inkscape"
   xmlns:sodipodi="http://sodipodi.sourceforge.net/DTD/sodipodi-0.dtd"
   xmlns="http://www.w3.org/2000/svg"
   xmlns:svg="http://www.w3.org/2000/svg">
  <sodipodi:namedview
     id="namedview47427"
     pagecolor="#505050"
     bordercolor="#eeeeee"
     borderopacity="1"
     inkscape:showpageshadow="0"
     inkscape:pageopacity="0"
     inkscape:pagecheckerboard="0"
     inkscape:deskcolor="#505050"
     inkscape:document-units="pt"
     showgrid="false"
     inkscape:zoom="3.8896623"
     inkscape:cx="204.90211"
     inkscape:cy="93.195751"
     inkscape:window-width="3840"
     inkscape:window-height="2080"
     inkscape:window-x="-11"
     inkscape:window-y="-11"
     inkscape:window-maximized="1"
     inkscape:current-layer="svg47425" />
  <defs
     id="defs47182">
    <clipPath
       id="clip1">
      <path
         d="M 164 130 L 167 130 L 167 139.585938 L 164 139.585938 Z M 164 130 "
         id="path47173" />
    </clipPath>
    <clipPath
       id="clip2">
      <path
         d="M 179 130 L 182 130 L 182 139.585938 L 179 139.585938 Z M 179 130 "
         id="path47176" />
    </clipPath>
    <clipPath
       id="clip3">
      <path
         d="M 302 113 L 307.160156 113 L 307.160156 121 L 302 121 Z M 302 113 "
         id="path47179" />
    </clipPath>
  </defs>
  <path
     style="fill:none;stroke:#ffffff;stroke-width:1.2;stroke-linecap:square;stroke-linejoin:miter;stroke-miterlimit:10;stroke-opacity:1"
     d="M 33.628906,109.98047 H 300.26953"
     id="path47248" />
  <path
     style="fill:none;stroke:#ffffff;stroke-width:1.2;stroke-linecap:square;stroke-linejoin:miter;stroke-miterlimit:10;stroke-opacity:1"
     d="M 33.628906,0.601562 H 300.26953"
     id="path47250" />
  <path
     style="fill:none;stroke:#ffffff;stroke-width:1.2;stroke-linecap:square;stroke-linejoin:miter;stroke-miterlimit:10;stroke-opacity:1"
     d="m 33.628906,109.98047 v -2.80469"
     id="path47252" />
  <path
     style="fill:none;stroke:#ffffff;stroke-width:1.2;stroke-linecap:square;stroke-linejoin:miter;stroke-miterlimit:10;stroke-opacity:1"
     d="m 71.71875,109.98047 v -2.80469"
     id="path47254" />
  <path
     style="fill:none;stroke:#ffffff;stroke-width:1.2;stroke-linecap:square;stroke-linejoin:miter;stroke-miterlimit:10;stroke-opacity:1"
     d="m 109.8125,109.98047 v -2.80469"
     id="path47256" />
  <path
     style="fill:none;stroke:#ffffff;stroke-width:1.2;stroke-linecap:square;stroke-linejoin:miter;stroke-miterlimit:10;stroke-opacity:1"
     d="m 147.90234,109.98047 v -2.80469"
     id="path47258" />
  <path
     style="fill:none;stroke:#ffffff;stroke-width:1.2;stroke-linecap:square;stroke-linejoin:miter;stroke-miterlimit:10;stroke-opacity:1"
     d="m 185.99609,109.98047 v -2.80469"
     id="path47260" />
  <path
     style="fill:none;stroke:#ffffff;stroke-width:1.2;stroke-linecap:square;stroke-linejoin:miter;stroke-miterlimit:10;stroke-opacity:1"
     d="m 224.08594,109.98047 v -2.80469"
     id="path47262" />
  <path
     style="fill:none;stroke:#ffffff;stroke-width:1.2;stroke-linecap:square;stroke-linejoin:miter;stroke-miterlimit:10;stroke-opacity:1"
     d="m 262.17578,109.98047 v -2.80469"
     id="path47264" />
  <path
     style="fill:none;stroke:#ffffff;stroke-width:1.2;stroke-linecap:square;stroke-linejoin:miter;stroke-miterlimit:10;stroke-opacity:1"
     d="m 300.26953,109.98047 v -2.80469"
     id="path47266" />
  <path
     style="fill:none;stroke:#ffffff;stroke-width:1.2;stroke-linecap:square;stroke-linejoin:miter;stroke-miterlimit:10;stroke-opacity:1"
     d="M 33.628906,0.601562 V 3.402344"
     id="path47268" />
  <path
     style="fill:none;stroke:#ffffff;stroke-width:1.2;stroke-linecap:square;stroke-linejoin:miter;stroke-miterlimit:10;stroke-opacity:1"
     d="M 71.71875,0.601562 V 3.402344"
     id="path47270" />
  <path
     style="fill:none;stroke:#ffffff;stroke-width:1.2;stroke-linecap:square;stroke-linejoin:miter;stroke-miterlimit:10;stroke-opacity:1"
     d="M 109.8125,0.601562 V 3.402344"
     id="path47272" />
  <path
     style="fill:none;stroke:#ffffff;stroke-width:1.2;stroke-linecap:square;stroke-linejoin:miter;stroke-miterlimit:10;stroke-opacity:1"
     d="M 147.90234,0.601562 V 3.402344"
     id="path47274" />
  <path
     style="fill:none;stroke:#ffffff;stroke-width:1.2;stroke-linecap:square;stroke-linejoin:miter;stroke-miterlimit:10;stroke-opacity:1"
     d="M 185.99609,0.601562 V 3.402344"
     id="path47276" />
  <path
     style="fill:none;stroke:#ffffff;stroke-width:1.2;stroke-linecap:square;stroke-linejoin:miter;stroke-miterlimit:10;stroke-opacity:1"
     d="M 224.08594,0.601562 V 3.402344"
     id="path47278" />
  <path
     style="fill:none;stroke:#ffffff;stroke-width:1.2;stroke-linecap:square;stroke-linejoin:miter;stroke-miterlimit:10;stroke-opacity:1"
     d="M 262.17578,0.601562 V 3.402344"
     id="path47280" />
  <path
     style="fill:none;stroke:#ffffff;stroke-width:1.2;stroke-linecap:square;stroke-linejoin:miter;stroke-miterlimit:10;stroke-opacity:1"
     d="M 300.26953,0.601562 V 3.402344"
     id="path47282" />
  <path
     style="fill:none;stroke:#ffffff;stroke-width:1.2;stroke-linecap:square;stroke-linejoin:miter;stroke-miterlimit:10;stroke-opacity:1"
     d="M 33.628906,109.98047 V 0.601562"
     id="path47284" />
  <path
     style="fill:none;stroke:#ffffff;stroke-width:1.2;stroke-linecap:square;stroke-linejoin:miter;stroke-miterlimit:10;stroke-opacity:1"
     d="M 300.26953,109.98047 V 0.601562"
     id="path47286" />
  <path
     style="fill:none;stroke:#ffffff;stroke-width:1.2;stroke-linecap:square;stroke-linejoin:miter;stroke-miterlimit:10;stroke-opacity:1"
     d="m 33.628906,94.320312 h 2.664063"
     id="path47288" />
  <path
     style="fill:none;stroke:#ffffff;stroke-width:1.2;stroke-linecap:square;stroke-linejoin:miter;stroke-miterlimit:10;stroke-opacity:1"
     d="m 33.628906,78.324219 h 2.664063"
     id="path47290" />
  <path
     style="fill:none;stroke:#ffffff;stroke-width:1.2;stroke-linecap:square;stroke-linejoin:miter;stroke-miterlimit:10;stroke-opacity:1"
     d="m 33.628906,62.328125 h 2.664063"
     id="path47292" />
  <path
     style="fill:none;stroke:#ffffff;stroke-width:1.2;stroke-linecap:square;stroke-linejoin:miter;stroke-miterlimit:10;stroke-opacity:1"
     d="m 33.628906,46.332031 h 2.664063"
     id="path47294" />
  <path
     style="fill:none;stroke:#ffffff;stroke-width:1.2;stroke-linecap:square;stroke-linejoin:miter;stroke-miterlimit:10;stroke-opacity:1"
     d="m 33.628906,30.339844 h 2.664063"
     id="path47296" />
  <path
     style="fill:none;stroke:#ffffff;stroke-width:1.2;stroke-linecap:square;stroke-linejoin:miter;stroke-miterlimit:10;stroke-opacity:1"
     d="m 33.628906,14.34375 h 2.664063"
     id="path47298" />
  <path
     style="fill:none;stroke:#ffffff;stroke-width:1.2;stroke-linecap:square;stroke-linejoin:miter;stroke-miterlimit:10;stroke-opacity:1"
     d="m 300.26953,94.320312 h -2.66797"
     id="path47300" />
  <path
     style="fill:none;stroke:#ffffff;stroke-width:1.2;stroke-linecap:square;stroke-linejoin:miter;stroke-miterlimit:10;stroke-opacity:1"
     d="m 300.26953,78.324219 h -2.66797"
     id="path47302" />
  <path
     style="fill:none;stroke:#ffffff;stroke-width:1.2;stroke-linecap:square;stroke-linejoin:miter;stroke-miterlimit:10;stroke-opacity:1"
     d="m 300.26953,62.328125 h -2.66797"
     id="path47304" />
  <path
     style="fill:none;stroke:#ffffff;stroke-width:1.2;stroke-linecap:square;stroke-linejoin:miter;stroke-miterlimit:10;stroke-opacity:1"
     d="m 300.26953,46.332031 h -2.66797"
     id="path47306" />
  <path
     style="fill:none;stroke:#ffffff;stroke-width:1.2;stroke-linecap:square;stroke-linejoin:miter;stroke-miterlimit:10;stroke-opacity:1"
     d="m 300.26953,30.339844 h -2.66797"
     id="path47308" />
  <path
     style="fill:none;stroke:#ffffff;stroke-width:1.2;stroke-linecap:square;stroke-linejoin:miter;stroke-miterlimit:10;stroke-opacity:1"
     d="m 300.26953,14.34375 h -2.66797"
     id="path47310" />
  <path
     style="fill:none;stroke:#ffffff;stroke-width:0.8;stroke-linecap:butt;stroke-linejoin:bevel;stroke-miterlimit:10;stroke-opacity:1"
     d="m 34.007812,44.21875 0.382813,-30.121094 0.378906,7.367188 0.382813,8.320312 0.378906,8.84375 0.382812,6.773438 0.378907,8.054687 0.382812,8.925781 0.378907,-29.425781 0.382812,9.710938 0.378906,7.101562 0.382813,8.832031 0.382812,-26.621093 0.378907,9.488281 0.382812,8.496094 0.378906,9.945312 0.382813,-27.082031 0.378906,9.589844 0.382813,-27.582031 0.378906,11.375 0.382812,10.640624 0.378906,10.386719 0.382813,9.460938 0.378906,-25.355469 0.382813,11.324219 0.378906,9.558593 0.382812,9.425782 0.378907,-22.992188 0.382812,-27.089844 0.378907,11.546876 0.382812,12.453124 0.378906,11.570313 0.382813,-25.675781 0.378906,14.089844 0.382813,11.683593 0.378906,11.730469 0.382812,-26.46875 0.378906,12.316406 0.382813,11.105469 0.378906,-22.539063 0.382813,13.316407 0.378906,12.269531 0.382812,-23.691406 0.378907,12.5 0.382812,-23.179688 0.378907,14.03125 0.382812,-25.625 0.382812,14.773438 0.378907,14.890625 0.382812,11.394531"
     id="path47312" />
  <path
     style="fill:none;stroke:#ffffff;stroke-width:0.8;stroke-linecap:butt;stroke-linejoin:bevel;stroke-miterlimit:10;stroke-opacity:1"
     d="M 52.675781,54.0625 53.054688,33.25 53.4375,47.238281 l 0.378906,-24.816406 0.382813,15.035156 0.378906,-23.359375 0.382813,15.457032 0.378906,14.324218 0.382812,-23.449218 0.378906,15.140624 0.382813,13.246094 0.378906,13.332032 0.382813,-19.375 0.378906,13.285156 0.382812,-20.488282 0.378907,-24.835937 0.382812,17.261719 0.378907,15.703125 0.382812,14.609375 0.378906,-20.851563 0.382813,13.566407 0.378906,-20.164063 0.382813,16.378906 0.378906,-22.742187 0.382812,16.457031 0.378906,-22.722656 0.382813,17.53125 0.378906,-25.265625 0.382813,15.613281 0.378906,16.121094 0.382812,15.09375 0.378907,-18.695313 0.382812,15.128906 0.382813,-21.21875 0.378906,15.082032 0.382812,-21.125 0.378907,17.390625 0.382812,-21.34375 0.378907,14.675781 0.382812,15.238281 0.378906,-18.792969 0.382813,-22.296874 0.378906,16.765624 0.382813,16.285157 0.378906,-20.753907 0.382812,15.460938 0.378906,16.117188 0.382813,14.148437 0.378906,15.601563 0.382813,-19.621094"
     id="path47314" />
  <path
     style="fill:none;stroke:#ffffff;stroke-width:0.8;stroke-linecap:butt;stroke-linejoin:bevel;stroke-miterlimit:10;stroke-opacity:1"
     d="m 71.339844,65.371094 0.378906,14.941406 0.382812,15.605469 0.378907,-20.5 0.382812,-19.054688 0.378907,15.835938 0.382812,13.867187 0.378906,-19.898437 0.382813,14.792969 0.378906,16.824218 0.382813,-21.085937 0.378906,-20.203125 0.382812,13.992187 0.378906,-17.769531 0.382813,14.96875 0.378906,14.144531 0.382813,15.316407 0.378906,-22.664063 0.382812,14.847656 0.382813,-19.25 0.378906,13.222657 0.382813,15.328124 0.378906,-21.214843 0.382812,-19.863281 0.378907,14.019531 0.382812,-19.925781 0.378907,14.144531 0.382812,13.90625 0.378906,14.613281 0.382813,-20.410156 0.378906,-21.394532 0.382813,14.269532 0.378906,14 0.382812,-20.617188 0.378906,14.730469 0.382813,13.554687 0.378906,13.671878 0.382813,-23.082034 0.378906,14.917969 0.382812,-22.378906 0.378907,13.097656 0.382812,15.210937 0.378907,-22.457031 0.382812,-21.980469 0.378906,13.183594 0.382813,12.445313 0.378906,14.046875 0.382813,-24.632813 0.378906,13.652344 0.382812,13.746094"
     id="path47316" />
  <path
     style="fill:none;stroke:#ffffff;stroke-width:0.8;stroke-linecap:butt;stroke-linejoin:bevel;stroke-miterlimit:10;stroke-opacity:1"
     d="M 90.003906,97.886719 90.382812,74.890625 90.765625,51.878906 91.144531,63.4375 91.527344,75.804688 91.910156,54.625 l 0.378906,10.214844 0.382813,11.539062 0.378906,-24.101562 0.382813,10.53125 0.378906,12.183594 0.382812,10.824218 0.378907,12.628906 0.382812,-23.960937 0.378907,10.382813 0.382812,12.414062 0.378906,-26.792969 0.382813,12.214844 0.378906,-23.878906 0.382813,9.804687 0.378906,9.496094 0.382812,-24.785156 0.378906,9.46875 0.382813,11.675781 0.378906,8.886719 0.382813,9.65625 0.378906,-24.398438 0.38281,7.929688 0.37891,-25.304688 0.38281,8.058594 0.37891,10.105469 0.38281,7.691406 0.37891,-24.390625 0.38281,7.957031 0.37891,8.683594 0.38281,7.625 0.3789,-26.464844 0.38282,7.527344 0.3789,7.566406 0.38282,7.542969 0.38281,6.644531 0.3789,8.503907 0.38282,6.78125 0.3789,-28.039063 0.38282,6.117187 0.3789,6.941407 0.38281,6.902343 0.37891,5.523438 0.38281,5.757812 L 108.66797,70.25"
     id="path47318" />
  <path
     style="fill:none;stroke:#ffffff;stroke-width:0.8;stroke-linecap:butt;stroke-linejoin:bevel;stroke-miterlimit:10;stroke-opacity:1"
     d="m 108.66797,70.25 0.38281,5.554688 0.37891,4.921874 0.38281,-28.566406 0.37891,4.957032 0.38281,6.042968 0.37891,4.9375 0.38281,4.707032 0.3789,3.753906 0.38282,5.300781 0.3789,5.242187 0.38282,4.367188 0.3789,2.652344 0.38281,4.511718 L 114,66.582031 l 0.38281,4.3125 0.37891,2.832031 0.38281,3.828126 0.37891,2.144531 0.38281,3.492187 0.37891,2.835938 0.38281,1.367187 0.37891,1.566407 0.38281,3.582031 0.3789,2.542969 0.38282,2.699218 0.38281,1.808594 0.37891,-0.726562 0.38281,-32.808594 0.3789,0.988281 0.38282,1.664063 0.3789,0.648437 0.38282,0.03516 0.3789,1.023438 0.38281,-0.230469 0.37891,-0.628906 0.38281,0.859375 0.37891,-0.542969 0.38281,-0.515625 0.37891,-0.9375 0.38281,-1.191406 0.37891,0.222656 0.38281,32.710931 0.37891,-0.570306 0.38281,-1.808594 0.3789,-2.441406 0.38282,-2.316406 0.3789,-2.1875 0.38282,-3.316406 0.3789,-1.792969"
     id="path47320" />
  <path
     style="fill:none;stroke:#ffffff;stroke-width:0.8;stroke-linecap:butt;stroke-linejoin:bevel;stroke-miterlimit:10;stroke-opacity:1"
     d="m 127.33203,85.730469 0.38281,-2.464844 0.37891,-2.894531 0.38281,-2.953125 0.37891,-2.425781 0.38281,-4.503907 0.37891,-1.992187 0.38281,31.386718 0.37891,-3.902343 0.38281,-3.511719 0.3789,-5.039062 0.38282,-3.890626 0.38281,-5.414062 0.37891,-3.730469 0.38281,-3.976562 0.3789,-4.761719 0.38282,-6.457031 0.3789,-5.429688 0.38282,28.933594 0.3789,-5.617187 0.38281,-6.597657 0.37891,31.628909 0.38281,-7.410159 0.37891,-5.828125 0.38281,-7.019531 0.37891,-6.503906 0.38281,-5.996094 0.37891,27.671875 0.38281,-8.136719 0.37891,-8.445312 0.38281,-6.546875 0.3789,-7.125 0.38282,-6.804688 0.3789,-8.09375 0.38282,26.246094 0.3789,-7.753906 0.38281,-7.367188 0.37891,-8.886718 0.38281,25.683593 0.37891,-9.191406 0.38281,-9.019531 0.37891,-7.953125 0.38281,25.507812 0.37891,-8.472656 0.38281,24.671875 0.37891,-9.546875 0.38281,-10.378906 0.38281,-9.625 0.37891,-9.296875 L 146,80.320312"
     id="path47322" />
  <path
     style="fill:none;stroke:#ffffff;stroke-width:0.8;stroke-linecap:butt;stroke-linejoin:bevel;stroke-miterlimit:10;stroke-opacity:1"
     d="m 146,80.320312 0.37891,-9.3125 0.38281,-10.332031 0.3789,23.464844 0.38282,-10.925781 0.3789,25.550781 0.38282,-11.335937 0.3789,-10.972657 0.38281,-10.296875 0.37891,21.980469 0.38281,-10.191406 0.37891,-12.128907 0.38281,-10.617187 0.37891,24.902344 0.38281,-11.394531 0.37891,-11.5 0.38281,20.207031 0.37891,-10.640625 0.38281,-11.859375 0.3789,23.207031 0.38282,22.86719 0.3789,-12.832034 0.38282,-13.066406 0.3789,22.691406 0.38281,-14.054687 0.37891,-11.53125 0.38281,-13.144531 0.37891,20.007812 0.38281,-12.710938 0.37891,22.527344 0.38281,-13.773437 0.38281,22.78125 0.37891,-15.183594 0.38281,-13.3125 0.37891,22.742187 0.38281,-15.753906 0.37891,-11.863281 0.38281,19.621094 0.37891,-13.242188 0.38281,-14.398437 0.3789,20.0625 0.38282,22.296875 0.3789,-15.480469 0.38282,-14.296875 0.3789,-14.160156 0.38281,21.988281 0.37891,-15.453125 0.38281,19.019531 0.37891,-14.78125 0.38281,21.472656"
     id="path47324" />
  <path
     style="fill:none;stroke:#ffffff;stroke-width:0.8;stroke-linecap:butt;stroke-linejoin:bevel;stroke-miterlimit:10;stroke-opacity:1"
     d="m 164.66406,87.164062 0.37891,-15.027343 0.38281,21.074219 0.37891,-15.261719 0.38281,22.035156 0.37891,-15.3125 0.38281,-13.664063 0.3789,-15.5625 0.38282,20.207032 0.3789,-14.796875 0.38282,19.582031 0.3789,-15.066406 0.38281,20.164062 0.37891,-15.285156 0.38281,20.648438 0.37891,-15.792969 0.38281,-14.945313 0.38281,18.875 0.37891,20.847656 0.38281,-15.515624 0.37891,-15.269532 0.38281,18.785156 0.37891,-14.15625 0.38281,-14.757812 0.37891,-15.082031 0.38281,-16.820313 0.37891,20.894532 0.38281,-15.769532 0.3789,-16.207031 0.38282,20.269531 0.3789,20.222656 0.38282,-13.808593 0.3789,-17.0625 0.38281,21.371093 0.37891,-15.53125 0.38281,-17.347656 0.37891,21.355469 0.38281,21.246094 0.37891,-15.453125 0.38281,19.726562 0.37891,-14.4375 0.38281,-15.164062 0.37891,-16.734375 0.38281,24.75 0.3789,-16.472657 0.38282,21.304688 0.3789,-14.839844 0.38282,-17.808594 0.3789,24.289063 0.38281,19.121094"
     id="path47326" />
  <path
     style="fill:none;stroke:#ffffff;stroke-width:0.8;stroke-linecap:butt;stroke-linejoin:bevel;stroke-miterlimit:10;stroke-opacity:1"
     d="M 183.32812,54.980469 183.70703,41.25 l 0.38281,20.601562 0.38282,-14.75 0.3789,-15.121093 0.38281,-15.894531 0.37891,23.597656 0.38281,20.03125 0.37891,-12.476563 0.38281,-16.378906 0.37891,21.367187 0.38281,-12.542968 0.37891,-15.296875 0.38281,22.1875 0.37891,-14.59375 0.38281,-15.167969 0.3789,24.4375 0.38282,-15.644531 0.3789,-14.238281 0.38282,25.3125 0.3789,20.644531 0.38281,-12.871094 0.37891,-13.183594 0.38281,-14.1875 0.37891,24.386719 0.38281,-13.472656 0.37891,-13.898438 0.38281,23.355469 0.37891,24.929687 0.38281,-13.210937 0.37891,-12.492187 0.38281,22.359374 0.3789,-12.207031 0.38282,-11.261719 0.3789,26.8125 0.38282,-13.210937 0.3789,-12.320313 0.38281,-11.917968 0.38282,-12.390625 0.3789,26.804687 0.38282,-13.238281 0.3789,-11.472656 0.38281,26.6875 0.37891,-11.382813 0.38281,24.121094 0.37891,-9.84375 0.38281,-11.675781 0.37891,26.722656 0.38281,-10.027344 0.37891,-10.113281"
     id="path47328" />
  <path
     style="fill:none;stroke:#ffffff;stroke-width:0.8;stroke-linecap:butt;stroke-linejoin:bevel;stroke-miterlimit:10;stroke-opacity:1"
     d="m 201.99219,39.125 0.38281,-10.296875 0.37891,-11.136719 0.38281,27.171875 0.3789,-9.292969 0.38282,26.28125 0.3789,-10.09375 0.38282,-7.472656 0.3789,-8.730468 0.38281,24.183593 0.37891,-7.511719 0.38281,-8.007812 0.37891,-8.648438 0.38281,27.273438 0.37891,-7.1875 0.38281,-9.082031 0.37891,-6.054688 0.38281,-8.324219 0.37891,-8.558593 0.38281,-8.261719 0.3789,30.800781 0.38282,-8.292969 0.3789,-7.152343 0.38282,-5.359375 0.38281,-7.449219 0.3789,-7.425781 0.38282,32.585937 0.3789,-6.789062 0.38282,-6.351563 0.3789,28.933594 0.38281,-4.8125 0.37891,-4.480469 0.38281,-5.234375 0.37891,-4.480468 0.38281,-4.296876 0.37891,-6.03125 0.38281,-4.554687 0.37891,-4.105469 0.38281,-3.949218 0.37891,-6.300782 0.38281,34.773438 0.3789,-4.078125 0.38282,-2.664063 0.3789,-2.898437 0.38282,-4.902344 0.3789,-1.542969 0.38281,-3.589844 0.37891,-2.0625 0.38281,-3.554687 0.37891,-3.296875"
     id="path47330" />
  <path
     style="fill:none;stroke:#ffffff;stroke-width:0.8;stroke-linecap:butt;stroke-linejoin:bevel;stroke-miterlimit:10;stroke-opacity:1"
     d="m 220.65625,16.8125 0.38281,-1.4375 0.37891,-1.277344 0.38281,-3.363281 0.37891,37.46875 0.38281,-1.667969 0.37891,-1.023437 0.38281,-1.058594 0.3789,-0.871094 0.38282,-1.164062 0.38281,0.175781 0.37891,-0.664062 0.38281,0.210937 0.3789,0.558594 0.38282,0.882812 0.3789,0.9375 0.38282,-0.300781 0.3789,0.644531 0.38281,1.3125 0.37891,2.105469 0.38281,-0.53125 0.37891,-33.652344 0.38281,1.355469 0.37891,0.761719 0.38281,3.335937 0.37891,3.363281 0.38281,2.152344 0.37891,3.628906 0.38281,2.683594 0.3789,3.882813 0.38282,2.855469 0.3789,3.800781 0.38282,2.710937 0.3789,-34.570312 0.38281,4.578125 0.37891,3.648437 0.38281,5.640625 0.37891,4.207031 0.38281,4.226563 0.37891,5.097656 0.38281,4.472657 0.37891,5.820312 0.38281,5.527344 0.37891,3.40625 0.38281,6.523437 0.38281,-28.613281 0.37891,7.082031 0.38281,5.5625 0.37891,-31.742187 0.38281,7.046875"
     id="path47332" />
  <path
     style="fill:none;stroke:#ffffff;stroke-width:0.8;stroke-linecap:butt;stroke-linejoin:bevel;stroke-miterlimit:10;stroke-opacity:1"
     d="m 239.32422,22.542969 0.3789,7.148437 0.38282,5.761719 0.3789,8.128906 0.38282,-29.484375 0.3789,7.367188 0.38281,9.117187 0.37891,7.535157 0.38281,7.503906 L 242.75,51.5 l 0.38281,9.226562 0.37891,-27.898437 0.38281,8.289063 0.37891,8.464843 0.38281,7.621094 0.37891,-24.90625 0.38281,9.621094 0.3789,7.816406 0.38282,9.128906 0.3789,-26.855469 0.38282,10.765626 0.3789,-28.675782 0.38281,10.835938 0.37891,10.828125 0.38281,11.476562 0.37891,8.871094 0.38281,-25.792969 0.37891,11.035156 0.38281,9.4375 0.37891,10.363282 0.38281,-22.523438 0.38281,-27.261718 0.37891,11.078124 0.38281,13.125 0.37891,10.964844 0.38281,-25.070312 0.37891,12.632812 0.38281,11.585938 0.3789,11.964844 0.38282,-26.378907 0.3789,13.066407 0.38282,10.054687 0.3789,-22.09375 0.38281,14.375 0.37891,11.40625 0.38281,-24.058594 0.37891,12.515625 0.38281,-22.898437 0.37891,13.214843 0.38281,-24.621093"
     id="path47334" />
  <path
     style="fill:none;stroke:#ffffff;stroke-width:0.8;stroke-linecap:butt;stroke-linejoin:bevel;stroke-miterlimit:10;stroke-opacity:1"
     d="m 257.98828,12.230469 0.37891,13.878906 0.38281,15.242187 0.37891,12.425782 0.38281,-21.664063 0.3789,14.558594 0.38282,-24.128906 0.3789,14.308593 0.38282,-22.753906 0.3789,13.898438 0.38281,15.96875 0.37891,-24.28125 0.38281,15.210937 0.37891,12.199219 0.38281,14.558594 0.37891,-19.839844 0.38281,14.296875 0.38281,-22.089844 0.37891,13.628907 0.38281,-20.117188 0.37891,16.355469 0.38281,13.324219 0.37891,-21.757813 0.38281,15.335937 0.37891,-20.148437 0.38281,15.304687 0.3789,-22.617187 0.38282,16.359375 0.3789,-22.875 0.38282,17.285156 0.3789,-26.265625 0.38281,17.4375 0.37891,17.398438 0.38281,13.253906 0.37891,-19.070313 0.38281,14.648438 0.37891,-20.769531 0.38281,15.804687 0.37891,-20.808594 0.38281,16.085938 0.37891,-20.859375 0.38281,16.578125 0.3789,14.824219 0.38282,-19.105469 0.3789,-23.191406 0.38282,17.058594 0.3789,14.8125 0.38281,-20.464844 0.37891,17.191406 0.38281,15.847656"
     id="path47336" />
  <path
     style="fill:none;stroke:#ffffff;stroke-width:0.8;stroke-linecap:butt;stroke-linejoin:bevel;stroke-miterlimit:10;stroke-opacity:1"
     d="m 276.65234,54.503906 0.37891,14.574219 0.38281,14.191406 0.38281,-17.613281 0.37891,13.488281 0.38281,16.234375 0.37891,-20.621094 0.38281,-20.171874 0.37891,15.832031 0.38281,14.253906 0.37891,-19.515625 0.38281,15.398438 0.37891,14.789062 0.38281,-18.4375 0.3789,-21.25 0.38282,14.625 0.3789,-19.390625 0.38282,14.480469 0.3789,15.066406 0.38281,15.644531 0.37891,-23.660156 0.38281,15.695313 0.37891,-20.019532 0.38281,13.789063 0.37891,16.132812 0.38281,-20.59375 0.37891,-20.214843 0.38281,14.988281 0.37891,-21.800781 0.38281,14.347656 0.3789,13.238281 0.38282,15.332031 0.3789,-19.882812 0.38282,-21.554688 0.3789,13.914063 0.38281,14.007812 0.37891,-20.703125 0.38281,14.335938 0.38282,13.667968 0.3789,15.015628 0.38281,-23.42969 0.37891,13.855469 0.38281,-20.34375 0.37891,12.589843 0.38281,13.332032 0.37891,-22.703125 0.38281,-20.382813 0.37891,13.039063 0.38281,11.640625 0.37891,14.214844"
     id="path47338" />
  <path
     style="fill:none;stroke:#ffffff;stroke-width:0.8;stroke-linecap:butt;stroke-linejoin:bevel;stroke-miterlimit:10;stroke-opacity:1"
     d="m 295.31641,93.929688 0.38281,-23.320313 0.3789,12.128906 0.38282,14.292969 0.3789,-23.128906 0.38282,-23.503906 0.3789,12.410156 0.38281,12.679687 0.37891,-22.886719 0.38281,13.054688 0.37891,11.328125 0.38281,-25.105469 0.37891,10.109375 0.38281,12.574219 0.0273,0.742188"
     id="path47340" />
  <g
     id="g48101"
     style="fill:#ffffff">
    <path
       style="fill:#ffffff;fill-opacity:1;fill-rule:nonzero;stroke:none"
       d="m 6.519531,110.03125 c 0.300781,-0.4375 0.523438,-0.84375 0.664063,-1.21484 l 0.65625,0.27734 c -0.183594,0.51563 -0.476563,1.02734 -0.878906,1.53906 0.296874,0.53125 0.445312,1.11719 0.445312,1.75782 0,0.64843 -0.15625,1.23437 -0.46875,1.76171 -0.3125,0.52735 -0.75,0.9336 -1.316406,1.22266 -0.566406,0.28125 -1.207032,0.42188 -1.914063,0.42188 C 3,115.79688 2.355469,115.65625 1.777344,115.36719 1.199219,115.08203 0.757812,114.67578 0.453125,114.14844 0.152344,113.61719 0,113.02344 0,112.37109 c 0,-0.66015 0.15625,-1.25781 0.472656,-1.78906 0.3125,-0.53125 0.753906,-0.93359 1.320313,-1.21094 0.5625,-0.27734 1.199219,-0.41796 1.90625,-0.41796 0.589843,0 1.121093,0.0898 1.59375,0.26953 0.46875,0.17578 0.878906,0.44922 1.226562,0.80859 z m -1.210937,2.08594 c 0.152344,-0.54688 0.378906,-1 0.683594,-1.35156 -0.507813,-0.5586 -1.273438,-0.83594 -2.292969,-0.83594 -0.578125,0 -1.082031,0.0977 -1.515625,0.29687 -0.433594,0.19532 -0.769532,0.48438 -1.007813,0.86328 -0.238281,0.37891 -0.359375,0.80469 -0.359375,1.27735 0,0.70312 0.242188,1.28906 0.726563,1.75781 0.480469,0.46484 1.203125,0.69531 2.164062,0.69531 0.929688,0 1.644531,-0.22656 2.140625,-0.6875 0.5,-0.46093 0.75,-1.05078 0.75,-1.76562 0,-0.33985 -0.066406,-0.66016 -0.191406,-0.95703 -0.191406,0.29297 -0.328125,0.60547 -0.410156,0.9375 z m 0,0"
       id="path47184" />
    <path
       style="fill:#ffffff;fill-opacity:1;fill-rule:nonzero;stroke:none"
       d="M 7.285156,104.39844 H 6.523438 c 0.585937,0.40234 0.878906,0.94922 0.878906,1.64453 0,0.30469 -0.058594,0.58984 -0.175782,0.85937 -0.117187,0.26172 -0.265624,0.46094 -0.441406,0.58985 -0.175781,0.1289 -0.394531,0.21484 -0.652344,0.26953 -0.171874,0.0352 -0.445312,0.0547 -0.820312,0.0547 H 2.097656 v -0.87891 h 2.878906 c 0.457032,0 0.765626,-0.0195 0.925782,-0.0547 0.230468,-0.0547 0.414062,-0.17187 0.546875,-0.35156 0.132812,-0.17969 0.195312,-0.40234 0.195312,-0.66406 0,-0.26563 -0.066406,-0.51172 -0.199219,-0.74219 -0.136718,-0.23047 -0.320312,-0.39453 -0.550781,-0.48828 -0.234375,-0.0977 -0.574219,-0.14844 -1.015625,-0.14844 h -2.78125 v -0.8789 h 5.1875 z m 0,0"
       id="path47186" />
    <path
       style="fill:#ffffff;fill-opacity:1;fill-rule:nonzero;stroke:none"
       d="m 6.644531,98.84375 c 0.277344,0.328125 0.472657,0.640625 0.585938,0.945312 0.113281,0.296878 0.171875,0.621098 0.171875,0.964848 0,0.57031 -0.136719,1.00781 -0.414063,1.3125 -0.28125,0.30859 -0.636719,0.46093 -1.070312,0.46093 -0.253907,0 -0.484375,-0.0586 -0.695313,-0.17187 -0.210937,-0.11719 -0.378906,-0.26953 -0.507812,-0.45313 -0.125,-0.1914 -0.222656,-0.40234 -0.285156,-0.63671 -0.046876,-0.17188 -0.089844,-0.4336 -0.132813,-0.78125 -0.085937,-0.707036 -0.1875,-1.230474 -0.304687,-1.566411 -0.117188,-0.0039 -0.195313,-0.0039 -0.226563,-0.0039 -0.359375,0 -0.613281,0.08203 -0.757813,0.25 -0.199218,0.222657 -0.296874,0.558594 -0.296874,1.000001 0,0.41407 0.070312,0.71875 0.21875,0.91797 0.144531,0.19531 0.398437,0.33985 0.765624,0.4336 L 3.578125,102.375 c -0.367187,-0.0781 -0.664063,-0.20703 -0.886719,-0.38672 -0.230468,-0.17578 -0.402344,-0.4375 -0.523437,-0.77344 -0.125,-0.33984 -0.1875,-0.73046 -0.1875,-1.17968 0,-0.44141 0.054687,-0.800785 0.160156,-1.078129 C 2.242188,98.679688 2.375,98.476562 2.535156,98.347656 2.691406,98.21875 2.890625,98.125 3.128906,98.074219 c 0.152344,-0.03125 0.421875,-0.04297 0.8125,-0.04297 h 1.171875 c 0.816407,0 1.332031,-0.01953 1.550781,-0.05469 C 6.878906,97.9375 7.085938,97.863281 7.285156,97.75 v 0.917969 c -0.183594,0.09375 -0.394531,0.152343 -0.640625,0.175781 z m -1.960937,0.07422 c 0.128906,0.320312 0.238281,0.796875 0.332031,1.4375 0.050781,0.35937 0.109375,0.61328 0.175781,0.76562 0.0625,0.14844 0.160156,0.26563 0.285156,0.34766 0.125,0.0781 0.265626,0.12109 0.417969,0.12109 0.234375,0 0.429688,-0.0898 0.585938,-0.26562 0.15625,-0.17969 0.234375,-0.4375 0.234375,-0.78125 0,-0.33594 -0.074219,-0.636719 -0.222656,-0.902344 C 6.34375,99.378906 6.140625,99.183594 5.882812,99.058594 5.683594,98.964844 5.390625,98.917969 5.003906,98.917969 Z m 0,0"
       id="path47188" />
    <path
       style="fill:#ffffff;fill-opacity:1;fill-rule:nonzero;stroke:none"
       d="m 7.285156,96.664062 h -5.1875 V 95.871094 H 2.835938 C 2.265625,95.492188 1.980469,94.941406 1.980469,94.222656 c 0,-0.3125 0.058593,-0.601562 0.171875,-0.859375 0.113281,-0.265625 0.257812,-0.460937 0.441406,-0.59375 0.179688,-0.128906 0.398438,-0.21875 0.648438,-0.273437 0.164062,-0.03125 0.449218,-0.04687 0.855468,-0.04687 h 3.1875 v 0.878906 h -3.15625 c -0.355468,0 -0.625,0.03516 -0.800781,0.101563 C 3.152344,93.5 3.007812,93.621094 2.90625,93.796875 c -0.109375,0.171875 -0.164062,0.375 -0.164062,0.609375 0,0.375 0.121093,0.699219 0.359374,0.972656 0.238282,0.269532 0.6875,0.40625 1.351563,0.40625 h 2.832031 z m 0,0"
       id="path47190" />
    <path
       style="fill:#ffffff;fill-opacity:1;fill-rule:nonzero;stroke:none"
       d="m 6.5,89.175781 0.777344,-0.125 c 0.050781,0.246094 0.078125,0.46875 0.078125,0.664063 0,0.316406 -0.050781,0.566406 -0.152344,0.742187 -0.101563,0.175781 -0.234375,0.296875 -0.394531,0.371094 -0.167969,0.07031 -0.515625,0.105469 -1.042969,0.105469 H 2.785156 v 0.644531 H 2.101562 V 90.933594 H 0.816406 L 0.289062,90.0625 h 1.8125 V 89.175781 H 2.785156 V 90.0625 h 3.03125 c 0.25,0 0.410156,-0.01563 0.484375,-0.04687 0.070313,-0.03125 0.125,-0.08203 0.167969,-0.148437 0.042969,-0.07422 0.066406,-0.175782 0.066406,-0.304688 0,-0.09766 -0.011718,-0.226562 -0.035156,-0.386719 z m 0,0"
       id="path47192" />
    <path
       style="fill:#ffffff;fill-opacity:1;fill-rule:nonzero;stroke:none"
       d="M 1.136719,88.316406 H 0.125 V 87.4375 h 1.011719 z m 6.148437,0 h -5.1875 V 87.4375 h 5.1875 z m 0,0"
       id="path47194" />
    <path
       style="fill:#ffffff;fill-opacity:1;fill-rule:nonzero;stroke:none"
       d="M 7.285156,86.558594 H 6.570312 L 2.78125,83.257812 c 0.019531,0.375 0.03125,0.707032 0.03125,0.992188 v 2.113281 H 2.097656 V 82.125 h 0.582032 l 3.292968,2.808594 0.597656,0.542968 C 6.542969,85.082031 6.527344,84.710938 6.527344,84.367188 V 81.96875 h 0.757812 z m 0,0"
       id="path47196" />
    <path
       style="fill:#ffffff;fill-opacity:1;fill-rule:nonzero;stroke:none"
       d="m 5.613281,77.546875 0.113281,-0.910156 c 0.53125,0.144531 0.941407,0.410156 1.234376,0.796875 0.292968,0.386718 0.441406,0.882812 0.441406,1.484375 0,0.757812 -0.234375,1.359375 -0.699219,1.808593 -0.46875,0.441407 -1.125,0.664063 -1.96875,0.664063 -0.871094,0 -1.546875,-0.226563 -2.03125,-0.675781 -0.480469,-0.449219 -0.722656,-1.03125 -0.722656,-1.746094 0,-0.695312 0.238281,-1.261719 0.710937,-1.699219 0.472656,-0.441406 1.136719,-0.660156 1.992188,-0.660156 0.050781,0 0.128906,0 0.234375,0.0039 v 3.867188 c 0.570312,-0.03125 1.003906,-0.195313 1.308593,-0.484375 0.300782,-0.289063 0.453126,-0.648438 0.453126,-1.082032 0,-0.324218 -0.085938,-0.597656 -0.253907,-0.824218 -0.167969,-0.230469 -0.441406,-0.410156 -0.8125,-0.542969 z m -1.417969,2.886719 v -2.898438 c -0.4375,0.03906 -0.765624,0.152344 -0.984374,0.332032 -0.335938,0.28125 -0.507813,0.644531 -0.507813,1.089843 0,0.402344 0.136719,0.742188 0.40625,1.019531 0.269531,0.273438 0.632813,0.425782 1.085937,0.457032 z m 0,0"
       id="path47198" />
    <path
       style="fill:#ffffff;fill-opacity:1;fill-rule:nonzero;stroke:none"
       d="m 7.285156,72.164062 h -0.65625 c 0.515625,0.328126 0.773438,0.8125 0.773438,1.453126 0,0.410156 -0.113282,0.792968 -0.34375,1.140624 -0.226563,0.34375 -0.542969,0.613282 -0.949219,0.804688 -0.410156,0.191406 -0.882813,0.285156 -1.414063,0.285156 -0.515624,0 -0.984374,-0.08594 -1.402343,-0.257812 C 2.867188,75.414062 2.542969,75.15625 2.320312,74.8125 2.09375,74.464844 1.980469,74.082031 1.980469,73.65625 c 0,-0.3125 0.070312,-0.59375 0.203125,-0.835938 C 2.3125,72.574219 2.484375,72.375 2.695312,72.222656 H 0.125 v -0.871094 h 7.160156 z m -2.589844,2.78125 c 0.664063,0 1.164063,-0.140624 1.492188,-0.421874 0.328125,-0.28125 0.492188,-0.609376 0.492188,-0.992188 0,-0.382812 -0.15625,-0.707031 -0.46875,-0.976562 -0.316407,-0.269532 -0.796876,-0.402344 -1.441407,-0.402344 -0.707031,0 -1.230469,0.136718 -1.5625,0.410156 -0.332031,0.273438 -0.496093,0.609375 -0.496093,1.007812 0,0.390626 0.160156,0.71875 0.476562,0.984376 0.320312,0.257812 0.824219,0.390624 1.507812,0.390624 z m 0,0"
       id="path47200" />
    <path
       style="fill:#ffffff;fill-opacity:1;fill-rule:nonzero;stroke:none"
       d="M 7.285156,67.0625 H 0.125 v -3.171875 c 0,-0.640625 0.066406,-1.125 0.195312,-1.457031 C 0.449219,62.101562 0.675781,61.835938 1,61.636719 1.328125,61.4375 1.6875,61.339844 2.078125,61.339844 c 0.507813,0 0.9375,0.164062 1.285156,0.492187 0.347657,0.328125 0.570313,0.835938 0.664063,1.523438 0.121094,-0.25 0.238281,-0.441407 0.355468,-0.570313 C 4.636719,62.507812 4.957031,62.246094 5.335938,62 l 1.949218,-1.246094 v 1.191406 l -1.488281,0.949219 c -0.429687,0.273438 -0.757813,0.503907 -0.988281,0.683594 -0.226563,0.175781 -0.386719,0.339844 -0.476563,0.480469 -0.09375,0.140625 -0.15625,0.285156 -0.191406,0.429687 -0.023437,0.109375 -0.035156,0.285157 -0.035156,0.527344 v 1.101563 h 3.179687 z m -4,-0.945312 v -2.039063 c 0,-0.433594 -0.042968,-0.769531 -0.132812,-1.015625 C 3.0625,62.820312 2.917969,62.632812 2.722656,62.507812 2.527344,62.378906 2.3125,62.316406 2.078125,62.316406 c -0.335937,0 -0.613281,0.125 -0.832031,0.371094 -0.21875,0.246094 -0.328125,0.632812 -0.328125,1.164062 v 2.265626 z m 0,0"
       id="path47202" />
    <path
       style="fill:#ffffff;fill-opacity:1;fill-rule:nonzero;stroke:none"
       d="m 5.613281,56.414062 0.113281,-0.910156 c 0.53125,0.144532 0.941407,0.410156 1.234376,0.796875 0.292968,0.386719 0.441406,0.882813 0.441406,1.484375 0,0.757813 -0.234375,1.359375 -0.699219,1.808594 -0.46875,0.441406 -1.125,0.664062 -1.96875,0.664062 -0.871094,0 -1.546875,-0.226562 -2.03125,-0.675781 -0.480469,-0.449219 -0.722656,-1.03125 -0.722656,-1.746093 0,-0.695313 0.238281,-1.261719 0.710937,-1.699219 0.472656,-0.441407 1.136719,-0.660157 1.992188,-0.660157 0.050781,0 0.128906,0 0.234375,0.0039 v 3.867187 c 0.570312,-0.03125 1.003906,-0.195312 1.308593,-0.484375 0.300782,-0.289062 0.453126,-0.648437 0.453126,-1.082031 0,-0.324219 -0.085938,-0.597656 -0.253907,-0.824219 -0.167969,-0.230469 -0.441406,-0.410156 -0.8125,-0.542969 z m -1.417969,2.886719 v -2.898437 c -0.4375,0.03906 -0.765624,0.152344 -0.984374,0.332031 -0.335938,0.28125 -0.507813,0.644531 -0.507813,1.089844 0,0.402343 0.136719,0.742187 0.40625,1.019531 0.269531,0.273438 0.632813,0.425781 1.085937,0.457031 z m 0,0"
       id="path47204" />
    <path
       style="fill:#ffffff;fill-opacity:1;fill-rule:nonzero;stroke:none"
       d="M 5.738281,54.75 5.601562,53.878906 c 0.347657,-0.04687 0.613282,-0.183594 0.800782,-0.40625 0.183594,-0.222656 0.277344,-0.535156 0.277344,-0.9375 0,-0.402344 -0.082032,-0.703125 -0.246094,-0.898437 C 6.269531,51.441406 6.074219,51.34375 5.855469,51.34375 5.65625,51.34375 5.5,51.42969 5.386719,51.605469 5.308594,51.722656 5.207031,52.023438 5.085938,52.503906 4.925781,53.148438 4.785156,53.59375 4.667969,53.84375 c -0.121094,0.25 -0.285157,0.4375 -0.492188,0.566406 -0.210937,0.128906 -0.445312,0.191406 -0.699219,0.191406 -0.230468,0 -0.445312,-0.05078 -0.640624,-0.15625 C 2.636719,54.339844 2.472656,54.191406 2.34375,54.011719 2.242188,53.875 2.15625,53.6875 2.089844,53.453125 2.019531,53.214844 1.980469,52.960938 1.980469,52.691406 c 0,-0.40625 0.058593,-0.761718 0.175781,-1.066406 0.117188,-0.3125 0.277344,-0.539062 0.480469,-0.683594 0.199219,-0.148437 0.464843,-0.25 0.800781,-0.304687 l 0.117188,0.859375 c -0.265626,0.03906 -0.476563,0.152344 -0.625,0.34375 -0.148438,0.183594 -0.226563,0.449218 -0.226563,0.789062 0,0.402344 0.070313,0.691406 0.203125,0.863282 0.132812,0.171874 0.289062,0.261718 0.46875,0.261718 0.113281,0 0.214844,-0.03906 0.304688,-0.109375 0.097656,-0.07031 0.175781,-0.183593 0.238281,-0.335937 0.03125,-0.08984 0.105469,-0.347656 0.222656,-0.777344 0.164063,-0.621094 0.300781,-1.054688 0.410156,-1.296875 0.105469,-0.25 0.257813,-0.441406 0.457031,-0.582031 0.203126,-0.140625 0.453126,-0.210938 0.753907,-0.210938 0.292969,0 0.570312,0.08594 0.828125,0.257813 0.257812,0.171875 0.460937,0.417969 0.601562,0.738281 0.140625,0.324219 0.210938,0.6875 0.210938,1.09375 0,0.675781 -0.140625,1.1875 -0.421875,1.542969 C 6.703125,54.425781 6.289062,54.652344 5.738281,54.75 Z m 0,0"
       id="path47206" />
    <path
       style="fill:#ffffff;fill-opacity:1;fill-rule:nonzero;stroke:none"
       d="M 1.136719,49.390625 H 0.125 v -0.878906 h 1.011719 z m 6.148437,0 h -5.1875 v -0.878906 h 5.1875 z m 0,0"
       id="path47208" />
    <path
       style="fill:#ffffff;fill-opacity:1;fill-rule:nonzero;stroke:none"
       d="m 7.285156,43.804688 h -0.65625 c 0.515625,0.328124 0.773438,0.8125 0.773438,1.453124 0,0.410157 -0.113282,0.792969 -0.34375,1.140626 -0.226563,0.34375 -0.542969,0.613281 -0.949219,0.804687 -0.410156,0.191406 -0.882813,0.285156 -1.414063,0.285156 -0.515624,0 -0.984374,-0.08594 -1.402343,-0.257812 -0.425781,-0.175781 -0.75,-0.433594 -0.972657,-0.777344 -0.226562,-0.347656 -0.339843,-0.730469 -0.339843,-1.15625 0,-0.3125 0.070312,-0.59375 0.203125,-0.835937 C 2.3125,44.214844 2.484375,44.015625 2.695312,43.863281 H 0.125 v -0.871093 h 7.160156 z m -2.589844,2.78125 c 0.664063,0 1.164063,-0.140626 1.492188,-0.421876 0.328125,-0.28125 0.492188,-0.609374 0.492188,-0.992187 0,-0.382813 -0.15625,-0.707031 -0.46875,-0.976563 -0.316407,-0.269531 -0.796876,-0.402343 -1.441407,-0.402343 -0.707031,0 -1.230469,0.136719 -1.5625,0.410156 C 2.875,44.476562 2.710938,44.8125 2.710938,45.210938 c 0,0.390624 0.160156,0.71875 0.476562,0.984374 0.320312,0.257813 0.824219,0.390626 1.507812,0.390626 z m 0,0"
       id="path47210" />
    <path
       style="fill:#ffffff;fill-opacity:1;fill-rule:nonzero;stroke:none"
       d="M 7.285156,38.207031 H 6.523438 c 0.585937,0.402344 0.878906,0.949219 0.878906,1.644531 0,0.304688 -0.058594,0.589844 -0.175782,0.859376 C 7.109375,40.972656 6.960938,41.171875 6.785156,41.300781 6.609375,41.429688 6.390625,41.515625 6.132812,41.570312 5.960938,41.605469 5.6875,41.625 5.3125,41.625 H 2.097656 v -0.878906 h 2.878906 c 0.457032,0 0.765626,-0.01953 0.925782,-0.05469 0.230468,-0.05469 0.414062,-0.171875 0.546875,-0.351562 0.132812,-0.179688 0.195312,-0.402344 0.195312,-0.664063 0,-0.265625 -0.066406,-0.511719 -0.199219,-0.742187 C 6.308594,38.703125 6.125,38.539062 5.894531,38.445312 5.660156,38.347656 5.320312,38.296875 4.878906,38.296875 h -2.78125 v -0.878906 h 5.1875 z m 0,0"
       id="path47212" />
    <path
       style="fill:#ffffff;fill-opacity:1;fill-rule:nonzero;stroke:none"
       d="m 5.613281,32.488281 0.113281,-0.910156 c 0.53125,0.144531 0.941407,0.410156 1.234376,0.796875 0.292968,0.386719 0.441406,0.882812 0.441406,1.484375 0,0.757813 -0.234375,1.359375 -0.699219,1.808594 -0.46875,0.441406 -1.125,0.664062 -1.96875,0.664062 -0.871094,0 -1.546875,-0.226562 -2.03125,-0.675781 C 2.222656,35.207031 1.980469,34.625 1.980469,33.910156 c 0,-0.695312 0.238281,-1.261718 0.710937,-1.699218 0.472656,-0.441407 1.136719,-0.660157 1.992188,-0.660157 0.050781,0 0.128906,0 0.234375,0.0039 v 3.867187 C 5.488281,35.390625 5.921875,35.226562 6.226562,34.9375 6.527344,34.648438 6.679688,34.289062 6.679688,33.855469 6.679688,33.53125 6.59375,33.257812 6.425781,33.03125 6.257812,32.800781 5.984375,32.621094 5.613281,32.488281 Z M 4.195312,35.375 v -2.898438 c -0.4375,0.03906 -0.765624,0.152344 -0.984374,0.332032 -0.335938,0.28125 -0.507813,0.644531 -0.507813,1.089844 0,0.402343 0.136719,0.742187 0.40625,1.019531 0.269531,0.273437 0.632813,0.425781 1.085937,0.457031 z m 0,0"
       id="path47214" />
    <path
       style="fill:#ffffff;fill-opacity:1;fill-rule:nonzero;stroke:none"
       d="M 9.273438,27.679688 H 0.125 v -1.941407 h 0.730469 v 1.0625 h 7.6875 v -1.0625 h 0.730469 z m 0,0"
       id="path47216" />
    <path
       style="fill:#ffffff;fill-opacity:1;fill-rule:nonzero;stroke:none"
       d="M 7.285156,24.851562 H 0.125 v -0.949218 h 6.316406 v -3.523438 h 0.84375 z m 0,0"
       id="path47218" />
    <path
       style="fill:#ffffff;fill-opacity:1;fill-rule:nonzero;stroke:none"
       d="M 4.984375,19.566406 4.90625,18.675781 c 0.359375,-0.04297 0.652344,-0.140625 0.882812,-0.292969 0.230469,-0.15625 0.414063,-0.398437 0.558594,-0.722656 0.140625,-0.328125 0.210938,-0.695312 0.210938,-1.101562 0,-0.359375 -0.054688,-0.679688 -0.164063,-0.957032 C 6.289062,15.324219 6.140625,15.121094 5.957031,14.988281 5.769531,14.851562 5.5625,14.78125 5.339844,14.78125 c -0.222656,0 -0.417969,0.06641 -0.585938,0.195312 -0.167968,0.132813 -0.308594,0.347657 -0.421875,0.644532 -0.074219,0.191406 -0.191406,0.617187 -0.347656,1.277344 -0.160156,0.65625 -0.308594,1.117187 -0.449219,1.378906 -0.179687,0.34375 -0.402344,0.597656 -0.664062,0.769531 -0.265625,0.164063 -0.566406,0.246094 -0.894532,0.246094 -0.359374,0 -0.699218,-0.101563 -1.011718,-0.304688 C 0.652344,18.78125 0.410156,18.480469 0.25,18.089844 0.0859375,17.695312 0.00390625,17.257812 0.00390625,16.773438 c 0,-0.53125 0.08593755,-0.996094 0.25781275,-1.398438 0.171875,-0.410156 0.421875,-0.722656 0.753906,-0.9375 0.332031,-0.21875 0.707031,-0.335938 1.128906,-0.351562 l 0.066407,0.90625 c -0.453126,0.05078 -0.792969,0.214843 -1.023438,0.5 -0.230469,0.277343 -0.347656,0.691406 -0.347656,1.242187 0,0.574219 0.105468,0.992187 0.316406,1.257813 0.210938,0.257812 0.460938,0.390624 0.757812,0.390624 0.257813,0 0.46875,-0.09375 0.632813,-0.28125 C 2.714844,17.921875 2.886719,17.445312 3.0625,16.675781 3.234375,15.90625 3.386719,15.375 3.515625,15.089844 c 0.191406,-0.417969 0.4375,-0.722656 0.730469,-0.921875 0.292968,-0.199219 0.632812,-0.296875 1.015625,-0.296875 0.382812,0 0.742187,0.105468 1.082031,0.324218 0.335938,0.21875 0.597656,0.535157 0.785156,0.945313 0.183594,0.40625 0.277344,0.863281 0.277344,1.375 0,0.648437 -0.09375,1.191406 -0.28125,1.632813 -0.191406,0.433593 -0.472656,0.777343 -0.851562,1.027343 -0.378907,0.25 -0.808594,0.378907 -1.289063,0.390625 z m 0,0"
       id="path47220" />
    <path
       style="fill:#ffffff;fill-opacity:1;fill-rule:nonzero;stroke:none"
       d="M 7.285156,12.605469 H 0.125 v -2.6875 c 0,-0.546875 0.074219,-0.984375 0.222656,-1.3125 0.140625,-0.332031 0.363282,-0.589844 0.667969,-0.777344 0.300781,-0.1875 0.613281,-0.28125 0.941406,-0.28125 0.308594,0 0.59375,0.082031 0.863281,0.25 0.273438,0.164063 0.488282,0.414063 0.65625,0.75 C 3.601562,8.113281 3.820312,7.78125 4.125,7.550781 4.433594,7.316406 4.792969,7.199219 5.210938,7.199219 c 0.335937,0 0.648437,0.070312 0.9375,0.214843 C 6.433594,7.554688 6.65625,7.726562 6.8125,7.9375 6.96875,8.144531 7.085938,8.40625 7.167969,8.722656 7.246094,9.035156 7.285156,9.417969 7.285156,9.875 Z M 3.132812,11.65625 V 10.109375 C 3.132812,9.691406 3.105469,9.386719 3.050781,9.207031 2.980469,8.964844 2.859375,8.785156 2.695312,8.664062 c -0.167968,-0.125 -0.375,-0.183593 -0.625,-0.183593 -0.238281,0 -0.445312,0.054687 -0.625,0.167969 C 1.261719,8.761719 1.140625,8.925781 1.074219,9.136719 1.003906,9.347656 0.972656,9.710938 0.972656,10.226562 v 1.429688 z m 3.308594,0 V 9.875 C 6.441406,9.570312 6.429688,9.355469 6.40625,9.230469 6.367188,9.011719 6.300781,8.832031 6.210938,8.683594 6.121094,8.539062 5.988281,8.417969 5.816406,8.324219 5.640625,8.226562 5.4375,8.179688 5.210938,8.179688 c -0.269532,0 -0.5,0.070312 -0.695313,0.207031 C 4.316406,8.523438 4.179688,8.714844 4.101562,8.957031 4.019531,9.199219 3.980469,9.546875 3.980469,10.003906 v 1.652344 z m 0,0"
       id="path47222" />
    <path
       style="fill:#ffffff;fill-opacity:1;fill-rule:nonzero;stroke:none"
       d="M 9.273438,4.527344 V 6.46875 H 8.542969 v -1.0625 h -7.6875 v 1.0625 H 0.125 V 4.527344 Z m 0,0"
       id="path47224" />
    <path
       style="fill:#ffffff;fill-opacity:1;fill-rule:nonzero;stroke:none"
       d="m 141.46875,137.59766 v -6.3125 h -2.35938 v -0.84375 h 5.67188 v 0.84375 h -2.36719 v 6.3125 z m 0,0"
       id="path47226" />
    <path
       style="fill:#ffffff;fill-opacity:1;fill-rule:nonzero;stroke:none"
       d="m 145.28906,131.45312 v -1.01171 h 0.87891 v 1.01171 z m 0,6.14454 v -5.1836 h 0.87891 v 5.1836 z m 0,0"
       id="path47228" />
    <path
       style="fill:#ffffff;fill-opacity:1;fill-rule:nonzero;stroke:none"
       d="m 147.52344,137.59766 v -5.1836 h 0.78515 v 0.72656 c 0.16407,-0.2539 0.37891,-0.45703 0.64844,-0.60937 0.26953,-0.15625 0.57813,-0.23438 0.92188,-0.23438 0.38671,0 0.69921,0.0781 0.94531,0.23829 0.24609,0.16015 0.42187,0.38281 0.51953,0.66796 0.41016,-0.60546 0.94531,-0.90625 1.60156,-0.90625 0.51563,0 0.91016,0.14063 1.1875,0.42969 0.27735,0.28125 0.41406,0.71875 0.41406,1.3125 v 3.5586 h -0.87109 v -3.26563 c 0,-0.35156 -0.0312,-0.60547 -0.0898,-0.75781 -0.0547,-0.15625 -0.15625,-0.28125 -0.3086,-0.375 -0.14843,-0.0937 -0.32422,-0.14063 -0.52734,-0.14063 -0.36328,0 -0.66406,0.1211 -0.90625,0.36719 -0.24219,0.23828 -0.36328,0.625 -0.36328,1.16016 v 3.01172 h -0.87891 v -3.36719 c 0,-0.39063 -0.0703,-0.6836 -0.21484,-0.87891 -0.14063,-0.19531 -0.375,-0.29297 -0.70313,-0.29297 -0.24609,0 -0.47656,0.0625 -0.6875,0.19532 -0.20703,0.1289 -0.35937,0.32031 -0.45312,0.57031 -0.0937,0.25 -0.14063,0.61328 -0.14063,1.08594 v 2.6875 z m 0,0"
       id="path47230" />
    <path
       style="fill:#ffffff;fill-opacity:1;fill-rule:nonzero;stroke:none"
       d="m 159.41016,135.92969 0.91015,0.11328 c -0.14453,0.52734 -0.41015,0.9414 -0.79687,1.23437 -0.38672,0.29297 -0.88282,0.4375 -1.48438,0.4375 -0.75781,0 -1.35937,-0.23047 -1.80469,-0.69531 -0.44531,-0.46875 -0.66406,-1.125 -0.66406,-1.96875 0,-0.875 0.22266,-1.55078 0.67188,-2.03125 0.44922,-0.48437 1.03125,-0.72266 1.75,-0.72266 0.6914,0 1.25781,0.23438 1.69922,0.70704 0.4375,0.47265 0.65625,1.13671 0.65625,1.99218 0,0.0508 0,0.12891 -0.004,0.23438 h -3.86719 c 0.0352,0.57031 0.19531,1.00781 0.48438,1.30859 0.28906,0.30469 0.65234,0.45313 1.08203,0.45313 0.32422,0 0.59765,-0.082 0.82812,-0.25391 0.22657,-0.16797 0.40625,-0.4375 0.53907,-0.80859 z m -2.88282,-1.42188 h 2.89453 c -0.0391,-0.4375 -0.14843,-0.76172 -0.33203,-0.98047 -0.28125,-0.33984 -0.64453,-0.50781 -1.08984,-0.50781 -0.40234,0 -0.74219,0.13281 -1.01953,0.40625 -0.27344,0.26953 -0.42578,0.62891 -0.45313,1.08203 z m 0,0"
       id="path47232" />
    <g
       clip-path="url(#clip1)"
       clip-rule="nonzero"
       id="g47236"
       style="fill:#ffffff">
      <path
         style="fill:#ffffff;fill-opacity:1;fill-rule:nonzero;stroke:none"
         d="m 164.22266,139.58594 v -9.14453 h 1.9375 v 0.72656 h -1.0586 v 7.6914 h 1.0586 v 0.72657 z m 0,0"
         id="path47234" />
    </g>
    <path
       style="fill:#ffffff;fill-opacity:1;fill-rule:nonzero;stroke:none"
       d="m 166.97656,137.59766 v -5.1836 h 0.78516 v 0.72656 c 0.16406,-0.2539 0.3789,-0.45703 0.64844,-0.60937 0.26953,-0.15625 0.57812,-0.23438 0.92187,-0.23438 0.38672,0 0.69922,0.0781 0.94531,0.23829 0.2461,0.16015 0.42188,0.38281 0.51953,0.66796 0.41016,-0.60546 0.94532,-0.90625 1.60157,-0.90625 0.51562,0 0.91015,0.14063 1.1875,0.42969 0.27734,0.28125 0.41406,0.71875 0.41406,1.3125 v 3.5586 h -0.87109 v -3.26563 c 0,-0.35156 -0.0312,-0.60547 -0.0898,-0.75781 -0.0547,-0.15625 -0.15625,-0.28125 -0.30859,-0.375 -0.14844,-0.0937 -0.32422,-0.14063 -0.52735,-0.14063 -0.36328,0 -0.66406,0.1211 -0.90625,0.36719 -0.24218,0.23828 -0.36328,0.625 -0.36328,1.16016 v 3.01172 h -0.8789 v -3.36719 c 0,-0.39063 -0.0703,-0.6836 -0.21485,-0.87891 -0.14062,-0.19531 -0.375,-0.29297 -0.70312,-0.29297 -0.2461,0 -0.47656,0.0625 -0.6875,0.19532 -0.20703,0.1289 -0.35938,0.32031 -0.45313,0.57031 -0.0937,0.25 -0.14062,0.61328 -0.14062,1.08594 v 2.6875 z m 0,0"
       id="path47238" />
    <path
       style="fill:#ffffff;fill-opacity:1;fill-rule:nonzero;stroke:none"
       d="m 174.96484,136.05078 0.86719,-0.13672 c 0.0508,0.34766 0.18359,0.61719 0.40625,0.80078 0.22266,0.1875 0.53516,0.27735 0.9375,0.27735 0.40234,0 0.70313,-0.082 0.89844,-0.24219 0.19531,-0.16797 0.29297,-0.35938 0.29297,-0.58203 0,-0.19922 -0.0859,-0.35547 -0.25782,-0.46875 -0.12109,-0.0781 -0.42187,-0.17578 -0.89843,-0.29688 -0.64453,-0.16406 -1.09375,-0.30468 -1.34375,-0.42187 -0.2461,-0.1211 -0.4375,-0.28516 -0.56641,-0.49219 -0.12891,-0.21094 -0.19141,-0.44531 -0.19141,-0.69922 0,-0.23047 0.0547,-0.4414 0.15625,-0.63672 0.10938,-0.19922 0.25391,-0.36328 0.4336,-0.49609 0.13672,-0.10156 0.32422,-0.18359 0.55859,-0.25391 0.23828,-0.0703 0.49219,-0.10547 0.76172,-0.10547 0.40625,0 0.76172,0.0586 1.07031,0.17579 0.3086,0.11718 0.53516,0.27734 0.6836,0.47656 0.14453,0.19922 0.24609,0.46484 0.30078,0.80078 l -0.85938,0.11719 c -0.0391,-0.26563 -0.15234,-0.47266 -0.33984,-0.625 -0.1875,-0.14844 -0.44922,-0.22266 -0.79297,-0.22266 -0.40234,0 -0.69141,0.0664 -0.86328,0.19922 -0.17188,0.13281 -0.25781,0.28906 -0.25781,0.46875 0,0.11328 0.0352,0.21484 0.10547,0.30859 0.0742,0.0937 0.18359,0.17188 0.33593,0.23438 0.0898,0.0312 0.34766,0.10547 0.77735,0.22265 0.62109,0.16797 1.05468,0.30469 1.30078,0.41016 0.24609,0.10547 0.4414,0.25781 0.57812,0.46094 0.14063,0.19922 0.21094,0.45312 0.21094,0.75 0,0.29297 -0.0859,0.57031 -0.25781,0.83203 -0.16797,0.25781 -0.41406,0.45703 -0.73828,0.60156 -0.32032,0.13672 -0.6875,0.20703 -1.09375,0.20703 -0.67188,0 -1.1875,-0.14062 -1.54297,-0.41797 -0.35156,-0.28125 -0.57422,-0.69531 -0.67188,-1.24609 z m 0,0"
       id="path47240" />
    <g
       clip-path="url(#clip2)"
       clip-rule="nonzero"
       id="g47244"
       style="fill:#ffffff">
      <path
         style="fill:#ffffff;fill-opacity:1;fill-rule:nonzero;stroke:none"
         d="m 181.78516,139.58594 h -1.9375 v -0.72657 h 1.05859 v -7.6914 h -1.05859 v -0.72656 h 1.9375 z m 0,0"
         id="path47242" />
    </g>
    <path
       style="fill:#ffffff;fill-opacity:1;fill-rule:nonzero;stroke:none"
       d="m 17.089844,14.644531 c 0,-0.84375 0.08594,-1.527343 0.257812,-2.039062 0.175782,-0.519531 0.433594,-0.917969 0.777344,-1.199219 0.34375,-0.277344 0.777344,-0.417969 1.296875,-0.417969 0.382813,0 0.722656,0.07813 1.011719,0.234375 0.289062,0.152344 0.527344,0.375 0.71875,0.667969 0.1875,0.289063 0.335937,0.644531 0.441406,1.066406 0.109375,0.414063 0.164062,0.980469 0.164062,1.6875 0,0.839844 -0.08984,1.519531 -0.261718,2.035157 -0.171875,0.515624 -0.429688,0.914062 -0.773438,1.199218 -0.34375,0.277344 -0.777344,0.417969 -1.300781,0.417969 -0.691406,0 -1.230469,-0.246094 -1.625,-0.742187 -0.472656,-0.59375 -0.707031,-1.566407 -0.707031,-2.910157 z m 0.902344,0 c 0,1.175781 0.136718,1.957031 0.410156,2.347657 0.277344,0.390624 0.617187,0.582031 1.019531,0.582031 0.402344,0 0.742187,-0.195313 1.015625,-0.585938 0.277344,-0.390625 0.414062,-1.171875 0.414062,-2.34375 0,-1.175781 -0.136718,-1.960937 -0.414062,-2.347656 -0.273438,-0.386719 -0.613281,-0.582031 -1.023438,-0.582031 -0.40625,0 -0.726562,0.171875 -0.96875,0.511718 -0.300781,0.4375 -0.453124,1.242188 -0.453124,2.417969 z m 0,0"
       id="path47342" />
    <path
       style="fill:#ffffff;fill-opacity:1;fill-rule:nonzero;stroke:none"
       d="m 23.148438,17.175781 h 1 v 1 h -1 z m 0,0"
       id="path47344" />
    <path
       style="fill:#ffffff;fill-opacity:1;fill-rule:nonzero;stroke:none"
       d="m 29.988281,12.769531 -0.875,0.07031 c -0.07813,-0.347656 -0.1875,-0.597656 -0.332031,-0.753906 -0.238281,-0.25 -0.53125,-0.375 -0.878906,-0.375 -0.277344,0 -0.523438,0.07812 -0.734375,0.234374 -0.277344,0.203126 -0.496094,0.496094 -0.65625,0.882813 -0.160157,0.386719 -0.242188,0.941406 -0.25,1.65625 0.210937,-0.324219 0.472656,-0.5625 0.777343,-0.71875 0.304688,-0.15625 0.625,-0.234375 0.960938,-0.234375 0.585938,0 1.085938,0.21875 1.496094,0.648438 0.414062,0.429687 0.621094,0.988281 0.621094,1.671874 0,0.449219 -0.09766,0.867188 -0.292969,1.253907 -0.195313,0.386719 -0.460938,0.679687 -0.796875,0.882812 -0.339844,0.207031 -0.722656,0.308594 -1.152344,0.308594 -0.734375,0 -1.332031,-0.269531 -1.792969,-0.804687 -0.460937,-0.539063 -0.691406,-1.429688 -0.691406,-2.667969 0,-1.382813 0.253906,-2.386719 0.765625,-3.015625 0.445312,-0.546875 1.046875,-0.820313 1.800781,-0.820313 0.5625,0 1.023438,0.15625 1.382813,0.472657 0.359375,0.316406 0.578125,0.753906 0.648437,1.308593 z m -3.589843,3.085938 c 0,0.304687 0.06641,0.59375 0.191406,0.871093 0.128906,0.277344 0.3125,0.488282 0.542968,0.632813 0.230469,0.144531 0.472657,0.214844 0.726563,0.214844 0.371094,0 0.691406,-0.148438 0.957031,-0.449219 0.265625,-0.296875 0.402344,-0.707031 0.402344,-1.21875 0,-0.496094 -0.132812,-0.886719 -0.398438,-1.167969 -0.261718,-0.285156 -0.59375,-0.429687 -0.996093,-0.429687 -0.394531,0 -0.734375,0.144531 -1.007813,0.429687 -0.277344,0.28125 -0.417968,0.65625 -0.417968,1.117188 z m 0,0"
       id="path47346" />
    <path
       style="fill:#ffffff;fill-opacity:1;fill-rule:nonzero;stroke:none"
       d="m 17.113281,30.628906 c 0,-0.84375 0.08594,-1.527344 0.257813,-2.039062 0.175781,-0.519532 0.433594,-0.917969 0.777344,-1.199219 0.34375,-0.277344 0.777343,-0.417969 1.296874,-0.417969 0.386719,0 0.722657,0.07813 1.011719,0.234375 0.289063,0.152344 0.527344,0.375 0.71875,0.667969 0.1875,0.289062 0.335938,0.644531 0.445313,1.066406 0.105468,0.414063 0.160156,0.980469 0.160156,1.6875 0,0.839844 -0.08594,1.519532 -0.257812,2.035156 -0.175782,0.515626 -0.433594,0.914063 -0.777344,1.199219 -0.34375,0.277344 -0.777344,0.417969 -1.300782,0.417969 -0.6875,0 -1.230468,-0.246094 -1.625,-0.742188 -0.472656,-0.59375 -0.707031,-1.566406 -0.707031,-2.910156 z m 0.902344,0 c 0,1.175782 0.136719,1.957032 0.410156,2.347656 0.277344,0.390626 0.617188,0.582032 1.019531,0.582032 0.40625,0 0.742188,-0.195313 1.015626,-0.585938 0.277343,-0.390625 0.417968,-1.171875 0.417968,-2.34375 0,-1.175781 -0.140625,-1.960937 -0.417968,-2.347656 -0.273438,-0.386719 -0.613282,-0.582031 -1.023438,-0.582031 -0.40625,0 -0.726562,0.171875 -0.96875,0.511719 -0.300781,0.4375 -0.453125,1.242187 -0.453125,2.417968 z m 0,0"
       id="path47348" />
    <path
       style="fill:#ffffff;fill-opacity:1;fill-rule:nonzero;stroke:none"
       d="m 23.171875,33.160156 h 1 v 1 h -1 z m 0,0"
       id="path47350" />
    <path
       style="fill:#ffffff;fill-opacity:1;fill-rule:nonzero;stroke:none"
       d="M 28.269531,34.160156 V 32.445312 H 25.164062 V 31.640625 L 28.429688,27 h 0.71875 v 4.640625 h 0.96875 v 0.804687 h -0.96875 v 1.714844 z m 0,-2.519531 v -3.226563 l -2.242187,3.226563 z m 0,0"
       id="path47352" />
    <path
       style="fill:#ffffff;fill-opacity:1;fill-rule:nonzero;stroke:none"
       d="m 17.15625,46.613281 c 0,-0.84375 0.08594,-1.527343 0.257812,-2.039062 0.175782,-0.519531 0.4375,-0.917969 0.777344,-1.199219 0.34375,-0.277344 0.777344,-0.417969 1.300782,-0.417969 0.382812,0 0.71875,0.07813 1.007812,0.234375 0.289062,0.152344 0.53125,0.375 0.71875,0.667969 0.1875,0.289063 0.335938,0.644531 0.445312,1.066406 0.105469,0.414063 0.160157,0.980469 0.160157,1.6875 0,0.839844 -0.08594,1.519531 -0.257813,2.035157 -0.171875,0.515624 -0.433594,0.914062 -0.777344,1.199218 -0.339843,0.277344 -0.773437,0.417969 -1.296874,0.417969 -0.691407,0 -1.234376,-0.246094 -1.628907,-0.742187 -0.472656,-0.59375 -0.707031,-1.566407 -0.707031,-2.910157 z m 0.902344,0 c 0,1.175781 0.136718,1.957031 0.410156,2.347657 0.277344,0.390624 0.617188,0.582031 1.023438,0.582031 0.402343,0 0.742187,-0.195313 1.015624,-0.585938 0.273438,-0.390625 0.414063,-1.171875 0.414063,-2.34375 0,-1.175781 -0.140625,-1.960937 -0.414063,-2.347656 -0.273437,-0.386719 -0.617187,-0.582031 -1.027343,-0.582031 -0.402344,0 -0.726563,0.171875 -0.964844,0.511718 -0.304687,0.4375 -0.457031,1.242188 -0.457031,2.417969 z m 0,0"
       id="path47354" />
    <path
       style="fill:#ffffff;fill-opacity:1;fill-rule:nonzero;stroke:none"
       d="m 23.214844,49.144531 h 1.003906 v 1 h -1.003906 z m 0,0"
       id="path47356" />
    <path
       style="fill:#ffffff;fill-opacity:1;fill-rule:nonzero;stroke:none"
       d="m 30.117188,49.300781 v 0.84375 h -4.734376 c -0.0039,-0.210937 0.02734,-0.414062 0.105469,-0.609375 0.117188,-0.324218 0.3125,-0.640625 0.574219,-0.953125 0.265625,-0.3125 0.652344,-0.675781 1.152344,-1.085937 0.777344,-0.636719 1.304687,-1.140625 1.578125,-1.511719 0.273437,-0.375 0.410156,-0.726563 0.410156,-1.058594 0,-0.347656 -0.125,-0.640625 -0.375,-0.878906 -0.25,-0.242187 -0.574219,-0.363281 -0.972656,-0.363281 -0.425781,0 -0.761719,0.128906 -1.015625,0.382812 -0.253906,0.253906 -0.382813,0.605469 -0.386719,1.054688 l -0.902344,-0.09375 c 0.0625,-0.675782 0.292969,-1.1875 0.699219,-1.539063 0.402344,-0.355469 0.945312,-0.53125 1.625,-0.53125 0.6875,0 1.230469,0.191407 1.628906,0.570313 0.402344,0.382812 0.601563,0.855468 0.601563,1.417968 0,0.285157 -0.05859,0.566407 -0.175781,0.84375 -0.117188,0.277344 -0.3125,0.566407 -0.585938,0.875 -0.269531,0.304688 -0.722656,0.726563 -1.351562,1.257813 -0.527344,0.445313 -0.867188,0.746094 -1.015626,0.902344 -0.152343,0.15625 -0.273437,0.316406 -0.371093,0.476562 z m 0,0"
       id="path47358" />
    <path
       style="fill:#ffffff;fill-opacity:1;fill-rule:nonzero;stroke:none"
       d="m 25.449219,62.597656 c 0,-0.847656 0.08594,-1.527344 0.257812,-2.039062 0.175781,-0.519532 0.433594,-0.917969 0.777344,-1.199219 0.34375,-0.277344 0.777344,-0.417969 1.296875,-0.417969 0.382812,0 0.722656,0.07813 1.011719,0.234375 0.289062,0.152344 0.527343,0.375 0.71875,0.667969 0.1875,0.289062 0.335937,0.644531 0.441406,1.066406 0.109375,0.414063 0.164063,0.976563 0.164063,1.6875 0,0.839844 -0.08984,1.519532 -0.261719,2.035156 -0.171875,0.515626 -0.429688,0.914063 -0.773438,1.199219 C 28.738281,66.109375 28.304688,66.25 27.78125,66.25 c -0.691406,0 -1.230469,-0.246094 -1.625,-0.742188 -0.472656,-0.59375 -0.707031,-1.566406 -0.707031,-2.910156 z m 0.902343,0 c 0,1.175782 0.136719,1.957032 0.410157,2.347656 0.277343,0.390626 0.617187,0.582032 1.019531,0.582032 0.402344,0 0.742188,-0.195313 1.015625,-0.585938 0.277344,-0.390625 0.414063,-1.171875 0.414063,-2.34375 0,-1.179687 -0.136719,-1.960937 -0.414063,-2.347656 -0.273437,-0.386719 -0.613281,-0.582031 -1.023437,-0.582031 -0.40625,0 -0.726563,0.171875 -0.96875,0.511719 -0.300782,0.4375 -0.453126,1.242187 -0.453126,2.417968 z m 0,0"
       id="path47360" />
    <path
       style="fill:#ffffff;fill-opacity:1;fill-rule:nonzero;stroke:none"
       d="m 13.71875,79.082031 h 2.699219 v 0.882813 H 13.71875 Z m 0,0"
       id="path47362" />
    <path
       style="fill:#ffffff;fill-opacity:1;fill-rule:nonzero;stroke:none"
       d="m 17.15625,78.582031 c 0,-0.847656 0.08594,-1.527343 0.257812,-2.039062 0.175782,-0.519531 0.4375,-0.917969 0.777344,-1.199219 0.34375,-0.277344 0.777344,-0.417969 1.300782,-0.417969 0.382812,0 0.71875,0.07813 1.007812,0.234375 0.289062,0.152344 0.53125,0.375 0.71875,0.667969 0.1875,0.289063 0.335938,0.644531 0.445312,1.066406 0.105469,0.414063 0.160157,0.976563 0.160157,1.6875 0,0.839844 -0.08594,1.519531 -0.257813,2.035157 -0.171875,0.515624 -0.433594,0.914062 -0.777344,1.199218 -0.339843,0.277344 -0.773437,0.417969 -1.296874,0.417969 -0.691407,0 -1.234376,-0.246094 -1.628907,-0.742187 -0.472656,-0.59375 -0.707031,-1.566407 -0.707031,-2.910157 z m 0.902344,0 c 0,1.175781 0.136718,1.957031 0.410156,2.347657 0.277344,0.390624 0.617188,0.582031 1.023438,0.582031 0.402343,0 0.742187,-0.195313 1.015624,-0.585938 0.273438,-0.390625 0.414063,-1.171875 0.414063,-2.34375 0,-1.179687 -0.140625,-1.960937 -0.414063,-2.347656 -0.273437,-0.386719 -0.617187,-0.582031 -1.027343,-0.582031 -0.402344,0 -0.726563,0.171875 -0.964844,0.511718 -0.304687,0.4375 -0.457031,1.242188 -0.457031,2.417969 z m 0,0"
       id="path47364" />
    <path
       style="fill:#ffffff;fill-opacity:1;fill-rule:nonzero;stroke:none"
       d="m 23.214844,81.113281 h 1.003906 v 1 h -1.003906 z m 0,0"
       id="path47366" />
    <path
       style="fill:#ffffff;fill-opacity:1;fill-rule:nonzero;stroke:none"
       d="m 30.117188,81.269531 v 0.84375 h -4.734376 c -0.0039,-0.210937 0.02734,-0.414062 0.105469,-0.609375 0.117188,-0.324218 0.3125,-0.640625 0.574219,-0.953125 0.265625,-0.3125 0.652344,-0.675781 1.152344,-1.085937 0.777344,-0.636719 1.304687,-1.140625 1.578125,-1.511719 0.273437,-0.375 0.410156,-0.726563 0.410156,-1.058594 0,-0.351562 -0.125,-0.644531 -0.375,-0.878906 -0.25,-0.242187 -0.574219,-0.363281 -0.972656,-0.363281 -0.425781,0 -0.761719,0.128906 -1.015625,0.382812 -0.253906,0.253906 -0.382813,0.605469 -0.386719,1.054688 l -0.902344,-0.09375 c 0.0625,-0.675782 0.292969,-1.1875 0.699219,-1.539063 0.402344,-0.355469 0.945312,-0.53125 1.625,-0.53125 0.6875,0 1.230469,0.191407 1.628906,0.570313 0.402344,0.382812 0.601563,0.851562 0.601563,1.417968 0,0.285157 -0.05859,0.566407 -0.175781,0.84375 -0.117188,0.277344 -0.3125,0.566407 -0.585938,0.875 -0.269531,0.304688 -0.722656,0.722657 -1.351562,1.257813 -0.527344,0.441406 -0.867188,0.746094 -1.015626,0.902344 -0.152343,0.15625 -0.273437,0.316406 -0.371093,0.476562 z m 0,0"
       id="path47368" />
    <path
       style="fill:#ffffff;fill-opacity:1;fill-rule:nonzero;stroke:none"
       d="M 13.675781,95.066406 H 16.375 v 0.882813 h -2.699219 z m 0,0"
       id="path47370" />
    <path
       style="fill:#ffffff;fill-opacity:1;fill-rule:nonzero;stroke:none"
       d="m 17.113281,94.566406 c 0,-0.847656 0.08594,-1.527344 0.257813,-2.039062 0.175781,-0.519532 0.433594,-0.917969 0.777344,-1.199219 0.34375,-0.277344 0.777343,-0.417969 1.296874,-0.417969 0.386719,0 0.722657,0.07813 1.011719,0.234375 0.289063,0.152344 0.527344,0.375 0.71875,0.667969 0.1875,0.289062 0.335938,0.644531 0.445313,1.066406 0.105468,0.414063 0.160156,0.976563 0.160156,1.6875 0,0.839844 -0.08594,1.519532 -0.257812,2.035156 -0.175782,0.515626 -0.433594,0.914063 -0.777344,1.199219 -0.34375,0.277344 -0.777344,0.417969 -1.300782,0.417969 -0.6875,0 -1.230468,-0.246094 -1.625,-0.742188 -0.472656,-0.59375 -0.707031,-1.566406 -0.707031,-2.910156 z m 0.902344,0 c 0,1.175782 0.136719,1.957032 0.410156,2.347656 0.277344,0.390626 0.617188,0.582032 1.019531,0.582032 0.40625,0 0.742188,-0.195313 1.015626,-0.585938 0.277343,-0.390625 0.417968,-1.171875 0.417968,-2.34375 0,-1.179687 -0.140625,-1.960937 -0.417968,-2.347656 -0.273438,-0.386719 -0.613282,-0.582031 -1.023438,-0.582031 -0.40625,0 -0.726562,0.171875 -0.96875,0.511719 -0.300781,0.4375 -0.453125,1.242187 -0.453125,2.417968 z m 0,0"
       id="path47372" />
    <path
       style="fill:#ffffff;fill-opacity:1;fill-rule:nonzero;stroke:none"
       d="m 23.171875,97.097656 h 1 v 1 h -1 z m 0,0"
       id="path47374" />
    <path
       style="fill:#ffffff;fill-opacity:1;fill-rule:nonzero;stroke:none"
       d="M 28.269531,98.097656 V 96.382812 H 25.164062 V 95.578125 L 28.429688,90.9375 h 0.71875 v 4.640625 h 0.96875 v 0.804687 h -0.96875 v 1.714844 z m 0,-2.519531 v -3.226563 l -2.242187,3.226563 z m 0,0"
       id="path47376" />
    <path
       style="fill:#ffffff;fill-opacity:1;fill-rule:nonzero;stroke:none"
       d="m 33.003906,116.66797 c 0,-0.84375 0.08594,-1.52344 0.261719,-2.03906 0.175781,-0.51953 0.433594,-0.91797 0.773437,-1.19532 0.347657,-0.28125 0.777344,-0.42187 1.300782,-0.42187 0.382812,0 0.71875,0.0781 1.011718,0.23437 0.289063,0.15235 0.527344,0.375 0.714844,0.66797 0.191406,0.29297 0.339844,0.64453 0.445313,1.06641 0.109375,0.41797 0.160156,0.98047 0.160156,1.6875 0,0.83984 -0.08594,1.51953 -0.257813,2.03906 -0.171874,0.51172 -0.429687,0.91016 -0.777343,1.19531 -0.339844,0.28125 -0.773438,0.41797 -1.296875,0.41797 -0.691406,0 -1.234375,-0.24609 -1.625,-0.74218 -0.472656,-0.59375 -0.710938,-1.5625 -0.710938,-2.91016 z m 0.90625,0 c 0,1.17578 0.136719,1.96094 0.410156,2.35156 0.273438,0.38672 0.613282,0.57813 1.019532,0.57813 0.402344,0 0.742187,-0.19532 1.015625,-0.58594 0.277343,-0.39063 0.414062,-1.17188 0.414062,-2.34375 0,-1.17578 -0.136719,-1.96094 -0.414062,-2.34766 -0.273438,-0.38672 -0.617188,-0.58203 -1.027344,-0.58203 -0.402344,0 -0.726563,0.17188 -0.964844,0.51563 -0.304687,0.43359 -0.453125,1.24218 -0.453125,2.41406 z m 0,0"
       id="path47378" />
    <path
       style="fill:#ffffff;fill-opacity:1;fill-rule:nonzero;stroke:none"
       d="m 67.414062,116.66797 c 0,-0.84375 0.08594,-1.52344 0.257813,-2.03906 0.175781,-0.51953 0.4375,-0.91797 0.777344,-1.19532 0.347656,-0.28125 0.777343,-0.42187 1.300781,-0.42187 0.382812,0 0.71875,0.0781 1.007812,0.23437 0.292969,0.15235 0.53125,0.375 0.71875,0.66797 0.191407,0.29297 0.335938,0.64453 0.445313,1.06641 0.105469,0.41797 0.160156,0.98047 0.160156,1.6875 0,0.83984 -0.08594,1.51953 -0.257812,2.03906 -0.171875,0.51172 -0.429688,0.91016 -0.777344,1.19531 -0.339844,0.28125 -0.773437,0.41797 -1.296875,0.41797 -0.691406,0 -1.234375,-0.24609 -1.628906,-0.74218 -0.46875,-0.59375 -0.707032,-1.5625 -0.707032,-2.91016 z m 0.902344,0 c 0,1.17578 0.136719,1.96094 0.410156,2.35156 0.277344,0.38672 0.617188,0.57813 1.023438,0.57813 0.402344,0 0.742188,-0.19532 1.015625,-0.58594 0.277344,-0.39063 0.414063,-1.17188 0.414063,-2.34375 0,-1.17578 -0.136719,-1.96094 -0.414063,-2.34766 -0.273437,-0.38672 -0.617187,-0.58203 -1.027344,-0.58203 -0.402343,0 -0.726562,0.17188 -0.964843,0.51563 -0.304688,0.43359 -0.457032,1.24218 -0.457032,2.41406 z m 0,0"
       id="path47380" />
    <path
       style="fill:#ffffff;fill-opacity:1;fill-rule:nonzero;stroke:none"
       d="m 73.472656,119.19922 h 1.003906 v 1 h -1.003906 z m 0,0"
       id="path47382" />
    <path
       style="fill:#ffffff;fill-opacity:1;fill-rule:nonzero;stroke:none"
       d="M 79.066406,120.19922 H 78.1875 v -5.60156 c -0.210938,0.20312 -0.492188,0.40625 -0.835938,0.60547 -0.34375,0.20312 -0.648437,0.35546 -0.921874,0.45703 v -0.85157 c 0.492187,-0.23046 0.921874,-0.51171 1.289062,-0.83984 0.367188,-0.32812 0.628906,-0.64844 0.78125,-0.95703 h 0.566406 z m 0,0"
       id="path47384" />
    <path
       style="fill:#ffffff;fill-opacity:1;fill-rule:nonzero;stroke:none"
       d="m 104.66016,116.66797 c 0,-0.84375 0.0859,-1.52344 0.26172,-2.03906 0.17578,-0.51953 0.43359,-0.91797 0.77343,-1.19532 0.34766,-0.28125 0.77735,-0.42187 1.30078,-0.42187 0.38282,0 0.71875,0.0781 1.01172,0.23437 0.28907,0.15235 0.52735,0.375 0.71485,0.66797 0.1914,0.29297 0.33984,0.64453 0.44531,1.06641 0.10937,0.41797 0.16016,0.98047 0.16016,1.6875 0,0.83984 -0.0859,1.51953 -0.25782,2.03906 -0.17187,0.51172 -0.42968,0.91016 -0.77734,1.19531 -0.33984,0.28125 -0.77344,0.41797 -1.29688,0.41797 -0.6914,0 -1.23437,-0.24609 -1.625,-0.74218 -0.47265,-0.59375 -0.71093,-1.5625 -0.71093,-2.91016 z m 0.90625,0 c 0,1.17578 0.13672,1.96094 0.41015,2.35156 0.27344,0.38672 0.61328,0.57813 1.01953,0.57813 0.40235,0 0.74219,-0.19532 1.01563,-0.58594 0.27734,-0.39063 0.41406,-1.17188 0.41406,-2.34375 0,-1.17578 -0.13672,-1.96094 -0.41406,-2.34766 -0.27344,-0.38672 -0.61719,-0.58203 -1.02734,-0.58203 -0.40235,0 -0.72657,0.17188 -0.96485,0.51563 -0.30469,0.43359 -0.45312,1.24218 -0.45312,2.41406 z m 0,0"
       id="path47386" />
    <path
       style="fill:#ffffff;fill-opacity:1;fill-rule:nonzero;stroke:none"
       d="m 110.72266,119.19922 h 1 v 1 h -1 z m 0,0"
       id="path47388" />
    <path
       style="fill:#ffffff;fill-opacity:1;fill-rule:nonzero;stroke:none"
       d="m 117.62109,119.35547 v 0.84375 h -4.73046 c -0.008,-0.21094 0.0273,-0.41406 0.10156,-0.60938 0.12109,-0.32421 0.3125,-0.64062 0.57422,-0.95312 0.26953,-0.3125 0.65234,-0.67188 1.15234,-1.08203 0.77734,-0.64063 1.30469,-1.14453 1.57813,-1.51563 0.27343,-0.375 0.41015,-0.72656 0.41015,-1.05859 0,-0.34766 -0.125,-0.64063 -0.375,-0.87891 -0.25,-0.24218 -0.57031,-0.36328 -0.97265,-0.36328 -0.42188,0 -0.76172,0.12891 -1.01563,0.38281 -0.25391,0.25391 -0.38281,0.60547 -0.38672,1.05469 l -0.90234,-0.0937 c 0.0625,-0.67187 0.29297,-1.1875 0.69922,-1.53906 0.40234,-0.35156 0.94531,-0.53125 1.625,-0.53125 0.6875,0 1.23047,0.19141 1.63281,0.57031 0.39844,0.38281 0.59766,0.85547 0.59766,1.41797 0,0.28516 -0.0586,0.56641 -0.17579,0.84375 -0.11718,0.27734 -0.3125,0.57031 -0.58593,0.875 -0.26953,0.30469 -0.71875,0.72656 -1.35157,1.25781 -0.52734,0.44532 -0.86718,0.7461 -1.01562,0.90625 -0.14844,0.15625 -0.27344,0.3125 -0.37109,0.47266 z m 0,0"
       id="path47390" />
    <path
       style="fill:#ffffff;fill-opacity:1;fill-rule:nonzero;stroke:none"
       d="m 142.52344,116.66797 c 0,-0.84375 0.0898,-1.52344 0.26172,-2.03906 0.17578,-0.51953 0.43359,-0.91797 0.77343,-1.19532 0.34766,-0.28125 0.78125,-0.42187 1.30078,-0.42187 0.38282,0 0.72266,0.0781 1.01172,0.23437 0.28907,0.15235 0.52735,0.375 0.71485,0.66797 0.1914,0.29297 0.33984,0.64453 0.44531,1.06641 0.10937,0.41797 0.16016,0.98047 0.16016,1.6875 0,0.83984 -0.0859,1.51953 -0.25782,2.03906 -0.17187,0.51172 -0.42968,0.91016 -0.77734,1.19531 -0.33984,0.28125 -0.77344,0.41797 -1.29688,0.41797 -0.6914,0 -1.23046,-0.24609 -1.625,-0.74218 -0.47265,-0.59375 -0.71093,-1.5625 -0.71093,-2.91016 z m 0.90625,0 c 0,1.17578 0.13672,1.96094 0.41015,2.35156 0.27735,0.38672 0.61719,0.57813 1.01953,0.57813 0.40235,0 0.74219,-0.19532 1.01563,-0.58594 0.27734,-0.39063 0.41406,-1.17188 0.41406,-2.34375 0,-1.17578 -0.13672,-1.96094 -0.41406,-2.34766 -0.27344,-0.38672 -0.61719,-0.58203 -1.02734,-0.58203 -0.40235,0 -0.72266,0.17188 -0.96485,0.51563 -0.30469,0.43359 -0.45312,1.24218 -0.45312,2.41406 z m 0,0"
       id="path47392" />
    <path
       style="fill:#ffffff;fill-opacity:1;fill-rule:nonzero;stroke:none"
       d="m 148.58594,119.19922 h 1 v 1 h -1 z m 0,0"
       id="path47394" />
    <path
       style="fill:#ffffff;fill-opacity:1;fill-rule:nonzero;stroke:none"
       d="m 150.87109,118.30859 0.87891,-0.11718 c 0.10156,0.5 0.26953,0.85937 0.51172,1.08203 0.24219,0.21875 0.53906,0.32422 0.88672,0.32422 0.41406,0 0.76172,-0.14063 1.04687,-0.42969 0.28516,-0.28516 0.42969,-0.64063 0.42969,-1.0625 0,-0.40234 -0.13281,-0.73438 -0.39453,-0.99609 -0.26563,-0.26563 -0.60156,-0.39454 -1.00781,-0.39454 -0.16407,0 -0.3711,0.0312 -0.6211,0.0977 l 0.0977,-0.77344 c 0.0586,0.008 0.10937,0.0117 0.14453,0.0117 0.375,0 0.71094,-0.0977 1.00781,-0.29297 0.30078,-0.19531 0.44922,-0.49609 0.44922,-0.90625 0,-0.32031 -0.10547,-0.58593 -0.32422,-0.80078 -0.21875,-0.21094 -0.5,-0.3164 -0.84765,-0.3164 -0.33985,0 -0.625,0.10937 -0.85157,0.32421 -0.23047,0.21485 -0.375,0.53516 -0.4414,0.96485 l -0.87891,-0.15625 c 0.10938,-0.58985 0.35156,-1.04297 0.73438,-1.36719 0.3789,-0.32422 0.85156,-0.48828 1.41796,-0.48828 0.39063,0 0.75391,0.0859 1.08204,0.25391 0.32812,0.16796 0.57812,0.39453 0.75,0.68359 0.17578,0.28906 0.26562,0.59766 0.26562,0.92187 0,0.3125 -0.0859,0.59375 -0.25,0.84766 -0.16797,0.25391 -0.41016,0.45313 -0.73828,0.60547 0.42578,0.0977 0.75391,0.30078 0.98828,0.60937 0.23438,0.30469 0.35156,0.69141 0.35156,1.15235 0,0.625 -0.23047,1.15625 -0.68359,1.58984 -0.45703,0.4336 -1.03125,0.65235 -1.73047,0.65235 -0.62891,0 -1.14844,-0.1875 -1.56641,-0.5625 -0.41406,-0.375 -0.64843,-0.85938 -0.70703,-1.45704 z m 0,0"
       id="path47396" />
    <path
       style="fill:#ffffff;fill-opacity:1;fill-rule:nonzero;stroke:none"
       d="m 180.44141,116.66797 c 0,-0.84375 0.0859,-1.52344 0.25781,-2.03906 0.17578,-0.51953 0.43359,-0.91797 0.77734,-1.19532 0.34375,-0.28125 0.77735,-0.42187 1.29688,-0.42187 0.38672,0 0.72265,0.0781 1.01172,0.23437 0.28906,0.15235 0.52734,0.375 0.71875,0.66797 0.1875,0.29297 0.33593,0.64453 0.44531,1.06641 0.10547,0.41797 0.16015,0.98047 0.16015,1.6875 0,0.83984 -0.0859,1.51953 -0.25781,2.03906 -0.17578,0.51172 -0.43359,0.91016 -0.77734,1.19531 -0.34375,0.28125 -0.77735,0.41797 -1.30078,0.41797 -0.6875,0 -1.23047,-0.24609 -1.625,-0.74218 -0.47266,-0.59375 -0.70703,-1.5625 -0.70703,-2.91016 z m 0.90234,0 c 0,1.17578 0.13672,1.96094 0.41016,2.35156 0.27734,0.38672 0.61718,0.57813 1.01953,0.57813 0.40625,0 0.74218,-0.19532 1.01562,-0.58594 0.27735,-0.39063 0.41797,-1.17188 0.41797,-2.34375 0,-1.17578 -0.14062,-1.96094 -0.41797,-2.34766 -0.27344,-0.38672 -0.61328,-0.58203 -1.02344,-0.58203 -0.40625,0 -0.72656,0.17188 -0.96875,0.51563 -0.30078,0.43359 -0.45312,1.24218 -0.45312,2.41406 z m 0,0"
       id="path47398" />
    <path
       style="fill:#ffffff;fill-opacity:1;fill-rule:nonzero;stroke:none"
       d="m 186.5,119.19922 h 1 v 1 h -1 z m 0,0"
       id="path47400" />
    <path
       style="fill:#ffffff;fill-opacity:1;fill-rule:nonzero;stroke:none"
       d="m 191.59766,120.19922 v -1.71484 h -3.10547 v -0.80469 l 3.26562,-4.63672 h 0.71875 v 4.63672 h 0.96875 v 0.80469 h -0.96875 v 1.71484 z m 0,-2.51953 v -3.22656 l -2.24219,3.22656 z m 0,0"
       id="path47402" />
    <path
       style="fill:#ffffff;fill-opacity:1;fill-rule:nonzero;stroke:none"
       d="m 218.30078,116.66797 c 0,-0.84375 0.0859,-1.52344 0.25781,-2.03906 0.17578,-0.51953 0.4336,-0.91797 0.77735,-1.19532 0.34375,-0.28125 0.77734,-0.42187 1.29687,-0.42187 0.38672,0 0.72266,0.0781 1.01172,0.23437 0.28906,0.15235 0.52734,0.375 0.71875,0.66797 0.1875,0.29297 0.33594,0.64453 0.44531,1.06641 0.10547,0.41797 0.16016,0.98047 0.16016,1.6875 0,0.83984 -0.0859,1.51953 -0.25781,2.03906 -0.17578,0.51172 -0.4336,0.91016 -0.77735,1.19531 -0.34375,0.28125 -0.77734,0.41797 -1.30078,0.41797 -0.6875,0 -1.23047,-0.24609 -1.625,-0.74218 -0.47265,-0.59375 -0.70703,-1.5625 -0.70703,-2.91016 z m 0.90234,0 c 0,1.17578 0.13672,1.96094 0.41016,2.35156 0.27734,0.38672 0.61719,0.57813 1.01953,0.57813 0.40625,0 0.74219,-0.19532 1.01563,-0.58594 0.27734,-0.39063 0.41797,-1.17188 0.41797,-2.34375 0,-1.17578 -0.14063,-1.96094 -0.41797,-2.34766 -0.27344,-0.38672 -0.61328,-0.58203 -1.02344,-0.58203 -0.40625,0 -0.72656,0.17188 -0.96875,0.51563 -0.30078,0.43359 -0.45313,1.24218 -0.45313,2.41406 z m 0,0"
       id="path47404" />
    <path
       style="fill:#ffffff;fill-opacity:1;fill-rule:nonzero;stroke:none"
       d="m 224.35937,119.19922 h 1 v 1 h -1 z m 0,0"
       id="path47406" />
    <path
       style="fill:#ffffff;fill-opacity:1;fill-rule:nonzero;stroke:none"
       d="m 226.64062,118.32422 0.92188,-0.0781 c 0.0703,0.44922 0.22656,0.78907 0.47266,1.01563 0.25,0.22656 0.55468,0.33594 0.90625,0.33594 0.42187,0 0.78125,-0.15625 1.07421,-0.47657 0.29297,-0.32031 0.4375,-0.74218 0.4375,-1.26953 0,-0.5 -0.14062,-0.89843 -0.42578,-1.1875 -0.27734,-0.28906 -0.64843,-0.43359 -1.10156,-0.43359 -0.28516,0 -0.53906,0.0664 -0.76562,0.19531 -0.23047,0.125 -0.41016,0.29297 -0.53907,0.4961 l -0.82422,-0.10547 0.69141,-3.67578 h 3.5625 v 0.83984 h -2.85937 l -0.38282,1.92187 c 0.42969,-0.29687 0.87891,-0.44921 1.35157,-0.44921 0.625,0 1.15234,0.21875 1.58203,0.64843 0.42968,0.4336 0.64453,0.99219 0.64453,1.67188 0,0.64844 -0.19141,1.20703 -0.56641,1.67969 -0.46094,0.57812 -1.08594,0.86718 -1.8789,0.86718 -0.65235,0 -1.1836,-0.17968 -1.59766,-0.54687 -0.41016,-0.36328 -0.64453,-0.84766 -0.70313,-1.44922 z m 0,0"
       id="path47408" />
    <path
       style="fill:#ffffff;fill-opacity:1;fill-rule:nonzero;stroke:none"
       d="m 256.23047,116.66797 c 0,-0.84375 0.0859,-1.52344 0.25781,-2.03906 0.17578,-0.51953 0.43359,-0.91797 0.77734,-1.19532 0.34375,-0.28125 0.77735,-0.42187 1.29688,-0.42187 0.38672,0 0.72266,0.0781 1.01172,0.23437 0.28906,0.15235 0.53125,0.375 0.71875,0.66797 0.1875,0.29297 0.33594,0.64453 0.44531,1.06641 0.10547,0.41797 0.16016,0.98047 0.16016,1.6875 0,0.83984 -0.0859,1.51953 -0.25782,2.03906 -0.17578,0.51172 -0.43359,0.91016 -0.77734,1.19531 -0.34375,0.28125 -0.77344,0.41797 -1.30078,0.41797 -0.6875,0 -1.23047,-0.24609 -1.625,-0.74218 -0.47266,-0.59375 -0.70703,-1.5625 -0.70703,-2.91016 z m 0.90234,0 c 0,1.17578 0.13672,1.96094 0.41016,2.35156 0.27734,0.38672 0.61719,0.57813 1.01953,0.57813 0.40625,0 0.74219,-0.19532 1.01562,-0.58594 0.27735,-0.39063 0.41797,-1.17188 0.41797,-2.34375 0,-1.17578 -0.14062,-1.96094 -0.41797,-2.34766 -0.27343,-0.38672 -0.61328,-0.58203 -1.02343,-0.58203 -0.40235,0 -0.72657,0.17188 -0.96875,0.51563 -0.30078,0.43359 -0.45313,1.24218 -0.45313,2.41406 z m 0,0"
       id="path47410" />
    <path
       style="fill:#ffffff;fill-opacity:1;fill-rule:nonzero;stroke:none"
       d="m 262.28906,119.19922 h 1 v 1 h -1 z m 0,0"
       id="path47412" />
    <path
       style="fill:#ffffff;fill-opacity:1;fill-rule:nonzero;stroke:none"
       d="m 269.12891,114.79297 -0.8711,0.0703 c -0.0781,-0.34375 -0.1914,-0.59765 -0.33203,-0.7539 -0.23828,-0.25 -0.53125,-0.375 -0.87891,-0.375 -0.28125,0 -0.52734,0.0781 -0.73828,0.23437 -0.27734,0.20313 -0.49609,0.49609 -0.65625,0.88281 -0.15625,0.39063 -0.24218,0.94141 -0.24609,1.65625 0.21094,-0.32031 0.46875,-0.5625 0.77344,-0.71875 0.30859,-0.15625 0.6289,-0.23437 0.96484,-0.23437 0.58594,0 1.08203,0.21875 1.49219,0.65234 0.41406,0.42969 0.62109,0.98438 0.62109,1.66797 0,0.44922 -0.0976,0.86719 -0.29297,1.25391 -0.1914,0.38672 -0.45703,0.67968 -0.79687,0.88672 -0.33985,0.20312 -0.72266,0.30468 -1.15235,0.30468 -0.73046,0 -1.32812,-0.26562 -1.79296,-0.80468 -0.46094,-0.53907 -0.69141,-1.42969 -0.69141,-2.66407 0,-1.38281 0.25391,-2.39062 0.76562,-3.01953 0.44532,-0.54687 1.04688,-0.82031 1.80079,-0.82031 0.5664,0 1.02343,0.16016 1.38281,0.47266 0.36328,0.3164 0.57812,0.7539 0.64844,1.30859 z m -3.58594,3.08594 c 0,0.30468 0.0625,0.59375 0.1875,0.87109 0.13281,0.27734 0.3125,0.48828 0.54297,0.63281 0.23047,0.14453 0.47265,0.21485 0.72656,0.21485 0.37109,0 0.69141,-0.14844 0.95703,-0.44922 0.26953,-0.29688 0.40234,-0.70313 0.40234,-1.21875 0,-0.4961 -0.13281,-0.88281 -0.39453,-1.16797 -0.26562,-0.28516 -0.59765,-0.42969 -0.99609,-0.42969 -0.39844,0 -0.73438,0.14453 -1.01172,0.42969 -0.27734,0.28516 -0.41406,0.65625 -0.41406,1.11719 z m 0,0"
       id="path47414" />
    <path
       style="fill:#ffffff;fill-opacity:1;fill-rule:nonzero;stroke:none"
       d="m 294.12891,116.66797 c 0,-0.84375 0.0859,-1.52344 0.25781,-2.03906 0.17578,-0.51953 0.43359,-0.91797 0.77734,-1.19532 0.34375,-0.28125 0.77735,-0.42187 1.29688,-0.42187 0.38672,0 0.72265,0.0781 1.01172,0.23437 0.28906,0.15235 0.52734,0.375 0.71875,0.66797 0.1875,0.29297 0.33593,0.64453 0.44531,1.06641 0.10547,0.41797 0.16015,0.98047 0.16015,1.6875 0,0.83984 -0.0859,1.51953 -0.25781,2.03906 -0.17578,0.51172 -0.43359,0.91016 -0.77734,1.19531 -0.34375,0.28125 -0.77735,0.41797 -1.30078,0.41797 -0.6875,0 -1.23047,-0.24609 -1.625,-0.74218 -0.47266,-0.59375 -0.70703,-1.5625 -0.70703,-2.91016 z m 0.90234,0 c 0,1.17578 0.13672,1.96094 0.41016,2.35156 0.27734,0.38672 0.61718,0.57813 1.01953,0.57813 0.40625,0 0.74218,-0.19532 1.01562,-0.58594 0.27735,-0.39063 0.41797,-1.17188 0.41797,-2.34375 0,-1.17578 -0.14062,-1.96094 -0.41797,-2.34766 -0.27344,-0.38672 -0.61328,-0.58203 -1.02344,-0.58203 -0.40625,0 -0.72656,0.17188 -0.96875,0.51563 -0.30078,0.43359 -0.45312,1.24218 -0.45312,2.41406 z m 0,0"
       id="path47416" />
    <path
       style="fill:#ffffff;fill-opacity:1;fill-rule:nonzero;stroke:none"
       d="m 300.1875,119.19922 h 1 v 1 h -1 z m 0,0"
       id="path47418" />
    <g
       clip-path="url(#clip3)"
       clip-rule="nonzero"
       id="g47422"
       style="fill:#ffffff">
      <path
         style="fill:#ffffff;fill-opacity:1;fill-rule:nonzero;stroke:none"
         d="m 302.52734,113.98047 v -0.84766 h 4.63282 v 0.6836 c -0.45704,0.48828 -0.90625,1.13281 -1.35547,1.93359 -0.44922,0.80469 -0.79297,1.63281 -1.03516,2.48047 -0.17578,0.60156 -0.28906,1.25781 -0.33984,1.96875 h -0.90235 c 0.0117,-0.5625 0.1211,-1.24219 0.33203,-2.03906 0.21094,-0.79688 0.51563,-1.56641 0.91016,-2.30469 0.39453,-0.74219 0.81641,-1.36719 1.26172,-1.875 z m 0,0"
         id="path47420" />
    </g>
  </g>
</svg>
