<?xml version="1.0" encoding="UTF-8"?>
<svg xmlns="http://www.w3.org/2000/svg" xmlns:xlink="http://www.w3.org/1999/xlink" width="205.260498pt" height="75.653458pt" viewBox="0 0 205.260498 75.653458" version="1.1">
<defs>
<clipPath id="clip1">
  <path d="M 0 0 L 163 0 L 163 75.652344 L 0 75.652344 Z M 0 0 "/>
</clipPath>
<clipPath id="clip2">
  <path d="M 191.453125 46 L 193.71875 46 L 193.71875 50 L 191.453125 50 Z M 191.453125 46 "/>
</clipPath>
<clipPath id="clip3">
  <path d="M 198 68 L 205.261719 68 L 205.261719 75.652344 L 198 75.652344 Z M 198 68 "/>
</clipPath>
<clipPath id="clip4">
  <path d="M 198 56 L 205.261719 56 L 205.261719 64 L 198 64 Z M 198 56 "/>
</clipPath>
</defs>
<g id="surface1">
<path style="fill:none;stroke-width:1.2;stroke-linecap:butt;stroke-linejoin:miter;stroke:rgb(0%,0%,0%);stroke-opacity:1;stroke-miterlimit:4;" d="M 24.425781 3.320312 L 24.425781 28.773438 L 67.382812 28.773438 "/>
<path style="fill:none;stroke-width:1.2;stroke-linecap:butt;stroke-linejoin:miter;stroke:rgb(0%,0%,0%);stroke-opacity:1;stroke-miterlimit:4;" d="M 39.402344 37.117188 L 39.402344 48.574219 L 18.046875 48.574219 "/>
<path style="fill:none;stroke-width:1.2;stroke-linecap:butt;stroke-linejoin:miter;stroke:rgb(0%,0%,0%);stroke-opacity:1;stroke-miterlimit:4;" d="M 59.65625 -2.335938 L 59.65625 -14.167969 " transform="matrix(0,1,-1,0,0,0)"/>
<path style=" stroke:none;fill-rule:nonzero;fill:rgb(0%,0%,0%);fill-opacity:1;" d="M 1.886719 57.824219 C 2.929688 57.824219 3.773438 58.667969 3.773438 59.710938 C 3.773438 60.753906 2.929688 61.597656 1.886719 61.597656 C 0.84375 61.597656 0 60.753906 0 59.710938 C 0 58.667969 0.84375 57.824219 1.886719 57.824219 Z M 1.886719 57.824219 "/>
<path style="fill:none;stroke-width:1.2;stroke-linecap:butt;stroke-linejoin:miter;stroke:rgb(0%,0%,0%);stroke-opacity:1;stroke-miterlimit:4;" d="M 40.023438 -2.457031 L 40.023438 -14.289062 " transform="matrix(0,1,-1,0,0,0)"/>
<path style=" stroke:none;fill-rule:nonzero;fill:rgb(0%,0%,0%);fill-opacity:1;" d="M 2.007812 38.191406 C 3.046875 38.191406 3.894531 39.039062 3.894531 40.078125 C 3.894531 41.121094 3.046875 41.964844 2.007812 41.964844 C 0.964844 41.964844 0.121094 41.121094 0.121094 40.078125 C 0.121094 39.039062 0.964844 38.191406 2.007812 38.191406 Z M 2.007812 38.191406 "/>
<path style="fill-rule:evenodd;fill:rgb(100%,100%,100%);fill-opacity:1;stroke-width:1.2;stroke-linecap:butt;stroke-linejoin:miter;stroke:rgb(0%,0%,0%);stroke-opacity:1;stroke-miterlimit:4;" d="M 101.257812 37.367188 C 115.835938 36.820312 118.554688 45.195312 118.554688 45.195312 C 118.554688 45.195312 116.273438 53.398438 101.238281 52.890625 C 104.585938 48.984375 104.578125 41.492188 101.253906 37.367188 Z M 101.257812 37.367188 "/>
<path style="fill-rule:evenodd;fill:rgb(100%,100%,100%);fill-opacity:1;stroke-width:1.2;stroke-linecap:butt;stroke-linejoin:miter;stroke:rgb(0%,0%,0%);stroke-opacity:1;stroke-miterlimit:4;" d="M 97.492188 53.019531 C 100.839844 49.109375 100.832031 41.621094 97.507812 37.492188 "/>
<path style="fill:none;stroke-width:1.2;stroke-linecap:butt;stroke-linejoin:miter;stroke:rgb(0%,0%,0%);stroke-opacity:1;stroke-miterlimit:4;" d="M 67.125 49.246094 L 99.667969 49.246094 "/>
<path style="fill-rule:nonzero;fill:rgb(100%,100%,100%);fill-opacity:1;stroke-width:1.2;stroke-linecap:butt;stroke-linejoin:miter;stroke:rgb(0%,0%,0%);stroke-opacity:1;stroke-miterlimit:4;" d="M 32.355469 16.152344 C 32.355469 20.425781 28.890625 23.890625 24.621094 23.890625 C 20.347656 23.890625 16.882812 20.425781 16.882812 16.152344 C 16.882812 11.882812 20.347656 8.417969 24.621094 8.417969 C 28.890625 8.417969 32.355469 11.882812 32.355469 16.152344 Z M 32.355469 16.152344 "/>
<path style=" stroke:none;fill-rule:nonzero;fill:rgb(0%,0%,0%);fill-opacity:1;" d="M 24.621094 21.871094 L 25.910156 19.234375 L 27.203125 16.59375 L 22.035156 16.59375 L 23.328125 19.234375 Z M 24.621094 21.871094 "/>
<path style="fill:none;stroke-width:1.2;stroke-linecap:butt;stroke-linejoin:miter;stroke:rgb(0%,0%,0%);stroke-opacity:1;stroke-miterlimit:4;" d="M 24.578125 19.699219 L 24.578125 11.460938 "/>
<path style="fill:none;stroke-width:1.6;stroke-linecap:round;stroke-linejoin:miter;stroke:rgb(0%,0%,0%);stroke-opacity:1;stroke-miterlimit:4;" d="M 29.121094 3.332031 L 20.117188 3.332031 "/>
<path style="fill:none;stroke-width:1.2;stroke-linecap:butt;stroke-linejoin:miter;stroke:rgb(0%,0%,0%);stroke-opacity:1;stroke-miterlimit:4;" d="M 67.492188 3.507812 L 67.492188 68.238281 "/>
<path style="fill-rule:nonzero;fill:rgb(100%,100%,100%);fill-opacity:1;stroke-width:1.2;stroke-linecap:butt;stroke-linejoin:miter;stroke:rgb(0%,0%,0%);stroke-opacity:1;stroke-miterlimit:4;" d="M 75.230469 16.152344 C 75.230469 20.425781 71.765625 23.890625 67.492188 23.890625 C 63.222656 23.890625 59.757812 20.425781 59.757812 16.152344 C 59.757812 11.882812 63.222656 8.417969 67.492188 8.417969 C 71.765625 8.417969 75.230469 11.882812 75.230469 16.152344 Z M 75.230469 16.152344 "/>
<path style=" stroke:none;fill-rule:nonzero;fill:rgb(0%,0%,0%);fill-opacity:1;" d="M 67.492188 21.871094 L 68.785156 19.234375 L 70.078125 16.59375 L 64.910156 16.59375 L 66.203125 19.234375 Z M 67.492188 21.871094 "/>
<path style="fill:none;stroke-width:1.2;stroke-linecap:butt;stroke-linejoin:miter;stroke:rgb(0%,0%,0%);stroke-opacity:1;stroke-miterlimit:4;" d="M 67.453125 19.699219 L 67.453125 11.460938 "/>
<path style="fill:none;stroke-width:1.6;stroke-linecap:round;stroke-linejoin:miter;stroke:rgb(0%,0%,0%);stroke-opacity:1;stroke-miterlimit:4;" d="M 71.996094 3.332031 L 62.992188 3.332031 "/>
<path style="fill-rule:nonzero;fill:rgb(100%,100%,100%);fill-opacity:1;stroke-width:1.19805;stroke-linecap:butt;stroke-linejoin:miter;stroke:rgb(0%,0%,0%);stroke-opacity:1;stroke-miterlimit:4;" d="M 78.453997 51.284768 C 78.455502 58.739419 72.413447 64.781909 64.960306 64.782152 C 57.503275 64.782151 51.459268 58.741648 51.461653 51.287242 C 51.460148 43.832591 57.50245 37.786207 64.959235 37.790102 C 72.412375 37.789859 78.456383 43.830362 78.453997 51.284768 Z M 78.453997 51.284768 " transform="matrix(1,-0.0628603,0.0632023,0.999284,0,0)"/>
<path style="fill-rule:nonzero;fill:rgb(100%,100%,100%);fill-opacity:1;stroke-width:1.150142;stroke-linecap:round;stroke-linejoin:miter;stroke:rgb(0%,0%,0%);stroke-opacity:1;stroke-miterlimit:4;" d="M 41.927268 68.408822 L 37.149925 68.40882 L 32.368996 68.407746 L 37.149602 60.126029 L 39.540228 64.267961 Z M 41.927268 68.408822 " transform="matrix(1,-0.298447,0.298962,0.999354,0,0)"/>
<path style="fill-rule:nonzero;fill:rgb(100%,100%,100%);fill-opacity:1;stroke-width:1.150142;stroke-linecap:butt;stroke-linejoin:miter;stroke:rgb(0%,0%,0%);stroke-opacity:1;stroke-miterlimit:4;" d="M 38.958391 61.092262 C 38.956298 62.092283 38.147735 62.902274 37.147094 62.904419 C 36.147526 62.902975 35.33484 62.093502 35.336933 61.093481 C 35.335441 60.092388 36.14759 59.283468 37.148231 59.281324 C 38.147799 59.282768 38.956899 60.09117 38.958391 61.092262 Z M 38.958391 61.092262 " transform="matrix(1,-0.298447,0.298962,0.999354,0,0)"/>
<path style="fill-rule:nonzero;fill:rgb(100%,100%,100%);fill-opacity:1;stroke-width:0.923906;stroke-linecap:round;stroke-linejoin:miter;stroke:rgb(0%,0%,0%);stroke-opacity:1;stroke-miterlimit:4;" d="M 55.25887 -13.34183 L 51.418833 -13.343862 L 47.576876 -13.34358 L 51.417463 -19.993436 L 53.339126 -16.66879 Z M 55.25887 -13.34183 " transform="matrix(0.829582,0.999511,-1,0.828677,0,0)"/>
<path style="fill-rule:nonzero;fill:rgb(100%,100%,100%);fill-opacity:1;stroke-width:0.923906;stroke-linecap:butt;stroke-linejoin:miter;stroke:rgb(0%,0%,0%);stroke-opacity:1;stroke-miterlimit:4;" d="M 52.871587 -19.220714 C 52.872264 -18.415465 52.219867 -17.765276 51.414743 -17.765224 C 50.613853 -17.765565 49.961339 -18.416254 49.962977 -19.219583 C 49.96038 -20.022518 50.612778 -20.672707 51.415586 -20.67468 C 52.220711 -20.674732 52.871306 -20.021729 52.871587 -19.220714 Z M 52.871587 -19.220714 " transform="matrix(0.829582,0.999511,-1,0.828677,0,0)"/>
<path style="fill-rule:nonzero;fill:rgb(100%,100%,100%);fill-opacity:1;stroke-width:0.995593;stroke-linecap:round;stroke-linejoin:miter;stroke:rgb(0%,0%,0%);stroke-opacity:1;stroke-miterlimit:4;" d="M -5.62768 -64.794677 L -9.763594 -64.793546 L -13.901319 -64.795102 L -11.833146 -68.379797 L -9.763162 -71.961806 Z M -5.62768 -64.794677 " transform="matrix(-0.673681,0.999066,-1,-0.673482,0,0)"/>
<path style="fill-rule:nonzero;fill:rgb(100%,100%,100%);fill-opacity:1;stroke-width:0.995592;stroke-linecap:butt;stroke-linejoin:miter;stroke:rgb(0%,0%,0%);stroke-opacity:1;stroke-miterlimit:4;" d="M -8.200177 -71.128041 C -8.198797 -70.261782 -8.901289 -69.558058 -9.767147 -69.560684 C -10.631194 -69.560623 -11.334906 -70.262327 -11.334474 -71.125899 C -11.333165 -71.993969 -10.631551 -72.693195 -9.767504 -72.693256 C -8.900767 -72.695128 -8.199745 -71.991613 -8.200177 -71.128041 Z M -8.200177 -71.128041 " transform="matrix(-0.673681,0.999066,-1,-0.673482,0,0)"/>
<path style="fill-rule:nonzero;fill:rgb(100%,100%,100%);fill-opacity:1;stroke-width:1.184255;stroke-linecap:round;stroke-linejoin:miter;stroke:rgb(0%,0%,0%);stroke-opacity:1;stroke-miterlimit:4;" d="M -81.692823 -31.348393 L -86.615172 -31.351249 L -91.53689 -31.3503 L -86.61558 -39.877397 L -84.153886 -35.610993 Z M -81.692823 -31.348393 " transform="matrix(-1,-0.166071,0.165898,-0.999216,0,0)"/>
<path style="fill-rule:nonzero;fill:rgb(100%,100%,100%);fill-opacity:1;stroke-width:1.184255;stroke-linecap:butt;stroke-linejoin:miter;stroke:rgb(0%,0%,0%);stroke-opacity:1;stroke-miterlimit:4;" d="M -84.751154 -38.881556 C -84.752425 -37.853194 -85.586639 -37.018689 -86.617988 -37.019287 C -87.644905 -37.016713 -88.482517 -37.85092 -88.481876 -38.883086 C -88.480604 -39.911447 -87.646391 -40.745952 -86.615041 -40.745354 C -85.588125 -40.747928 -84.754314 -39.913089 -84.751154 -38.881556 Z M -84.751154 -38.881556 " transform="matrix(-1,-0.166071,0.165898,-0.999216,0,0)"/>
<path style="fill-rule:nonzero;fill:rgb(100%,100%,100%);fill-opacity:1;stroke-width:1.171936;stroke-linecap:round;stroke-linejoin:miter;stroke:rgb(0%,0%,0%);stroke-opacity:1;stroke-miterlimit:4;" d="M -67.230887 59.370865 L -76.972329 59.37335 L -74.536819 55.155965 L -72.104209 50.93403 L -69.666098 55.154722 Z M -67.230887 59.370865 " transform="matrix(-0.221895,-0.999331,1,-0.221436,0,0)"/>
<path style="fill-rule:nonzero;fill:rgb(100%,100%,100%);fill-opacity:1;stroke-width:1.171936;stroke-linecap:butt;stroke-linejoin:miter;stroke:rgb(0%,0%,0%);stroke-opacity:1;stroke-miterlimit:4;" d="M -70.258326 51.917841 C -70.261287 52.936716 -71.085148 53.761717 -72.1054 53.761891 C -73.125653 53.762065 -73.951578 52.938171 -73.948617 51.919297 C -73.949381 50.899596 -73.12552 50.074594 -72.105268 50.07442 C -71.085016 50.074247 -70.25909 50.89814 -70.258326 51.917841 Z M -70.258326 51.917841 " transform="matrix(-0.221895,-0.999331,1,-0.221436,0,0)"/>
<path style=" stroke:none;fill-rule:evenodd;fill:rgb(100%,100%,100%);fill-opacity:1;" d="M 13.066406 66.644531 L 13.066406 52.316406 L 17.605469 48.945312 L 13.066406 45.578125 L 13.066406 30.570312 L 26.542969 36.515625 L 26.542969 60.523438 Z M 13.066406 66.644531 "/>
<g clip-path="url(#clip1)" clip-rule="nonzero">
<path style="fill:none;stroke-width:1.2;stroke-linecap:butt;stroke-linejoin:miter;stroke:rgb(0%,0%,0%);stroke-opacity:1;stroke-miterlimit:79.840317;" d="M 13.066406 66.644531 L 13.066406 52.316406 L 17.605469 48.945312 L 13.066406 45.578125 L 13.066406 30.570312 L 26.542969 36.515625 L 26.542969 60.523438 Z M 13.066406 66.644531 "/>
</g>
<path style="fill:none;stroke-width:1.2;stroke-linecap:round;stroke-linejoin:miter;stroke:rgb(0%,0%,0%);stroke-opacity:1;stroke-miterlimit:4;" d="M 16.261719 57.453125 L 20.105469 57.453125 "/>
<path style="fill:none;stroke-width:1.259383;stroke-linecap:round;stroke-linejoin:miter;stroke:rgb(0%,0%,0%);stroke-opacity:1;stroke-miterlimit:4;" d="M 19.989049 42.578125 L 19.989049 38.347656 " transform="matrix(0.907919,0,0,1,0,0)"/>
<path style="fill:none;stroke-width:1.259383;stroke-linecap:round;stroke-linejoin:miter;stroke:rgb(0%,0%,0%);stroke-opacity:1;stroke-miterlimit:4;" d="M 22.10584 40.464844 L 17.872258 40.464844 " transform="matrix(0.907919,0,0,1,0,0)"/>
<path style=" stroke:none;fill-rule:nonzero;fill:rgb(0%,0%,0%);fill-opacity:1;" d="M 39.488281 33.726562 L 40.535156 36.980469 L 41.582031 40.238281 L 37.394531 40.238281 L 38.441406 36.980469 Z M 39.488281 33.726562 "/>
<path style="fill:none;stroke-width:1.2;stroke-linecap:butt;stroke-linejoin:miter;stroke:rgb(0%,0%,0%);stroke-opacity:1;stroke-miterlimit:4;" d="M 40.90625 -93.664062 L 40.90625 -99 " transform="matrix(0,1,-1,0,0,0)"/>
<path style=" stroke:none;fill-rule:nonzero;fill:rgb(0%,0%,0%);fill-opacity:1;" d="M 93.210938 39.074219 C 94.253906 39.074219 95.097656 39.917969 95.097656 40.960938 C 95.097656 42.003906 94.253906 42.847656 93.210938 42.847656 C 92.171875 42.847656 91.324219 42.003906 91.324219 40.960938 C 91.324219 39.917969 92.171875 39.074219 93.210938 39.074219 Z M 93.210938 39.074219 "/>
<path style=" stroke:none;fill-rule:nonzero;fill:rgb(0%,0%,0%);fill-opacity:1;" d="M 68.582031 46.589844 C 68.582031 44.949219 67.207031 43.480469 65.738281 43.261719 L 65.738281 40.996094 L 64.519531 40.996094 L 64.519531 43.261719 C 63.066406 43.480469 61.691406 44.949219 61.691406 46.589844 C 61.691406 48.230469 63.066406 49.714844 64.519531 49.917969 L 64.519531 52.496094 L 65.738281 52.496094 L 65.738281 49.917969 C 67.207031 49.714844 68.582031 48.230469 68.582031 46.589844 Z M 67.347656 46.589844 C 67.347656 47.699219 66.675781 48.496094 65.738281 48.667969 L 65.738281 44.511719 C 66.675781 44.699219 67.347656 45.480469 67.347656 46.589844 Z M 64.519531 44.355469 L 64.519531 48.667969 C 63.597656 48.496094 62.925781 47.699219 62.925781 46.589844 C 62.925781 45.480469 63.597656 44.699219 64.519531 44.511719 Z M 64.519531 44.355469 "/>
<path style=" stroke:none;fill-rule:nonzero;fill:rgb(0%,0%,0%);fill-opacity:1;" d="M 69.214844 52.136719 L 71.417969 46.402344 L 72.246094 46.402344 L 74.589844 52.136719 Z M 70.277344 51.464844 L 73.464844 51.464844 L 72.214844 48.199219 C 72.035156 47.710938 71.902344 47.316406 71.808594 47.011719 C 71.746094 47.367188 71.644531 47.730469 71.511719 48.105469 Z M 70.277344 51.464844 "/>
<path style=" stroke:none;fill-rule:nonzero;fill:rgb(0%,0%,0%);fill-opacity:1;" d="M 89.164062 31.863281 C 89.164062 30.222656 87.789062 28.753906 86.320312 28.535156 L 86.320312 26.269531 L 85.101562 26.269531 L 85.101562 28.535156 C 83.648438 28.753906 82.273438 30.222656 82.273438 31.863281 C 82.273438 33.503906 83.648438 34.988281 85.101562 35.191406 L 85.101562 37.769531 L 86.320312 37.769531 L 86.320312 35.191406 C 87.789062 34.988281 89.164062 33.503906 89.164062 31.863281 Z M 87.929688 31.863281 C 87.929688 32.972656 87.257812 33.769531 86.320312 33.941406 L 86.320312 29.785156 C 87.257812 29.972656 87.929688 30.753906 87.929688 31.863281 Z M 85.101562 29.628906 L 85.101562 33.941406 C 84.179688 33.769531 83.507812 32.972656 83.507812 31.863281 C 83.507812 30.753906 84.179688 29.972656 85.101562 29.785156 Z M 85.101562 29.628906 "/>
<path style=" stroke:none;fill-rule:nonzero;fill:rgb(0%,0%,0%);fill-opacity:1;" d="M 90.4375 37.40625 L 90.4375 31.671875 L 92.984375 31.671875 C 93.492188 31.671875 93.878906 31.726562 94.140625 31.828125 C 94.410156 31.933594 94.625 32.117188 94.78125 32.375 C 94.9375 32.636719 95.015625 32.921875 95.015625 33.234375 C 95.015625 33.640625 94.882812 33.984375 94.625 34.265625 C 94.363281 34.546875 93.957031 34.726562 93.40625 34.796875 C 93.601562 34.890625 93.753906 34.984375 93.859375 35.078125 C 94.085938 35.289062 94.300781 35.542969 94.5 35.84375 L 95.484375 37.40625 L 94.53125 37.40625 L 93.78125 36.21875 C 93.5625 35.875 93.378906 35.617188 93.234375 35.4375 C 93.085938 35.25 92.957031 35.121094 92.84375 35.046875 C 92.726562 34.976562 92.613281 34.921875 92.5 34.890625 C 92.414062 34.871094 92.273438 34.859375 92.078125 34.859375 L 91.203125 34.859375 L 91.203125 37.40625 Z M 91.203125 34.203125 L 92.828125 34.203125 C 93.171875 34.203125 93.441406 34.167969 93.640625 34.09375 C 93.835938 34.023438 93.984375 33.90625 94.078125 33.75 C 94.179688 33.59375 94.234375 33.421875 94.234375 33.234375 C 94.234375 32.964844 94.132812 32.746094 93.9375 32.578125 C 93.75 32.402344 93.441406 32.3125 93.015625 32.3125 L 91.203125 32.3125 Z M 91.203125 34.203125 "/>
<path style="fill:none;stroke-width:1.2;stroke-linecap:butt;stroke-linejoin:miter;stroke:rgb(0%,0%,0%);stroke-opacity:1;stroke-miterlimit:4;" d="M 117.617188 45.378906 L 130.230469 45.378906 "/>
<path style=" stroke:none;fill-rule:nonzero;fill:rgb(0%,0%,0%);fill-opacity:1;" d="M 129.296875 43.449219 C 130.339844 43.449219 131.183594 44.292969 131.183594 45.335938 C 131.183594 46.378906 130.339844 47.222656 129.296875 47.222656 C 128.253906 47.222656 127.410156 46.378906 127.410156 45.335938 C 127.410156 44.292969 128.253906 43.449219 129.296875 43.449219 Z M 129.296875 43.449219 "/>
<path style=" stroke:none;fill-rule:nonzero;fill:rgb(0%,0%,0%);fill-opacity:1;" d="M 126.722656 41.140625 C 127.253906 41.507812 127.738281 41.773438 128.175781 41.9375 L 127.847656 42.734375 C 127.230469 42.503906 126.617188 42.148438 126.003906 41.671875 C 125.367188 42.027344 124.664062 42.203125 123.894531 42.203125 C 123.113281 42.203125 122.402344 42.015625 121.769531 41.640625 C 121.144531 41.265625 120.660156 40.742188 120.316406 40.0625 C 119.972656 39.386719 119.800781 38.621094 119.800781 37.765625 C 119.800781 36.921875 119.972656 36.152344 120.316406 35.453125 C 120.660156 34.757812 121.148438 34.226562 121.785156 33.859375 C 122.417969 33.496094 123.128906 33.3125 123.910156 33.3125 C 124.699219 33.3125 125.414062 33.507812 126.050781 33.890625 C 126.695312 34.265625 127.183594 34.792969 127.519531 35.46875 C 127.851562 36.148438 128.019531 36.914062 128.019531 37.765625 C 128.019531 38.476562 127.910156 39.109375 127.691406 39.671875 C 127.480469 40.234375 127.160156 40.726562 126.722656 41.140625 Z M 124.222656 39.6875 C 124.878906 39.875 125.417969 40.152344 125.847656 40.515625 C 126.511719 39.902344 126.847656 38.984375 126.847656 37.765625 C 126.847656 37.070312 126.726562 36.460938 126.488281 35.9375 C 126.246094 35.417969 125.898438 35.015625 125.441406 34.734375 C 124.992188 34.445312 124.488281 34.296875 123.925781 34.296875 C 123.070312 34.296875 122.363281 34.589844 121.800781 35.171875 C 121.246094 35.746094 120.972656 36.609375 120.972656 37.765625 C 120.972656 38.882812 121.246094 39.742188 121.800781 40.34375 C 122.351562 40.9375 123.058594 41.234375 123.925781 41.234375 C 124.332031 41.234375 124.710938 41.15625 125.066406 41 C 124.710938 40.773438 124.335938 40.609375 123.941406 40.515625 Z M 124.222656 39.6875 "/>
<path style=" stroke:none;fill-rule:nonzero;fill:rgb(0%,0%,0%);fill-opacity:1;" d="M 8.273438 11.808594 L 9.210938 11.808594 L 9.210938 18.964844 L 8.273438 18.964844 Z M 8.273438 11.808594 "/>
<path style=" stroke:none;fill-rule:nonzero;fill:rgb(0%,0%,0%);fill-opacity:1;" d="M 10.054688 20.925781 L 11.695312 16.628906 L 12.304688 16.628906 L 14.070312 20.925781 Z M 10.835938 20.425781 L 13.226562 20.425781 L 12.289062 17.972656 C 12.152344 17.609375 12.054688 17.3125 11.992188 17.082031 C 11.9375 17.34375 11.859375 17.613281 11.757812 17.894531 Z M 10.835938 20.425781 "/>
<path style=" stroke:none;fill-rule:nonzero;fill:rgb(0%,0%,0%);fill-opacity:1;" d="M 77.992188 11.566406 L 78.929688 11.566406 L 78.929688 18.722656 L 77.992188 18.722656 Z M 77.992188 11.566406 "/>
<path style=" stroke:none;fill-rule:nonzero;fill:rgb(0%,0%,0%);fill-opacity:1;" d="M 80.210938 20.683594 L 80.210938 16.386719 L 81.820312 16.386719 C 82.152344 16.386719 82.417969 16.433594 82.617188 16.527344 C 82.8125 16.613281 82.964844 16.742188 83.070312 16.917969 C 83.183594 17.097656 83.242188 17.285156 83.242188 17.480469 C 83.242188 17.667969 83.1875 17.847656 83.085938 18.011719 C 82.992188 18.167969 82.84375 18.300781 82.648438 18.402344 C 82.90625 18.476562 83.105469 18.605469 83.242188 18.792969 C 83.386719 18.972656 83.460938 19.183594 83.460938 19.433594 C 83.460938 19.644531 83.414062 19.835938 83.320312 20.011719 C 83.234375 20.179688 83.132812 20.308594 83.007812 20.402344 C 82.882812 20.496094 82.726562 20.570312 82.539062 20.621094 C 82.351562 20.664062 82.121094 20.683594 81.851562 20.683594 Z M 80.789062 18.199219 L 81.710938 18.199219 C 81.960938 18.199219 82.140625 18.179688 82.257812 18.136719 C 82.402344 18.097656 82.511719 18.027344 82.585938 17.933594 C 82.65625 17.832031 82.695312 17.707031 82.695312 17.558594 C 82.695312 17.414062 82.65625 17.289062 82.585938 17.183594 C 82.511719 17.070312 82.414062 16.996094 82.289062 16.964844 C 82.164062 16.925781 81.945312 16.902344 81.632812 16.902344 L 80.789062 16.902344 Z M 80.789062 20.183594 L 81.851562 20.183594 C 82.039062 20.183594 82.167969 20.175781 82.242188 20.152344 C 82.367188 20.132812 82.46875 20.097656 82.554688 20.042969 C 82.648438 19.980469 82.71875 19.898438 82.773438 19.792969 C 82.835938 19.691406 82.867188 19.570312 82.867188 19.433594 C 82.867188 19.277344 82.824219 19.144531 82.742188 19.027344 C 82.65625 18.902344 82.542969 18.820312 82.398438 18.777344 C 82.25 18.726562 82.042969 18.699219 81.773438 18.699219 L 80.789062 18.699219 Z M 80.789062 20.183594 "/>
<path style=" stroke:none;fill-rule:nonzero;fill:rgb(0%,0%,0%);fill-opacity:1;" d="M 6.9375 56.113281 C 7.46875 56.480469 7.953125 56.746094 8.390625 56.910156 L 8.0625 57.707031 C 7.445312 57.476562 6.832031 57.121094 6.21875 56.644531 C 5.582031 57 4.878906 57.175781 4.109375 57.175781 C 3.328125 57.175781 2.617188 56.988281 1.984375 56.613281 C 1.359375 56.238281 0.875 55.714844 0.53125 55.035156 C 0.1875 54.359375 0.015625 53.59375 0.015625 52.738281 C 0.015625 51.894531 0.1875 51.125 0.53125 50.425781 C 0.875 49.730469 1.363281 49.199219 2 48.832031 C 2.632812 48.46875 3.34375 48.285156 4.125 48.285156 C 4.914062 48.285156 5.628906 48.480469 6.265625 48.863281 C 6.910156 49.238281 7.398438 49.765625 7.734375 50.441406 C 8.066406 51.121094 8.234375 51.886719 8.234375 52.738281 C 8.234375 53.449219 8.125 54.082031 7.90625 54.644531 C 7.695312 55.207031 7.375 55.699219 6.9375 56.113281 Z M 4.4375 54.660156 C 5.09375 54.847656 5.632812 55.125 6.0625 55.488281 C 6.726562 54.875 7.0625 53.957031 7.0625 52.738281 C 7.0625 52.042969 6.941406 51.433594 6.703125 50.910156 C 6.460938 50.390625 6.113281 49.988281 5.65625 49.707031 C 5.207031 49.417969 4.703125 49.269531 4.140625 49.269531 C 3.285156 49.269531 2.578125 49.5625 2.015625 50.144531 C 1.460938 50.71875 1.1875 51.582031 1.1875 52.738281 C 1.1875 53.855469 1.460938 54.714844 2.015625 55.316406 C 2.566406 55.910156 3.273438 56.207031 4.140625 56.207031 C 4.546875 56.207031 4.925781 56.128906 5.28125 55.972656 C 4.925781 55.746094 4.550781 55.582031 4.15625 55.488281 Z M 4.4375 54.660156 "/>
<path style=" stroke:none;fill-rule:nonzero;fill:rgb(0%,0%,0%);fill-opacity:1;" d="M 0.328125 36.710938 L 0.328125 28.117188 L 3.296875 28.117188 C 3.960938 28.117188 4.472656 28.160156 4.828125 28.242188 C 5.316406 28.359375 5.734375 28.5625 6.078125 28.851562 C 6.535156 29.238281 6.875 29.734375 7.09375 30.335938 C 7.320312 30.929688 7.4375 31.609375 7.4375 32.367188 C 7.4375 33.023438 7.359375 33.601562 7.203125 34.101562 C 7.054688 34.601562 6.863281 35.019531 6.625 35.351562 C 6.382812 35.6875 6.117188 35.945312 5.828125 36.132812 C 5.546875 36.320312 5.207031 36.46875 4.8125 36.570312 C 4.414062 36.664062 3.957031 36.710938 3.4375 36.710938 Z M 1.46875 35.695312 L 3.296875 35.695312 C 3.867188 35.695312 4.316406 35.644531 4.640625 35.539062 C 4.960938 35.4375 5.21875 35.285156 5.40625 35.085938 C 5.675781 34.828125 5.882812 34.46875 6.03125 34.007812 C 6.1875 33.550781 6.265625 33 6.265625 32.351562 C 6.265625 31.457031 6.113281 30.769531 5.8125 30.289062 C 5.519531 29.800781 5.164062 29.472656 4.75 29.304688 C 4.4375 29.191406 3.945312 29.132812 3.28125 29.132812 L 1.46875 29.132812 Z M 1.46875 35.695312 "/>
<path style="fill:none;stroke-width:1.2;stroke-linecap:round;stroke-linejoin:miter;stroke:rgb(0%,0%,0%);stroke-opacity:1;stroke-miterlimit:4;" d="M 62.972656 68.296875 L 71.976562 68.296875 "/>
<path style="fill:none;stroke-width:1.2;stroke-linecap:round;stroke-linejoin:miter;stroke:rgb(0%,0%,0%);stroke-opacity:1;stroke-miterlimit:4;" d="M 65.011719 71.070312 L 69.941406 71.070312 "/>
<path style="fill:none;stroke-width:1.2;stroke-linecap:round;stroke-linejoin:miter;stroke:rgb(0%,0%,0%);stroke-opacity:1;stroke-miterlimit:4;" d="M 66.570312 73.839844 L 68.378906 73.839844 "/>
<path style=" stroke:none;fill-rule:nonzero;fill:rgb(0%,0%,0%);fill-opacity:1;" d="M 67.402344 26.816406 C 68.445312 26.816406 69.289062 27.660156 69.289062 28.703125 C 69.289062 29.746094 68.445312 30.589844 67.402344 30.589844 C 66.359375 30.589844 65.515625 29.746094 65.515625 28.703125 C 65.515625 27.660156 66.359375 26.816406 67.402344 26.816406 Z M 67.402344 26.816406 "/>
<path style="fill-rule:nonzero;fill:rgb(100%,100%,100%);fill-opacity:1;stroke-width:1.2;stroke-linecap:round;stroke-linejoin:miter;stroke:rgb(100%,100%,100%);stroke-opacity:1;stroke-miterlimit:4;" d="M -33.597656 27.445312 L -43.949219 27.445312 L -43.949219 30.019531 L -33.597656 30.019531 Z M -33.597656 27.445312 " transform="matrix(-1,0,0,1,0,0)"/>
<path style=" stroke:none;fill-rule:nonzero;fill:rgb(0%,0%,0%);fill-opacity:1;" d="M 36.476562 32.988281 L 42.050781 28.941406 C 42.355469 28.71875 42.789062 28.785156 43.011719 29.09375 C 43.234375 29.402344 43.164062 29.832031 42.859375 30.054688 L 37.285156 34.101562 C 36.976562 34.324219 36.546875 34.257812 36.324219 33.949219 C 36.101562 33.644531 36.167969 33.210938 36.476562 32.988281 "/>
<path style="fill-rule:nonzero;fill:rgb(100%,100%,100%);fill-opacity:1;stroke-width:1.2;stroke-linecap:butt;stroke-linejoin:miter;stroke:rgb(0%,0%,0%);stroke-opacity:1;stroke-miterlimit:4;" d="M -42.195312 -28.738281 C -42.195312 -28.007812 -42.789062 -27.410156 -43.523438 -27.410156 C -44.253906 -27.410156 -44.851562 -28.007812 -44.851562 -28.738281 C -44.851562 -29.472656 -44.253906 -30.066406 -43.523438 -30.066406 C -42.789062 -30.066406 -42.195312 -29.472656 -42.195312 -28.738281 Z M -42.195312 -28.738281 " transform="matrix(-1,0,0,-1,0,0)"/>
<path style="fill-rule:nonzero;fill:rgb(100%,100%,100%);fill-opacity:1;stroke-width:1.2;stroke-linecap:butt;stroke-linejoin:miter;stroke:rgb(0%,0%,0%);stroke-opacity:1;stroke-miterlimit:4;" d="M -32.636719 -28.722656 C -32.636719 -27.992188 -33.230469 -27.394531 -33.964844 -27.394531 C -34.699219 -27.394531 -35.292969 -27.992188 -35.292969 -28.722656 C -35.292969 -29.457031 -34.699219 -30.050781 -33.964844 -30.050781 C -33.230469 -30.050781 -32.636719 -29.457031 -32.636719 -28.722656 Z M -32.636719 -28.722656 " transform="matrix(-1,0,0,-1,0,0)"/>
<path style="fill:none;stroke-width:0.8;stroke-linecap:butt;stroke-linejoin:miter;stroke:rgb(0%,0%,0%);stroke-opacity:1;stroke-miterlimit:4;" d="M 190.667969 47.914062 L 190.667969 71.234375 "/>
<path style=" stroke:none;fill-rule:nonzero;fill:rgb(100%,100%,100%);fill-opacity:1;" d="M 186.804688 51.148438 L 191.058594 51.148438 L 191.058594 57.632812 L 186.804688 57.632812 Z M 186.804688 51.148438 "/>
<path style="fill:none;stroke-width:0.8;stroke-linecap:butt;stroke-linejoin:miter;stroke:rgb(0%,0%,0%);stroke-opacity:1;stroke-miterlimit:4;" d="M -191.054688 51.296875 L -186.898438 51.296875 L -186.898438 57.570312 L -191.058594 57.570312 " transform="matrix(-1,0,0,1,0,0)"/>
<path style="fill:none;stroke-width:0.8;stroke-linecap:butt;stroke-linejoin:miter;stroke:rgb(0%,0%,0%);stroke-opacity:1;stroke-miterlimit:4;" d="M -185.605469 50.90625 L -185.605469 57.957031 " transform="matrix(-1,0,0,1,0,0)"/>
<path style=" stroke:none;fill-rule:nonzero;fill:rgb(0%,0%,0%);fill-opacity:1;" d="M 186.523438 51.292969 L 188.523438 50.207031 L 188.523438 52.382812 L 187.523438 51.839844 Z M 186.523438 51.292969 "/>
<path style=" stroke:none;fill-rule:nonzero;fill:rgb(100%,100%,100%);fill-opacity:1;" d="M 186.804688 61.417969 L 191.058594 61.417969 L 191.058594 67.902344 L 186.804688 67.902344 Z M 186.804688 61.417969 "/>
<path style="fill:none;stroke-width:0.8;stroke-linecap:butt;stroke-linejoin:miter;stroke:rgb(0%,0%,0%);stroke-opacity:1;stroke-miterlimit:4;" d="M -191.054688 67.855469 L -186.898438 67.855469 L -186.898438 61.582031 L -191.058594 61.582031 " transform="matrix(-1,0,0,1,0,0)"/>
<path style="fill:none;stroke-width:0.8;stroke-linecap:butt;stroke-linejoin:miter;stroke:rgb(0%,0%,0%);stroke-opacity:1;stroke-miterlimit:4;" d="M -185.605469 68.246094 L -185.605469 61.191406 " transform="matrix(-1,0,0,1,0,0)"/>
<path style=" stroke:none;fill-rule:nonzero;fill:rgb(0%,0%,0%);fill-opacity:1;" d="M 191.058594 67.855469 L 190.058594 68.402344 L 189.054688 68.945312 L 189.054688 66.769531 L 190.058594 67.3125 Z M 191.058594 67.855469 "/>
<path style="fill:none;stroke-width:0.8;stroke-linecap:butt;stroke-linejoin:miter;stroke:rgb(0%,0%,0%);stroke-opacity:1;stroke-miterlimit:4;" d="M 185.519531 64.828125 L 182.394531 64.828125 L 182.394531 54.023438 L 185.566406 54.023438 "/>
<path style="fill:none;stroke-width:0.8;stroke-linecap:butt;stroke-linejoin:miter;stroke:rgb(0%,0%,0%);stroke-opacity:1;stroke-miterlimit:4;" d="M 177.886719 47.914062 L 177.886719 71.234375 "/>
<path style=" stroke:none;fill-rule:nonzero;fill:rgb(100%,100%,100%);fill-opacity:1;" d="M 174.023438 51.148438 L 178.277344 51.148438 L 178.277344 57.632812 L 174.023438 57.632812 Z M 174.023438 51.148438 "/>
<path style="fill:none;stroke-width:0.8;stroke-linecap:butt;stroke-linejoin:miter;stroke:rgb(0%,0%,0%);stroke-opacity:1;stroke-miterlimit:4;" d="M -178.277344 51.296875 L -174.117188 51.296875 L -174.117188 57.570312 L -178.277344 57.570312 " transform="matrix(-1,0,0,1,0,0)"/>
<path style="fill:none;stroke-width:0.8;stroke-linecap:butt;stroke-linejoin:miter;stroke:rgb(0%,0%,0%);stroke-opacity:1;stroke-miterlimit:4;" d="M -172.824219 50.90625 L -172.824219 57.957031 " transform="matrix(-1,0,0,1,0,0)"/>
<path style=" stroke:none;fill-rule:nonzero;fill:rgb(0%,0%,0%);fill-opacity:1;" d="M 173.742188 51.292969 L 175.742188 50.207031 L 175.742188 52.382812 L 174.742188 51.839844 Z M 173.742188 51.292969 "/>
<path style=" stroke:none;fill-rule:nonzero;fill:rgb(100%,100%,100%);fill-opacity:1;" d="M 174.023438 61.417969 L 178.277344 61.417969 L 178.277344 67.902344 L 174.023438 67.902344 Z M 174.023438 61.417969 "/>
<path style="fill:none;stroke-width:0.8;stroke-linecap:butt;stroke-linejoin:miter;stroke:rgb(0%,0%,0%);stroke-opacity:1;stroke-miterlimit:4;" d="M -178.273438 67.855469 L -174.117188 67.855469 L -174.117188 61.582031 L -178.277344 61.582031 " transform="matrix(-1,0,0,1,0,0)"/>
<path style="fill:none;stroke-width:0.8;stroke-linecap:butt;stroke-linejoin:miter;stroke:rgb(0%,0%,0%);stroke-opacity:1;stroke-miterlimit:4;" d="M -172.824219 68.246094 L -172.824219 61.191406 " transform="matrix(-1,0,0,1,0,0)"/>
<path style=" stroke:none;fill-rule:nonzero;fill:rgb(0%,0%,0%);fill-opacity:1;" d="M 178.277344 67.855469 L 177.277344 68.402344 L 176.273438 68.945312 L 176.273438 66.769531 L 177.277344 67.3125 Z M 178.277344 67.855469 "/>
<path style="fill:none;stroke-width:0.8;stroke-linecap:butt;stroke-linejoin:miter;stroke:rgb(0%,0%,0%);stroke-opacity:1;stroke-miterlimit:4;" d="M 172.738281 64.828125 L 169.613281 64.828125 L 169.613281 54.023438 L 172.785156 54.023438 "/>
<path style="fill:none;stroke-width:0.8;stroke-linecap:butt;stroke-linejoin:miter;stroke:rgb(0%,0%,0%);stroke-opacity:1;stroke-miterlimit:4;" d="M 165.105469 47.914062 L 165.105469 71.234375 "/>
<path style=" stroke:none;fill-rule:nonzero;fill:rgb(100%,100%,100%);fill-opacity:1;" d="M 161.242188 51.148438 L 165.496094 51.148438 L 165.496094 57.632812 L 161.242188 57.632812 Z M 161.242188 51.148438 "/>
<path style="fill:none;stroke-width:0.8;stroke-linecap:butt;stroke-linejoin:miter;stroke:rgb(0%,0%,0%);stroke-opacity:1;stroke-miterlimit:4;" d="M -165.496094 51.296875 L -161.335938 51.296875 L -161.335938 57.570312 L -165.496094 57.570312 " transform="matrix(-1,0,0,1,0,0)"/>
<path style="fill:none;stroke-width:0.8;stroke-linecap:butt;stroke-linejoin:miter;stroke:rgb(0%,0%,0%);stroke-opacity:1;stroke-miterlimit:4;" d="M -160.042969 50.90625 L -160.042969 57.957031 " transform="matrix(-1,0,0,1,0,0)"/>
<path style=" stroke:none;fill-rule:nonzero;fill:rgb(0%,0%,0%);fill-opacity:1;" d="M 160.960938 51.292969 L 162.960938 50.207031 L 162.960938 52.382812 L 161.960938 51.839844 Z M 160.960938 51.292969 "/>
<path style=" stroke:none;fill-rule:nonzero;fill:rgb(100%,100%,100%);fill-opacity:1;" d="M 161.242188 61.417969 L 165.496094 61.417969 L 165.496094 67.902344 L 161.242188 67.902344 Z M 161.242188 61.417969 "/>
<path style="fill:none;stroke-width:0.8;stroke-linecap:butt;stroke-linejoin:miter;stroke:rgb(0%,0%,0%);stroke-opacity:1;stroke-miterlimit:4;" d="M -165.492188 67.855469 L -161.335938 67.855469 L -161.335938 61.582031 L -165.496094 61.582031 " transform="matrix(-1,0,0,1,0,0)"/>
<path style="fill:none;stroke-width:0.8;stroke-linecap:butt;stroke-linejoin:miter;stroke:rgb(0%,0%,0%);stroke-opacity:1;stroke-miterlimit:4;" d="M -160.042969 68.246094 L -160.042969 61.191406 " transform="matrix(-1,0,0,1,0,0)"/>
<path style=" stroke:none;fill-rule:nonzero;fill:rgb(0%,0%,0%);fill-opacity:1;" d="M 165.496094 67.855469 L 164.496094 68.402344 L 163.492188 68.945312 L 163.492188 66.769531 L 164.496094 67.3125 Z M 165.496094 67.855469 "/>
<path style="fill:none;stroke-width:0.8;stroke-linecap:butt;stroke-linejoin:miter;stroke:rgb(0%,0%,0%);stroke-opacity:1;stroke-miterlimit:4;" d="M 159.957031 64.828125 L 156.832031 64.828125 L 156.832031 54.023438 L 160.003906 54.023438 "/>
<path style="fill:none;stroke-width:0.8;stroke-linecap:butt;stroke-linejoin:miter;stroke:rgb(0%,0%,0%);stroke-opacity:1;stroke-miterlimit:4;" d="M 164.898438 59.601562 L 169.667969 59.601562 "/>
<path style="fill:none;stroke-width:0.8;stroke-linecap:butt;stroke-linejoin:miter;stroke:rgb(0%,0%,0%);stroke-opacity:1;stroke-miterlimit:4;" d="M 177.679688 59.601562 L 182.449219 59.601562 "/>
<path style="fill:none;stroke-width:0.8;stroke-linecap:butt;stroke-linejoin:miter;stroke:rgb(0%,0%,0%);stroke-opacity:1;stroke-miterlimit:4;" d="M 164.734375 71.339844 L 194.914062 71.339844 "/>
<path style="fill:none;stroke-width:0.8;stroke-linecap:butt;stroke-linejoin:miter;stroke:rgb(0%,0%,0%);stroke-opacity:1;stroke-miterlimit:4;" d="M 156.832031 55.722656 L 156.832031 44.410156 L 193.316406 44.410156 L 193.316406 59.824219 "/>
<path style="fill:none;stroke-width:0.8;stroke-linecap:butt;stroke-linejoin:miter;stroke:rgb(0%,0%,0%);stroke-opacity:1;stroke-miterlimit:4;" d="M 190.507812 59.640625 L 195.277344 59.640625 "/>
<path style=" stroke:none;fill-rule:nonzero;fill:rgb(0%,0%,0%);fill-opacity:1;" d="M 195.980469 46.835938 C 196.660156 46.835938 197.207031 47.386719 197.207031 48.0625 C 197.207031 48.742188 196.660156 49.289062 195.980469 49.289062 C 195.304688 49.289062 194.753906 48.742188 194.753906 48.0625 C 194.753906 47.386719 195.304688 46.835938 195.980469 46.835938 Z M 195.980469 46.835938 "/>
<path style=" stroke:none;fill-rule:nonzero;fill:rgb(0%,0%,0%);fill-opacity:1;" d="M 195.980469 58.457031 C 196.660156 58.457031 197.207031 59.007812 197.207031 59.683594 C 197.207031 60.363281 196.660156 60.910156 195.980469 60.910156 C 195.304688 60.910156 194.753906 60.363281 194.753906 59.683594 C 194.753906 59.007812 195.304688 58.457031 195.980469 58.457031 Z M 195.980469 58.457031 "/>
<path style=" stroke:none;fill-rule:nonzero;fill:rgb(0%,0%,0%);fill-opacity:1;" d="M 195.980469 70.128906 C 196.660156 70.128906 197.207031 70.679688 197.207031 71.355469 C 197.207031 72.035156 196.660156 72.582031 195.980469 72.582031 C 195.304688 72.582031 194.753906 72.035156 194.753906 71.355469 C 194.753906 70.679688 195.304688 70.128906 195.980469 70.128906 Z M 195.980469 70.128906 "/>
<path style=" stroke:none;fill-rule:nonzero;fill:rgb(100%,100%,100%);fill-opacity:1;" d="M 192.59375 46.738281 L 193.824219 46.738281 L 193.824219 49.171875 L 192.59375 49.171875 Z M 192.59375 46.738281 "/>
<g clip-path="url(#clip2)" clip-rule="nonzero">
<path style="fill:none;stroke-width:0.8;stroke-linecap:butt;stroke-linejoin:miter;stroke:rgb(0%,0%,0%);stroke-opacity:1;stroke-miterlimit:4;" d="M -46.777344 193.589844 C -46.777344 194.269531 -47.328125 194.816406 -48.003906 194.816406 C -48.683594 194.816406 -49.230469 194.269531 -49.230469 193.589844 C -49.230469 192.914062 -48.683594 192.363281 -48.003906 192.363281 C -47.328125 192.363281 -46.777344 192.914062 -46.777344 193.589844 Z M -46.777344 193.589844 " transform="matrix(0,-1,1,0,0,-0.000000000000014211)"/>
</g>
<path style="fill:none;stroke-width:0.8;stroke-linecap:butt;stroke-linejoin:miter;stroke:rgb(0%,0%,0%);stroke-opacity:1;stroke-miterlimit:4;" d="M 164.835938 48.035156 L 195.015625 48.035156 "/>
<g clip-path="url(#clip3)" clip-rule="nonzero">
<path style=" stroke:none;fill-rule:nonzero;fill:rgb(0%,0%,0%);fill-opacity:1;" d="M 204.285156 74.464844 L 204.285156 72.511719 L 202.675781 72.511719 L 202.675781 71.699219 L 205.253906 71.699219 L 205.253906 74.839844 C 204.878906 75.101562 204.460938 75.304688 204.003906 75.449219 C 203.542969 75.582031 203.054688 75.652344 202.535156 75.652344 C 201.386719 75.652344 200.492188 75.320312 199.847656 74.652344 C 199.210938 73.988281 198.894531 73.058594 198.894531 71.871094 C 198.894531 70.683594 199.210938 69.757812 199.847656 69.089844 C 200.492188 68.425781 201.386719 68.089844 202.535156 68.089844 C 203.003906 68.089844 203.449219 68.148438 203.878906 68.261719 C 204.316406 68.378906 204.710938 68.550781 205.066406 68.777344 L 205.066406 69.839844 C 204.699219 69.527344 204.316406 69.292969 203.910156 69.136719 C 203.503906 68.980469 203.070312 68.902344 202.613281 68.902344 C 201.714844 68.902344 201.042969 69.152344 200.597656 69.652344 C 200.160156 70.144531 199.941406 70.882812 199.941406 71.871094 C 199.941406 72.863281 200.160156 73.605469 200.597656 74.105469 C 201.042969 74.597656 201.714844 74.839844 202.613281 74.839844 C 202.964844 74.839844 203.277344 74.816406 203.550781 74.761719 C 203.820312 74.699219 204.066406 74.601562 204.285156 74.464844 Z M 204.285156 74.464844 "/>
</g>
<path style=" stroke:none;fill-rule:nonzero;fill:rgb(0%,0%,0%);fill-opacity:1;" d="M 202.695312 48.332031 C 202.902344 48.40625 203.105469 48.5625 203.304688 48.800781 C 203.511719 49.03125 203.714844 49.347656 203.914062 49.753906 L 204.914062 51.753906 L 203.851562 51.753906 L 202.929688 49.878906 C 202.6875 49.390625 202.453125 49.066406 202.226562 48.910156 C 201.996094 48.753906 201.6875 48.675781 201.304688 48.675781 L 200.226562 48.675781 L 200.226562 51.753906 L 199.242188 51.753906 L 199.242188 44.457031 L 201.460938 44.457031 C 202.292969 44.457031 202.914062 44.636719 203.320312 44.988281 C 203.734375 45.332031 203.945312 45.859375 203.945312 46.566406 C 203.945312 47.027344 203.835938 47.40625 203.617188 47.707031 C 203.40625 48.011719 203.101562 48.21875 202.695312 48.332031 Z M 200.226562 45.269531 L 200.226562 47.863281 L 201.460938 47.863281 C 201.9375 47.863281 202.296875 47.753906 202.539062 47.535156 C 202.789062 47.316406 202.914062 46.996094 202.914062 46.566406 C 202.914062 46.140625 202.789062 45.816406 202.539062 45.597656 C 202.296875 45.378906 201.9375 45.269531 201.460938 45.269531 Z M 200.226562 45.269531 "/>
<g clip-path="url(#clip4)" clip-rule="nonzero">
<path style=" stroke:none;fill-rule:nonzero;fill:rgb(0%,0%,0%);fill-opacity:1;" d="M 199.285156 56.335938 L 200.347656 56.335938 L 202.160156 59.054688 L 203.988281 56.335938 L 205.035156 56.335938 L 202.691406 59.835938 L 205.191406 63.632812 L 204.144531 63.632812 L 202.082031 60.539062 L 200.019531 63.632812 L 198.957031 63.632812 L 201.566406 59.742188 Z M 199.285156 56.335938 "/>
</g>
<path style="fill:none;stroke-width:0.8;stroke-linecap:butt;stroke-linejoin:miter;stroke:rgb(0%,0%,0%);stroke-opacity:1;stroke-miterlimit:4;" d="M 177.511719 16.15625 L 188.4375 16.15625 "/>
<path style="fill:none;stroke-width:0.8;stroke-linecap:butt;stroke-linejoin:miter;stroke:rgb(0%,0%,0%);stroke-opacity:1;stroke-miterlimit:4;" d="M 175.882812 28.5 L 175.882812 5.226562 "/>
<path style="fill-rule:nonzero;fill:rgb(100%,100%,100%);fill-opacity:1;stroke-width:0.798593;stroke-linecap:butt;stroke-linejoin:miter;stroke:rgb(0%,0%,0%);stroke-opacity:1;stroke-miterlimit:4;" d="M -168.648813 5.753853 C -168.648215 9.947167 -172.046521 13.344381 -176.237812 13.342562 C -180.429349 13.344635 -183.827819 9.945839 -183.824772 5.756662 C -183.82537 1.563348 -180.427064 -1.833866 -176.235773 -1.832047 C -172.048126 -1.834365 -168.649657 1.564431 -168.648813 5.753853 Z M -168.648813 5.753853 " transform="matrix(-1,-0.0628773,-0.0632023,0.999554,0,0)"/>
<path style="fill-rule:nonzero;fill:rgb(100%,100%,100%);fill-opacity:1;stroke-width:0.766658;stroke-linecap:round;stroke-linejoin:miter;stroke:rgb(0%,0%,0%);stroke-opacity:1;stroke-miterlimit:4;" d="M -170.424261 -29.16849 L -173.111347 -29.169877 L -175.799504 -29.167676 L -174.45812 -31.498584 L -173.114222 -33.824834 L -171.767449 -31.496126 Z M -170.424261 -29.16849 " transform="matrix(-1,-0.298527,-0.298962,0.999623,0,0)"/>
<path style="fill-rule:nonzero;fill:rgb(100%,100%,100%);fill-opacity:1;stroke-width:0.766658;stroke-linecap:butt;stroke-linejoin:miter;stroke:rgb(0%,0%,0%);stroke-opacity:1;stroke-miterlimit:4;" d="M -172.09665 -33.282575 C -172.096889 -32.719935 -172.552896 -32.26605 -173.115409 -32.266007 C -173.677922 -32.265963 -174.132547 -32.718258 -174.132307 -33.280898 C -174.132068 -33.843539 -173.674989 -34.301011 -173.112476 -34.301055 C -172.549963 -34.301098 -172.09641 -33.845216 -172.09665 -33.282575 Z M -172.09665 -33.282575 " transform="matrix(-1,-0.298527,-0.298962,0.999623,0,0)"/>
<path style="fill-rule:nonzero;fill:rgb(100%,100%,100%);fill-opacity:1;stroke-width:0.615855;stroke-linecap:round;stroke-linejoin:miter;stroke:rgb(0%,0%,0%);stroke-opacity:1;stroke-miterlimit:4;" d="M -79.903083 114.655247 L -82.063984 114.655571 L -84.220651 114.655501 L -83.142217 112.784526 L -82.061467 110.915471 L -80.983235 112.786516 Z M -79.903083 114.655247 " transform="matrix(-0.829582,0.99978,1,0.828901,0,0)"/>
<path style="fill-rule:nonzero;fill:rgb(100%,100%,100%);fill-opacity:1;stroke-width:0.615855;stroke-linecap:butt;stroke-linejoin:miter;stroke:rgb(0%,0%,0%);stroke-opacity:1;stroke-miterlimit:4;" d="M -81.247626 111.352338 C -81.24606 111.802856 -81.61314 112.170208 -82.063565 112.171544 C -82.516305 112.170959 -82.881455 111.805537 -82.881102 111.352705 C -82.880749 110.899872 -82.515588 110.534834 -82.062848 110.535419 C -81.612424 110.534084 -81.247273 110.899506 -81.247626 111.352338 Z M -81.247626 111.352338 " transform="matrix(-0.829582,0.99978,1,0.828901,0,0)"/>
<path style="fill-rule:nonzero;fill:rgb(100%,100%,100%);fill-opacity:1;stroke-width:0.663639;stroke-linecap:round;stroke-linejoin:miter;stroke:rgb(0%,0%,0%);stroke-opacity:1;stroke-miterlimit:4;" d="M 89.476473 115.37765 L 87.148214 115.379747 L 84.822644 115.380034 L 85.986039 113.365808 L 87.147623 111.348896 L 88.311609 113.365522 Z M 89.476473 115.37765 " transform="matrix(0.673681,0.999336,1,-0.673663,0,0)"/>
<path style="fill-rule:nonzero;fill:rgb(100%,100%,100%);fill-opacity:1;stroke-width:0.663639;stroke-linecap:butt;stroke-linejoin:miter;stroke:rgb(0%,0%,0%);stroke-opacity:1;stroke-miterlimit:4;" d="M 88.027263 111.818799 C 88.03051 112.304893 87.635981 112.699586 87.147857 112.7003 C 86.662422 112.699204 86.267678 112.304979 86.26712 111.817074 C 86.268372 111.331856 86.660212 110.938974 87.148336 110.938259 C 87.633772 110.939356 88.028515 111.333581 88.027263 111.818799 Z M 88.027263 111.818799 " transform="matrix(0.673681,0.999336,1,-0.673663,0,0)"/>
<path style="fill-rule:nonzero;fill:rgb(100%,100%,100%);fill-opacity:1;stroke-width:0.789397;stroke-linecap:round;stroke-linejoin:miter;stroke:rgb(0%,0%,0%);stroke-opacity:1;stroke-miterlimit:4;" d="M 164.104354 -42.837065 L 161.338483 -42.838547 L 158.568811 -42.839399 L 159.952705 -45.234579 L 161.335968 -47.633563 L 162.722377 -45.233728 Z M 164.104354 -42.837065 " transform="matrix(1,-0.166116,-0.165898,-0.999486,0,0)"/>
<path style="fill-rule:nonzero;fill:rgb(100%,100%,100%);fill-opacity:1;stroke-width:0.789397;stroke-linecap:butt;stroke-linejoin:miter;stroke:rgb(0%,0%,0%);stroke-opacity:1;stroke-miterlimit:4;" d="M 162.385943 -47.073318 C 162.384292 -46.494621 161.915188 -46.025829 161.337432 -46.023604 C 160.759046 -46.025182 160.286764 -46.493844 160.288416 -47.072541 C 160.290067 -47.651238 160.759171 -48.120029 161.336927 -48.122255 C 161.915313 -48.120677 162.383793 -47.651383 162.385943 -47.073318 Z M 162.385943 -47.073318 " transform="matrix(1,-0.166116,-0.165898,-0.999486,0,0)"/>
<path style="fill-rule:nonzero;fill:rgb(100%,100%,100%);fill-opacity:1;stroke-width:0.781185;stroke-linecap:round;stroke-linejoin:miter;stroke:rgb(0%,0%,0%);stroke-opacity:1;stroke-miterlimit:4;" d="M 16.684239 -168.747069 L 13.944544 -168.745619 L 11.205673 -168.747892 L 13.944982 -173.491616 L 15.314198 -171.117481 Z M 16.684239 -168.747069 " transform="matrix(0.221895,-0.999601,-1,-0.221496,0,0)"/>
<path style="fill-rule:nonzero;fill:rgb(100%,100%,100%);fill-opacity:1;stroke-width:0.781185;stroke-linecap:butt;stroke-linejoin:miter;stroke:rgb(0%,0%,0%);stroke-opacity:1;stroke-miterlimit:4;" d="M 14.97901 -172.937951 C 14.981474 -172.367092 14.514629 -171.90037 13.944427 -171.901895 C 13.369675 -171.900523 12.906323 -172.36662 12.903859 -172.93748 C 12.905944 -173.511236 13.368239 -173.975061 13.942991 -173.976433 C 14.516918 -173.974081 14.981095 -173.511707 14.97901 -172.937951 Z M 14.97901 -172.937951 " transform="matrix(0.221895,-0.999601,-1,-0.221496,0,0)"/>
<path style=" stroke:none;fill-rule:nonzero;fill:rgb(0%,0%,0%);fill-opacity:1;" d="M 188.28125 14.886719 C 188.953125 14.886719 189.496094 15.429688 189.496094 16.105469 C 189.496094 16.777344 188.953125 17.320312 188.28125 17.320312 C 187.605469 17.320312 187.0625 16.777344 187.0625 16.105469 C 187.0625 15.429688 187.605469 14.886719 188.28125 14.886719 Z M 188.28125 14.886719 "/>
<path style=" stroke:none;fill-rule:nonzero;fill:rgb(0%,0%,0%);fill-opacity:1;" d="M 175.886719 3.996094 C 176.558594 3.996094 177.105469 4.542969 177.105469 5.214844 C 177.105469 5.886719 176.558594 6.433594 175.886719 6.433594 C 175.214844 6.433594 174.667969 5.886719 174.667969 5.214844 C 174.667969 4.542969 175.214844 3.996094 175.886719 3.996094 Z M 175.886719 3.996094 "/>
<path style=" stroke:none;fill-rule:nonzero;fill:rgb(0%,0%,0%);fill-opacity:1;" d="M 175.875 28.019531 C 176.546875 28.019531 177.09375 28.5625 177.09375 29.238281 C 177.09375 29.910156 176.546875 30.453125 175.875 30.453125 C 175.203125 30.453125 174.65625 29.910156 174.65625 29.238281 C 174.65625 28.5625 175.203125 28.019531 175.875 28.019531 Z M 175.875 28.019531 "/>
<path style=" stroke:none;fill-rule:nonzero;fill:rgb(0%,0%,0%);fill-opacity:1;" d="M 184.953125 32.203125 L 184.953125 30.25 L 183.34375 30.25 L 183.34375 29.4375 L 185.921875 29.4375 L 185.921875 32.578125 C 185.546875 32.839844 185.128906 33.042969 184.671875 33.1875 C 184.210938 33.320312 183.722656 33.390625 183.203125 33.390625 C 182.054688 33.390625 181.160156 33.058594 180.515625 32.390625 C 179.878906 31.726562 179.5625 30.796875 179.5625 29.609375 C 179.5625 28.421875 179.878906 27.496094 180.515625 26.828125 C 181.160156 26.164062 182.054688 25.828125 183.203125 25.828125 C 183.671875 25.828125 184.117188 25.886719 184.546875 26 C 184.984375 26.117188 185.378906 26.289062 185.734375 26.515625 L 185.734375 27.578125 C 185.367188 27.265625 184.984375 27.03125 184.578125 26.875 C 184.171875 26.71875 183.738281 26.640625 183.28125 26.640625 C 182.382812 26.640625 181.710938 26.890625 181.265625 27.390625 C 180.828125 27.882812 180.609375 28.621094 180.609375 29.609375 C 180.609375 30.601562 180.828125 31.34375 181.265625 31.84375 C 181.710938 32.335938 182.382812 32.578125 183.28125 32.578125 C 183.632812 32.578125 183.945312 32.554688 184.21875 32.5 C 184.488281 32.4375 184.734375 32.339844 184.953125 32.203125 Z M 184.953125 32.203125 "/>
<path style=" stroke:none;fill-rule:nonzero;fill:rgb(0%,0%,0%);fill-opacity:1;" d="M 183.363281 3.867188 C 183.570312 3.941406 183.773438 4.097656 183.972656 4.335938 C 184.179688 4.566406 184.382812 4.882812 184.582031 5.289062 L 185.582031 7.289062 L 184.519531 7.289062 L 183.597656 5.414062 C 183.355469 4.925781 183.121094 4.601562 182.894531 4.445312 C 182.664062 4.289062 182.355469 4.210938 181.972656 4.210938 L 180.894531 4.210938 L 180.894531 7.289062 L 179.910156 7.289062 L 179.910156 -0.0078125 L 182.128906 -0.0078125 C 182.960938 -0.0078125 183.582031 0.171875 183.988281 0.523438 C 184.402344 0.867188 184.613281 1.394531 184.613281 2.101562 C 184.613281 2.5625 184.503906 2.941406 184.285156 3.242188 C 184.074219 3.546875 183.769531 3.753906 183.363281 3.867188 Z M 180.894531 0.804688 L 180.894531 3.398438 L 182.128906 3.398438 C 182.605469 3.398438 182.964844 3.289062 183.207031 3.070312 C 183.457031 2.851562 183.582031 2.53125 183.582031 2.101562 C 183.582031 1.675781 183.457031 1.351562 183.207031 1.132812 C 182.964844 0.914062 182.605469 0.804688 182.128906 0.804688 Z M 180.894531 0.804688 "/>
<path style=" stroke:none;fill-rule:nonzero;fill:rgb(0%,0%,0%);fill-opacity:1;" d="M 190.851562 12.90625 L 191.914062 12.90625 L 193.726562 15.625 L 195.554688 12.90625 L 196.601562 12.90625 L 194.257812 16.40625 L 196.757812 20.203125 L 195.710938 20.203125 L 193.648438 17.109375 L 191.585938 20.203125 L 190.523438 20.203125 L 193.132812 16.3125 Z M 190.851562 12.90625 "/>
<path style=" stroke:none;fill-rule:nonzero;fill:rgb(64.312744%,0%,0%);fill-opacity:1;" d="M 175.941406 41.960938 L 177.230469 39.324219 L 178.523438 36.6875 L 173.355469 36.6875 Z M 175.941406 41.960938 "/>
<path style="fill:none;stroke-width:1.2;stroke-linecap:butt;stroke-linejoin:miter;stroke:rgb(64.312744%,0%,0%);stroke-opacity:1;stroke-miterlimit:4;" d="M 175.898438 39.789062 L 175.898438 31.554688 "/>
<path style=" stroke:none;fill-rule:nonzero;fill:rgb(0%,0%,0%);fill-opacity:1;" d="M 48.375 24.867188 L 45.609375 17.710938 L 46.625 17.710938 L 48.5 22.914062 C 48.644531 23.332031 48.769531 23.722656 48.875 24.085938 C 48.976562 23.691406 49.101562 23.300781 49.25 22.914062 L 51.1875 17.710938 L 52.15625 17.710938 L 49.359375 24.867188 Z M 48.375 24.867188 "/>
<path style=" stroke:none;fill-rule:nonzero;fill:rgb(0%,0%,0%);fill-opacity:1;" d="M 52.578125 26.828125 L 52.578125 22.53125 L 54.484375 22.53125 C 54.867188 22.53125 55.160156 22.574219 55.359375 22.65625 C 55.554688 22.730469 55.710938 22.867188 55.828125 23.0625 C 55.953125 23.25 56.015625 23.464844 56.015625 23.703125 C 56.015625 24.007812 55.914062 24.261719 55.71875 24.46875 C 55.519531 24.679688 55.21875 24.8125 54.8125 24.875 C 54.957031 24.949219 55.066406 25.023438 55.140625 25.09375 C 55.304688 25.242188 55.46875 25.429688 55.625 25.65625 L 56.359375 26.828125 L 55.65625 26.828125 L 55.078125 25.9375 C 54.910156 25.679688 54.773438 25.480469 54.671875 25.34375 C 54.566406 25.210938 54.46875 25.117188 54.375 25.0625 C 54.289062 25 54.207031 24.960938 54.125 24.9375 C 54.0625 24.929688 53.957031 24.921875 53.8125 24.921875 L 53.15625 24.921875 L 53.15625 26.828125 Z M 53.15625 24.421875 L 54.375 24.421875 C 54.632812 24.421875 54.835938 24.398438 54.984375 24.34375 C 55.128906 24.292969 55.238281 24.210938 55.3125 24.09375 C 55.382812 23.96875 55.421875 23.839844 55.421875 23.703125 C 55.421875 23.507812 55.347656 23.339844 55.203125 23.203125 C 55.054688 23.070312 54.828125 23 54.515625 23 L 53.15625 23 Z M 53.15625 24.421875 "/>
</g>
</svg>
