<?xml version="1.0" encoding="UTF-8" standalone="no"?>
<svg
   xmlns:dc="http://purl.org/dc/elements/1.1/"
   xmlns:cc="http://creativecommons.org/ns#"
   xmlns:rdf="http://www.w3.org/1999/02/22-rdf-syntax-ns#"
   xmlns:svg="http://www.w3.org/2000/svg"
   xmlns="http://www.w3.org/2000/svg"
   xmlns:sodipodi="http://sodipodi.sourceforge.net/DTD/sodipodi-0.dtd"
   xmlns:inkscape="http://www.inkscape.org/namespaces/inkscape"
   sodipodi:docname="hkust_logo.svg"
   inkscape:version="1.0 (4035a4fb49, 2020-05-01)"
   id="svg1051"
   version="1.1"
   viewBox="0 0 69.821869 16.87047"
   height="16.87047mm"
   width="69.821869mm">
  <defs
     id="defs1045" />
  <sodipodi:namedview
     inkscape:window-maximized="1"
     inkscape:window-y="-8"
     inkscape:window-x="-8"
     inkscape:window-height="1027"
     inkscape:window-width="1920"
     fit-margin-bottom="0"
     fit-margin-right="0"
     fit-margin-left="0"
     fit-margin-top="0"
     inkscape:pagecheckerboard="true"
     showgrid="false"
     inkscape:document-rotation="0"
     inkscape:current-layer="layer1"
     inkscape:document-units="mm"
     inkscape:cy="23.309776"
     inkscape:cx="-722.33888"
     inkscape:zoom="0.35"
     inkscape:pageshadow="2"
     inkscape:pageopacity="0.0"
     borderopacity="1.0"
     bordercolor="#666666"
     pagecolor="#ffffff"
     id="base" />
  <metadata
     id="metadata1048">
    <rdf:RDF>
      <cc:Work
         rdf:about="">
        <dc:format>image/svg+xml</dc:format>
        <dc:type
           rdf:resource="http://purl.org/dc/dcmitype/StillImage" />
        <dc:title></dc:title>
      </cc:Work>
    </rdf:RDF>
  </metadata>
  <g
     transform="translate(-76.97002,-141.99929)"
     id="layer1"
     inkscape:groupmode="layer"
     inkscape:label="Layer 1">
    <g
       transform="translate(-147.81923,-9.2980316)"
       id="g979">
      <path
         d="m 239.26301,155.78914 h -0.47872 v -3.40219 h -0.91228 v -0.43815 h 2.30258 v 0.43815 h -0.91158 z"
         style="fill:#ffffff;fill-opacity:1;fill-rule:nonzero;stroke:none;stroke-width:0.352778"
         id="path72" />
      <path
         d="m 242.86864,153.49724 v -1.54834 h 0.47872 v 3.84034 h -0.47872 v -1.84397 h -1.82845 v 1.84397 h -0.47836 v -3.84034 h 0.47836 v 1.54834 z"
         style="fill:#ffffff;fill-opacity:1;fill-rule:nonzero;stroke:none;stroke-width:0.352778"
         id="path76" />
      <path
         d="m 244.09137,151.9488 h 2.06269 v 0.43815 h -1.58432 v 1.07456 h 1.53846 v 0.43815 h -1.53846 v 1.45133 h 1.58432 v 0.43815 h -2.06269 z"
         style="fill:#ffffff;fill-opacity:1;fill-rule:nonzero;stroke:none;stroke-width:0.352778"
         id="path80" />
      <path
         d="m 250.58509,153.49724 v -1.54834 h 0.47837 v 3.84034 h -0.47837 v -1.84397 h -1.82845 v 1.84397 h -0.47872 v -3.84034 h 0.47872 v 1.54834 z"
         style="fill:#ffffff;fill-opacity:1;fill-rule:nonzero;stroke:none;stroke-width:0.352778"
         id="path84" />
      <path
         d="m 255.56117,153.86872 c 0,1.14124 -0.9017,2.00201 -2.01189,2.00201 -1.11055,0 -2.01189,-0.86077 -2.01189,-2.00201 0,-1.09996 0.91122,-2.00131 2.01189,-2.00131 1.09996,0 2.01189,0.90135 2.01189,2.00131 m -0.47872,0 c 0,-0.84526 -0.63182,-1.55363 -1.53317,-1.55363 -0.9017,0 -1.53317,0.70837 -1.53317,1.55363 0,0.8763 0.70273,1.55328 1.53317,1.55328 0.82973,0 1.53317,-0.67698 1.53317,-1.55328"
         style="fill:#ffffff;fill-opacity:1;fill-rule:nonzero;stroke:none;stroke-width:0.352778"
         id="path96" />
      <path
         d="m 256.02958,151.76532 2.88255,3.02048 v -2.83704 h 0.47907 v 3.99839 l -2.8829,-3.02013 v 2.86208 h -0.47872 z"
         style="fill:#ffffff;fill-opacity:1;fill-rule:nonzero;stroke:none;stroke-width:0.352778"
         id="path100" />
      <path
         d="m 263.62376,153.8538 v 0.15275 c 0,1.0541 -0.74401,1.86408 -1.81786,1.86408 -1.07527,0 -1.94134,-0.92675 -1.94134,-1.99143 0,-1.10525 0.88688,-2.01189 1.99108,-2.01189 0.59655,0 1.18745,0.26987 1.56421,0.74401 l -0.33619,0.32067 c -0.27552,-0.37712 -0.73872,-0.62653 -1.20721,-0.62653 -0.86042,0 -1.53246,0.69744 -1.53246,1.55822 0,0.80504 0.66216,1.5688 1.49154,1.5688 0.5969,0 1.23719,-0.5147 1.25801,-1.14053 h -0.99343 v -0.43815 z"
         style="fill:#ffffff;fill-opacity:1;fill-rule:nonzero;stroke:none;stroke-width:0.352778"
         id="path112" />
      <path
         d="m 267.77885,151.9488 h 0.62653 l -1.72649,1.72649 1.75718,2.11385 h -0.64628 l -1.4471,-1.78753 -0.19297,0.18345 v 1.60408 h -0.47942 v -3.84034 h 0.47942 v 1.66546 z"
         style="fill:#ffffff;fill-opacity:1;fill-rule:nonzero;stroke:none;stroke-width:0.352778"
         id="path116" />
      <path
         d="m 272.53069,153.86872 c 0,1.14124 -0.90099,2.00201 -2.01083,2.00201 -1.10984,0 -2.01189,-0.86077 -2.01189,-2.00201 0,-1.09996 0.91193,-2.00131 2.01189,-2.00131 1.09996,0 2.01083,0.90135 2.01083,2.00131 m -0.47731,0 c 0,-0.84526 -0.63253,-1.55363 -1.53352,-1.55363 -0.901,0 -1.53353,0.70837 -1.53353,1.55363 0,0.8763 0.70309,1.55328 1.53353,1.55328 0.82938,0 1.53352,-0.67698 1.53352,-1.55328"
         style="fill:#ffffff;fill-opacity:1;fill-rule:nonzero;stroke:none;stroke-width:0.352778"
         id="path128" />
      <path
         d="m 273.00006,151.76532 2.88219,3.02048 v -2.83704 h 0.47943 v 3.99839 l -2.88325,-3.02013 v 2.86208 h -0.47837 z"
         style="fill:#ffffff;fill-opacity:1;fill-rule:nonzero;stroke:none;stroke-width:0.352778"
         id="path132" />
      <path
         d="m 280.59424,153.8538 v 0.15275 c 0,1.0541 -0.74401,1.86408 -1.81786,1.86408 -1.07633,0 -1.94134,-0.92675 -1.94134,-1.99143 0,-1.10525 0.88618,-2.01189 1.99108,-2.01189 0.59655,0 1.18745,0.26987 1.56421,0.74401 l -0.33619,0.32067 c -0.27552,-0.37712 -0.73872,-0.62653 -1.20721,-0.62653 -0.86042,0 -1.53246,0.69744 -1.53246,1.55822 0,0.80504 0.66216,1.5688 1.49154,1.5688 0.59584,0 1.23719,-0.5147 1.25801,-1.14053 h -0.99343 v -0.43815 z"
         style="fill:#ffffff;fill-opacity:1;fill-rule:nonzero;stroke:none;stroke-width:0.352778"
         id="path144" />
      <path
         d="m 238.64141,158.05912 v 2.26589 c 0,0.62653 0.18838,1.20756 0.92675,1.20756 0.73871,0 0.9271,-0.58103 0.9271,-1.20756 v -2.26589 h 0.47872 v 2.42923 c 0,0.84525 -0.52458,1.4926 -1.40582,1.4926 -0.88089,0 -1.40547,-0.64735 -1.40547,-1.4926 v -2.42923 z"
         style="fill:#ffffff;fill-opacity:1;fill-rule:nonzero;stroke:none;stroke-width:0.352778"
         id="path148" />
      <path
         d="m 241.64137,157.87564 2.88255,3.02048 v -2.83704 h 0.47907 v 3.99839 l -2.8829,-3.02013 v 2.86208 h -0.47872 z"
         style="fill:#ffffff;fill-opacity:1;fill-rule:nonzero;stroke:none;stroke-width:0.352778"
         id="path152" />
      <path
         id="path154"
         style="fill:#ffffff;fill-opacity:1;fill-rule:nonzero;stroke:none;stroke-width:0.352778"
         d="m 246.19968,161.8996 h -0.47872 v -3.84034 h 0.47872 z" />
      <path
         d="m 248.23704,160.90096 1.14088,-2.84198 h 0.52458 l -1.66546,4.04425 -1.67076,-4.04425 h 0.52459 z"
         style="fill:#ffffff;fill-opacity:1;fill-rule:nonzero;stroke:none;stroke-width:0.352778"
         id="path158" />
      <path
         d="m 250.27927,158.05912 h 2.06269 v 0.43815 h -1.58397 v 1.07456 h 1.53811 v 0.43815 h -1.53811 v 1.45098 h 1.58397 v 0.4385 h -2.06269 z"
         style="fill:#ffffff;fill-opacity:1;fill-rule:nonzero;stroke:none;stroke-width:0.352778"
         id="path162" />
      <path
         d="m 255.37268,161.89946 h -0.58067 l -1.13101,-1.62419 h -0.19826 v 1.62419 h -0.47872 v -3.84034 h 0.58067 c 0.34114,0 0.70768,0.005 1.01353,0.17851 0.32068,0.18803 0.50412,0.54998 0.50412,0.91651 0,0.54998 -0.36688,1.00789 -0.9218,1.07456 z m -1.90994,-2.02177 h 0.15275 c 0.4886,0 1.01883,-0.0921 1.01883,-0.70309 0,-0.60078 -0.5708,-0.68791 -1.04423,-0.68791 h -0.12735 z"
         style="fill:#ffffff;fill-opacity:1;fill-rule:nonzero;stroke:none;stroke-width:0.352778"
         id="path174" />
      <path
         d="m 257.50645,158.78761 c -0.14217,-0.23954 -0.32561,-0.36195 -0.61595,-0.36195 -0.30586,0 -0.64206,0.20884 -0.64206,0.54504 0,0.30057 0.29563,0.45826 0.53517,0.55033 l 0.27481,0.1069 c 0.54504,0.21378 0.95215,0.51435 0.95215,1.15675 0,0.69709 -0.5394,1.19627 -1.22696,1.19627 -0.6216,0 -1.10561,-0.45825 -1.1871,-1.07491 l 0.48366,-0.1016 c -0.005,0.42263 0.33126,0.72813 0.74401,0.72813 0.41275,0 0.70802,-0.34607 0.70802,-0.74789 0,-0.4138 -0.33126,-0.5909 -0.66216,-0.72919 l -0.26529,-0.11147 c -0.43744,-0.18874 -0.83467,-0.43851 -0.83467,-0.97332 0,-0.62124 0.54998,-0.99307 1.13065,-0.99307 0.42757,0 0.77929,0.20885 0.98813,0.58067 z"
         style="fill:#ffffff;fill-opacity:1;fill-rule:nonzero;stroke:none;stroke-width:0.352778"
         id="path178" />
      <path
         id="path180"
         style="fill:#ffffff;fill-opacity:1;fill-rule:nonzero;stroke:none;stroke-width:0.352778"
         d="m 259.04996,161.8996 h -0.47872 v -3.84034 h 0.47872 z" />
      <path
         d="m 260.85301,161.89946 h -0.47942 v -3.40219 h -0.91158 v -0.43815 h 2.30187 v 0.43815 h -0.91087 z"
         style="fill:#ffffff;fill-opacity:1;fill-rule:nonzero;stroke:none;stroke-width:0.352778"
         id="path184" />
      <path
         d="m 261.79482,158.05912 h 0.54998 l 0.94262,1.64006 0.94192,-1.64006 h 0.54998 l -1.25307,2.16958 v 1.67076 h -0.47836 v -1.67076 z"
         style="fill:#ffffff;fill-opacity:1;fill-rule:nonzero;stroke:none;stroke-width:0.352778"
         id="path188" />
      <path
         d="m 270.43819,159.97904 c 0,1.14159 -0.90099,2.00201 -2.01189,2.00201 -1.1109,0 -2.01189,-0.86042 -2.01189,-2.00201 0,-1.09996 0.91193,-2.00131 2.01189,-2.00131 1.10102,0 2.01189,0.90135 2.01189,2.00131 m -0.47942,0 c 0,-0.84526 -0.63042,-1.55363 -1.53247,-1.55363 -0.90205,0 -1.53247,0.70837 -1.53247,1.55363 0,0.8763 0.70203,1.55328 1.53247,1.55328 0.83044,0 1.53247,-0.67698 1.53247,-1.55328"
         style="fill:#ffffff;fill-opacity:1;fill-rule:nonzero;stroke:none;stroke-width:0.352778"
         id="path200" />
      <path
         d="m 271.42675,158.4972 v 1.0795 h 1.3335 v 0.43815 h -1.3335 v 1.88454 h -0.47942 v -3.84034 h 1.85984 v 0.43815 z"
         style="fill:#ffffff;fill-opacity:1;fill-rule:nonzero;stroke:none;stroke-width:0.352778"
         id="path204" />
      <path
         d="m 276.64599,158.78761 c -0.14111,-0.23954 -0.32526,-0.36195 -0.6156,-0.36195 -0.30515,0 -0.64135,0.20884 -0.64135,0.54504 0,0.30057 0.29528,0.45826 0.53481,0.55033 l 0.27447,0.1069 c 0.54504,0.21378 0.95285,0.51435 0.95285,1.15675 0,0.69709 -0.5401,1.19627 -1.22732,1.19627 -0.6223,0 -1.10595,-0.45825 -1.18745,-1.07491 l 0.48437,-0.1016 c -0.005,0.42263 0.33126,0.72813 0.74295,0.72813 0.41381,0 0.70802,-0.34607 0.70802,-0.74789 0,-0.4138 -0.3302,-0.5909 -0.66216,-0.72919 l -0.26458,-0.11147 c -0.4378,-0.18874 -0.83538,-0.43851 -0.83538,-0.97332 0,-0.62124 0.55104,-0.99307 1.13171,-0.99307 0.42757,0 0.77858,0.20885 0.98742,0.58067 z"
         style="fill:#ffffff;fill-opacity:1;fill-rule:nonzero;stroke:none;stroke-width:0.352778"
         id="path216" />
      <path
         d="m 280.52263,158.79255 c -0.27446,-0.24447 -0.65229,-0.37677 -1.01353,-0.37677 -0.86007,0 -1.51836,0.71791 -1.51836,1.56845 0,0.84032 0.65229,1.55822 1.50742,1.55822 0.37818,0 0.73907,-0.14217 1.02447,-0.39687 v 0.56585 c -0.29527,0.17322 -0.67239,0.26953 -1.00859,0.26953 -1.09467,0 -2.00096,-0.87101 -2.00096,-1.9812 0,-1.13595 0.91123,-2.02213 2.04188,-2.02213 0.3362,0 0.67733,0.0815 0.96767,0.26 z"
         style="fill:#ffffff;fill-opacity:1;fill-rule:nonzero;stroke:none;stroke-width:0.352778"
         id="path220" />
      <path
         id="path222"
         style="fill:#ffffff;fill-opacity:1;fill-rule:nonzero;stroke:none;stroke-width:0.352778"
         d="m 281.60763,161.8996 h -0.47837 v -3.84034 h 0.47837 z" />
      <path
         d="m 282.37644,158.05912 h 2.06269 v 0.43815 h -1.58327 v 1.07456 h 1.53741 v 0.43815 h -1.53741 v 1.45098 h 1.58327 v 0.4385 h -2.06269 z"
         style="fill:#ffffff;fill-opacity:1;fill-rule:nonzero;stroke:none;stroke-width:0.352778"
         id="path226" />
      <path
         d="m 285.03575,157.87564 2.88219,3.02048 v -2.83704 h 0.47943 v 3.99839 l -2.88325,-3.02013 v 2.86208 h -0.47837 z"
         style="fill:#ffffff;fill-opacity:1;fill-rule:nonzero;stroke:none;stroke-width:0.352778"
         id="path230" />
      <path
         d="m 291.92578,158.79255 c -0.27446,-0.24447 -0.65123,-0.37677 -1.01247,-0.37677 -0.86113,0 -1.51871,0.71791 -1.51871,1.56845 0,0.84032 0.65158,1.55822 1.50777,1.55822 0.37712,0 0.73907,-0.14217 1.02341,-0.39687 v 0.56585 c -0.29422,0.17322 -0.67239,0.26953 -1.00859,0.26953 -1.09397,0 -2.00096,-0.87101 -2.00096,-1.9812 0,-1.13595 0.91123,-2.02213 2.04294,-2.02213 0.3362,0 0.67627,0.0815 0.96661,0.26 z"
         style="fill:#ffffff;fill-opacity:1;fill-rule:nonzero;stroke:none;stroke-width:0.352778"
         id="path242" />
      <path
         d="m 292.54737,158.05912 h 2.06375 v 0.43815 h -1.58538 v 1.07456 h 1.53952 v 0.43815 h -1.53952 v 1.45098 h 1.58538 v 0.4385 h -2.06375 z"
         style="fill:#ffffff;fill-opacity:1;fill-rule:nonzero;stroke:none;stroke-width:0.352778"
         id="path246" />
      <path
         d="m 238.77367,167.04712 -0.43744,0.96273 h -0.51471 l 1.83339,-4.00297 1.83374,4.00297 h -0.51471 l -0.43815,-0.96273 z m 0.88124,-1.99214 -0.68227,1.55364 h 1.36489 z"
         style="fill:#ffffff;fill-opacity:1;fill-rule:nonzero;stroke:none;stroke-width:0.352778"
         id="path250" />
      <path
         d="m 241.81444,163.98596 2.88255,3.02048 v -2.83633 h 0.47907 v 3.99768 l -2.8829,-3.02013 v 2.86208 h -0.47872 z"
         style="fill:#ffffff;fill-opacity:1;fill-rule:nonzero;stroke:none;stroke-width:0.352778"
         id="path254" />
      <path
         d="m 245.86856,164.16997 h 0.79481 c 1.17651,0 2.15441,0.62054 2.15441,1.89936 0,1.3088 -0.95779,1.94063 -2.16993,1.94063 h -0.77929 z m 0.47872,3.40113 h 0.16827 c 0.9779,0 1.82351,-0.36583 1.82351,-1.48167 0,-1.11971 -0.84561,-1.48202 -1.82351,-1.48202 h -0.16827 z"
         style="fill:#ffffff;fill-opacity:1;fill-rule:nonzero;stroke:none;stroke-width:0.352778"
         id="path266" />
      <path
         d="m 251.90381,168.00978 h -0.47837 v -3.40219 h -0.91193 v -0.4378 h 2.30223 v 0.4378 h -0.91193 z"
         style="fill:#ffffff;fill-opacity:1;fill-rule:nonzero;stroke:none;stroke-width:0.352778"
         id="path270" />
      <path
         d="m 253.24345,164.16997 h 2.06269 v 0.43744 h -1.58397 v 1.07421 h 1.53811 v 0.43851 h -1.53811 v 1.45097 h 1.58397 v 0.43886 h -2.06269 z"
         style="fill:#ffffff;fill-opacity:1;fill-rule:nonzero;stroke:none;stroke-width:0.352778"
         id="path274" />
      <path
         d="m 258.74414,164.9029 c -0.27517,-0.24483 -0.65193,-0.37677 -1.01353,-0.37677 -0.86078,0 -1.51765,0.71791 -1.51765,1.56916 0,0.83926 0.65193,1.55751 1.50742,1.55751 0.37677,0 0.73872,-0.14217 1.02376,-0.39687 v 0.56585 c -0.29527,0.17322 -0.67239,0.26953 -1.00859,0.26953 -1.09467,0 -2.00131,-0.87101 -2.00131,-1.98191 0,-1.13594 0.91158,-2.02106 2.04223,-2.02106 0.3362,0 0.67733,0.0815 0.96767,0.25964 z"
         style="fill:#ffffff;fill-opacity:1;fill-rule:nonzero;stroke:none;stroke-width:0.352778"
         id="path286" />
      <path
         d="m 261.63272,165.71743 v -1.54764 h 0.47731 v 3.83999 h -0.47731 v -1.84397 h -1.8288 v 1.84397 h -0.47907 v -3.83999 h 0.47907 v 1.54764 z"
         style="fill:#ffffff;fill-opacity:1;fill-rule:nonzero;stroke:none;stroke-width:0.352778"
         id="path290" />
      <path
         d="m 262.80824,163.98596 2.88325,3.02048 v -2.83633 h 0.47837 v 3.99768 l -2.8822,-3.02013 v 2.86208 h -0.47942 z"
         style="fill:#ffffff;fill-opacity:1;fill-rule:nonzero;stroke:none;stroke-width:0.352778"
         id="path294" />
      <path
         d="m 270.65698,166.0894 c 0,1.14159 -0.90099,2.00201 -2.01189,2.00201 -1.10984,0 -2.01189,-0.86042 -2.01189,-2.00201 0,-1.09996 0.91193,-2.00096 2.01189,-2.00096 1.10102,0 2.01189,0.901 2.01189,2.00096 m -0.47837,0 c 0,-0.84526 -0.63147,-1.55328 -1.53352,-1.55328 -0.901,0 -1.53247,0.70802 -1.53247,1.55328 0,0.8763 0.70203,1.55328 1.53247,1.55328 0.83044,0 1.53352,-0.67698 1.53352,-1.55328"
         style="fill:#ffffff;fill-opacity:1;fill-rule:nonzero;stroke:none;stroke-width:0.352778"
         id="path306" />
      <path
         d="m 271.65051,167.57121 h 1.16664 v 0.4385 h -1.64501 v -3.83963 h 0.47837 z"
         style="fill:#ffffff;fill-opacity:1;fill-rule:nonzero;stroke:none;stroke-width:0.352778"
         id="path310" />
      <path
         d="m 276.93639,166.0894 c 0,1.14159 -0.90099,2.00201 -2.01083,2.00201 -1.10984,0 -2.01189,-0.86042 -2.01189,-2.00201 0,-1.09996 0.91193,-2.00096 2.01189,-2.00096 1.09996,0 2.01083,0.901 2.01083,2.00096 m -0.47837,0 c 0,-0.84526 -0.63147,-1.55328 -1.53246,-1.55328 -0.90206,0 -1.53353,0.70802 -1.53353,1.55328 0,0.8763 0.70309,1.55328 1.53353,1.55328 0.82938,0 1.53246,-0.67698 1.53246,-1.55328"
         style="fill:#ffffff;fill-opacity:1;fill-rule:nonzero;stroke:none;stroke-width:0.352778"
         id="path322" />
      <path
         d="m 280.9503,166.07444 v 0.15205 c 0,1.05445 -0.74401,1.86478 -1.81786,1.86478 -1.07421,0 -1.94134,-0.92675 -1.94134,-1.99178 0,-1.1049 0.88688,-2.01119 1.99178,-2.01119 0.59585,0 1.18675,0.26952 1.56457,0.74401 l -0.33619,0.32032 c -0.27552,-0.37712 -0.73978,-0.62653 -1.20721,-0.62653 -0.86148,0 -1.53352,0.69815 -1.53352,1.55822 0,0.80468 0.66216,1.56845 1.49154,1.56845 0.5969,0 1.23825,-0.51435 1.25906,-1.13983 h -0.99342 v -0.4385 z"
         style="fill:#ffffff;fill-opacity:1;fill-rule:nonzero;stroke:none;stroke-width:0.352778"
         id="path326" />
      <path
         d="m 281.07758,164.16997 h 0.55104 l 0.94086,1.63901 0.94262,-1.63901 h 0.55104 l -1.25307,2.16888 v 1.67111 h -0.47942 v -1.67111 z"
         style="fill:#ffffff;fill-opacity:1;fill-rule:nonzero;stroke:none;stroke-width:0.352778"
         id="path330" />
      <path
         d="m 232.48385,154.7404 c 0.0794,-0.0995 0.1076,-0.27658 0.1076,-0.27658 h -4.76391 c 0,0 0.0586,0.19721 0.1083,0.27658 z"
         style="fill:#ffffff;fill-opacity:1;fill-rule:nonzero;stroke:none;stroke-width:0.352778"
         id="path342" />
      <path
         d="m 232.20735,155.14518 c 0.0885,-0.0787 0.17815,-0.23777 0.17815,-0.23777 h -4.36104 c 0,0 0.0487,0.11959 0.15805,0.23777 z"
         style="fill:#ffffff;fill-opacity:1;fill-rule:nonzero;stroke:none;stroke-width:0.352778"
         id="path346" />
      <path
         d="m 231.86325,155.51016 c 0.1083,-0.0575 0.19579,-0.17815 0.19579,-0.17815 h -3.72921 c 0,0 0.0893,0.0984 0.17674,0.17815 z"
         style="fill:#ffffff;fill-opacity:1;fill-rule:nonzero;stroke:none;stroke-width:0.352778"
         id="path350" />
      <path
         d="m 231.42866,155.85623 c 0.10654,-0.0409 0.22684,-0.13935 0.22684,-0.13935 h -2.91007 c 0,0 0,0.0219 0.20673,0.13935 z"
         style="fill:#ffffff;fill-opacity:1;fill-rule:nonzero;stroke:none;stroke-width:0.352778"
         id="path354" />
      <path
         d="m 229.28645,156.07206 c 0,0 0.30621,0.17886 0.90805,0.17886 0.60254,0 0.98637,-0.17886 0.98637,-0.17886 z"
         style="fill:#ffffff;fill-opacity:1;fill-rule:nonzero;stroke:none;stroke-width:0.352778"
         id="path358" />
      <path
         d="m 229.23773,156.47684 c 0,0 0.36512,0.0198 0.58173,0.18697 0.20673,0.17886 0.36618,0.47343 0.36618,0.47343 0,0 0.127,-0.28434 0.33514,-0.43251 0.20779,-0.15945 0.54293,-0.22789 0.54293,-0.22789 h 3.7592 l 0.74013,1.09608 h -3.37574 c 0,0 -0.23671,0.01 -0.5916,0.21766 -0.18803,0.10654 -0.32632,0.29528 -0.32632,0.29528 0,0 -0.0279,0.0885 -0.0695,0.13723 -0.0388,0.0497 -0.0684,0.0896 -0.11748,0.10866 -0.0497,0.0208 -0.0395,0.009 -0.0395,0.009 h -1.75648 c 0,0 -0.0705,-0.0279 -0.10724,-0.0885 -0.0399,-0.0586 -0.0109,-0.0388 -0.0497,-0.0864 -0.03,-0.0497 -0.0995,-0.17921 -0.36619,-0.35596 -0.27552,-0.17921 -0.54292,-0.1972 -0.54292,-0.1972 h -3.43112 l 0.74789,-1.13559 z"
         style="fill:#ffffff;fill-opacity:1;fill-rule:nonzero;stroke:none;stroke-width:0.352778"
         id="path362" />
      <path
         d="m 226.58234,158.02628 v 5.60246 c 0,0 0.0198,0.4953 0.43462,1.16558 0.41452,0.67063 1.01635,0.97684 1.01635,0.97684 l 0.47343,-0.74012 c 0,0 -0.41381,-0.2466 -0.72989,-0.72002 -0.30551,-0.47308 -0.30551,-0.87913 -0.30551,-0.87913 v -5.40561 z"
         style="fill:#ffffff;fill-opacity:1;fill-rule:nonzero;stroke:none;stroke-width:0.352778"
         id="path366" />
      <path
         d="m 232.93732,158.00642 v 5.40561 c 0,0 -0.0688,0.54328 -0.32526,0.92887 -0.25647,0.39405 -0.68227,0.71014 -0.68227,0.71014 l 0.45543,0.7299 c 0,0 0.69039,-0.50306 1.02659,-1.03611 0.33408,-0.53305 0.41557,-1.3328 0.41557,-1.3328 v -5.40561 z"
         style="fill:#ffffff;fill-opacity:1;fill-rule:nonzero;stroke:none;stroke-width:0.352778"
         id="path370" />
      <path
         d="m 225.1731,158.02628 v 5.62469 c 0,0 0.0575,0.86889 0.60078,1.77588 0.54398,0.90699 1.52964,1.53952 1.52964,1.53952 l 0.46426,-0.73977 c 0,0 -0.63147,-0.3362 -1.13489,-1.10596 -0.51505,-0.77964 -0.54292,-1.4919 -0.54292,-1.4919 v -5.60246 z"
         style="fill:#ffffff;fill-opacity:1;fill-rule:nonzero;stroke:none;stroke-width:0.352778"
         id="path374" />
      <path
         d="m 229.23773,158.61803 v 5.93972 c 0,0 -0.0219,0.0197 -0.0289,0.1076 -0.0109,0.0893 -0.0695,0.14887 -0.0695,0.14887 l -1.98297,3.28612 h 6.07836 l -1.98402,-3.35562 -0.0589,-0.14922 -0.0198,-0.15699 v -5.80954 h -0.73977 v 6.02826 c 0,0 0,0.0875 0.0296,0.15699 0.018,0.0699 0.0589,0.17709 0.0589,0.17709 l 1.22202,2.01295 h -3.09774 l 1.20439,-2.00307 c 0,0 0.0395,-0.0674 0.0695,-0.16686 0.0198,-0.0896 0.0279,-0.1771 0.0279,-0.1771 v -6.0392 z"
         style="fill:#ffffff;fill-opacity:1;fill-rule:nonzero;stroke:none;stroke-width:0.352778"
         id="path378" />
      <path
         d="m 234.30877,158.00642 v 5.52521 c 0,0 -0.008,0.70978 -0.53199,1.52929 -0.52211,0.8195 -1.12501,1.16557 -1.12501,1.16557 l 0.4445,0.74789 c 0,0 0.90629,-0.57255 1.47991,-1.47955 0.56197,-0.90734 0.63182,-1.9632 0.63182,-1.9632 v -5.52521 z"
         style="fill:#ffffff;fill-opacity:1;fill-rule:nonzero;stroke:none;stroke-width:0.352778"
         id="path382" />
      <path
         d="m 227.79664,154.30581 c 0,0 -0.30445,-1.66582 0.91793,-2.49731 0,0 0.5528,-0.51118 1.44991,-0.51118 0.9578,0 1.50989,0.50236 1.50989,0.50236 1.33174,0.97543 0.93769,2.50613 0.93769,2.50613 z"
         style="fill:#ffffff;fill-opacity:1;fill-rule:nonzero;stroke:none;stroke-width:0.352778"
         id="path386" />
    </g>
  </g>
</svg>
