<?xml version="1.0" encoding="UTF-8" standalone="no"?>
<svg
   xmlns:dc="http://purl.org/dc/elements/1.1/"
   xmlns:cc="http://creativecommons.org/ns#"
   xmlns:rdf="http://www.w3.org/1999/02/22-rdf-syntax-ns#"
   xmlns:svg="http://www.w3.org/2000/svg"
   xmlns="http://www.w3.org/2000/svg"
   xmlns:sodipodi="http://sodipodi.sourceforge.net/DTD/sodipodi-0.dtd"
   xmlns:inkscape="http://www.inkscape.org/namespaces/inkscape"
   inkscape:version="1.0 (4035a4fb49, 2020-05-01)"
   height="183.5"
   width="221.5"
   sodipodi:docname="Novelda_logo_RGB positiv.svg"
   xml:space="preserve"
   viewBox="0 0 221.49999 183.5"
   y="0px"
   x="0px"
   id="Layer_1"
   version="1.1"><metadata
   id="metadata39"><rdf:RDF><cc:Work
       rdf:about=""><dc:format>image/svg+xml</dc:format><dc:type
         rdf:resource="http://purl.org/dc/dcmitype/StillImage" /><dc:title></dc:title></cc:Work></rdf:RDF></metadata><defs
   id="defs37" /><sodipodi:namedview
   inkscape:current-layer="Layer_1"
   inkscape:window-maximized="0"
   inkscape:window-y="0"
   inkscape:window-x="0"
   inkscape:cy="91.749997"
   inkscape:cx="110.70001"
   inkscape:zoom="1.8219548"
   fit-margin-bottom="0"
   fit-margin-right="0"
   fit-margin-left="0"
   fit-margin-top="0"
   inkscape:pagecheckerboard="true"
   showgrid="false"
   id="namedview35"
   inkscape:window-height="480"
   inkscape:window-width="999"
   inkscape:pageshadow="2"
   inkscape:pageopacity="0"
   guidetolerance="10"
   gridtolerance="10"
   objecttolerance="10"
   borderopacity="1"
   bordercolor="#666666"
   pagecolor="#ffffff" />
<style
   id="style2"
   type="text/css">
	.st0{fill:#041E2E;}
</style>
<g
   transform="translate(-144.4,-149.2)"
   id="g32">
	<g
   id="g20">
		<g
   id="g18">
			<path
   id="path4"
   d="m 144.4,332.4 v -28.9 h 5.6 l 12.2,18.2 v -18.2 h 6.1 v 28.9 h -5.7 l -12.2,-18.2 v 18.2 z"
   class="st0" />
			<path
   id="path6"
   d="m 192.6,332.7 c -8.5,0 -14.3,-6.3 -14.3,-14.7 0,-8.4 5.8,-14.7 14.3,-14.7 8.5,0 14.3,6.3 14.3,14.7 0,8.4 -5.8,14.7 -14.3,14.7 z m 0,-5.3 c 4.8,0 8,-4 8,-9.4 0,-5.4 -3.1,-9.4 -8,-9.4 -4.9,0 -8,4 -8,9.4 0,5.4 3.1,9.4 8,9.4 z"
   class="st0" />
			<path
   id="path8"
   d="m 213,303.5 h 6.6 l 6.9,21.4 7.1,-21.4 h 6.4 l -9.8,28.9 h -7.4 z"
   class="st0" />
			<path
   id="path10"
   d="M 248.7,303.5 H 268 v 5.3 h -13.2 v 6.5 h 10.7 v 5.1 h -10.7 v 6.7 h 13.6 v 5.3 h -19.8 v -28.9 z"
   class="st0" />
			<path
   id="path12"
   d="m 278.4,332.4 v -28.9 h 6.2 V 327 H 296 v 5.3 h -17.6 z"
   class="st0" />
			<path
   id="path14"
   d="M 305.5,332.4 V 303.5 H 316 c 9,0 15,5.9 15,14.4 0,8.5 -6,14.5 -15,14.5 z m 6.2,-5.1 h 4.3 c 5.5,0 8.6,-3.8 8.6,-9.3 0,-5.5 -3.1,-9.2 -8.6,-9.2 h -4.3 z"
   class="st0" />
			<path
   id="path16"
   d="M 337.4,332.4 348,303.5 h 7.4 l 10.5,28.9 h -6.6 l -2.2,-6.3 h -11 l -2.2,6.3 z m 10.3,-11.3 h 7.6 l -3.8,-11 z"
   class="st0" />
		</g>
	</g>
	<g
   id="g30">
		<g
   id="g28">
			<path
   id="path22"
   d="m 312.8,200.3 h -13.2 c -4.6,0 -8.3,3.7 -8.3,8.3 v 11 c 0,3.4 -2.8,6.2 -6.2,6.2 h -8.8 c -3.4,0 -6.2,-2.8 -6.2,-6.2 v -11 c 0,-4.6 -3.7,-8.3 -8.3,-8.3 h -11 c -3.4,0 -6.2,-2.8 -6.2,-6.2 v -11 c 0,-4.6 -3.7,-8.3 -8.3,-8.3 h -11 c -3.4,0 -6.2,-2.8 -6.2,-6.2 v -11 c 0,-4.6 -3.7,-8.3 -8.3,-8.3 h -13.2 c -4.6,0 -8.3,3.7 -8.3,8.3 v 38.8 c 0,4.6 3.7,8.3 8.3,8.3 H 234 c 3.4,0 6.2,2.8 6.2,6.2 v 11 c 0,4.6 3.7,8.3 8.3,8.3 h 11 c 3.4,0 6.2,2.8 6.2,6.2 v 11 c 0,4.6 3.7,8.3 8.3,8.3 h 11 c 3.4,0 6.2,2.8 6.2,6.2 v 11 c 0,4.6 3.7,8.3 8.3,8.3 h 13.2 c 4.6,0 8.3,-3.7 8.3,-8.3 v -13.2 c 0,-4.6 -3.7,-8.3 -8.3,-8.3 h -11 c -3.4,0 -6.2,-2.8 -6.2,-6.2 v -8.8 c 0,-3.4 2.8,-6.2 6.2,-6.2 h 11 c 4.6,0 8.3,-3.7 8.3,-8.3 v -13.2 c 0.1,-4.7 -3.6,-8.4 -8.2,-8.4 z"
   class="st0" />
			<path
   id="path24"
   d="m 210.7,225.8 h -13.2 c -4.6,0 -8.3,3.7 -8.3,8.3 v 38.8 c 0,4.6 3.7,8.3 8.3,8.3 h 13.2 c 4.6,0 8.3,-3.7 8.3,-8.3 v -38.8 c 0,-4.6 -3.7,-8.3 -8.3,-8.3 z"
   class="st0" />
			<path
   id="path26"
   d="m 312.8,149.2 h -13.2 c -4.6,0 -8.3,3.7 -8.3,8.3 v 13.2 c 0,4.6 3.7,8.3 8.3,8.3 h 13.2 c 4.6,0 8.3,-3.7 8.3,-8.3 v -13.2 c 0,-4.5 -3.7,-8.3 -8.3,-8.3 z"
   class="st0" />
		</g>
	</g>
</g>
</svg>
