<?xml version="1.0" encoding="UTF-8" standalone="no"?>
<svg
   xmlns:dc="http://purl.org/dc/elements/1.1/"
   xmlns:cc="http://creativecommons.org/ns#"
   xmlns:rdf="http://www.w3.org/1999/02/22-rdf-syntax-ns#"
   xmlns:svg="http://www.w3.org/2000/svg"
   xmlns="http://www.w3.org/2000/svg"
   xmlns:sodipodi="http://sodipodi.sourceforge.net/DTD/sodipodi-0.dtd"
   xmlns:inkscape="http://www.inkscape.org/namespaces/inkscape"
   sodipodi:docname="sscs_logo.svg"
   inkscape:version="1.0 (4035a4fb49, 2020-05-01)"
   id="svg8"
   version="1.1"
   viewBox="0 0 162.95226 136.7747"
   height="136.7747mm"
   width="162.95226mm">
  <defs
     id="defs2" />
  <sodipodi:namedview
     inkscape:window-maximized="1"
     inkscape:window-y="-8"
     inkscape:window-x="-8"
     inkscape:window-height="1027"
     inkscape:window-width="1920"
     inkscape:pagecheckerboard="true"
     fit-margin-bottom="0"
     fit-margin-right="0"
     fit-margin-left="0"
     fit-margin-top="0"
     showgrid="false"
     inkscape:document-rotation="0"
     inkscape:current-layer="layer1"
     inkscape:document-units="mm"
     inkscape:cy="299.8063"
     inkscape:cx="269.8498"
     inkscape:zoom="0.7"
     inkscape:pageshadow="2"
     inkscape:pageopacity="0.0"
     borderopacity="1.0"
     bordercolor="#666666"
     pagecolor="#ffffff"
     id="base" />
  <metadata
     id="metadata5">
    <rdf:RDF>
      <cc:Work
         rdf:about="">
        <dc:format>image/svg+xml</dc:format>
        <dc:type
           rdf:resource="http://purl.org/dc/dcmitype/StillImage" />
        <dc:title></dc:title>
      </cc:Work>
    </rdf:RDF>
  </metadata>
  <g
     transform="translate(-26.528257,-124.17321)"
     id="layer1"
     inkscape:groupmode="layer"
     inkscape:label="Layer 1">
    <path
       id="path24"
       d="m 38.140852,260.61171 c -3.025303,-0.51619 -6.209046,-2.39735 -8.410858,-4.96968 -3.469702,-4.05356 -3.284497,-0.26979 -3.139072,-64.13155 l 0.130945,-57.50291 1.06492,-1.98898 c 1.470053,-2.74564 4.912796,-5.78901 7.814842,-6.90827 2.349014,-0.90597 4.766236,-0.93711 72.745421,-0.93711 h 70.31567 l 2.23771,1.03539 c 3.13904,1.45243 5.71519,3.86123 7.25943,6.78783 l 1.32065,2.50285 v 58.02272 58.02272 l -1.10938,2.07613 c -1.73993,3.25615 -3.88575,5.39058 -6.91467,6.87801 l -2.79374,1.37193 -69.08638,0.0709 c -37.997502,0.039 -70.143473,-0.1095 -71.435488,-0.32995 z m 142.488738,-3.26278 c 1.08178,-0.58481 2.67479,-1.80181 3.54003,-2.70445 3.29929,-3.44193 3.09816,0.59978 3.09816,-62.256 v -56.95853 l -1.25333,-2.5151 c -0.68933,-1.38331 -2.02211,-3.10149 -2.96174,-3.81817 -3.77045,-2.87587 0.33987,-2.73552 -75.9804,-2.59445 l -70.101713,0.12957 -2.404709,1.48679 c -1.32259,0.81773 -3.075371,2.44097 -3.89507,3.6072 l -1.490361,2.12042 -0.128914,58.02586 -0.128914,58.02585 1.345609,2.47233 c 0.740085,1.35978 2.064175,3.0204 2.942421,3.69027 3.468239,2.64536 0.390429,2.54585 75.628111,2.44514 l 69.82395,-0.0935 z M 59.421111,250.54472 v -6.14648 h 6.146475 6.146474 v 6.14648 6.14647 h -6.146474 -6.146475 z m 21.143872,0 v -6.14648 h 6.392334 6.392333 v 6.14648 6.14647 h -6.392333 -6.392334 z m 20.160437,0 v -6.14648 h 6.39233 6.39234 v 6.14648 6.14647 h -6.39234 -6.39233 z m 21.63559,0 v -6.14648 h 6.14647 6.14648 v 6.14648 6.14647 h -6.14648 -6.14647 z m 21.14387,0 v -6.14648 h 6.14648 6.14647 v 6.14648 6.14647 h -6.14647 -6.14648 z M 30.90147,234.07217 v -6.39234 h 6.392333 6.392333 v 6.39234 6.39233 H 37.293803 30.90147 Z m 141.61477,0 v -6.39234 h 6.14648 6.14647 v 6.39234 6.39233 h -6.14647 -6.14648 z m -114.102875,5.2309 c -4.693564,-1.26586 -9.067885,-5.30087 -10.644018,-9.81838 -1.375499,-3.94244 -1.36222,-70.01987 0.01486,-73.97014 1.199718,-3.44148 4.938432,-7.50348 8.307914,-9.0263 l 2.591408,-1.17117 h 49.417651 49.41765 l 2.27292,1.05096 c 3.11664,1.44109 6.15218,4.3015 7.72257,7.27704 l 1.31403,2.48979 0.1355,35.30444 c 0.0862,22.45447 -0.0436,35.96972 -0.35667,37.13227 -1.2907,4.7933 -5.80922,9.21142 -10.87474,10.63311 -3.63103,1.01909 -95.567632,1.11016 -99.31908,0.0984 z m 17.739177,-12.7296 c 4.472254,-2.26112 6.536245,-8.08145 6.495349,-18.31649 -0.0384,-9.61231 -1.370674,-12.91977 -9.582764,-23.78993 -3.681136,-4.87264 -4.71942,-9.22213 -3.116968,-13.05733 2.163844,-5.17881 5.699645,-0.91284 5.699645,6.87666 v 2.68025 h 3.271104 3.27111 l -0.324141,-5.53183 c -0.620872,-10.59589 -3.046901,-15.48155 -8.112502,-16.33738 -6.071104,-1.02571 -9.78451,3.21653 -10.908674,12.4622 -1.285723,10.5744 0.529357,16.03 9.295876,27.94069 4.656072,6.32599 5.49244,14.73268 1.712158,17.20961 -2.863775,1.87642 -4.595435,-1.44703 -4.596501,-8.82173 l -7.64e-4,-5.28597 h -3.517859 -3.517859 l 0.305189,6.51526 c 0.706121,15.07453 5.695944,21.46614 13.627601,17.45599 z m 23.883948,0.16943 c 4.29306,-1.94968 6.17167,-6.72477 6.48567,-16.48546 0.34623,-10.76218 -0.79784,-14.16259 -8.020756,-23.83951 -5.010906,-6.71337 -6.281215,-10.77577 -4.683574,-14.97789 1.854912,-4.8788 5.278287,-1.69526 5.777056,5.37231 l 0.293167,4.15428 h 3.123137 3.12313 l -0.004,-2.33566 c -0.0281,-16.24516 -7.372136,-24.62789 -15.300808,-17.46481 -7.1688,6.47657 -5.559934,23.36284 3.385695,35.53544 5.578918,7.59142 6.686493,10.88625 5.530799,16.45319 -1.658968,7.99119 -6.190075,4.38974 -6.742132,-5.35883 l -0.294116,-5.19374 h -3.12208 -3.122079 v 4.38988 c 0,15.72636 5.335145,23.49102 13.570891,19.7508 z m 25.41774,-0.27013 c 2.98281,-1.9544 5.01869,-9.17101 5.38163,-19.0763 l 0.17567,-4.79425 h -3.27324 -3.27323 l -0.26916,5.53183 c -0.42551,8.74549 -2.62048,11.91438 -5.02794,7.25887 -2.47049,-4.77741 -2.47049,-39.48927 0,-44.26668 2.23494,-4.32189 4.4568,-1.64813 5.00097,6.0181 l 0.30622,4.31401 h 3.12253 3.12254 l -0.004,-4.05668 c -0.0112,-12.49852 -3.97982,-19.33015 -10.64805,-18.33019 -7.39188,1.10848 -9.17767,7.94532 -9.18686,35.17153 -0.007,21.14458 0.90635,27.21335 4.6615,30.9685 2.52043,2.52043 7.10018,3.10322 9.91136,1.26126 z m 23.33045,0.23963 c 4.38772,-1.99174 6.52143,-7.98781 6.52143,-18.32626 0,-9.62571 -1.09136,-12.55134 -8.2782,-22.19152 -4.9956,-6.70092 -6.27,-11.17662 -4.27879,-15.02718 2.38951,-4.62082 5.67294,-0.50046 5.67294,7.11894 v 2.68025 h 3.19617 3.19617 v -2.59442 c 0,-16.34878 -8.4943,-25.19564 -15.89268,-16.5523 -6.45314,7.53904 -4.67973,23.10688 3.97356,34.88169 5.66173,7.70409 7.0027,11.96204 5.41754,17.20211 -2.11804,7.00163 -6.02632,3.37426 -6.60803,-6.13307 l -0.31623,-5.16842 h -3.19441 -3.19441 l 0.29824,6.76112 c 0.65074,14.75228 5.49094,20.97862 13.4867,17.34906 z M 30.90147,213.42001 v -6.39233 h 6.392333 6.392333 v 6.39233 6.39234 H 37.293803 30.90147 Z m 141.61477,0 v -6.39233 h 6.14648 6.14647 v 6.39233 6.39234 h -6.14647 -6.14648 z M 30.90147,193.25958 v -6.39233 h 6.392333 6.392333 v 6.39233 6.39233 H 37.293803 30.90147 Z m 141.61477,0 v -6.39233 h 6.14648 6.14647 v 6.39233 6.39233 h -6.14647 -6.14648 z M 30.90147,172.85328 v -6.14647 h 6.392333 6.392333 v 6.14647 6.14648 H 37.293803 30.90147 Z m 141.61477,0 v -6.14647 h 6.14648 6.14647 v 6.14647 6.14648 h -6.14647 -6.14648 z M 30.90147,151.95527 v -6.39233 h 6.392333 6.392333 v 6.39233 6.39233 H 37.293803 30.90147 Z m 141.61477,0 v -6.39233 h 6.14648 6.14647 v 6.39233 6.39233 h -6.14647 -6.14648 z M 59.421111,135.23686 v -6.39233 h 6.146475 6.146474 v 6.39233 6.39233 h -6.146474 -6.146475 z m 21.143872,0 v -6.39233 h 6.392334 6.392333 v 6.39233 6.39233 h -6.392333 -6.392334 z m 20.160437,0 v -6.39233 h 6.39233 6.39234 v 6.39233 6.39233 h -6.39234 -6.39233 z m 21.63559,0 v -6.39233 h 6.14647 6.14648 v 6.39233 6.39233 h -6.14648 -6.14647 z m 21.14387,0 v -6.39233 h 6.14648 6.14647 v 6.39233 6.39233 h -6.14647 -6.14648 z"
       style="fill:#ffffff;stroke-width:1" />
  </g>
</svg>
