<?xml version="1.0" encoding="UTF-8"?>
<svg xmlns="http://www.w3.org/2000/svg" xmlns:xlink="http://www.w3.org/1999/xlink" width="152.172729pt" height="70.083351pt" viewBox="0 0 152.172729 70.083351" version="1.1">
<defs>
<clipPath id="clip1">
  <path d="M 135 10 L 152.171875 10 L 152.171875 24 L 135 24 Z M 135 10 "/>
</clipPath>
<clipPath id="clip2">
  <path d="M 135 32 L 152.171875 32 L 152.171875 46 L 135 46 Z M 135 32 "/>
</clipPath>
<clipPath id="clip3">
  <path d="M 15 55 L 30 55 L 30 70.082031 L 15 70.082031 Z M 15 55 "/>
</clipPath>
<clipPath id="clip4">
  <path d="M 4 55 L 20 55 L 20 70.082031 L 4 70.082031 Z M 4 55 "/>
</clipPath>
<clipPath id="clip5">
  <path d="M 9 60 L 21 60 L 21 70.082031 L 9 70.082031 Z M 9 60 "/>
</clipPath>
</defs>
<g id="surface1">
<path style="fill:none;stroke-width:0.708661;stroke-linecap:butt;stroke-linejoin:miter;stroke:rgb(0%,0%,0%);stroke-opacity:1;stroke-miterlimit:4;" d="M 104.878906 28.5 L 113.1875 28.5 C 113.433594 28.5 113.667969 28.449219 113.882812 28.363281 C 114.097656 28.273438 114.289062 28.148438 114.449219 27.988281 C 114.609375 27.832031 114.738281 27.644531 114.828125 27.4375 C 114.917969 27.226562 114.96875 27 114.96875 26.757812 L 114.96875 21.996094 C 114.96875 21.753906 115.019531 21.523438 115.109375 21.316406 C 115.199219 21.109375 115.328125 20.921875 115.488281 20.761719 C 115.648438 20.605469 115.839844 20.476562 116.054688 20.390625 C 116.265625 20.304688 116.5 20.253906 116.746094 20.253906 L 118.023438 20.253906 M 119.796875 20.253906 L 125.058594 20.253906 "/>
<path style="fill-rule:nonzero;fill:rgb(100%,100%,100%);fill-opacity:1;stroke-width:0.708661;stroke-linecap:butt;stroke-linejoin:miter;stroke:rgb(0%,0%,0%);stroke-opacity:1;stroke-miterlimit:4;" d="M 50.964844 52.136719 C 50.964844 52.476562 50.78125 52.792969 50.488281 52.964844 C 50.191406 53.136719 49.828125 53.136719 49.53125 52.964844 C 49.238281 52.792969 49.054688 52.476562 49.054688 52.136719 " transform="matrix(0,1,1,0,0,0)"/>
<path style="fill:none;stroke-width:0.708661;stroke-linecap:butt;stroke-linejoin:miter;stroke:rgb(0%,0%,0%);stroke-opacity:1;stroke-miterlimit:4;" d="M 64.046875 25.167969 L 54.261719 25.167969 C 54.015625 25.167969 53.78125 25.21875 53.566406 25.304688 C 53.355469 25.394531 53.164062 25.519531 53.003906 25.675781 C 52.839844 25.835938 52.710938 26.023438 52.621094 26.230469 C 52.53125 26.4375 52.480469 26.667969 52.480469 26.910156 L 52.480469 49.109375 M 52.480469 50.882812 L 52.480469 56.183594 "/>
<path style="fill:none;stroke-width:0.708661;stroke-linecap:butt;stroke-linejoin:miter;stroke:rgb(0%,0%,0%);stroke-opacity:1;stroke-miterlimit:4;" d="M 62.476562 50.003906 L 51.496094 50.003906 C 51.25 50.003906 51.015625 49.957031 50.804688 49.867188 C 50.589844 49.78125 50.398438 49.652344 50.238281 49.496094 C 50.078125 49.339844 49.945312 49.152344 49.855469 48.941406 C 49.765625 48.734375 49.71875 48.503906 49.71875 48.261719 L 49.71875 17.027344 "/>
<path style="fill:none;stroke-width:0.708661;stroke-linecap:butt;stroke-linejoin:miter;stroke:rgb(0%,0%,0%);stroke-opacity:1;stroke-miterlimit:4;" d="M 107.863281 53.171875 L 61.09375 53.171875 "/>
<path style="fill:none;stroke-width:0.708661;stroke-linecap:butt;stroke-linejoin:miter;stroke:rgb(0%,0%,0%);stroke-opacity:1;stroke-miterlimit:4;" d="M 104.273438 45.46875 L 95.542969 45.46875 "/>
<path style="fill-rule:nonzero;fill:rgb(100%,100%,100%);fill-opacity:1;stroke-width:0.708661;stroke-linecap:butt;stroke-linejoin:miter;stroke:rgb(0%,0%,0%);stroke-opacity:1;stroke-miterlimit:4;" d="M 119.863281 -20.605469 C 119.863281 -20.261719 119.683594 -19.945312 119.386719 -19.777344 C 119.09375 -19.605469 118.730469 -19.605469 118.433594 -19.777344 C 118.136719 -19.945312 117.957031 -20.261719 117.957031 -20.605469 " transform="matrix(1,0,0,-1,0,0)"/>
<path style="fill:none;stroke-width:0.708661;stroke-linecap:butt;stroke-linejoin:miter;stroke:rgb(0%,0%,0%);stroke-opacity:1;stroke-miterlimit:4;" d="M 125.292969 36.851562 L 120.710938 36.851562 C 120.464844 36.851562 120.230469 36.804688 120.015625 36.714844 C 119.804688 36.628906 119.613281 36.5 119.453125 36.34375 C 119.289062 36.1875 119.160156 36 119.070312 35.789062 C 118.980469 35.582031 118.929688 35.351562 118.929688 35.113281 L 118.929688 14.386719 "/>
<path style="fill:none;stroke-width:0.708661;stroke-linecap:butt;stroke-linejoin:miter;stroke:rgb(0%,0%,0%);stroke-opacity:1;stroke-miterlimit:4;" d="M 101.152344 -25.160156 L 86.820312 -25.160156 " transform="matrix(1,0,0,-1,0,0)"/>
<path style="fill:none;stroke-width:0.708661;stroke-linecap:butt;stroke-linejoin:miter;stroke:rgb(0%,0%,0%);stroke-opacity:1;stroke-miterlimit:4;" d="M 101.90625 31.929688 L 97.324219 31.929688 C 97.074219 31.929688 96.839844 31.980469 96.628906 32.066406 C 96.414062 32.15625 96.222656 32.28125 96.0625 32.4375 C 95.902344 32.597656 95.773438 32.785156 95.683594 32.992188 C 95.59375 33.199219 95.542969 33.429688 95.542969 33.671875 L 95.542969 37.839844 M 95.542969 39.613281 L 95.542969 41.257812 M 95.542969 43.023438 L 95.542969 53.171875 "/>
<path style="fill-rule:nonzero;fill:rgb(100%,100%,100%);fill-opacity:1;stroke-width:0.708661;stroke-linecap:butt;stroke-linejoin:miter;stroke:rgb(0%,0%,0%);stroke-opacity:1;stroke-miterlimit:4;" d="M 43.09375 95.191406 C 43.09375 95.53125 42.914062 95.847656 42.617188 96.019531 C 42.324219 96.1875 41.960938 96.1875 41.664062 96.019531 C 41.367188 95.847656 41.1875 95.53125 41.1875 95.191406 " transform="matrix(0,1,1,0,0,0)"/>
<path style="fill-rule:nonzero;fill:rgb(100%,100%,100%);fill-opacity:1;stroke-width:0.708661;stroke-linecap:butt;stroke-linejoin:miter;stroke:rgb(0%,0%,0%);stroke-opacity:1;stroke-miterlimit:4;" d="M 39.683594 95.1875 C 39.683594 95.53125 39.5 95.847656 39.207031 96.015625 C 38.910156 96.1875 38.546875 96.1875 38.25 96.015625 C 37.957031 95.847656 37.773438 95.53125 37.773438 95.1875 " transform="matrix(0,1,1,0,0,0)"/>
<path style="fill:none;stroke-width:0.708661;stroke-linecap:butt;stroke-linejoin:miter;stroke:rgb(0%,0%,0%);stroke-opacity:1;stroke-miterlimit:4;" d="M 104.605469 28.539062 L 94.820312 28.539062 C 94.570312 28.539062 94.335938 28.589844 94.125 28.675781 C 93.910156 28.765625 93.71875 28.890625 93.558594 29.050781 C 93.398438 29.207031 93.269531 29.394531 93.179688 29.601562 C 93.089844 29.8125 93.039062 30.039062 93.039062 30.28125 L 93.039062 37.855469 M 93.039062 39.628906 L 93.039062 42.140625 "/>
<path style="fill-rule:nonzero;fill:rgb(100%,100%,100%);fill-opacity:1;stroke-width:0.708661;stroke-linecap:butt;stroke-linejoin:miter;stroke:rgb(0%,0%,0%);stroke-opacity:1;stroke-miterlimit:4;" d="M 39.695312 92.683594 C 39.695312 93.027344 39.515625 93.339844 39.21875 93.511719 C 38.921875 93.683594 38.558594 93.683594 38.265625 93.511719 C 37.96875 93.339844 37.789062 93.027344 37.789062 92.683594 " transform="matrix(0,1,1,0,0,0)"/>
<path style="fill:none;stroke-width:0.708661;stroke-linecap:butt;stroke-linejoin:miter;stroke:rgb(0%,0%,0%);stroke-opacity:1;stroke-miterlimit:4;" d="M 143.445312 17.074219 L 124.53125 17.074219 "/>
<path style="fill:none;stroke-width:0.708661;stroke-linecap:butt;stroke-linejoin:miter;stroke:rgb(0%,0%,0%);stroke-opacity:1;stroke-miterlimit:4;" d="M 123.488281 42.132812 L 84.023438 42.132812 "/>
<path style="fill:none;stroke-width:0.708661;stroke-linecap:butt;stroke-linejoin:miter;stroke:rgb(0%,0%,0%);stroke-opacity:1;stroke-miterlimit:4;" d="M 146.070312 39 L 127.15625 39 "/>
<path style="fill:none;stroke-width:0.708661;stroke-linecap:butt;stroke-linejoin:miter;stroke:rgb(0%,0%,0%);stroke-opacity:1;stroke-miterlimit:4;" d="M 125.730469 14.386719 L 103.898438 14.386719 "/>
<path style="fill:none;stroke-width:0.708661;stroke-linecap:butt;stroke-linejoin:miter;stroke:rgb(0%,0%,0%);stroke-opacity:1;stroke-miterlimit:4;" d="M 103.996094 11.332031 L 91.601562 11.332031 "/>
<path style="fill:none;stroke-width:0.708661;stroke-linecap:butt;stroke-linejoin:miter;stroke:rgb(0%,0%,0%);stroke-opacity:1;stroke-miterlimit:4;" d="M 105.511719 17.027344 L 21.167969 17.027344 "/>
<path style="fill-rule:evenodd;fill:rgb(100%,100%,100%);fill-opacity:1;stroke-width:0.708661;stroke-linecap:butt;stroke-linejoin:miter;stroke:rgb(0%,0%,0%);stroke-opacity:1;stroke-miterlimit:10;" d="M 57.113281 14.105469 L 67.953125 14.105469 L 67.953125 28.378906 L 57.113281 28.378906 Z M 57.113281 14.105469 "/>
<path style=" stroke:none;fill-rule:nonzero;fill:rgb(0%,0%,0%);fill-opacity:1;" d="M 58.625 16.09375 L 58.625 19.40625 L 59.3125 19.40625 C 59.894531 19.40625 60.320312 19.277344 60.59375 19.015625 C 60.863281 18.746094 61 18.320312 61 17.734375 C 61 17.171875 60.863281 16.761719 60.59375 16.5 C 60.320312 16.230469 59.894531 16.09375 59.3125 16.09375 Z M 58.046875 15.609375 L 59.234375 15.609375 C 60.046875 15.609375 60.644531 15.78125 61.03125 16.125 C 61.414062 16.46875 61.609375 17.007812 61.609375 17.734375 C 61.609375 18.476562 61.414062 19.015625 61.03125 19.359375 C 60.644531 19.703125 60.046875 19.875 59.234375 19.875 L 58.046875 19.875 Z M 58.046875 15.609375 "/>
<path style=" stroke:none;fill-rule:nonzero;fill:rgb(0%,0%,0%);fill-opacity:1;" d="M 65.085938 15.921875 C 64.667969 15.921875 64.335938 16.078125 64.085938 16.390625 C 63.84375 16.703125 63.726562 17.132812 63.726562 17.671875 C 63.726562 18.203125 63.84375 18.625 64.085938 18.9375 C 64.335938 19.25 64.667969 19.40625 65.085938 19.40625 C 65.5 19.40625 65.828125 19.25 66.070312 18.9375 C 66.320312 18.625 66.445312 18.203125 66.445312 17.671875 C 66.445312 17.132812 66.320312 16.703125 66.070312 16.390625 C 65.828125 16.078125 65.5 15.921875 65.085938 15.921875 Z M 65.882812 19.71875 L 66.648438 20.546875 L 65.945312 20.546875 L 65.320312 19.875 C 65.257812 19.875 65.210938 19.875 65.179688 19.875 C 65.148438 19.875 65.117188 19.875 65.085938 19.875 C 64.492188 19.875 64.015625 19.679688 63.664062 19.28125 C 63.308594 18.875 63.132812 18.339844 63.132812 17.671875 C 63.132812 16.996094 63.308594 16.460938 63.664062 16.0625 C 64.015625 15.65625 64.492188 15.453125 65.085938 15.453125 C 65.679688 15.453125 66.152344 15.65625 66.507812 16.0625 C 66.859375 16.460938 67.039062 16.996094 67.039062 17.671875 C 67.039062 18.164062 66.9375 18.585938 66.742188 18.9375 C 66.542969 19.292969 66.257812 19.554688 65.882812 19.71875 Z M 65.882812 19.71875 "/>
<path style="fill-rule:nonzero;fill:rgb(100%,100%,100%);fill-opacity:1;stroke-width:0.822452;stroke-linecap:butt;stroke-linejoin:miter;stroke:rgb(0%,0%,0%);stroke-opacity:1;stroke-miterlimit:4;" d="M 81.010155 -25.148438 L 76.927289 -22.789062 L 76.927289 -27.507812 Z M 81.010155 -25.148438 " transform="matrix(0.742432,0,0,-1,0,0)"/>
<path style=" stroke:none;fill-rule:nonzero;fill:rgb(0%,0%,0%);fill-opacity:1;" d="M 63.261719 23.027344 L 63.835938 23.777344 L 64.410156 24.523438 L 62.109375 24.523438 L 62.683594 23.777344 Z M 63.261719 23.027344 "/>
<path style="fill:none;stroke-width:0.711002;stroke-linecap:butt;stroke-linejoin:miter;stroke:rgb(0%,0%,0%);stroke-opacity:1;stroke-miterlimit:4;" d="M 62.418149 26.90625 L 63.668557 26.90625 L 63.668557 23.304688 L 66.169372 23.304688 L 66.169372 26.90625 L 67.41978 26.90625 " transform="matrix(0.993426,0,0,1,0,0)"/>
<path style=" stroke:none;fill-rule:nonzero;fill:rgb(0%,0%,0%);fill-opacity:1;" d="M 65.738281 27.195312 L 65.164062 26.445312 L 64.585938 25.695312 L 66.890625 25.695312 L 66.316406 26.445312 Z M 65.738281 27.195312 "/>
<path style=" stroke:none;fill-rule:evenodd;fill:rgb(100%,100%,100%);fill-opacity:1;" d="M 139.140625 14.933594 L 139.140625 19.214844 L 145.953125 19.214844 L 148.15625 17.128906 L 145.894531 14.988281 Z M 139.140625 14.933594 "/>
<g clip-path="url(#clip1)" clip-rule="nonzero">
<path style="fill:none;stroke-width:0.708661;stroke-linecap:butt;stroke-linejoin:miter;stroke:rgb(0%,0%,0%);stroke-opacity:1;stroke-miterlimit:4;" d="M 139.140625 14.933594 L 139.140625 19.214844 L 145.953125 19.214844 L 148.15625 17.128906 L 145.894531 14.988281 Z M 139.140625 14.933594 "/>
</g>
<path style=" stroke:none;fill-rule:evenodd;fill:rgb(100%,100%,100%);fill-opacity:1;" d="M 139.140625 36.863281 L 139.140625 41.144531 L 145.953125 41.144531 L 148.15625 39.058594 L 145.894531 36.917969 Z M 139.140625 36.863281 "/>
<g clip-path="url(#clip2)" clip-rule="nonzero">
<path style="fill:none;stroke-width:0.708661;stroke-linecap:butt;stroke-linejoin:miter;stroke:rgb(0%,0%,0%);stroke-opacity:1;stroke-miterlimit:4;" d="M 139.140625 36.863281 L 139.140625 41.144531 L 145.953125 41.144531 L 148.15625 39.058594 L 145.894531 36.917969 Z M 139.140625 36.863281 "/>
</g>
<path style="fill-rule:nonzero;fill:rgb(100%,100%,100%);fill-opacity:1;stroke-width:0.708661;stroke-linecap:butt;stroke-linejoin:miter;stroke:rgb(0%,0%,0%);stroke-opacity:1;stroke-miterlimit:4;" d="M 122.730469 11.757812 L 129.023438 11.773438 C 136.519531 11.792969 136.144531 22.386719 129.417969 22.386719 L 122.710938 22.386719 Z M 122.730469 11.757812 "/>
<path style="fill-rule:nonzero;fill:rgb(100%,100%,100%);fill-opacity:1;stroke-width:0.708661;stroke-linecap:butt;stroke-linejoin:miter;stroke:rgb(0%,0%,0%);stroke-opacity:1;stroke-miterlimit:4;" d="M 122.730469 33.6875 L 129.023438 33.703125 C 136.519531 33.722656 136.144531 44.316406 129.417969 44.316406 L 122.710938 44.316406 Z M 122.730469 33.6875 "/>
<path style="fill-rule:nonzero;fill:rgb(100%,100%,100%);fill-opacity:1;stroke-width:0.708661;stroke-linecap:butt;stroke-linejoin:miter;stroke:rgb(0%,0%,0%);stroke-opacity:1;stroke-miterlimit:4;" d="M 99.246094 23.144531 C 109.132812 22.769531 110.976562 28.488281 110.976562 28.488281 C 110.976562 28.488281 109.429688 34.085938 99.234375 33.742188 C 101.503906 31.074219 101.496094 25.960938 99.242188 23.144531 Z M 99.246094 23.144531 "/>
<path style=" stroke:none;fill-rule:nonzero;fill:rgb(0%,0%,0%);fill-opacity:1;" d="M 94.753906 45.554688 C 94.753906 45.117188 95.109375 44.757812 95.546875 44.757812 C 95.984375 44.757812 96.339844 45.117188 96.339844 45.554688 C 96.339844 45.992188 95.984375 46.347656 95.546875 46.347656 C 95.109375 46.347656 94.753906 45.992188 94.753906 45.554688 Z M 94.753906 45.554688 "/>
<path style=" stroke:none;fill-rule:nonzero;fill:rgb(0%,0%,0%);fill-opacity:1;" d="M 92.214844 42.203125 C 92.214844 41.765625 92.570312 41.40625 93.011719 41.40625 C 93.449219 41.40625 93.804688 41.765625 93.804688 42.203125 C 93.804688 42.640625 93.449219 42.996094 93.011719 42.996094 C 92.570312 42.996094 92.214844 42.640625 92.214844 42.203125 Z M 92.214844 42.203125 "/>
<path style="fill:none;stroke-width:0.708661;stroke-linecap:butt;stroke-linejoin:miter;stroke:rgb(0%,0%,0%);stroke-opacity:1;stroke-miterlimit:4;" d="M 102.261719 38.75 L 92.054688 38.75 C 91.808594 38.75 91.574219 38.703125 91.359375 38.613281 C 91.144531 38.527344 90.953125 38.398438 90.792969 38.242188 C 90.632812 38.085938 90.503906 37.898438 90.414062 37.6875 C 90.324219 37.480469 90.273438 37.25 90.273438 37.011719 L 90.273438 25.152344 "/>
<path style=" stroke:none;fill-rule:nonzero;fill:rgb(0%,0%,0%);fill-opacity:1;" d="M 89.441406 25.152344 C 89.441406 25.59375 89.796875 25.949219 90.238281 25.949219 C 90.675781 25.949219 91.03125 25.59375 91.03125 25.152344 C 91.03125 24.714844 90.675781 24.359375 90.238281 24.359375 C 89.796875 24.359375 89.441406 24.714844 89.441406 25.152344 Z M 89.441406 25.152344 "/>
<path style="fill-rule:nonzero;fill:rgb(100%,100%,100%);fill-opacity:1;stroke-width:0.708661;stroke-linecap:butt;stroke-linejoin:miter;stroke:rgb(0%,0%,0%);stroke-opacity:1;stroke-miterlimit:4;" d="M 98.867188 36.804688 L 105.160156 36.824219 C 112.65625 36.839844 112.28125 47.433594 105.554688 47.433594 L 98.847656 47.4375 Z M 98.867188 36.804688 "/>
<path style="fill-rule:evenodd;fill:rgb(100%,100%,100%);fill-opacity:1;stroke-width:0.708661;stroke-linecap:butt;stroke-linejoin:miter;stroke:rgb(0%,0%,0%);stroke-opacity:1;stroke-miterlimit:4;" d="M 81.332031 40.386719 L 81.332031 43.789062 L 86.863281 43.789062 L 88.65625 42.132812 L 86.820312 40.429688 Z M 81.332031 40.386719 "/>
<path style="fill-rule:evenodd;fill:rgb(100%,100%,100%);fill-opacity:1;stroke-width:0.708661;stroke-linecap:butt;stroke-linejoin:miter;stroke:rgb(0%,0%,0%);stroke-opacity:1;stroke-miterlimit:4;" d="M 81.332031 23.414062 L 81.332031 26.820312 L 86.863281 26.820312 L 88.65625 25.160156 L 86.820312 23.457031 Z M 81.332031 23.414062 "/>
<path style="fill-rule:evenodd;fill:rgb(100%,100%,100%);fill-opacity:1;stroke-width:0.708661;stroke-linecap:butt;stroke-linejoin:miter;stroke:rgb(0%,0%,0%);stroke-opacity:1;stroke-miterlimit:4;" d="M 98.847656 50.976562 L 98.847656 55.257812 L 105.660156 55.257812 L 107.863281 53.171875 L 105.601562 51.03125 Z M 98.847656 50.976562 "/>
<path style=" stroke:none;fill-rule:nonzero;fill:rgb(0%,0%,0%);fill-opacity:1;" d="M 118.132812 14.445312 C 118.132812 14.882812 118.488281 15.238281 118.929688 15.238281 C 119.367188 15.238281 119.722656 14.882812 119.722656 14.445312 C 119.722656 14.003906 119.367188 13.648438 118.929688 13.648438 C 118.488281 13.648438 118.132812 14.003906 118.132812 14.445312 Z M 118.132812 14.445312 "/>
<path style="fill-rule:evenodd;fill:rgb(100%,100%,100%);fill-opacity:1;stroke-width:0.708661;stroke-linecap:butt;stroke-linejoin:miter;stroke:rgb(0%,0%,0%);stroke-opacity:1;stroke-miterlimit:4;" d="M 89.144531 9.585938 L 89.144531 12.992188 L 94.679688 12.992188 L 96.472656 11.332031 L 94.632812 9.628906 Z M 89.144531 9.585938 "/>
<path style=" stroke:none;fill-rule:nonzero;fill:rgb(0%,0%,0%);fill-opacity:1;" d="M 94.785156 53.164062 C 94.785156 52.722656 95.140625 52.367188 95.578125 52.367188 C 96.015625 52.367188 96.371094 52.722656 96.371094 53.164062 C 96.371094 53.601562 96.015625 53.957031 95.578125 53.957031 C 95.140625 53.957031 94.785156 53.601562 94.785156 53.164062 Z M 94.785156 53.164062 "/>
<path style=" stroke:none;fill-rule:nonzero;fill:rgb(0%,0%,0%);fill-opacity:1;" d="M 139.066406 7.074219 L 139.847656 7.074219 L 139.847656 10.605469 C 139.847656 11.230469 139.960938 11.683594 140.191406 11.964844 C 140.417969 12.238281 140.789062 12.371094 141.300781 12.371094 C 141.800781 12.371094 142.164062 12.238281 142.394531 11.964844 C 142.621094 11.683594 142.738281 11.230469 142.738281 10.605469 L 142.738281 7.074219 L 143.519531 7.074219 L 143.519531 10.714844 C 143.519531 11.476562 143.332031 12.050781 142.957031 12.433594 C 142.582031 12.820312 142.027344 13.011719 141.300781 13.011719 C 140.558594 13.011719 140.003906 12.820312 139.628906 12.433594 C 139.253906 12.050781 139.066406 11.476562 139.066406 10.714844 Z M 139.066406 7.074219 "/>
<path style=" stroke:none;fill-rule:nonzero;fill:rgb(0%,0%,0%);fill-opacity:1;" d="M 145.800781 7.714844 L 145.800781 9.902344 L 146.785156 9.902344 C 147.160156 9.902344 147.445312 9.808594 147.644531 9.621094 C 147.839844 9.433594 147.941406 9.164062 147.941406 8.808594 C 147.941406 8.464844 147.839844 8.199219 147.644531 8.011719 C 147.445312 7.816406 147.160156 7.714844 146.785156 7.714844 Z M 145.003906 7.074219 L 146.785156 7.074219 C 147.441406 7.074219 147.933594 7.222656 148.269531 7.511719 C 148.601562 7.804688 148.769531 8.238281 148.769531 8.808594 C 148.769531 9.382812 148.601562 9.820312 148.269531 10.121094 C 147.933594 10.414062 147.441406 10.558594 146.785156 10.558594 L 145.800781 10.558594 L 145.800781 12.902344 L 145.003906 12.902344 Z M 145.003906 7.074219 "/>
<path style=" stroke:none;fill-rule:nonzero;fill:rgb(0%,0%,0%);fill-opacity:1;" d="M 139.5625 29.808594 L 139.5625 34.339844 L 140.515625 34.339844 C 141.316406 34.339844 141.90625 34.160156 142.28125 33.792969 C 142.65625 33.429688 142.84375 32.855469 142.84375 32.074219 C 142.84375 31.292969 142.65625 30.722656 142.28125 30.355469 C 141.90625 29.992188 141.316406 29.808594 140.515625 29.808594 Z M 138.765625 29.167969 L 140.390625 29.167969 C 141.523438 29.167969 142.351562 29.402344 142.875 29.871094 C 143.40625 30.339844 143.671875 31.074219 143.671875 32.074219 C 143.671875 33.074219 143.40625 33.816406 142.875 34.292969 C 142.34375 34.761719 141.515625 34.996094 140.390625 34.996094 L 138.765625 34.996094 Z M 138.765625 29.167969 "/>
<path style=" stroke:none;fill-rule:nonzero;fill:rgb(0%,0%,0%);fill-opacity:1;" d="M 144.921875 29.167969 L 145.984375 29.167969 L 148.578125 34.042969 L 148.578125 29.167969 L 149.34375 29.167969 L 149.34375 34.996094 L 148.28125 34.996094 L 145.6875 30.121094 L 145.6875 34.996094 L 144.921875 34.996094 Z M 144.921875 29.167969 "/>
<path style=" stroke:none;fill-rule:nonzero;fill:rgb(0%,0%,0%);fill-opacity:1;" d="M 111.894531 51.496094 C 111.496094 51.558594 111.175781 51.699219 110.925781 51.917969 C 110.582031 52.222656 110.410156 52.632812 110.410156 53.152344 C 110.410156 53.664062 110.582031 54.070312 110.925781 54.371094 C 111.175781 54.589844 111.496094 54.730469 111.894531 54.792969 Z M 112.675781 54.792969 C 113.070312 54.730469 113.394531 54.589844 113.644531 54.371094 C 113.976562 54.070312 114.144531 53.664062 114.144531 53.152344 C 114.144531 52.632812 113.976562 52.222656 113.644531 51.917969 C 113.394531 51.699219 113.070312 51.558594 112.675781 51.496094 Z M 111.894531 55.433594 C 111.257812 55.382812 110.730469 55.179688 110.316406 54.824219 C 109.824219 54.410156 109.582031 53.851562 109.582031 53.152344 C 109.582031 52.445312 109.824219 51.882812 110.316406 51.464844 C 110.722656 51.113281 111.246094 50.902344 111.894531 50.839844 L 111.894531 50.230469 L 112.675781 50.230469 L 112.675781 50.839844 C 113.308594 50.902344 113.832031 51.113281 114.238281 51.464844 C 114.726562 51.882812 114.972656 52.445312 114.972656 53.152344 C 114.972656 53.851562 114.726562 54.410156 114.238281 54.824219 C 113.832031 55.179688 113.308594 55.386719 112.675781 55.449219 L 112.675781 56.058594 L 111.894531 56.058594 Z M 111.894531 55.433594 "/>
<path style=" stroke:none;fill-rule:nonzero;fill:rgb(0%,0%,0%);fill-opacity:1;" d="M 115.941406 53.863281 L 116.628906 53.863281 L 118.316406 57.035156 L 118.316406 53.863281 L 118.800781 53.863281 L 118.800781 57.660156 L 118.113281 57.660156 L 116.441406 54.488281 L 116.441406 57.660156 L 115.941406 57.660156 Z M 115.941406 53.863281 "/>
<path style=" stroke:none;fill-rule:nonzero;fill:rgb(0%,0%,0%);fill-opacity:1;" d="M 74.84375 26.699219 C 74.445312 26.761719 74.125 26.902344 73.875 27.121094 C 73.53125 27.425781 73.359375 27.835938 73.359375 28.355469 C 73.359375 28.867188 73.53125 29.273438 73.875 29.574219 C 74.125 29.792969 74.445312 29.933594 74.84375 29.996094 Z M 75.625 29.996094 C 76.019531 29.933594 76.34375 29.792969 76.59375 29.574219 C 76.925781 29.273438 77.09375 28.867188 77.09375 28.355469 C 77.09375 27.835938 76.925781 27.425781 76.59375 27.121094 C 76.34375 26.902344 76.019531 26.761719 75.625 26.699219 Z M 74.84375 30.636719 C 74.207031 30.585938 73.679688 30.382812 73.265625 30.027344 C 72.773438 29.613281 72.53125 29.054688 72.53125 28.355469 C 72.53125 27.648438 72.773438 27.085938 73.265625 26.667969 C 73.671875 26.316406 74.195312 26.105469 74.84375 26.042969 L 74.84375 25.433594 L 75.625 25.433594 L 75.625 26.042969 C 76.257812 26.105469 76.78125 26.316406 77.1875 26.667969 C 77.675781 27.085938 77.921875 27.648438 77.921875 28.355469 C 77.921875 29.054688 77.675781 29.613281 77.1875 30.027344 C 76.78125 30.382812 76.257812 30.589844 75.625 30.652344 L 75.625 31.261719 L 74.84375 31.261719 Z M 74.84375 30.636719 "/>
<path style=" stroke:none;fill-rule:nonzero;fill:rgb(0%,0%,0%);fill-opacity:1;" d="M 78.890625 29.066406 L 79.578125 29.066406 L 81.265625 32.238281 L 81.265625 29.066406 L 81.75 29.066406 L 81.75 32.863281 L 81.0625 32.863281 L 79.390625 29.691406 L 79.390625 32.863281 L 78.890625 32.863281 Z M 78.890625 29.066406 "/>
<path style=" stroke:none;fill-rule:nonzero;fill:rgb(0%,0%,0%);fill-opacity:1;" d="M 84.105469 29.820312 L 84.105469 30.914062 L 85.183594 30.914062 L 85.183594 31.242188 L 84.105469 31.242188 L 84.105469 32.335938 L 83.777344 32.335938 L 83.777344 31.242188 L 82.683594 31.242188 L 82.683594 30.914062 L 83.777344 30.914062 L 83.777344 29.820312 Z M 84.105469 29.820312 "/>
<path style=" stroke:none;fill-rule:nonzero;fill:rgb(0%,0%,0%);fill-opacity:1;" d="M 86.613281 32.425781 L 88.410156 32.425781 L 88.410156 32.863281 L 85.988281 32.863281 L 85.988281 32.425781 C 86.183594 32.230469 86.449219 31.964844 86.785156 31.628906 C 87.128906 31.285156 87.339844 31.0625 87.425781 30.957031 C 87.589844 30.78125 87.707031 30.628906 87.769531 30.503906 C 87.832031 30.371094 87.863281 30.238281 87.863281 30.113281 C 87.863281 29.917969 87.789062 29.753906 87.644531 29.628906 C 87.507812 29.496094 87.324219 29.425781 87.097656 29.425781 C 86.941406 29.425781 86.773438 29.457031 86.597656 29.519531 C 86.417969 29.574219 86.226562 29.65625 86.019531 29.769531 L 86.019531 29.253906 C 86.226562 29.171875 86.417969 29.109375 86.597656 29.066406 C 86.773438 29.027344 86.941406 29.003906 87.097656 29.003906 C 87.480469 29.003906 87.789062 29.105469 88.019531 29.300781 C 88.257812 29.5 88.378906 29.761719 88.378906 30.082031 C 88.378906 30.238281 88.347656 30.390625 88.285156 30.535156 C 88.230469 30.671875 88.128906 30.832031 87.972656 31.019531 C 87.929688 31.074219 87.792969 31.21875 87.566406 31.457031 C 87.347656 31.6875 87.027344 32.011719 86.613281 32.425781 Z M 86.613281 32.425781 "/>
<path style=" stroke:none;fill-rule:nonzero;fill:rgb(0%,0%,0%);fill-opacity:1;" d="M 74.84375 43.210938 C 74.445312 43.273438 74.125 43.414062 73.875 43.632812 C 73.53125 43.9375 73.359375 44.347656 73.359375 44.867188 C 73.359375 45.378906 73.53125 45.785156 73.875 46.085938 C 74.125 46.304688 74.445312 46.445312 74.84375 46.507812 Z M 75.625 46.507812 C 76.019531 46.445312 76.34375 46.304688 76.59375 46.085938 C 76.925781 45.785156 77.09375 45.378906 77.09375 44.867188 C 77.09375 44.347656 76.925781 43.9375 76.59375 43.632812 C 76.34375 43.414062 76.019531 43.273438 75.625 43.210938 Z M 74.84375 47.148438 C 74.207031 47.097656 73.679688 46.894531 73.265625 46.539062 C 72.773438 46.125 72.53125 45.566406 72.53125 44.867188 C 72.53125 44.160156 72.773438 43.597656 73.265625 43.179688 C 73.671875 42.828125 74.195312 42.617188 74.84375 42.554688 L 74.84375 41.945312 L 75.625 41.945312 L 75.625 42.554688 C 76.257812 42.617188 76.78125 42.828125 77.1875 43.179688 C 77.675781 43.597656 77.921875 44.160156 77.921875 44.867188 C 77.921875 45.566406 77.675781 46.125 77.1875 46.539062 C 76.78125 46.894531 76.257812 47.101562 75.625 47.164062 L 75.625 47.773438 L 74.84375 47.773438 Z M 74.84375 47.148438 "/>
<path style=" stroke:none;fill-rule:nonzero;fill:rgb(0%,0%,0%);fill-opacity:1;" d="M 78.890625 45.578125 L 79.578125 45.578125 L 81.265625 48.75 L 81.265625 45.578125 L 81.75 45.578125 L 81.75 49.375 L 81.0625 49.375 L 79.390625 46.203125 L 79.390625 49.375 L 78.890625 49.375 Z M 78.890625 45.578125 "/>
<path style=" stroke:none;fill-rule:nonzero;fill:rgb(0%,0%,0%);fill-opacity:1;" d="M 82.558594 46.957031 L 84.136719 46.957031 L 84.136719 47.441406 L 82.558594 47.441406 Z M 82.558594 46.957031 "/>
<path style=" stroke:none;fill-rule:nonzero;fill:rgb(0%,0%,0%);fill-opacity:1;" d="M 85.429688 48.9375 L 87.226562 48.9375 L 87.226562 49.375 L 84.804688 49.375 L 84.804688 48.9375 C 85 48.742188 85.265625 48.476562 85.601562 48.140625 C 85.945312 47.796875 86.15625 47.574219 86.242188 47.46875 C 86.40625 47.292969 86.523438 47.140625 86.585938 47.015625 C 86.648438 46.882812 86.679688 46.75 86.679688 46.625 C 86.679688 46.429688 86.605469 46.265625 86.460938 46.140625 C 86.324219 46.007812 86.140625 45.9375 85.914062 45.9375 C 85.757812 45.9375 85.589844 45.96875 85.414062 46.03125 C 85.234375 46.085938 85.042969 46.167969 84.835938 46.28125 L 84.835938 45.765625 C 85.042969 45.683594 85.234375 45.621094 85.414062 45.578125 C 85.589844 45.539062 85.757812 45.515625 85.914062 45.515625 C 86.296875 45.515625 86.605469 45.617188 86.835938 45.8125 C 87.074219 46.011719 87.195312 46.273438 87.195312 46.59375 C 87.195312 46.75 87.164062 46.902344 87.101562 47.046875 C 87.046875 47.183594 86.945312 47.34375 86.789062 47.53125 C 86.746094 47.585938 86.609375 47.730469 86.382812 47.96875 C 86.164062 48.199219 85.84375 48.523438 85.429688 48.9375 Z M 85.429688 48.9375 "/>
<path style="fill:none;stroke-width:0.708661;stroke-linecap:butt;stroke-linejoin:miter;stroke:rgb(0%,0%,0%);stroke-opacity:1;stroke-miterlimit:4;" d="M 63.308594 56.183594 L 15.476562 56.183594 "/>
<path style=" stroke:none;fill-rule:nonzero;fill:rgb(0%,0%,0%);fill-opacity:1;" d="M 48.921875 17.046875 C 48.921875 17.484375 49.277344 17.839844 49.71875 17.839844 C 50.15625 17.839844 50.511719 17.484375 50.511719 17.046875 C 50.511719 16.609375 50.15625 16.25 49.71875 16.25 C 49.277344 16.25 48.921875 16.609375 48.921875 17.046875 Z M 48.921875 17.046875 "/>
<path style=" stroke:none;fill-rule:nonzero;fill:rgb(0%,0%,0%);fill-opacity:1;" d="M 51.652344 56.203125 C 51.652344 56.644531 52.007812 57 52.449219 57 C 52.886719 57 53.242188 56.644531 53.242188 56.203125 C 53.242188 55.765625 52.886719 55.410156 52.449219 55.410156 C 52.007812 55.410156 51.652344 55.765625 51.652344 56.203125 Z M 51.652344 56.203125 "/>
<path style=" stroke:none;fill-rule:nonzero;fill:rgb(0%,0%,0%);fill-opacity:1;" d="M 45.019531 8.207031 L 45.019531 12.738281 L 45.972656 12.738281 C 46.773438 12.738281 47.363281 12.558594 47.738281 12.191406 C 48.113281 11.828125 48.300781 11.253906 48.300781 10.472656 C 48.300781 9.691406 48.113281 9.121094 47.738281 8.753906 C 47.363281 8.390625 46.773438 8.207031 45.972656 8.207031 Z M 44.222656 7.566406 L 45.847656 7.566406 C 46.980469 7.566406 47.808594 7.800781 48.332031 8.269531 C 48.863281 8.738281 49.128906 9.472656 49.128906 10.472656 C 49.128906 11.472656 48.863281 12.214844 48.332031 12.691406 C 47.800781 13.160156 46.972656 13.394531 45.847656 13.394531 L 44.222656 13.394531 Z M 44.222656 7.566406 "/>
<path style=" stroke:none;fill-rule:nonzero;fill:rgb(0%,0%,0%);fill-opacity:1;" d="M 51.644531 11.558594 C 51.269531 11.558594 50.972656 11.699219 50.753906 11.980469 C 50.535156 12.253906 50.425781 12.628906 50.425781 13.105469 C 50.425781 13.585938 50.535156 13.964844 50.753906 14.246094 C 50.972656 14.519531 51.269531 14.652344 51.644531 14.652344 C 52.019531 14.652344 52.316406 14.519531 52.535156 14.246094 C 52.753906 13.964844 52.863281 13.585938 52.863281 13.105469 C 52.863281 12.628906 52.753906 12.253906 52.535156 11.980469 C 52.316406 11.699219 52.019531 11.558594 51.644531 11.558594 Z M 51.644531 11.136719 C 52.175781 11.136719 52.597656 11.316406 52.910156 11.667969 C 53.230469 12.023438 53.394531 12.503906 53.394531 13.105469 C 53.394531 13.699219 53.230469 14.179688 52.910156 14.542969 C 52.597656 14.898438 52.175781 15.074219 51.644531 15.074219 C 51.113281 15.074219 50.683594 14.898438 50.363281 14.542969 C 50.050781 14.179688 49.894531 13.699219 49.894531 13.105469 C 49.894531 12.503906 50.050781 12.023438 50.363281 11.667969 C 50.683594 11.316406 51.113281 11.136719 51.644531 11.136719 Z M 51.644531 11.136719 "/>
<path style=" stroke:none;fill-rule:nonzero;fill:rgb(0%,0%,0%);fill-opacity:1;" d="M 52.253906 5.863281 L 52.253906 7.582031 L 53.972656 7.582031 L 53.972656 8.097656 L 52.253906 8.097656 L 52.253906 9.816406 L 51.738281 9.816406 L 51.738281 8.097656 L 50.035156 8.097656 L 50.035156 7.582031 L 51.738281 7.582031 L 51.738281 5.863281 Z M 52.253906 5.863281 "/>
<path style=" stroke:none;fill-rule:nonzero;fill:rgb(0%,0%,0%);fill-opacity:1;" d="M 46.3125 59.210938 L 46.3125 63.742188 L 47.265625 63.742188 C 48.066406 63.742188 48.65625 63.5625 49.03125 63.195312 C 49.40625 62.832031 49.59375 62.257812 49.59375 61.476562 C 49.59375 60.695312 49.40625 60.125 49.03125 59.757812 C 48.65625 59.394531 48.066406 59.210938 47.265625 59.210938 Z M 45.515625 58.570312 L 47.140625 58.570312 C 48.273438 58.570312 49.101562 58.804688 49.625 59.273438 C 50.15625 59.742188 50.421875 60.476562 50.421875 61.476562 C 50.421875 62.476562 50.15625 63.21875 49.625 63.695312 C 49.09375 64.164062 48.265625 64.398438 47.140625 64.398438 L 45.515625 64.398438 Z M 45.515625 58.570312 "/>
<path style=" stroke:none;fill-rule:nonzero;fill:rgb(0%,0%,0%);fill-opacity:1;" d="M 52.933594 62.558594 C 52.558594 62.558594 52.261719 62.699219 52.042969 62.980469 C 51.824219 63.253906 51.714844 63.628906 51.714844 64.105469 C 51.714844 64.585938 51.824219 64.964844 52.042969 65.246094 C 52.261719 65.519531 52.558594 65.652344 52.933594 65.652344 C 53.308594 65.652344 53.605469 65.519531 53.824219 65.246094 C 54.042969 64.964844 54.152344 64.585938 54.152344 64.105469 C 54.152344 63.628906 54.042969 63.253906 53.824219 62.980469 C 53.605469 62.699219 53.308594 62.558594 52.933594 62.558594 Z M 52.933594 62.136719 C 53.464844 62.136719 53.886719 62.316406 54.199219 62.667969 C 54.519531 63.023438 54.683594 63.503906 54.683594 64.105469 C 54.683594 64.699219 54.519531 65.179688 54.199219 65.542969 C 53.886719 65.898438 53.464844 66.074219 52.933594 66.074219 C 52.402344 66.074219 51.972656 65.898438 51.652344 65.542969 C 51.339844 65.179688 51.183594 64.699219 51.183594 64.105469 C 51.183594 63.503906 51.339844 63.023438 51.652344 62.667969 C 51.972656 62.316406 52.402344 62.136719 52.933594 62.136719 Z M 52.933594 62.136719 "/>
<path style=" stroke:none;fill-rule:nonzero;fill:rgb(0%,0%,0%);fill-opacity:1;" d="M 52.40625 58.476562 L 54.625 58.476562 L 54.625 59.148438 L 52.40625 59.148438 Z M 52.40625 58.476562 "/>
<path style="fill-rule:nonzero;fill:rgb(100%,100%,100%);fill-opacity:1;stroke-width:0.685868;stroke-linecap:butt;stroke-linejoin:miter;stroke:rgb(0%,0%,0%);stroke-opacity:1;stroke-miterlimit:4;" d="M -19.363121 48.431546 C -19.363525 53.67754 -23.614002 57.932029 -28.859995 57.93164 C -34.105988 57.931252 -38.359512 53.677128 -38.359108 48.431134 C -38.358703 43.18514 -34.109177 38.93431 -28.862233 38.931039 C -23.616241 38.931428 -19.362717 43.185552 -19.363121 48.431546 Z M -19.363121 48.431546 " transform="matrix(-1,-0.259945,-0.259948,0.999999,0,0)"/>
<path style=" stroke:none;fill-rule:nonzero;fill:rgb(100%,100%,100%);fill-opacity:1;" d="M 19.21875 62.929688 L 22.425781 64.609375 L 25.636719 66.285156 L 25.332031 59.050781 L 22.277344 60.988281 Z M 19.21875 62.929688 "/>
<g clip-path="url(#clip3)" clip-rule="nonzero">
<path style="fill:none;stroke-width:0.628023;stroke-linecap:round;stroke-linejoin:miter;stroke:rgb(0%,0%,0%);stroke-opacity:1;stroke-miterlimit:4;" d="M -40.930962 41.532295 L -44.139279 41.534754 L -47.34906 41.532542 L -44.139525 35.975993 L -42.535975 38.751808 Z M -40.930962 41.532295 " transform="matrix(-1,-0.522775,-0.522779,0.999993,0,0)"/>
</g>
<path style="fill-rule:nonzero;fill:rgb(100%,100%,100%);fill-opacity:1;stroke-width:0.628023;stroke-linecap:butt;stroke-linejoin:miter;stroke:rgb(0%,0%,0%);stroke-opacity:1;stroke-miterlimit:4;" d="M -42.926411 36.621902 C -42.926162 37.293912 -43.471712 37.836841 -44.140652 37.838698 C -44.812659 37.838952 -45.355583 37.293403 -45.355832 36.621392 C -45.357686 35.95245 -44.813599 35.40485 -44.143196 35.407664 C -43.471188 35.40741 -42.926661 35.949892 -42.926411 36.621902 Z M -42.926411 36.621902 " transform="matrix(-1,-0.522775,-0.522779,0.999993,0,0)"/>
<path style="fill-rule:nonzero;fill:rgb(100%,100%,100%);fill-opacity:1;stroke-width:0.547871;stroke-linecap:round;stroke-linejoin:miter;stroke:rgb(0%,0%,0%);stroke-opacity:1;stroke-miterlimit:4;" d="M 13.183305 44.231246 L 7.582685 44.232395 L 8.982858 41.806295 L 10.382611 39.384445 L 11.780833 41.807636 Z M 13.183305 44.231246 " transform="matrix(-1,0.820427,0.820433,0.999993,0,0)"/>
<path style="fill-rule:nonzero;fill:rgb(100%,100%,100%);fill-opacity:1;stroke-width:0.547871;stroke-linecap:butt;stroke-linejoin:miter;stroke:rgb(0%,0%,0%);stroke-opacity:1;stroke-miterlimit:4;" d="M 11.442811 39.948226 C 11.442965 40.534041 10.964882 41.008308 10.381402 41.006542 C 9.797502 41.009027 9.320898 40.532855 9.320744 39.947039 C 9.320591 39.361224 9.796339 38.888872 10.382154 38.888723 C 10.967969 38.888573 11.442658 39.36241 11.442811 39.948226 Z M 11.442811 39.948226 " transform="matrix(-1,0.820427,0.820433,0.999993,0,0)"/>
<path style="fill-rule:nonzero;fill:rgb(100%,100%,100%);fill-opacity:1;stroke-width:0.652268;stroke-linecap:round;stroke-linejoin:miter;stroke:rgb(0%,0%,0%);stroke-opacity:1;stroke-miterlimit:4;" d="M 48.025938 -3.140292 L 44.690993 -3.1379 L 41.359358 -3.136914 L 43.027245 -6.025005 L 44.691822 -8.91169 Z M 48.025938 -3.140292 " transform="matrix(0.424731,0.999993,1,-0.424729,0,0)"/>
<path style="fill-rule:nonzero;fill:rgb(100%,100%,100%);fill-opacity:1;stroke-width:0.652268;stroke-linecap:butt;stroke-linejoin:miter;stroke:rgb(0%,0%,0%);stroke-opacity:1;stroke-miterlimit:4;" d="M 45.953461 -8.240516 C 45.953548 -7.541334 45.388495 -6.97712 44.68931 -6.977029 C 43.99484 -6.975035 43.429219 -7.543392 43.427228 -8.237859 C 43.428546 -8.933731 43.992193 -9.501255 44.691379 -9.501345 C 45.387254 -9.50003 45.954779 -8.936388 45.953461 -8.240516 Z M 45.953461 -8.240516 " transform="matrix(0.424731,0.999993,1,-0.424729,0,0)"/>
<path style="fill-rule:nonzero;fill:rgb(100%,100%,100%);fill-opacity:1;stroke-width:0.708409;stroke-linecap:round;stroke-linejoin:miter;stroke:rgb(0%,0%,0%);stroke-opacity:1;stroke-miterlimit:4;" d="M 12.096205 -52.844096 L 4.853986 -52.842914 L 8.475187 -59.113078 Z M 12.096205 -52.844096 " transform="matrix(1,0.0268053,0.0268056,-0.999993,0,0)"/>
<path style="fill-rule:nonzero;fill:rgb(100%,100%,100%);fill-opacity:1;stroke-width:0.708409;stroke-linecap:butt;stroke-linejoin:miter;stroke:rgb(0%,0%,0%);stroke-opacity:1;stroke-miterlimit:4;" d="M 9.842389 -58.385018 C 9.845511 -57.627117 9.231333 -57.010763 8.473541 -57.011545 C 7.71575 -57.012326 7.103304 -57.626403 7.104086 -58.3842 C 7.100965 -59.142102 7.715038 -59.754552 8.472829 -59.75377 C 9.230621 -59.752989 9.843067 -59.138911 9.842389 -58.385018 Z M 9.842389 -58.385018 " transform="matrix(1,0.0268053,0.0268056,-0.999993,0,0)"/>
<path style=" stroke:none;fill-rule:nonzero;fill:rgb(100%,100%,100%);fill-opacity:1;" d="M 10.984375 59.992188 L 9.542969 63.316406 L 8.097656 66.636719 L 11.695312 66.226562 L 15.292969 65.8125 L 13.140625 62.902344 Z M 10.984375 59.992188 "/>
<g clip-path="url(#clip4)" clip-rule="nonzero">
<path style="fill:none;stroke-width:0.650056;stroke-linecap:round;stroke-linejoin:miter;stroke:rgb(0%,0%,0%);stroke-opacity:1;stroke-miterlimit:4;" d="M -46.467599 -31.156146 L -49.791234 -31.157543 L -53.11301 -31.154226 L -51.453771 -34.0316 L -49.791245 -36.907547 L -48.128709 -34.03349 Z M -46.467599 -31.156146 " transform="matrix(0.434104,-0.999993,-1,-0.434101,0,0)"/>
</g>
<path style=" stroke:none;fill-rule:nonzero;fill:rgb(100%,100%,100%);fill-opacity:1;" d="M 15.167969 64.265625 C 14.476562 63.964844 13.667969 64.28125 13.367188 64.976562 C 13.0625 65.671875 13.382812 66.480469 14.078125 66.78125 C 14.773438 67.082031 15.578125 66.765625 15.882812 66.070312 C 16.183594 65.375 15.863281 64.566406 15.167969 64.265625 Z M 15.167969 64.265625 "/>
<g clip-path="url(#clip5)" clip-rule="nonzero">
<path style="fill:none;stroke-width:0.650056;stroke-linecap:butt;stroke-linejoin:miter;stroke:rgb(0%,0%,0%);stroke-opacity:1;stroke-miterlimit:4;" d="M -48.535301 -36.237337 C -48.534761 -35.545696 -49.096353 -34.980892 -49.791284 -34.981783 C -50.487641 -34.979387 -51.051025 -35.544266 -51.050137 -36.239194 C -51.04925 -36.934121 -50.489084 -37.495638 -49.792727 -37.498034 C -49.097796 -37.497143 -48.534413 -36.932264 -48.535301 -36.237337 Z M -48.535301 -36.237337 " transform="matrix(0.434104,-0.999993,-1,-0.434101,0,0)"/>
</g>
<path style="fill-rule:nonzero;fill:rgb(100%,100%,100%);fill-opacity:1;stroke-width:0.708692;stroke-linecap:butt;stroke-linejoin:miter;stroke:rgb(0%,0%,0%);stroke-opacity:1;stroke-miterlimit:4;" d="M 37.925099 56.183594 L 34.776393 58 L 31.623782 59.820312 L 31.623782 52.542969 L 34.776393 54.363281 Z M 37.925099 56.183594 " transform="matrix(0.999915,0,0,1,0,0)"/>
<path style="fill-rule:nonzero;fill:rgb(100%,100%,100%);fill-opacity:1;stroke-width:0.708692;stroke-linecap:butt;stroke-linejoin:miter;stroke:rgb(0%,0%,0%);stroke-opacity:1;stroke-miterlimit:4;" d="M 40.784717 56.183594 L 37.632105 58 L 34.4834 59.820312 L 34.4834 52.542969 L 37.632105 54.363281 Z M 40.784717 56.183594 " transform="matrix(0.999915,0,0,1,0,0)"/>
<path style="fill-rule:nonzero;fill:rgb(100%,100%,100%);fill-opacity:1;stroke-width:0.628676;stroke-linecap:butt;stroke-linejoin:miter;stroke:rgb(0%,0%,0%);stroke-opacity:1;stroke-miterlimit:4;" d="M 61.947548 -8.998076 C 61.949931 -8.421415 61.478685 -7.954667 60.900553 -7.954654 C 60.322421 -7.954641 59.852871 -8.422552 59.850488 -8.999213 C 59.852784 -9.577349 60.320963 -10.045697 60.899095 -10.04571 C 61.477227 -10.045722 61.949844 -9.576212 61.947548 -8.998076 Z M 61.947548 -8.998076 " transform="matrix(0.520242,1,-0.997915,0.524232,0,0)"/>
<path style=" stroke:none;fill-rule:nonzero;fill:rgb(0%,0%,0%);fill-opacity:1;" d="M 25.222656 56.242188 C 25.222656 56.679688 25.578125 57.035156 26.015625 57.035156 C 26.453125 57.035156 26.808594 56.679688 26.808594 56.242188 C 26.808594 55.800781 26.453125 55.445312 26.015625 55.445312 C 25.578125 55.445312 25.222656 55.800781 25.222656 56.242188 Z M 25.222656 56.242188 "/>
<path style="fill-rule:nonzero;fill:rgb(100%,100%,100%);fill-opacity:1;stroke-width:0.685868;stroke-linecap:butt;stroke-linejoin:miter;stroke:rgb(0%,0%,0%);stroke-opacity:1;stroke-miterlimit:4;" d="M -9.82973 11.757323 C -9.830134 17.003316 -14.07966 21.254146 -19.325653 21.253758 C -24.572597 21.257029 -28.826121 17.002905 -28.825717 11.756911 C -28.825312 6.510917 -24.574835 2.256428 -19.328842 2.256816 C -14.08285 2.257205 -9.828374 6.50767 -9.82973 11.757323 Z M -9.82973 11.757323 " transform="matrix(-1,-0.259945,-0.259948,0.999999,0,0)"/>
<path style="fill-rule:nonzero;fill:rgb(100%,100%,100%);fill-opacity:1;stroke-width:0.628023;stroke-linecap:round;stroke-linejoin:miter;stroke:rgb(0%,0%,0%);stroke-opacity:1;stroke-miterlimit:4;" d="M -24.856036 10.783305 L -28.062749 10.782697 L -31.274134 10.783553 L -29.667762 8.00221 L -28.062995 5.223936 L -26.461049 8.002819 Z M -24.856036 10.783305 " transform="matrix(-1,-0.522775,-0.522779,0.999993,0,0)"/>
<path style="fill-rule:nonzero;fill:rgb(100%,100%,100%);fill-opacity:1;stroke-width:0.628023;stroke-linecap:butt;stroke-linejoin:miter;stroke:rgb(0%,0%,0%);stroke-opacity:1;stroke-miterlimit:4;" d="M -26.851485 5.872912 C -26.849632 6.541855 -27.395182 7.084783 -28.064122 7.086641 C -28.73613 7.086894 -29.280657 6.544413 -29.280906 5.872403 C -29.281156 5.200393 -28.738673 4.65586 -28.066666 4.655606 C -27.394658 4.655353 -26.851735 5.200902 -26.851485 5.872912 Z M -26.851485 5.872912 " transform="matrix(-1,-0.522775,-0.522779,0.999993,0,0)"/>
<path style="fill-rule:nonzero;fill:rgb(100%,100%,100%);fill-opacity:1;stroke-width:0.547871;stroke-linecap:round;stroke-linejoin:miter;stroke:rgb(0%,0%,0%);stroke-opacity:1;stroke-miterlimit:4;" d="M -6.015731 20.830145 L -11.61635 20.831294 L -10.216178 18.405194 L -8.81834 15.98101 L -7.418203 18.406535 Z M -6.015731 20.830145 " transform="matrix(-1,0.820427,0.820433,0.999993,0,0)"/>
<path style="fill-rule:nonzero;fill:rgb(100%,100%,100%);fill-opacity:1;stroke-width:0.547871;stroke-linecap:butt;stroke-linejoin:miter;stroke:rgb(0%,0%,0%);stroke-opacity:1;stroke-miterlimit:4;" d="M -7.758139 16.54479 C -7.757986 17.130606 -8.231819 17.605292 -8.817633 17.605442 C -9.403448 17.605591 -9.878137 17.131754 -9.878291 16.545939 C -9.878445 15.960123 -9.404612 15.485437 -8.818797 15.485287 C -8.232982 15.485138 -7.758293 15.958975 -7.758139 16.54479 Z M -7.758139 16.54479 " transform="matrix(-1,0.820427,0.820433,0.999993,0,0)"/>
<path style="fill-rule:nonzero;fill:rgb(100%,100%,100%);fill-opacity:1;stroke-width:0.652268;stroke-linecap:round;stroke-linejoin:miter;stroke:rgb(0%,0%,0%);stroke-opacity:1;stroke-miterlimit:4;" d="M 14.853599 10.949029 L 8.190328 10.951001 L 9.854905 8.064316 L 11.522792 5.176225 L 13.186541 8.06333 Z M 14.853599 10.949029 " transform="matrix(0.424731,0.999993,1,-0.424729,0,0)"/>
<path style="fill-rule:nonzero;fill:rgb(100%,100%,100%);fill-opacity:1;stroke-width:0.652268;stroke-linecap:butt;stroke-linejoin:miter;stroke:rgb(0%,0%,0%);stroke-opacity:1;stroke-miterlimit:4;" d="M 12.781122 5.848805 C 12.781209 6.547987 12.216156 7.112201 11.52028 7.110886 C 10.822501 7.114286 10.25688 6.545929 10.258198 5.850057 C 10.259516 5.154184 10.823164 4.586661 11.519039 4.587976 C 12.218225 4.587885 12.78244 5.152933 12.781122 5.848805 Z M 12.781122 5.848805 " transform="matrix(0.424731,0.999993,1,-0.424729,0,0)"/>
<path style="fill-rule:nonzero;fill:rgb(100%,100%,100%);fill-opacity:1;stroke-width:0.708409;stroke-linecap:round;stroke-linejoin:miter;stroke:rgb(0%,0%,0%);stroke-opacity:1;stroke-miterlimit:4;" d="M 11.047345 -13.715687 L 7.42634 -13.719 L 3.80523 -13.718408 L 7.426431 -19.988572 L 9.23694 -16.854082 Z M 11.047345 -13.715687 " transform="matrix(1,0.0268053,0.0268056,-0.999993,0,0)"/>
<path style="fill-rule:nonzero;fill:rgb(100%,100%,100%);fill-opacity:1;stroke-width:0.708409;stroke-linecap:butt;stroke-linejoin:miter;stroke:rgb(0%,0%,0%);stroke-opacity:1;stroke-miterlimit:4;" d="M 8.793529 -19.256609 C 8.79665 -18.498708 8.182577 -17.886258 7.424785 -17.887039 C 6.666889 -17.883917 6.054444 -18.497995 6.055226 -19.255791 C 6.052104 -20.013693 6.666177 -20.626143 7.424074 -20.629265 C 8.181865 -20.628483 8.794311 -20.014406 8.793529 -19.256609 Z M 8.793529 -19.256609 " transform="matrix(1,0.0268053,0.0268056,-0.999993,0,0)"/>
<path style="fill-rule:nonzero;fill:rgb(100%,100%,100%);fill-opacity:1;stroke-width:0.650056;stroke-linecap:round;stroke-linejoin:miter;stroke:rgb(0%,0%,0%);stroke-opacity:1;stroke-miterlimit:4;" d="M -13.523226 -16.854862 L -16.843575 -16.854832 L -20.168637 -16.852942 L -18.506111 -19.728889 L -16.846873 -22.606264 L -15.184336 -19.732206 Z M -13.523226 -16.854862 " transform="matrix(0.434104,-0.999993,-1,-0.434101,0,0)"/>
<path style="fill-rule:nonzero;fill:rgb(100%,100%,100%);fill-opacity:1;stroke-width:0.650056;stroke-linecap:butt;stroke-linejoin:miter;stroke:rgb(0%,0%,0%);stroke-opacity:1;stroke-miterlimit:4;" d="M -15.590928 -21.936053 C -15.587102 -21.242986 -16.151981 -20.679608 -16.846911 -20.680499 C -17.543269 -20.678103 -18.103365 -21.241556 -18.105764 -21.93791 C -18.104877 -22.632837 -17.541425 -23.192928 -16.845067 -23.195324 C -16.153424 -23.19586 -15.59004 -22.63098 -15.590928 -21.936053 Z M -15.590928 -21.936053 " transform="matrix(0.434104,-0.999993,-1,-0.434101,0,0)"/>
<path style="fill-rule:nonzero;fill:rgb(100%,100%,100%);fill-opacity:1;stroke-width:0.708692;stroke-linecap:butt;stroke-linejoin:miter;stroke:rgb(0%,0%,0%);stroke-opacity:1;stroke-miterlimit:4;" d="M 37.925099 17.027344 L 34.776393 18.847656 L 31.623782 20.664062 L 31.623782 13.390625 L 34.776393 15.207031 Z M 37.925099 17.027344 " transform="matrix(0.999915,0,0,1,0,0)"/>
<path style="fill-rule:nonzero;fill:rgb(100%,100%,100%);fill-opacity:1;stroke-width:0.708692;stroke-linecap:butt;stroke-linejoin:miter;stroke:rgb(0%,0%,0%);stroke-opacity:1;stroke-miterlimit:4;" d="M 40.784717 17.027344 L 37.632105 18.847656 L 34.4834 20.664062 L 34.4834 13.390625 L 37.632105 15.207031 Z M 40.784717 17.027344 " transform="matrix(0.999915,0,0,1,0,0)"/>
<path style="fill-rule:nonzero;fill:rgb(100%,100%,100%);fill-opacity:1;stroke-width:0.628676;stroke-linecap:butt;stroke-linejoin:miter;stroke:rgb(0%,0%,0%);stroke-opacity:1;stroke-miterlimit:4;" d="M 31.198765 -25.028308 C 31.19808 -24.453246 30.729901 -23.984898 30.148702 -23.986485 C 29.57057 -23.986472 29.10102 -24.454383 29.101705 -25.029445 C 29.100933 -25.60918 29.569112 -26.077528 30.150312 -26.075941 C 30.728443 -26.075954 31.197993 -25.608043 31.198765 -25.028308 Z M 31.198765 -25.028308 " transform="matrix(0.520242,1,-0.997915,0.524232,0,0)"/>
<path style=" stroke:none;fill-rule:nonzero;fill:rgb(0%,0%,0%);fill-opacity:1;" d="M 25.222656 17.085938 C 25.222656 17.527344 25.578125 17.882812 26.015625 17.882812 C 26.453125 17.882812 26.808594 17.527344 26.808594 17.085938 C 26.808594 16.648438 26.453125 16.292969 26.015625 16.292969 C 25.578125 16.292969 25.222656 16.648438 25.222656 17.085938 Z M 25.222656 17.085938 "/>
<path style=" stroke:none;fill-rule:nonzero;fill:rgb(100%,100%,100%);fill-opacity:1;" d="M 57.039062 47.867188 L 59.152344 47.867188 C 61.867188 51.527344 61.613281 55.035156 59.152344 58.429688 L 57.039062 58.429688 C 59.480469 55.007812 59.160156 51.472656 57.039062 47.867188 Z M 57.039062 47.867188 "/>
<path style="fill-rule:nonzero;fill:rgb(100%,100%,100%);fill-opacity:1;stroke-width:0.708661;stroke-linecap:butt;stroke-linejoin:miter;stroke:rgb(0%,0%,0%);stroke-opacity:1;stroke-miterlimit:4;" d="M 68.90625 53.171875 C 66.722656 48.996094 63.160156 47.972656 59.144531 47.964844 C 60.21875 49.414062 60.652344 51.539062 60.640625 53.230469 C 60.574219 55.074219 60.144531 56.964844 59.152344 58.429688 C 63.222656 58.429688 66.960938 57.304688 68.90625 53.171875 Z M 68.90625 53.171875 "/>
<path style="fill:none;stroke-width:0.710078;stroke-linecap:butt;stroke-linejoin:miter;stroke:rgb(0%,0%,0%);stroke-opacity:1;stroke-miterlimit:4;" d="M 57.027344 -58.718427 C 59.328125 -56.035859 59.324219 -50.890349 57.039062 -48.05875 " transform="matrix(1,0,0,-0.996014,0,0)"/>
<path style=" stroke:none;fill-rule:nonzero;fill:rgb(100%,100%,100%);fill-opacity:1;" d="M 98.769531 9.082031 L 100.882812 9.082031 C 103.597656 12.742188 103.339844 16.25 100.882812 19.644531 L 98.769531 19.644531 C 101.210938 16.222656 100.890625 12.6875 98.769531 9.082031 Z M 98.769531 9.082031 "/>
<path style="fill-rule:nonzero;fill:rgb(100%,100%,100%);fill-opacity:1;stroke-width:0.708661;stroke-linecap:butt;stroke-linejoin:miter;stroke:rgb(0%,0%,0%);stroke-opacity:1;stroke-miterlimit:4;" d="M 110.632812 14.386719 C 108.449219 10.214844 104.890625 9.1875 100.875 9.179688 C 101.949219 10.628906 102.382812 12.753906 102.367188 14.445312 C 102.304688 16.289062 101.875 18.179688 100.882812 19.644531 C 104.953125 19.644531 108.691406 18.519531 110.632812 14.386719 Z M 110.632812 14.386719 "/>
<path style="fill:none;stroke-width:0.710078;stroke-linecap:butt;stroke-linejoin:miter;stroke:rgb(0%,0%,0%);stroke-opacity:1;stroke-miterlimit:4;" d="M 98.757812 -19.778054 C 101.054688 -17.095486 101.054688 -11.949976 98.769531 -9.118377 " transform="matrix(1,0,0,-0.996014,0,0)"/>
<path style="fill-rule:nonzero;fill:rgb(100%,100%,100%);fill-opacity:1;stroke-width:0.628676;stroke-linecap:butt;stroke-linejoin:miter;stroke:rgb(0%,0%,0%);stroke-opacity:1;stroke-miterlimit:4;" d="M 69.401638 -75.861117 C 69.40241 -75.281382 68.931163 -74.814634 68.353031 -74.814621 C 67.774899 -74.814608 67.305349 -75.282519 67.302966 -75.85918 C 67.305262 -76.437316 67.773441 -76.905664 68.351573 -76.905677 C 68.932773 -76.90409 69.402322 -76.436179 69.401638 -75.861117 Z M 69.401638 -75.861117 " transform="matrix(0.520242,1,-0.997915,0.524232,0,0)"/>
<path style=" stroke:none;fill-rule:nonzero;fill:rgb(0%,0%,0%);fill-opacity:1;" d="M 11.886719 13.480469 L 12.746094 13.480469 L 14.183594 15.636719 L 15.652344 13.480469 L 16.496094 13.480469 L 14.621094 16.277344 L 16.621094 19.308594 L 15.777344 19.308594 L 14.136719 16.824219 L 12.480469 19.308594 L 11.621094 19.308594 L 13.714844 16.199219 Z M 11.886719 13.480469 "/>
<path style=" stroke:none;fill-rule:nonzero;fill:rgb(0%,0%,0%);fill-opacity:1;" d="M 18.976562 18.859375 C 19.226562 18.914062 19.417969 19.023438 19.554688 19.1875 C 19.6875 19.355469 19.757812 19.558594 19.757812 19.796875 C 19.757812 20.171875 19.625 20.464844 19.367188 20.671875 C 19.117188 20.882812 18.75 20.984375 18.273438 20.984375 C 18.117188 20.984375 17.953125 20.96875 17.789062 20.9375 C 17.621094 20.90625 17.445312 20.859375 17.257812 20.796875 L 17.257812 20.296875 C 17.402344 20.382812 17.558594 20.445312 17.726562 20.484375 C 17.902344 20.527344 18.078125 20.546875 18.257812 20.546875 C 18.578125 20.546875 18.824219 20.484375 18.992188 20.359375 C 19.167969 20.234375 19.257812 20.046875 19.257812 19.796875 C 19.257812 19.578125 19.171875 19.40625 19.007812 19.28125 C 18.851562 19.15625 18.636719 19.09375 18.367188 19.09375 L 17.914062 19.09375 L 17.914062 18.671875 L 18.382812 18.671875 C 18.632812 18.671875 18.824219 18.621094 18.960938 18.515625 C 19.09375 18.414062 19.164062 18.265625 19.164062 18.078125 C 19.164062 17.882812 19.089844 17.730469 18.945312 17.625 C 18.808594 17.523438 18.617188 17.46875 18.367188 17.46875 C 18.21875 17.46875 18.0625 17.484375 17.898438 17.515625 C 17.742188 17.546875 17.570312 17.601562 17.382812 17.671875 L 17.382812 17.203125 C 17.570312 17.152344 17.746094 17.117188 17.914062 17.09375 C 18.089844 17.0625 18.257812 17.046875 18.414062 17.046875 C 18.796875 17.046875 19.105469 17.136719 19.335938 17.3125 C 19.5625 17.492188 19.679688 17.730469 19.679688 18.03125 C 19.679688 18.242188 19.617188 18.417969 19.492188 18.5625 C 19.367188 18.710938 19.195312 18.808594 18.976562 18.859375 Z M 18.976562 18.859375 "/>
<path style=" stroke:none;fill-rule:nonzero;fill:rgb(0%,0%,0%);fill-opacity:1;" d="M 19.542969 12.429688 L 19.542969 14.148438 L 21.261719 14.148438 L 21.261719 14.664062 L 19.542969 14.664062 L 19.542969 16.382812 L 19.027344 16.382812 L 19.027344 14.664062 L 17.324219 14.664062 L 17.324219 14.148438 L 19.027344 14.148438 L 19.027344 12.429688 Z M 19.542969 12.429688 "/>
<path style=" stroke:none;fill-rule:nonzero;fill:rgb(0%,0%,0%);fill-opacity:1;" d="M 12.519531 52.386719 L 13.378906 52.386719 L 14.816406 54.542969 L 16.285156 52.386719 L 17.128906 52.386719 L 15.253906 55.183594 L 17.253906 58.214844 L 16.410156 58.214844 L 14.769531 55.730469 L 13.113281 58.214844 L 12.253906 58.214844 L 14.347656 55.105469 Z M 12.519531 52.386719 "/>
<path style=" stroke:none;fill-rule:nonzero;fill:rgb(0%,0%,0%);fill-opacity:1;" d="M 19.613281 57.769531 C 19.863281 57.824219 20.054688 57.933594 20.191406 58.097656 C 20.324219 58.265625 20.394531 58.46875 20.394531 58.707031 C 20.394531 59.082031 20.261719 59.375 20.003906 59.582031 C 19.753906 59.792969 19.386719 59.894531 18.910156 59.894531 C 18.753906 59.894531 18.589844 59.878906 18.425781 59.847656 C 18.257812 59.816406 18.082031 59.769531 17.894531 59.707031 L 17.894531 59.207031 C 18.039062 59.292969 18.195312 59.355469 18.363281 59.394531 C 18.539062 59.4375 18.714844 59.457031 18.894531 59.457031 C 19.214844 59.457031 19.460938 59.394531 19.628906 59.269531 C 19.804688 59.144531 19.894531 58.957031 19.894531 58.707031 C 19.894531 58.488281 19.808594 58.316406 19.644531 58.191406 C 19.488281 58.066406 19.273438 58.003906 19.003906 58.003906 L 18.550781 58.003906 L 18.550781 57.582031 L 19.019531 57.582031 C 19.269531 57.582031 19.460938 57.53125 19.597656 57.425781 C 19.730469 57.324219 19.800781 57.175781 19.800781 56.988281 C 19.800781 56.792969 19.726562 56.640625 19.582031 56.535156 C 19.445312 56.433594 19.253906 56.378906 19.003906 56.378906 C 18.855469 56.378906 18.699219 56.394531 18.535156 56.425781 C 18.378906 56.457031 18.207031 56.511719 18.019531 56.582031 L 18.019531 56.113281 C 18.207031 56.0625 18.382812 56.027344 18.550781 56.003906 C 18.726562 55.972656 18.894531 55.957031 19.050781 55.957031 C 19.433594 55.957031 19.742188 56.046875 19.972656 56.222656 C 20.199219 56.402344 20.316406 56.640625 20.316406 56.941406 C 20.316406 57.152344 20.253906 57.328125 20.128906 57.472656 C 20.003906 57.621094 19.832031 57.71875 19.613281 57.769531 Z M 19.613281 57.769531 "/>
<path style=" stroke:none;fill-rule:nonzero;fill:rgb(0%,0%,0%);fill-opacity:1;" d="M 17.726562 53.980469 L 19.945312 53.980469 L 19.945312 54.652344 L 17.726562 54.652344 Z M 17.726562 53.980469 "/>
<path style=" stroke:none;fill-rule:nonzero;fill:rgb(0%,0%,0%);fill-opacity:1;" d="M 76.875 6.542969 C 76.300781 6.542969 75.84375 6.757812 75.5 7.183594 C 75.164062 7.613281 75 8.195312 75 8.933594 C 75 9.664062 75.164062 10.242188 75.5 10.667969 C 75.84375 11.097656 76.300781 11.308594 76.875 11.308594 C 77.445312 11.308594 77.898438 11.097656 78.234375 10.667969 C 78.566406 10.242188 78.734375 9.664062 78.734375 8.933594 C 78.734375 8.195312 78.566406 7.613281 78.234375 7.183594 C 77.898438 6.757812 77.445312 6.542969 76.875 6.542969 Z M 77.984375 11.730469 L 79.015625 12.871094 L 78.0625 12.871094 L 77.203125 11.933594 C 77.117188 11.941406 77.050781 11.949219 77 11.949219 C 76.957031 11.949219 76.914062 11.949219 76.875 11.949219 C 76.050781 11.949219 75.394531 11.679688 74.90625 11.136719 C 74.414062 10.585938 74.171875 9.851562 74.171875 8.933594 C 74.171875 8.007812 74.414062 7.273438 74.90625 6.730469 C 75.394531 6.179688 76.050781 5.902344 76.875 5.902344 C 77.6875 5.902344 78.335938 6.179688 78.828125 6.730469 C 79.316406 7.273438 79.5625 8.007812 79.5625 8.933594 C 79.5625 9.613281 79.425781 10.191406 79.15625 10.667969 C 78.882812 11.148438 78.492188 11.503906 77.984375 11.730469 Z M 77.984375 11.730469 "/>
<path style=" stroke:none;fill-rule:nonzero;fill:rgb(0%,0%,0%);fill-opacity:1;" d="M 80.46875 9.488281 L 81.546875 9.488281 L 81.546875 9.847656 L 80.9375 9.847656 L 80.9375 13.769531 L 81.546875 13.769531 L 81.546875 14.128906 L 80.46875 14.128906 Z M 80.46875 9.488281 "/>
<path style=" stroke:none;fill-rule:nonzero;fill:rgb(0%,0%,0%);fill-opacity:1;" d="M 82.609375 9.644531 L 84.625 9.644531 L 84.625 10.082031 L 83.078125 10.082031 L 83.078125 11.003906 C 83.148438 10.984375 83.222656 10.96875 83.296875 10.957031 C 83.367188 10.949219 83.445312 10.941406 83.53125 10.941406 C 83.945312 10.941406 84.28125 11.058594 84.53125 11.285156 C 84.78125 11.515625 84.90625 11.828125 84.90625 12.222656 C 84.90625 12.628906 84.773438 12.949219 84.515625 13.175781 C 84.265625 13.40625 83.910156 13.519531 83.453125 13.519531 C 83.285156 13.519531 83.117188 13.503906 82.953125 13.472656 C 82.796875 13.449219 82.628906 13.410156 82.453125 13.347656 L 82.453125 12.832031 C 82.597656 12.917969 82.753906 12.980469 82.921875 13.019531 C 83.085938 13.0625 83.257812 13.082031 83.4375 13.082031 C 83.726562 13.082031 83.957031 13.003906 84.125 12.847656 C 84.300781 12.691406 84.390625 12.484375 84.390625 12.222656 C 84.390625 11.964844 84.300781 11.753906 84.125 11.597656 C 83.957031 11.441406 83.726562 11.363281 83.4375 11.363281 C 83.300781 11.363281 83.164062 11.378906 83.03125 11.410156 C 82.894531 11.441406 82.753906 11.488281 82.609375 11.550781 Z M 82.609375 9.644531 "/>
<path style=" stroke:none;fill-rule:nonzero;fill:rgb(0%,0%,0%);fill-opacity:1;" d="M 86.933594 9.488281 L 86.933594 14.128906 L 85.855469 14.128906 L 85.855469 13.769531 L 86.464844 13.769531 L 86.464844 9.847656 L 85.855469 9.847656 L 85.855469 9.488281 Z M 86.933594 9.488281 "/>
</g>
</svg>
