<?xml version="1.0" encoding="UTF-8" standalone="no"?>
<!-- Created with Inkscape (http://www.inkscape.org/) -->

<svg
   version="1.1"
   id="svg2"
   width="268.98837"
   height="102.10955"
   viewBox="0 0 268.98837 102.10955"
   sodipodi:docname="spike_analoga.pdf"
   xmlns:inkscape="http://www.inkscape.org/namespaces/inkscape"
   xmlns:sodipodi="http://sodipodi.sourceforge.net/DTD/sodipodi-0.dtd"
   xmlns="http://www.w3.org/2000/svg"
   xmlns:svg="http://www.w3.org/2000/svg">
  <defs
     id="defs6" />
  <sodipodi:namedview
     id="namedview4"
     pagecolor="#ffffff"
     bordercolor="#000000"
     borderopacity="0.25"
     inkscape:showpageshadow="2"
     inkscape:pageopacity="0.0"
     inkscape:pagecheckerboard="0"
     inkscape:deskcolor="#d1d1d1" />
  <g
     id="g8"
     inkscape:groupmode="layer"
     inkscape:label="spike_analoga"
     transform="matrix(1.3333333,0,0,-1.3333333,0,102.10955)">
    <g
       id="g10">
      <g
         id="g12"
         transform="matrix(1,0,0,-1,0,76.582161)">
        <path
           d="M 19.039,0.125 H 198.312 V 62.664 H 19.039 Z"
           style="fill:none;stroke:#ffffff;stroke-width:0.252499;stroke-linecap:butt;stroke-linejoin:round;stroke-miterlimit:10;stroke-dasharray:none;stroke-opacity:1"
           id="path14" />
      </g>
      <g
         id="g16"
         transform="matrix(1,0,0,-1,0,76.582161)">
        <path
           d="M 19.039,0.125 H 198.313"
           style="fill:none;stroke:#000000;stroke-width:0.252499;stroke-linecap:butt;stroke-linejoin:round;stroke-miterlimit:10;stroke-dasharray:none;stroke-opacity:1"
           id="path18" />
      </g>
      <g
         id="g20"
         transform="matrix(1,0,0,-1,0,76.582161)">
        <path
           d="M 19.039,62.664 H 198.313"
           style="fill:none;stroke:#000000;stroke-width:0.252499;stroke-linecap:butt;stroke-linejoin:round;stroke-miterlimit:10;stroke-dasharray:none;stroke-opacity:1"
           id="path22" />
      </g>
      <g
         id="g24"
         transform="matrix(1,0,0,-1,0,76.582161)">
        <path
           d="M 198.313,62.664 V 0.125"
           style="fill:none;stroke:#000000;stroke-width:0.252499;stroke-linecap:butt;stroke-linejoin:round;stroke-miterlimit:10;stroke-dasharray:none;stroke-opacity:1"
           id="path26" />
      </g>
      <g
         id="g28"
         transform="matrix(1,0,0,-1,0,76.582161)">
        <path
           d="M 19.039,62.664 V 0.125"
           style="fill:none;stroke:#000000;stroke-width:0.252499;stroke-linecap:butt;stroke-linejoin:round;stroke-miterlimit:10;stroke-dasharray:none;stroke-opacity:1"
           id="path30" />
      </g>
      <g
         id="g32"
         transform="matrix(1,0,0,-1,0,76.582161)">
        <path
           d="M 19.039,62.664 H 198.313"
           style="fill:none;stroke:#000000;stroke-width:0.252499;stroke-linecap:butt;stroke-linejoin:round;stroke-miterlimit:10;stroke-dasharray:none;stroke-opacity:1"
           id="path34" />
      </g>
      <g
         id="g36"
         transform="matrix(1,0,0,-1,0,76.582161)">
        <path
           d="M 19.039,62.664 V 0.125"
           style="fill:none;stroke:#000000;stroke-width:0.252499;stroke-linecap:butt;stroke-linejoin:round;stroke-miterlimit:10;stroke-dasharray:none;stroke-opacity:1"
           id="path38" />
      </g>
      <g
         id="g40"
         transform="matrix(1,0,0,-1,0,76.582161)">
        <path
           d="M 19.039,62.664 V 60.793"
           style="fill:none;stroke:#000000;stroke-width:0.252499;stroke-linecap:butt;stroke-linejoin:round;stroke-miterlimit:10;stroke-dasharray:none;stroke-opacity:1"
           id="path42" />
      </g>
      <g
         id="g44"
         transform="matrix(1,0,0,-1,0,76.582161)">
        <path
           d="M 19.039,0.5 V 2"
           style="fill:none;stroke:#000000;stroke-width:0.252499;stroke-linecap:butt;stroke-linejoin:round;stroke-miterlimit:10;stroke-dasharray:none;stroke-opacity:1"
           id="path46" />
      </g>
      <text
         xml:space="preserve"
         transform="matrix(1,0,0,-0.97761588,15.593215,8.299624)"
         style="font-variant:normal;font-weight:normal;font-size:5.10746px;font-family:Arial;-inkscape-font-specification:ArialMT;writing-mode:lr-tb;fill:#000000;fill-opacity:1;fill-rule:nonzero;stroke:none"
         id="text50"><tspan
           x="0 2.8397477 4.2545142"
           y="0"
           sodipodi:role="line"
           id="tspan48">1.4</tspan></text>
      <g
         id="g52"
         transform="matrix(1,0,0,-1,0,76.582161)">
        <path
           d="M 54.664,62.664 V 60.793"
           style="fill:none;stroke:#000000;stroke-width:0.252499;stroke-linecap:butt;stroke-linejoin:round;stroke-miterlimit:10;stroke-dasharray:none;stroke-opacity:1"
           id="path54" />
      </g>
      <g
         id="g56"
         transform="matrix(1,0,0,-1,0,76.582161)">
        <path
           d="M 54.664,0.5 V 2"
           style="fill:none;stroke:#000000;stroke-width:0.252499;stroke-linecap:butt;stroke-linejoin:round;stroke-miterlimit:10;stroke-dasharray:none;stroke-opacity:1"
           id="path58" />
      </g>
      <text
         xml:space="preserve"
         transform="matrix(1,0,0,-0.97761588,51.217748,8.299624)"
         style="font-variant:normal;font-weight:normal;font-size:5.10746px;font-family:Arial;-inkscape-font-specification:ArialMT;writing-mode:lr-tb;fill:#000000;fill-opacity:1;fill-rule:nonzero;stroke:none"
         id="text62"><tspan
           x="0 2.8397477 4.2545142"
           y="0"
           sodipodi:role="line"
           id="tspan60">1.5</tspan></text>
      <g
         id="g64"
         transform="matrix(1,0,0,-1,0,76.582161)">
        <path
           d="M 90.672,62.664 V 60.793"
           style="fill:none;stroke:#000000;stroke-width:0.252499;stroke-linecap:butt;stroke-linejoin:round;stroke-miterlimit:10;stroke-dasharray:none;stroke-opacity:1"
           id="path66" />
      </g>
      <g
         id="g68"
         transform="matrix(1,0,0,-1,0,76.582161)">
        <path
           d="M 90.672,0.5 V 2"
           style="fill:none;stroke:#000000;stroke-width:0.252499;stroke-linecap:butt;stroke-linejoin:round;stroke-miterlimit:10;stroke-dasharray:none;stroke-opacity:1"
           id="path70" />
      </g>
      <text
         xml:space="preserve"
         transform="matrix(1,0,0,-0.97761588,87.22535,8.299624)"
         style="font-variant:normal;font-weight:normal;font-size:5.10746px;font-family:Arial;-inkscape-font-specification:ArialMT;writing-mode:lr-tb;fill:#000000;fill-opacity:1;fill-rule:nonzero;stroke:none"
         id="text74"><tspan
           x="0 2.8397477 4.2545142"
           y="0"
           sodipodi:role="line"
           id="tspan72">1.6</tspan></text>
      <g
         id="g76"
         transform="matrix(1,0,0,-1,0,76.582161)">
        <path
           d="M 126.297,62.664 V 60.793"
           style="fill:none;stroke:#000000;stroke-width:0.252499;stroke-linecap:butt;stroke-linejoin:round;stroke-miterlimit:10;stroke-dasharray:none;stroke-opacity:1"
           id="path78" />
      </g>
      <g
         id="g80"
         transform="matrix(1,0,0,-1,0,76.582161)">
        <path
           d="M 126.297,0.5 V 2"
           style="fill:none;stroke:#000000;stroke-width:0.252499;stroke-linecap:butt;stroke-linejoin:round;stroke-miterlimit:10;stroke-dasharray:none;stroke-opacity:1"
           id="path82" />
      </g>
      <text
         xml:space="preserve"
         transform="matrix(1,0,0,-0.97761588,122.85038,8.299624)"
         style="font-variant:normal;font-weight:normal;font-size:5.10746px;font-family:Arial;-inkscape-font-specification:ArialMT;writing-mode:lr-tb;fill:#000000;fill-opacity:1;fill-rule:nonzero;stroke:none"
         id="text86"><tspan
           x="0 2.8397477 4.2545142"
           y="0"
           sodipodi:role="line"
           id="tspan84">1.7</tspan></text>
      <g
         id="g88"
         transform="matrix(1,0,0,-1,0,76.582161)">
        <path
           d="M 162.305,62.664 V 60.793"
           style="fill:none;stroke:#000000;stroke-width:0.252499;stroke-linecap:butt;stroke-linejoin:round;stroke-miterlimit:10;stroke-dasharray:none;stroke-opacity:1"
           id="path90" />
      </g>
      <g
         id="g92"
         transform="matrix(1,0,0,-1,0,76.582161)">
        <path
           d="M 162.305,0.5 V 2"
           style="fill:none;stroke:#000000;stroke-width:0.252499;stroke-linecap:butt;stroke-linejoin:round;stroke-miterlimit:10;stroke-dasharray:none;stroke-opacity:1"
           id="path94" />
      </g>
      <text
         xml:space="preserve"
         transform="matrix(1,0,0,-0.97761588,158.85798,8.299624)"
         style="font-variant:normal;font-weight:normal;font-size:5.10746px;font-family:Arial;-inkscape-font-specification:ArialMT;writing-mode:lr-tb;fill:#000000;fill-opacity:1;fill-rule:nonzero;stroke:none"
         id="text98"><tspan
           x="0 2.8397477 4.2545142"
           y="0"
           sodipodi:role="line"
           id="tspan96">1.8</tspan></text>
      <g
         id="g100"
         transform="matrix(1,0,0,-1,0,76.582161)">
        <path
           d="M 198.313,62.664 V 60.793"
           style="fill:none;stroke:#000000;stroke-width:0.252499;stroke-linecap:butt;stroke-linejoin:round;stroke-miterlimit:10;stroke-dasharray:none;stroke-opacity:1"
           id="path102" />
      </g>
      <g
         id="g104"
         transform="matrix(1,0,0,-1,0,76.582161)">
        <path
           d="M 198.313,0.5 V 2"
           style="fill:none;stroke:#000000;stroke-width:0.252499;stroke-linecap:butt;stroke-linejoin:round;stroke-miterlimit:10;stroke-dasharray:none;stroke-opacity:1"
           id="path106" />
      </g>
      <text
         xml:space="preserve"
         transform="matrix(1,0,0,-0.97761588,194.86558,8.299624)"
         style="font-variant:normal;font-weight:normal;font-size:5.10746px;font-family:Arial;-inkscape-font-specification:ArialMT;writing-mode:lr-tb;fill:#000000;fill-opacity:1;fill-rule:nonzero;stroke:none"
         id="text112"><tspan
           x="0 2.8397477 4.2545142"
           y="0"
           sodipodi:role="line"
           id="tspan108">1.9</tspan><tspan
           x="-9.9597569 -7.4060264 -5.9912601 -3.1515121"
           y="8.427309"
           sodipodi:role="line"
           id="tspan110">x 10</tspan></text>
      <text
         xml:space="preserve"
         transform="matrix(1,0,0,-0.97761602,194.48251,3.056834)"
         style="font-variant:normal;font-weight:normal;font-size:3.40498px;font-family:Arial;-inkscape-font-specification:ArialMT;writing-mode:lr-tb;fill:#000000;fill-opacity:1;fill-rule:nonzero;stroke:none"
         id="text116"><tspan
           x="0"
           y="0"
           id="tspan114">−</tspan></text>
      <text
         xml:space="preserve"
         transform="matrix(1,0,0,-0.97761602,196.46761,3.056834)"
         style="font-variant:normal;font-weight:normal;font-size:3.40498px;font-family:Arial;-inkscape-font-specification:ArialMT;writing-mode:lr-tb;fill:#000000;fill-opacity:1;fill-rule:nonzero;stroke:none"
         id="text120"><tspan
           x="0"
           y="0"
           id="tspan118">3</tspan></text>
      <g
         id="g122"
         transform="matrix(1,0,0,-1,0,76.582161)">
        <path
           d="m 19.039,57.797 h 1.535"
           style="fill:none;stroke:#000000;stroke-width:0.252499;stroke-linecap:butt;stroke-linejoin:round;stroke-miterlimit:10;stroke-dasharray:none;stroke-opacity:1"
           id="path124" />
      </g>
      <g
         id="g126"
         transform="matrix(1,0,0,-1,0,76.582161)">
        <path
           d="m 198.313,57.797 h -1.915"
           style="fill:none;stroke:#000000;stroke-width:0.252499;stroke-linecap:butt;stroke-linejoin:round;stroke-miterlimit:10;stroke-dasharray:none;stroke-opacity:1"
           id="path128" />
      </g>
      <text
         xml:space="preserve"
         transform="matrix(1,0,0,-0.97761588,11.762621,17.287267)"
         style="font-variant:normal;font-weight:normal;font-size:5.10746px;font-family:Arial;-inkscape-font-specification:ArialMT;writing-mode:lr-tb;fill:#000000;fill-opacity:1;fill-rule:nonzero;stroke:none"
         id="text132"><tspan
           x="0"
           y="0"
           id="tspan130">−</tspan></text>
      <text
         xml:space="preserve"
         transform="matrix(1,0,0,-0.97761588,14.74027,17.287267)"
         style="font-variant:normal;font-weight:normal;font-size:5.10746px;font-family:Arial;-inkscape-font-specification:ArialMT;writing-mode:lr-tb;fill:#000000;fill-opacity:1;fill-rule:nonzero;stroke:none"
         id="text136"><tspan
           x="0"
           y="0"
           id="tspan134">1</tspan></text>
      <g
         id="g138"
         transform="matrix(1,0,0,-1,0,76.582161)">
        <path
           d="m 19.039,42.07 h 1.535"
           style="fill:none;stroke:#000000;stroke-width:0.252499;stroke-linecap:butt;stroke-linejoin:round;stroke-miterlimit:10;stroke-dasharray:none;stroke-opacity:1"
           id="path140" />
      </g>
      <g
         id="g142"
         transform="matrix(1,0,0,-1,0,76.582161)">
        <path
           d="m 198.313,42.07 h -1.915"
           style="fill:none;stroke:#000000;stroke-width:0.252499;stroke-linecap:butt;stroke-linejoin:round;stroke-miterlimit:10;stroke-dasharray:none;stroke-opacity:1"
           id="path144" />
      </g>
      <text
         xml:space="preserve"
         transform="matrix(1,0,0,-0.97761588,7.548966,33.015639)"
         style="font-variant:normal;font-weight:normal;font-size:5.10746px;font-family:Arial;-inkscape-font-specification:ArialMT;writing-mode:lr-tb;fill:#000000;fill-opacity:1;fill-rule:nonzero;stroke:none"
         id="text148"><tspan
           x="0"
           y="0"
           id="tspan146">−</tspan></text>
      <text
         xml:space="preserve"
         transform="matrix(1,0,0,-0.97761588,10.526615,33.015639)"
         style="font-variant:normal;font-weight:normal;font-size:5.10746px;font-family:Arial;-inkscape-font-specification:ArialMT;writing-mode:lr-tb;fill:#000000;fill-opacity:1;fill-rule:nonzero;stroke:none"
         id="text152"><tspan
           x="0 2.8397477 4.2545142"
           y="0"
           sodipodi:role="line"
           id="tspan150">0.5</tspan></text>
      <g
         id="g154"
         transform="matrix(1,0,0,-1,0,76.582161)">
        <path
           d="m 19.039,26.34 h 1.535"
           style="fill:none;stroke:#000000;stroke-width:0.252499;stroke-linecap:butt;stroke-linejoin:round;stroke-miterlimit:10;stroke-dasharray:none;stroke-opacity:1"
           id="path156" />
      </g>
      <g
         id="g158"
         transform="matrix(1,0,0,-1,0,76.582161)">
        <path
           d="m 198.313,26.34 h -1.915"
           style="fill:none;stroke:#000000;stroke-width:0.252499;stroke-linecap:butt;stroke-linejoin:round;stroke-miterlimit:10;stroke-dasharray:none;stroke-opacity:1"
           id="path160" />
      </g>
      <text
         xml:space="preserve"
         transform="matrix(1,0,0,-0.97761588,14.827097,48.744014)"
         style="font-variant:normal;font-weight:normal;font-size:5.10746px;font-family:Arial;-inkscape-font-specification:ArialMT;writing-mode:lr-tb;fill:#000000;fill-opacity:1;fill-rule:nonzero;stroke:none"
         id="text164"><tspan
           x="0"
           y="0"
           id="tspan162">0</tspan></text>
      <g
         id="g166"
         transform="matrix(1,0,0,-1,0,76.582161)">
        <path
           d="m 19.039,10.613 h 1.535"
           style="fill:none;stroke:#000000;stroke-width:0.252499;stroke-linecap:butt;stroke-linejoin:round;stroke-miterlimit:10;stroke-dasharray:none;stroke-opacity:1"
           id="path168" />
      </g>
      <g
         id="g170"
         transform="matrix(1,0,0,-1,0,76.582161)">
        <path
           d="m 198.313,10.613 h -1.915"
           style="fill:none;stroke:#000000;stroke-width:0.252499;stroke-linecap:butt;stroke-linejoin:round;stroke-miterlimit:10;stroke-dasharray:none;stroke-opacity:1"
           id="path172" />
      </g>
      <text
         xml:space="preserve"
         transform="matrix(1,0,0,-0.97761588,10.613442,64.472389)"
         style="font-variant:normal;font-weight:normal;font-size:5.10746px;font-family:Arial;-inkscape-font-specification:ArialMT;writing-mode:lr-tb;fill:#000000;fill-opacity:1;fill-rule:nonzero;stroke:none"
         id="text176"><tspan
           x="0 2.8397477 4.2545142"
           y="0"
           sodipodi:role="line"
           id="tspan174">0.5</tspan></text>
      <g
         id="g178"
         transform="matrix(1,0,0,-1,0,76.582161)">
        <path
           d="M 19.039,0.125 H 198.313"
           style="fill:none;stroke:#000000;stroke-width:0.252499;stroke-linecap:butt;stroke-linejoin:round;stroke-miterlimit:10;stroke-dasharray:none;stroke-opacity:1"
           id="path180" />
      </g>
      <g
         id="g182"
         transform="matrix(1,0,0,-1,0,76.582161)">
        <path
           d="M 19.039,62.664 H 198.313"
           style="fill:none;stroke:#000000;stroke-width:0.252499;stroke-linecap:butt;stroke-linejoin:round;stroke-miterlimit:10;stroke-dasharray:none;stroke-opacity:1"
           id="path184" />
      </g>
      <g
         id="g186"
         transform="matrix(1,0,0,-1,0,76.582161)">
        <path
           d="M 198.313,62.664 V 0.125"
           style="fill:none;stroke:#000000;stroke-width:0.252499;stroke-linecap:butt;stroke-linejoin:round;stroke-miterlimit:10;stroke-dasharray:none;stroke-opacity:1"
           id="path188" />
      </g>
      <g
         id="g190"
         transform="matrix(1,0,0,-1,0,76.582161)">
        <path
           d="M 19.039,62.664 V 0.125"
           style="fill:none;stroke:#000000;stroke-width:0.252499;stroke-linecap:butt;stroke-linejoin:round;stroke-miterlimit:10;stroke-dasharray:none;stroke-opacity:1"
           id="path192" />
      </g>
      <g
         id="g194"
         transform="matrix(1,0,0,-1,0,76.582161)">
        <path
           d="m 168.051,24.469 h 0.383 l 0.765,-0.75 h -0.383 1.149 l 0.769,0.75 v 0.375 h 1.149 v 0.371 l 0.383,0.375 v 0.375 l 0.382,0.375 v 0.75 l 0.766,0.75 v 0.371 l 0.383,0.375 h 1.148 -0.382 0.382 l 0.383,-0.375 0.766,-0.746 V 27.09 l 0.386,-0.375 v -0.75 l 0.383,-0.375 h 0.766 -0.383 0.383 l 1.914,1.875 0.766,0.746 h -0.383 1.148 -0.383 1.149 V 27.84 l 0.383,-0.375 h 0.386 l 0.766,0.746 h -0.383 l 0.383,-0.371 h 0.383 l 0.765,-0.75 h -0.382 0.382 l 0.383,0.375 0.766,-0.75 h -0.383 0.383 l 1.531,-1.5 v -0.746 l 0.383,-0.375 0.383,0.375 v -0.375 0.375 l 0.386,0.375 0.383,0.371 v 0.75 l 0.383,0.375 v 0.75 l 0.383,0.375 0.766,0.746 h -0.383 l 0.383,-0.371 h 0.765 l 1.149,-1.125 V 26.34 h 0.765 -0.383 0.383 l 1.149,-1.125 h 0.386 l 0.383,0.375 h 0.383 l 0.383,0.375 h 0.765 l 0.766,0.75 h 0.383 l 0.383,-0.375 h 0.765"
           style="fill:none;stroke:#0000ff;stroke-width:0.252499;stroke-linecap:butt;stroke-linejoin:round;stroke-miterlimit:10;stroke-dasharray:none;stroke-opacity:1"
           id="path196" />
      </g>
      <g
         id="g198"
         transform="matrix(1,0,0,-1,0,76.582161)">
        <path
           d="m 145.066,27.09 h 1.153 v 0.75 l 0.383,0.371 h 0.382 l 0.383,-0.371 0.383,-0.375 V 25.59 l 0.383,-0.746 v -3.371 l 0.383,-0.75 V 14.73 l 0.382,-1.121 V 9.113 l 0.383,-1.121 V 4.996 l 0.383,-0.375 v 1.496 l 0.383,0.75 v 7.113 l 0.383,1.875 v 10.11 l 0.383,2.246 v 12.734 l 0.382,1.496 v 6.743 l 0.383,1.125 v 2.246 l 0.387,-0.375 v -0.375 l 0.383,-0.375 v -2.996 l 0.382,-0.746 v -3.372 l 0.383,-0.375 V 40.57 l 0.383,-0.375 v -2.996 l 0.383,-0.375 v -2.621 l 0.383,-0.746 v -1.875 l 0.383,-0.375 v -1.871 l 0.382,-0.375 V 27.09 l 0.383,-0.375 V 25.59 l 0.383,-0.375 v -1.496 l 0.383,-0.375 v -1.496 l 0.383,-0.375 v -1.125 l 0.382,-0.375 v -0.746 l 0.383,-0.375 v -1.125 l 0.383,-0.375 v -0.747 l 0.387,-0.375 0.383,0.375 0.382,0.372 v 0.375 l 0.383,0.375 v 0.375 l 0.383,0.375 v 0.375 l 0.383,0.375 v 0.746 l 0.383,0.375 v 1.5 l 0.382,0.375 v 1.121 l 0.383,0.375 v 0.75 l 0.383,0.375 v 0.371 l 0.383,0.375 v 0.375 l 0.383,-0.375 h 1.148 v -0.375 0.375 l 0.383,0.375 h 0.769 V 25.59 l 0.383,0.375 h 0.766 v -0.75 l 0.383,-0.371 v -0.375 0.375 l 0.383,-0.375 h 0.765 l 0.383,-0.375 0.383,0.375"
           style="fill:none;stroke:#0000ff;stroke-width:0.252499;stroke-linecap:butt;stroke-linejoin:round;stroke-miterlimit:10;stroke-dasharray:none;stroke-opacity:1"
           id="path200" />
      </g>
      <g
         id="g202"
         transform="matrix(1,0,0,-1,0,76.582161)">
        <path
           d="m 114.422,24.469 v -0.75 l 0.383,-0.375 v -0.75 l 0.765,-0.746 v -0.375 0.375 l 0.387,0.375 h 0.383 l 0.383,-0.375 h 0.382 l 0.766,0.746 v 0.375 h 0.383 l 0.383,-0.375 0.383,0.375 h 0.382 l 0.766,0.75 v 0.375 h 0.383 l 0.765,-0.75 v -0.75 l 0.387,-0.371 0.383,0.371 0.766,-0.746 v -1.125 h 0.382 l 0.766,0.75 v 1.121 l 0.383,-0.371 0.383,-0.375 0.382,0.375 0.383,0.371 0.383,0.375 v 0.75 l 0.383,0.375 v 1.496 l 0.383,0.375 v 0.75 l 0.383,0.375 v 0.375 l 0.382,0.375 v 0.746 l 0.387,-0.375 0.766,-0.746 h -0.383 l 0.383,0.746 0.765,0.75 h -0.383 0.383 l 0.383,0.375 0.766,-0.75 h -0.383 0.383 l 0.765,-0.746 h -0.382 0.382 l 0.383,0.371 0.766,-0.746 v -0.75 l 0.383,-0.375 0.765,0.75 0.387,0.375 0.383,0.375 h 0.383 l 0.382,0.371 0.383,-0.371 1.149,-1.125 v -0.75 l 0.382,-0.375 v -0.746 l 0.383,-0.375 v -0.375 l 0.766,-0.75 h -0.383 0.766 l 1.148,1.125 0.77,0.746 v 0.75 l 0.382,0.375 v 0.375 l 0.766,0.75 h -0.383 1.914 l 0.383,0.375 v 0.371 l 0.383,-0.371 h 0.383 l 0.765,-0.75"
           style="fill:none;stroke:#0000ff;stroke-width:0.252499;stroke-linecap:butt;stroke-linejoin:round;stroke-miterlimit:10;stroke-dasharray:none;stroke-opacity:1"
           id="path204" />
      </g>
      <g
         id="g206"
         transform="matrix(1,0,0,-1,0,76.582161)">
        <path
           d="m 88.375,26.715 0.383,0.375 h 1.531 v -0.375 l 0.766,0.75 h -0.383 l 0.766,-0.75 0.769,0.75 h -0.387 1.535 l 0.383,-0.375 h 0.766 -0.383 0.383 l 0.383,-0.375 h 1.531 V 26.34 h 0.383 l 0.383,0.375 0.382,-0.375 h 0.77 v -0.375 l 0.383,0.375 v -0.375 0.375 l 0.383,-0.375 h 0.765 v 0.375 -0.375 l 0.383,0.375 0.383,-0.375 v -0.375 0.375 h 0.383 l 0.382,-0.375 h 0.383 l 0.383,0.375 v 0.375 l 0.383,0.375 h 0.383 l 0.765,0.75 h -0.382 l 0.382,-0.75 0.383,0.375 0.387,-0.375 h 0.383 l 0.765,0.75 h -0.383 l 1.532,-1.5 v -1.121 l 0.383,-0.375 v -2.621 l 0.382,-0.75 v -3.746 l 0.383,-1.122 v -5.246 l 0.383,-1.121 V 6.117 l 0.383,-0.375 v 1.5 l 0.383,0.75 v 7.488 l 0.382,1.872 v 10.113 l 0.387,2.246 V 39.82 l 0.383,1.875 v 7.114 l 0.383,1.125 v 2.621 l 0.383,-0.375 v -1.496 l 0.382,-0.375 v -2.996 l 0.383,-0.375 v -4.122 l 0.383,-0.746 v -4.121 l 0.383,-0.75 v -3.371 l 0.383,-0.371 v -2.621 l 0.382,-0.375 v -2.25 l 0.383,-0.371 v -1.875 l 0.383,-0.375 v -0.746 l 0.383,-0.375"
           style="fill:none;stroke:#0000ff;stroke-width:0.252499;stroke-linecap:butt;stroke-linejoin:round;stroke-miterlimit:10;stroke-dasharray:none;stroke-opacity:1"
           id="path208" />
      </g>
      <g
         id="g210"
         transform="matrix(1,0,0,-1,0,76.582161)">
        <path
           d="m 59.645,18.477 0.382,0.375 0.766,0.746 v 0.75 l 0.383,0.375 v 0.75 l 0.383,0.375 v 1.121 l 0.769,0.75 v 0.75 l 0.383,0.375 0.383,0.371 h 0.383 l 1.148,1.125 v 0.375 -0.375 l 0.383,-0.375 h 0.383 l 0.765,-0.75 h 0.383 l 0.383,-0.371 0.383,0.371 0.383,-0.371 0.386,-0.375 0.766,-0.75 v -0.375 l 0.383,-0.375 v -0.375 l 0.382,-0.371 0.383,0.371 0.383,0.375 v 0.75 l 0.383,0.375 v 0.75 l 0.383,0.371 v 0.375 l 0.383,0.375 v 0.375 l 0.382,0.375 v -0.375 0.375 h 0.383 l 0.766,-0.75 h -0.383 l 0.383,0.75 0.383,0.375 v 0.75 l 0.382,0.371 h 0.77 l 0.383,0.375 h 0.383 l 0.382,-0.375 0.383,-0.371 v -1.5 L 76.5,25.965 v -0.75 l 0.766,0.75 0.382,-0.375 0.383,0.375 v 0.75 h 0.383 l 0.383,0.375 v -0.375 0.375 l 0.766,0.75 v 0.371 -0.371 l 0.382,0.371 V 27.84 l 0.387,0.371 h 0.383 l 0.383,-0.371 0.765,-0.75 v -0.375 l 0.766,-0.75 V 25.59 l 0.766,-0.746 v -0.75 l 0.765,-0.75 0.383,0.375 v 0.375 l 0.766,0.75 h -0.383 0.383 l 0.765,0.746 v 1.125 l 0.387,0.375 0.766,0.75 h -0.383 0.383 l 1.148,-1.125"
           style="fill:none;stroke:#0000ff;stroke-width:0.252499;stroke-linecap:butt;stroke-linejoin:round;stroke-miterlimit:10;stroke-dasharray:none;stroke-opacity:1"
           id="path212" />
      </g>
      <g
         id="g214"
         transform="matrix(1,0,0,-1,0,76.582161)">
        <path
           d="m 35.895,25.59 v 0.375 l 1.148,1.125 v 0.375 l 0.383,0.375 h 0.769 v 0.371 l 0.383,0.375 h 0.383 l 0.383,0.375 0.765,-0.75 v -0.746 l 0.383,-0.375 v -1.125 l 0.383,-0.375 v -1.121 l 0.766,-0.75 h -0.383 l 0.765,0.75 h 0.383 l 0.383,-0.375 0.766,0.75 0.386,0.371 v 0.75 l 0.383,0.375 v 0.75 l 0.383,0.375 v 0.375 l 0.383,0.371 v 0.75 h 0.383 l 0.765,0.75 h -0.383 l 0.383,-0.375 h 0.766 v -0.375 l 0.383,-0.375 V 28.211 L 47.77,27.84 v -0.75 l 0.382,-0.375 V 25.59 l 0.383,-0.375 0.766,-0.746 h -0.383 0.383 l 0.383,-0.375 v -0.375 l 0.386,-0.375 v 0.375 l 0.766,-0.75 v -0.375 l 0.383,-0.371 v -1.875 l 0.383,-0.75 V 16.23 l 0.382,-1.125 v -4.867 l 0.383,-0.75 V 5.367 L 52.75,4.996 V 3.871 l 0.383,0.375 v 4.117 l 0.383,1.5 v 9.364 l 0.382,2.246 v 14.605 l 0.383,2.246 v 9.735 l 0.383,1.5 v 4.492 l 0.383,0.375 v 0.75 l 0.383,-0.375 v -2.246 l 0.386,-0.375 v -4.121 l 0.383,-1.121 v -5.243 l 0.383,-0.75 v -3.746 l 0.383,-0.746 v -3.371 l 0.383,-0.75 v -3.371 l 0.382,-0.75 v -2.996 l 0.383,-0.371 v -2.621 l 0.383,-0.375 v -1.5 l 0.383,-0.375 v -0.746 l 0.766,-0.75 h -0.383 0.383"
           style="fill:none;stroke:#0000ff;stroke-width:0.252499;stroke-linecap:butt;stroke-linejoin:round;stroke-miterlimit:10;stroke-dasharray:none;stroke-opacity:1"
           id="path216" />
      </g>
      <g
         id="g218"
         transform="matrix(1,0,0,-1,0,76.582161)">
        <path
           d="m 19.039,26.715 v -0.75 h 0.77 v 0.375 h 0.382 l 0.766,-0.75 v -0.375 h 0.766 l 0.382,0.375 h 0.766 l 0.383,0.375 0.766,-0.75 h 0.765 -0.383 0.383 l 0.383,-0.371 h 0.387 l 0.765,0.746 h -0.382 1.148 -0.383 0.383 l 0.766,-0.746 v -0.75 H 29 28.617 L 29,23.719 h 0.383 l 1.148,1.125 v 0.371 l 0.766,0.75 v 1.125 l 0.387,0.375 v 0.375 l 0.382,0.371 v 0.75 h 0.766 l 0.383,-0.375 h 0.765 v -0.375 l 0.766,-0.746 V 27.09 l 1.149,-1.125 V 25.59"
           style="fill:none;stroke:#0000ff;stroke-width:0.252499;stroke-linecap:butt;stroke-linejoin:round;stroke-miterlimit:10;stroke-dasharray:none;stroke-opacity:1"
           id="path220" />
      </g>
      <text
         xml:space="preserve"
         transform="matrix(1,0,0,-0.97761588,99.100186,2.307864)"
         style="font-variant:normal;font-weight:normal;font-size:5.10746px;font-family:Arial;-inkscape-font-specification:ArialMT;writing-mode:lr-tb;fill:#000000;fill-opacity:1;fill-rule:nonzero;stroke:none"
         id="text224"><tspan
           x="0 3.1155505 4.2494068 8.5039206 11.343669 12.758435 14.173202 16.726931"
           y="0"
           sodipodi:role="line"
           id="tspan222">Time [s]</tspan></text>
      <text
         xml:space="preserve"
         transform="matrix(0,0.97761588,1,0,3.718371,25.525941)"
         style="font-variant:normal;font-weight:normal;font-size:5.10746px;font-family:Arial;-inkscape-font-specification:ArialMT;writing-mode:lr-tb;fill:#000000;fill-opacity:1;fill-rule:nonzero;stroke:none"
         id="text228"><tspan
           x="0 3.1155505 4.2494068 5.3832626 6.7980294 9.6377773 11.338561 14.178308 17.018057 18.432823 21.834391 24.674139 25.807995 28.361725 31.201473 32.616241 34.031006 37.432575"
           y="0"
           sodipodi:role="line"
           id="tspan226">Filtered Spike [V]</tspan></text>
    </g>
  </g>
</svg>
