<?xml version="1.0" encoding="UTF-8" standalone="no"?>
<!-- Created with Inkscape (http://www.inkscape.org/) -->

<svg
   version="1.1"
   id="svg2"
   width="79.643669"
   height="33.563244"
   viewBox="0 0 79.643669 33.563244"
   sodipodi:docname="TD_ABST.pdf"
   xmlns:inkscape="http://www.inkscape.org/namespaces/inkscape"
   xmlns:sodipodi="http://sodipodi.sourceforge.net/DTD/sodipodi-0.dtd"
   xmlns="http://www.w3.org/2000/svg"
   xmlns:svg="http://www.w3.org/2000/svg">
  <defs
     id="defs6" />
  <sodipodi:namedview
     id="namedview4"
     pagecolor="#ffffff"
     bordercolor="#000000"
     borderopacity="0.25"
     inkscape:showpageshadow="2"
     inkscape:pageopacity="0.0"
     inkscape:pagecheckerboard="0"
     inkscape:deskcolor="#d1d1d1" />
  <g
     id="g8"
     inkscape:groupmode="layer"
     inkscape:label="TD_ABST"
     transform="matrix(1.3333333,0,0,-1.3333333,0,33.563243)">
    <g
       id="g10">
      <g
         id="g12"
         transform="matrix(-1,0,0,-0.10767,0,25.172432)">
        <path
           d="m -17.285,137.319 v 24.162"
           style="fill:none;stroke:#000000;stroke-width:0.555288;stroke-linecap:butt;stroke-linejoin:bevel;stroke-miterlimit:10;stroke-dasharray:none;stroke-opacity:1"
           id="path14" />
      </g>
      <g
         id="g16"
         transform="matrix(0,0.861518,-1,0,0,25.172432)">
        <path
           d="m -19.946,-45.074 v 28.062"
           style="fill:none;stroke:#000000;stroke-width:0.644546;stroke-linecap:butt;stroke-linejoin:bevel;stroke-miterlimit:10;stroke-dasharray:none;stroke-opacity:1"
           id="path18" />
      </g>
      <g
         id="g20"
         transform="matrix(-1,0,0,-0.486438,0,25.172432)">
        <path
           d="M -28.379,2.361 V 26.54"
           style="fill:none;stroke:#000000;stroke-width:0.555288;stroke-linecap:butt;stroke-linejoin:bevel;stroke-miterlimit:10;stroke-dasharray:none;stroke-opacity:1"
           id="path22" />
      </g>
      <g
         id="g24"
         transform="matrix(-0.992486,0,0,-1,0,25.172432)">
        <path
           d="m -23.926,17.602 c 0,2.714 -2.196,4.914 -4.904,4.914 -2.708,0 -4.9,-2.2 -4.9,-4.914 0,-2.715 2.192,-4.918 4.9,-4.918 2.708,0 4.904,2.203 4.904,4.918 z"
           style="fill:#ffffff;fill-opacity:1;fill-rule:nonzero;stroke:#000000;stroke-width:0.479238;stroke-linecap:butt;stroke-linejoin:miter;stroke-miterlimit:4;stroke-dasharray:none;stroke-opacity:1"
           id="path26" />
      </g>
      <g
         id="g28"
         transform="matrix(-0.992486,0,0,-1,0,25.172432)">
        <path
           d="m -26.728,20.949 -3.645,1.278 3.035,2.394 z"
           style="fill:#ffffff;fill-opacity:1;fill-rule:evenodd;stroke:#000000;stroke-width:0.602269;stroke-linecap:butt;stroke-linejoin:miter;stroke-miterlimit:10;stroke-dasharray:none;stroke-opacity:1"
           id="path30" />
      </g>
      <g
         id="g32"
         transform="matrix(-0.992486,0,0,-1,0,25.172432)">
        <path
           d="m -25.685,16.672 0.755,3.789 2.795,-2.668 z"
           style="fill:#ffffff;fill-opacity:1;fill-rule:evenodd;stroke:#000000;stroke-width:0.602269;stroke-linecap:butt;stroke-linejoin:miter;stroke-miterlimit:10;stroke-dasharray:none;stroke-opacity:1"
           id="path34" />
      </g>
      <g
         id="g36"
         transform="matrix(-0.992486,0,0,-1,0,25.172432)">
        <path
           d="m -28.72,13.832 3.763,0.867 -1.283,-3.64 z"
           style="fill:#ffffff;fill-opacity:1;fill-rule:evenodd;stroke:#000000;stroke-width:0.602269;stroke-linecap:butt;stroke-linejoin:miter;stroke-miterlimit:10;stroke-dasharray:none;stroke-opacity:1"
           id="path38" />
      </g>
      <g
         id="g40"
         transform="matrix(-0.992486,0,0,-1,0,25.172432)">
        <path
           d="m -32.049,16.395 1.755,-3.438 -3.845,0.356 z"
           style="fill:#ffffff;fill-opacity:1;fill-rule:evenodd;stroke:#000000;stroke-width:0.602269;stroke-linecap:butt;stroke-linejoin:miter;stroke-miterlimit:10;stroke-dasharray:none;stroke-opacity:1"
           id="path42" />
      </g>
      <g
         id="g44"
         transform="matrix(-0.992486,0,0,-1,0,25.172432)">
        <path
           d="m -35.47,20.848 1.74,-3.45 1.98,3.317 z"
           style="fill:#ffffff;fill-opacity:1;fill-rule:evenodd;stroke:#000000;stroke-width:0.602269;stroke-linecap:butt;stroke-linejoin:miter;stroke-miterlimit:10;stroke-dasharray:none;stroke-opacity:1"
           id="path46" />
      </g>
      <g
         id="g48"
         transform="matrix(-0.992486,0,0,-1,0,25.172432)">
        <path
           d="m -24.41,14.598 c 0,0.293 -0.236,0.527 -0.523,0.527 -0.292,0 -0.528,-0.234 -0.528,-0.527 0,-0.293 0.236,-0.528 0.528,-0.528 0.287,0 0.523,0.235 0.523,0.528 z"
           style="fill:#ffffff;fill-opacity:1;fill-rule:nonzero;stroke:#000000;stroke-width:0.479238;stroke-linecap:butt;stroke-linejoin:miter;stroke-miterlimit:4;stroke-dasharray:none;stroke-opacity:1"
           id="path50" />
      </g>
      <g
         id="g52"
         transform="matrix(-0.992486,0,0,-1,0,25.172432)">
        <path
           d="m -24.528,20.578 c 0,0.293 -0.236,0.527 -0.527,0.527 -0.292,0 -0.528,-0.234 -0.528,-0.527 0,-0.293 0.236,-0.527 0.528,-0.527 0.291,0 0.527,0.234 0.527,0.527 z"
           style="fill:#ffffff;fill-opacity:1;fill-rule:nonzero;stroke:#000000;stroke-width:0.479238;stroke-linecap:butt;stroke-linejoin:miter;stroke-miterlimit:4;stroke-dasharray:none;stroke-opacity:1"
           id="path54" />
      </g>
      <g
         id="g56"
         transform="matrix(-0.992486,0,0,-1,0,25.172432)">
        <path
           d="m -29.92,22.215 c 0,0.293 -0.236,0.527 -0.528,0.527 -0.291,0 -0.527,-0.234 -0.527,-0.527 0,-0.293 0.236,-0.527 0.527,-0.527 0.292,0 0.528,0.234 0.528,0.527 z"
           style="fill:#ffffff;fill-opacity:1;fill-rule:nonzero;stroke:#000000;stroke-width:0.479238;stroke-linecap:butt;stroke-linejoin:miter;stroke-miterlimit:4;stroke-dasharray:none;stroke-opacity:1"
           id="path58" />
      </g>
      <g
         id="g60"
         transform="matrix(-0.992486,0,0,-1,0,25.172432)">
        <path
           d="m -33.151,17.152 c 0,0.293 -0.237,0.528 -0.528,0.528 -0.291,0 -0.523,-0.235 -0.523,-0.528 0,-0.293 0.232,-0.527 0.523,-0.527 0.291,0 0.528,0.234 0.528,0.527 z"
           style="fill:#ffffff;fill-opacity:1;fill-rule:nonzero;stroke:#000000;stroke-width:0.479238;stroke-linecap:butt;stroke-linejoin:miter;stroke-miterlimit:4;stroke-dasharray:none;stroke-opacity:1"
           id="path62" />
      </g>
      <g
         id="g64"
         transform="matrix(-0.992486,0,0,-1,0,25.172432)">
        <path
           d="m -29.613,12.918 c 0,0.293 -0.236,0.527 -0.528,0.527 -0.291,0 -0.527,-0.234 -0.527,-0.527 0,-0.293 0.236,-0.527 0.527,-0.527 0.292,0 0.528,0.234 0.528,0.527 z"
           style="fill:#ffffff;fill-opacity:1;fill-rule:nonzero;stroke:#000000;stroke-width:0.479238;stroke-linecap:butt;stroke-linejoin:miter;stroke-miterlimit:4;stroke-dasharray:none;stroke-opacity:1"
           id="path66" />
      </g>
      <g
         id="g68"
         transform="matrix(0,1,-0.372883,0,0,25.172432)">
        <path
           d="m -14.555,-160.196 v 24.178"
           style="fill:none;stroke:#000000;stroke-width:0.596537;stroke-linecap:butt;stroke-linejoin:bevel;stroke-miterlimit:10;stroke-dasharray:none;stroke-opacity:1"
           id="path70" />
      </g>
      <g
         id="g72"
         transform="matrix(0,1,-0.372883,0,0,25.172432)">
        <path
           d="m -20.008,-160.049 v 24.167"
           style="fill:none;stroke:#000000;stroke-width:0.596537;stroke-linecap:butt;stroke-linejoin:bevel;stroke-miterlimit:10;stroke-dasharray:none;stroke-opacity:1"
           id="path74" />
      </g>
      <g
         id="g76"
         transform="matrix(1,0,0,-1,0,25.172432)">
        <path
           d="M 42.008,21.992 53.637,21.957 V 13.074 L 42.008,13.105 Z"
           style="fill:#ffffff;fill-opacity:1;fill-rule:evenodd;stroke:#000000;stroke-width:0.539698;stroke-linecap:butt;stroke-linejoin:miter;stroke-miterlimit:10;stroke-dasharray:none;stroke-opacity:1"
           id="path78" />
      </g>
      <path
         d="m 43.918,8.911 v -1.36 h 0.625 c 0.227,0 0.406,0.055 0.531,0.172 0.125,0.125 0.188,0.297 0.188,0.516 0,0.219 -0.063,0.383 -0.188,0.5 -0.125,0.113 -0.304,0.172 -0.531,0.172 z m -0.5,0.406 h 1.125 c 0.406,0 0.711,-0.094 0.922,-0.281 0.207,-0.18 0.312,-0.446 0.312,-0.797 0,-0.367 -0.105,-0.641 -0.312,-0.828 C 45.254,7.231 44.949,7.145 44.543,7.145 H 43.918 V 5.676 h -0.5 z"
         style="fill:#000000;fill-opacity:1;fill-rule:nonzero;stroke:none"
         id="path80" />
      <path
         d="m 46.469,9.317 h 2.093 V 8.911 H 46.969 V 7.833 h 1.437 V 7.411 H 46.969 V 5.676 h -0.5 z"
         style="fill:#000000;fill-opacity:1;fill-rule:nonzero;stroke:none"
         id="path82" />
      <path
         d="M 49.887,8.911 V 6.083 h 0.593 c 0.5,0 0.864,0.113 1.094,0.343 0.238,0.227 0.36,0.586 0.36,1.078 0,0.489 -0.122,0.844 -0.36,1.063 -0.23,0.227 -0.594,0.344 -1.094,0.344 z m -0.5,0.406 h 1.015 c 0.707,0 1.227,-0.148 1.563,-0.438 0.332,-0.293 0.5,-0.75 0.5,-1.375 0,-0.625 -0.168,-1.089 -0.5,-1.39 C 51.629,5.821 51.109,5.676 50.402,5.676 h -1.015 z"
         style="fill:#000000;fill-opacity:1;fill-rule:nonzero;stroke:none"
         id="path84" />
      <path
         d="m 35.641,9.239 1.093,2.859 h 0.407 l 1.171,-2.859 z m 0.515,0.344 h 1.594 l -0.609,1.625 c -0.094,0.25 -0.164,0.445 -0.203,0.593 -0.043,-0.179 -0.094,-0.359 -0.157,-0.547 z"
         style="fill:#0003ff;fill-opacity:1;fill-rule:nonzero;stroke:none"
         id="path86" />
      <path
         d="m 39.281,11.348 -0.062,-0.297 c -0.274,-0.093 -0.407,-0.328 -0.407,-0.703 0,-0.211 0.051,-0.39 0.157,-0.547 0.113,-0.156 0.273,-0.257 0.484,-0.297 v 1.282 c 0,0.133 0.008,0.238 0.031,0.312 0.02,0.082 0.063,0.145 0.125,0.188 0.071,0.05 0.164,0.078 0.282,0.078 0.187,0 0.336,-0.043 0.453,-0.125 0.125,-0.074 0.222,-0.195 0.297,-0.36 0.082,-0.156 0.125,-0.328 0.125,-0.515 0,-0.156 -0.032,-0.313 -0.094,-0.469 C 40.609,9.739 40.504,9.59 40.359,9.458 40.211,9.333 40.023,9.243 39.797,9.192 v -0.75 h -0.344 v 0.75 c -0.242,0 -0.469,0.102 -0.687,0.312 -0.211,0.219 -0.313,0.493 -0.313,0.829 0,0.3 0.082,0.546 0.25,0.734 0.164,0.195 0.359,0.289 0.578,0.281 z M 39.797,9.52 c 0.164,0.02 0.305,0.109 0.422,0.266 0.125,0.156 0.187,0.359 0.187,0.609 0,0.238 -0.047,0.41 -0.14,0.516 -0.086,0.101 -0.172,0.156 -0.266,0.156 -0.074,0 -0.125,-0.027 -0.156,-0.078 -0.032,-0.043 -0.047,-0.141 -0.047,-0.297 z"
         style="fill:#0003ff;fill-opacity:1;fill-rule:nonzero;stroke:none"
         id="path88" />
      <g
         id="g90"
         transform="matrix(1,0,0,-1,0,25.172432)">
        <path
           d="m 30.883,6.961 c 0,1.437 -1.16,2.601 -2.59,2.601 -1.434,0 -2.594,-1.164 -2.594,-2.601 0,-1.434 1.16,-2.598 2.594,-2.598 1.43,0 2.59,1.164 2.59,2.598 z"
           style="fill:#ffffff;fill-opacity:1;fill-rule:nonzero;stroke:#000000;stroke-width:0.457195;stroke-linecap:butt;stroke-linejoin:miter;stroke-miterlimit:4;stroke-dasharray:none;stroke-opacity:1"
           id="path92" />
      </g>
      <g
         id="g94"
         transform="rotate(-90,12.586216,12.586216)">
        <path
           d="M 7.812,28.324 7.715,28.379 7.617,28.438 V 28.211 L 7.715,28.27 Z"
           style="fill:#ffffff;fill-opacity:1;fill-rule:nonzero;stroke:#000000;stroke-width:0.835853;stroke-linecap:butt;stroke-linejoin:miter;stroke-miterlimit:4;stroke-dasharray:none;stroke-opacity:1"
           id="path96" />
      </g>
      <g
         id="g98"
         transform="matrix(1,0,0,-1,0,25.172432)">
        <path
           d="M 28.309,5.176 V 7.824"
           style="fill:none;stroke:#000000;stroke-width:0.417926;stroke-linecap:butt;stroke-linejoin:bevel;stroke-miterlimit:10;stroke-dasharray:none;stroke-opacity:1"
           id="path100" />
      </g>
      <path
         d="m 31.852,19.579 h 0.391 v -2.922 h -0.391 z"
         style="fill:#0000ff;fill-opacity:1;fill-rule:nonzero;stroke:none"
         id="path102" />
      <path
         d="m 34.199,16.598 c 0,0.196 -0.043,0.352 -0.125,0.469 -0.074,0.113 -0.183,0.172 -0.328,0.172 -0.148,0 -0.262,-0.059 -0.344,-0.172 -0.074,-0.117 -0.109,-0.273 -0.109,-0.469 0,-0.199 0.035,-0.355 0.109,-0.469 0.082,-0.105 0.196,-0.156 0.344,-0.156 0.145,0 0.254,0.051 0.328,0.156 0.082,0.114 0.125,0.27 0.125,0.469 z m -0.906,0.578 c 0.051,0.094 0.117,0.164 0.203,0.219 0.094,0.051 0.195,0.078 0.313,0.078 0.195,0 0.359,-0.086 0.484,-0.25 0.125,-0.156 0.187,-0.367 0.187,-0.625 0,-0.25 -0.062,-0.461 -0.187,-0.625 -0.125,-0.156 -0.289,-0.234 -0.484,-0.234 -0.118,0 -0.219,0.023 -0.313,0.062 -0.086,0.051 -0.152,0.129 -0.203,0.235 v -0.25 h -0.281 v 2.281 h 0.281 z"
         style="fill:#0000ff;fill-opacity:1;fill-rule:nonzero;stroke:none"
         id="path104" />
      <g
         id="g106"
         transform="matrix(1,0,0,-1,0,25.172432)">
        <path
           d="m 27.574,0.691 0.762,1.301 0.766,-1.301 z"
           style="fill:#000000;fill-opacity:1;fill-rule:evenodd;stroke:#000000;stroke-width:0.37492;stroke-linecap:butt;stroke-linejoin:miter;stroke-miterlimit:10;stroke-dasharray:none;stroke-opacity:1"
           id="path108" />
      </g>
      <path
         d="m 21.445,18.989 -0.812,-2.203 h 1.609 z m -1.343,-2.531 1.109,2.921 h 0.453 l 1.109,-2.921 z"
         style="fill:#0000ff;fill-opacity:1;fill-rule:nonzero;stroke:none"
         id="path110" />
      <path
         d="m 23.441,19.379 h 0.391 v -2.922 h -0.391 z"
         style="fill:#0000ff;fill-opacity:1;fill-rule:nonzero;stroke:none"
         id="path112" />
      <g
         id="g114"
         transform="matrix(-1,0,0,-0.428984,0,25.172432)">
        <path
           d="M -17.215,3.369 V 27.545"
           style="fill:none;stroke:#000000;stroke-width:0.555288;stroke-linecap:butt;stroke-linejoin:bevel;stroke-miterlimit:10;stroke-dasharray:none;stroke-opacity:1"
           id="path116" />
      </g>
      <g
         id="g118"
         transform="matrix(0,1,1,0,0,25.172432)">
        <path
           d="m -11.637,17.336 -2.761,-1.598"
           style="fill:none;stroke:#000000;stroke-width:0.25;stroke-linecap:butt;stroke-linejoin:bevel;stroke-miterlimit:10;stroke-dasharray:none;stroke-opacity:1"
           id="path120" />
      </g>
      <g
         id="g122"
         transform="matrix(0,1,1,0,0,25.172432)">
        <path
           d="m -12.039,17.219 c 0,0.199 0.164,0.359 0.367,0.359 0.199,0 0.363,-0.16 0.363,-0.359 0,-0.196 -0.164,-0.356 -0.363,-0.356 -0.203,0 -0.367,0.16 -0.367,0.356 z"
           style="fill:#ffffff;fill-opacity:1;fill-rule:evenodd;stroke:#000000;stroke-width:0.195;stroke-linecap:butt;stroke-linejoin:bevel;stroke-miterlimit:10;stroke-dasharray:none;stroke-opacity:1"
           id="path124" />
      </g>
      <g
         id="g126"
         transform="matrix(0,1,1,0,0,25.172432)">
        <path
           d="m -15.34,17.293 c 0,0.195 0.164,0.355 0.367,0.355 0.2,0 0.364,-0.16 0.364,-0.355 0,-0.199 -0.164,-0.359 -0.364,-0.359 -0.203,0 -0.367,0.16 -0.367,0.359 z"
           style="fill:#ffffff;fill-opacity:1;fill-rule:evenodd;stroke:#000000;stroke-width:0.195;stroke-linecap:butt;stroke-linejoin:bevel;stroke-miterlimit:10;stroke-dasharray:none;stroke-opacity:1"
           id="path128" />
      </g>
      <g
         id="g130"
         transform="matrix(1,0,0,-1,0,25.172432)">
        <path
           d="m 19.738,7.07 c 0,1.438 -1.164,2.602 -2.593,2.602 -1.434,0 -2.594,-1.164 -2.594,-2.602 0,-1.437 1.16,-2.601 2.594,-2.601 1.429,0 2.593,1.164 2.593,2.601 z"
           style="fill:#ffffff;fill-opacity:1;fill-rule:nonzero;stroke:#000000;stroke-width:0.457195;stroke-linecap:butt;stroke-linejoin:miter;stroke-miterlimit:4;stroke-dasharray:none;stroke-opacity:1"
           id="path132" />
      </g>
      <g
         id="g134"
         transform="rotate(-90,12.586216,12.586216)">
        <path
           d="M 7.922,17.176 7.824,17.23 7.727,17.289 v -0.227 l 0.097,0.059 z"
           style="fill:#ffffff;fill-opacity:1;fill-rule:nonzero;stroke:#000000;stroke-width:0.835853;stroke-linecap:butt;stroke-linejoin:miter;stroke-miterlimit:4;stroke-dasharray:none;stroke-opacity:1"
           id="path136" />
      </g>
      <g
         id="g138"
         transform="matrix(1,0,0,-1,0,25.172432)">
        <path
           d="M 17.16,5.285 V 7.934"
           style="fill:none;stroke:#000000;stroke-width:0.417926;stroke-linecap:butt;stroke-linejoin:bevel;stroke-miterlimit:10;stroke-dasharray:none;stroke-opacity:1"
           id="path140" />
      </g>
      <g
         id="g142"
         transform="matrix(1,0,0,-1,0,25.172432)">
        <path
           d="m 16.41,0.812 0.762,1.301 0.766,-1.301 z"
           style="fill:#000000;fill-opacity:1;fill-rule:evenodd;stroke:#000000;stroke-width:0.37492;stroke-linecap:butt;stroke-linejoin:miter;stroke-miterlimit:10;stroke-dasharray:none;stroke-opacity:1"
           id="path144" />
      </g>
      <g
         id="g146"
         transform="matrix(0,1,-0.151647,0,0,25.172432)">
        <path
           d="m -13.508,-98.192 v 24.161"
           style="fill:none;stroke:#000000;stroke-width:0.555288;stroke-linecap:butt;stroke-linejoin:bevel;stroke-miterlimit:10;stroke-dasharray:none;stroke-opacity:1"
           id="path148" />
      </g>
      <g
         id="g150"
         transform="matrix(0,1,-0.254699,0,0,25.172432)">
        <path
           d="m -10.352,-39.369 v 24.186"
           style="fill:none;stroke:#000000;stroke-width:0.596537;stroke-linecap:butt;stroke-linejoin:bevel;stroke-miterlimit:10;stroke-dasharray:none;stroke-opacity:1"
           id="path152" />
      </g>
      <path
         d="M 1.367,9.169 C 1.074,9.169 0.844,9.059 0.68,8.84 0.512,8.629 0.43,8.34 0.43,7.965 0.43,7.598 0.512,7.309 0.68,7.09 0.844,6.879 1.074,6.778 1.367,6.778 1.648,6.778 1.871,6.879 2.039,7.09 2.215,7.309 2.305,7.598 2.305,7.965 2.305,8.34 2.215,8.629 2.039,8.84 1.871,9.059 1.648,9.169 1.367,9.169 Z M 1.914,6.559 2.445,5.997 H 1.961 L 1.523,6.465 c -0.043,0 -0.074,0 -0.093,0 C 1.406,6.458 1.387,6.45 1.367,6.45 0.961,6.45 0.633,6.583 0.383,6.856 0.133,7.137 0.008,7.504 0.008,7.965 c 0,0.457 0.125,0.821 0.375,1.094 0.25,0.281 0.578,0.422 0.984,0.422 0.406,0 0.727,-0.141 0.969,-0.422 C 2.586,8.786 2.711,8.422 2.711,7.965 2.711,7.629 2.641,7.34 2.508,7.09 2.371,6.848 2.172,6.672 1.914,6.559 Z"
         style="fill:#ff0000;fill-opacity:1;fill-rule:nonzero;stroke:none"
         id="path154" />
      <path
         d="M 3.145,7.059 V 6.512 h 0.25 c 0.093,0 0.164,0.02 0.218,0.063 0.051,0.051 0.078,0.117 0.078,0.203 0,0.094 -0.027,0.16 -0.078,0.203 C 3.559,7.032 3.488,7.059 3.395,7.059 Z M 2.957,7.215 H 3.395 C 3.559,7.215 3.684,7.176 3.77,7.106 3.852,7.032 3.895,6.922 3.895,6.778 3.895,6.641 3.852,6.536 3.77,6.465 3.684,6.391 3.559,6.356 3.395,6.356 H 3.145 V 5.762 H 2.957 Z"
         style="fill:#ff0000;fill-opacity:1;fill-rule:nonzero;stroke:none"
         id="path156" />
      <path
         d="m 4.746,7.215 h 0.156 l -0.5,-1.64 H 4.23 Z"
         style="fill:#ff0000;fill-opacity:1;fill-rule:nonzero;stroke:none"
         id="path158" />
      <path
         d="M 5.258,7.215 H 5.523 L 6.164,5.997 V 7.215 H 6.352 V 5.762 H 6.086 L 5.445,6.981 V 5.762 H 5.258 Z"
         style="fill:#ff0000;fill-opacity:1;fill-rule:nonzero;stroke:none"
         id="path160" />
      <g
         id="g162"
         transform="matrix(1,0,0,-1,0,25.172432)">
        <path
           d="M 9.566,16.539 H 4.156"
           style="fill:none;stroke:#000000;stroke-width:0.738929;stroke-linecap:butt;stroke-linejoin:bevel;stroke-miterlimit:10;stroke-dasharray:none;stroke-opacity:1"
           id="path164" />
      </g>
      <g
         id="g166"
         transform="matrix(1,0,0,-1,0,25.172432)">
        <path
           d="M 7.82,19.133 V 14.66 L 9.168,13.609 7.82,12.559 V 7.875 l 3.996,1.855 v 7.493 z"
           style="fill:#ffffff;fill-opacity:1;fill-rule:evenodd;stroke:#000000;stroke-width:0.418941;stroke-linecap:butt;stroke-linejoin:miter;stroke-miterlimit:79.8403;stroke-dasharray:none;stroke-opacity:1"
           id="path168" />
      </g>
      <g
         id="g170"
         transform="translate(0,25.172432)">
        <path
           d="m 15.062,-13.488 -0.093,0.054 -0.098,0.055 v -0.223 l 0.098,0.055 z"
           style="fill:#ffffff;fill-opacity:1;fill-rule:nonzero;stroke:#000000;stroke-width:0.835853;stroke-linecap:butt;stroke-linejoin:miter;stroke-miterlimit:4;stroke-dasharray:none;stroke-opacity:1"
           id="path172" />
      </g>
      <path
         d="m 9.203,13.985 v 0.547 H 9.75 v 0.156 H 9.203 v 0.547 H 9.031 V 14.688 H 8.5 v -0.156 h 0.531 v -0.547 z"
         style="fill:#000000;fill-opacity:1;fill-rule:nonzero;stroke:none"
         id="path174" />
      <path
         d="M 8.781,9.098 H 9.812 V 8.957 H 8.781 Z"
         style="fill:#000000;fill-opacity:1;fill-rule:nonzero;stroke:none"
         id="path176" />
      <path
         d="m 0.645,19.258 v -2.265 h 0.484 c 0.406,0 0.695,0.086 0.875,0.265 0.187,0.188 0.281,0.477 0.281,0.875 0,0.383 -0.094,0.664 -0.281,0.844 -0.18,0.188 -0.469,0.281 -0.875,0.281 z m -0.391,0.328 h 0.812 c 0.563,0 0.973,-0.121 1.235,-0.359 0.269,-0.23 0.406,-0.594 0.406,-1.094 0,-0.511 -0.137,-0.886 -0.406,-1.125 C 2.039,16.778 1.629,16.665 1.066,16.665 H 0.254 Z"
         style="fill:#ff0000;fill-opacity:1;fill-rule:nonzero;stroke:none"
         id="path178" />
      <path
         d="m 3.152,17.211 v -0.546 h 0.25 c 0.094,0 0.164,0.019 0.219,0.062 0.051,0.051 0.078,0.117 0.078,0.203 0,0.094 -0.027,0.16 -0.078,0.203 -0.055,0.051 -0.125,0.078 -0.219,0.078 z m -0.187,0.157 h 0.437 c 0.164,0 0.289,-0.039 0.375,-0.11 0.082,-0.074 0.125,-0.183 0.125,-0.328 0,-0.136 -0.043,-0.242 -0.125,-0.312 -0.086,-0.074 -0.211,-0.11 -0.375,-0.11 H 3.152 V 15.915 H 2.965 Z"
         style="fill:#ff0000;fill-opacity:1;fill-rule:nonzero;stroke:none"
         id="path180" />
      <path
         d="M 4.754,17.368 H 4.91 L 4.41,15.727 H 4.238 Z"
         style="fill:#ff0000;fill-opacity:1;fill-rule:nonzero;stroke:none"
         id="path182" />
      <path
         d="m 5.27,17.368 h 0.265 l 0.641,-1.219 v 1.219 H 6.363 V 15.915 H 6.098 L 5.457,17.133 V 15.915 H 5.27 Z"
         style="fill:#ff0000;fill-opacity:1;fill-rule:nonzero;stroke:none"
         id="path184" />
      <path
         d="m 56.719,9.415 c -0.293,0 -0.524,-0.11 -0.688,-0.329 -0.168,-0.21 -0.25,-0.5 -0.25,-0.875 0,-0.367 0.082,-0.656 0.25,-0.875 0.164,-0.21 0.395,-0.312 0.688,-0.312 0.281,0 0.504,0.102 0.672,0.312 0.175,0.219 0.265,0.508 0.265,0.875 0,0.375 -0.09,0.665 -0.265,0.875 C 57.223,9.305 57,9.415 56.719,9.415 Z m 0.547,-2.61 0.531,-0.562 h -0.485 l -0.437,0.468 c -0.043,0 -0.074,0 -0.094,0 -0.023,-0.007 -0.043,-0.015 -0.062,-0.015 -0.407,0 -0.735,0.133 -0.985,0.406 -0.25,0.281 -0.375,0.649 -0.375,1.109 0,0.458 0.125,0.821 0.375,1.094 0.25,0.281 0.578,0.422 0.985,0.422 0.406,0 0.726,-0.141 0.969,-0.422 0.25,-0.273 0.374,-0.636 0.374,-1.094 0,-0.335 -0.07,-0.625 -0.203,-0.875 C 57.723,7.094 57.523,6.919 57.266,6.805 Z"
         style="fill:#0000ff;fill-opacity:1;fill-rule:nonzero;stroke:none"
         id="path186" />
      <path
         d="m 58.309,7.458 h 0.265 l 0.641,-1.219 v 1.219 h 0.187 V 6.004 H 59.137 L 58.496,7.223 V 6.004 h -0.187 z"
         style="fill:#0000ff;fill-opacity:1;fill-rule:nonzero;stroke:none"
         id="path188" />
      <path
         d="m 15.656,3.559 -1.109,2.922 h 0.406 l 0.938,-2.453 0.921,2.453 h 0.407 l -1.11,-2.922 z"
         style="fill:#0000ff;fill-opacity:1;fill-rule:nonzero;stroke:none"
         id="path190" />
      <path
         d="m 18.828,3.715 c 0.063,-0.023 0.125,-0.07 0.188,-0.14 0.062,-0.074 0.125,-0.172 0.187,-0.297 L 19.5,2.684 H 19.188 L 18.906,3.247 C 18.832,3.391 18.758,3.485 18.688,3.528 18.625,3.579 18.531,3.606 18.406,3.606 H 18.094 V 2.684 h -0.297 v 2.188 h 0.672 c 0.25,0 0.429,-0.055 0.547,-0.157 0.125,-0.105 0.187,-0.261 0.187,-0.468 0,-0.149 -0.031,-0.266 -0.094,-0.36 C 19.047,3.801 18.953,3.747 18.828,3.715 Z M 18.094,4.622 V 3.856 h 0.375 c 0.133,0 0.238,0.031 0.312,0.094 0.071,0.062 0.11,0.16 0.11,0.297 0,0.125 -0.039,0.218 -0.11,0.281 -0.074,0.062 -0.179,0.094 -0.312,0.094 z"
         style="fill:#0000ff;fill-opacity:1;fill-rule:nonzero;stroke:none"
         id="path192" />
    </g>
  </g>
</svg>
